%TF.GenerationSoftware,KiCad,Pcbnew,10.0.4*%
%TF.CreationDate,2026-09-24T00:17:53-06:00*%
%TF.ProjectId,section,73656374-696f-46e2-9e6b-696361645f70,rev?*%
%TF.SameCoordinates,Original*%
%TF.FileFunction,AssemblyDrawing,Top*%
%FSLAX45Y45*%
G04 Gerber Fmt 4.5, Leading zero omitted, Abs format (unit mm)*
G04 Created by KiCad (PCBNEW 10.0.4) date 2026-09-24 00:17:53*
%MOMM*%
%LPD*%
G01*
G04 APERTURE LIST*
%ADD10C,0.060000*%
%ADD11C,0.150000*%
%ADD12C,0.120000*%
%ADD13C,0.110000*%
%ADD14C,0.100000*%
G04 APERTURE END LIST*
D10*
X2768193Y-3806667D02*
X2749145Y-3820000D01*
X2768193Y-3829524D02*
X2728193Y-3829524D01*
X2728193Y-3829524D02*
X2728193Y-3814286D01*
X2728193Y-3814286D02*
X2730098Y-3810476D01*
X2730098Y-3810476D02*
X2732002Y-3808571D01*
X2732002Y-3808571D02*
X2735812Y-3806667D01*
X2735812Y-3806667D02*
X2741526Y-3806667D01*
X2741526Y-3806667D02*
X2745336Y-3808571D01*
X2745336Y-3808571D02*
X2747240Y-3810476D01*
X2747240Y-3810476D02*
X2749145Y-3814286D01*
X2749145Y-3814286D02*
X2749145Y-3829524D01*
X2732002Y-3791428D02*
X2730098Y-3789524D01*
X2730098Y-3789524D02*
X2728193Y-3785714D01*
X2728193Y-3785714D02*
X2728193Y-3776190D01*
X2728193Y-3776190D02*
X2730098Y-3772381D01*
X2730098Y-3772381D02*
X2732002Y-3770476D01*
X2732002Y-3770476D02*
X2735812Y-3768571D01*
X2735812Y-3768571D02*
X2739621Y-3768571D01*
X2739621Y-3768571D02*
X2745336Y-3770476D01*
X2745336Y-3770476D02*
X2768193Y-3793333D01*
X2768193Y-3793333D02*
X2768193Y-3768571D01*
X6818193Y-5236667D02*
X6799145Y-5250000D01*
X6818193Y-5259524D02*
X6778193Y-5259524D01*
X6778193Y-5259524D02*
X6778193Y-5244286D01*
X6778193Y-5244286D02*
X6780097Y-5240476D01*
X6780097Y-5240476D02*
X6782002Y-5238571D01*
X6782002Y-5238571D02*
X6785812Y-5236667D01*
X6785812Y-5236667D02*
X6791526Y-5236667D01*
X6791526Y-5236667D02*
X6795336Y-5238571D01*
X6795336Y-5238571D02*
X6797240Y-5240476D01*
X6797240Y-5240476D02*
X6799145Y-5244286D01*
X6799145Y-5244286D02*
X6799145Y-5259524D01*
X6795336Y-5213810D02*
X6793431Y-5217619D01*
X6793431Y-5217619D02*
X6791526Y-5219524D01*
X6791526Y-5219524D02*
X6787716Y-5221429D01*
X6787716Y-5221429D02*
X6785812Y-5221429D01*
X6785812Y-5221429D02*
X6782002Y-5219524D01*
X6782002Y-5219524D02*
X6780097Y-5217619D01*
X6780097Y-5217619D02*
X6778193Y-5213810D01*
X6778193Y-5213810D02*
X6778193Y-5206190D01*
X6778193Y-5206190D02*
X6780097Y-5202381D01*
X6780097Y-5202381D02*
X6782002Y-5200476D01*
X6782002Y-5200476D02*
X6785812Y-5198571D01*
X6785812Y-5198571D02*
X6787716Y-5198571D01*
X6787716Y-5198571D02*
X6791526Y-5200476D01*
X6791526Y-5200476D02*
X6793431Y-5202381D01*
X6793431Y-5202381D02*
X6795336Y-5206190D01*
X6795336Y-5206190D02*
X6795336Y-5213810D01*
X6795336Y-5213810D02*
X6797240Y-5217619D01*
X6797240Y-5217619D02*
X6799145Y-5219524D01*
X6799145Y-5219524D02*
X6802955Y-5221429D01*
X6802955Y-5221429D02*
X6810574Y-5221429D01*
X6810574Y-5221429D02*
X6814383Y-5219524D01*
X6814383Y-5219524D02*
X6816288Y-5217619D01*
X6816288Y-5217619D02*
X6818193Y-5213810D01*
X6818193Y-5213810D02*
X6818193Y-5206190D01*
X6818193Y-5206190D02*
X6816288Y-5202381D01*
X6816288Y-5202381D02*
X6814383Y-5200476D01*
X6814383Y-5200476D02*
X6810574Y-5198571D01*
X6810574Y-5198571D02*
X6802955Y-5198571D01*
X6802955Y-5198571D02*
X6799145Y-5200476D01*
X6799145Y-5200476D02*
X6797240Y-5202381D01*
X6797240Y-5202381D02*
X6795336Y-5206190D01*
D11*
X5123810Y-3945482D02*
X5123810Y-4026434D01*
X5123810Y-4026434D02*
X5128571Y-4035958D01*
X5128571Y-4035958D02*
X5133333Y-4040720D01*
X5133333Y-4040720D02*
X5142857Y-4045482D01*
X5142857Y-4045482D02*
X5161905Y-4045482D01*
X5161905Y-4045482D02*
X5171429Y-4040720D01*
X5171429Y-4040720D02*
X5176190Y-4035958D01*
X5176190Y-4035958D02*
X5180952Y-4026434D01*
X5180952Y-4026434D02*
X5180952Y-3945482D01*
X5280952Y-4045482D02*
X5223810Y-4045482D01*
X5252381Y-4045482D02*
X5252381Y-3945482D01*
X5252381Y-3945482D02*
X5242857Y-3959768D01*
X5242857Y-3959768D02*
X5233333Y-3969291D01*
X5233333Y-3969291D02*
X5223810Y-3974053D01*
X7145482Y-3060333D02*
X7216910Y-3060333D01*
X7216910Y-3060333D02*
X7231196Y-3065095D01*
X7231196Y-3065095D02*
X7240720Y-3074619D01*
X7240720Y-3074619D02*
X7245482Y-3088905D01*
X7245482Y-3088905D02*
X7245482Y-3098428D01*
X7145482Y-3022238D02*
X7145482Y-2960333D01*
X7145482Y-2960333D02*
X7183577Y-2993667D01*
X7183577Y-2993667D02*
X7183577Y-2979381D01*
X7183577Y-2979381D02*
X7188339Y-2969857D01*
X7188339Y-2969857D02*
X7193101Y-2965095D01*
X7193101Y-2965095D02*
X7202625Y-2960333D01*
X7202625Y-2960333D02*
X7226434Y-2960333D01*
X7226434Y-2960333D02*
X7235958Y-2965095D01*
X7235958Y-2965095D02*
X7240720Y-2969857D01*
X7240720Y-2969857D02*
X7245482Y-2979381D01*
X7245482Y-2979381D02*
X7245482Y-3007952D01*
X7245482Y-3007952D02*
X7240720Y-3017476D01*
X7240720Y-3017476D02*
X7235958Y-3022238D01*
X745482Y-3960333D02*
X816910Y-3960333D01*
X816910Y-3960333D02*
X831196Y-3965095D01*
X831196Y-3965095D02*
X840720Y-3974619D01*
X840720Y-3974619D02*
X845482Y-3988905D01*
X845482Y-3988905D02*
X845482Y-3998428D01*
X745482Y-3865095D02*
X745482Y-3912714D01*
X745482Y-3912714D02*
X793101Y-3917476D01*
X793101Y-3917476D02*
X788339Y-3912714D01*
X788339Y-3912714D02*
X783577Y-3903190D01*
X783577Y-3903190D02*
X783577Y-3879381D01*
X783577Y-3879381D02*
X788339Y-3869857D01*
X788339Y-3869857D02*
X793101Y-3865095D01*
X793101Y-3865095D02*
X802625Y-3860333D01*
X802625Y-3860333D02*
X826434Y-3860333D01*
X826434Y-3860333D02*
X835958Y-3865095D01*
X835958Y-3865095D02*
X840720Y-3869857D01*
X840720Y-3869857D02*
X845482Y-3879381D01*
X845482Y-3879381D02*
X845482Y-3903190D01*
X845482Y-3903190D02*
X840720Y-3912714D01*
X840720Y-3912714D02*
X835958Y-3917476D01*
D12*
X6286667Y-4353886D02*
X6260000Y-4315790D01*
X6240952Y-4353886D02*
X6240952Y-4273886D01*
X6240952Y-4273886D02*
X6271429Y-4273886D01*
X6271429Y-4273886D02*
X6279048Y-4277695D01*
X6279048Y-4277695D02*
X6282857Y-4281505D01*
X6282857Y-4281505D02*
X6286667Y-4289124D01*
X6286667Y-4289124D02*
X6286667Y-4300552D01*
X6286667Y-4300552D02*
X6282857Y-4308171D01*
X6282857Y-4308171D02*
X6279048Y-4311981D01*
X6279048Y-4311981D02*
X6271429Y-4315790D01*
X6271429Y-4315790D02*
X6240952Y-4315790D01*
X6313333Y-4273886D02*
X6366667Y-4273886D01*
X6366667Y-4273886D02*
X6332381Y-4353886D01*
D11*
X7145482Y-5260333D02*
X7216910Y-5260333D01*
X7216910Y-5260333D02*
X7231196Y-5265095D01*
X7231196Y-5265095D02*
X7240720Y-5274619D01*
X7240720Y-5274619D02*
X7245482Y-5288905D01*
X7245482Y-5288905D02*
X7245482Y-5298429D01*
X7178815Y-5169857D02*
X7245482Y-5169857D01*
X7140720Y-5193667D02*
X7212148Y-5217476D01*
X7212148Y-5217476D02*
X7212148Y-5155571D01*
D12*
X6086667Y-3328766D02*
X6082857Y-3332576D01*
X6082857Y-3332576D02*
X6071429Y-3336385D01*
X6071429Y-3336385D02*
X6063809Y-3336385D01*
X6063809Y-3336385D02*
X6052381Y-3332576D01*
X6052381Y-3332576D02*
X6044762Y-3324957D01*
X6044762Y-3324957D02*
X6040952Y-3317338D01*
X6040952Y-3317338D02*
X6037143Y-3302100D01*
X6037143Y-3302100D02*
X6037143Y-3290671D01*
X6037143Y-3290671D02*
X6040952Y-3275433D01*
X6040952Y-3275433D02*
X6044762Y-3267814D01*
X6044762Y-3267814D02*
X6052381Y-3260195D01*
X6052381Y-3260195D02*
X6063809Y-3256385D01*
X6063809Y-3256385D02*
X6071429Y-3256385D01*
X6071429Y-3256385D02*
X6082857Y-3260195D01*
X6082857Y-3260195D02*
X6086667Y-3264004D01*
X6155238Y-3283052D02*
X6155238Y-3336385D01*
X6136190Y-3252576D02*
X6117143Y-3309719D01*
X6117143Y-3309719D02*
X6166667Y-3309719D01*
D10*
X6043333Y-4094383D02*
X6041428Y-4096288D01*
X6041428Y-4096288D02*
X6035714Y-4098193D01*
X6035714Y-4098193D02*
X6031905Y-4098193D01*
X6031905Y-4098193D02*
X6026190Y-4096288D01*
X6026190Y-4096288D02*
X6022381Y-4092478D01*
X6022381Y-4092478D02*
X6020476Y-4088669D01*
X6020476Y-4088669D02*
X6018571Y-4081050D01*
X6018571Y-4081050D02*
X6018571Y-4075336D01*
X6018571Y-4075336D02*
X6020476Y-4067716D01*
X6020476Y-4067716D02*
X6022381Y-4063907D01*
X6022381Y-4063907D02*
X6026190Y-4060097D01*
X6026190Y-4060097D02*
X6031905Y-4058193D01*
X6031905Y-4058193D02*
X6035714Y-4058193D01*
X6035714Y-4058193D02*
X6041428Y-4060097D01*
X6041428Y-4060097D02*
X6043333Y-4062002D01*
X6058571Y-4062002D02*
X6060476Y-4060097D01*
X6060476Y-4060097D02*
X6064286Y-4058193D01*
X6064286Y-4058193D02*
X6073809Y-4058193D01*
X6073809Y-4058193D02*
X6077619Y-4060097D01*
X6077619Y-4060097D02*
X6079524Y-4062002D01*
X6079524Y-4062002D02*
X6081428Y-4065812D01*
X6081428Y-4065812D02*
X6081428Y-4069621D01*
X6081428Y-4069621D02*
X6079524Y-4075336D01*
X6079524Y-4075336D02*
X6056667Y-4098193D01*
X6056667Y-4098193D02*
X6081428Y-4098193D01*
X2393333Y-3418193D02*
X2380000Y-3399145D01*
X2370476Y-3418193D02*
X2370476Y-3378193D01*
X2370476Y-3378193D02*
X2385714Y-3378193D01*
X2385714Y-3378193D02*
X2389524Y-3380097D01*
X2389524Y-3380097D02*
X2391429Y-3382002D01*
X2391429Y-3382002D02*
X2393333Y-3385812D01*
X2393333Y-3385812D02*
X2393333Y-3391526D01*
X2393333Y-3391526D02*
X2391429Y-3395336D01*
X2391429Y-3395336D02*
X2389524Y-3397240D01*
X2389524Y-3397240D02*
X2385714Y-3399145D01*
X2385714Y-3399145D02*
X2370476Y-3399145D01*
X2431429Y-3418193D02*
X2408571Y-3418193D01*
X2420000Y-3418193D02*
X2420000Y-3378193D01*
X2420000Y-3378193D02*
X2416190Y-3383907D01*
X2416190Y-3383907D02*
X2412381Y-3387716D01*
X2412381Y-3387716D02*
X2408571Y-3389621D01*
X4464383Y-3893667D02*
X4466288Y-3895571D01*
X4466288Y-3895571D02*
X4468193Y-3901286D01*
X4468193Y-3901286D02*
X4468193Y-3905095D01*
X4468193Y-3905095D02*
X4466288Y-3910809D01*
X4466288Y-3910809D02*
X4462478Y-3914619D01*
X4462478Y-3914619D02*
X4458669Y-3916524D01*
X4458669Y-3916524D02*
X4451050Y-3918428D01*
X4451050Y-3918428D02*
X4445336Y-3918428D01*
X4445336Y-3918428D02*
X4437717Y-3916524D01*
X4437717Y-3916524D02*
X4433907Y-3914619D01*
X4433907Y-3914619D02*
X4430098Y-3910809D01*
X4430098Y-3910809D02*
X4428193Y-3905095D01*
X4428193Y-3905095D02*
X4428193Y-3901286D01*
X4428193Y-3901286D02*
X4430098Y-3895571D01*
X4430098Y-3895571D02*
X4432002Y-3893667D01*
X4468193Y-3855571D02*
X4468193Y-3878428D01*
X4468193Y-3867000D02*
X4428193Y-3867000D01*
X4428193Y-3867000D02*
X4433907Y-3870809D01*
X4433907Y-3870809D02*
X4437717Y-3874619D01*
X4437717Y-3874619D02*
X4439621Y-3878428D01*
D13*
X3239594Y-3806857D02*
X3236165Y-3813714D01*
X3236165Y-3813714D02*
X3229308Y-3820571D01*
X3229308Y-3820571D02*
X3219022Y-3830857D01*
X3219022Y-3830857D02*
X3215594Y-3837714D01*
X3215594Y-3837714D02*
X3215594Y-3844571D01*
X3232736Y-3841143D02*
X3229308Y-3848000D01*
X3229308Y-3848000D02*
X3222451Y-3854857D01*
X3222451Y-3854857D02*
X3208736Y-3858286D01*
X3208736Y-3858286D02*
X3184736Y-3858286D01*
X3184736Y-3858286D02*
X3171022Y-3854857D01*
X3171022Y-3854857D02*
X3164165Y-3848000D01*
X3164165Y-3848000D02*
X3160736Y-3841143D01*
X3160736Y-3841143D02*
X3160736Y-3827428D01*
X3160736Y-3827428D02*
X3164165Y-3820571D01*
X3164165Y-3820571D02*
X3171022Y-3813714D01*
X3171022Y-3813714D02*
X3184736Y-3810286D01*
X3184736Y-3810286D02*
X3208736Y-3810286D01*
X3208736Y-3810286D02*
X3222451Y-3813714D01*
X3222451Y-3813714D02*
X3229308Y-3820571D01*
X3229308Y-3820571D02*
X3232736Y-3827428D01*
X3232736Y-3827428D02*
X3232736Y-3841143D01*
X3232736Y-3741714D02*
X3232736Y-3782857D01*
X3232736Y-3762286D02*
X3160736Y-3762286D01*
X3160736Y-3762286D02*
X3171022Y-3769143D01*
X3171022Y-3769143D02*
X3177879Y-3776000D01*
X3177879Y-3776000D02*
X3181308Y-3782857D01*
D11*
X6273809Y-2035482D02*
X6273809Y-1935482D01*
X6330952Y-2035482D02*
X6288095Y-1978339D01*
X6330952Y-1935482D02*
X6273809Y-1992625D01*
X6773190Y-2245482D02*
X6773190Y-2145482D01*
X6773190Y-2145482D02*
X6797000Y-2145482D01*
X6797000Y-2145482D02*
X6811286Y-2150244D01*
X6811286Y-2150244D02*
X6820809Y-2159768D01*
X6820809Y-2159768D02*
X6825571Y-2169291D01*
X6825571Y-2169291D02*
X6830333Y-2188339D01*
X6830333Y-2188339D02*
X6830333Y-2202625D01*
X6830333Y-2202625D02*
X6825571Y-2221672D01*
X6825571Y-2221672D02*
X6820809Y-2231196D01*
X6820809Y-2231196D02*
X6811286Y-2240720D01*
X6811286Y-2240720D02*
X6797000Y-2245482D01*
X6797000Y-2245482D02*
X6773190Y-2245482D01*
X6925571Y-2245482D02*
X6868429Y-2245482D01*
X6897000Y-2245482D02*
X6897000Y-2145482D01*
X6897000Y-2145482D02*
X6887476Y-2159768D01*
X6887476Y-2159768D02*
X6877952Y-2169291D01*
X6877952Y-2169291D02*
X6868429Y-2174053D01*
D12*
X5986667Y-5228766D02*
X5982857Y-5232576D01*
X5982857Y-5232576D02*
X5971429Y-5236386D01*
X5971429Y-5236386D02*
X5963809Y-5236386D01*
X5963809Y-5236386D02*
X5952381Y-5232576D01*
X5952381Y-5232576D02*
X5944762Y-5224957D01*
X5944762Y-5224957D02*
X5940952Y-5217338D01*
X5940952Y-5217338D02*
X5937143Y-5202100D01*
X5937143Y-5202100D02*
X5937143Y-5190671D01*
X5937143Y-5190671D02*
X5940952Y-5175433D01*
X5940952Y-5175433D02*
X5944762Y-5167814D01*
X5944762Y-5167814D02*
X5952381Y-5160195D01*
X5952381Y-5160195D02*
X5963809Y-5156386D01*
X5963809Y-5156386D02*
X5971429Y-5156386D01*
X5971429Y-5156386D02*
X5982857Y-5160195D01*
X5982857Y-5160195D02*
X5986667Y-5164005D01*
X6013333Y-5156386D02*
X6062857Y-5156386D01*
X6062857Y-5156386D02*
X6036190Y-5186862D01*
X6036190Y-5186862D02*
X6047619Y-5186862D01*
X6047619Y-5186862D02*
X6055238Y-5190671D01*
X6055238Y-5190671D02*
X6059048Y-5194481D01*
X6059048Y-5194481D02*
X6062857Y-5202100D01*
X6062857Y-5202100D02*
X6062857Y-5221147D01*
X6062857Y-5221147D02*
X6059048Y-5228766D01*
X6059048Y-5228766D02*
X6055238Y-5232576D01*
X6055238Y-5232576D02*
X6047619Y-5236386D01*
X6047619Y-5236386D02*
X6024762Y-5236386D01*
X6024762Y-5236386D02*
X6017143Y-5232576D01*
X6017143Y-5232576D02*
X6013333Y-5228766D01*
D10*
X6818193Y-3036667D02*
X6799145Y-3050000D01*
X6818193Y-3059524D02*
X6778193Y-3059524D01*
X6778193Y-3059524D02*
X6778193Y-3044286D01*
X6778193Y-3044286D02*
X6780097Y-3040476D01*
X6780097Y-3040476D02*
X6782002Y-3038571D01*
X6782002Y-3038571D02*
X6785812Y-3036667D01*
X6785812Y-3036667D02*
X6791526Y-3036667D01*
X6791526Y-3036667D02*
X6795336Y-3038571D01*
X6795336Y-3038571D02*
X6797240Y-3040476D01*
X6797240Y-3040476D02*
X6799145Y-3044286D01*
X6799145Y-3044286D02*
X6799145Y-3059524D01*
X6778193Y-3002381D02*
X6778193Y-3010000D01*
X6778193Y-3010000D02*
X6780097Y-3013809D01*
X6780097Y-3013809D02*
X6782002Y-3015714D01*
X6782002Y-3015714D02*
X6787716Y-3019524D01*
X6787716Y-3019524D02*
X6795336Y-3021428D01*
X6795336Y-3021428D02*
X6810574Y-3021428D01*
X6810574Y-3021428D02*
X6814383Y-3019524D01*
X6814383Y-3019524D02*
X6816288Y-3017619D01*
X6816288Y-3017619D02*
X6818193Y-3013809D01*
X6818193Y-3013809D02*
X6818193Y-3006190D01*
X6818193Y-3006190D02*
X6816288Y-3002381D01*
X6816288Y-3002381D02*
X6814383Y-3000476D01*
X6814383Y-3000476D02*
X6810574Y-2998571D01*
X6810574Y-2998571D02*
X6801050Y-2998571D01*
X6801050Y-2998571D02*
X6797240Y-3000476D01*
X6797240Y-3000476D02*
X6795336Y-3002381D01*
X6795336Y-3002381D02*
X6793431Y-3006190D01*
X6793431Y-3006190D02*
X6793431Y-3013809D01*
X6793431Y-3013809D02*
X6795336Y-3017619D01*
X6795336Y-3017619D02*
X6797240Y-3019524D01*
X6797240Y-3019524D02*
X6801050Y-3021428D01*
X3618193Y-4006667D02*
X3599145Y-4020000D01*
X3618193Y-4029524D02*
X3578193Y-4029524D01*
X3578193Y-4029524D02*
X3578193Y-4014286D01*
X3578193Y-4014286D02*
X3580097Y-4010476D01*
X3580097Y-4010476D02*
X3582002Y-4008571D01*
X3582002Y-4008571D02*
X3585812Y-4006667D01*
X3585812Y-4006667D02*
X3591526Y-4006667D01*
X3591526Y-4006667D02*
X3595336Y-4008571D01*
X3595336Y-4008571D02*
X3597240Y-4010476D01*
X3597240Y-4010476D02*
X3599145Y-4014286D01*
X3599145Y-4014286D02*
X3599145Y-4029524D01*
X3578193Y-3993333D02*
X3578193Y-3968571D01*
X3578193Y-3968571D02*
X3593431Y-3981905D01*
X3593431Y-3981905D02*
X3593431Y-3976190D01*
X3593431Y-3976190D02*
X3595336Y-3972381D01*
X3595336Y-3972381D02*
X3597240Y-3970476D01*
X3597240Y-3970476D02*
X3601050Y-3968571D01*
X3601050Y-3968571D02*
X3610574Y-3968571D01*
X3610574Y-3968571D02*
X3614383Y-3970476D01*
X3614383Y-3970476D02*
X3616288Y-3972381D01*
X3616288Y-3972381D02*
X3618193Y-3976190D01*
X3618193Y-3976190D02*
X3618193Y-3987619D01*
X3618193Y-3987619D02*
X3616288Y-3991428D01*
X3616288Y-3991428D02*
X3614383Y-3993333D01*
D12*
X6286667Y-3718885D02*
X6260000Y-3680790D01*
X6240952Y-3718885D02*
X6240952Y-3638885D01*
X6240952Y-3638885D02*
X6271429Y-3638885D01*
X6271429Y-3638885D02*
X6279048Y-3642695D01*
X6279048Y-3642695D02*
X6282857Y-3646504D01*
X6282857Y-3646504D02*
X6286667Y-3654124D01*
X6286667Y-3654124D02*
X6286667Y-3665552D01*
X6286667Y-3665552D02*
X6282857Y-3673171D01*
X6282857Y-3673171D02*
X6279048Y-3676981D01*
X6279048Y-3676981D02*
X6271429Y-3680790D01*
X6271429Y-3680790D02*
X6240952Y-3680790D01*
X6359048Y-3638885D02*
X6320952Y-3638885D01*
X6320952Y-3638885D02*
X6317143Y-3676981D01*
X6317143Y-3676981D02*
X6320952Y-3673171D01*
X6320952Y-3673171D02*
X6328571Y-3669362D01*
X6328571Y-3669362D02*
X6347619Y-3669362D01*
X6347619Y-3669362D02*
X6355238Y-3673171D01*
X6355238Y-3673171D02*
X6359048Y-3676981D01*
X6359048Y-3676981D02*
X6362857Y-3684600D01*
X6362857Y-3684600D02*
X6362857Y-3703647D01*
X6362857Y-3703647D02*
X6359048Y-3711266D01*
X6359048Y-3711266D02*
X6355238Y-3715076D01*
X6355238Y-3715076D02*
X6347619Y-3718885D01*
X6347619Y-3718885D02*
X6328571Y-3718885D01*
X6328571Y-3718885D02*
X6320952Y-3715076D01*
X6320952Y-3715076D02*
X6317143Y-3711266D01*
D10*
X4343333Y-4518193D02*
X4330000Y-4499145D01*
X4320476Y-4518193D02*
X4320476Y-4478193D01*
X4320476Y-4478193D02*
X4335714Y-4478193D01*
X4335714Y-4478193D02*
X4339524Y-4480098D01*
X4339524Y-4480098D02*
X4341429Y-4482002D01*
X4341429Y-4482002D02*
X4343333Y-4485812D01*
X4343333Y-4485812D02*
X4343333Y-4491526D01*
X4343333Y-4491526D02*
X4341429Y-4495336D01*
X4341429Y-4495336D02*
X4339524Y-4497240D01*
X4339524Y-4497240D02*
X4335714Y-4499145D01*
X4335714Y-4499145D02*
X4320476Y-4499145D01*
X4377619Y-4491526D02*
X4377619Y-4518193D01*
X4368095Y-4476288D02*
X4358571Y-4504859D01*
X4358571Y-4504859D02*
X4383333Y-4504859D01*
D11*
X475482Y-1808333D02*
X546910Y-1808333D01*
X546910Y-1808333D02*
X561196Y-1813095D01*
X561196Y-1813095D02*
X570720Y-1822619D01*
X570720Y-1822619D02*
X575482Y-1836905D01*
X575482Y-1836905D02*
X575482Y-1846428D01*
X575482Y-1708333D02*
X575482Y-1765476D01*
X575482Y-1736905D02*
X475482Y-1736905D01*
X475482Y-1736905D02*
X489768Y-1746428D01*
X489768Y-1746428D02*
X499291Y-1755952D01*
X499291Y-1755952D02*
X504053Y-1765476D01*
X7545482Y-6660333D02*
X7616910Y-6660333D01*
X7616910Y-6660333D02*
X7631196Y-6665095D01*
X7631196Y-6665095D02*
X7640720Y-6674619D01*
X7640720Y-6674619D02*
X7645482Y-6688905D01*
X7645482Y-6688905D02*
X7645482Y-6698428D01*
X7555006Y-6617476D02*
X7550244Y-6612714D01*
X7550244Y-6612714D02*
X7545482Y-6603190D01*
X7545482Y-6603190D02*
X7545482Y-6579381D01*
X7545482Y-6579381D02*
X7550244Y-6569857D01*
X7550244Y-6569857D02*
X7555006Y-6565095D01*
X7555006Y-6565095D02*
X7564529Y-6560333D01*
X7564529Y-6560333D02*
X7574053Y-6560333D01*
X7574053Y-6560333D02*
X7588339Y-6565095D01*
X7588339Y-6565095D02*
X7645482Y-6622238D01*
X7645482Y-6622238D02*
X7645482Y-6560333D01*
%TO.C,R2*%
D14*
X2708750Y-3720000D02*
X2791250Y-3720000D01*
X2791250Y-3880000D01*
X2708750Y-3880000D01*
X2708750Y-3720000D01*
%TO.C,R8*%
X6758750Y-5150000D02*
X6841250Y-5150000D01*
X6841250Y-5310000D01*
X6758750Y-5310000D01*
X6758750Y-5150000D01*
%TO.C,U1*%
X4925000Y-3485000D02*
X5575000Y-3485000D01*
X5575000Y-4515000D01*
X4825000Y-4515000D01*
X4825000Y-3585000D01*
X4925000Y-3485000D01*
%TO.C,J3*%
X7073000Y-2836500D02*
X7136500Y-2773000D01*
X7073000Y-3281000D02*
X7073000Y-2836500D01*
X7136500Y-2773000D02*
X7327000Y-2773000D01*
X7327000Y-2773000D02*
X7327000Y-3281000D01*
X7327000Y-3281000D02*
X7073000Y-3281000D01*
%TO.C,J5*%
X673000Y-3736500D02*
X736500Y-3673000D01*
X673000Y-4181000D02*
X673000Y-3736500D01*
X736500Y-3673000D02*
X927000Y-3673000D01*
X927000Y-3673000D02*
X927000Y-4181000D01*
X927000Y-4181000D02*
X673000Y-4181000D01*
%TO.C,R7*%
X6140000Y-4237500D02*
X6460000Y-4237500D01*
X6460000Y-4397500D01*
X6140000Y-4397500D01*
X6140000Y-4237500D01*
%TO.C,J4*%
X7073000Y-5036500D02*
X7136500Y-4973000D01*
X7073000Y-5481000D02*
X7073000Y-5036500D01*
X7136500Y-4973000D02*
X7327000Y-4973000D01*
X7327000Y-4973000D02*
X7327000Y-5481000D01*
X7327000Y-5481000D02*
X7073000Y-5481000D01*
%TO.C,C4*%
X5940000Y-3175000D02*
X6260000Y-3175000D01*
X6260000Y-3425000D01*
X5940000Y-3425000D01*
X5940000Y-3175000D01*
%TO.C,C2*%
X5970000Y-4040000D02*
X6130000Y-4040000D01*
X6130000Y-4120000D01*
X5970000Y-4120000D01*
X5970000Y-4040000D01*
%TO.C,R1*%
X2320000Y-3358750D02*
X2480000Y-3358750D01*
X2480000Y-3441250D01*
X2320000Y-3441250D01*
X2320000Y-3358750D01*
%TO.C,C1*%
X4410000Y-3807000D02*
X4490000Y-3807000D01*
X4490000Y-3967000D01*
X4410000Y-3967000D01*
X4410000Y-3807000D01*
%TO.C,Q1*%
X3167500Y-3655000D02*
X3265000Y-3655000D01*
X3265000Y-3945000D01*
X3135000Y-3945000D01*
X3135000Y-3687500D01*
X3167500Y-3655000D01*
%TO.C,D1*%
X6300000Y-2200000D02*
X6548000Y-2200000D01*
X6616000Y-2065000D02*
X6616000Y-2335000D01*
X6626000Y-2065000D02*
X6626000Y-2335000D01*
X6636000Y-2065000D02*
X6636000Y-2335000D01*
X7316000Y-2200000D02*
X7068000Y-2200000D01*
X6548000Y-2065000D02*
X7068000Y-2065000D01*
X7068000Y-2335000D01*
X6548000Y-2335000D01*
X6548000Y-2065000D01*
%TO.C,C3*%
X5840000Y-5075000D02*
X6160000Y-5075000D01*
X6160000Y-5325000D01*
X5840000Y-5325000D01*
X5840000Y-5075000D01*
%TO.C,R6*%
X6758750Y-2950000D02*
X6841250Y-2950000D01*
X6841250Y-3110000D01*
X6758750Y-3110000D01*
X6758750Y-2950000D01*
%TO.C,R3*%
X3558750Y-3920000D02*
X3641250Y-3920000D01*
X3641250Y-4080000D01*
X3558750Y-4080000D01*
X3558750Y-3920000D01*
%TO.C,R5*%
X6140000Y-3602500D02*
X6460000Y-3602500D01*
X6460000Y-3762500D01*
X6140000Y-3762500D01*
X6140000Y-3602500D01*
%TO.C,R4*%
X4270000Y-4458750D02*
X4430000Y-4458750D01*
X4430000Y-4541250D01*
X4270000Y-4541250D01*
X4270000Y-4458750D01*
%TO.C,J1*%
X935000Y-1400000D02*
X1035000Y-1462500D01*
X1035000Y-1337500D02*
X935000Y-1400000D01*
X460000Y-1155000D02*
X1035000Y-1155000D01*
X1035000Y-2395000D01*
X460000Y-2395000D01*
X460000Y-1155000D01*
%TO.C,J2*%
X7473000Y-6436500D02*
X7536500Y-6373000D01*
X7473000Y-6881000D02*
X7473000Y-6436500D01*
X7536500Y-6373000D02*
X7727000Y-6373000D01*
X7727000Y-6373000D02*
X7727000Y-6881000D01*
X7727000Y-6881000D02*
X7473000Y-6881000D01*
%TD*%
M02*
