%TF.GenerationSoftware,KiCad,Pcbnew,10.0.4*%
%TF.CreationDate,2026-09-24T00:17:53-06:00*%
%TF.ProjectId,section,73656374-696f-46e2-9e6b-696361645f70,rev?*%
%TF.SameCoordinates,Original*%
%TF.FileFunction,Paste,Top*%
%TF.FilePolarity,Positive*%
%FSLAX45Y45*%
G04 Gerber Fmt 4.5, Leading zero omitted, Abs format (unit mm)*
G04 Created by KiCad (PCBNEW 10.0.4) date 2026-09-24 00:17:53*
%MOMM*%
%LPD*%
G01*
G04 APERTURE LIST*
G04 Aperture macros list*
%AMRoundRect*
0 Rectangle with rounded corners*
0 $1 Rounding radius*
0 $2 $3 $4 $5 $6 $7 $8 $9 X,Y pos of 4 corners*
0 Add a 4 corners polygon primitive as box body*
4,1,4,$2,$3,$4,$5,$6,$7,$8,$9,$2,$3,0*
0 Add four circle primitives for the rounded corners*
1,1,$1+$1,$2,$3*
1,1,$1+$1,$4,$5*
1,1,$1+$1,$6,$7*
1,1,$1+$1,$8,$9*
0 Add four rect primitives between the rounded corners*
20,1,$1+$1,$2,$3,$4,$5,0*
20,1,$1+$1,$4,$5,$6,$7,0*
20,1,$1+$1,$6,$7,$8,$9,0*
20,1,$1+$1,$8,$9,$2,$3,0*%
G04 Aperture macros list end*
%ADD10RoundRect,0.200000X-0.275000X0.200000X-0.275000X-0.200000X0.275000X-0.200000X0.275000X0.200000X0*%
%ADD11RoundRect,0.150000X-0.675000X-0.150000X0.675000X-0.150000X0.675000X0.150000X-0.675000X0.150000X0*%
%ADD12RoundRect,0.250000X-0.312500X-0.625000X0.312500X-0.625000X0.312500X0.625000X-0.312500X0.625000X0*%
%ADD13RoundRect,0.250000X-0.325000X-1.100000X0.325000X-1.100000X0.325000X1.100000X-0.325000X1.100000X0*%
%ADD14RoundRect,0.225000X-0.225000X-0.250000X0.225000X-0.250000X0.225000X0.250000X-0.225000X0.250000X0*%
%ADD15RoundRect,0.200000X-0.200000X-0.275000X0.200000X-0.275000X0.200000X0.275000X-0.200000X0.275000X0*%
%ADD16RoundRect,0.225000X-0.250000X0.225000X-0.250000X-0.225000X0.250000X-0.225000X0.250000X0.225000X0*%
%ADD17RoundRect,0.150000X-0.587500X-0.150000X0.587500X-0.150000X0.587500X0.150000X-0.587500X0.150000X0*%
G04 APERTURE END LIST*
D10*
%TO.C,R2*%
X2750000Y-3717500D03*
X2750000Y-3882500D03*
%TD*%
%TO.C,R8*%
X6800000Y-5147500D03*
X6800000Y-5312500D03*
%TD*%
D11*
%TO.C,U1*%
X4712500Y-3555500D03*
X4712500Y-3682500D03*
X4712500Y-3809500D03*
X4712500Y-3936500D03*
X4712500Y-4063500D03*
X4712500Y-4190500D03*
X4712500Y-4317500D03*
X4712500Y-4444500D03*
X5687500Y-4444500D03*
X5687500Y-4317500D03*
X5687500Y-4190500D03*
X5687500Y-3809500D03*
X5687500Y-3682500D03*
X5687500Y-3555500D03*
%TD*%
D12*
%TO.C,R7*%
X6153750Y-4317500D03*
X6446250Y-4317500D03*
%TD*%
D13*
%TO.C,C4*%
X5952500Y-3300000D03*
X6247500Y-3300000D03*
%TD*%
D14*
%TO.C,C2*%
X5972500Y-4080000D03*
X6127500Y-4080000D03*
%TD*%
D15*
%TO.C,R1*%
X2317500Y-3400000D03*
X2482500Y-3400000D03*
%TD*%
D16*
%TO.C,C1*%
X4450000Y-3809500D03*
X4450000Y-3964500D03*
%TD*%
D17*
%TO.C,Q1*%
X3106250Y-3705000D03*
X3106250Y-3895000D03*
X3293750Y-3800000D03*
%TD*%
D13*
%TO.C,C3*%
X5852500Y-5200000D03*
X6147500Y-5200000D03*
%TD*%
D10*
%TO.C,R6*%
X6800000Y-2947500D03*
X6800000Y-3112500D03*
%TD*%
%TO.C,R3*%
X3600000Y-3917500D03*
X3600000Y-4082500D03*
%TD*%
D12*
%TO.C,R5*%
X6153750Y-3682500D03*
X6446250Y-3682500D03*
%TD*%
D15*
%TO.C,R4*%
X4267500Y-4500000D03*
X4432500Y-4500000D03*
%TD*%
M02*
