%TF.GenerationSoftware,KiCad,Pcbnew,10.0.4*%
%TF.CreationDate,2026-09-24T00:17:53-06:00*%
%TF.ProjectId,section,73656374-696f-46e2-9e6b-696361645f70,rev?*%
%TF.SameCoordinates,Original*%
%TF.FileFunction,Legend,Top*%
%TF.FilePolarity,Positive*%
%FSLAX45Y45*%
G04 Gerber Fmt 4.5, Leading zero omitted, Abs format (unit mm)*
G04 Created by KiCad (PCBNEW 10.0.4) date 2026-09-24 00:17:53*
%MOMM*%
%LPD*%
G01*
G04 APERTURE LIST*
G04 Aperture macros list*
%AMRoundRect*
0 Rectangle with rounded corners*
0 $1 Rounding radius*
0 $2 $3 $4 $5 $6 $7 $8 $9 X,Y pos of 4 corners*
0 Add a 4 corners polygon primitive as box body*
4,1,4,$2,$3,$4,$5,$6,$7,$8,$9,$2,$3,0*
0 Add four circle primitives for the rounded corners*
1,1,$1+$1,$2,$3*
1,1,$1+$1,$4,$5*
1,1,$1+$1,$6,$7*
1,1,$1+$1,$8,$9*
0 Add four rect primitives between the rounded corners*
20,1,$1+$1,$2,$3,$4,$5,0*
20,1,$1+$1,$4,$5,$6,$7,0*
20,1,$1+$1,$6,$7,$8,$9,0*
20,1,$1+$1,$8,$9,$2,$3,0*%
G04 Aperture macros list end*
%ADD10C,0.120000*%
%ADD11C,0.150000*%
%ADD12RoundRect,0.200000X-0.275000X0.200000X-0.275000X-0.200000X0.275000X-0.200000X0.275000X0.200000X0*%
%ADD13RoundRect,0.150000X-0.675000X-0.150000X0.675000X-0.150000X0.675000X0.150000X-0.675000X0.150000X0*%
%ADD14R,1.700000X1.700000*%
%ADD15C,1.700000*%
%ADD16RoundRect,0.250000X-0.312500X-0.625000X0.312500X-0.625000X0.312500X0.625000X-0.312500X0.625000X0*%
%ADD17RoundRect,0.250000X-0.325000X-1.100000X0.325000X-1.100000X0.325000X1.100000X-0.325000X1.100000X0*%
%ADD18RoundRect,0.225000X-0.225000X-0.250000X0.225000X-0.250000X0.225000X0.250000X-0.225000X0.250000X0*%
%ADD19RoundRect,0.200000X-0.200000X-0.275000X0.200000X-0.275000X0.200000X0.275000X-0.200000X0.275000X0*%
%ADD20RoundRect,0.225000X-0.250000X0.225000X-0.250000X-0.225000X0.250000X-0.225000X0.250000X0.225000X0*%
%ADD21RoundRect,0.150000X-0.587500X-0.150000X0.587500X-0.150000X0.587500X0.150000X-0.587500X0.150000X0*%
%ADD22RoundRect,0.249999X-0.850001X-0.850001X0.850001X-0.850001X0.850001X0.850001X-0.850001X0.850001X0*%
%ADD23C,2.200000*%
%ADD24RoundRect,0.250000X-0.725000X0.600000X-0.725000X-0.600000X0.725000X-0.600000X0.725000X0.600000X0*%
%ADD25O,1.950000X1.700000*%
G04 APERTURE END LIST*
D10*
X1209524Y-5845638D02*
X1209524Y-5917066D01*
X1209524Y-5917066D02*
X1204762Y-5931352D01*
X1204762Y-5931352D02*
X1195238Y-5940876D01*
X1195238Y-5940876D02*
X1180952Y-5945638D01*
X1180952Y-5945638D02*
X1171429Y-5945638D01*
X1309524Y-5945638D02*
X1252381Y-5945638D01*
X1280952Y-5945638D02*
X1280952Y-5845638D01*
X1280952Y-5845638D02*
X1271429Y-5859924D01*
X1271429Y-5859924D02*
X1261905Y-5869447D01*
X1261905Y-5869447D02*
X1252381Y-5874209D01*
X1352381Y-5936114D02*
X1357143Y-5940876D01*
X1357143Y-5940876D02*
X1352381Y-5945638D01*
X1352381Y-5945638D02*
X1347619Y-5940876D01*
X1347619Y-5940876D02*
X1352381Y-5936114D01*
X1352381Y-5936114D02*
X1352381Y-5945638D01*
X1352381Y-5883733D02*
X1357143Y-5888495D01*
X1357143Y-5888495D02*
X1352381Y-5893257D01*
X1352381Y-5893257D02*
X1347619Y-5888495D01*
X1347619Y-5888495D02*
X1352381Y-5883733D01*
X1352381Y-5883733D02*
X1352381Y-5893257D01*
X1476190Y-5945638D02*
X1476190Y-5845638D01*
X1476190Y-5893257D02*
X1533333Y-5893257D01*
X1533333Y-5945638D02*
X1533333Y-5845638D01*
X1728571Y-5840876D02*
X1642857Y-5969447D01*
X1885714Y-5945638D02*
X1838095Y-5945638D01*
X1838095Y-5945638D02*
X1838095Y-5845638D01*
X2066667Y-5840876D02*
X1980952Y-5969447D01*
X2176191Y-5945638D02*
X2176191Y-5845638D01*
X2176191Y-5845638D02*
X2214286Y-5845638D01*
X2214286Y-5845638D02*
X2223810Y-5850400D01*
X2223810Y-5850400D02*
X2228571Y-5855162D01*
X2228571Y-5855162D02*
X2233333Y-5864685D01*
X2233333Y-5864685D02*
X2233333Y-5878971D01*
X2233333Y-5878971D02*
X2228571Y-5888495D01*
X2228571Y-5888495D02*
X2223810Y-5893257D01*
X2223810Y-5893257D02*
X2214286Y-5898019D01*
X2214286Y-5898019D02*
X2176191Y-5898019D01*
X2276191Y-5893257D02*
X2309524Y-5893257D01*
X2323810Y-5945638D02*
X2276191Y-5945638D01*
X2276191Y-5945638D02*
X2276191Y-5845638D01*
X2276191Y-5845638D02*
X2323810Y-5845638D01*
X2423810Y-5945638D02*
X2390476Y-5898019D01*
X2366667Y-5945638D02*
X2366667Y-5845638D01*
X2366667Y-5845638D02*
X2404762Y-5845638D01*
X2404762Y-5845638D02*
X2414286Y-5850400D01*
X2414286Y-5850400D02*
X2419048Y-5855162D01*
X2419048Y-5855162D02*
X2423810Y-5864685D01*
X2423810Y-5864685D02*
X2423810Y-5878971D01*
X2423810Y-5878971D02*
X2419048Y-5888495D01*
X2419048Y-5888495D02*
X2414286Y-5893257D01*
X2414286Y-5893257D02*
X2404762Y-5898019D01*
X2404762Y-5898019D02*
X2366667Y-5898019D01*
X2466667Y-5945638D02*
X2466667Y-5845638D01*
X2466667Y-5845638D02*
X2500000Y-5917066D01*
X2500000Y-5917066D02*
X2533333Y-5845638D01*
X2533333Y-5845638D02*
X2533333Y-5945638D01*
X2580952Y-5945638D02*
X2580952Y-5845638D01*
X2614286Y-5845638D02*
X2671429Y-5845638D01*
X2642857Y-5945638D02*
X2642857Y-5845638D01*
X2852381Y-5840876D02*
X2766667Y-5969447D01*
X3014286Y-5850400D02*
X3004762Y-5845638D01*
X3004762Y-5845638D02*
X2990476Y-5845638D01*
X2990476Y-5845638D02*
X2976190Y-5850400D01*
X2976190Y-5850400D02*
X2966667Y-5859924D01*
X2966667Y-5859924D02*
X2961905Y-5869447D01*
X2961905Y-5869447D02*
X2957143Y-5888495D01*
X2957143Y-5888495D02*
X2957143Y-5902781D01*
X2957143Y-5902781D02*
X2961905Y-5921828D01*
X2961905Y-5921828D02*
X2966667Y-5931352D01*
X2966667Y-5931352D02*
X2976190Y-5940876D01*
X2976190Y-5940876D02*
X2990476Y-5945638D01*
X2990476Y-5945638D02*
X3000000Y-5945638D01*
X3000000Y-5945638D02*
X3014286Y-5940876D01*
X3014286Y-5940876D02*
X3019048Y-5936114D01*
X3019048Y-5936114D02*
X3019048Y-5902781D01*
X3019048Y-5902781D02*
X3000000Y-5902781D01*
X3061905Y-5945638D02*
X3061905Y-5845638D01*
X3061905Y-5845638D02*
X3119048Y-5945638D01*
X3119048Y-5945638D02*
X3119048Y-5845638D01*
X3166667Y-5945638D02*
X3166667Y-5845638D01*
X3166667Y-5845638D02*
X3190476Y-5845638D01*
X3190476Y-5845638D02*
X3204762Y-5850400D01*
X3204762Y-5850400D02*
X3214286Y-5859924D01*
X3214286Y-5859924D02*
X3219048Y-5869447D01*
X3219048Y-5869447D02*
X3223809Y-5888495D01*
X3223809Y-5888495D02*
X3223809Y-5902781D01*
X3223809Y-5902781D02*
X3219048Y-5921828D01*
X3219048Y-5921828D02*
X3214286Y-5931352D01*
X3214286Y-5931352D02*
X3204762Y-5940876D01*
X3204762Y-5940876D02*
X3190476Y-5945638D01*
X3190476Y-5945638D02*
X3166667Y-5945638D01*
X1685714Y-6245638D02*
X1685714Y-6317066D01*
X1685714Y-6317066D02*
X1680952Y-6331352D01*
X1680952Y-6331352D02*
X1671428Y-6340876D01*
X1671428Y-6340876D02*
X1657143Y-6345638D01*
X1657143Y-6345638D02*
X1647619Y-6345638D01*
X1780952Y-6245638D02*
X1733333Y-6245638D01*
X1733333Y-6245638D02*
X1728571Y-6293257D01*
X1728571Y-6293257D02*
X1733333Y-6288495D01*
X1733333Y-6288495D02*
X1742857Y-6283733D01*
X1742857Y-6283733D02*
X1766667Y-6283733D01*
X1766667Y-6283733D02*
X1776190Y-6288495D01*
X1776190Y-6288495D02*
X1780952Y-6293257D01*
X1780952Y-6293257D02*
X1785714Y-6302781D01*
X1785714Y-6302781D02*
X1785714Y-6326590D01*
X1785714Y-6326590D02*
X1780952Y-6336114D01*
X1780952Y-6336114D02*
X1776190Y-6340876D01*
X1776190Y-6340876D02*
X1766667Y-6345638D01*
X1766667Y-6345638D02*
X1742857Y-6345638D01*
X1742857Y-6345638D02*
X1733333Y-6340876D01*
X1733333Y-6340876D02*
X1728571Y-6336114D01*
X1828571Y-6336114D02*
X1833333Y-6340876D01*
X1833333Y-6340876D02*
X1828571Y-6345638D01*
X1828571Y-6345638D02*
X1823809Y-6340876D01*
X1823809Y-6340876D02*
X1828571Y-6336114D01*
X1828571Y-6336114D02*
X1828571Y-6345638D01*
X1828571Y-6283733D02*
X1833333Y-6288495D01*
X1833333Y-6288495D02*
X1828571Y-6293257D01*
X1828571Y-6293257D02*
X1823809Y-6288495D01*
X1823809Y-6288495D02*
X1828571Y-6283733D01*
X1828571Y-6283733D02*
X1828571Y-6293257D01*
X1942857Y-6245638D02*
X2004762Y-6245638D01*
X2004762Y-6245638D02*
X1971428Y-6283733D01*
X1971428Y-6283733D02*
X1985714Y-6283733D01*
X1985714Y-6283733D02*
X1995238Y-6288495D01*
X1995238Y-6288495D02*
X2000000Y-6293257D01*
X2000000Y-6293257D02*
X2004762Y-6302781D01*
X2004762Y-6302781D02*
X2004762Y-6326590D01*
X2004762Y-6326590D02*
X2000000Y-6336114D01*
X2000000Y-6336114D02*
X1995238Y-6340876D01*
X1995238Y-6340876D02*
X1985714Y-6345638D01*
X1985714Y-6345638D02*
X1957143Y-6345638D01*
X1957143Y-6345638D02*
X1947619Y-6340876D01*
X1947619Y-6340876D02*
X1942857Y-6336114D01*
X2033333Y-6245638D02*
X2066667Y-6345638D01*
X2066667Y-6345638D02*
X2100000Y-6245638D01*
X2123810Y-6245638D02*
X2185714Y-6245638D01*
X2185714Y-6245638D02*
X2152381Y-6283733D01*
X2152381Y-6283733D02*
X2166667Y-6283733D01*
X2166667Y-6283733D02*
X2176190Y-6288495D01*
X2176190Y-6288495D02*
X2180952Y-6293257D01*
X2180952Y-6293257D02*
X2185714Y-6302781D01*
X2185714Y-6302781D02*
X2185714Y-6326590D01*
X2185714Y-6326590D02*
X2180952Y-6336114D01*
X2180952Y-6336114D02*
X2176190Y-6340876D01*
X2176190Y-6340876D02*
X2166667Y-6345638D01*
X2166667Y-6345638D02*
X2138095Y-6345638D01*
X2138095Y-6345638D02*
X2128571Y-6340876D01*
X2128571Y-6340876D02*
X2123810Y-6336114D01*
X2376190Y-6240876D02*
X2290476Y-6369447D01*
X2538095Y-6250400D02*
X2528571Y-6245638D01*
X2528571Y-6245638D02*
X2514286Y-6245638D01*
X2514286Y-6245638D02*
X2500000Y-6250400D01*
X2500000Y-6250400D02*
X2490476Y-6259924D01*
X2490476Y-6259924D02*
X2485714Y-6269447D01*
X2485714Y-6269447D02*
X2480952Y-6288495D01*
X2480952Y-6288495D02*
X2480952Y-6302781D01*
X2480952Y-6302781D02*
X2485714Y-6321828D01*
X2485714Y-6321828D02*
X2490476Y-6331352D01*
X2490476Y-6331352D02*
X2500000Y-6340876D01*
X2500000Y-6340876D02*
X2514286Y-6345638D01*
X2514286Y-6345638D02*
X2523810Y-6345638D01*
X2523810Y-6345638D02*
X2538095Y-6340876D01*
X2538095Y-6340876D02*
X2542857Y-6336114D01*
X2542857Y-6336114D02*
X2542857Y-6302781D01*
X2542857Y-6302781D02*
X2523810Y-6302781D01*
X2585714Y-6345638D02*
X2585714Y-6245638D01*
X2585714Y-6245638D02*
X2642857Y-6345638D01*
X2642857Y-6345638D02*
X2642857Y-6245638D01*
X2690476Y-6345638D02*
X2690476Y-6245638D01*
X2690476Y-6245638D02*
X2714286Y-6245638D01*
X2714286Y-6245638D02*
X2728571Y-6250400D01*
X2728571Y-6250400D02*
X2738095Y-6259924D01*
X2738095Y-6259924D02*
X2742857Y-6269447D01*
X2742857Y-6269447D02*
X2747619Y-6288495D01*
X2747619Y-6288495D02*
X2747619Y-6302781D01*
X2747619Y-6302781D02*
X2742857Y-6321828D01*
X2742857Y-6321828D02*
X2738095Y-6331352D01*
X2738095Y-6331352D02*
X2728571Y-6340876D01*
X2728571Y-6340876D02*
X2714286Y-6345638D01*
X2714286Y-6345638D02*
X2690476Y-6345638D01*
X2145238Y-736114D02*
X2140476Y-740876D01*
X2140476Y-740876D02*
X2126190Y-745638D01*
X2126190Y-745638D02*
X2116667Y-745638D01*
X2116667Y-745638D02*
X2102381Y-740876D01*
X2102381Y-740876D02*
X2092857Y-731352D01*
X2092857Y-731352D02*
X2088095Y-721828D01*
X2088095Y-721828D02*
X2083333Y-702781D01*
X2083333Y-702781D02*
X2083333Y-688495D01*
X2083333Y-688495D02*
X2088095Y-669447D01*
X2088095Y-669447D02*
X2092857Y-659924D01*
X2092857Y-659924D02*
X2102381Y-650400D01*
X2102381Y-650400D02*
X2116667Y-645638D01*
X2116667Y-645638D02*
X2126190Y-645638D01*
X2126190Y-645638D02*
X2140476Y-650400D01*
X2140476Y-650400D02*
X2145238Y-655162D01*
X2207143Y-645638D02*
X2226190Y-645638D01*
X2226190Y-645638D02*
X2235714Y-650400D01*
X2235714Y-650400D02*
X2245238Y-659924D01*
X2245238Y-659924D02*
X2250000Y-678971D01*
X2250000Y-678971D02*
X2250000Y-712304D01*
X2250000Y-712304D02*
X2245238Y-731352D01*
X2245238Y-731352D02*
X2235714Y-740876D01*
X2235714Y-740876D02*
X2226190Y-745638D01*
X2226190Y-745638D02*
X2207143Y-745638D01*
X2207143Y-745638D02*
X2197619Y-740876D01*
X2197619Y-740876D02*
X2188095Y-731352D01*
X2188095Y-731352D02*
X2183333Y-712304D01*
X2183333Y-712304D02*
X2183333Y-678971D01*
X2183333Y-678971D02*
X2188095Y-659924D01*
X2188095Y-659924D02*
X2197619Y-650400D01*
X2197619Y-650400D02*
X2207143Y-645638D01*
X2292857Y-745638D02*
X2292857Y-645638D01*
X2292857Y-645638D02*
X2350000Y-745638D01*
X2350000Y-745638D02*
X2350000Y-645638D01*
X2383333Y-645638D02*
X2440476Y-645638D01*
X2411905Y-745638D02*
X2411905Y-645638D01*
X2530952Y-745638D02*
X2497619Y-698019D01*
X2473810Y-745638D02*
X2473810Y-645638D01*
X2473810Y-645638D02*
X2511905Y-645638D01*
X2511905Y-645638D02*
X2521429Y-650400D01*
X2521429Y-650400D02*
X2526190Y-655162D01*
X2526190Y-655162D02*
X2530952Y-664686D01*
X2530952Y-664686D02*
X2530952Y-678971D01*
X2530952Y-678971D02*
X2526190Y-688495D01*
X2526190Y-688495D02*
X2521429Y-693257D01*
X2521429Y-693257D02*
X2511905Y-698019D01*
X2511905Y-698019D02*
X2473810Y-698019D01*
X2592857Y-645638D02*
X2611905Y-645638D01*
X2611905Y-645638D02*
X2621429Y-650400D01*
X2621429Y-650400D02*
X2630952Y-659924D01*
X2630952Y-659924D02*
X2635714Y-678971D01*
X2635714Y-678971D02*
X2635714Y-712304D01*
X2635714Y-712304D02*
X2630952Y-731352D01*
X2630952Y-731352D02*
X2621429Y-740876D01*
X2621429Y-740876D02*
X2611905Y-745638D01*
X2611905Y-745638D02*
X2592857Y-745638D01*
X2592857Y-745638D02*
X2583333Y-740876D01*
X2583333Y-740876D02*
X2573810Y-731352D01*
X2573810Y-731352D02*
X2569048Y-712304D01*
X2569048Y-712304D02*
X2569048Y-678971D01*
X2569048Y-678971D02*
X2573810Y-659924D01*
X2573810Y-659924D02*
X2583333Y-650400D01*
X2583333Y-650400D02*
X2592857Y-645638D01*
X2726190Y-745638D02*
X2678571Y-745638D01*
X2678571Y-745638D02*
X2678571Y-645638D01*
X3876190Y-7745638D02*
X3876190Y-7645638D01*
X3876190Y-7645638D02*
X3914286Y-7645638D01*
X3914286Y-7645638D02*
X3923809Y-7650400D01*
X3923809Y-7650400D02*
X3928571Y-7655162D01*
X3928571Y-7655162D02*
X3933333Y-7664685D01*
X3933333Y-7664685D02*
X3933333Y-7678971D01*
X3933333Y-7678971D02*
X3928571Y-7688495D01*
X3928571Y-7688495D02*
X3923809Y-7693257D01*
X3923809Y-7693257D02*
X3914286Y-7698019D01*
X3914286Y-7698019D02*
X3876190Y-7698019D01*
X4033333Y-7745638D02*
X4000000Y-7698019D01*
X3976190Y-7745638D02*
X3976190Y-7645638D01*
X3976190Y-7645638D02*
X4014286Y-7645638D01*
X4014286Y-7645638D02*
X4023809Y-7650400D01*
X4023809Y-7650400D02*
X4028571Y-7655162D01*
X4028571Y-7655162D02*
X4033333Y-7664685D01*
X4033333Y-7664685D02*
X4033333Y-7678971D01*
X4033333Y-7678971D02*
X4028571Y-7688495D01*
X4028571Y-7688495D02*
X4023809Y-7693257D01*
X4023809Y-7693257D02*
X4014286Y-7698019D01*
X4014286Y-7698019D02*
X3976190Y-7698019D01*
X4095238Y-7645638D02*
X4114286Y-7645638D01*
X4114286Y-7645638D02*
X4123809Y-7650400D01*
X4123809Y-7650400D02*
X4133333Y-7659924D01*
X4133333Y-7659924D02*
X4138095Y-7678971D01*
X4138095Y-7678971D02*
X4138095Y-7712304D01*
X4138095Y-7712304D02*
X4133333Y-7731352D01*
X4133333Y-7731352D02*
X4123809Y-7740876D01*
X4123809Y-7740876D02*
X4114286Y-7745638D01*
X4114286Y-7745638D02*
X4095238Y-7745638D01*
X4095238Y-7745638D02*
X4085714Y-7740876D01*
X4085714Y-7740876D02*
X4076190Y-7731352D01*
X4076190Y-7731352D02*
X4071428Y-7712304D01*
X4071428Y-7712304D02*
X4071428Y-7678971D01*
X4071428Y-7678971D02*
X4076190Y-7659924D01*
X4076190Y-7659924D02*
X4085714Y-7650400D01*
X4085714Y-7650400D02*
X4095238Y-7645638D01*
X4166667Y-7645638D02*
X4223809Y-7645638D01*
X4195238Y-7745638D02*
X4195238Y-7645638D01*
X4276190Y-7645638D02*
X4295238Y-7645638D01*
X4295238Y-7645638D02*
X4304762Y-7650400D01*
X4304762Y-7650400D02*
X4314286Y-7659924D01*
X4314286Y-7659924D02*
X4319048Y-7678971D01*
X4319048Y-7678971D02*
X4319048Y-7712304D01*
X4319048Y-7712304D02*
X4314286Y-7731352D01*
X4314286Y-7731352D02*
X4304762Y-7740876D01*
X4304762Y-7740876D02*
X4295238Y-7745638D01*
X4295238Y-7745638D02*
X4276190Y-7745638D01*
X4276190Y-7745638D02*
X4266667Y-7740876D01*
X4266667Y-7740876D02*
X4257143Y-7731352D01*
X4257143Y-7731352D02*
X4252381Y-7712304D01*
X4252381Y-7712304D02*
X4252381Y-7678971D01*
X4252381Y-7678971D02*
X4257143Y-7659924D01*
X4257143Y-7659924D02*
X4266667Y-7650400D01*
X4266667Y-7650400D02*
X4276190Y-7645638D01*
X4347619Y-7645638D02*
X4404762Y-7645638D01*
X4376190Y-7745638D02*
X4376190Y-7645638D01*
X4457143Y-7698019D02*
X4457143Y-7745638D01*
X4423810Y-7645638D02*
X4457143Y-7698019D01*
X4457143Y-7698019D02*
X4490476Y-7645638D01*
X4523810Y-7745638D02*
X4523810Y-7645638D01*
X4523810Y-7645638D02*
X4561905Y-7645638D01*
X4561905Y-7645638D02*
X4571429Y-7650400D01*
X4571429Y-7650400D02*
X4576190Y-7655162D01*
X4576190Y-7655162D02*
X4580952Y-7664685D01*
X4580952Y-7664685D02*
X4580952Y-7678971D01*
X4580952Y-7678971D02*
X4576190Y-7688495D01*
X4576190Y-7688495D02*
X4571429Y-7693257D01*
X4571429Y-7693257D02*
X4561905Y-7698019D01*
X4561905Y-7698019D02*
X4523810Y-7698019D01*
X4623810Y-7693257D02*
X4657143Y-7693257D01*
X4671429Y-7745638D02*
X4623810Y-7745638D01*
X4623810Y-7745638D02*
X4623810Y-7645638D01*
X4623810Y-7645638D02*
X4671429Y-7645638D01*
X4790476Y-7707543D02*
X4866667Y-7707543D01*
X4990476Y-7745638D02*
X4990476Y-7645638D01*
X4990476Y-7645638D02*
X5047619Y-7745638D01*
X5047619Y-7745638D02*
X5047619Y-7645638D01*
X5114286Y-7645638D02*
X5133333Y-7645638D01*
X5133333Y-7645638D02*
X5142857Y-7650400D01*
X5142857Y-7650400D02*
X5152381Y-7659924D01*
X5152381Y-7659924D02*
X5157143Y-7678971D01*
X5157143Y-7678971D02*
X5157143Y-7712304D01*
X5157143Y-7712304D02*
X5152381Y-7731352D01*
X5152381Y-7731352D02*
X5142857Y-7740876D01*
X5142857Y-7740876D02*
X5133333Y-7745638D01*
X5133333Y-7745638D02*
X5114286Y-7745638D01*
X5114286Y-7745638D02*
X5104762Y-7740876D01*
X5104762Y-7740876D02*
X5095238Y-7731352D01*
X5095238Y-7731352D02*
X5090476Y-7712304D01*
X5090476Y-7712304D02*
X5090476Y-7678971D01*
X5090476Y-7678971D02*
X5095238Y-7659924D01*
X5095238Y-7659924D02*
X5104762Y-7650400D01*
X5104762Y-7650400D02*
X5114286Y-7645638D01*
X5185714Y-7645638D02*
X5242857Y-7645638D01*
X5214286Y-7745638D02*
X5214286Y-7645638D01*
X5352381Y-7693257D02*
X5385714Y-7693257D01*
X5400000Y-7745638D02*
X5352381Y-7745638D01*
X5352381Y-7745638D02*
X5352381Y-7645638D01*
X5352381Y-7645638D02*
X5400000Y-7645638D01*
X5442857Y-7745638D02*
X5442857Y-7645638D01*
X5442857Y-7645638D02*
X5500000Y-7745638D01*
X5500000Y-7745638D02*
X5500000Y-7645638D01*
X5547619Y-7693257D02*
X5580952Y-7693257D01*
X5595238Y-7745638D02*
X5547619Y-7745638D01*
X5547619Y-7745638D02*
X5547619Y-7645638D01*
X5547619Y-7645638D02*
X5595238Y-7645638D01*
X5695238Y-7745638D02*
X5661905Y-7698019D01*
X5638095Y-7745638D02*
X5638095Y-7645638D01*
X5638095Y-7645638D02*
X5676190Y-7645638D01*
X5676190Y-7645638D02*
X5685714Y-7650400D01*
X5685714Y-7650400D02*
X5690476Y-7655162D01*
X5690476Y-7655162D02*
X5695238Y-7664685D01*
X5695238Y-7664685D02*
X5695238Y-7678971D01*
X5695238Y-7678971D02*
X5690476Y-7688495D01*
X5690476Y-7688495D02*
X5685714Y-7693257D01*
X5685714Y-7693257D02*
X5676190Y-7698019D01*
X5676190Y-7698019D02*
X5638095Y-7698019D01*
X5790476Y-7650400D02*
X5780952Y-7645638D01*
X5780952Y-7645638D02*
X5766667Y-7645638D01*
X5766667Y-7645638D02*
X5752381Y-7650400D01*
X5752381Y-7650400D02*
X5742857Y-7659924D01*
X5742857Y-7659924D02*
X5738095Y-7669447D01*
X5738095Y-7669447D02*
X5733333Y-7688495D01*
X5733333Y-7688495D02*
X5733333Y-7702781D01*
X5733333Y-7702781D02*
X5738095Y-7721828D01*
X5738095Y-7721828D02*
X5742857Y-7731352D01*
X5742857Y-7731352D02*
X5752381Y-7740876D01*
X5752381Y-7740876D02*
X5766667Y-7745638D01*
X5766667Y-7745638D02*
X5776190Y-7745638D01*
X5776190Y-7745638D02*
X5790476Y-7740876D01*
X5790476Y-7740876D02*
X5795238Y-7736114D01*
X5795238Y-7736114D02*
X5795238Y-7702781D01*
X5795238Y-7702781D02*
X5776190Y-7702781D01*
X5838095Y-7745638D02*
X5838095Y-7645638D01*
X5876190Y-7645638D02*
X5942857Y-7645638D01*
X5942857Y-7645638D02*
X5876190Y-7745638D01*
X5876190Y-7745638D02*
X5942857Y-7745638D01*
X5980952Y-7693257D02*
X6014286Y-7693257D01*
X6028571Y-7745638D02*
X5980952Y-7745638D01*
X5980952Y-7745638D02*
X5980952Y-7645638D01*
X5980952Y-7645638D02*
X6028571Y-7645638D01*
X6071429Y-7745638D02*
X6071429Y-7645638D01*
X6071429Y-7645638D02*
X6095238Y-7645638D01*
X6095238Y-7645638D02*
X6109524Y-7650400D01*
X6109524Y-7650400D02*
X6119048Y-7659924D01*
X6119048Y-7659924D02*
X6123809Y-7669447D01*
X6123809Y-7669447D02*
X6128571Y-7688495D01*
X6128571Y-7688495D02*
X6128571Y-7702781D01*
X6128571Y-7702781D02*
X6123809Y-7721828D01*
X6123809Y-7721828D02*
X6119048Y-7731352D01*
X6119048Y-7731352D02*
X6109524Y-7740876D01*
X6109524Y-7740876D02*
X6095238Y-7745638D01*
X6095238Y-7745638D02*
X6071429Y-7745638D01*
X6864286Y-745638D02*
X6864286Y-645638D01*
X6864286Y-645638D02*
X6902381Y-645638D01*
X6902381Y-645638D02*
X6911905Y-650400D01*
X6911905Y-650400D02*
X6916667Y-655162D01*
X6916667Y-655162D02*
X6921428Y-664686D01*
X6921428Y-664686D02*
X6921428Y-678971D01*
X6921428Y-678971D02*
X6916667Y-688495D01*
X6916667Y-688495D02*
X6911905Y-693257D01*
X6911905Y-693257D02*
X6902381Y-698019D01*
X6902381Y-698019D02*
X6864286Y-698019D01*
X6983333Y-645638D02*
X7002381Y-645638D01*
X7002381Y-645638D02*
X7011905Y-650400D01*
X7011905Y-650400D02*
X7021428Y-659924D01*
X7021428Y-659924D02*
X7026190Y-678971D01*
X7026190Y-678971D02*
X7026190Y-712304D01*
X7026190Y-712304D02*
X7021428Y-731352D01*
X7021428Y-731352D02*
X7011905Y-740876D01*
X7011905Y-740876D02*
X7002381Y-745638D01*
X7002381Y-745638D02*
X6983333Y-745638D01*
X6983333Y-745638D02*
X6973809Y-740876D01*
X6973809Y-740876D02*
X6964286Y-731352D01*
X6964286Y-731352D02*
X6959524Y-712304D01*
X6959524Y-712304D02*
X6959524Y-678971D01*
X6959524Y-678971D02*
X6964286Y-659924D01*
X6964286Y-659924D02*
X6973809Y-650400D01*
X6973809Y-650400D02*
X6983333Y-645638D01*
X7059524Y-645638D02*
X7083333Y-745638D01*
X7083333Y-745638D02*
X7102381Y-674209D01*
X7102381Y-674209D02*
X7121428Y-745638D01*
X7121428Y-745638D02*
X7145238Y-645638D01*
X7183333Y-693257D02*
X7216667Y-693257D01*
X7230952Y-745638D02*
X7183333Y-745638D01*
X7183333Y-745638D02*
X7183333Y-645638D01*
X7183333Y-645638D02*
X7230952Y-645638D01*
X7330952Y-745638D02*
X7297619Y-698019D01*
X7273809Y-745638D02*
X7273809Y-645638D01*
X7273809Y-645638D02*
X7311905Y-645638D01*
X7311905Y-645638D02*
X7321428Y-650400D01*
X7321428Y-650400D02*
X7326190Y-655162D01*
X7326190Y-655162D02*
X7330952Y-664686D01*
X7330952Y-664686D02*
X7330952Y-678971D01*
X7330952Y-678971D02*
X7326190Y-688495D01*
X7326190Y-688495D02*
X7321428Y-693257D01*
X7321428Y-693257D02*
X7311905Y-698019D01*
X7311905Y-698019D02*
X7273809Y-698019D01*
X7445238Y-740876D02*
X7459524Y-745638D01*
X7459524Y-745638D02*
X7483333Y-745638D01*
X7483333Y-745638D02*
X7492857Y-740876D01*
X7492857Y-740876D02*
X7497619Y-736114D01*
X7497619Y-736114D02*
X7502381Y-726590D01*
X7502381Y-726590D02*
X7502381Y-717066D01*
X7502381Y-717066D02*
X7497619Y-707543D01*
X7497619Y-707543D02*
X7492857Y-702781D01*
X7492857Y-702781D02*
X7483333Y-698019D01*
X7483333Y-698019D02*
X7464286Y-693257D01*
X7464286Y-693257D02*
X7454762Y-688495D01*
X7454762Y-688495D02*
X7450000Y-683733D01*
X7450000Y-683733D02*
X7445238Y-674209D01*
X7445238Y-674209D02*
X7445238Y-664686D01*
X7445238Y-664686D02*
X7450000Y-655162D01*
X7450000Y-655162D02*
X7454762Y-650400D01*
X7454762Y-650400D02*
X7464286Y-645638D01*
X7464286Y-645638D02*
X7488095Y-645638D01*
X7488095Y-645638D02*
X7502381Y-650400D01*
X7545238Y-745638D02*
X7545238Y-645638D01*
X7592857Y-745638D02*
X7592857Y-645638D01*
X7592857Y-645638D02*
X7616667Y-645638D01*
X7616667Y-645638D02*
X7630952Y-650400D01*
X7630952Y-650400D02*
X7640476Y-659924D01*
X7640476Y-659924D02*
X7645238Y-669447D01*
X7645238Y-669447D02*
X7650000Y-688495D01*
X7650000Y-688495D02*
X7650000Y-702781D01*
X7650000Y-702781D02*
X7645238Y-721828D01*
X7645238Y-721828D02*
X7640476Y-731352D01*
X7640476Y-731352D02*
X7630952Y-740876D01*
X7630952Y-740876D02*
X7616667Y-745638D01*
X7616667Y-745638D02*
X7592857Y-745638D01*
X7692857Y-693257D02*
X7726190Y-693257D01*
X7740476Y-745638D02*
X7692857Y-745638D01*
X7692857Y-745638D02*
X7692857Y-645638D01*
X7692857Y-645638D02*
X7740476Y-645638D01*
X6354762Y-7245638D02*
X6354762Y-7317066D01*
X6354762Y-7317066D02*
X6350000Y-7331352D01*
X6350000Y-7331352D02*
X6340476Y-7340876D01*
X6340476Y-7340876D02*
X6326190Y-7345638D01*
X6326190Y-7345638D02*
X6316667Y-7345638D01*
X6397619Y-7255162D02*
X6402381Y-7250400D01*
X6402381Y-7250400D02*
X6411905Y-7245638D01*
X6411905Y-7245638D02*
X6435714Y-7245638D01*
X6435714Y-7245638D02*
X6445238Y-7250400D01*
X6445238Y-7250400D02*
X6450000Y-7255162D01*
X6450000Y-7255162D02*
X6454762Y-7264685D01*
X6454762Y-7264685D02*
X6454762Y-7274209D01*
X6454762Y-7274209D02*
X6450000Y-7288495D01*
X6450000Y-7288495D02*
X6392857Y-7345638D01*
X6392857Y-7345638D02*
X6454762Y-7345638D01*
X6497619Y-7336114D02*
X6502381Y-7340876D01*
X6502381Y-7340876D02*
X6497619Y-7345638D01*
X6497619Y-7345638D02*
X6492857Y-7340876D01*
X6492857Y-7340876D02*
X6497619Y-7336114D01*
X6497619Y-7336114D02*
X6497619Y-7345638D01*
X6497619Y-7283733D02*
X6502381Y-7288495D01*
X6502381Y-7288495D02*
X6497619Y-7293257D01*
X6497619Y-7293257D02*
X6492857Y-7288495D01*
X6492857Y-7288495D02*
X6497619Y-7283733D01*
X6497619Y-7283733D02*
X6497619Y-7293257D01*
X6673809Y-7345638D02*
X6616667Y-7345638D01*
X6645238Y-7345638D02*
X6645238Y-7245638D01*
X6645238Y-7245638D02*
X6635714Y-7259924D01*
X6635714Y-7259924D02*
X6626190Y-7269447D01*
X6626190Y-7269447D02*
X6616667Y-7274209D01*
X6764286Y-7245638D02*
X6716667Y-7245638D01*
X6716667Y-7245638D02*
X6711905Y-7293257D01*
X6711905Y-7293257D02*
X6716667Y-7288495D01*
X6716667Y-7288495D02*
X6726190Y-7283733D01*
X6726190Y-7283733D02*
X6750000Y-7283733D01*
X6750000Y-7283733D02*
X6759524Y-7288495D01*
X6759524Y-7288495D02*
X6764286Y-7293257D01*
X6764286Y-7293257D02*
X6769047Y-7302781D01*
X6769047Y-7302781D02*
X6769047Y-7326590D01*
X6769047Y-7326590D02*
X6764286Y-7336114D01*
X6764286Y-7336114D02*
X6759524Y-7340876D01*
X6759524Y-7340876D02*
X6750000Y-7345638D01*
X6750000Y-7345638D02*
X6726190Y-7345638D01*
X6726190Y-7345638D02*
X6716667Y-7340876D01*
X6716667Y-7340876D02*
X6711905Y-7336114D01*
X6797619Y-7245638D02*
X6830952Y-7345638D01*
X6830952Y-7345638D02*
X6864286Y-7245638D01*
X6873809Y-7355162D02*
X6950000Y-7355162D01*
X6973809Y-7345638D02*
X6973809Y-7245638D01*
X7016667Y-7340876D02*
X7030952Y-7345638D01*
X7030952Y-7345638D02*
X7054762Y-7345638D01*
X7054762Y-7345638D02*
X7064286Y-7340876D01*
X7064286Y-7340876D02*
X7069047Y-7336114D01*
X7069047Y-7336114D02*
X7073809Y-7326590D01*
X7073809Y-7326590D02*
X7073809Y-7317066D01*
X7073809Y-7317066D02*
X7069047Y-7307543D01*
X7069047Y-7307543D02*
X7064286Y-7302781D01*
X7064286Y-7302781D02*
X7054762Y-7298019D01*
X7054762Y-7298019D02*
X7035714Y-7293257D01*
X7035714Y-7293257D02*
X7026190Y-7288495D01*
X7026190Y-7288495D02*
X7021428Y-7283733D01*
X7021428Y-7283733D02*
X7016667Y-7274209D01*
X7016667Y-7274209D02*
X7016667Y-7264685D01*
X7016667Y-7264685D02*
X7021428Y-7255162D01*
X7021428Y-7255162D02*
X7026190Y-7250400D01*
X7026190Y-7250400D02*
X7035714Y-7245638D01*
X7035714Y-7245638D02*
X7059524Y-7245638D01*
X7059524Y-7245638D02*
X7073809Y-7250400D01*
X7135714Y-7245638D02*
X7154762Y-7245638D01*
X7154762Y-7245638D02*
X7164286Y-7250400D01*
X7164286Y-7250400D02*
X7173809Y-7259924D01*
X7173809Y-7259924D02*
X7178571Y-7278971D01*
X7178571Y-7278971D02*
X7178571Y-7312304D01*
X7178571Y-7312304D02*
X7173809Y-7331352D01*
X7173809Y-7331352D02*
X7164286Y-7340876D01*
X7164286Y-7340876D02*
X7154762Y-7345638D01*
X7154762Y-7345638D02*
X7135714Y-7345638D01*
X7135714Y-7345638D02*
X7126190Y-7340876D01*
X7126190Y-7340876D02*
X7116667Y-7331352D01*
X7116667Y-7331352D02*
X7111905Y-7312304D01*
X7111905Y-7312304D02*
X7111905Y-7278971D01*
X7111905Y-7278971D02*
X7116667Y-7259924D01*
X7116667Y-7259924D02*
X7126190Y-7250400D01*
X7126190Y-7250400D02*
X7135714Y-7245638D01*
X7369047Y-7240876D02*
X7283333Y-7369447D01*
X7478571Y-7345638D02*
X7478571Y-7245638D01*
X7478571Y-7293257D02*
X7535714Y-7293257D01*
X7535714Y-7345638D02*
X7535714Y-7245638D01*
X7569048Y-7245638D02*
X7602381Y-7345638D01*
X7602381Y-7345638D02*
X7635714Y-7245638D01*
X7645238Y-7355162D02*
X7721428Y-7355162D01*
X7802381Y-7345638D02*
X7769048Y-7298019D01*
X7745238Y-7345638D02*
X7745238Y-7245638D01*
X7745238Y-7245638D02*
X7783333Y-7245638D01*
X7783333Y-7245638D02*
X7792857Y-7250400D01*
X7792857Y-7250400D02*
X7797619Y-7255162D01*
X7797619Y-7255162D02*
X7802381Y-7264685D01*
X7802381Y-7264685D02*
X7802381Y-7278971D01*
X7802381Y-7278971D02*
X7797619Y-7288495D01*
X7797619Y-7288495D02*
X7792857Y-7293257D01*
X7792857Y-7293257D02*
X7783333Y-7298019D01*
X7783333Y-7298019D02*
X7745238Y-7298019D01*
X7845238Y-7293257D02*
X7878571Y-7293257D01*
X7892857Y-7345638D02*
X7845238Y-7345638D01*
X7845238Y-7345638D02*
X7845238Y-7245638D01*
X7845238Y-7245638D02*
X7892857Y-7245638D01*
X7921429Y-7245638D02*
X7978571Y-7245638D01*
X7950000Y-7345638D02*
X7950000Y-7245638D01*
X8011905Y-7245638D02*
X8011905Y-7326590D01*
X8011905Y-7326590D02*
X8016667Y-7336114D01*
X8016667Y-7336114D02*
X8021429Y-7340876D01*
X8021429Y-7340876D02*
X8030952Y-7345638D01*
X8030952Y-7345638D02*
X8050000Y-7345638D01*
X8050000Y-7345638D02*
X8059524Y-7340876D01*
X8059524Y-7340876D02*
X8064286Y-7336114D01*
X8064286Y-7336114D02*
X8069048Y-7326590D01*
X8069048Y-7326590D02*
X8069048Y-7245638D01*
X8173809Y-7345638D02*
X8140476Y-7298019D01*
X8116667Y-7345638D02*
X8116667Y-7245638D01*
X8116667Y-7245638D02*
X8154762Y-7245638D01*
X8154762Y-7245638D02*
X8164286Y-7250400D01*
X8164286Y-7250400D02*
X8169048Y-7255162D01*
X8169048Y-7255162D02*
X8173809Y-7264685D01*
X8173809Y-7264685D02*
X8173809Y-7278971D01*
X8173809Y-7278971D02*
X8169048Y-7288495D01*
X8169048Y-7288495D02*
X8164286Y-7293257D01*
X8164286Y-7293257D02*
X8154762Y-7298019D01*
X8154762Y-7298019D02*
X8116667Y-7298019D01*
X8216667Y-7345638D02*
X8216667Y-7245638D01*
X8216667Y-7245638D02*
X8273809Y-7345638D01*
X8273809Y-7345638D02*
X8273809Y-7245638D01*
X3430000Y-464143D02*
X3430000Y-324143D01*
X3490000Y-457476D02*
X3510000Y-464143D01*
X3510000Y-464143D02*
X3543333Y-464143D01*
X3543333Y-464143D02*
X3556666Y-457476D01*
X3556666Y-457476D02*
X3563333Y-450809D01*
X3563333Y-450809D02*
X3570000Y-437476D01*
X3570000Y-437476D02*
X3570000Y-424143D01*
X3570000Y-424143D02*
X3563333Y-410809D01*
X3563333Y-410809D02*
X3556666Y-404143D01*
X3556666Y-404143D02*
X3543333Y-397476D01*
X3543333Y-397476D02*
X3516666Y-390809D01*
X3516666Y-390809D02*
X3503333Y-384143D01*
X3503333Y-384143D02*
X3496666Y-377476D01*
X3496666Y-377476D02*
X3490000Y-364143D01*
X3490000Y-364143D02*
X3490000Y-350809D01*
X3490000Y-350809D02*
X3496666Y-337476D01*
X3496666Y-337476D02*
X3503333Y-330809D01*
X3503333Y-330809D02*
X3516666Y-324143D01*
X3516666Y-324143D02*
X3550000Y-324143D01*
X3550000Y-324143D02*
X3570000Y-330809D01*
X3656666Y-324143D02*
X3683333Y-324143D01*
X3683333Y-324143D02*
X3696666Y-330809D01*
X3696666Y-330809D02*
X3710000Y-344143D01*
X3710000Y-344143D02*
X3716666Y-370809D01*
X3716666Y-370809D02*
X3716666Y-417476D01*
X3716666Y-417476D02*
X3710000Y-444143D01*
X3710000Y-444143D02*
X3696666Y-457476D01*
X3696666Y-457476D02*
X3683333Y-464143D01*
X3683333Y-464143D02*
X3656666Y-464143D01*
X3656666Y-464143D02*
X3643333Y-457476D01*
X3643333Y-457476D02*
X3630000Y-444143D01*
X3630000Y-444143D02*
X3623333Y-417476D01*
X3623333Y-417476D02*
X3623333Y-370809D01*
X3623333Y-370809D02*
X3630000Y-344143D01*
X3630000Y-344143D02*
X3643333Y-330809D01*
X3643333Y-330809D02*
X3656666Y-324143D01*
X3843333Y-464143D02*
X3776666Y-464143D01*
X3776666Y-464143D02*
X3776666Y-324143D01*
X3883333Y-424143D02*
X3950000Y-424143D01*
X3870000Y-464143D02*
X3916666Y-324143D01*
X3916666Y-324143D02*
X3963333Y-464143D01*
X3990000Y-324143D02*
X4070000Y-324143D01*
X4030000Y-464143D02*
X4030000Y-324143D01*
X4116666Y-390809D02*
X4163333Y-390809D01*
X4183333Y-464143D02*
X4116666Y-464143D01*
X4116666Y-464143D02*
X4116666Y-324143D01*
X4116666Y-324143D02*
X4183333Y-324143D01*
X4243333Y-464143D02*
X4243333Y-324143D01*
X4243333Y-324143D02*
X4276667Y-324143D01*
X4276667Y-324143D02*
X4296667Y-330809D01*
X4296667Y-330809D02*
X4310000Y-344143D01*
X4310000Y-344143D02*
X4316667Y-357476D01*
X4316667Y-357476D02*
X4323333Y-384143D01*
X4323333Y-384143D02*
X4323333Y-404143D01*
X4323333Y-404143D02*
X4316667Y-430809D01*
X4316667Y-430809D02*
X4310000Y-444143D01*
X4310000Y-444143D02*
X4296667Y-457476D01*
X4296667Y-457476D02*
X4276667Y-464143D01*
X4276667Y-464143D02*
X4243333Y-464143D01*
X4563333Y-330809D02*
X4550000Y-324143D01*
X4550000Y-324143D02*
X4530000Y-324143D01*
X4530000Y-324143D02*
X4510000Y-330809D01*
X4510000Y-330809D02*
X4496667Y-344143D01*
X4496667Y-344143D02*
X4490000Y-357476D01*
X4490000Y-357476D02*
X4483333Y-384143D01*
X4483333Y-384143D02*
X4483333Y-404143D01*
X4483333Y-404143D02*
X4490000Y-430809D01*
X4490000Y-430809D02*
X4496667Y-444143D01*
X4496667Y-444143D02*
X4510000Y-457476D01*
X4510000Y-457476D02*
X4530000Y-464143D01*
X4530000Y-464143D02*
X4543333Y-464143D01*
X4543333Y-464143D02*
X4563333Y-457476D01*
X4563333Y-457476D02*
X4570000Y-450809D01*
X4570000Y-450809D02*
X4570000Y-404143D01*
X4570000Y-404143D02*
X4543333Y-404143D01*
X4623333Y-424143D02*
X4690000Y-424143D01*
X4610000Y-464143D02*
X4656667Y-324143D01*
X4656667Y-324143D02*
X4703333Y-464143D01*
X4730000Y-324143D02*
X4810000Y-324143D01*
X4770000Y-464143D02*
X4770000Y-324143D01*
X4856667Y-390809D02*
X4903333Y-390809D01*
X4923333Y-464143D02*
X4856667Y-464143D01*
X4856667Y-464143D02*
X4856667Y-324143D01*
X4856667Y-324143D02*
X4923333Y-324143D01*
X5090000Y-464143D02*
X5090000Y-324143D01*
X5090000Y-324143D02*
X5123333Y-324143D01*
X5123333Y-324143D02*
X5143333Y-330809D01*
X5143333Y-330809D02*
X5156667Y-344143D01*
X5156667Y-344143D02*
X5163333Y-357476D01*
X5163333Y-357476D02*
X5170000Y-384143D01*
X5170000Y-384143D02*
X5170000Y-404143D01*
X5170000Y-404143D02*
X5163333Y-430809D01*
X5163333Y-430809D02*
X5156667Y-444143D01*
X5156667Y-444143D02*
X5143333Y-457476D01*
X5143333Y-457476D02*
X5123333Y-464143D01*
X5123333Y-464143D02*
X5090000Y-464143D01*
X5310000Y-464143D02*
X5263333Y-397476D01*
X5230000Y-464143D02*
X5230000Y-324143D01*
X5230000Y-324143D02*
X5283333Y-324143D01*
X5283333Y-324143D02*
X5296667Y-330809D01*
X5296667Y-330809D02*
X5303333Y-337476D01*
X5303333Y-337476D02*
X5310000Y-350809D01*
X5310000Y-350809D02*
X5310000Y-370809D01*
X5310000Y-370809D02*
X5303333Y-384143D01*
X5303333Y-384143D02*
X5296667Y-390809D01*
X5296667Y-390809D02*
X5283333Y-397476D01*
X5283333Y-397476D02*
X5230000Y-397476D01*
X5370000Y-464143D02*
X5370000Y-324143D01*
X5416667Y-324143D02*
X5463333Y-464143D01*
X5463333Y-464143D02*
X5510000Y-324143D01*
X5556667Y-390809D02*
X5603333Y-390809D01*
X5623333Y-464143D02*
X5556667Y-464143D01*
X5556667Y-464143D02*
X5556667Y-324143D01*
X5556667Y-324143D02*
X5623333Y-324143D01*
X5890000Y-317476D02*
X5770000Y-497476D01*
X6123333Y-464143D02*
X6076667Y-397476D01*
X6043333Y-464143D02*
X6043333Y-324143D01*
X6043333Y-324143D02*
X6096667Y-324143D01*
X6096667Y-324143D02*
X6110000Y-330809D01*
X6110000Y-330809D02*
X6116667Y-337476D01*
X6116667Y-337476D02*
X6123333Y-350809D01*
X6123333Y-350809D02*
X6123333Y-370809D01*
X6123333Y-370809D02*
X6116667Y-384143D01*
X6116667Y-384143D02*
X6110000Y-390809D01*
X6110000Y-390809D02*
X6096667Y-397476D01*
X6096667Y-397476D02*
X6043333Y-397476D01*
X6236667Y-457476D02*
X6223333Y-464143D01*
X6223333Y-464143D02*
X6196667Y-464143D01*
X6196667Y-464143D02*
X6183333Y-457476D01*
X6183333Y-457476D02*
X6176667Y-444143D01*
X6176667Y-444143D02*
X6176667Y-390809D01*
X6176667Y-390809D02*
X6183333Y-377476D01*
X6183333Y-377476D02*
X6196667Y-370809D01*
X6196667Y-370809D02*
X6223333Y-370809D01*
X6223333Y-370809D02*
X6236667Y-377476D01*
X6236667Y-377476D02*
X6243333Y-390809D01*
X6243333Y-390809D02*
X6243333Y-404143D01*
X6243333Y-404143D02*
X6176667Y-417476D01*
X6290000Y-370809D02*
X6323333Y-464143D01*
X6323333Y-464143D02*
X6356667Y-370809D01*
X6510000Y-424143D02*
X6576667Y-424143D01*
X6496667Y-464143D02*
X6543334Y-324143D01*
X6543334Y-324143D02*
X6590000Y-464143D01*
X2555000Y-3841012D02*
X2525000Y-3798154D01*
X2503571Y-3841012D02*
X2503571Y-3751012D01*
X2503571Y-3751012D02*
X2537857Y-3751012D01*
X2537857Y-3751012D02*
X2546429Y-3755297D01*
X2546429Y-3755297D02*
X2550714Y-3759583D01*
X2550714Y-3759583D02*
X2555000Y-3768154D01*
X2555000Y-3768154D02*
X2555000Y-3781012D01*
X2555000Y-3781012D02*
X2550714Y-3789583D01*
X2550714Y-3789583D02*
X2546429Y-3793869D01*
X2546429Y-3793869D02*
X2537857Y-3798154D01*
X2537857Y-3798154D02*
X2503571Y-3798154D01*
X2589286Y-3759583D02*
X2593571Y-3755297D01*
X2593571Y-3755297D02*
X2602143Y-3751012D01*
X2602143Y-3751012D02*
X2623571Y-3751012D01*
X2623571Y-3751012D02*
X2632143Y-3755297D01*
X2632143Y-3755297D02*
X2636429Y-3759583D01*
X2636429Y-3759583D02*
X2640714Y-3768154D01*
X2640714Y-3768154D02*
X2640714Y-3776726D01*
X2640714Y-3776726D02*
X2636429Y-3789583D01*
X2636429Y-3789583D02*
X2585000Y-3841012D01*
X2585000Y-3841012D02*
X2640714Y-3841012D01*
X6785000Y-5641012D02*
X6755000Y-5598154D01*
X6733571Y-5641012D02*
X6733571Y-5551012D01*
X6733571Y-5551012D02*
X6767857Y-5551012D01*
X6767857Y-5551012D02*
X6776429Y-5555297D01*
X6776429Y-5555297D02*
X6780714Y-5559583D01*
X6780714Y-5559583D02*
X6785000Y-5568155D01*
X6785000Y-5568155D02*
X6785000Y-5581012D01*
X6785000Y-5581012D02*
X6780714Y-5589583D01*
X6780714Y-5589583D02*
X6776429Y-5593869D01*
X6776429Y-5593869D02*
X6767857Y-5598154D01*
X6767857Y-5598154D02*
X6733571Y-5598154D01*
X6836429Y-5589583D02*
X6827857Y-5585297D01*
X6827857Y-5585297D02*
X6823571Y-5581012D01*
X6823571Y-5581012D02*
X6819286Y-5572440D01*
X6819286Y-5572440D02*
X6819286Y-5568155D01*
X6819286Y-5568155D02*
X6823571Y-5559583D01*
X6823571Y-5559583D02*
X6827857Y-5555297D01*
X6827857Y-5555297D02*
X6836429Y-5551012D01*
X6836429Y-5551012D02*
X6853571Y-5551012D01*
X6853571Y-5551012D02*
X6862143Y-5555297D01*
X6862143Y-5555297D02*
X6866429Y-5559583D01*
X6866429Y-5559583D02*
X6870714Y-5568155D01*
X6870714Y-5568155D02*
X6870714Y-5572440D01*
X6870714Y-5572440D02*
X6866429Y-5581012D01*
X6866429Y-5581012D02*
X6862143Y-5585297D01*
X6862143Y-5585297D02*
X6853571Y-5589583D01*
X6853571Y-5589583D02*
X6836429Y-5589583D01*
X6836429Y-5589583D02*
X6827857Y-5593869D01*
X6827857Y-5593869D02*
X6823571Y-5598154D01*
X6823571Y-5598154D02*
X6819286Y-5606726D01*
X6819286Y-5606726D02*
X6819286Y-5623869D01*
X6819286Y-5623869D02*
X6823571Y-5632440D01*
X6823571Y-5632440D02*
X6827857Y-5636726D01*
X6827857Y-5636726D02*
X6836429Y-5641012D01*
X6836429Y-5641012D02*
X6853571Y-5641012D01*
X6853571Y-5641012D02*
X6862143Y-5636726D01*
X6862143Y-5636726D02*
X6866429Y-5632440D01*
X6866429Y-5632440D02*
X6870714Y-5623869D01*
X6870714Y-5623869D02*
X6870714Y-5606726D01*
X6870714Y-5606726D02*
X6866429Y-5598154D01*
X6866429Y-5598154D02*
X6862143Y-5593869D01*
X6862143Y-5593869D02*
X6853571Y-5589583D01*
X5131429Y-3151012D02*
X5131429Y-3223869D01*
X5131429Y-3223869D02*
X5135714Y-3232440D01*
X5135714Y-3232440D02*
X5140000Y-3236726D01*
X5140000Y-3236726D02*
X5148571Y-3241012D01*
X5148571Y-3241012D02*
X5165714Y-3241012D01*
X5165714Y-3241012D02*
X5174286Y-3236726D01*
X5174286Y-3236726D02*
X5178571Y-3232440D01*
X5178571Y-3232440D02*
X5182857Y-3223869D01*
X5182857Y-3223869D02*
X5182857Y-3151012D01*
X5272857Y-3241012D02*
X5221429Y-3241012D01*
X5247143Y-3241012D02*
X5247143Y-3151012D01*
X5247143Y-3151012D02*
X5238571Y-3163869D01*
X5238571Y-3163869D02*
X5230000Y-3172440D01*
X5230000Y-3172440D02*
X5221429Y-3176726D01*
X7170000Y-2601012D02*
X7170000Y-2665297D01*
X7170000Y-2665297D02*
X7165714Y-2678155D01*
X7165714Y-2678155D02*
X7157143Y-2686726D01*
X7157143Y-2686726D02*
X7144286Y-2691012D01*
X7144286Y-2691012D02*
X7135714Y-2691012D01*
X7204286Y-2601012D02*
X7260000Y-2601012D01*
X7260000Y-2601012D02*
X7230000Y-2635297D01*
X7230000Y-2635297D02*
X7242857Y-2635297D01*
X7242857Y-2635297D02*
X7251429Y-2639583D01*
X7251429Y-2639583D02*
X7255714Y-2643869D01*
X7255714Y-2643869D02*
X7260000Y-2652440D01*
X7260000Y-2652440D02*
X7260000Y-2673869D01*
X7260000Y-2673869D02*
X7255714Y-2682440D01*
X7255714Y-2682440D02*
X7251429Y-2686726D01*
X7251429Y-2686726D02*
X7242857Y-2691012D01*
X7242857Y-2691012D02*
X7217143Y-2691012D01*
X7217143Y-2691012D02*
X7208571Y-2686726D01*
X7208571Y-2686726D02*
X7204286Y-2682440D01*
X770000Y-3501012D02*
X770000Y-3565297D01*
X770000Y-3565297D02*
X765714Y-3578154D01*
X765714Y-3578154D02*
X757143Y-3586726D01*
X757143Y-3586726D02*
X744286Y-3591012D01*
X744286Y-3591012D02*
X735714Y-3591012D01*
X855714Y-3501012D02*
X812857Y-3501012D01*
X812857Y-3501012D02*
X808571Y-3543869D01*
X808571Y-3543869D02*
X812857Y-3539583D01*
X812857Y-3539583D02*
X821429Y-3535297D01*
X821429Y-3535297D02*
X842857Y-3535297D01*
X842857Y-3535297D02*
X851429Y-3539583D01*
X851429Y-3539583D02*
X855714Y-3543869D01*
X855714Y-3543869D02*
X860000Y-3552440D01*
X860000Y-3552440D02*
X860000Y-3573869D01*
X860000Y-3573869D02*
X855714Y-3582440D01*
X855714Y-3582440D02*
X851429Y-3586726D01*
X851429Y-3586726D02*
X842857Y-3591012D01*
X842857Y-3591012D02*
X821429Y-3591012D01*
X821429Y-3591012D02*
X812857Y-3586726D01*
X812857Y-3586726D02*
X808571Y-3582440D01*
X6085000Y-4701012D02*
X6055000Y-4658155D01*
X6033571Y-4701012D02*
X6033571Y-4611012D01*
X6033571Y-4611012D02*
X6067857Y-4611012D01*
X6067857Y-4611012D02*
X6076429Y-4615297D01*
X6076429Y-4615297D02*
X6080714Y-4619583D01*
X6080714Y-4619583D02*
X6085000Y-4628155D01*
X6085000Y-4628155D02*
X6085000Y-4641012D01*
X6085000Y-4641012D02*
X6080714Y-4649583D01*
X6080714Y-4649583D02*
X6076429Y-4653869D01*
X6076429Y-4653869D02*
X6067857Y-4658155D01*
X6067857Y-4658155D02*
X6033571Y-4658155D01*
X6115000Y-4611012D02*
X6175000Y-4611012D01*
X6175000Y-4611012D02*
X6136429Y-4701012D01*
X7170000Y-4801012D02*
X7170000Y-4865297D01*
X7170000Y-4865297D02*
X7165714Y-4878155D01*
X7165714Y-4878155D02*
X7157143Y-4886726D01*
X7157143Y-4886726D02*
X7144286Y-4891012D01*
X7144286Y-4891012D02*
X7135714Y-4891012D01*
X7251429Y-4831012D02*
X7251429Y-4891012D01*
X7230000Y-4796726D02*
X7208571Y-4861012D01*
X7208571Y-4861012D02*
X7264286Y-4861012D01*
X6085000Y-3082440D02*
X6080714Y-3086726D01*
X6080714Y-3086726D02*
X6067857Y-3091012D01*
X6067857Y-3091012D02*
X6059286Y-3091012D01*
X6059286Y-3091012D02*
X6046429Y-3086726D01*
X6046429Y-3086726D02*
X6037857Y-3078154D01*
X6037857Y-3078154D02*
X6033571Y-3069583D01*
X6033571Y-3069583D02*
X6029286Y-3052440D01*
X6029286Y-3052440D02*
X6029286Y-3039583D01*
X6029286Y-3039583D02*
X6033571Y-3022440D01*
X6033571Y-3022440D02*
X6037857Y-3013869D01*
X6037857Y-3013869D02*
X6046429Y-3005297D01*
X6046429Y-3005297D02*
X6059286Y-3001012D01*
X6059286Y-3001012D02*
X6067857Y-3001012D01*
X6067857Y-3001012D02*
X6080714Y-3005297D01*
X6080714Y-3005297D02*
X6085000Y-3009583D01*
X6162143Y-3031012D02*
X6162143Y-3091012D01*
X6140714Y-2996726D02*
X6119286Y-3061012D01*
X6119286Y-3061012D02*
X6175000Y-3061012D01*
X6035000Y-3952440D02*
X6030714Y-3956726D01*
X6030714Y-3956726D02*
X6017857Y-3961012D01*
X6017857Y-3961012D02*
X6009286Y-3961012D01*
X6009286Y-3961012D02*
X5996429Y-3956726D01*
X5996429Y-3956726D02*
X5987857Y-3948154D01*
X5987857Y-3948154D02*
X5983571Y-3939583D01*
X5983571Y-3939583D02*
X5979286Y-3922440D01*
X5979286Y-3922440D02*
X5979286Y-3909583D01*
X5979286Y-3909583D02*
X5983571Y-3892440D01*
X5983571Y-3892440D02*
X5987857Y-3883869D01*
X5987857Y-3883869D02*
X5996429Y-3875297D01*
X5996429Y-3875297D02*
X6009286Y-3871012D01*
X6009286Y-3871012D02*
X6017857Y-3871012D01*
X6017857Y-3871012D02*
X6030714Y-3875297D01*
X6030714Y-3875297D02*
X6035000Y-3879583D01*
X6069286Y-3879583D02*
X6073571Y-3875297D01*
X6073571Y-3875297D02*
X6082143Y-3871012D01*
X6082143Y-3871012D02*
X6103571Y-3871012D01*
X6103571Y-3871012D02*
X6112143Y-3875297D01*
X6112143Y-3875297D02*
X6116429Y-3879583D01*
X6116429Y-3879583D02*
X6120714Y-3888154D01*
X6120714Y-3888154D02*
X6120714Y-3896726D01*
X6120714Y-3896726D02*
X6116429Y-3909583D01*
X6116429Y-3909583D02*
X6065000Y-3961012D01*
X6065000Y-3961012D02*
X6120714Y-3961012D01*
X2385000Y-3241012D02*
X2355000Y-3198154D01*
X2333571Y-3241012D02*
X2333571Y-3151012D01*
X2333571Y-3151012D02*
X2367857Y-3151012D01*
X2367857Y-3151012D02*
X2376429Y-3155297D01*
X2376429Y-3155297D02*
X2380714Y-3159583D01*
X2380714Y-3159583D02*
X2385000Y-3168154D01*
X2385000Y-3168154D02*
X2385000Y-3181012D01*
X2385000Y-3181012D02*
X2380714Y-3189583D01*
X2380714Y-3189583D02*
X2376429Y-3193869D01*
X2376429Y-3193869D02*
X2367857Y-3198154D01*
X2367857Y-3198154D02*
X2333571Y-3198154D01*
X2470714Y-3241012D02*
X2419286Y-3241012D01*
X2445000Y-3241012D02*
X2445000Y-3151012D01*
X2445000Y-3151012D02*
X2436429Y-3163869D01*
X2436429Y-3163869D02*
X2427857Y-3172440D01*
X2427857Y-3172440D02*
X2419286Y-3176726D01*
X4135000Y-3912440D02*
X4130714Y-3916726D01*
X4130714Y-3916726D02*
X4117857Y-3921012D01*
X4117857Y-3921012D02*
X4109286Y-3921012D01*
X4109286Y-3921012D02*
X4096429Y-3916726D01*
X4096429Y-3916726D02*
X4087857Y-3908154D01*
X4087857Y-3908154D02*
X4083571Y-3899583D01*
X4083571Y-3899583D02*
X4079286Y-3882440D01*
X4079286Y-3882440D02*
X4079286Y-3869583D01*
X4079286Y-3869583D02*
X4083571Y-3852440D01*
X4083571Y-3852440D02*
X4087857Y-3843869D01*
X4087857Y-3843869D02*
X4096429Y-3835297D01*
X4096429Y-3835297D02*
X4109286Y-3831012D01*
X4109286Y-3831012D02*
X4117857Y-3831012D01*
X4117857Y-3831012D02*
X4130714Y-3835297D01*
X4130714Y-3835297D02*
X4135000Y-3839583D01*
X4220714Y-3921012D02*
X4169286Y-3921012D01*
X4195000Y-3921012D02*
X4195000Y-3831012D01*
X4195000Y-3831012D02*
X4186429Y-3843869D01*
X4186429Y-3843869D02*
X4177857Y-3852440D01*
X4177857Y-3852440D02*
X4169286Y-3856726D01*
X3191428Y-3579583D02*
X3182857Y-3575297D01*
X3182857Y-3575297D02*
X3174286Y-3566726D01*
X3174286Y-3566726D02*
X3161428Y-3553869D01*
X3161428Y-3553869D02*
X3152857Y-3549583D01*
X3152857Y-3549583D02*
X3144286Y-3549583D01*
X3148571Y-3571012D02*
X3140000Y-3566726D01*
X3140000Y-3566726D02*
X3131428Y-3558154D01*
X3131428Y-3558154D02*
X3127143Y-3541012D01*
X3127143Y-3541012D02*
X3127143Y-3511012D01*
X3127143Y-3511012D02*
X3131428Y-3493869D01*
X3131428Y-3493869D02*
X3140000Y-3485297D01*
X3140000Y-3485297D02*
X3148571Y-3481012D01*
X3148571Y-3481012D02*
X3165714Y-3481012D01*
X3165714Y-3481012D02*
X3174286Y-3485297D01*
X3174286Y-3485297D02*
X3182857Y-3493869D01*
X3182857Y-3493869D02*
X3187143Y-3511012D01*
X3187143Y-3511012D02*
X3187143Y-3541012D01*
X3187143Y-3541012D02*
X3182857Y-3558154D01*
X3182857Y-3558154D02*
X3174286Y-3566726D01*
X3174286Y-3566726D02*
X3165714Y-3571012D01*
X3165714Y-3571012D02*
X3148571Y-3571012D01*
X3272857Y-3571012D02*
X3221428Y-3571012D01*
X3247143Y-3571012D02*
X3247143Y-3481012D01*
X3247143Y-3481012D02*
X3238571Y-3493869D01*
X3238571Y-3493869D02*
X3230000Y-3502440D01*
X3230000Y-3502440D02*
X3221428Y-3506726D01*
D11*
X6726190Y-1945482D02*
X6726190Y-1845482D01*
X6726190Y-1845482D02*
X6750000Y-1845482D01*
X6750000Y-1845482D02*
X6764286Y-1850244D01*
X6764286Y-1850244D02*
X6773809Y-1859768D01*
X6773809Y-1859768D02*
X6778571Y-1869291D01*
X6778571Y-1869291D02*
X6783333Y-1888339D01*
X6783333Y-1888339D02*
X6783333Y-1902625D01*
X6783333Y-1902625D02*
X6778571Y-1921672D01*
X6778571Y-1921672D02*
X6773809Y-1931196D01*
X6773809Y-1931196D02*
X6764286Y-1940720D01*
X6764286Y-1940720D02*
X6750000Y-1945482D01*
X6750000Y-1945482D02*
X6726190Y-1945482D01*
X6878571Y-1945482D02*
X6821429Y-1945482D01*
X6850000Y-1945482D02*
X6850000Y-1845482D01*
X6850000Y-1845482D02*
X6840476Y-1859768D01*
X6840476Y-1859768D02*
X6830952Y-1869291D01*
X6830952Y-1869291D02*
X6821429Y-1874053D01*
X6273809Y-2035482D02*
X6273809Y-1935482D01*
X6330952Y-2035482D02*
X6288095Y-1978339D01*
X6330952Y-1935482D02*
X6273809Y-1992625D01*
D10*
X5985000Y-5462440D02*
X5980714Y-5466726D01*
X5980714Y-5466726D02*
X5967857Y-5471012D01*
X5967857Y-5471012D02*
X5959286Y-5471012D01*
X5959286Y-5471012D02*
X5946429Y-5466726D01*
X5946429Y-5466726D02*
X5937857Y-5458155D01*
X5937857Y-5458155D02*
X5933571Y-5449583D01*
X5933571Y-5449583D02*
X5929286Y-5432440D01*
X5929286Y-5432440D02*
X5929286Y-5419583D01*
X5929286Y-5419583D02*
X5933571Y-5402440D01*
X5933571Y-5402440D02*
X5937857Y-5393869D01*
X5937857Y-5393869D02*
X5946429Y-5385297D01*
X5946429Y-5385297D02*
X5959286Y-5381012D01*
X5959286Y-5381012D02*
X5967857Y-5381012D01*
X5967857Y-5381012D02*
X5980714Y-5385297D01*
X5980714Y-5385297D02*
X5985000Y-5389583D01*
X6015000Y-5381012D02*
X6070714Y-5381012D01*
X6070714Y-5381012D02*
X6040714Y-5415297D01*
X6040714Y-5415297D02*
X6053571Y-5415297D01*
X6053571Y-5415297D02*
X6062143Y-5419583D01*
X6062143Y-5419583D02*
X6066429Y-5423869D01*
X6066429Y-5423869D02*
X6070714Y-5432440D01*
X6070714Y-5432440D02*
X6070714Y-5453869D01*
X6070714Y-5453869D02*
X6066429Y-5462440D01*
X6066429Y-5462440D02*
X6062143Y-5466726D01*
X6062143Y-5466726D02*
X6053571Y-5471012D01*
X6053571Y-5471012D02*
X6027857Y-5471012D01*
X6027857Y-5471012D02*
X6019286Y-5466726D01*
X6019286Y-5466726D02*
X6015000Y-5462440D01*
X6785000Y-2741012D02*
X6755000Y-2698155D01*
X6733571Y-2741012D02*
X6733571Y-2651012D01*
X6733571Y-2651012D02*
X6767857Y-2651012D01*
X6767857Y-2651012D02*
X6776429Y-2655297D01*
X6776429Y-2655297D02*
X6780714Y-2659583D01*
X6780714Y-2659583D02*
X6785000Y-2668155D01*
X6785000Y-2668155D02*
X6785000Y-2681012D01*
X6785000Y-2681012D02*
X6780714Y-2689583D01*
X6780714Y-2689583D02*
X6776429Y-2693869D01*
X6776429Y-2693869D02*
X6767857Y-2698155D01*
X6767857Y-2698155D02*
X6733571Y-2698155D01*
X6862143Y-2651012D02*
X6845000Y-2651012D01*
X6845000Y-2651012D02*
X6836429Y-2655297D01*
X6836429Y-2655297D02*
X6832143Y-2659583D01*
X6832143Y-2659583D02*
X6823571Y-2672440D01*
X6823571Y-2672440D02*
X6819286Y-2689583D01*
X6819286Y-2689583D02*
X6819286Y-2723869D01*
X6819286Y-2723869D02*
X6823571Y-2732440D01*
X6823571Y-2732440D02*
X6827857Y-2736726D01*
X6827857Y-2736726D02*
X6836429Y-2741012D01*
X6836429Y-2741012D02*
X6853571Y-2741012D01*
X6853571Y-2741012D02*
X6862143Y-2736726D01*
X6862143Y-2736726D02*
X6866429Y-2732440D01*
X6866429Y-2732440D02*
X6870714Y-2723869D01*
X6870714Y-2723869D02*
X6870714Y-2702440D01*
X6870714Y-2702440D02*
X6866429Y-2693869D01*
X6866429Y-2693869D02*
X6862143Y-2689583D01*
X6862143Y-2689583D02*
X6853571Y-2685297D01*
X6853571Y-2685297D02*
X6836429Y-2685297D01*
X6836429Y-2685297D02*
X6827857Y-2689583D01*
X6827857Y-2689583D02*
X6823571Y-2693869D01*
X6823571Y-2693869D02*
X6819286Y-2702440D01*
X3785000Y-3941012D02*
X3755000Y-3898154D01*
X3733571Y-3941012D02*
X3733571Y-3851012D01*
X3733571Y-3851012D02*
X3767857Y-3851012D01*
X3767857Y-3851012D02*
X3776429Y-3855297D01*
X3776429Y-3855297D02*
X3780714Y-3859583D01*
X3780714Y-3859583D02*
X3785000Y-3868154D01*
X3785000Y-3868154D02*
X3785000Y-3881012D01*
X3785000Y-3881012D02*
X3780714Y-3889583D01*
X3780714Y-3889583D02*
X3776429Y-3893869D01*
X3776429Y-3893869D02*
X3767857Y-3898154D01*
X3767857Y-3898154D02*
X3733571Y-3898154D01*
X3815000Y-3851012D02*
X3870714Y-3851012D01*
X3870714Y-3851012D02*
X3840714Y-3885297D01*
X3840714Y-3885297D02*
X3853571Y-3885297D01*
X3853571Y-3885297D02*
X3862143Y-3889583D01*
X3862143Y-3889583D02*
X3866429Y-3893869D01*
X3866429Y-3893869D02*
X3870714Y-3902440D01*
X3870714Y-3902440D02*
X3870714Y-3923869D01*
X3870714Y-3923869D02*
X3866429Y-3932440D01*
X3866429Y-3932440D02*
X3862143Y-3936726D01*
X3862143Y-3936726D02*
X3853571Y-3941012D01*
X3853571Y-3941012D02*
X3827857Y-3941012D01*
X3827857Y-3941012D02*
X3819286Y-3936726D01*
X3819286Y-3936726D02*
X3815000Y-3932440D01*
X6285000Y-3541012D02*
X6255000Y-3498154D01*
X6233571Y-3541012D02*
X6233571Y-3451012D01*
X6233571Y-3451012D02*
X6267857Y-3451012D01*
X6267857Y-3451012D02*
X6276429Y-3455297D01*
X6276429Y-3455297D02*
X6280714Y-3459583D01*
X6280714Y-3459583D02*
X6285000Y-3468154D01*
X6285000Y-3468154D02*
X6285000Y-3481012D01*
X6285000Y-3481012D02*
X6280714Y-3489583D01*
X6280714Y-3489583D02*
X6276429Y-3493869D01*
X6276429Y-3493869D02*
X6267857Y-3498154D01*
X6267857Y-3498154D02*
X6233571Y-3498154D01*
X6366429Y-3451012D02*
X6323571Y-3451012D01*
X6323571Y-3451012D02*
X6319286Y-3493869D01*
X6319286Y-3493869D02*
X6323571Y-3489583D01*
X6323571Y-3489583D02*
X6332143Y-3485297D01*
X6332143Y-3485297D02*
X6353571Y-3485297D01*
X6353571Y-3485297D02*
X6362143Y-3489583D01*
X6362143Y-3489583D02*
X6366429Y-3493869D01*
X6366429Y-3493869D02*
X6370714Y-3502440D01*
X6370714Y-3502440D02*
X6370714Y-3523869D01*
X6370714Y-3523869D02*
X6366429Y-3532440D01*
X6366429Y-3532440D02*
X6362143Y-3536726D01*
X6362143Y-3536726D02*
X6353571Y-3541012D01*
X6353571Y-3541012D02*
X6332143Y-3541012D01*
X6332143Y-3541012D02*
X6323571Y-3536726D01*
X6323571Y-3536726D02*
X6319286Y-3532440D01*
X4335000Y-4821012D02*
X4305000Y-4778155D01*
X4283571Y-4821012D02*
X4283571Y-4731012D01*
X4283571Y-4731012D02*
X4317857Y-4731012D01*
X4317857Y-4731012D02*
X4326429Y-4735297D01*
X4326429Y-4735297D02*
X4330714Y-4739583D01*
X4330714Y-4739583D02*
X4335000Y-4748155D01*
X4335000Y-4748155D02*
X4335000Y-4761012D01*
X4335000Y-4761012D02*
X4330714Y-4769583D01*
X4330714Y-4769583D02*
X4326429Y-4773869D01*
X4326429Y-4773869D02*
X4317857Y-4778155D01*
X4317857Y-4778155D02*
X4283571Y-4778155D01*
X4412143Y-4761012D02*
X4412143Y-4821012D01*
X4390714Y-4726726D02*
X4369286Y-4791012D01*
X4369286Y-4791012D02*
X4425000Y-4791012D01*
X770000Y-951012D02*
X770000Y-1015297D01*
X770000Y-1015297D02*
X765714Y-1028154D01*
X765714Y-1028154D02*
X757143Y-1036726D01*
X757143Y-1036726D02*
X744286Y-1041012D01*
X744286Y-1041012D02*
X735714Y-1041012D01*
X860000Y-1041012D02*
X808571Y-1041012D01*
X834286Y-1041012D02*
X834286Y-951012D01*
X834286Y-951012D02*
X825714Y-963869D01*
X825714Y-963869D02*
X817143Y-972440D01*
X817143Y-972440D02*
X808571Y-976726D01*
X7570000Y-6201012D02*
X7570000Y-6265297D01*
X7570000Y-6265297D02*
X7565714Y-6278154D01*
X7565714Y-6278154D02*
X7557143Y-6286726D01*
X7557143Y-6286726D02*
X7544286Y-6291012D01*
X7544286Y-6291012D02*
X7535714Y-6291012D01*
X7608571Y-6209583D02*
X7612857Y-6205297D01*
X7612857Y-6205297D02*
X7621429Y-6201012D01*
X7621429Y-6201012D02*
X7642857Y-6201012D01*
X7642857Y-6201012D02*
X7651429Y-6205297D01*
X7651429Y-6205297D02*
X7655714Y-6209583D01*
X7655714Y-6209583D02*
X7660000Y-6218154D01*
X7660000Y-6218154D02*
X7660000Y-6226726D01*
X7660000Y-6226726D02*
X7655714Y-6239583D01*
X7655714Y-6239583D02*
X7604286Y-6291012D01*
X7604286Y-6291012D02*
X7660000Y-6291012D01*
%TO.C,R2*%
X2697750Y-3776274D02*
X2697750Y-3823726D01*
X2802250Y-3776274D02*
X2802250Y-3823726D01*
%TO.C,R8*%
X6747750Y-5206274D02*
X6747750Y-5253726D01*
X6852250Y-5206274D02*
X6852250Y-5253726D01*
%TO.C,U1*%
X4814000Y-3474000D02*
X5586000Y-3474000D01*
X4814000Y-3499500D02*
X4814000Y-3474000D01*
X4814000Y-4526000D02*
X4814000Y-4500500D01*
X5586000Y-3474000D02*
X5586000Y-3499500D01*
X5586000Y-4500500D02*
X5586000Y-4526000D01*
X5586000Y-4526000D02*
X4814000Y-4526000D01*
X4712500Y-3499000D02*
X4678500Y-3452000D01*
X4746500Y-3452000D01*
X4712500Y-3499000D01*
G36*
X4712500Y-3499000D02*
G01*
X4678500Y-3452000D01*
X4746500Y-3452000D01*
X4712500Y-3499000D01*
G37*
%TO.C,J3*%
X7062000Y-2762000D02*
X7200000Y-2762000D01*
X7062000Y-2900000D02*
X7062000Y-2762000D01*
X7062000Y-3027000D02*
X7062000Y-3292000D01*
X7062000Y-3027000D02*
X7338000Y-3027000D01*
X7062000Y-3292000D02*
X7338000Y-3292000D01*
X7338000Y-3027000D02*
X7338000Y-3292000D01*
%TO.C,J5*%
X662000Y-3662000D02*
X800000Y-3662000D01*
X662000Y-3800000D02*
X662000Y-3662000D01*
X662000Y-3927000D02*
X662000Y-4192000D01*
X662000Y-3927000D02*
X938000Y-3927000D01*
X662000Y-4192000D02*
X938000Y-4192000D01*
X938000Y-3927000D02*
X938000Y-4192000D01*
%TO.C,R7*%
X6227294Y-4226500D02*
X6372706Y-4226500D01*
X6227294Y-4408500D02*
X6372706Y-4408500D01*
%TO.C,J4*%
X7062000Y-4962000D02*
X7200000Y-4962000D01*
X7062000Y-5100000D02*
X7062000Y-4962000D01*
X7062000Y-5227000D02*
X7062000Y-5492000D01*
X7062000Y-5227000D02*
X7338000Y-5227000D01*
X7062000Y-5492000D02*
X7338000Y-5492000D01*
X7338000Y-5227000D02*
X7338000Y-5492000D01*
%TO.C,C4*%
X6028875Y-3164000D02*
X6171125Y-3164000D01*
X6028875Y-3436000D02*
X6171125Y-3436000D01*
%TO.C,C2*%
X6035942Y-4029000D02*
X6064058Y-4029000D01*
X6035942Y-4131000D02*
X6064058Y-4131000D01*
%TO.C,R1*%
X2376274Y-3347750D02*
X2423726Y-3347750D01*
X2376274Y-3452250D02*
X2423726Y-3452250D01*
%TO.C,C1*%
X4399000Y-3872942D02*
X4399000Y-3901058D01*
X4501000Y-3872942D02*
X4501000Y-3901058D01*
%TO.C,Q1*%
X3124000Y-3644000D02*
X3276000Y-3644000D01*
X3124000Y-3649000D02*
X3124000Y-3644000D01*
X3124000Y-3839000D02*
X3124000Y-3761000D01*
X3124000Y-3956000D02*
X3124000Y-3951000D01*
X3276000Y-3644000D02*
X3276000Y-3744000D01*
X3276000Y-3856000D02*
X3276000Y-3956000D01*
X3276000Y-3956000D02*
X3124000Y-3956000D01*
X3070000Y-3762000D02*
X3094000Y-3795000D01*
X3046000Y-3795000D01*
X3070000Y-3762000D01*
G36*
X3094000Y-3795000D02*
G01*
X3046000Y-3795000D01*
X3070000Y-3762000D01*
X3094000Y-3795000D01*
G37*
%TO.C,D1*%
X6434000Y-2200000D02*
X6536000Y-2200000D01*
X6614000Y-2053000D02*
X6614000Y-2347000D01*
X6626000Y-2053000D02*
X6626000Y-2347000D01*
X6638000Y-2053000D02*
X6638000Y-2347000D01*
X7182000Y-2200000D02*
X7080000Y-2200000D01*
X6536000Y-2053000D02*
X7080000Y-2053000D01*
X7080000Y-2347000D01*
X6536000Y-2347000D01*
X6536000Y-2053000D01*
%TO.C,C3*%
X5928875Y-5064000D02*
X6071125Y-5064000D01*
X5928875Y-5336000D02*
X6071125Y-5336000D01*
%TO.C,R6*%
X6747750Y-3006274D02*
X6747750Y-3053726D01*
X6852250Y-3006274D02*
X6852250Y-3053726D01*
%TO.C,R3*%
X3547750Y-3976274D02*
X3547750Y-4023726D01*
X3652250Y-3976274D02*
X3652250Y-4023726D01*
%TO.C,R5*%
X6227294Y-3591500D02*
X6372706Y-3591500D01*
X6227294Y-3773500D02*
X6372706Y-3773500D01*
%TO.C,R4*%
X4326274Y-4447750D02*
X4373726Y-4447750D01*
X4326274Y-4552250D02*
X4373726Y-4552250D01*
%TO.C,J1*%
X525000Y-1220000D02*
X525000Y-1775000D01*
X525000Y-2330000D02*
X525000Y-1775000D01*
X820000Y-1145000D02*
X820000Y-1220000D01*
X820000Y-1220000D02*
X525000Y-1220000D01*
X820000Y-2330000D02*
X525000Y-2330000D01*
X820000Y-2405000D02*
X820000Y-2330000D01*
X1075000Y-1115000D02*
X950000Y-1115000D01*
X1075000Y-1240000D02*
X1075000Y-1115000D01*
X970000Y-1145000D02*
X1045000Y-1145000D01*
X1045000Y-1325000D01*
X970000Y-1325000D01*
X970000Y-1145000D01*
X970000Y-1475000D02*
X1045000Y-1475000D01*
X1045000Y-2075000D01*
X970000Y-2075000D01*
X970000Y-1475000D01*
X970000Y-2225000D02*
X1045000Y-2225000D01*
X1045000Y-2405000D01*
X970000Y-2405000D01*
X970000Y-2225000D01*
X449000Y-1144000D02*
X1046000Y-1144000D01*
X1046000Y-2406000D01*
X449000Y-2406000D01*
X449000Y-1144000D01*
%TO.C,J2*%
X7462000Y-6362000D02*
X7600000Y-6362000D01*
X7462000Y-6500000D02*
X7462000Y-6362000D01*
X7462000Y-6627000D02*
X7462000Y-6892000D01*
X7462000Y-6627000D02*
X7738000Y-6627000D01*
X7462000Y-6892000D02*
X7738000Y-6892000D01*
X7738000Y-6627000D02*
X7738000Y-6892000D01*
%TD*%
%LPC*%
D12*
%TO.C,R2*%
X2750000Y-3717500D03*
X2750000Y-3882500D03*
%TD*%
%TO.C,R8*%
X6800000Y-5147500D03*
X6800000Y-5312500D03*
%TD*%
D13*
%TO.C,U1*%
X4712500Y-3555500D03*
X4712500Y-3682500D03*
X4712500Y-3809500D03*
X4712500Y-3936500D03*
X4712500Y-4063500D03*
X4712500Y-4190500D03*
X4712500Y-4317500D03*
X4712500Y-4444500D03*
X5687500Y-4444500D03*
X5687500Y-4317500D03*
X5687500Y-4190500D03*
X5687500Y-3809500D03*
X5687500Y-3682500D03*
X5687500Y-3555500D03*
%TD*%
D14*
%TO.C,J3*%
X7200000Y-2900000D03*
D15*
X7200000Y-3154000D03*
%TD*%
D14*
%TO.C,J5*%
X800000Y-3800000D03*
D15*
X800000Y-4054000D03*
%TD*%
D16*
%TO.C,R7*%
X6153750Y-4317500D03*
X6446250Y-4317500D03*
%TD*%
D14*
%TO.C,J4*%
X7200000Y-5100000D03*
D15*
X7200000Y-5354000D03*
%TD*%
D17*
%TO.C,C4*%
X5952500Y-3300000D03*
X6247500Y-3300000D03*
%TD*%
D18*
%TO.C,C2*%
X5972500Y-4080000D03*
X6127500Y-4080000D03*
%TD*%
D19*
%TO.C,R1*%
X2317500Y-3400000D03*
X2482500Y-3400000D03*
%TD*%
D20*
%TO.C,C1*%
X4450000Y-3809500D03*
X4450000Y-3964500D03*
%TD*%
D21*
%TO.C,Q1*%
X3106250Y-3705000D03*
X3106250Y-3895000D03*
X3293750Y-3800000D03*
%TD*%
D22*
%TO.C,D1*%
X6300000Y-2200000D03*
D23*
X7316000Y-2200000D03*
%TD*%
D17*
%TO.C,C3*%
X5852500Y-5200000D03*
X6147500Y-5200000D03*
%TD*%
D12*
%TO.C,R6*%
X6800000Y-2947500D03*
X6800000Y-3112500D03*
%TD*%
%TO.C,R3*%
X3600000Y-3917500D03*
X3600000Y-4082500D03*
%TD*%
D16*
%TO.C,R5*%
X6153750Y-3682500D03*
X6446250Y-3682500D03*
%TD*%
D19*
%TO.C,R4*%
X4267500Y-4500000D03*
X4432500Y-4500000D03*
%TD*%
D24*
%TO.C,J1*%
X800000Y-1400000D03*
D25*
X800000Y-1650000D03*
X800000Y-1900000D03*
X800000Y-2150000D03*
%TD*%
D14*
%TO.C,J2*%
X7600000Y-6500000D03*
D15*
X7600000Y-6754000D03*
%TD*%
%LPD*%
M02*
