%TF.GenerationSoftware,KiCad,Pcbnew,10.0.4*%
%TF.CreationDate,2026-09-24T00:17:53-06:00*%
%TF.ProjectId,section,73656374-696f-46e2-9e6b-696361645f70,rev?*%
%TF.SameCoordinates,Original*%
%TF.FileFunction,Copper,L1,Top*%
%TF.FilePolarity,Positive*%
%FSLAX45Y45*%
G04 Gerber Fmt 4.5, Leading zero omitted, Abs format (unit mm)*
G04 Created by KiCad (PCBNEW 10.0.4) date 2026-09-24 00:17:53*
%MOMM*%
%LPD*%
G01*
G04 APERTURE LIST*
G04 Aperture macros list*
%AMRoundRect*
0 Rectangle with rounded corners*
0 $1 Rounding radius*
0 $2 $3 $4 $5 $6 $7 $8 $9 X,Y pos of 4 corners*
0 Add a 4 corners polygon primitive as box body*
4,1,4,$2,$3,$4,$5,$6,$7,$8,$9,$2,$3,0*
0 Add four circle primitives for the rounded corners*
1,1,$1+$1,$2,$3*
1,1,$1+$1,$4,$5*
1,1,$1+$1,$6,$7*
1,1,$1+$1,$8,$9*
0 Add four rect primitives between the rounded corners*
20,1,$1+$1,$2,$3,$4,$5,0*
20,1,$1+$1,$4,$5,$6,$7,0*
20,1,$1+$1,$6,$7,$8,$9,0*
20,1,$1+$1,$8,$9,$2,$3,0*%
G04 Aperture macros list end*
%TA.AperFunction,SMDPad,CuDef*%
%ADD10RoundRect,0.200000X-0.275000X0.200000X-0.275000X-0.200000X0.275000X-0.200000X0.275000X0.200000X0*%
%TD*%
%TA.AperFunction,SMDPad,CuDef*%
%ADD11RoundRect,0.150000X-0.675000X-0.150000X0.675000X-0.150000X0.675000X0.150000X-0.675000X0.150000X0*%
%TD*%
%TA.AperFunction,ComponentPad*%
%ADD12R,1.700000X1.700000*%
%TD*%
%TA.AperFunction,ComponentPad*%
%ADD13C,1.700000*%
%TD*%
%TA.AperFunction,SMDPad,CuDef*%
%ADD14RoundRect,0.250000X-0.312500X-0.625000X0.312500X-0.625000X0.312500X0.625000X-0.312500X0.625000X0*%
%TD*%
%TA.AperFunction,SMDPad,CuDef*%
%ADD15RoundRect,0.250000X-0.325000X-1.100000X0.325000X-1.100000X0.325000X1.100000X-0.325000X1.100000X0*%
%TD*%
%TA.AperFunction,SMDPad,CuDef*%
%ADD16RoundRect,0.225000X-0.225000X-0.250000X0.225000X-0.250000X0.225000X0.250000X-0.225000X0.250000X0*%
%TD*%
%TA.AperFunction,SMDPad,CuDef*%
%ADD17RoundRect,0.200000X-0.200000X-0.275000X0.200000X-0.275000X0.200000X0.275000X-0.200000X0.275000X0*%
%TD*%
%TA.AperFunction,SMDPad,CuDef*%
%ADD18RoundRect,0.225000X-0.250000X0.225000X-0.250000X-0.225000X0.250000X-0.225000X0.250000X0.225000X0*%
%TD*%
%TA.AperFunction,SMDPad,CuDef*%
%ADD19RoundRect,0.150000X-0.587500X-0.150000X0.587500X-0.150000X0.587500X0.150000X-0.587500X0.150000X0*%
%TD*%
%TA.AperFunction,ComponentPad*%
%ADD20RoundRect,0.249999X-0.850001X-0.850001X0.850001X-0.850001X0.850001X0.850001X-0.850001X0.850001X0*%
%TD*%
%TA.AperFunction,ComponentPad*%
%ADD21C,2.200000*%
%TD*%
%TA.AperFunction,ComponentPad*%
%ADD22RoundRect,0.250000X-0.725000X0.600000X-0.725000X-0.600000X0.725000X-0.600000X0.725000X0.600000X0*%
%TD*%
%TA.AperFunction,ComponentPad*%
%ADD23O,1.950000X1.700000*%
%TD*%
%TA.AperFunction,ViaPad*%
%ADD24C,0.600000*%
%TD*%
%TA.AperFunction,Conductor*%
%ADD25C,0.300000*%
%TD*%
%TA.AperFunction,Conductor*%
%ADD26C,0.400000*%
%TD*%
%TA.AperFunction,Conductor*%
%ADD27C,0.500000*%
%TD*%
%TA.AperFunction,Conductor*%
%ADD28C,0.600000*%
%TD*%
G04 APERTURE END LIST*
D10*
%TO.P,R2,1*%
%TO.N,g*%
X2750000Y-3717500D03*
%TO.P,R2,2*%
%TO.N,ctrl_gnd*%
X2750000Y-3882500D03*
%TD*%
%TO.P,R8,1*%
%TO.N,gate_l_out*%
X6800000Y-5147500D03*
%TO.P,R8,2*%
%TO.N,gate_l_kelvin*%
X6800000Y-5312500D03*
%TD*%
D11*
%TO.P,U1,1*%
%TO.N,pwm_h*%
X4712500Y-3555500D03*
%TO.P,U1,2*%
%TO.N,pwm_l*%
X4712500Y-3682500D03*
%TO.P,U1,3*%
%TO.N,v3v3*%
X4712500Y-3809500D03*
%TO.P,U1,4*%
%TO.N,ctrl_gnd*%
X4712500Y-3936500D03*
%TO.P,U1,5*%
%TO.N,dis*%
X4712500Y-4063500D03*
%TO.P,U1,6*%
%TO.N,dt*%
X4712500Y-4190500D03*
%TO.P,U1,7*%
%TO.N,nc_7*%
X4712500Y-4317500D03*
%TO.P,U1,8*%
%TO.N,v3v3*%
X4712500Y-4444500D03*
%TO.P,U1,9*%
%TO.N,gate_l_kelvin*%
X5687500Y-4444500D03*
%TO.P,U1,10*%
%TO.N,outb*%
X5687500Y-4317500D03*
%TO.P,U1,11*%
%TO.N,v15_ls*%
X5687500Y-4190500D03*
%TO.P,U1,14*%
%TO.N,gate_h_kelvin*%
X5687500Y-3809500D03*
%TO.P,U1,15*%
%TO.N,outa*%
X5687500Y-3682500D03*
%TO.P,U1,16*%
%TO.N,vdda*%
X5687500Y-3555500D03*
%TD*%
D12*
%TO.P,J3,1*%
%TO.N,gate_h_out*%
X7200000Y-2900000D03*
D13*
%TO.P,J3,2*%
%TO.N,gate_h_kelvin*%
X7200000Y-3154000D03*
%TD*%
D12*
%TO.P,J5,1*%
%TO.N,v3v3*%
X800000Y-3800000D03*
D13*
%TO.P,J5,2*%
%TO.N,ctrl_gnd*%
X800000Y-4054000D03*
%TD*%
D14*
%TO.P,R7,1*%
%TO.N,outb*%
X6153750Y-4317500D03*
%TO.P,R7,2*%
%TO.N,gate_l_out*%
X6446250Y-4317500D03*
%TD*%
D12*
%TO.P,J4,1*%
%TO.N,gate_l_out*%
X7200000Y-5100000D03*
D13*
%TO.P,J4,2*%
%TO.N,gate_l_kelvin*%
X7200000Y-5354000D03*
%TD*%
D15*
%TO.P,C4,1*%
%TO.N,vdda*%
X5952500Y-3300000D03*
%TO.P,C4,2*%
%TO.N,gate_h_kelvin*%
X6247500Y-3300000D03*
%TD*%
D16*
%TO.P,C2,1*%
%TO.N,v15_ls*%
X5972500Y-4080000D03*
%TO.P,C2,2*%
%TO.N,gate_l_kelvin*%
X6127500Y-4080000D03*
%TD*%
D17*
%TO.P,R1,1*%
%TO.N,permit*%
X2317500Y-3400000D03*
%TO.P,R1,2*%
%TO.N,g*%
X2482500Y-3400000D03*
%TD*%
D18*
%TO.P,C1,1*%
%TO.N,v3v3*%
X4450000Y-3809500D03*
%TO.P,C1,2*%
%TO.N,ctrl_gnd*%
X4450000Y-3964500D03*
%TD*%
D19*
%TO.P,Q1,1*%
%TO.N,g*%
X3106250Y-3705000D03*
%TO.P,Q1,2*%
%TO.N,ctrl_gnd*%
X3106250Y-3895000D03*
%TO.P,Q1,3*%
%TO.N,dis*%
X3293750Y-3800000D03*
%TD*%
D20*
%TO.P,D1,1*%
%TO.N,vdda*%
X6300000Y-2200000D03*
D21*
%TO.P,D1,2*%
%TO.N,v15_ls*%
X7316000Y-2200000D03*
%TD*%
D15*
%TO.P,C3,1*%
%TO.N,v15_ls*%
X5852500Y-5200000D03*
%TO.P,C3,2*%
%TO.N,gate_l_kelvin*%
X6147500Y-5200000D03*
%TD*%
D10*
%TO.P,R6,1*%
%TO.N,gate_h_out*%
X6800000Y-2947500D03*
%TO.P,R6,2*%
%TO.N,gate_h_kelvin*%
X6800000Y-3112500D03*
%TD*%
%TO.P,R3,1*%
%TO.N,dis*%
X3600000Y-3917500D03*
%TO.P,R3,2*%
%TO.N,v3v3*%
X3600000Y-4082500D03*
%TD*%
D14*
%TO.P,R5,1*%
%TO.N,outa*%
X6153750Y-3682500D03*
%TO.P,R5,2*%
%TO.N,gate_h_out*%
X6446250Y-3682500D03*
%TD*%
D17*
%TO.P,R4,1*%
%TO.N,dt*%
X4267500Y-4500000D03*
%TO.P,R4,2*%
%TO.N,ctrl_gnd*%
X4432500Y-4500000D03*
%TD*%
D22*
%TO.P,J1,1*%
%TO.N,pwm_h*%
X800000Y-1400000D03*
D23*
%TO.P,J1,2*%
%TO.N,pwm_l*%
X800000Y-1650000D03*
%TO.P,J1,3*%
%TO.N,permit*%
X800000Y-1900000D03*
%TO.P,J1,4*%
%TO.N,ctrl_gnd*%
X800000Y-2150000D03*
%TD*%
D12*
%TO.P,J2,1*%
%TO.N,v15_ls*%
X7600000Y-6500000D03*
D13*
%TO.P,J2,2*%
%TO.N,gate_l_kelvin*%
X7600000Y-6754000D03*
%TD*%
D24*
%TO.N,ctrl_gnd*%
X3040000Y-4020000D03*
X4300000Y-3964500D03*
X4432500Y-4650000D03*
X2750000Y-4020000D03*
%TO.N,gate_l_kelvin*%
X6250000Y-5200000D03*
X5820000Y-4444500D03*
X6300000Y-4500000D03*
X6800000Y-5450000D03*
%TO.N,v3v3*%
X4300000Y-3809500D03*
X3600000Y-4200000D03*
X4580000Y-4444500D03*
%TO.N,v15_ls*%
X5850000Y-4100000D03*
X7500000Y-2200000D03*
X5750000Y-5200000D03*
%TO.N,gate_h_kelvin*%
X6350000Y-3300000D03*
X6800000Y-3230000D03*
X5820000Y-3809500D03*
%TD*%
%TO.N,g*%
D25*
X2750000Y-3400000D02*
X3106250Y-3400000D01*
X2750000Y-3400000D02*
X2750000Y-3717500D01*
X2482500Y-3400000D02*
X2750000Y-3400000D01*
X3106250Y-3400000D02*
X3106250Y-3705000D01*
%TO.N,ctrl_gnd*%
X4450000Y-3964500D02*
X4300000Y-3964500D01*
X3040000Y-3961250D02*
X3040000Y-4020000D01*
X4450000Y-3964500D02*
X4500000Y-3964500D01*
X4500000Y-3964500D02*
X4528000Y-3936500D01*
X4528000Y-3936500D02*
X4712500Y-3936500D01*
X2750000Y-3882500D02*
X2750000Y-4020000D01*
X4432500Y-4500000D02*
X4432500Y-4650000D01*
X3106250Y-3895000D02*
X3040000Y-3961250D01*
%TO.N,gate_l_out*%
D26*
X6800000Y-4900000D02*
X6800000Y-5147500D01*
D27*
X6446250Y-4317500D02*
X6800000Y-4671250D01*
X7000000Y-5100000D02*
X7200000Y-5100000D01*
X6800000Y-4900000D02*
X7000000Y-5100000D01*
X6800000Y-4671250D02*
X6800000Y-4900000D01*
%TO.N,gate_l_kelvin*%
X6127500Y-4080000D02*
X6300000Y-4080000D01*
X6147500Y-5200000D02*
X6250000Y-5200000D01*
X6300000Y-4080000D02*
X6300000Y-4500000D01*
D28*
X5687500Y-4444500D02*
X5820000Y-4444500D01*
D26*
X6800000Y-5312500D02*
X6800000Y-5450000D01*
%TO.N,pwm_h*%
D25*
X4000000Y-3400000D02*
X4155500Y-3555500D01*
X2000000Y-1400000D02*
X4000000Y-3400000D01*
X4155500Y-3555500D02*
X4712500Y-3555500D01*
X800000Y-1400000D02*
X2000000Y-1400000D01*
%TO.N,pwm_l*%
X3900000Y-3650000D02*
X3932500Y-3682500D01*
X800000Y-1650000D02*
X1900000Y-1650000D01*
X3932500Y-3682500D02*
X4712500Y-3682500D01*
X1900000Y-1650000D02*
X3900000Y-3650000D01*
%TO.N,v3v3*%
X4300000Y-3809500D02*
X4450000Y-3809500D01*
X3600000Y-4082500D02*
X3600000Y-4200000D01*
X4580000Y-4444500D02*
X4712500Y-4444500D01*
X4450000Y-3809500D02*
X4712500Y-3809500D01*
%TO.N,dis*%
X3900000Y-3917500D02*
X4046000Y-4063500D01*
X4046000Y-4063500D02*
X4712500Y-4063500D01*
X3293750Y-3800000D02*
X3417500Y-3917500D01*
X3417500Y-3917500D02*
X3600000Y-3917500D01*
X3600000Y-3917500D02*
X3900000Y-3917500D01*
%TO.N,dt*%
X4267500Y-4423000D02*
X4267500Y-4500000D01*
X4712500Y-4190500D02*
X4500000Y-4190500D01*
X4500000Y-4190500D02*
X4267500Y-4423000D01*
%TO.N,outb*%
D27*
X5687500Y-4317500D02*
X6153750Y-4317500D01*
%TO.N,v15_ls*%
X5972500Y-4080000D02*
X5832000Y-4190500D01*
X5850000Y-4100000D02*
X5972500Y-4080000D01*
D28*
X7500000Y-2200000D02*
X7316000Y-2200000D01*
D27*
X5750000Y-5200000D02*
X5852500Y-5200000D01*
X5832000Y-4190500D02*
X5687500Y-4190500D01*
%TO.N,gate_h_kelvin*%
D28*
X5687500Y-3809500D02*
X5820000Y-3809500D01*
D27*
X6247500Y-3300000D02*
X6350000Y-3300000D01*
D26*
X6800000Y-3112500D02*
X6800000Y-3230000D01*
%TO.N,outa*%
D27*
X5687500Y-3682500D02*
X6153750Y-3682500D01*
%TO.N,vdda*%
X5952500Y-3555500D02*
X5952500Y-3300000D01*
X6000000Y-2700000D02*
X6000000Y-3100000D01*
X5687500Y-3555500D02*
X5952500Y-3555500D01*
X6300000Y-2200000D02*
X6000000Y-2700000D01*
X5952500Y-3147500D02*
X5952500Y-3300000D01*
X6000000Y-3100000D02*
X5952500Y-3147500D01*
%TO.N,gate_h_out*%
X6600000Y-2900000D02*
X7200000Y-2900000D01*
X6446250Y-3682500D02*
X6550000Y-3682500D01*
X6550000Y-3682500D02*
X6600000Y-3632500D01*
D26*
X6800000Y-2900000D02*
X6800000Y-2947500D01*
D27*
X6600000Y-3632500D02*
X6600000Y-2900000D01*
%TO.N,permit*%
D25*
X2317500Y-2817500D02*
X2317500Y-3400000D01*
X800000Y-1900000D02*
X1400000Y-1900000D01*
X1400000Y-1900000D02*
X2317500Y-2817500D01*
%TD*%
M02*
