M48
; DRILL file KiCad 10.0.4 date 2026-09-24T00:18:07
; FORMAT={-:-/ absolute / metric / decimal}
; #@! TF.CreationDate,2026-09-24T00:18:07-06:00
; #@! TF.GenerationSoftware,Kicad,Pcbnew,10.0.4
; #@! TF.FileFunction,MixedPlating,1,2
FMAT,2
METRIC
; #@! TA.AperFunction,Plated,PTH,ViaDrill
T1C0.300
; #@! TA.AperFunction,Plated,PTH,ComponentDrill
T2C0.950
; #@! TA.AperFunction,Plated,PTH,ComponentDrill
T3C1.000
; #@! TA.AperFunction,Plated,PTH,ComponentDrill
T4C1.100
%
G90
G05
T1
X27.5Y-40.2
X30.4Y-40.2
X36.0Y-42.0
X43.0Y-38.095
X43.0Y-39.645
X44.325Y-46.5
X45.8Y-44.445
X57.5Y-52.0
X58.2Y-38.095
X58.2Y-44.445
X58.5Y-41.0
X62.5Y-52.0
X63.0Y-45.0
X63.5Y-33.0
X68.0Y-32.3
X68.0Y-54.5
X75.0Y-22.0
T2
X8.0Y-14.0
X8.0Y-16.5
X8.0Y-19.0
X8.0Y-21.5
T3
X8.0Y-38.0
X8.0Y-40.54
X72.0Y-29.0
X72.0Y-31.54
X72.0Y-51.0
X72.0Y-53.54
X76.0Y-65.0
X76.0Y-67.54
T4
X63.0Y-22.0
X73.16Y-22.0
M30
