#VRML V2.0 utf8
# Provisional TDK B82726S2203A020 visualization. Maximum envelope; open-ring winding depiction approximate.
# Coordinates in mm; set KiCad model scale to 0.3937008 on all axes.
WorldInfo { title "TDK B82726S2203A020 (provisional)" }
Transform { translation 5 -12.5 1.5 children [ Shape { appearance Appearance { material Material { diffuseColor 0.17 0.19 0.2 } } geometry Box { size 45 25.5 3 } } ] }
Shape { appearance Appearance { material Material { diffuseColor 0.09 0.1 0.12 } } geometry IndexedFaceSet { solid FALSE coord Coordinate { point [ 24.0000 -12.5000 20.5000, 23.1292 -9.2500 20.5000, 20.7500 -6.8708 20.5000, 17.5000 -6.0000 20.5000, 14.2500 -6.8708 20.5000, 11.8708 -9.2500 20.5000, 11.0000 -12.5000 20.5000, 11.8708 -15.7500 20.5000, 14.2500 -18.1292 20.5000, 17.5000 -19.0000 20.5000, 20.7500 -18.1292 20.5000, 23.1292 -15.7500 20.5000, 23.7113 -12.5000 23.7993, 22.8537 -9.2500 23.6481, 20.5107 -6.8708 23.2350, 17.3101 -6.0000 22.6706, 14.1095 -6.8708 22.1062, 11.7665 -9.2500 21.6931, 10.9088 -12.5000 21.5419, 11.7665 -15.7500 21.6931, 14.1095 -18.1292 22.1062, 17.3101 -19.0000 22.6706, 20.5107 -18.1292 23.2350, 22.8537 -15.7500 23.6481, 22.8542 -12.5000 26.9984, 22.0358 -9.2500 26.7005, 19.8002 -6.8708 25.8868, 16.7462 -6.0000 24.7753, 13.6922 -6.8708 23.6637, 11.4565 -9.2500 22.8500, 10.6382 -12.5000 22.5521, 11.4565 -15.7500 22.8500, 13.6922 -18.1292 23.6637, 16.7462 -19.0000 24.7753, 19.8002 -18.1292 25.8868, 22.0358 -15.7500 26.7005, 21.4545 -12.5000 30.0000, 20.7003 -9.2500 29.5646, 18.6399 -6.8708 28.3750, 15.8253 -6.0000 26.7500, 13.0107 -6.8708 25.1250, 10.9503 -9.2500 23.9354, 10.1962 -12.5000 23.5000, 10.9503 -15.7500 23.9354, 13.0107 -18.1292 25.1250, 15.8253 -19.0000 26.7500, 18.6399 -18.1292 28.3750, 20.7003 -15.7500 29.5646, 19.5548 -12.5000 32.7130, 18.8877 -9.2500 32.1532, 17.0652 -6.8708 30.6239, 14.5756 -6.0000 28.5348, 12.0859 -6.8708 26.4458, 10.2634 -9.2500 24.9165, 9.5963 -12.5000 24.3567, 10.2634 -15.7500 24.9165, 12.0859 -18.1292 26.4458, 14.5756 -19.0000 28.5348, 17.0652 -18.1292 30.6239, 18.8877 -15.7500 32.1532, 17.2130 -12.5000 35.0548, 16.6532 -9.2500 34.3877, 15.1239 -6.8708 32.5652, 13.0348 -6.0000 30.0756, 10.9458 -6.8708 27.5859, 9.4165 -9.2500 25.7634, 8.8567 -12.5000 25.0963, 9.4165 -15.7500 25.7634, 10.9458 -18.1292 27.5859, 13.0348 -19.0000 30.0756, 15.1239 -18.1292 32.5652, 16.6532 -15.7500 34.3877, 14.5000 -12.5000 36.9545, 14.0646 -9.2500 36.2003, 12.8750 -6.8708 34.1399, 11.2500 -6.0000 31.3253, 9.6250 -6.8708 28.5107, 8.4354 -9.2500 26.4503, 8.0000 -12.5000 25.6962, 8.4354 -15.7500 26.4503, 9.6250 -18.1292 28.5107, 11.2500 -19.0000 31.3253, 12.8750 -18.1292 34.1399, 14.0646 -15.7500 36.2003, 11.4984 -12.5000 38.3542, 11.2005 -9.2500 37.5358, 10.3868 -6.8708 35.3002, 9.2753 -6.0000 32.2462, 8.1637 -6.8708 29.1922, 7.3500 -9.2500 26.9565, 7.0521 -12.5000 26.1382, 7.3500 -15.7500 26.9565, 8.1637 -18.1292 29.1922, 9.2753 -19.0000 32.2462, 10.3868 -18.1292 35.3002, 11.2005 -15.7500 37.5358, 8.2993 -12.5000 39.2113, 8.1481 -9.2500 38.3537, 7.7350 -6.8708 36.0107, 7.1706 -6.0000 32.8101, 6.6062 -6.8708 29.6095, 6.1931 -9.2500 27.2665, 6.0419 -12.5000 26.4088, 6.1931 -15.7500 27.2665, 6.6062 -18.1292 29.6095, 7.1706 -19.0000 32.8101, 7.7350 -18.1292 36.0107, 8.1481 -15.7500 38.3537, 5.0000 -12.5000 39.5000, 5.0000 -9.2500 38.6292, 5.0000 -6.8708 36.2500, 5.0000 -6.0000 33.0000, 5.0000 -6.8708 29.7500, 5.0000 -9.2500 27.3708, 5.0000 -12.5000 26.5000, 5.0000 -15.7500 27.3708, 5.0000 -18.1292 29.7500, 5.0000 -19.0000 33.0000, 5.0000 -18.1292 36.2500, 5.0000 -15.7500 38.6292, 1.7007 -12.5000 39.2113, 1.8519 -9.2500 38.3537, 2.2650 -6.8708 36.0107, 2.8294 -6.0000 32.8101, 3.3938 -6.8708 29.6095, 3.8069 -9.2500 27.2665, 3.9581 -12.5000 26.4088, 3.8069 -15.7500 27.2665, 3.3938 -18.1292 29.6095, 2.8294 -19.0000 32.8101, 2.2650 -18.1292 36.0107, 1.8519 -15.7500 38.3537, -1.4984 -12.5000 38.3542, -1.2005 -9.2500 37.5358, -0.3868 -6.8708 35.3002, 0.7247 -6.0000 32.2462, 1.8363 -6.8708 29.1922, 2.6500 -9.2500 26.9565, 2.9479 -12.5000 26.1382, 2.6500 -15.7500 26.9565, 1.8363 -18.1292 29.1922, 0.7247 -19.0000 32.2462, -0.3868 -18.1292 35.3002, -1.2005 -15.7500 37.5358, -4.5000 -12.5000 36.9545, -4.0646 -9.2500 36.2003, -2.8750 -6.8708 34.1399, -1.2500 -6.0000 31.3253, 0.3750 -6.8708 28.5107, 1.5646 -9.2500 26.4503, 2.0000 -12.5000 25.6962, 1.5646 -15.7500 26.4503, 0.3750 -18.1292 28.5107, -1.2500 -19.0000 31.3253, -2.8750 -18.1292 34.1399, -4.0646 -15.7500 36.2003, -7.2130 -12.5000 35.0548, -6.6532 -9.2500 34.3877, -5.1239 -6.8708 32.5652, -3.0348 -6.0000 30.0756, -0.9458 -6.8708 27.5859, 0.5835 -9.2500 25.7634, 1.1433 -12.5000 25.0963, 0.5835 -15.7500 25.7634, -0.9458 -18.1292 27.5859, -3.0348 -19.0000 30.0756, -5.1239 -18.1292 32.5652, -6.6532 -15.7500 34.3877, -9.5548 -12.5000 32.7130, -8.8877 -9.2500 32.1532, -7.0652 -6.8708 30.6239, -4.5756 -6.0000 28.5348, -2.0859 -6.8708 26.4458, -0.2634 -9.2500 24.9165, 0.4037 -12.5000 24.3567, -0.2634 -15.7500 24.9165, -2.0859 -18.1292 26.4458, -4.5756 -19.0000 28.5348, -7.0652 -18.1292 30.6239, -8.8877 -15.7500 32.1532, -11.4545 -12.5000 30.0000, -10.7003 -9.2500 29.5646, -8.6399 -6.8708 28.3750, -5.8253 -6.0000 26.7500, -3.0107 -6.8708 25.1250, -0.9503 -9.2500 23.9354, -0.1962 -12.5000 23.5000, -0.9503 -15.7500 23.9354, -3.0107 -18.1292 25.1250, -5.8253 -19.0000 26.7500, -8.6399 -18.1292 28.3750, -10.7003 -15.7500 29.5646, -12.8542 -12.5000 26.9984, -12.0358 -9.2500 26.7005, -9.8002 -6.8708 25.8868, -6.7462 -6.0000 24.7753, -3.6922 -6.8708 23.6637, -1.4565 -9.2500 22.8500, -0.6382 -12.5000 22.5521, -1.4565 -15.7500 22.8500, -3.6922 -18.1292 23.6637, -6.7462 -19.0000 24.7753, -9.8002 -18.1292 25.8868, -12.0358 -15.7500 26.7005, -13.7113 -12.5000 23.7993, -12.8537 -9.2500 23.6481, -10.5107 -6.8708 23.2350, -7.3101 -6.0000 22.6706, -4.1095 -6.8708 22.1062, -1.7665 -9.2500 21.6931, -0.9088 -12.5000 21.5419, -1.7665 -15.7500 21.6931, -4.1095 -18.1292 22.1062, -7.3101 -19.0000 22.6706, -10.5107 -18.1292 23.2350, -12.8537 -15.7500 23.6481, -14.0000 -12.5000 20.5000, -13.1292 -9.2500 20.5000, -10.7500 -6.8708 20.5000, -7.5000 -6.0000 20.5000, -4.2500 -6.8708 20.5000, -1.8708 -9.2500 20.5000, -1.0000 -12.5000 20.5000, -1.8708 -15.7500 20.5000, -4.2500 -18.1292 20.5000, -7.5000 -19.0000 20.5000, -10.7500 -18.1292 20.5000, -13.1292 -15.7500 20.5000, -13.7113 -12.5000 17.2007, -12.8537 -9.2500 17.3519, -10.5107 -6.8708 17.7650, -7.3101 -6.0000 18.3294, -4.1095 -6.8708 18.8938, -1.7665 -9.2500 19.3069, -0.9088 -12.5000 19.4581, -1.7665 -15.7500 19.3069, -4.1095 -18.1292 18.8938, -7.3101 -19.0000 18.3294, -10.5107 -18.1292 17.7650, -12.8537 -15.7500 17.3519, -12.8542 -12.5000 14.0016, -12.0358 -9.2500 14.2995, -9.8002 -6.8708 15.1132, -6.7462 -6.0000 16.2247, -3.6922 -6.8708 17.3363, -1.4565 -9.2500 18.1500, -0.6382 -12.5000 18.4479, -1.4565 -15.7500 18.1500, -3.6922 -18.1292 17.3363, -6.7462 -19.0000 16.2247, -9.8002 -18.1292 15.1132, -12.0358 -15.7500 14.2995, -11.4545 -12.5000 11.0000, -10.7003 -9.2500 11.4354, -8.6399 -6.8708 12.6250, -5.8253 -6.0000 14.2500, -3.0107 -6.8708 15.8750, -0.9503 -9.2500 17.0646, -0.1962 -12.5000 17.5000, -0.9503 -15.7500 17.0646, -3.0107 -18.1292 15.8750, -5.8253 -19.0000 14.2500, -8.6399 -18.1292 12.6250, -10.7003 -15.7500 11.4354, -9.5548 -12.5000 8.2870, -8.8877 -9.2500 8.8468, -7.0652 -6.8708 10.3761, -4.5756 -6.0000 12.4652, -2.0859 -6.8708 14.5542, -0.2634 -9.2500 16.0835, 0.4037 -12.5000 16.6433, -0.2634 -15.7500 16.0835, -2.0859 -18.1292 14.5542, -4.5756 -19.0000 12.4652, -7.0652 -18.1292 10.3761, -8.8877 -15.7500 8.8468, -7.2130 -12.5000 5.9452, -6.6532 -9.2500 6.6123, -5.1239 -6.8708 8.4348, -3.0348 -6.0000 10.9244, -0.9458 -6.8708 13.4141, 0.5835 -9.2500 15.2366, 1.1433 -12.5000 15.9037, 0.5835 -15.7500 15.2366, -0.9458 -18.1292 13.4141, -3.0348 -19.0000 10.9244, -5.1239 -18.1292 8.4348, -6.6532 -15.7500 6.6123, -4.5000 -12.5000 4.0455, -4.0646 -9.2500 4.7997, -2.8750 -6.8708 6.8601, -1.2500 -6.0000 9.6747, 0.3750 -6.8708 12.4893, 1.5646 -9.2500 14.5497, 2.0000 -12.5000 15.3038, 1.5646 -15.7500 14.5497, 0.3750 -18.1292 12.4893, -1.2500 -19.0000 9.6747, -2.8750 -18.1292 6.8601, -4.0646 -15.7500 4.7997, -1.4984 -12.5000 2.6458, -1.2005 -9.2500 3.4642, -0.3868 -6.8708 5.6998, 0.7247 -6.0000 8.7538, 1.8363 -6.8708 11.8078, 2.6500 -9.2500 14.0435, 2.9479 -12.5000 14.8618, 2.6500 -15.7500 14.0435, 1.8363 -18.1292 11.8078, 0.7247 -19.0000 8.7538, -0.3868 -18.1292 5.6998, -1.2005 -15.7500 3.4642, 1.7007 -12.5000 1.7887, 1.8519 -9.2500 2.6463, 2.2650 -6.8708 4.9893, 2.8294 -6.0000 8.1899, 3.3938 -6.8708 11.3905, 3.8069 -9.2500 13.7335, 3.9581 -12.5000 14.5912, 3.8069 -15.7500 13.7335, 3.3938 -18.1292 11.3905, 2.8294 -19.0000 8.1899, 2.2650 -18.1292 4.9893, 1.8519 -15.7500 2.6463, 5.0000 -12.5000 1.5000, 5.0000 -9.2500 2.3708, 5.0000 -6.8708 4.7500, 5.0000 -6.0000 8.0000, 5.0000 -6.8708 11.2500, 5.0000 -9.2500 13.6292, 5.0000 -12.5000 14.5000, 5.0000 -15.7500 13.6292, 5.0000 -18.1292 11.2500, 5.0000 -19.0000 8.0000, 5.0000 -18.1292 4.7500, 5.0000 -15.7500 2.3708, 8.2993 -12.5000 1.7887, 8.1481 -9.2500 2.6463, 7.7350 -6.8708 4.9893, 7.1706 -6.0000 8.1899, 6.6062 -6.8708 11.3905, 6.1931 -9.2500 13.7335, 6.0419 -12.5000 14.5912, 6.1931 -15.7500 13.7335, 6.6062 -18.1292 11.3905, 7.1706 -19.0000 8.1899, 7.7350 -18.1292 4.9893, 8.1481 -15.7500 2.6463, 11.4984 -12.5000 2.6458, 11.2005 -9.2500 3.4642, 10.3868 -6.8708 5.6998, 9.2753 -6.0000 8.7538, 8.1637 -6.8708 11.8078, 7.3500 -9.2500 14.0435, 7.0521 -12.5000 14.8618, 7.3500 -15.7500 14.0435, 8.1637 -18.1292 11.8078, 9.2753 -19.0000 8.7538, 10.3868 -18.1292 5.6998, 11.2005 -15.7500 3.4642, 14.5000 -12.5000 4.0455, 14.0646 -9.2500 4.7997, 12.8750 -6.8708 6.8601, 11.2500 -6.0000 9.6747, 9.6250 -6.8708 12.4893, 8.4354 -9.2500 14.5497, 8.0000 -12.5000 15.3038, 8.4354 -15.7500 14.5497, 9.6250 -18.1292 12.4893, 11.2500 -19.0000 9.6747, 12.8750 -18.1292 6.8601, 14.0646 -15.7500 4.7997, 17.2130 -12.5000 5.9452, 16.6532 -9.2500 6.6123, 15.1239 -6.8708 8.4348, 13.0348 -6.0000 10.9244, 10.9458 -6.8708 13.4141, 9.4165 -9.2500 15.2366, 8.8567 -12.5000 15.9037, 9.4165 -15.7500 15.2366, 10.9458 -18.1292 13.4141, 13.0348 -19.0000 10.9244, 15.1239 -18.1292 8.4348, 16.6532 -15.7500 6.6123, 19.5548 -12.5000 8.2870, 18.8877 -9.2500 8.8468, 17.0652 -6.8708 10.3761, 14.5756 -6.0000 12.4652, 12.0859 -6.8708 14.5542, 10.2634 -9.2500 16.0835, 9.5963 -12.5000 16.6433, 10.2634 -15.7500 16.0835, 12.0859 -18.1292 14.5542, 14.5756 -19.0000 12.4652, 17.0652 -18.1292 10.3761, 18.8877 -15.7500 8.8468, 21.4545 -12.5000 11.0000, 20.7003 -9.2500 11.4354, 18.6399 -6.8708 12.6250, 15.8253 -6.0000 14.2500, 13.0107 -6.8708 15.8750, 10.9503 -9.2500 17.0646, 10.1962 -12.5000 17.5000, 10.9503 -15.7500 17.0646, 13.0107 -18.1292 15.8750, 15.8253 -19.0000 14.2500, 18.6399 -18.1292 12.6250, 20.7003 -15.7500 11.4354, 22.8542 -12.5000 14.0016, 22.0358 -9.2500 14.2995, 19.8002 -6.8708 15.1132, 16.7462 -6.0000 16.2247, 13.6922 -6.8708 17.3363, 11.4565 -9.2500 18.1500, 10.6382 -12.5000 18.4479, 11.4565 -15.7500 18.1500, 13.6922 -18.1292 17.3363, 16.7462 -19.0000 16.2247, 19.8002 -18.1292 15.1132, 22.0358 -15.7500 14.2995, 23.7113 -12.5000 17.2007, 22.8537 -9.2500 17.3519, 20.5107 -6.8708 17.7650, 17.3101 -6.0000 18.3294, 14.1095 -6.8708 18.8938, 11.7665 -9.2500 19.3069, 10.9088 -12.5000 19.4581, 11.7665 -15.7500 19.3069, 14.1095 -18.1292 18.8938, 17.3101 -19.0000 18.3294, 20.5107 -18.1292 17.7650, 22.8537 -15.7500 17.3519, 24.0000 -12.5000 20.5000, 23.1292 -9.2500 20.5000, 20.7500 -6.8708 20.5000, 17.5000 -6.0000 20.5000, 14.2500 -6.8708 20.5000, 11.8708 -9.2500 20.5000, 11.0000 -12.5000 20.5000, 11.8708 -15.7500 20.5000, 14.2500 -18.1292 20.5000, 17.5000 -19.0000 20.5000, 20.7500 -18.1292 20.5000, 23.1292 -15.7500 20.5000 ] } coordIndex [ 0, 12, 13, 1, -1, 1, 13, 14, 2, -1, 2, 14, 15, 3, -1, 3, 15, 16, 4, -1, 4, 16, 17, 5, -1, 5, 17, 18, 6, -1, 6, 18, 19, 7, -1, 7, 19, 20, 8, -1, 8, 20, 21, 9, -1, 9, 21, 22, 10, -1, 10, 22, 23, 11, -1, 11, 23, 12, 0, -1, 12, 24, 25, 13, -1, 13, 25, 26, 14, -1, 14, 26, 27, 15, -1, 15, 27, 28, 16, -1, 16, 28, 29, 17, -1, 17, 29, 30, 18, -1, 18, 30, 31, 19, -1, 19, 31, 32, 20, -1, 20, 32, 33, 21, -1, 21, 33, 34, 22, -1, 22, 34, 35, 23, -1, 23, 35, 24, 12, -1, 24, 36, 37, 25, -1, 25, 37, 38, 26, -1, 26, 38, 39, 27, -1, 27, 39, 40, 28, -1, 28, 40, 41, 29, -1, 29, 41, 42, 30, -1, 30, 42, 43, 31, -1, 31, 43, 44, 32, -1, 32, 44, 45, 33, -1, 33, 45, 46, 34, -1, 34, 46, 47, 35, -1, 35, 47, 36, 24, -1, 36, 48, 49, 37, -1, 37, 49, 50, 38, -1, 38, 50, 51, 39, -1, 39, 51, 52, 40, -1, 40, 52, 53, 41, -1, 41, 53, 54, 42, -1, 42, 54, 55, 43, -1, 43, 55, 56, 44, -1, 44, 56, 57, 45, -1, 45, 57, 58, 46, -1, 46, 58, 59, 47, -1, 47, 59, 48, 36, -1, 48, 60, 61, 49, -1, 49, 61, 62, 50, -1, 50, 62, 63, 51, -1, 51, 63, 64, 52, -1, 52, 64, 65, 53, -1, 53, 65, 66, 54, -1, 54, 66, 67, 55, -1, 55, 67, 68, 56, -1, 56, 68, 69, 57, -1, 57, 69, 70, 58, -1, 58, 70, 71, 59, -1, 59, 71, 60, 48, -1, 60, 72, 73, 61, -1, 61, 73, 74, 62, -1, 62, 74, 75, 63, -1, 63, 75, 76, 64, -1, 64, 76, 77, 65, -1, 65, 77, 78, 66, -1, 66, 78, 79, 67, -1, 67, 79, 80, 68, -1, 68, 80, 81, 69, -1, 69, 81, 82, 70, -1, 70, 82, 83, 71, -1, 71, 83, 72, 60, -1, 72, 84, 85, 73, -1, 73, 85, 86, 74, -1, 74, 86, 87, 75, -1, 75, 87, 88, 76, -1, 76, 88, 89, 77, -1, 77, 89, 90, 78, -1, 78, 90, 91, 79, -1, 79, 91, 92, 80, -1, 80, 92, 93, 81, -1, 81, 93, 94, 82, -1, 82, 94, 95, 83, -1, 83, 95, 84, 72, -1, 84, 96, 97, 85, -1, 85, 97, 98, 86, -1, 86, 98, 99, 87, -1, 87, 99, 100, 88, -1, 88, 100, 101, 89, -1, 89, 101, 102, 90, -1, 90, 102, 103, 91, -1, 91, 103, 104, 92, -1, 92, 104, 105, 93, -1, 93, 105, 106, 94, -1, 94, 106, 107, 95, -1, 95, 107, 96, 84, -1, 96, 108, 109, 97, -1, 97, 109, 110, 98, -1, 98, 110, 111, 99, -1, 99, 111, 112, 100, -1, 100, 112, 113, 101, -1, 101, 113, 114, 102, -1, 102, 114, 115, 103, -1, 103, 115, 116, 104, -1, 104, 116, 117, 105, -1, 105, 117, 118, 106, -1, 106, 118, 119, 107, -1, 107, 119, 108, 96, -1, 108, 120, 121, 109, -1, 109, 121, 122, 110, -1, 110, 122, 123, 111, -1, 111, 123, 124, 112, -1, 112, 124, 125, 113, -1, 113, 125, 126, 114, -1, 114, 126, 127, 115, -1, 115, 127, 128, 116, -1, 116, 128, 129, 117, -1, 117, 129, 130, 118, -1, 118, 130, 131, 119, -1, 119, 131, 120, 108, -1, 120, 132, 133, 121, -1, 121, 133, 134, 122, -1, 122, 134, 135, 123, -1, 123, 135, 136, 124, -1, 124, 136, 137, 125, -1, 125, 137, 138, 126, -1, 126, 138, 139, 127, -1, 127, 139, 140, 128, -1, 128, 140, 141, 129, -1, 129, 141, 142, 130, -1, 130, 142, 143, 131, -1, 131, 143, 132, 120, -1, 132, 144, 145, 133, -1, 133, 145, 146, 134, -1, 134, 146, 147, 135, -1, 135, 147, 148, 136, -1, 136, 148, 149, 137, -1, 137, 149, 150, 138, -1, 138, 150, 151, 139, -1, 139, 151, 152, 140, -1, 140, 152, 153, 141, -1, 141, 153, 154, 142, -1, 142, 154, 155, 143, -1, 143, 155, 144, 132, -1, 144, 156, 157, 145, -1, 145, 157, 158, 146, -1, 146, 158, 159, 147, -1, 147, 159, 160, 148, -1, 148, 160, 161, 149, -1, 149, 161, 162, 150, -1, 150, 162, 163, 151, -1, 151, 163, 164, 152, -1, 152, 164, 165, 153, -1, 153, 165, 166, 154, -1, 154, 166, 167, 155, -1, 155, 167, 156, 144, -1, 156, 168, 169, 157, -1, 157, 169, 170, 158, -1, 158, 170, 171, 159, -1, 159, 171, 172, 160, -1, 160, 172, 173, 161, -1, 161, 173, 174, 162, -1, 162, 174, 175, 163, -1, 163, 175, 176, 164, -1, 164, 176, 177, 165, -1, 165, 177, 178, 166, -1, 166, 178, 179, 167, -1, 167, 179, 168, 156, -1, 168, 180, 181, 169, -1, 169, 181, 182, 170, -1, 170, 182, 183, 171, -1, 171, 183, 184, 172, -1, 172, 184, 185, 173, -1, 173, 185, 186, 174, -1, 174, 186, 187, 175, -1, 175, 187, 188, 176, -1, 176, 188, 189, 177, -1, 177, 189, 190, 178, -1, 178, 190, 191, 179, -1, 179, 191, 180, 168, -1, 180, 192, 193, 181, -1, 181, 193, 194, 182, -1, 182, 194, 195, 183, -1, 183, 195, 196, 184, -1, 184, 196, 197, 185, -1, 185, 197, 198, 186, -1, 186, 198, 199, 187, -1, 187, 199, 200, 188, -1, 188, 200, 201, 189, -1, 189, 201, 202, 190, -1, 190, 202, 203, 191, -1, 191, 203, 192, 180, -1, 192, 204, 205, 193, -1, 193, 205, 206, 194, -1, 194, 206, 207, 195, -1, 195, 207, 208, 196, -1, 196, 208, 209, 197, -1, 197, 209, 210, 198, -1, 198, 210, 211, 199, -1, 199, 211, 212, 200, -1, 200, 212, 213, 201, -1, 201, 213, 214, 202, -1, 202, 214, 215, 203, -1, 203, 215, 204, 192, -1, 204, 216, 217, 205, -1, 205, 217, 218, 206, -1, 206, 218, 219, 207, -1, 207, 219, 220, 208, -1, 208, 220, 221, 209, -1, 209, 221, 222, 210, -1, 210, 222, 223, 211, -1, 211, 223, 224, 212, -1, 212, 224, 225, 213, -1, 213, 225, 226, 214, -1, 214, 226, 227, 215, -1, 215, 227, 216, 204, -1, 216, 228, 229, 217, -1, 217, 229, 230, 218, -1, 218, 230, 231, 219, -1, 219, 231, 232, 220, -1, 220, 232, 233, 221, -1, 221, 233, 234, 222, -1, 222, 234, 235, 223, -1, 223, 235, 236, 224, -1, 224, 236, 237, 225, -1, 225, 237, 238, 226, -1, 226, 238, 239, 227, -1, 227, 239, 228, 216, -1, 228, 240, 241, 229, -1, 229, 241, 242, 230, -1, 230, 242, 243, 231, -1, 231, 243, 244, 232, -1, 232, 244, 245, 233, -1, 233, 245, 246, 234, -1, 234, 246, 247, 235, -1, 235, 247, 248, 236, -1, 236, 248, 249, 237, -1, 237, 249, 250, 238, -1, 238, 250, 251, 239, -1, 239, 251, 240, 228, -1, 240, 252, 253, 241, -1, 241, 253, 254, 242, -1, 242, 254, 255, 243, -1, 243, 255, 256, 244, -1, 244, 256, 257, 245, -1, 245, 257, 258, 246, -1, 246, 258, 259, 247, -1, 247, 259, 260, 248, -1, 248, 260, 261, 249, -1, 249, 261, 262, 250, -1, 250, 262, 263, 251, -1, 251, 263, 252, 240, -1, 252, 264, 265, 253, -1, 253, 265, 266, 254, -1, 254, 266, 267, 255, -1, 255, 267, 268, 256, -1, 256, 268, 269, 257, -1, 257, 269, 270, 258, -1, 258, 270, 271, 259, -1, 259, 271, 272, 260, -1, 260, 272, 273, 261, -1, 261, 273, 274, 262, -1, 262, 274, 275, 263, -1, 263, 275, 264, 252, -1, 264, 276, 277, 265, -1, 265, 277, 278, 266, -1, 266, 278, 279, 267, -1, 267, 279, 280, 268, -1, 268, 280, 281, 269, -1, 269, 281, 282, 270, -1, 270, 282, 283, 271, -1, 271, 283, 284, 272, -1, 272, 284, 285, 273, -1, 273, 285, 286, 274, -1, 274, 286, 287, 275, -1, 275, 287, 276, 264, -1, 276, 288, 289, 277, -1, 277, 289, 290, 278, -1, 278, 290, 291, 279, -1, 279, 291, 292, 280, -1, 280, 292, 293, 281, -1, 281, 293, 294, 282, -1, 282, 294, 295, 283, -1, 283, 295, 296, 284, -1, 284, 296, 297, 285, -1, 285, 297, 298, 286, -1, 286, 298, 299, 287, -1, 287, 299, 288, 276, -1, 288, 300, 301, 289, -1, 289, 301, 302, 290, -1, 290, 302, 303, 291, -1, 291, 303, 304, 292, -1, 292, 304, 305, 293, -1, 293, 305, 306, 294, -1, 294, 306, 307, 295, -1, 295, 307, 308, 296, -1, 296, 308, 309, 297, -1, 297, 309, 310, 298, -1, 298, 310, 311, 299, -1, 299, 311, 300, 288, -1, 300, 312, 313, 301, -1, 301, 313, 314, 302, -1, 302, 314, 315, 303, -1, 303, 315, 316, 304, -1, 304, 316, 317, 305, -1, 305, 317, 318, 306, -1, 306, 318, 319, 307, -1, 307, 319, 320, 308, -1, 308, 320, 321, 309, -1, 309, 321, 322, 310, -1, 310, 322, 323, 311, -1, 311, 323, 312, 300, -1, 312, 324, 325, 313, -1, 313, 325, 326, 314, -1, 314, 326, 327, 315, -1, 315, 327, 328, 316, -1, 316, 328, 329, 317, -1, 317, 329, 330, 318, -1, 318, 330, 331, 319, -1, 319, 331, 332, 320, -1, 320, 332, 333, 321, -1, 321, 333, 334, 322, -1, 322, 334, 335, 323, -1, 323, 335, 324, 312, -1, 324, 336, 337, 325, -1, 325, 337, 338, 326, -1, 326, 338, 339, 327, -1, 327, 339, 340, 328, -1, 328, 340, 341, 329, -1, 329, 341, 342, 330, -1, 330, 342, 343, 331, -1, 331, 343, 344, 332, -1, 332, 344, 345, 333, -1, 333, 345, 346, 334, -1, 334, 346, 347, 335, -1, 335, 347, 336, 324, -1, 336, 348, 349, 337, -1, 337, 349, 350, 338, -1, 338, 350, 351, 339, -1, 339, 351, 352, 340, -1, 340, 352, 353, 341, -1, 341, 353, 354, 342, -1, 342, 354, 355, 343, -1, 343, 355, 356, 344, -1, 344, 356, 357, 345, -1, 345, 357, 358, 346, -1, 346, 358, 359, 347, -1, 347, 359, 348, 336, -1, 348, 360, 361, 349, -1, 349, 361, 362, 350, -1, 350, 362, 363, 351, -1, 351, 363, 364, 352, -1, 352, 364, 365, 353, -1, 353, 365, 366, 354, -1, 354, 366, 367, 355, -1, 355, 367, 368, 356, -1, 356, 368, 369, 357, -1, 357, 369, 370, 358, -1, 358, 370, 371, 359, -1, 359, 371, 360, 348, -1, 360, 372, 373, 361, -1, 361, 373, 374, 362, -1, 362, 374, 375, 363, -1, 363, 375, 376, 364, -1, 364, 376, 377, 365, -1, 365, 377, 378, 366, -1, 366, 378, 379, 367, -1, 367, 379, 380, 368, -1, 368, 380, 381, 369, -1, 369, 381, 382, 370, -1, 370, 382, 383, 371, -1, 371, 383, 372, 360, -1, 372, 384, 385, 373, -1, 373, 385, 386, 374, -1, 374, 386, 387, 375, -1, 375, 387, 388, 376, -1, 376, 388, 389, 377, -1, 377, 389, 390, 378, -1, 378, 390, 391, 379, -1, 379, 391, 392, 380, -1, 380, 392, 393, 381, -1, 381, 393, 394, 382, -1, 382, 394, 395, 383, -1, 383, 395, 384, 372, -1, 384, 396, 397, 385, -1, 385, 397, 398, 386, -1, 386, 398, 399, 387, -1, 387, 399, 400, 388, -1, 388, 400, 401, 389, -1, 389, 401, 402, 390, -1, 390, 402, 403, 391, -1, 391, 403, 404, 392, -1, 392, 404, 405, 393, -1, 393, 405, 406, 394, -1, 394, 406, 407, 395, -1, 395, 407, 396, 384, -1, 396, 408, 409, 397, -1, 397, 409, 410, 398, -1, 398, 410, 411, 399, -1, 399, 411, 412, 400, -1, 400, 412, 413, 401, -1, 401, 413, 414, 402, -1, 402, 414, 415, 403, -1, 403, 415, 416, 404, -1, 404, 416, 417, 405, -1, 405, 417, 418, 406, -1, 406, 418, 419, 407, -1, 407, 419, 408, 396, -1, 408, 420, 421, 409, -1, 409, 421, 422, 410, -1, 410, 422, 423, 411, -1, 411, 423, 424, 412, -1, 412, 424, 425, 413, -1, 413, 425, 426, 414, -1, 414, 426, 427, 415, -1, 415, 427, 428, 416, -1, 416, 428, 429, 417, -1, 417, 429, 430, 418, -1, 418, 430, 431, 419, -1, 419, 431, 420, 408, -1, 420, 432, 433, 421, -1, 421, 433, 434, 422, -1, 422, 434, 435, 423, -1, 423, 435, 436, 424, -1, 424, 436, 437, 425, -1, 425, 437, 438, 426, -1, 426, 438, 439, 427, -1, 427, 439, 440, 428, -1, 428, 440, 441, 429, -1, 429, 441, 442, 430, -1, 430, 442, 443, 431, -1, 431, 443, 432, 420, -1 ] } }
Shape { appearance Appearance { material Material { diffuseColor 0.64 0.34 0.09 } } geometry IndexedFaceSet { solid FALSE coord Coordinate { point [ 23.8938 -12.5000 25.3244, 22.9851 -9.0000 25.0924, 20.5026 -6.4378 24.4585, 17.1114 -5.5000 23.5925, 13.7202 -6.4378 22.7266, 11.2377 -9.0000 22.0927, 10.3290 -12.5000 21.8607, 11.2377 -16.0000 22.0927, 13.7202 -18.5622 22.7266, 17.1114 -19.5000 23.5925, 20.5026 -18.5622 24.4585, 22.9851 -16.0000 25.0924, 23.0396 -12.5000 27.9042, 22.1720 -9.0000 27.5481, 19.8017 -6.4378 26.5752, 16.5639 -5.5000 25.2463, 13.3260 -6.4378 23.9173, 10.9557 -9.0000 22.9445, 10.0881 -12.5000 22.5884, 10.9557 -16.0000 22.9445, 13.3260 -18.5622 23.9173, 16.5639 -19.5000 25.2463, 19.8017 -18.5622 26.5752, 22.1720 -16.0000 27.5481, 21.8351 -12.5000 30.3402, 21.0254 -9.0000 29.8669, 18.8134 -6.4378 28.5740, 15.7917 -5.5000 26.8078, 12.7700 -6.4378 25.0416, 10.5580 -9.0000 23.7487, 9.7484 -12.5000 23.2754, 10.5580 -16.0000 23.7487, 12.7700 -18.5622 25.0416, 15.7917 -19.5000 26.8078, 18.8134 -18.5622 28.5740, 21.0254 -16.0000 29.8669, 20.3036 -12.5000 32.5851, 19.5676 -9.0000 32.0039, 17.5568 -6.4378 30.4160, 14.8100 -5.5000 28.2468, 12.0632 -6.4378 26.0777, 10.0524 -9.0000 24.4898, 9.3164 -12.5000 23.9086, 10.0524 -16.0000 24.4898, 12.0632 -18.5622 26.0777, 14.8100 -19.5000 28.2468, 17.5568 -18.5622 30.4160, 19.5676 -16.0000 32.0039, 18.4749 -12.5000 34.5953, 17.8269 -9.0000 33.9174, 16.0563 -6.4378 32.0653, 13.6378 -5.5000 29.5354, 11.2192 -6.4378 27.0055, 9.4487 -9.0000 25.1535, 8.8006 -12.5000 24.4756, 9.4487 -16.0000 25.1535, 11.2192 -18.5622 27.0055, 13.6378 -19.5000 29.5354, 16.0563 -18.5622 32.0653, 17.8269 -16.0000 33.9174, 16.3845 -12.5000 36.3317, 15.8370 -9.0000 35.5703, 14.3411 -6.4378 33.4901, 12.2978 -5.5000 30.6485, 10.2544 -6.4378 27.8069, 8.7585 -9.0000 25.7268, 8.2110 -12.5000 24.9654, 8.7585 -16.0000 25.7268, 10.2544 -18.5622 27.8069, 12.2978 -19.5000 30.6485, 14.3411 -18.5622 33.4901, 15.8370 -16.0000 35.5703, 14.0730 -12.5000 37.7607, 13.6367 -9.0000 36.9305, 12.4445 -6.4378 34.6626, 10.8160 -5.5000 31.5645, 9.1875 -6.4378 28.4665, 7.9954 -9.0000 26.1985, 7.5591 -12.5000 25.3684, 7.9954 -16.0000 26.1985, 9.1875 -18.5622 28.4665, 10.8160 -19.5000 31.5645, 12.4445 -18.5622 34.6626, 13.6367 -16.0000 36.9305, 11.5853 -12.5000 38.8544, 11.2686 -9.0000 37.9717, 10.4033 -6.4378 35.5600, 9.2213 -5.5000 32.2656, 8.0394 -6.4378 28.9713, 7.1741 -9.0000 26.5596, 6.8574 -12.5000 25.6769, 7.1741 -16.0000 26.5596, 8.0394 -18.5622 28.9713, 9.2213 -19.5000 32.2656, 10.4033 -18.5622 35.5600, 11.2686 -16.0000 37.9717, 8.9697 -12.5000 39.5917, 8.7788 -9.0000 38.6735, 8.2572 -6.4378 36.1650, 7.5447 -5.5000 32.7382, 6.8322 -6.4378 29.3115, 6.3106 -9.0000 26.8030, 6.1197 -12.5000 25.8848, 6.3106 -16.0000 26.8030, 6.8322 -18.5622 29.3115, 7.5447 -19.5000 32.7382, 8.2572 -18.5622 36.1650, 8.7788 -16.0000 38.6735, 6.2770 -12.5000 39.9581, 6.2156 -9.0000 39.0223, 6.0478 -6.4378 36.4657, 5.8186 -5.5000 32.9732, 5.5894 -6.4378 29.4807, 5.4216 -9.0000 26.9240, 5.3602 -12.5000 25.9882, 5.4216 -16.0000 26.9240, 5.5894 -18.5622 29.4807, 5.8186 -19.5000 32.9732, 6.0478 -18.5622 36.4657, 6.2156 -16.0000 39.0223, 3.5595 -12.5000 39.9467, 3.6288 -9.0000 39.0115, 3.8180 -6.4378 36.4563, 4.0766 -5.5000 32.9658, 4.3351 -6.4378 29.4754, 4.5244 -9.0000 26.9202, 4.5937 -12.5000 25.9850, 4.5244 -16.0000 26.9202, 4.3351 -18.5622 29.4754, 4.0766 -19.5000 32.9658, 3.8180 -18.5622 36.4563, 3.6288 -16.0000 39.0115, 0.8699 -12.5000 39.5576, 1.0686 -9.0000 38.6411, 1.6112 -6.4378 36.1370, 2.3525 -5.5000 32.7164, 3.0938 -6.4378 29.2958, 3.6365 -9.0000 26.7918, 3.8351 -12.5000 25.8752, 3.6365 -16.0000 26.7918, 3.0938 -18.5622 29.2958, 2.3525 -19.5000 32.7164, 1.6112 -18.5622 36.1370, 1.0686 -16.0000 38.6411, -1.7394 -12.5000 38.7984, -1.4153 -9.0000 37.9183, -0.5297 -6.4378 35.5141, 0.6799 -5.5000 32.2297, 1.8895 -6.4378 28.9454, 2.7750 -9.0000 26.5411, 3.0991 -12.5000 25.6611, 2.7750 -16.0000 26.5411, 1.8895 -18.5622 28.9454, 0.6799 -19.5000 32.2297, -0.5297 -18.5622 35.5141, -1.4153 -16.0000 37.9183, -4.2178 -12.5000 37.6838, -3.7745 -9.0000 36.8573, -2.5633 -6.4378 34.5995, -0.9089 -5.5000 31.5152, 0.7456 -6.4378 28.4310, 1.9568 -9.0000 26.1731, 2.4001 -12.5000 25.3467, 1.9568 -16.0000 26.1731, 0.7456 -18.5622 28.4310, -0.9089 -19.5000 31.5152, -2.5633 -18.5622 34.5995, -3.7745 -16.0000 36.8573, -6.5172 -12.5000 36.2354, -5.9633 -9.0000 35.4787, -4.4500 -6.4378 33.4111, -2.3828 -5.5000 30.5868, -0.3156 -6.4378 27.7625, 1.1977 -9.0000 25.6950, 1.7516 -12.5000 24.9382, 1.1977 -16.0000 25.6950, -0.3156 -18.5622 27.7625, -2.3828 -19.5000 30.5868, -4.4500 -18.5622 33.4111, -5.9633 -16.0000 35.4787, -8.5929 -12.5000 34.4815, -7.9392 -9.0000 33.8091, -6.1532 -6.4378 31.9720, -3.7134 -5.5000 29.4625, -1.2737 -6.4378 26.9530, 0.5124 -9.0000 25.1159, 1.1661 -12.5000 24.4435, 0.5124 -16.0000 25.1159, -1.2737 -18.5622 26.9530, -3.7134 -19.5000 29.4625, -6.1532 -18.5622 31.9720, -7.9392 -16.0000 33.8091, -10.4047 -12.5000 32.4560, -9.6638 -9.0000 31.8810, -7.6397 -6.4378 30.3100, -4.8748 -5.5000 28.1641, -2.1099 -6.4378 26.0181, -0.0858 -9.0000 24.4472, 0.6551 -12.5000 23.8722, -0.0858 -16.0000 24.4472, -2.1099 -18.5622 26.0181, -4.8748 -19.5000 28.1641, -7.6397 -18.5622 30.3100, -9.6638 -16.0000 31.8810, -11.9172 -12.5000 30.1983, -11.1036 -9.0000 29.7319, -8.8808 -6.4378 28.4576, -5.8444 -5.5000 26.7169, -2.8080 -6.4378 24.9761, -0.5851 -9.0000 23.7018, 0.2285 -12.5000 23.2354, -0.5851 -16.0000 23.7018, -2.8080 -18.5622 24.9761, -5.8444 -19.5000 26.7169, -8.8808 -18.5622 28.4576, -11.1036 -16.0000 29.7319, -13.1012 -12.5000 27.7523, -12.2307 -9.0000 27.4035, -9.8523 -6.4378 26.4506, -6.6034 -5.5000 25.1489, -3.3544 -6.4378 23.8472, -0.9760 -9.0000 22.8943, -0.1055 -12.5000 22.5455, -0.9760 -16.0000 22.8943, -3.3544 -18.5622 23.8472, -6.6034 -19.5000 25.1489, -9.8523 -18.5622 26.4506, -12.2307 -16.0000 27.4035, -13.9337 -12.5000 25.1654, -13.0231 -9.0000 24.9410, -10.5353 -6.4378 24.3280, -7.1370 -5.5000 23.4906, -3.7386 -6.4378 22.6532, -1.2509 -9.0000 22.0402, -0.3403 -12.5000 21.8159, -1.2509 -16.0000 22.0402, -3.7386 -18.5622 22.6532, -7.1370 -19.5000 23.4906, -10.5353 -18.5622 24.3280, -13.0231 -16.0000 24.9410 ] } coordIndex [ 0, 12, 13, 1, -1, 1, 13, 14, 2, -1, 2, 14, 15, 3, -1, 3, 15, 16, 4, -1, 4, 16, 17, 5, -1, 5, 17, 18, 6, -1, 6, 18, 19, 7, -1, 7, 19, 20, 8, -1, 8, 20, 21, 9, -1, 9, 21, 22, 10, -1, 10, 22, 23, 11, -1, 11, 23, 12, 0, -1, 12, 24, 25, 13, -1, 13, 25, 26, 14, -1, 14, 26, 27, 15, -1, 15, 27, 28, 16, -1, 16, 28, 29, 17, -1, 17, 29, 30, 18, -1, 18, 30, 31, 19, -1, 19, 31, 32, 20, -1, 20, 32, 33, 21, -1, 21, 33, 34, 22, -1, 22, 34, 35, 23, -1, 23, 35, 24, 12, -1, 24, 36, 37, 25, -1, 25, 37, 38, 26, -1, 26, 38, 39, 27, -1, 27, 39, 40, 28, -1, 28, 40, 41, 29, -1, 29, 41, 42, 30, -1, 30, 42, 43, 31, -1, 31, 43, 44, 32, -1, 32, 44, 45, 33, -1, 33, 45, 46, 34, -1, 34, 46, 47, 35, -1, 35, 47, 36, 24, -1, 36, 48, 49, 37, -1, 37, 49, 50, 38, -1, 38, 50, 51, 39, -1, 39, 51, 52, 40, -1, 40, 52, 53, 41, -1, 41, 53, 54, 42, -1, 42, 54, 55, 43, -1, 43, 55, 56, 44, -1, 44, 56, 57, 45, -1, 45, 57, 58, 46, -1, 46, 58, 59, 47, -1, 47, 59, 48, 36, -1, 48, 60, 61, 49, -1, 49, 61, 62, 50, -1, 50, 62, 63, 51, -1, 51, 63, 64, 52, -1, 52, 64, 65, 53, -1, 53, 65, 66, 54, -1, 54, 66, 67, 55, -1, 55, 67, 68, 56, -1, 56, 68, 69, 57, -1, 57, 69, 70, 58, -1, 58, 70, 71, 59, -1, 59, 71, 60, 48, -1, 60, 72, 73, 61, -1, 61, 73, 74, 62, -1, 62, 74, 75, 63, -1, 63, 75, 76, 64, -1, 64, 76, 77, 65, -1, 65, 77, 78, 66, -1, 66, 78, 79, 67, -1, 67, 79, 80, 68, -1, 68, 80, 81, 69, -1, 69, 81, 82, 70, -1, 70, 82, 83, 71, -1, 71, 83, 72, 60, -1, 72, 84, 85, 73, -1, 73, 85, 86, 74, -1, 74, 86, 87, 75, -1, 75, 87, 88, 76, -1, 76, 88, 89, 77, -1, 77, 89, 90, 78, -1, 78, 90, 91, 79, -1, 79, 91, 92, 80, -1, 80, 92, 93, 81, -1, 81, 93, 94, 82, -1, 82, 94, 95, 83, -1, 83, 95, 84, 72, -1, 84, 96, 97, 85, -1, 85, 97, 98, 86, -1, 86, 98, 99, 87, -1, 87, 99, 100, 88, -1, 88, 100, 101, 89, -1, 89, 101, 102, 90, -1, 90, 102, 103, 91, -1, 91, 103, 104, 92, -1, 92, 104, 105, 93, -1, 93, 105, 106, 94, -1, 94, 106, 107, 95, -1, 95, 107, 96, 84, -1, 96, 108, 109, 97, -1, 97, 109, 110, 98, -1, 98, 110, 111, 99, -1, 99, 111, 112, 100, -1, 100, 112, 113, 101, -1, 101, 113, 114, 102, -1, 102, 114, 115, 103, -1, 103, 115, 116, 104, -1, 104, 116, 117, 105, -1, 105, 117, 118, 106, -1, 106, 118, 119, 107, -1, 107, 119, 108, 96, -1, 108, 120, 121, 109, -1, 109, 121, 122, 110, -1, 110, 122, 123, 111, -1, 111, 123, 124, 112, -1, 112, 124, 125, 113, -1, 113, 125, 126, 114, -1, 114, 126, 127, 115, -1, 115, 127, 128, 116, -1, 116, 128, 129, 117, -1, 117, 129, 130, 118, -1, 118, 130, 131, 119, -1, 119, 131, 120, 108, -1, 120, 132, 133, 121, -1, 121, 133, 134, 122, -1, 122, 134, 135, 123, -1, 123, 135, 136, 124, -1, 124, 136, 137, 125, -1, 125, 137, 138, 126, -1, 126, 138, 139, 127, -1, 127, 139, 140, 128, -1, 128, 140, 141, 129, -1, 129, 141, 142, 130, -1, 130, 142, 143, 131, -1, 131, 143, 132, 120, -1, 132, 144, 145, 133, -1, 133, 145, 146, 134, -1, 134, 146, 147, 135, -1, 135, 147, 148, 136, -1, 136, 148, 149, 137, -1, 137, 149, 150, 138, -1, 138, 150, 151, 139, -1, 139, 151, 152, 140, -1, 140, 152, 153, 141, -1, 141, 153, 154, 142, -1, 142, 154, 155, 143, -1, 143, 155, 144, 132, -1, 144, 156, 157, 145, -1, 145, 157, 158, 146, -1, 146, 158, 159, 147, -1, 147, 159, 160, 148, -1, 148, 160, 161, 149, -1, 149, 161, 162, 150, -1, 150, 162, 163, 151, -1, 151, 163, 164, 152, -1, 152, 164, 165, 153, -1, 153, 165, 166, 154, -1, 154, 166, 167, 155, -1, 155, 167, 156, 144, -1, 156, 168, 169, 157, -1, 157, 169, 170, 158, -1, 158, 170, 171, 159, -1, 159, 171, 172, 160, -1, 160, 172, 173, 161, -1, 161, 173, 174, 162, -1, 162, 174, 175, 163, -1, 163, 175, 176, 164, -1, 164, 176, 177, 165, -1, 165, 177, 178, 166, -1, 166, 178, 179, 167, -1, 167, 179, 168, 156, -1, 168, 180, 181, 169, -1, 169, 181, 182, 170, -1, 170, 182, 183, 171, -1, 171, 183, 184, 172, -1, 172, 184, 185, 173, -1, 173, 185, 186, 174, -1, 174, 186, 187, 175, -1, 175, 187, 188, 176, -1, 176, 188, 189, 177, -1, 177, 189, 190, 178, -1, 178, 190, 191, 179, -1, 179, 191, 180, 168, -1, 180, 192, 193, 181, -1, 181, 193, 194, 182, -1, 182, 194, 195, 183, -1, 183, 195, 196, 184, -1, 184, 196, 197, 185, -1, 185, 197, 198, 186, -1, 186, 198, 199, 187, -1, 187, 199, 200, 188, -1, 188, 200, 201, 189, -1, 189, 201, 202, 190, -1, 190, 202, 203, 191, -1, 191, 203, 192, 180, -1, 192, 204, 205, 193, -1, 193, 205, 206, 194, -1, 194, 206, 207, 195, -1, 195, 207, 208, 196, -1, 196, 208, 209, 197, -1, 197, 209, 210, 198, -1, 198, 210, 211, 199, -1, 199, 211, 212, 200, -1, 200, 212, 213, 201, -1, 201, 213, 214, 202, -1, 202, 214, 215, 203, -1, 203, 215, 204, 192, -1, 204, 216, 217, 205, -1, 205, 217, 218, 206, -1, 206, 218, 219, 207, -1, 207, 219, 220, 208, -1, 208, 220, 221, 209, -1, 209, 221, 222, 210, -1, 210, 222, 223, 211, -1, 211, 223, 224, 212, -1, 212, 224, 225, 213, -1, 213, 225, 226, 214, -1, 214, 226, 227, 215, -1, 215, 227, 216, 204, -1, 216, 228, 229, 217, -1, 217, 229, 230, 218, -1, 218, 230, 231, 219, -1, 219, 231, 232, 220, -1, 220, 232, 233, 221, -1, 221, 233, 234, 222, -1, 222, 234, 235, 223, -1, 223, 235, 236, 224, -1, 224, 236, 237, 225, -1, 225, 237, 238, 226, -1, 226, 238, 239, 227, -1, 227, 239, 228, 216, -1 ] } }
Shape { appearance Appearance { material Material { diffuseColor 0.64 0.34 0.09 } } geometry IndexedFaceSet { solid FALSE coord Coordinate { point [ -13.8526 -12.5000 15.5169, -12.9459 -9.0000 15.7566, -10.4688 -6.4378 16.4113, -7.0850 -5.5000 17.3057, -3.7012 -6.4378 18.2001, -1.2241 -9.0000 18.8549, -0.3174 -12.5000 19.0945, -1.2241 -16.0000 18.8549, -3.7012 -18.5622 18.2001, -7.0850 -19.5000 17.3057, -10.4688 -18.5622 16.4113, -12.9459 -16.0000 15.7566, -12.9767 -12.5000 12.9444, -12.1122 -9.0000 13.3078, -9.7501 -6.4378 14.3005, -6.5236 -5.5000 15.6567, -3.2970 -6.4378 17.0128, -0.9349 -9.0000 18.0056, -0.0704 -12.5000 18.3689, -0.9349 -16.0000 18.0056, -3.2970 -18.5622 17.0128, -6.5236 -19.5000 15.6567, -9.7501 -18.5622 14.3005, -12.1122 -16.0000 13.3078, -11.7518 -12.5000 10.5186, -10.9461 -9.0000 10.9987, -8.7451 -6.4378 12.3102, -5.7383 -5.5000 14.1017, -2.7316 -6.4378 15.8932, -0.5305 -9.0000 17.2047, 0.2751 -12.5000 17.6847, -0.5305 -16.0000 17.2047, -2.7316 -18.5622 15.8932, -5.7383 -19.5000 14.1017, -8.7451 -18.5622 12.3102, -10.9461 -16.0000 10.9987, -10.2015 -12.5000 8.2867, -9.4704 -9.0000 8.8741, -7.4730 -6.4378 10.4788, -4.7445 -5.5000 12.6710, -2.0161 -6.4378 14.8631, -0.0187 -9.0000 16.4678, 0.7124 -12.5000 17.0552, -0.0187 -16.0000 16.4678, -2.0161 -18.5622 14.8631, -4.7445 -19.5000 12.6710, -7.4730 -18.5622 10.4788, -9.4704 -16.0000 8.8741, -8.3559 -12.5000 6.2919, -7.7136 -9.0000 6.9753, -5.9587 -6.4378 8.8421, -3.5615 -5.5000 11.3923, -1.1643 -6.4378 13.9424, 0.5906 -9.0000 15.8093, 1.2329 -12.5000 16.4926, 0.5906 -16.0000 15.8093, -1.1643 -18.5622 13.9424, -3.5615 -19.5000 11.3923, -5.9587 -18.5622 8.8421, -7.7136 -16.0000 6.9753, -6.2510 -12.5000 4.5731, -5.7099 -9.0000 5.3391, -4.2316 -6.4378 7.4318, -2.2122 -5.5000 10.2905, -0.1928 -6.4378 13.1491, 1.2855 -9.0000 15.2418, 1.8266 -12.5000 16.0078, 1.2855 -16.0000 15.2418, -0.1928 -18.5622 13.1491, -2.2122 -19.5000 10.2905, -4.2316 -18.5622 7.4318, -5.7099 -16.0000 5.3391, -3.9276 -12.5000 3.1637, -3.4982 -9.0000 3.9974, -2.3252 -6.4378 6.2753, -0.7228 -5.5000 9.3870, 0.8796 -6.4378 12.4986, 2.0526 -9.0000 14.7765, 2.4820 -12.5000 15.6103, 2.0526 -16.0000 14.7765, 0.8796 -18.5622 12.4986, -0.7228 -19.5000 9.3870, -2.3252 -18.5622 6.2753, -3.4982 -16.0000 3.9974, -1.4308 -12.5000 2.0909, -1.1215 -9.0000 2.9762, -0.2765 -6.4378 5.3951, 0.8777 -5.5000 8.6993, 2.0320 -6.4378 12.0035, 2.8769 -9.0000 14.4223, 3.1862 -12.5000 15.3077, 2.8769 -16.0000 14.4223, 2.0320 -18.5622 12.0035, 0.8777 -19.5000 8.6993, -0.2765 -18.5622 5.3951, -1.1215 -16.0000 2.9762, 1.1910 -12.5000 1.3756, 1.3741 -9.0000 2.2954, 1.8746 -6.4378 4.8082, 2.5583 -5.5000 8.2408, 3.2420 -6.4378 11.6734, 3.7425 -9.0000 14.1862, 3.9257 -12.5000 15.1059, 3.7425 -16.0000 14.1862, 3.2420 -18.5622 11.6734, 2.5583 -19.5000 8.2408, 1.8746 -18.5622 4.8082, 1.3741 -16.0000 2.2954, 3.8867 -12.5000 1.0318, 3.9402 -9.0000 1.9681, 4.0865 -6.4378 4.5261, 4.2863 -5.5000 8.0204, 4.4861 -6.4378 11.5147, 4.6324 -9.0000 14.0727, 4.6860 -12.5000 15.0090, 4.6324 -16.0000 14.0727, 4.4861 -18.5622 11.5147, 4.2863 -19.5000 8.0204, 4.0865 -18.5622 4.5261, 3.9402 -16.0000 1.9681, 6.6040 -12.5000 1.0661, 6.5268 -9.0000 2.0007, 6.3161 -6.4378 4.5542, 6.0282 -5.5000 8.0424, 5.7403 -6.4378 11.5305, 5.5295 -9.0000 14.0840, 5.4524 -12.5000 15.0186, 5.5295 -16.0000 14.0840, 5.7403 -18.5622 11.5305, 6.0282 -19.5000 8.0424, 6.3161 -18.5622 4.5542, 6.5268 -16.0000 2.0007, 9.2901 -12.5000 1.4778, 9.0838 -9.0000 2.3926, 8.5201 -6.4378 4.8920, 7.7501 -5.5000 8.3063, 6.9801 -6.4378 11.7205, 6.4164 -9.0000 14.2199, 6.2100 -12.5000 15.1348, 6.4164 -16.0000 14.2199, 6.9801 -18.5622 11.7205, 7.7501 -19.5000 8.3063, 8.5201 -18.5622 4.8920, 9.0838 -16.0000 2.3926, 11.8930 -12.5000 2.2589, 11.5615 -9.0000 3.1362, 10.6558 -6.4378 5.5330, 9.4186 -5.5000 8.8070, 8.1814 -6.4378 12.0810, 7.2757 -9.0000 14.4778, 6.9442 -12.5000 15.3551, 7.2757 -16.0000 14.4778, 8.1814 -18.5622 12.0810, 9.4186 -19.5000 8.8070, 10.6558 -18.5622 5.5330, 11.5615 -16.0000 3.1362, 14.3620 -12.5000 3.3943, 13.9117 -9.0000 4.2170, 12.6816 -6.4378 6.4646, 11.0013 -5.5000 9.5348, 9.3209 -6.4378 12.6051, 8.0908 -9.0000 14.8527, 7.6406 -12.5000 15.6753, 8.0908 -16.0000 14.8527, 9.3209 -18.5622 12.6051, 11.0013 -19.5000 9.5348, 12.6816 -18.5622 6.4646, 13.9117 -16.0000 4.2170, 16.6491 -12.5000 4.8620, 16.0889 -9.0000 5.6140, 14.5582 -6.4378 7.6688, 12.4674 -5.5000 10.4756, 10.3765 -6.4378 13.2824, 8.8459 -9.0000 15.3372, 8.2856 -12.5000 16.0893, 8.8459 -16.0000 15.3372, 10.3765 -18.5622 13.2824, 12.4674 -19.5000 10.4756, 14.5582 -18.5622 7.6688, 16.0889 -16.0000 5.6140, 18.7100 -12.5000 6.6333, 18.0507 -9.0000 7.3002, 16.2492 -6.4378 9.1222, 13.7885 -5.5000 11.6111, 11.3277 -6.4378 14.1000, 9.5263 -9.0000 15.9220, 8.8669 -12.5000 16.5889, 9.5263 -16.0000 15.9220, 11.3277 -18.5622 14.1000, 13.7885 -19.5000 11.6111, 16.2492 -18.5622 9.1222, 18.0507 -16.0000 7.3002, 20.5047 -12.5000 8.6739, 19.7590 -9.0000 9.2427, 17.7218 -6.4378 10.7966, 14.9389 -5.5000 12.9192, 12.1560 -6.4378 15.0418, 10.1188 -9.0000 16.5957, 9.3731 -12.5000 17.1644, 10.1188 -16.0000 16.5957, 12.1560 -18.5622 15.0418, 14.9389 -19.5000 12.9192, 17.7218 -18.5622 10.7966, 19.7590 -16.0000 9.2427, 21.9982 -12.5000 10.9443, 21.1807 -9.0000 11.4038, 18.9472 -6.4378 12.6594, 15.8963 -5.5000 14.3745, 12.8453 -6.4378 16.0897, 10.6119 -9.0000 17.3452, 9.7944 -12.5000 17.8048, 10.6119 -16.0000 17.3452, 12.8453 -18.5622 16.0897, 15.8963 -19.5000 14.3745, 18.9472 -18.5622 12.6594, 21.1807 -16.0000 11.4038, 23.1616 -12.5000 13.4002, 22.2881 -9.0000 13.7416, 19.9018 -6.4378 14.6745, 16.6420 -5.5000 15.9488, 13.3823 -6.4378 17.2232, 10.9959 -9.0000 18.1560, 10.1225 -12.5000 18.4975, 10.9959 -16.0000 18.1560, 13.3823 -18.5622 17.2232, 16.6420 -19.5000 15.9488, 19.9018 -18.5622 14.6745, 22.2881 -16.0000 13.7416, 23.9722 -12.5000 15.9940, 23.0598 -9.0000 16.2107, 20.5670 -6.4378 16.8028, 17.1617 -5.5000 17.6115, 13.7564 -6.4378 18.4203, 11.2636 -9.0000 19.0124, 10.3511 -12.5000 19.2291, 11.2636 -16.0000 19.0124, 13.7564 -18.5622 18.4203, 17.1617 -19.5000 17.6115, 20.5670 -18.5622 16.8028, 23.0598 -16.0000 16.2107 ] } coordIndex [ 0, 12, 13, 1, -1, 1, 13, 14, 2, -1, 2, 14, 15, 3, -1, 3, 15, 16, 4, -1, 4, 16, 17, 5, -1, 5, 17, 18, 6, -1, 6, 18, 19, 7, -1, 7, 19, 20, 8, -1, 8, 20, 21, 9, -1, 9, 21, 22, 10, -1, 10, 22, 23, 11, -1, 11, 23, 12, 0, -1, 12, 24, 25, 13, -1, 13, 25, 26, 14, -1, 14, 26, 27, 15, -1, 15, 27, 28, 16, -1, 16, 28, 29, 17, -1, 17, 29, 30, 18, -1, 18, 30, 31, 19, -1, 19, 31, 32, 20, -1, 20, 32, 33, 21, -1, 21, 33, 34, 22, -1, 22, 34, 35, 23, -1, 23, 35, 24, 12, -1, 24, 36, 37, 25, -1, 25, 37, 38, 26, -1, 26, 38, 39, 27, -1, 27, 39, 40, 28, -1, 28, 40, 41, 29, -1, 29, 41, 42, 30, -1, 30, 42, 43, 31, -1, 31, 43, 44, 32, -1, 32, 44, 45, 33, -1, 33, 45, 46, 34, -1, 34, 46, 47, 35, -1, 35, 47, 36, 24, -1, 36, 48, 49, 37, -1, 37, 49, 50, 38, -1, 38, 50, 51, 39, -1, 39, 51, 52, 40, -1, 40, 52, 53, 41, -1, 41, 53, 54, 42, -1, 42, 54, 55, 43, -1, 43, 55, 56, 44, -1, 44, 56, 57, 45, -1, 45, 57, 58, 46, -1, 46, 58, 59, 47, -1, 47, 59, 48, 36, -1, 48, 60, 61, 49, -1, 49, 61, 62, 50, -1, 50, 62, 63, 51, -1, 51, 63, 64, 52, -1, 52, 64, 65, 53, -1, 53, 65, 66, 54, -1, 54, 66, 67, 55, -1, 55, 67, 68, 56, -1, 56, 68, 69, 57, -1, 57, 69, 70, 58, -1, 58, 70, 71, 59, -1, 59, 71, 60, 48, -1, 60, 72, 73, 61, -1, 61, 73, 74, 62, -1, 62, 74, 75, 63, -1, 63, 75, 76, 64, -1, 64, 76, 77, 65, -1, 65, 77, 78, 66, -1, 66, 78, 79, 67, -1, 67, 79, 80, 68, -1, 68, 80, 81, 69, -1, 69, 81, 82, 70, -1, 70, 82, 83, 71, -1, 71, 83, 72, 60, -1, 72, 84, 85, 73, -1, 73, 85, 86, 74, -1, 74, 86, 87, 75, -1, 75, 87, 88, 76, -1, 76, 88, 89, 77, -1, 77, 89, 90, 78, -1, 78, 90, 91, 79, -1, 79, 91, 92, 80, -1, 80, 92, 93, 81, -1, 81, 93, 94, 82, -1, 82, 94, 95, 83, -1, 83, 95, 84, 72, -1, 84, 96, 97, 85, -1, 85, 97, 98, 86, -1, 86, 98, 99, 87, -1, 87, 99, 100, 88, -1, 88, 100, 101, 89, -1, 89, 101, 102, 90, -1, 90, 102, 103, 91, -1, 91, 103, 104, 92, -1, 92, 104, 105, 93, -1, 93, 105, 106, 94, -1, 94, 106, 107, 95, -1, 95, 107, 96, 84, -1, 96, 108, 109, 97, -1, 97, 109, 110, 98, -1, 98, 110, 111, 99, -1, 99, 111, 112, 100, -1, 100, 112, 113, 101, -1, 101, 113, 114, 102, -1, 102, 114, 115, 103, -1, 103, 115, 116, 104, -1, 104, 116, 117, 105, -1, 105, 117, 118, 106, -1, 106, 118, 119, 107, -1, 107, 119, 108, 96, -1, 108, 120, 121, 109, -1, 109, 121, 122, 110, -1, 110, 122, 123, 111, -1, 111, 123, 124, 112, -1, 112, 124, 125, 113, -1, 113, 125, 126, 114, -1, 114, 126, 127, 115, -1, 115, 127, 128, 116, -1, 116, 128, 129, 117, -1, 117, 129, 130, 118, -1, 118, 130, 131, 119, -1, 119, 131, 120, 108, -1, 120, 132, 133, 121, -1, 121, 133, 134, 122, -1, 122, 134, 135, 123, -1, 123, 135, 136, 124, -1, 124, 136, 137, 125, -1, 125, 137, 138, 126, -1, 126, 138, 139, 127, -1, 127, 139, 140, 128, -1, 128, 140, 141, 129, -1, 129, 141, 142, 130, -1, 130, 142, 143, 131, -1, 131, 143, 132, 120, -1, 132, 144, 145, 133, -1, 133, 145, 146, 134, -1, 134, 146, 147, 135, -1, 135, 147, 148, 136, -1, 136, 148, 149, 137, -1, 137, 149, 150, 138, -1, 138, 150, 151, 139, -1, 139, 151, 152, 140, -1, 140, 152, 153, 141, -1, 141, 153, 154, 142, -1, 142, 154, 155, 143, -1, 143, 155, 144, 132, -1, 144, 156, 157, 145, -1, 145, 157, 158, 146, -1, 146, 158, 159, 147, -1, 147, 159, 160, 148, -1, 148, 160, 161, 149, -1, 149, 161, 162, 150, -1, 150, 162, 163, 151, -1, 151, 163, 164, 152, -1, 152, 164, 165, 153, -1, 153, 165, 166, 154, -1, 154, 166, 167, 155, -1, 155, 167, 156, 144, -1, 156, 168, 169, 157, -1, 157, 169, 170, 158, -1, 158, 170, 171, 159, -1, 159, 171, 172, 160, -1, 160, 172, 173, 161, -1, 161, 173, 174, 162, -1, 162, 174, 175, 163, -1, 163, 175, 176, 164, -1, 164, 176, 177, 165, -1, 165, 177, 178, 166, -1, 166, 178, 179, 167, -1, 167, 179, 168, 156, -1, 168, 180, 181, 169, -1, 169, 181, 182, 170, -1, 170, 182, 183, 171, -1, 171, 183, 184, 172, -1, 172, 184, 185, 173, -1, 173, 185, 186, 174, -1, 174, 186, 187, 175, -1, 175, 187, 188, 176, -1, 176, 188, 189, 177, -1, 177, 189, 190, 178, -1, 178, 190, 191, 179, -1, 179, 191, 180, 168, -1, 180, 192, 193, 181, -1, 181, 193, 194, 182, -1, 182, 194, 195, 183, -1, 183, 195, 196, 184, -1, 184, 196, 197, 185, -1, 185, 197, 198, 186, -1, 186, 198, 199, 187, -1, 187, 199, 200, 188, -1, 188, 200, 201, 189, -1, 189, 201, 202, 190, -1, 190, 202, 203, 191, -1, 191, 203, 192, 180, -1, 192, 204, 205, 193, -1, 193, 205, 206, 194, -1, 194, 206, 207, 195, -1, 195, 207, 208, 196, -1, 196, 208, 209, 197, -1, 197, 209, 210, 198, -1, 198, 210, 211, 199, -1, 199, 211, 212, 200, -1, 200, 212, 213, 201, -1, 201, 213, 214, 202, -1, 202, 214, 215, 203, -1, 203, 215, 204, 192, -1, 204, 216, 217, 205, -1, 205, 217, 218, 206, -1, 206, 218, 219, 207, -1, 207, 219, 220, 208, -1, 208, 220, 221, 209, -1, 209, 221, 222, 210, -1, 210, 222, 223, 211, -1, 211, 223, 224, 212, -1, 212, 224, 225, 213, -1, 213, 225, 226, 214, -1, 214, 226, 227, 215, -1, 215, 227, 216, 204, -1, 216, 228, 229, 217, -1, 217, 229, 230, 218, -1, 218, 230, 231, 219, -1, 219, 231, 232, 220, -1, 220, 232, 233, 221, -1, 221, 233, 234, 222, -1, 222, 234, 235, 223, -1, 223, 235, 236, 224, -1, 224, 236, 237, 225, -1, 225, 237, 238, 226, -1, 226, 238, 239, 227, -1, 227, 239, 228, 216, -1 ] } }
Transform { translation 0 0 -1.75 rotation 1 0 0 1.5707963 children [ Shape { appearance Appearance { material Material { diffuseColor 0.68 0.69 0.7 } } geometry Cylinder { radius 1 height 3.5 } } ] }
Transform { translation 10 0 -1.75 rotation 1 0 0 1.5707963 children [ Shape { appearance Appearance { material Material { diffuseColor 0.68 0.69 0.7 } } geometry Cylinder { radius 1 height 3.5 } } ] }
Transform { translation 10 -25 -1.75 rotation 1 0 0 1.5707963 children [ Shape { appearance Appearance { material Material { diffuseColor 0.68 0.69 0.7 } } geometry Cylinder { radius 1 height 3.5 } } ] }
Transform { translation 0 -25 -1.75 rotation 1 0 0 1.5707963 children [ Shape { appearance Appearance { material Material { diffuseColor 0.68 0.69 0.7 } } geometry Cylinder { radius 1 height 3.5 } } ] }
