$MeshFormat
2.2 0 8
$EndMeshFormat
$PhysicalNames
5
2 2 "pec"
2 3 "sides"
2 4 "port"
2 5 "port2"
3 1 "air"
$EndPhysicalNames
$Nodes
378
1 20 0 0
2 20 0 0.5
3 20 10 0.5
4 20 10 0
5 0 0 0.5
6 0 0 0
7 0 10 0.5
8 0 10 0
9 50 0 0
10 50 0 0.5
11 50 10 0
12 50 10 0.5
13 20 2 0.5
14 20 4 0.5
15 20 6 0.5
16 20 8 0.5
17 20 8 0
18 20 6 0
19 20 4 0
20 20 2 0
21 0 2 0.5
22 0 4 0.5
23 0 6 0.5
24 0 8 0.5
25 0 2 0
26 0 4 0
27 0 6 0
28 0 8 0
29 2 0 0
30 4 0 0
31 6 0 0
32 8 0 0
33 10 0 0
34 12 0 0
35 14 0 0
36 16 0 0
37 18 0 0
38 2 0 0.5
39 4 0 0.5
40 6 0 0.5
41 8 0 0.5
42 10 0 0.5
43 12 0 0.5
44 14 0 0.5
45 16 0 0.5
46 18 0 0.5
47 2 10 0.5
48 4 10 0.5
49 6 10 0.5
50 8 10 0.5
51 10 10 0.5
52 12 10 0.5
53 14 10 0.5
54 16 10 0.5
55 18 10 0.5
56 2 10 0
57 4 10 0
58 6 10 0
59 8 10 0
60 10 10 0
61 12 10 0
62 14 10 0
63 16 10 0
64 18 10 0
65 22 0 0
66 24 0 0
67 26 0 0
68 28 0 0
69 30 0 0
70 32 0 0
71 34 0 0
72 36 0 0
73 38 0 0
74 40 0 0
75 42 0 0
76 44 0 0
77 46 0 0
78 48 0 0
79 22 0 0.5
80 24 0 0.5
81 26 0 0.5
82 28 0 0.5
83 30 0 0.5
84 32 0 0.5
85 34 0 0.5
86 36 0 0.5
87 38 0 0.5
88 40 0 0.5
89 42 0 0.5
90 44 0 0.5
91 46 0 0.5
92 48 0 0.5
93 22 10 0
94 24 10 0
95 26 10 0
96 28 10 0
97 30 10 0
98 32 10 0
99 34 10 0
100 36 10 0
101 38 10 0
102 40 10 0
103 42 10 0
104 44 10 0
105 46 10 0
106 48 10 0
107 50 2 0
108 50 4 0
109 50 6 0
110 50 8 0
111 50 2 0.5
112 50 4 0.5
113 50 6 0.5
114 50 8 0.5
115 22 10 0.5
116 24 10 0.5
117 26 10 0.5
118 28 10 0.5
119 30 10 0.5
120 32 10 0.5
121 34 10 0.5
122 36 10 0.5
123 38 10 0.5
124 40 10 0.5
125 42 10 0.5
126 44 10 0.5
127 46 10 0.5
128 48 10 0.5
129 14.88665085741266 1.637066120482574 0.5
130 7 8.267949192431125 0.5
131 11 8.267949192431121 0.5
132 5.10313918060527 1.635499239202777 0.5
133 9 1.732050807568877 0.5
134 14.90299689263822 8.353496491679774 0.5
135 18.27738658026878 4.98365396477445 0.5
136 1.637066120482572 4.886650857412668 0.5
137 3.008474738561753 8.306455909888335 0.5
138 18.30702912343532 3.007481903574779 0.5
139 16.70734446838928 3.961598772758896 0.5
140 16.75518891687297 6.002015905158336 0.5
141 14.80384757729337 5.00000000000003 0.5
142 5.001412456426959 8.274366978673992 0.5
143 6.000235409404491 6.536968015902726 0.5
144 8.000039234900747 6.536076656702326 0.5
145 6.999999999999996 4.80384757729337 0.5
146 8.999999999999996 4.803847577293366 0.5
147 4.847987673780914 4.814316211570359 0.5
148 10.00000653915012 6.535928096835589 0.5
149 11 4.803847577293363 0.5
150 11.98402224379395 6.570497472603642 0.5
151 7 1.732050807568877 0.5
152 1.693821434767737 3.001135766047713 0.5
153 11 1.732050807568877 0.5
154 12.99036146746706 1.694222401786256 0.5
155 9.000007629008477 8.267983856400027 0.5
156 12.98116985607203 8.313342334932017 0.5
157 16.89149378261835 8.146996124642143 0.5
158 3.939427841063037 6.708668710085235 0.5
159 12.96464497018122 4.940130294688797 0.5
160 18.40999461077039 6.944760729906195 0.5
161 1.878871514700897 6.836522174011114 0.5
162 3.156244321415931 1.891186510723138 0.5
163 16.83641488427554 1.881896957087881 0.5
164 13.84391437136394 3.273480970475757 0.5
165 3.159818118397771 3.858139942709487 0.5
166 13.84244381596802 6.679072717707183 0.5
167 6.078647621110748 3.231871997123371 0.5
168 7.999999999999996 3.267949192431125 0.5
169 9.999999999999996 3.267697113398555 0.5
170 12 3.266436718235719 0.5
171 18.53589838486225 1.464101615137753 0.5
172 18.53589838486225 8.535898384862248 0.5
173 1.464101615137755 1.464101615137755 0.5
174 1.464101615137753 8.535898384862247 0.5
175 4.469167383062127 3.086202780265826 0.5
176 15.41798135582931 3.103030287661168 0.5
177 3.092634253685038 5.420859579157773 0.5
178 15.41798135582932 6.896969712338834 0.5
179 14.88665085741267 1.637066120482572 0
180 5.10313918060527 1.635499239202777 0
181 9 1.732050807568877 0
182 7 8.267949192431125 0
183 11 8.26794919243112 0
184 14.88665085741266 8.36293387951743 0
185 18.26794919243112 5.000000000000001 0
186 1.637066120482572 4.886650857412668 0
187 3.008474738561753 8.306455909888335 0
188 18.30645590988833 6.991525261438247 0
189 16.70567603482517 6.035511415539025 0
190 16.72755452357613 3.968994697290523 0
191 14.80384757729337 5.000000000000004 0
192 18.30376893485309 3.004708228905111 0
193 5.001412456426959 8.274366978673992 0
194 6.000235409404491 6.536968015902726 0
195 8.000039234900747 6.536076656702326 0
196 6.999999999999996 4.80384757729337 0
197 8.999999999999996 4.803847577293366 0
198 4.847987673780914 4.814316211570359 0
199 10.00000653915012 6.535928096835587 0
200 10.99999999999999 4.803847577293359 0
201 11.98402224379395 6.570497472603638 0
202 7 1.732050807568877 0
203 1.693821434767737 3.001135766047713 0
204 11 1.732050807568877 0
205 12.99036146746706 1.694222401786254 0
206 9.000007629008477 8.267983856400026 0
207 12.97844551686777 8.314915232904955 0
208 3.939427841063037 6.708668710085235 0
209 12.96464497018122 4.940130294688787 0
210 1.878871514700897 6.836522174011114 0
211 3.156244321415931 1.891186510723138 0
212 16.85686129232083 1.823377050509936 0
213 16.83609464897396 8.117548379099397 0
214 13.84391437136394 3.273480970475749 0
215 3.159818118397771 3.858139942709487 0
216 13.83926542022971 6.680907765342276 0
217 6.078647621110748 3.231871997123371 0
218 7.999999999999996 3.267949192431125 0
219 9.999999999999996 3.267697113398553 0
220 12 3.266436718235717 0
221 18.53589838486224 1.464101615137761 0
222 1.464101615137755 1.464101615137755 0
223 18.53589838486224 8.535898384862241 0
224 1.464101615137753 8.535898384862247 0
225 4.469167383062127 3.086202780265826 0
226 3.092634253685038 5.420859579157773 0
227 15.41798135582931 3.103030287661161 0
228 15.41798135582932 6.896969712338844 0
229 25.09700310736178 1.646503508320224 0
230 29 8.267949192431123 0
231 32.97338722014881 8.316006158493197 0
232 37 8.267949192431123 0
233 41 8.267949192431123 0
234 44.9132550481344 8.35503199489796 0
235 31.0266127798512 1.683993841506803 0
236 35 1.732050807568877 0
237 39 1.732050807568879 0
238 43 1.732050807568876 0
239 25.11334914258733 8.362933879517424 0
240 21.72261341973122 5.01634603522555 0
241 48.37244843820078 5.096679054948571 0
242 46.99152526143824 1.693544090111663 0
243 21.69297087656467 6.99251809642522 0
244 23.29265553161071 6.038401227241104 0
245 23.24481108312703 3.997984094841663 0
246 25.19615242270663 4.999999999999982 0
247 27.01889152376455 8.309148718281389 0
248 28.01912743335849 6.577359108249796 0
249 29.97657512570855 6.558173401037807 0
250 29 4.80384757729337 0
251 30.99721132448911 4.923256759401548 0
252 30.96504761112503 8.295036085081698 0
253 33.03104824315972 1.708676417614229 0
254 34.03178748704448 3.444840987867677 0
255 36.00529791450741 3.460891510592742 0
256 35 5.196152422706632 0
257 37 5.196152422706635 0
258 33.00345223946828 5.091317475242934 0
259 38.00088298575123 3.463566597713588 0
260 39 5.196152422706631 0
261 37.0010301500431 1.731426620574014 0
262 41 1.732050807568875 0
263 42 3.464101615137757 0
264 44 3.464101615137748 0
265 43.00000000000001 5.196152422706628 0
266 45.15215341129957 5.185531938171294 0
267 41.00000000000001 5.196152422706655 0
268 23.10850621738165 1.853003875357854 0
269 27.00824856355117 1.695024900752042 0
270 29.00415015992885 1.675038879891787 0
271 44.99858754357304 1.725633021326006 0
272 34.99838357751146 8.294696144051343 0
273 39 8.267949192431121 0
274 43 8.267949192431121 0
275 40.00014716429187 3.464012445567064 0
276 46.84875694134335 8.093419854119423 0
277 46.06072366298584 3.291353195386503 0
278 27.05302086183244 4.917824192950754 0
279 48.38382399514842 6.939221002399371 0
280 23.16358511572445 8.118103042912116 0
281 21.59000538922961 3.055239270093803 0
282 48.12258542709061 3.160987178829069 0
283 26.16376000473669 6.677372601889695 0
284 26.15607393327044 3.271469934653314 0
285 46.85570255282428 6.12638782046905 0
286 31.94433922512888 6.645625155630166 0
287 32.05634953617499 3.358645720666306 0
288 43.92415645804007 6.766493188788754 0
289 30.01405396674069 3.285203249499258 0
290 33.98659371037624 6.712641360615526 0
291 38 6.732050807568877 0
292 35.99749621464795 6.733273725013356 0
293 39.99999999999999 6.732050807568876 0
294 42.00000000000004 6.732050807568872 0
295 28.01021915717946 3.268596774185781 0
296 48.53589838486224 1.464101615137755 0
297 21.46410161513775 8.535898384862247 0
298 21.46410161513776 1.464101615137754 0
299 48.53589838486225 8.535898384862248 0
300 45.47953028880642 6.862242776956651 0
301 24.58201864417069 6.896969712338821 0
302 24.58201864417067 3.103030287661149 0
303 46.8975022421472 4.581232296218998 0
304 24.82654869058684 8.207407750089143 0.5
305 29.06319418743314 8.304434373556862 0.5
306 33 8.344542701529686 0.5
307 36.9736703746553 8.316190516071334 0.5
308 41 8.267949192431123 0.5
309 45 1.732050807568877 0.5
310 26.98159600196686 1.777086041436194 0.5
311 30.78361955414589 1.867252724786183 0.5
312 34.99805443254339 1.627693833945334 0.5
313 39 1.732050807568877 0.5
314 44.91325504813443 8.35503199489796 0.5
315 21.72261341973122 5.01634603522555 0.5
316 48.37244843820078 5.096679054948586 0.5
317 23.18365123811481 1.811394494881582 0.5
318 21.69297087656467 6.99251809642522 0.5
319 23.62822536473005 6.313252741406231 0.5
320 23.46410161513775 3.999999999999989 0.5
321 25.19615242270663 4.999999999999982 0.5
322 25.1457702765116 2.991455535532535 0.5
323 26.93454352259967 3.948228548177166 0.5
324 26.92787157079658 5.937151833478605 0.5
325 28.66025403784439 4.99999999999999 0.5
326 28.79493128916727 2.981214324613799 0.5
327 30.40957461844682 3.9895933626513 0.5
328 32.33649203405449 3.391386016877043 0.5
329 32.00284518472954 5.297051337260901 0.5
330 33.86970125746838 4.642497995704397 0.5
331 36.99967573875723 1.714657978631619 0.5
332 37.99994595645953 3.461202810314879 0.5
333 39.99999099274325 3.463618481000618 0.5
334 38.99999999999999 5.196152422706632 0.5
335 40.99999999999999 5.196152422706652 0.5
336 41.99999849879053 3.464021092781577 0.5
337 42.99999999999999 5.19615242270667 0.5
338 37.04106897919969 5.09565548666614 0.5
339 43.99999974979841 3.464088194745062 0.5
340 45.15215337555649 5.185530020972354 0.5
341 35.75731694721362 3.520971740185076 0.5
342 40.99999824858896 1.731956864819991 0.5
343 42.99999941619632 1.732019493319251 0.5
344 46.99152526143824 1.693544090111663 0.5
345 26.94198484149219 7.979389602483996 0.5
346 31.01053236457219 8.354239548411009 0.5
347 30.21793793108928 6.377241417716288 0.5
348 34.96928210376451 8.313453852566086 0.5
349 38.99840077591443 8.294707341669064 0.5
350 43 8.267949192431121 0.5
351 46.84875694134337 8.093419854119425 0.5
352 46.06095902473289 3.292420270161728 0.5
353 33.86975663781443 6.465504711692434 0.5
354 48.38382399514842 6.939221002399375 0.5
355 22.98181303026991 8.336673026128546 0.5
356 21.64946326683626 3.062764887201529 0.5
357 48.12261905019734 3.16113961808268 0.5
358 46.85570254686712 6.12638750093591 0.5
359 33.01267769238144 1.623208353316617 0.5
360 36.04303729437345 6.669014455806115 0.5
361 38.00341213703491 6.726673389266822 0.5
362 40 6.732050807568888 0.5
363 42 6.732050807568886 0.5
364 43.9241564520829 6.766492869255608 0.5
365 25.06220350331866 1.315987214370062 0.5
366 25.39711431702996 6.651923788646675 0.5
367 32.02021442364109 6.967715943322062 0.5
368 29 1.305125270631963 0.5
369 28.36224851373111 6.719643445447147 0.5
370 33.99484847273226 2.961151588005694 0.5
371 35.40444567080681 5.091231360271821 0.5
372 21.46410161513775 8.535898384862247 0.5
373 21.46410161513775 1.464101615137755 0.5
374 48.53589838486225 8.535898384862248 0.5
375 48.53589838486228 1.464101615137717 0.5
376 45.4795302888065 6.862242776956658 0.5
377 46.89750224214718 4.581232296219065 0.5
378 49.46127466504947 6.979740334133124 0.2500000000000001
$EndNodes
$Elements
1726
1 2 2 5 7 20 1 2
2 2 2 5 7 20 2 13
3 2 2 5 7 16 3 4
4 2 2 5 7 16 4 17
5 2 2 5 7 20 13 14
6 2 2 5 7 19 14 15
7 2 2 5 7 20 14 19
8 2 2 5 7 18 15 16
9 2 2 5 7 19 15 18
10 2 2 5 7 18 16 17
11 2 2 4 8 5 21 6
12 2 2 4 8 6 21 25
13 2 2 4 8 24 7 8
14 2 2 4 8 24 8 28
15 2 2 4 8 21 22 26
16 2 2 4 8 21 26 25
17 2 2 4 8 22 23 26
18 2 2 4 8 23 24 28
19 2 2 4 8 26 23 27
20 2 2 4 8 23 28 27
21 2 2 3 9 2 37 1
22 2 2 3 9 2 46 37
23 2 2 3 9 38 5 6
24 2 2 3 9 38 6 29
25 2 2 3 9 30 38 29
26 2 2 3 9 40 30 31
27 2 2 3 9 39 38 30
28 2 2 3 9 40 39 30
29 2 2 3 9 32 40 31
30 2 2 3 9 33 41 32
31 2 2 3 9 41 40 32
32 2 2 3 9 43 33 34
33 2 2 3 9 42 41 33
34 2 2 3 9 43 42 33
35 2 2 3 9 35 43 34
36 2 2 3 9 36 44 35
37 2 2 3 9 44 43 35
38 2 2 3 9 37 45 36
39 2 2 3 9 45 44 36
40 2 2 3 9 46 45 37
41 2 2 2 10 13 171 2
42 2 2 2 10 2 171 46
43 2 2 2 10 3 172 16
44 2 2 2 10 55 172 3
45 2 2 2 10 5 173 21
46 2 2 2 10 38 173 5
47 2 2 2 10 24 174 7
48 2 2 2 10 7 174 47
49 2 2 2 10 14 138 13
50 2 2 2 10 138 171 13
51 2 2 2 10 15 135 14
52 2 2 2 10 135 138 14
53 2 2 2 10 16 160 15
54 2 2 2 10 15 160 135
55 2 2 2 10 16 172 160
56 2 2 2 10 21 152 22
57 2 2 2 10 21 173 152
58 2 2 2 10 22 136 23
59 2 2 2 10 22 152 136
60 2 2 2 10 23 161 24
61 2 2 2 10 136 161 23
62 2 2 2 10 161 174 24
63 2 2 2 10 39 162 38
64 2 2 2 10 162 173 38
65 2 2 2 10 40 132 39
66 2 2 2 10 132 162 39
67 2 2 2 10 41 151 40
68 2 2 2 10 40 151 132
69 2 2 2 10 42 133 41
70 2 2 2 10 133 151 41
71 2 2 2 10 43 153 42
72 2 2 2 10 42 153 133
73 2 2 2 10 44 154 43
74 2 2 2 10 43 154 153
75 2 2 2 10 45 129 44
76 2 2 2 10 129 154 44
77 2 2 2 10 46 163 45
78 2 2 2 10 45 163 129
79 2 2 2 10 46 171 163
80 2 2 2 10 47 137 48
81 2 2 2 10 47 174 137
82 2 2 2 10 48 142 49
83 2 2 2 10 137 142 48
84 2 2 2 10 49 130 50
85 2 2 2 10 49 142 130
86 2 2 2 10 50 155 51
87 2 2 2 10 130 155 50
88 2 2 2 10 51 131 52
89 2 2 2 10 51 155 131
90 2 2 2 10 52 156 53
91 2 2 2 10 131 156 52
92 2 2 2 10 53 134 54
93 2 2 2 10 53 156 134
94 2 2 2 10 54 157 55
95 2 2 2 10 134 157 54
96 2 2 2 10 157 172 55
97 2 2 2 10 129 164 154
98 2 2 2 10 163 176 129
99 2 2 2 10 129 176 164
100 2 2 2 10 142 143 130
101 2 2 2 10 143 144 130
102 2 2 2 10 144 155 130
103 2 2 2 10 148 150 131
104 2 2 2 10 131 155 148
105 2 2 2 10 150 156 131
106 2 2 2 10 151 167 132
107 2 2 2 10 132 175 162
108 2 2 2 10 167 175 132
109 2 2 2 10 133 168 151
110 2 2 2 10 153 169 133
111 2 2 2 10 133 169 168
112 2 2 2 10 156 166 134
113 2 2 2 10 134 178 157
114 2 2 2 10 166 178 134
115 2 2 2 10 135 139 138
116 2 2 2 10 135 140 139
117 2 2 2 10 135 160 140
118 2 2 2 10 152 165 136
119 2 2 2 10 136 177 161
120 2 2 2 10 165 177 136
121 2 2 2 10 137 158 142
122 2 2 2 10 137 161 158
123 2 2 2 10 137 174 161
124 2 2 2 10 139 163 138
125 2 2 2 10 163 171 138
126 2 2 2 10 140 141 139
127 2 2 2 10 141 176 139
128 2 2 2 10 139 176 163
129 2 2 2 10 140 178 141
130 2 2 2 10 140 160 157
131 2 2 2 10 157 178 140
132 2 2 2 10 159 164 141
133 2 2 2 10 141 166 159
134 2 2 2 10 164 176 141
135 2 2 2 10 141 178 166
136 2 2 2 10 142 158 143
137 2 2 2 10 143 145 144
138 2 2 2 10 143 147 145
139 2 2 2 10 143 158 147
140 2 2 2 10 145 146 144
141 2 2 2 10 146 148 144
142 2 2 2 10 148 155 144
143 2 2 2 10 145 168 146
144 2 2 2 10 147 167 145
145 2 2 2 10 167 168 145
146 2 2 2 10 146 149 148
147 2 2 2 10 146 169 149
148 2 2 2 10 168 169 146
149 2 2 2 10 158 177 147
150 2 2 2 10 165 175 147
151 2 2 2 10 147 177 165
152 2 2 2 10 147 175 167
153 2 2 2 10 149 150 148
154 2 2 2 10 149 159 150
155 2 2 2 10 149 170 159
156 2 2 2 10 169 170 149
157 2 2 2 10 150 166 156
158 2 2 2 10 159 166 150
159 2 2 2 10 151 168 167
160 2 2 2 10 162 165 152
161 2 2 2 10 152 173 162
162 2 2 2 10 154 170 153
163 2 2 2 10 153 170 169
164 2 2 2 10 164 170 154
165 2 2 2 10 160 172 157
166 2 2 2 10 161 177 158
167 2 2 2 10 159 170 164
168 2 2 2 10 162 175 165
169 2 2 3 11 3 4 64
170 2 2 3 11 3 64 55
171 2 2 3 11 56 8 7
172 2 2 3 11 47 56 7
173 2 2 3 11 48 57 47
174 2 2 3 11 57 56 47
175 2 2 3 11 49 57 48
176 2 2 3 11 49 50 59
177 2 2 3 11 49 58 57
178 2 2 3 11 49 59 58
179 2 2 3 11 59 50 51
180 2 2 3 11 52 61 51
181 2 2 3 11 60 59 51
182 2 2 3 11 61 60 51
183 2 2 3 11 53 62 52
184 2 2 3 11 62 61 52
185 2 2 3 11 53 54 63
186 2 2 3 11 53 63 62
187 2 2 3 11 63 54 55
188 2 2 3 11 64 63 55
189 2 2 2 12 20 1 221
190 2 2 2 12 1 37 221
191 2 2 2 12 4 17 223
192 2 2 2 12 64 4 223
193 2 2 2 12 6 25 222
194 2 2 2 12 29 6 222
195 2 2 2 12 28 8 224
196 2 2 2 12 8 56 224
197 2 2 2 12 17 18 188
198 2 2 2 12 17 188 223
199 2 2 2 12 18 19 185
200 2 2 2 12 18 185 188
201 2 2 2 12 19 20 192
202 2 2 2 12 185 19 192
203 2 2 2 12 192 20 221
204 2 2 2 12 25 26 203
205 2 2 2 12 25 203 222
206 2 2 2 12 26 27 186
207 2 2 2 12 26 186 203
208 2 2 2 12 27 28 210
209 2 2 2 12 186 27 210
210 2 2 2 12 210 28 224
211 2 2 2 12 30 29 211
212 2 2 2 12 211 29 222
213 2 2 2 12 31 30 180
214 2 2 2 12 180 30 211
215 2 2 2 12 32 31 202
216 2 2 2 12 31 180 202
217 2 2 2 12 33 32 181
218 2 2 2 12 181 32 202
219 2 2 2 12 34 33 204
220 2 2 2 12 33 181 204
221 2 2 2 12 35 34 205
222 2 2 2 12 34 204 205
223 2 2 2 12 36 35 179
224 2 2 2 12 179 35 205
225 2 2 2 12 37 36 212
226 2 2 2 12 36 179 212
227 2 2 2 12 37 212 221
228 2 2 2 12 56 57 187
229 2 2 2 12 56 187 224
230 2 2 2 12 57 58 193
231 2 2 2 12 187 57 193
232 2 2 2 12 58 59 182
233 2 2 2 12 58 182 193
234 2 2 2 12 59 60 206
235 2 2 2 12 182 59 206
236 2 2 2 12 60 61 183
237 2 2 2 12 60 183 206
238 2 2 2 12 61 62 207
239 2 2 2 12 183 61 207
240 2 2 2 12 62 63 184
241 2 2 2 12 62 184 207
242 2 2 2 12 63 64 213
243 2 2 2 12 184 63 213
244 2 2 2 12 213 64 223
245 2 2 2 12 179 205 214
246 2 2 2 12 212 179 227
247 2 2 2 12 179 214 227
248 2 2 2 12 202 180 217
249 2 2 2 12 180 211 225
250 2 2 2 12 217 180 225
251 2 2 2 12 181 202 218
252 2 2 2 12 204 181 219
253 2 2 2 12 181 218 219
254 2 2 2 12 193 182 194
255 2 2 2 12 194 182 195
256 2 2 2 12 195 182 206
257 2 2 2 12 199 183 201
258 2 2 2 12 183 199 206
259 2 2 2 12 201 183 207
260 2 2 2 12 207 184 216
261 2 2 2 12 184 213 228
262 2 2 2 12 216 184 228
263 2 2 2 12 188 185 189
264 2 2 2 12 189 185 190
265 2 2 2 12 190 185 192
266 2 2 2 12 203 186 215
267 2 2 2 12 186 210 226
268 2 2 2 12 215 186 226
269 2 2 2 12 187 193 208
270 2 2 2 12 187 208 210
271 2 2 2 12 187 210 224
272 2 2 2 12 188 189 213
273 2 2 2 12 188 213 223
274 2 2 2 12 189 190 191
275 2 2 2 12 189 191 228
276 2 2 2 12 213 189 228
277 2 2 2 12 191 190 227
278 2 2 2 12 190 192 212
279 2 2 2 12 190 212 227
280 2 2 2 12 209 191 214
281 2 2 2 12 191 209 216
282 2 2 2 12 214 191 227
283 2 2 2 12 191 216 228
284 2 2 2 12 212 192 221
285 2 2 2 12 193 194 208
286 2 2 2 12 194 195 196
287 2 2 2 12 194 196 198
288 2 2 2 12 194 198 208
289 2 2 2 12 196 195 197
290 2 2 2 12 197 195 199
291 2 2 2 12 199 195 206
292 2 2 2 12 196 197 218
293 2 2 2 12 198 196 217
294 2 2 2 12 217 196 218
295 2 2 2 12 197 199 200
296 2 2 2 12 197 200 219
297 2 2 2 12 218 197 219
298 2 2 2 12 208 198 226
299 2 2 2 12 215 198 225
300 2 2 2 12 198 215 226
301 2 2 2 12 198 217 225
302 2 2 2 12 200 199 201
303 2 2 2 12 200 201 209
304 2 2 2 12 200 209 220
305 2 2 2 12 219 200 220
306 2 2 2 12 201 207 216
307 2 2 2 12 209 201 216
308 2 2 2 12 202 217 218
309 2 2 2 12 211 203 215
310 2 2 2 12 203 211 222
311 2 2 2 12 205 204 220
312 2 2 2 12 204 219 220
313 2 2 2 12 214 205 220
314 2 2 2 12 210 208 226
315 2 2 2 12 209 214 220
316 2 2 2 12 211 215 225
317 2 2 3 13 79 2 1
318 2 2 3 13 79 1 65
319 2 2 3 13 10 78 9
320 2 2 3 13 10 92 78
321 2 2 3 13 80 65 66
322 2 2 3 13 80 79 65
323 2 2 3 13 67 80 66
324 2 2 3 13 68 81 67
325 2 2 3 13 81 80 67
326 2 2 3 13 69 82 68
327 2 2 3 13 82 81 68
328 2 2 3 13 70 83 69
329 2 2 3 13 83 82 69
330 2 2 3 13 71 84 70
331 2 2 3 13 84 83 70
332 2 2 3 13 72 85 71
333 2 2 3 13 85 84 71
334 2 2 3 13 73 86 72
335 2 2 3 13 86 85 72
336 2 2 3 13 74 87 73
337 2 2 3 13 87 86 73
338 2 2 3 13 75 88 74
339 2 2 3 13 88 87 74
340 2 2 3 13 76 89 75
341 2 2 3 13 89 88 75
342 2 2 3 13 77 90 76
343 2 2 3 13 90 89 76
344 2 2 3 13 92 77 78
345 2 2 3 13 91 90 77
346 2 2 3 13 92 91 77
347 2 2 2 14 1 20 298
348 2 2 2 14 65 1 298
349 2 2 2 14 17 4 297
350 2 2 2 14 4 93 297
351 2 2 2 14 9 78 296
352 2 2 2 14 107 9 296
353 2 2 2 14 106 11 299
354 2 2 2 14 11 110 299
355 2 2 2 14 18 17 243
356 2 2 2 14 243 17 297
357 2 2 2 14 19 18 240
358 2 2 2 14 240 18 243
359 2 2 2 14 20 19 281
360 2 2 2 14 19 240 281
361 2 2 2 14 20 281 298
362 2 2 2 14 66 65 268
363 2 2 2 14 268 65 298
364 2 2 2 14 67 66 229
365 2 2 2 14 229 66 268
366 2 2 2 14 68 67 269
367 2 2 2 14 67 229 269
368 2 2 2 14 69 68 270
369 2 2 2 14 68 269 270
370 2 2 2 14 70 69 235
371 2 2 2 14 235 69 270
372 2 2 2 14 71 70 253
373 2 2 2 14 70 235 253
374 2 2 2 14 72 71 236
375 2 2 2 14 236 71 253
376 2 2 2 14 73 72 261
377 2 2 2 14 72 236 261
378 2 2 2 14 74 73 237
379 2 2 2 14 237 73 261
380 2 2 2 14 75 74 262
381 2 2 2 14 74 237 262
382 2 2 2 14 76 75 238
383 2 2 2 14 238 75 262
384 2 2 2 14 77 76 271
385 2 2 2 14 76 238 271
386 2 2 2 14 78 77 242
387 2 2 2 14 242 77 271
388 2 2 2 14 78 242 296
389 2 2 2 14 93 94 280
390 2 2 2 14 93 280 297
391 2 2 2 14 94 95 239
392 2 2 2 14 94 239 280
393 2 2 2 14 95 96 247
394 2 2 2 14 239 95 247
395 2 2 2 14 96 97 230
396 2 2 2 14 96 230 247
397 2 2 2 14 97 98 252
398 2 2 2 14 230 97 252
399 2 2 2 14 98 99 231
400 2 2 2 14 98 231 252
401 2 2 2 14 99 100 272
402 2 2 2 14 231 99 272
403 2 2 2 14 100 101 232
404 2 2 2 14 100 232 272
405 2 2 2 14 101 102 273
406 2 2 2 14 232 101 273
407 2 2 2 14 102 103 233
408 2 2 2 14 102 233 273
409 2 2 2 14 103 104 274
410 2 2 2 14 233 103 274
411 2 2 2 14 104 105 234
412 2 2 2 14 104 234 274
413 2 2 2 14 105 106 276
414 2 2 2 14 234 105 276
415 2 2 2 14 276 106 299
416 2 2 2 14 108 107 282
417 2 2 2 14 282 107 296
418 2 2 2 14 109 108 241
419 2 2 2 14 241 108 282
420 2 2 2 14 110 109 279
421 2 2 2 14 109 241 279
422 2 2 2 14 110 279 299
423 2 2 2 14 229 268 302
424 2 2 2 14 269 229 284
425 2 2 2 14 284 229 302
426 2 2 2 14 247 230 248
427 2 2 2 14 248 230 249
428 2 2 2 14 249 230 252
429 2 2 2 14 252 231 286
430 2 2 2 14 231 272 290
431 2 2 2 14 286 231 290
432 2 2 2 14 272 232 292
433 2 2 2 14 232 273 291
434 2 2 2 14 232 291 292
435 2 2 2 14 273 233 293
436 2 2 2 14 233 274 294
437 2 2 2 14 293 233 294
438 2 2 2 14 274 234 288
439 2 2 2 14 234 276 300
440 2 2 2 14 288 234 300
441 2 2 2 14 253 235 287
442 2 2 2 14 235 270 289
443 2 2 2 14 287 235 289
444 2 2 2 14 236 253 254
445 2 2 2 14 236 254 255
446 2 2 2 14 236 255 261
447 2 2 2 14 259 237 261
448 2 2 2 14 237 259 275
449 2 2 2 14 262 237 275
450 2 2 2 14 238 262 263
451 2 2 2 14 238 263 264
452 2 2 2 14 238 264 271
453 2 2 2 14 239 247 283
454 2 2 2 14 280 239 301
455 2 2 2 14 239 283 301
456 2 2 2 14 240 243 244
457 2 2 2 14 240 244 245
458 2 2 2 14 240 245 281
459 2 2 2 14 279 241 285
460 2 2 2 14 241 282 303
461 2 2 2 14 285 241 303
462 2 2 2 14 242 271 277
463 2 2 2 14 242 277 282
464 2 2 2 14 242 282 296
465 2 2 2 14 244 243 280
466 2 2 2 14 280 243 297
467 2 2 2 14 245 244 246
468 2 2 2 14 246 244 301
469 2 2 2 14 244 280 301
470 2 2 2 14 245 246 302
471 2 2 2 14 245 268 281
472 2 2 2 14 268 245 302
473 2 2 2 14 278 246 283
474 2 2 2 14 246 278 284
475 2 2 2 14 283 246 301
476 2 2 2 14 246 284 302
477 2 2 2 14 247 248 283
478 2 2 2 14 248 249 250
479 2 2 2 14 248 250 278
480 2 2 2 14 248 278 283
481 2 2 2 14 250 249 251
482 2 2 2 14 251 249 286
483 2 2 2 14 249 252 286
484 2 2 2 14 250 251 289
485 2 2 2 14 278 250 295
486 2 2 2 14 250 289 295
487 2 2 2 14 258 251 286
488 2 2 2 14 251 258 287
489 2 2 2 14 251 287 289
490 2 2 2 14 254 253 287
491 2 2 2 14 255 254 256
492 2 2 2 14 256 254 258
493 2 2 2 14 258 254 287
494 2 2 2 14 255 256 257
495 2 2 2 14 255 257 259
496 2 2 2 14 255 259 261
497 2 2 2 14 257 256 292
498 2 2 2 14 256 258 290
499 2 2 2 14 256 290 292
500 2 2 2 14 259 257 260
501 2 2 2 14 260 257 291
502 2 2 2 14 291 257 292
503 2 2 2 14 258 286 290
504 2 2 2 14 259 260 275
505 2 2 2 14 260 267 275
506 2 2 2 14 267 260 293
507 2 2 2 14 260 291 293
508 2 2 2 14 263 262 275
509 2 2 2 14 264 263 265
510 2 2 2 14 265 263 267
511 2 2 2 14 267 263 275
512 2 2 2 14 264 265 266
513 2 2 2 14 264 266 277
514 2 2 2 14 271 264 277
515 2 2 2 14 266 265 288
516 2 2 2 14 265 267 294
517 2 2 2 14 288 265 294
518 2 2 2 14 277 266 303
519 2 2 2 14 285 266 300
520 2 2 2 14 266 285 303
521 2 2 2 14 266 288 300
522 2 2 2 14 267 293 294
523 2 2 2 14 281 268 298
524 2 2 2 14 270 269 295
525 2 2 2 14 269 284 295
526 2 2 2 14 289 270 295
527 2 2 2 14 290 272 292
528 2 2 2 14 291 273 293
529 2 2 2 14 274 288 294
530 2 2 2 14 276 279 285
531 2 2 2 14 279 276 299
532 2 2 2 14 276 285 300
533 2 2 2 14 282 277 303
534 2 2 2 14 284 278 295
535 2 2 2 15 111 10 9
536 2 2 2 15 9 107 111
537 2 2 2 15 110 11 12
538 2 2 2 15 114 110 12
539 2 2 2 15 111 107 108
540 2 2 2 15 108 109 113
541 2 2 2 15 111 108 112
542 2 2 2 15 112 108 113
543 2 2 2 15 113 109 110
544 2 2 2 15 113 110 114
545 2 2 2 16 2 373 13
546 2 2 2 16 79 373 2
547 2 2 2 16 16 372 3
548 2 2 2 16 3 372 115
549 2 2 2 16 10 375 92
550 2 2 2 16 111 375 10
551 2 2 2 16 12 374 114
552 2 2 2 16 128 374 12
553 2 2 2 16 13 356 14
554 2 2 2 16 13 373 356
555 2 2 2 16 14 315 15
556 2 2 2 16 14 356 315
557 2 2 2 16 15 318 16
558 2 2 2 16 315 318 15
559 2 2 2 16 318 372 16
560 2 2 2 16 80 317 79
561 2 2 2 16 317 373 79
562 2 2 2 16 81 365 80
563 2 2 2 16 80 365 317
564 2 2 2 16 82 310 81
565 2 2 2 16 310 365 81
566 2 2 2 16 83 368 82
567 2 2 2 16 82 368 310
568 2 2 2 16 84 311 83
569 2 2 2 16 311 368 83
570 2 2 2 16 85 359 84
571 2 2 2 16 84 359 311
572 2 2 2 16 86 312 85
573 2 2 2 16 312 359 85
574 2 2 2 16 87 331 86
575 2 2 2 16 86 331 312
576 2 2 2 16 88 313 87
577 2 2 2 16 313 331 87
578 2 2 2 16 89 342 88
579 2 2 2 16 88 342 313
580 2 2 2 16 90 343 89
581 2 2 2 16 89 343 342
582 2 2 2 16 91 309 90
583 2 2 2 16 309 343 90
584 2 2 2 16 92 344 91
585 2 2 2 16 91 344 309
586 2 2 2 16 92 375 344
587 2 2 2 16 112 357 111
588 2 2 2 16 357 375 111
589 2 2 2 16 113 316 112
590 2 2 2 16 316 357 112
591 2 2 2 16 114 354 113
592 2 2 2 16 113 354 316
593 2 2 2 16 114 374 354
594 2 2 2 16 115 355 116
595 2 2 2 16 115 372 355
596 2 2 2 16 116 304 117
597 2 2 2 16 116 355 304
598 2 2 2 16 117 345 118
599 2 2 2 16 304 345 117
600 2 2 2 16 118 305 119
601 2 2 2 16 118 345 305
602 2 2 2 16 119 346 120
603 2 2 2 16 305 346 119
604 2 2 2 16 120 306 121
605 2 2 2 16 120 346 306
606 2 2 2 16 121 348 122
607 2 2 2 16 306 348 121
608 2 2 2 16 122 307 123
609 2 2 2 16 122 348 307
610 2 2 2 16 123 349 124
611 2 2 2 16 307 349 123
612 2 2 2 16 124 308 125
613 2 2 2 16 124 349 308
614 2 2 2 16 125 350 126
615 2 2 2 16 308 350 125
616 2 2 2 16 126 314 127
617 2 2 2 16 126 350 314
618 2 2 2 16 127 351 128
619 2 2 2 16 314 351 127
620 2 2 2 16 351 374 128
621 2 2 2 16 304 355 319
622 2 2 2 16 319 366 304
623 2 2 2 16 304 366 345
624 2 2 2 16 345 369 305
625 2 2 2 16 305 347 346
626 2 2 2 16 305 369 347
627 2 2 2 16 346 367 306
628 2 2 2 16 306 353 348
629 2 2 2 16 306 367 353
630 2 2 2 16 348 360 307
631 2 2 2 16 307 361 349
632 2 2 2 16 360 361 307
633 2 2 2 16 349 362 308
634 2 2 2 16 308 363 350
635 2 2 2 16 362 363 308
636 2 2 2 16 339 343 309
637 2 2 2 16 309 352 339
638 2 2 2 16 344 352 309
639 2 2 2 16 310 323 322
640 2 2 2 16 322 365 310
641 2 2 2 16 310 326 323
642 2 2 2 16 310 368 326
643 2 2 2 16 311 327 326
644 2 2 2 16 326 368 311
645 2 2 2 16 311 328 327
646 2 2 2 16 311 359 328
647 2 2 2 16 331 341 312
648 2 2 2 16 341 370 312
649 2 2 2 16 312 370 359
650 2 2 2 16 313 332 331
651 2 2 2 16 313 333 332
652 2 2 2 16 313 342 333
653 2 2 2 16 350 364 314
654 2 2 2 16 314 376 351
655 2 2 2 16 364 376 314
656 2 2 2 16 315 319 318
657 2 2 2 16 315 320 319
658 2 2 2 16 315 356 320
659 2 2 2 16 354 358 316
660 2 2 2 16 316 377 357
661 2 2 2 16 358 377 316
662 2 2 2 16 317 322 320
663 2 2 2 16 320 356 317
664 2 2 2 16 317 365 322
665 2 2 2 16 356 373 317
666 2 2 2 16 319 355 318
667 2 2 2 16 355 372 318
668 2 2 2 16 320 321 319
669 2 2 2 16 321 366 319
670 2 2 2 16 320 322 321
671 2 2 2 16 322 323 321
672 2 2 2 16 323 324 321
673 2 2 2 16 324 366 321
674 2 2 2 16 323 325 324
675 2 2 2 16 323 326 325
676 2 2 2 16 325 369 324
677 2 2 2 16 345 366 324
678 2 2 2 16 324 369 345
679 2 2 2 16 326 327 325
680 2 2 2 16 327 347 325
681 2 2 2 16 347 369 325
682 2 2 2 16 328 329 327
683 2 2 2 16 329 347 327
684 2 2 2 16 328 330 329
685 2 2 2 16 328 370 330
686 2 2 2 16 359 370 328
687 2 2 2 16 330 353 329
688 2 2 2 16 329 367 347
689 2 2 2 16 353 367 329
690 2 2 2 16 330 370 341
691 2 2 2 16 341 371 330
692 2 2 2 16 330 371 353
693 2 2 2 16 332 341 331
694 2 2 2 16 333 334 332
695 2 2 2 16 334 338 332
696 2 2 2 16 338 341 332
697 2 2 2 16 333 335 334
698 2 2 2 16 333 336 335
699 2 2 2 16 333 342 336
700 2 2 2 16 335 362 334
701 2 2 2 16 334 361 338
702 2 2 2 16 334 362 361
703 2 2 2 16 336 337 335
704 2 2 2 16 337 363 335
705 2 2 2 16 335 363 362
706 2 2 2 16 336 339 337
707 2 2 2 16 336 343 339
708 2 2 2 16 342 343 336
709 2 2 2 16 339 340 337
710 2 2 2 16 340 364 337
711 2 2 2 16 337 364 363
712 2 2 2 16 338 371 341
713 2 2 2 16 338 361 360
714 2 2 2 16 360 371 338
715 2 2 2 16 339 352 340
716 2 2 2 16 352 377 340
717 2 2 2 16 358 376 340
718 2 2 2 16 340 377 358
719 2 2 2 16 340 376 364
720 2 2 2 16 344 357 352
721 2 2 2 16 344 375 357
722 2 2 2 16 347 367 346
723 2 2 2 16 353 360 348
724 2 2 2 16 361 362 349
725 2 2 2 16 363 364 350
726 2 2 2 16 351 358 354
727 2 2 2 16 354 374 351
728 2 2 2 16 351 376 358
729 2 2 2 16 357 377 352
730 2 2 2 16 353 371 360
731 2 2 3 17 4 3 115
732 2 2 3 17 115 93 4
733 2 2 3 17 12 11 106
734 2 2 3 17 12 106 128
735 2 2 3 17 116 94 93
736 2 2 3 17 116 93 115
737 2 2 3 17 95 94 116
738 2 2 3 17 96 95 118
739 2 2 3 17 116 117 95
740 2 2 3 17 95 117 118
741 2 2 3 17 97 96 119
742 2 2 3 17 96 118 119
743 2 2 3 17 98 97 120
744 2 2 3 17 97 119 120
745 2 2 3 17 121 99 98
746 2 2 3 17 121 98 120
747 2 2 3 17 100 99 121
748 2 2 3 17 101 100 122
749 2 2 3 17 122 100 121
750 2 2 3 17 102 101 123
751 2 2 3 17 123 101 122
752 2 2 3 17 125 103 102
753 2 2 3 17 124 102 123
754 2 2 3 17 125 102 124
755 2 2 3 17 104 103 125
756 2 2 3 17 105 104 126
757 2 2 3 17 126 104 125
758 2 2 3 17 106 105 127
759 2 2 3 17 127 105 126
760 2 2 3 17 128 106 127
761 4 2 1 1 155 183 60 131
762 4 2 1 1 206 183 60 155
763 4 2 1 1 183 155 148 131
764 4 2 1 1 155 183 148 206
765 4 2 1 1 199 183 206 148
766 4 2 1 1 195 199 148 146
767 4 2 1 1 199 195 197 146
768 4 2 1 1 195 148 144 146
769 4 2 1 1 148 155 206 144
770 4 2 1 1 148 195 206 199
771 4 2 1 1 182 155 130 144
772 4 2 1 1 182 206 155 144
773 4 2 1 1 195 148 206 144
774 4 2 1 1 206 182 195 144
775 4 2 1 1 130 58 182 142
776 4 2 1 1 58 193 182 142
777 4 2 1 1 148 199 200 146
778 4 2 1 1 199 197 200 146
779 4 2 1 1 201 199 200 148
780 4 2 1 1 149 148 200 146
781 4 2 1 1 205 204 34 153
782 4 2 1 1 150 148 200 149
783 4 2 1 1 200 201 148 150
784 4 2 1 1 204 133 33 153
785 4 2 1 1 33 42 153 133
786 4 2 1 1 33 34 204 153
787 4 2 1 1 202 41 133 151
788 4 2 1 1 181 202 32 133
789 4 2 1 1 133 204 33 181
790 4 2 1 1 131 60 61 183
791 4 2 1 1 130 58 59 182
792 4 2 1 1 59 130 155 50
793 4 2 1 1 59 182 206 155
794 4 2 1 1 130 59 155 182
795 4 2 1 1 60 155 131 51
796 4 2 1 1 60 59 206 155
797 4 2 1 1 144 182 143 130
798 4 2 1 1 182 130 142 143
799 4 2 1 1 182 144 143 195
800 4 2 1 1 142 130 58 49
801 4 2 1 1 182 193 194 142
802 4 2 1 1 58 142 57 193
803 4 2 1 1 143 158 194 147
804 4 2 1 1 131 201 148 183
805 4 2 1 1 201 148 183 199
806 4 2 1 1 207 201 131 183
807 4 2 1 1 156 201 131 207
808 4 2 1 1 153 43 205 154
809 4 2 1 1 34 43 205 153
810 4 2 1 1 149 209 150 159
811 4 2 1 1 131 201 150 148
812 4 2 1 1 201 156 131 150
813 4 2 1 1 198 158 194 208
814 4 2 1 1 57 187 193 137
815 4 2 1 1 57 142 48 137
816 4 2 1 1 32 31 40 202
817 4 2 1 1 202 40 41 151
818 4 2 1 1 33 43 34 153
819 4 2 1 1 60 131 61 51
820 4 2 1 1 41 33 133 42
821 4 2 1 1 41 202 133 32
822 4 2 1 1 33 43 153 42
823 4 2 1 1 33 32 133 181
824 4 2 1 1 58 130 59 49
825 4 2 1 1 49 130 59 50
826 4 2 1 1 59 51 155 60
827 4 2 1 1 51 59 155 50
828 4 2 1 1 57 142 137 193
829 4 2 1 1 138 19 192 135
830 4 2 1 1 142 58 57 49
831 4 2 1 1 142 49 57 48
832 4 2 1 1 21 203 26 152
833 4 2 1 1 63 55 54 157
834 4 2 1 1 194 143 147 145
835 4 2 1 1 142 194 182 143
836 4 2 1 1 194 195 182 143
837 4 2 1 1 195 196 197 146
838 4 2 1 1 146 144 195 145
839 4 2 1 1 185 19 18 135
840 4 2 1 1 207 61 183 131
841 4 2 1 1 158 198 194 147
842 4 2 1 1 185 192 19 135
843 4 2 1 1 209 200 150 201
844 4 2 1 1 209 149 150 200
845 4 2 1 1 23 28 161 27
846 4 2 1 1 189 191 190 139
847 4 2 1 1 189 191 139 141
848 4 2 1 1 52 131 207 156
849 4 2 1 1 21 26 22 152
850 4 2 1 1 203 21 26 25
851 4 2 1 1 38 30 162 39
852 4 2 1 1 139 140 189 141
853 4 2 1 1 40 41 32 202
854 4 2 1 1 51 131 61 52
855 4 2 1 1 41 33 32 133
856 4 2 1 1 192 20 19 138
857 4 2 1 1 20 14 138 13
858 4 2 1 1 43 44 205 154
859 4 2 1 1 37 45 212 36
860 4 2 1 1 57 56 187 137
861 4 2 1 1 35 34 43 205
862 4 2 1 1 138 14 19 135
863 4 2 1 1 57 47 137 48
864 4 2 1 1 19 15 135 14
865 4 2 1 1 15 19 135 18
866 4 2 1 1 208 194 193 142
867 4 2 1 1 180 211 30 132
868 4 2 1 1 210 27 186 136
869 4 2 1 1 194 198 196 147
870 4 2 1 1 147 196 194 145
871 4 2 1 1 195 144 143 145
872 4 2 1 1 131 207 61 52
873 4 2 1 1 53 52 207 156
874 4 2 1 1 14 20 138 19
875 4 2 1 1 188 185 18 160
876 4 2 1 1 44 35 43 205
877 4 2 1 1 47 57 137 56
878 4 2 1 1 27 136 26 186
879 4 2 1 1 63 184 213 134
880 4 2 1 1 44 45 179 129
881 4 2 1 1 30 40 180 132
882 4 2 1 1 158 194 142 143
883 4 2 1 1 196 167 147 217
884 4 2 1 1 179 45 36 212
885 4 2 1 1 18 17 188 160
886 4 2 1 1 156 216 184 166
887 4 2 1 1 63 64 55 157
888 4 2 1 1 194 195 143 145
889 4 2 1 1 62 52 61 207
890 4 2 1 1 62 52 207 53
891 4 2 1 1 170 209 149 159
892 4 2 1 1 23 27 161 136
893 4 2 1 1 22 26 23 136
894 4 2 1 1 195 196 146 145
895 4 2 1 1 132 40 180 151
896 4 2 1 1 28 27 210 161
897 4 2 1 1 40 31 30 180
898 4 2 1 1 194 158 142 208
899 4 2 1 1 28 23 161 24
900 4 2 1 1 132 30 39 162
901 4 2 1 1 38 211 162 30
902 4 2 1 1 38 211 30 29
903 4 2 1 1 134 156 184 166
904 4 2 1 1 209 166 150 159
905 4 2 1 1 216 184 207 156
906 4 2 1 1 209 170 149 220
907 4 2 1 1 166 209 150 216
908 4 2 1 1 40 202 180 151
909 4 2 1 1 31 40 202 180
910 4 2 1 1 45 37 212 46
911 4 2 1 1 203 136 26 152
912 4 2 1 1 200 220 209 149
913 4 2 1 1 136 27 26 23
914 4 2 1 1 64 63 213 157
915 4 2 1 1 203 136 186 26
916 4 2 1 1 170 214 209 159
917 4 2 1 1 44 179 205 129
918 4 2 1 1 166 156 216 150
919 4 2 1 1 44 36 35 179
920 4 2 1 1 44 36 179 45
921 4 2 1 1 53 63 184 62
922 4 2 1 1 214 170 164 159
923 4 2 1 1 154 44 205 129
924 4 2 1 1 195 194 196 145
925 4 2 1 1 150 209 201 216
926 4 2 1 1 40 30 39 132
927 4 2 1 1 136 26 152 22
928 4 2 1 1 201 216 207 156
929 4 2 1 1 205 170 153 154
930 4 2 1 1 214 209 220 170
931 4 2 1 1 212 45 46 163
932 4 2 1 1 16 18 160 17
933 4 2 1 1 53 207 184 156
934 4 2 1 1 214 154 129 164
935 4 2 1 1 170 204 205 153
936 4 2 1 1 204 170 205 220
937 4 2 1 1 201 216 156 150
938 4 2 1 1 205 179 214 129
939 4 2 1 1 156 184 53 134
940 4 2 1 1 154 214 129 205
941 4 2 1 1 197 218 219 168
942 4 2 1 1 169 146 219 168
943 4 2 1 1 133 168 202 151
944 4 2 1 1 202 181 218 133
945 4 2 1 1 168 202 218 133
946 4 2 1 1 146 197 219 168
947 4 2 1 1 181 219 218 133
948 4 2 1 1 168 218 219 133
949 4 2 1 1 168 219 169 133
950 4 2 1 1 153 169 204 133
951 4 2 1 1 133 219 204 181
952 4 2 1 1 219 133 204 169
953 4 2 1 1 147 225 217 175
954 4 2 1 1 204 170 169 153
955 4 2 1 1 170 220 204 169
956 4 2 1 1 220 219 204 169
957 4 2 1 1 167 196 147 145
958 4 2 1 1 217 196 198 147
959 4 2 1 1 193 187 208 137
960 4 2 1 1 142 193 208 137
961 4 2 1 1 170 149 220 169
962 4 2 1 1 200 169 219 220
963 4 2 1 1 179 44 205 35
964 4 2 1 1 146 219 200 169
965 4 2 1 1 219 146 200 197
966 4 2 1 1 27 210 161 136
967 4 2 1 1 207 53 184 62
968 4 2 1 1 132 211 30 162
969 4 2 1 1 16 18 15 160
970 4 2 1 1 200 169 220 149
971 4 2 1 1 200 146 169 149
972 4 2 1 1 160 157 188 140
973 4 2 1 1 140 189 190 139
974 4 2 1 1 158 226 198 177
975 4 2 1 1 209 141 166 159
976 4 2 1 1 209 191 216 166
977 4 2 1 1 141 209 214 159
978 4 2 1 1 214 164 141 159
979 4 2 1 1 176 227 191 139
980 4 2 1 1 191 189 228 178
981 4 2 1 1 208 142 137 158
982 4 2 1 1 2 20 221 13
983 4 2 1 1 6 25 21 222
984 4 2 1 1 16 223 4 17
985 4 2 1 1 211 180 225 175
986 4 2 1 1 137 208 210 187
987 4 2 1 1 180 167 132 151
988 4 2 1 1 221 2 13 171
989 4 2 1 1 218 197 196 168
990 4 2 1 1 146 196 197 168
991 4 2 1 1 138 192 163 139
992 4 2 1 1 160 188 185 140
993 4 2 1 1 167 180 202 151
994 4 2 1 1 161 226 158 177
995 4 2 1 1 217 180 202 167
996 4 2 1 1 185 190 192 135
997 4 2 1 1 185 160 140 135
998 4 2 1 1 225 147 165 175
999 4 2 1 1 175 211 165 225
1000 4 2 1 1 214 170 154 164
1001 4 2 1 1 7 56 47 224
1002 4 2 1 1 170 205 214 154
1003 4 2 1 1 20 2 221 1
1004 4 2 1 1 7 56 224 8
1005 4 2 1 1 47 7 224 174
1006 4 2 1 1 5 222 21 173
1007 4 2 1 1 16 3 4 172
1008 4 2 1 1 222 5 21 6
1009 4 2 1 1 223 16 4 172
1010 4 2 1 1 226 215 198 177
1011 4 2 1 1 205 170 214 220
1012 4 2 1 1 165 203 136 215
1013 4 2 1 1 203 165 136 152
1014 4 2 1 1 164 176 214 141
1015 4 2 1 1 202 168 167 151
1016 4 2 1 1 168 202 167 218
1017 4 2 1 1 218 217 202 167
1018 4 2 1 1 191 176 214 227
1019 4 2 1 1 136 215 203 186
1020 4 2 1 1 167 147 217 175
1021 4 2 1 1 177 161 226 136
1022 4 2 1 1 208 137 210 158
1023 4 2 1 1 141 209 166 191
1024 4 2 1 1 228 216 191 166
1025 4 2 1 1 191 209 214 141
1026 4 2 1 1 208 226 198 158
1027 4 2 1 1 178 228 191 166
1028 4 2 1 1 167 218 196 168
1029 4 2 1 1 37 2 1 221
1030 4 2 1 1 217 218 196 167
1031 4 2 1 1 217 225 180 175
1032 4 2 1 1 139 191 176 141
1033 4 2 1 1 227 190 191 139
1034 4 2 1 1 196 146 145 168
1035 4 2 1 1 157 213 188 140
1036 4 2 1 1 191 189 178 141
1037 4 2 1 1 190 185 140 135
1038 4 2 1 1 189 188 213 140
1039 4 2 1 1 177 215 147 165
1040 4 2 1 1 215 203 211 165
1041 4 2 1 1 140 178 189 141
1042 4 2 1 1 165 203 211 152
1043 4 2 1 1 177 198 158 147
1044 4 2 1 1 211 180 175 132
1045 4 2 1 1 212 192 190 163
1046 4 2 1 1 24 8 7 224
1047 4 2 1 1 224 7 24 174
1048 4 2 1 1 158 137 210 161
1049 4 2 1 1 46 2 221 171
1050 4 2 1 1 64 4 3 172
1051 4 2 1 1 64 223 4 172
1052 4 2 1 1 186 226 210 136
1053 4 2 1 1 192 190 163 139
1054 4 2 1 1 5 38 222 173
1055 4 2 1 1 38 6 5 222
1056 4 2 1 1 147 215 225 165
1057 4 2 1 1 225 147 217 198
1058 4 2 1 1 211 225 215 165
1059 4 2 1 1 188 189 185 140
1060 4 2 1 1 208 210 226 158
1061 4 2 1 1 173 211 38 222
1062 4 2 1 1 224 24 161 174
1063 4 2 1 1 176 191 214 141
1064 4 2 1 1 37 2 221 46
1065 4 2 1 1 213 228 189 178
1066 4 2 1 1 55 64 3 172
1067 4 2 1 1 196 145 167 168
1068 4 2 1 1 176 163 227 139
1069 4 2 1 1 139 190 140 135
1070 4 2 1 1 129 227 163 179
1071 4 2 1 1 189 190 185 140
1072 4 2 1 1 191 178 166 141
1073 4 2 1 1 227 129 163 176
1074 4 2 1 1 24 28 8 224
1075 4 2 1 1 38 6 222 29
1076 4 2 1 1 177 215 198 147
1077 4 2 1 1 213 157 178 140
1078 4 2 1 1 180 167 175 132
1079 4 2 1 1 178 189 213 140
1080 4 2 1 1 226 161 158 210
1081 4 2 1 1 167 180 175 217
1082 4 2 1 1 46 221 212 171
1083 4 2 1 1 64 172 157 223
1084 4 2 1 1 228 213 134 178
1085 4 2 1 1 224 161 28 210
1086 4 2 1 1 24 224 161 28
1087 4 2 1 1 211 173 38 162
1088 4 2 1 1 222 211 38 29
1089 4 2 1 1 190 227 212 163
1090 4 2 1 1 228 213 184 134
1091 4 2 1 1 178 134 228 166
1092 4 2 1 1 211 165 152 162
1093 4 2 1 1 215 147 225 198
1094 4 2 1 1 161 210 226 136
1095 4 2 1 1 175 211 132 162
1096 4 2 1 1 190 227 163 139
1097 4 2 1 1 176 214 129 164
1098 4 2 1 1 129 214 227 179
1099 4 2 1 1 221 46 212 37
1100 4 2 1 1 177 226 215 136
1101 4 2 1 1 172 64 157 55
1102 4 2 1 1 214 176 129 227
1103 4 2 1 1 211 175 165 162
1104 4 2 1 1 179 212 227 163
1105 4 2 1 1 171 212 46 163
1106 4 2 1 1 213 223 64 157
1107 4 2 1 1 157 134 213 178
1108 4 2 1 1 152 21 203 173
1109 4 2 1 1 215 177 136 165
1110 4 2 1 1 226 186 215 136
1111 4 2 1 1 222 21 203 25
1112 4 2 1 1 224 187 56 137
1113 4 2 1 1 223 188 17 160
1114 4 2 1 1 21 222 203 173
1115 4 2 1 1 224 47 137 56
1116 4 2 1 1 47 224 137 174
1117 4 2 1 1 223 17 16 160
1118 4 2 1 1 172 223 16 160
1119 4 2 1 1 137 210 224 187
1120 4 2 1 1 152 211 173 203
1121 4 2 1 1 137 224 161 174
1122 4 2 1 1 203 222 211 173
1123 4 2 1 1 210 137 224 161
1124 4 2 1 1 211 152 173 162
1125 4 2 1 1 223 213 188 157
1126 4 2 1 1 171 221 138 13
1127 4 2 1 1 20 221 138 192
1128 4 2 1 1 20 138 221 13
1129 4 2 1 1 192 139 135 190
1130 4 2 1 1 135 139 192 138
1131 4 2 1 1 184 166 228 134
1132 4 2 1 1 228 166 184 216
1133 4 2 1 1 18 135 160 185
1134 4 2 1 1 160 135 18 15
1135 4 2 1 1 63 134 53 184
1136 4 2 1 1 53 134 63 54
1137 4 2 1 1 179 163 45 212
1138 4 2 1 1 45 163 179 129
1139 4 2 1 1 157 63 134 54
1140 4 2 1 1 157 134 63 213
1141 4 2 1 1 160 223 157 172
1142 4 2 1 1 160 157 223 188
1143 4 2 1 1 221 138 212 171
1144 4 2 1 1 221 212 138 192
1145 4 2 1 1 163 212 138 171
1146 4 2 1 1 163 138 212 192
1147 4 2 1 2 347 329 327 251
1148 4 2 1 2 310 322 323 284
1149 4 2 1 2 330 258 256 254
1150 4 2 1 2 324 283 248 278
1151 4 2 1 2 258 329 286 251
1152 4 2 1 2 311 326 327 289
1153 4 2 1 2 323 326 310 295
1154 4 2 1 2 325 323 324 278
1155 4 2 1 2 323 278 295 284
1156 4 2 1 2 295 289 326 270
1157 4 2 1 2 301 304 319 366
1158 4 2 1 2 330 329 353 258
1159 4 2 1 2 324 366 345 283
1160 4 2 1 2 114 354 279 378
1161 4 2 1 2 320 317 302 322
1162 4 2 1 2 253 254 370 236
1163 4 2 1 2 110 109 113 378
1164 4 2 1 2 114 110 113 378
1165 4 2 1 2 110 114 279 378
1166 4 2 1 2 279 354 109 378
1167 4 2 1 2 325 326 323 295
1168 4 2 1 2 354 113 109 378
1169 4 2 1 2 324 323 321 278
1170 4 2 1 2 257 371 256 255
1171 4 2 1 2 244 319 315 320
1172 4 2 1 2 369 230 249 248
1173 4 2 1 2 345 117 118 247
1174 4 2 1 2 117 345 304 239
1175 4 2 1 2 278 248 325 250
1176 4 2 1 2 327 250 251 289
1177 4 2 1 2 319 318 244 315
1178 4 2 1 2 287 327 251 289
1179 4 2 1 2 367 252 231 286
1180 4 2 1 2 368 270 69 68
1181 4 2 1 2 347 327 325 250
1182 4 2 1 2 311 359 84 235
1183 4 2 1 2 321 323 322 284
1184 4 2 1 2 342 238 336 343
1185 4 2 1 2 238 342 336 262
1186 4 2 1 2 336 263 238 262
1187 4 2 1 2 333 263 335 336
1188 4 2 1 2 335 260 267 275
1189 4 2 1 2 335 267 263 275
1190 4 2 1 2 263 333 335 275
1191 4 2 1 2 336 333 263 262
1192 4 2 1 2 275 263 333 262
1193 4 2 1 2 333 336 342 262
1194 4 2 1 2 342 237 333 262
1195 4 2 1 2 237 342 333 313
1196 4 2 1 2 237 275 333 262
1197 4 2 1 2 335 334 260 275
1198 4 2 1 2 334 335 333 275
1199 4 2 1 2 259 260 334 275
1200 4 2 1 2 259 334 333 275
1201 4 2 1 2 259 333 237 275
1202 4 2 1 2 283 366 301 246
1203 4 2 1 2 229 365 66 67
1204 4 2 1 2 332 331 341 255
1205 4 2 1 2 330 328 329 258
1206 4 2 1 2 242 309 91 344
1207 4 2 1 2 309 242 91 271
1208 4 2 1 2 274 233 125 103
1209 4 2 1 2 233 125 350 274
1210 4 2 1 2 343 342 238 75
1211 4 2 1 2 262 238 342 75
1212 4 2 1 2 342 237 262 74
1213 4 2 1 2 342 313 237 74
1214 4 2 1 2 350 308 125 233
1215 4 2 1 2 339 309 343 238
1216 4 2 1 2 339 263 238 336
1217 4 2 1 2 336 339 343 238
1218 4 2 1 2 238 271 343 76
1219 4 2 1 2 309 264 271 238
1220 4 2 1 2 309 90 343 271
1221 4 2 1 2 352 339 340 264
1222 4 2 1 2 309 91 90 271
1223 4 2 1 2 330 341 370 254
1224 4 2 1 2 308 349 124 102
1225 4 2 1 2 277 352 266 264
1226 4 2 1 2 248 249 369 250
1227 4 2 1 2 242 91 271 77
1228 4 2 1 2 274 125 350 104
1229 4 2 1 2 125 233 102 103
1230 4 2 1 2 104 274 125 103
1231 4 2 1 2 75 238 343 76
1232 4 2 1 2 342 343 89 75
1233 4 2 1 2 74 262 342 75
1234 4 2 1 2 313 237 74 73
1235 4 2 1 2 313 342 88 74
1236 4 2 1 2 102 125 124 308
1237 4 2 1 2 233 125 102 308
1238 4 2 1 2 92 91 344 242
1239 4 2 1 2 101 273 349 232
1240 4 2 1 2 271 90 343 76
1241 4 2 1 2 271 91 90 77
1242 4 2 1 2 309 339 264 238
1243 4 2 1 2 263 339 238 264
1244 4 2 1 2 337 340 339 264
1245 4 2 1 2 101 349 307 232
1246 4 2 1 2 353 306 348 290
1247 4 2 1 2 337 335 267 263
1248 4 2 1 2 335 337 336 263
1249 4 2 1 2 266 352 340 264
1250 4 2 1 2 108 111 112 357
1251 4 2 1 2 18 17 318 243
1252 4 2 1 2 230 369 247 248
1253 4 2 1 2 331 255 261 236
1254 4 2 1 2 251 258 329 287
1255 4 2 1 2 125 126 350 104
1256 4 2 1 2 75 343 89 76
1257 4 2 1 2 90 89 343 76
1258 4 2 1 2 89 88 342 75
1259 4 2 1 2 74 342 88 75
1260 4 2 1 2 88 87 313 74
1261 4 2 1 2 74 87 313 73
1262 4 2 1 2 318 18 243 240
1263 4 2 1 2 127 106 351 105
1264 4 2 1 2 360 353 348 290
1265 4 2 1 2 92 91 242 77
1266 4 2 1 2 76 271 90 77
1267 4 2 1 2 15 19 18 240
1268 4 2 1 2 15 19 240 14
1269 4 2 1 2 338 257 260 259
1270 4 2 1 2 307 123 349 101
1271 4 2 1 2 123 124 349 102
1272 4 2 1 2 334 338 260 259
1273 4 2 1 2 112 241 357 316
1274 4 2 1 2 280 94 93 355
1275 4 2 1 2 339 336 337 263
1276 4 2 1 2 340 337 265 264
1277 4 2 1 2 340 265 266 264
1278 4 2 1 2 338 257 259 255
1279 4 2 1 2 349 273 101 102
1280 4 2 1 2 264 277 309 271
1281 4 2 1 2 351 314 127 234
1282 4 2 1 2 332 333 313 237
1283 4 2 1 2 333 259 237 332
1284 4 2 1 2 333 332 334 259
1285 4 2 1 2 261 259 332 237
1286 4 2 1 2 18 16 318 17
1287 4 2 1 2 234 126 350 314
1288 4 2 1 2 269 82 81 68
1289 4 2 1 2 81 269 68 67
1290 4 2 1 2 272 100 307 232
1291 4 2 1 2 112 316 113 241
1292 4 2 1 2 242 92 77 78
1293 4 2 1 2 255 259 332 261
1294 4 2 1 2 101 123 349 102
1295 4 2 1 2 237 313 331 73
1296 4 2 1 2 347 327 250 251
1297 4 2 1 2 318 18 240 15
1298 4 2 1 2 100 101 307 232
1299 4 2 1 2 126 127 314 234
1300 4 2 1 2 290 367 231 286
1301 4 2 1 2 325 369 249 250
1302 4 2 1 2 331 261 237 73
1303 4 2 1 2 364 265 288 266
1304 4 2 1 2 352 264 309 339
1305 4 2 1 2 341 256 255 254
1306 4 2 1 2 311 84 83 235
1307 4 2 1 2 234 274 350 104
1308 4 2 1 2 263 337 339 264
1309 4 2 1 2 338 332 341 255
1310 4 2 1 2 370 328 254 253
1311 4 2 1 2 337 267 265 263
1312 4 2 1 2 241 109 113 108
1313 4 2 1 2 111 282 108 107
1314 4 2 1 2 282 111 108 357
1315 4 2 1 2 70 83 235 69
1316 4 2 1 2 264 352 309 277
1317 4 2 1 2 122 101 123 307
1318 4 2 1 2 122 101 307 100
1319 4 2 1 2 241 112 357 108
1320 4 2 1 2 19 14 281 240
1321 4 2 1 2 16 18 318 15
1322 4 2 1 2 106 127 351 128
1323 4 2 1 2 106 276 351 105
1324 4 2 1 2 365 317 302 229
1325 4 2 1 2 304 280 301 319
1326 4 2 1 2 312 253 236 71
1327 4 2 1 2 313 87 331 73
1328 4 2 1 2 80 65 317 66
1329 4 2 1 2 234 127 351 105
1330 4 2 1 2 98 99 306 231
1331 4 2 1 2 312 236 72 71
1332 4 2 1 2 369 325 248 250
1333 4 2 1 2 99 100 348 272
1334 4 2 1 2 126 234 350 104
1335 4 2 1 2 241 113 112 108
1336 4 2 1 2 98 121 306 99
1337 4 2 1 2 280 304 355 319
1338 4 2 1 2 116 94 95 239
1339 4 2 1 2 105 234 126 104
1340 4 2 1 2 72 261 331 73
1341 4 2 1 2 305 347 369 249
1342 4 2 1 2 263 265 337 264
1343 4 2 1 2 348 121 100 99
1344 4 2 1 2 254 328 258 287
1345 4 2 1 2 346 305 252 249
1346 4 2 1 2 82 81 310 269
1347 4 2 1 2 117 345 239 247
1348 4 2 1 2 305 346 347 249
1349 4 2 1 2 126 127 234 105
1350 4 2 1 2 354 279 109 241
1351 4 2 1 2 14 13 20 281
1352 4 2 1 2 359 311 328 235
1353 4 2 1 2 14 13 281 356
1354 4 2 1 2 232 273 361 291
1355 4 2 1 2 86 73 331 87
1356 4 2 1 2 73 86 331 72
1357 4 2 1 2 273 361 349 232
1358 4 2 1 2 302 322 365 229
1359 4 2 1 2 273 362 361 293
1360 4 2 1 2 287 254 328 253
1361 4 2 1 2 233 350 363 274
1362 4 2 1 2 293 363 233 362
1363 4 2 1 2 233 362 273 293
1364 4 2 1 2 274 363 233 294
1365 4 2 1 2 293 363 294 233
1366 4 2 1 2 363 267 293 294
1367 4 2 1 2 335 363 293 362
1368 4 2 1 2 267 363 293 335
1369 4 2 1 2 267 260 335 293
1370 4 2 1 2 363 233 362 308
1371 4 2 1 2 233 362 308 273
1372 4 2 1 2 350 233 363 308
1373 4 2 1 2 291 273 361 293
1374 4 2 1 2 121 98 306 120
1375 4 2 1 2 362 335 334 293
1376 4 2 1 2 260 334 335 293
1377 4 2 1 2 332 331 255 261
1378 4 2 1 2 265 340 364 337
1379 4 2 1 2 340 265 364 266
1380 4 2 1 2 348 121 122 100
1381 4 2 1 2 334 361 362 293
1382 4 2 1 2 361 334 260 293
1383 4 2 1 2 344 309 277 242
1384 4 2 1 2 361 260 291 293
1385 4 2 1 2 368 270 235 69
1386 4 2 1 2 260 257 361 291
1387 4 2 1 2 240 15 14 315
1388 4 2 1 2 65 80 317 79
1389 4 2 1 2 361 307 349 232
1390 4 2 1 2 230 252 305 249
1391 4 2 1 2 65 66 268 317
1392 4 2 1 2 252 98 346 231
1393 4 2 1 2 242 309 277 271
1394 4 2 1 2 72 85 312 71
1395 4 2 1 2 312 86 85 72
1396 4 2 1 2 368 269 270 68
1397 4 2 1 2 20 19 14 281
1398 4 2 1 2 362 349 308 273
1399 4 2 1 2 270 289 311 235
1400 4 2 1 2 338 334 332 259
1401 4 2 1 2 305 96 97 230
1402 4 2 1 2 357 241 108 282
1403 4 2 1 2 97 98 346 252
1404 4 2 1 2 307 272 232 292
1405 4 2 1 2 254 341 370 236
1406 4 2 1 2 362 361 349 273
1407 4 2 1 2 245 281 268 356
1408 4 2 1 2 84 83 235 70
1409 4 2 1 2 351 276 234 105
1410 4 2 1 2 121 348 306 99
1411 4 2 1 2 86 312 331 72
1412 4 2 1 2 290 272 348 292
1413 4 2 1 2 254 255 341 236
1414 4 2 1 2 354 113 316 241
1415 4 2 1 2 245 244 320 246
1416 4 2 1 2 117 304 116 239
1417 4 2 1 2 322 317 302 365
1418 4 2 1 2 95 118 247 96
1419 4 2 1 2 249 286 347 251
1420 4 2 1 2 290 348 360 292
1421 4 2 1 2 283 247 345 248
1422 4 2 1 2 97 120 346 98
1423 4 2 1 2 97 120 119 346
1424 4 2 1 2 96 119 305 97
1425 4 2 1 2 283 324 246 278
1426 4 2 1 2 332 338 259 255
1427 4 2 1 2 266 377 352 303
1428 4 2 1 2 311 368 326 270
1429 4 2 1 2 15 240 318 315
1430 4 2 1 2 365 229 269 67
1431 4 2 1 2 113 354 109 241
1432 4 2 1 2 95 117 116 239
1433 4 2 1 2 234 350 288 314
1434 4 2 1 2 358 279 351 354
1435 4 2 1 2 353 360 371 256
1436 4 2 1 2 359 235 253 70
1437 4 2 1 2 344 309 352 277
1438 4 2 1 2 231 272 348 290
1439 4 2 1 2 272 307 348 292
1440 4 2 1 2 277 282 344 242
1441 4 2 1 2 110 114 12 299
1442 4 2 1 2 13 2 20 373
1443 4 2 1 2 17 4 16 297
1444 4 2 1 2 289 326 250 295
1445 4 2 1 2 350 234 288 274
1446 4 2 1 2 327 326 325 250
1447 4 2 1 2 350 314 364 288
1448 4 2 1 2 353 371 330 256
1449 4 2 1 2 240 318 244 243
1450 4 2 1 2 253 312 359 71
1451 4 2 1 2 114 374 12 299
1452 4 2 1 2 279 358 351 285
1453 4 2 1 2 363 265 267 294
1454 4 2 1 2 363 337 335 267
1455 4 2 1 2 369 345 247 248
1456 4 2 1 2 252 305 97 230
1457 4 2 1 2 231 306 367 290
1458 4 2 1 2 279 354 358 241
1459 4 2 1 2 360 290 292 256
1460 4 2 1 2 269 81 365 67
1461 4 2 1 2 231 348 306 290
1462 4 2 1 2 359 253 71 70
1463 4 2 1 2 269 368 82 68
1464 4 2 1 2 93 116 355 94
1465 4 2 1 2 116 93 355 115
1466 4 2 1 2 377 357 352 303
1467 4 2 1 2 239 95 117 247
1468 4 2 1 2 316 358 354 241
1469 4 2 1 2 285 279 358 241
1470 4 2 1 2 329 328 327 251
1471 4 2 1 2 10 92 375 78
1472 4 2 1 2 232 361 360 291
1473 4 2 1 2 274 350 363 288
1474 4 2 1 2 288 363 274 294
1475 4 2 1 2 12 11 110 299
1476 4 2 1 2 1 20 2 298
1477 4 2 1 2 3 4 115 372
1478 4 2 1 2 115 4 297 372
1479 4 2 1 2 297 4 16 372
1480 4 2 1 2 4 3 16 372
1481 4 2 1 2 298 20 2 373
1482 4 2 1 2 375 9 10 78
1483 4 2 1 2 9 375 296 78
1484 4 2 1 2 376 314 351 300
1485 4 2 1 2 364 363 350 288
1486 4 2 1 2 286 290 353 258
1487 4 2 1 2 300 358 351 376
1488 4 2 1 2 280 94 304 239
1489 4 2 1 2 118 95 247 117
1490 4 2 1 2 367 353 329 286
1491 4 2 1 2 292 232 360 291
1492 4 2 1 2 258 290 353 256
1493 4 2 1 2 316 357 377 303
1494 4 2 1 2 325 278 250 295
1495 4 2 1 2 352 282 344 277
1496 4 2 1 2 85 359 312 71
1497 4 2 1 2 361 360 307 232
1498 4 2 1 2 321 320 302 322
1499 4 2 1 2 266 358 377 303
1500 4 2 1 2 288 376 266 300
1501 4 2 1 2 345 369 324 248
1502 4 2 1 2 281 245 240 356
1503 4 2 1 2 250 249 347 251
1504 4 2 1 2 360 348 307 292
1505 4 2 1 2 310 368 82 269
1506 4 2 1 2 363 288 265 294
1507 4 2 1 2 288 363 265 364
1508 4 2 1 2 96 119 118 305
1509 4 2 1 2 265 363 267 337
1510 4 2 1 2 360 353 290 256
1511 4 2 1 2 239 345 366 283
1512 4 2 1 2 79 298 2 373
1513 4 2 1 2 1 79 298 2
1514 4 2 1 2 365 310 81 269
1515 4 2 1 2 345 239 247 283
1516 4 2 1 2 352 266 303 277
1517 4 2 1 2 353 367 306 290
1518 4 2 1 2 280 355 318 319
1519 4 2 1 2 322 302 284 229
1520 4 2 1 2 235 359 84 70
1521 4 2 1 2 357 316 241 303
1522 4 2 1 2 257 360 361 291
1523 4 2 1 2 234 351 314 300
1524 4 2 1 2 358 300 351 285
1525 4 2 1 2 282 352 344 357
1526 4 2 1 2 358 376 300 266
1527 4 2 1 2 93 4 297 115
1528 4 2 1 2 266 285 358 303
1529 4 2 1 2 375 9 111 10
1530 4 2 1 2 9 375 111 296
1531 4 2 1 2 361 338 360 257
1532 4 2 1 2 257 292 360 291
1533 4 2 1 2 377 266 352 340
1534 4 2 1 2 311 368 270 235
1535 4 2 1 2 374 128 12 299
1536 4 2 1 2 12 11 299 106
1537 4 2 1 2 297 280 93 355
1538 4 2 1 2 79 1 298 65
1539 4 2 1 2 85 84 359 71
1540 4 2 1 2 71 84 359 70
1541 4 2 1 2 286 353 329 258
1542 4 2 1 2 285 351 279 276
1543 4 2 1 2 299 128 351 374
1544 4 2 1 2 352 303 282 277
1545 4 2 1 2 317 80 66 365
1546 4 2 1 2 345 366 304 239
1547 4 2 1 2 282 111 375 296
1548 4 2 1 2 376 288 266 364
1549 4 2 1 2 370 312 253 236
1550 4 2 1 2 289 311 326 270
1551 4 2 1 2 312 370 341 236
1552 4 2 1 2 329 347 367 286
1553 4 2 1 2 320 302 245 246
1554 4 2 1 2 337 363 364 265
1555 4 2 1 2 356 245 315 320
1556 4 2 1 2 278 323 246 284
1557 4 2 1 2 252 346 367 231
1558 4 2 1 2 318 240 244 315
1559 4 2 1 2 325 369 347 249
1560 4 2 1 2 358 300 285 266
1561 4 2 1 2 111 9 296 107
1562 4 2 1 2 288 314 376 300
1563 4 2 1 2 341 330 256 254
1564 4 2 1 2 79 268 298 373
1565 4 2 1 2 257 338 371 255
1566 4 2 1 2 303 357 352 282
1567 4 2 1 2 271 343 309 238
1568 4 2 1 2 299 128 12 106
1569 4 2 1 2 377 340 358 266
1570 4 2 1 2 244 240 245 315
1571 4 2 1 2 295 310 323 284
1572 4 2 1 2 244 301 319 246
1573 4 2 1 2 365 80 66 67
1574 4 2 1 2 371 341 330 256
1575 4 2 1 2 296 282 111 107
1576 4 2 1 2 357 111 375 282
1577 4 2 1 2 268 302 245 320
1578 4 2 1 2 299 276 351 106
1579 4 2 1 2 128 299 351 106
1580 4 2 1 2 80 365 81 67
1581 4 2 1 2 369 325 324 248
1582 4 2 1 2 315 245 244 320
1583 4 2 1 2 346 306 367 231
1584 4 2 1 2 241 357 303 282
1585 4 2 1 2 230 305 369 249
1586 4 2 1 2 304 301 280 239
1587 4 2 1 2 364 376 340 266
1588 4 2 1 2 315 240 245 356
1589 4 2 1 2 268 298 65 79
1590 4 2 1 2 234 276 351 300
1591 4 2 1 2 370 328 330 254
1592 4 2 1 2 284 295 310 269
1593 4 2 1 2 285 300 351 276
1594 4 2 1 2 302 268 317 320
1595 4 2 1 2 288 234 314 300
1596 4 2 1 2 354 299 114 279
1597 4 2 1 2 278 325 323 295
1598 4 2 1 2 358 316 377 303
1599 4 2 1 2 258 330 328 254
1600 4 2 1 2 239 366 301 283
1601 4 2 1 2 376 364 314 288
1602 4 2 1 2 376 358 340 266
1603 4 2 1 2 370 312 359 253
1604 4 2 1 2 69 82 368 68
1605 4 2 1 2 368 83 82 69
1606 4 2 1 2 244 301 280 319
1607 4 2 1 2 279 351 354 299
1608 4 2 1 2 328 327 251 287
1609 4 2 1 2 258 353 330 256
1610 4 2 1 2 268 79 317 373
1611 4 2 1 2 302 320 321 246
1612 4 2 1 2 366 324 321 283
1613 4 2 1 2 321 301 319 366
1614 4 2 1 2 248 325 324 278
1615 4 2 1 2 246 322 302 284
1616 4 2 1 2 316 358 241 303
1617 4 2 1 2 318 17 297 243
1618 4 2 1 2 358 285 241 303
1619 4 2 1 2 92 344 375 242
1620 4 2 1 2 299 110 114 279
1621 4 2 1 2 354 299 374 114
1622 4 2 1 2 268 302 317 229
1623 4 2 1 2 329 328 251 287
1624 4 2 1 2 323 321 246 284
1625 4 2 1 2 341 371 338 255
1626 4 2 1 2 299 351 354 374
1627 4 2 1 2 79 65 268 317
1628 4 2 1 2 16 297 318 17
1629 4 2 1 2 242 375 92 78
1630 4 2 1 2 375 242 296 78
1631 4 2 1 2 283 324 321 246
1632 4 2 1 2 373 281 13 356
1633 4 2 1 2 321 319 301 246
1634 4 2 1 2 281 13 20 373
1635 4 2 1 2 366 321 301 246
1636 4 2 1 2 353 367 290 286
1637 4 2 1 2 297 16 318 372
1638 4 2 1 2 283 345 324 248
1639 4 2 1 2 246 321 323 278
1640 4 2 1 2 20 298 281 373
1641 4 2 1 2 246 321 322 284
1642 4 2 1 2 282 375 344 242
1643 4 2 1 2 246 324 321 278
1644 4 2 1 2 279 351 299 276
1645 4 2 1 2 249 347 325 250
1646 4 2 1 2 329 347 286 251
1647 4 2 1 2 250 327 326 289
1648 4 2 1 2 328 370 359 253
1649 4 2 1 2 242 282 375 296
1650 4 2 1 2 328 329 258 287
1651 4 2 1 2 355 115 297 372
1652 4 2 1 2 94 116 304 239
1653 4 2 1 2 321 366 283 246
1654 4 2 1 2 322 302 321 246
1655 4 2 1 2 371 341 256 255
1656 4 2 1 2 373 317 268 356
1657 4 2 1 2 360 338 371 257
1658 4 2 1 2 326 325 250 295
1659 4 2 1 2 357 375 344 282
1660 4 2 1 2 115 297 93 355
1661 4 2 1 2 297 318 355 372
1662 4 2 1 2 232 360 307 292
1663 4 2 1 2 301 304 366 239
1664 4 2 1 2 279 109 110 378
1665 4 2 1 2 354 114 113 378
1666 4 2 1 2 236 341 331 255
1667 4 2 1 2 236 331 341 312
1668 4 2 1 2 235 289 327 287
1669 4 2 1 2 327 289 235 311
1670 4 2 1 2 327 328 235 287
1671 4 2 1 2 235 328 327 311
1672 4 2 1 2 338 260 361 334
1673 4 2 1 2 361 260 338 257
1674 4 2 1 2 355 94 304 280
1675 4 2 1 2 355 304 94 116
1676 4 2 1 2 244 318 280 243
1677 4 2 1 2 244 280 318 319
1678 4 2 1 2 346 97 305 119
1679 4 2 1 2 346 305 97 252
1680 4 2 1 2 328 253 235 287
1681 4 2 1 2 235 253 328 359
1682 4 2 1 2 348 231 99 272
1683 4 2 1 2 99 231 348 306
1684 4 2 1 2 229 317 66 365
1685 4 2 1 2 229 66 317 268
1686 4 2 1 2 246 319 320 321
1687 4 2 1 2 246 320 319 244
1688 4 2 1 2 308 273 102 233
1689 4 2 1 2 102 273 308 349
1690 4 2 1 2 295 269 326 310
1691 4 2 1 2 295 326 269 270
1692 4 2 1 2 368 326 269 310
1693 4 2 1 2 368 269 326 270
1694 4 2 1 2 306 98 346 120
1695 4 2 1 2 306 346 98 231
1696 4 2 1 2 237 331 332 261
1697 4 2 1 2 237 332 331 313
1698 4 2 1 2 286 249 367 252
1699 4 2 1 2 286 367 249 347
1700 4 2 1 2 346 367 249 252
1701 4 2 1 2 346 249 367 347
1702 4 2 1 2 269 284 322 310
1703 4 2 1 2 322 284 269 229
1704 4 2 1 2 322 365 269 310
1705 4 2 1 2 269 365 322 229
1706 4 2 1 2 268 320 356 317
1707 4 2 1 2 356 320 268 245
1708 4 2 1 2 236 331 72 261
1709 4 2 1 2 236 72 331 312
1710 4 2 1 2 83 235 368 311
1711 4 2 1 2 83 368 235 69
1712 4 2 1 2 356 240 14 315
1713 4 2 1 2 356 14 240 281
1714 4 2 1 2 100 348 307 122
1715 4 2 1 2 307 348 100 272
1716 4 2 1 2 305 96 247 118
1717 4 2 1 2 247 96 305 230
1718 4 2 1 2 247 345 305 118
1719 4 2 1 2 280 318 297 243
1720 4 2 1 2 297 318 280 355
1721 4 2 1 2 256 360 257 292
1722 4 2 1 2 256 257 360 371
1723 4 2 1 2 373 281 268 298
1724 4 2 1 2 268 281 373 356
1725 4 2 1 2 305 247 369 345
1726 4 2 1 2 369 247 305 230
$EndElements
