<svg xmlns="http://www.w3.org/2000/svg" width="1040" height="1300" viewBox="0 0 1040 1300">
<rect width="1040" height="1300" fill="#faf9f5"/>
<style>text{font-family:Arial,sans-serif;fill:#25333d}</style>
<text x="28" y="34" font-size="23">U3 / C9: agent repair trials</text>
<text x="28" y="58" font-size="13">Gold: +15V · Blue: ground · Red: protected track keepout</text>
<text x="24" y="85" font-size="17">1. Keepout intrusion: before</text>
<rect x="24" y="97" width="490" height="330" rx="6" fill="#fff" stroke="#d7dde0"/>
<svg x="32" y="107" width="474" height="310" viewBox="4.2 7.5 8.0 5.8">
<rect x="4.65" y="10.9" width="2.6999999999999993" height="1.1500000000000004" fill="#c4c9cb" stroke="#747d82" stroke-width=".02"/>
<rect x="4.65" y="7.95" width="2.6999999999999993" height="1.1499999999999995" fill="#c4c9cb" stroke="#747d82" stroke-width=".02"/>
<rect x="8.2" y="8.75" width="1.325000000000001" height="0.5999999999999996" fill="#c4c9cb" stroke="#747d82" stroke-width=".02"/>
<rect x="8.2" y="9.7" width="1.325000000000001" height="0.6000000000000014" fill="#c4c9cb" stroke="#747d82" stroke-width=".02"/>
<rect x="8.2" y="10.65" width="1.325000000000001" height="0.5999999999999996" fill="#c4c9cb" stroke="#747d82" stroke-width=".02"/>
<rect x="10.475" y="10.65" width="1.325000000000001" height="0.5999999999999996" fill="#c4c9cb" stroke="#747d82" stroke-width=".02"/>
<rect x="10.475" y="9.7" width="1.325000000000001" height="0.6000000000000014" fill="#c4c9cb" stroke="#747d82" stroke-width=".02"/>
<rect x="10.475" y="8.75" width="1.325000000000001" height="0.5999999999999996" fill="#c4c9cb" stroke="#747d82" stroke-width=".02"/>
<polygon points="7.55,10.5 7.95,10.5 7.95,12.0 7.55,12.0" fill="#ef6557" fill-opacity=".3" stroke="#b43832" stroke-width=".04"/>
<line x1="6.0" y1="11.475" x2="8.8625" y2="10.95" stroke="#ab771b" stroke-width="0.25" stroke-linecap="round"/>
<line x1="7.5" y1="8.525" x2="8.8625" y2="9.05" stroke="#237a9a" stroke-width="0.25" stroke-linecap="round"/>
<line x1="6.0" y1="8.525" x2="7.5" y2="8.525" stroke="#237a9a" stroke-width="0.25" stroke-linecap="round"/>
<text x="6.0" y="11.54" text-anchor="middle" font-size=".19">C9.1</text>
<text x="6.0" y="8.59" text-anchor="middle" font-size=".19">C9.2</text>
<text x="8.8625" y="9.115" text-anchor="middle" font-size=".19">U3.1</text>
<text x="8.8625" y="10.065" text-anchor="middle" font-size=".19">U3.2</text>
<text x="8.8625" y="11.014999999999999" text-anchor="middle" font-size=".19">U3.3</text>
<text x="11.1375" y="11.014999999999999" text-anchor="middle" font-size=".19">U3.4</text>
<text x="11.1375" y="10.065" text-anchor="middle" font-size=".19">U3.5</text>
<text x="11.1375" y="9.115" text-anchor="middle" font-size=".19">U3.6</text>
</svg>
<text x="538" y="85" font-size="17">1. Keepout intrusion: after — pass, 1 edit(s)</text>
<rect x="538" y="97" width="490" height="330" rx="6" fill="#fff" stroke="#d7dde0"/>
<svg x="546" y="107" width="474" height="310" viewBox="4.2 7.5 8.0 5.8">
<rect x="4.65" y="10.9" width="2.6999999999999993" height="1.1500000000000004" fill="#c4c9cb" stroke="#747d82" stroke-width=".02"/>
<rect x="4.65" y="7.95" width="2.6999999999999993" height="1.1499999999999995" fill="#c4c9cb" stroke="#747d82" stroke-width=".02"/>
<rect x="8.2" y="8.75" width="1.325000000000001" height="0.5999999999999996" fill="#c4c9cb" stroke="#747d82" stroke-width=".02"/>
<rect x="8.2" y="9.7" width="1.325000000000001" height="0.6000000000000014" fill="#c4c9cb" stroke="#747d82" stroke-width=".02"/>
<rect x="8.2" y="10.65" width="1.325000000000001" height="0.5999999999999996" fill="#c4c9cb" stroke="#747d82" stroke-width=".02"/>
<rect x="10.475" y="10.65" width="1.325000000000001" height="0.5999999999999996" fill="#c4c9cb" stroke="#747d82" stroke-width=".02"/>
<rect x="10.475" y="9.7" width="1.325000000000001" height="0.6000000000000014" fill="#c4c9cb" stroke="#747d82" stroke-width=".02"/>
<rect x="10.475" y="8.75" width="1.325000000000001" height="0.5999999999999996" fill="#c4c9cb" stroke="#747d82" stroke-width=".02"/>
<polygon points="7.55,10.5 7.95,10.5 7.95,12.0 7.55,12.0" fill="#ef6557" fill-opacity=".3" stroke="#b43832" stroke-width=".04"/>
<line x1="6.0" y1="11.475" x2="6.0" y2="12.5" stroke="#ab771b" stroke-width="0.25" stroke-linecap="round"/>
<line x1="6.0" y1="12.5" x2="8.8625" y2="12.5" stroke="#ab771b" stroke-width="0.25" stroke-linecap="round"/>
<line x1="8.8625" y1="12.5" x2="8.8625" y2="10.95" stroke="#ab771b" stroke-width="0.25" stroke-linecap="round"/>
<line x1="7.5" y1="8.525" x2="8.8625" y2="9.05" stroke="#237a9a" stroke-width="0.25" stroke-linecap="round"/>
<line x1="6.0" y1="8.525" x2="7.5" y2="8.525" stroke="#237a9a" stroke-width="0.25" stroke-linecap="round"/>
<text x="6.0" y="11.54" text-anchor="middle" font-size=".19">C9.1</text>
<text x="6.0" y="8.59" text-anchor="middle" font-size=".19">C9.2</text>
<text x="8.8625" y="9.115" text-anchor="middle" font-size=".19">U3.1</text>
<text x="8.8625" y="10.065" text-anchor="middle" font-size=".19">U3.2</text>
<text x="8.8625" y="11.014999999999999" text-anchor="middle" font-size=".19">U3.3</text>
<text x="11.1375" y="11.014999999999999" text-anchor="middle" font-size=".19">U3.4</text>
<text x="11.1375" y="10.065" text-anchor="middle" font-size=".19">U3.5</text>
<text x="11.1375" y="9.115" text-anchor="middle" font-size=".19">U3.6</text>
</svg>
<text x="28" y="448" font-size="13">85.1 seconds · Full run audit: pass · Independent board check: pass</text>
<text x="24" y="470" font-size="17">2. Copper clearance: before</text>
<rect x="24" y="482" width="490" height="330" rx="6" fill="#fff" stroke="#d7dde0"/>
<svg x="32" y="492" width="474" height="310" viewBox="4.2 7.5 8.0 5.8">
<rect x="4.65" y="10.9" width="2.6999999999999993" height="1.1500000000000004" fill="#c4c9cb" stroke="#747d82" stroke-width=".02"/>
<rect x="4.65" y="7.95" width="2.6999999999999993" height="1.1499999999999995" fill="#c4c9cb" stroke="#747d82" stroke-width=".02"/>
<rect x="8.2" y="8.75" width="1.325000000000001" height="0.5999999999999996" fill="#c4c9cb" stroke="#747d82" stroke-width=".02"/>
<rect x="8.2" y="9.7" width="1.325000000000001" height="0.6000000000000014" fill="#c4c9cb" stroke="#747d82" stroke-width=".02"/>
<rect x="8.2" y="10.65" width="1.325000000000001" height="0.5999999999999996" fill="#c4c9cb" stroke="#747d82" stroke-width=".02"/>
<rect x="10.475" y="10.65" width="1.325000000000001" height="0.5999999999999996" fill="#c4c9cb" stroke="#747d82" stroke-width=".02"/>
<rect x="10.475" y="9.7" width="1.325000000000001" height="0.6000000000000014" fill="#c4c9cb" stroke="#747d82" stroke-width=".02"/>
<rect x="10.475" y="8.75" width="1.325000000000001" height="0.5999999999999996" fill="#c4c9cb" stroke="#747d82" stroke-width=".02"/>
<polygon points="7.55,10.5 7.95,10.5 7.95,12.0 7.55,12.0" fill="#ef6557" fill-opacity=".3" stroke="#b43832" stroke-width=".04"/>
<line x1="6.0" y1="11.475" x2="6.0" y2="12.5" stroke="#ab771b" stroke-width="0.25" stroke-linecap="round"/>
<line x1="6.0" y1="12.5" x2="9.9" y2="12.5" stroke="#ab771b" stroke-width="0.25" stroke-linecap="round"/>
<line x1="8.8625" y1="10.5" x2="8.8625" y2="10.95" stroke="#ab771b" stroke-width="0.25" stroke-linecap="round"/>
<line x1="7.5" y1="8.525" x2="8.8625" y2="9.05" stroke="#237a9a" stroke-width="0.25" stroke-linecap="round"/>
<line x1="9.9" y1="10.5" x2="8.8625" y2="10.5" stroke="#ab771b" stroke-width="0.25" stroke-linecap="round"/>
<line x1="6.0" y1="8.525" x2="7.5" y2="8.525" stroke="#237a9a" stroke-width="0.25" stroke-linecap="round"/>
<line x1="9.9" y1="12.5" x2="9.9" y2="10.5" stroke="#ab771b" stroke-width="0.25" stroke-linecap="round"/>
<text x="6.0" y="11.54" text-anchor="middle" font-size=".19">C9.1</text>
<text x="6.0" y="8.59" text-anchor="middle" font-size=".19">C9.2</text>
<text x="8.8625" y="9.115" text-anchor="middle" font-size=".19">U3.1</text>
<text x="8.8625" y="10.065" text-anchor="middle" font-size=".19">U3.2</text>
<text x="8.8625" y="11.014999999999999" text-anchor="middle" font-size=".19">U3.3</text>
<text x="11.1375" y="11.014999999999999" text-anchor="middle" font-size=".19">U3.4</text>
<text x="11.1375" y="10.065" text-anchor="middle" font-size=".19">U3.5</text>
<text x="11.1375" y="9.115" text-anchor="middle" font-size=".19">U3.6</text>
</svg>
<text x="538" y="470" font-size="17">2. Copper clearance: after — pass, 1 edit(s)</text>
<rect x="538" y="482" width="490" height="330" rx="6" fill="#fff" stroke="#d7dde0"/>
<svg x="546" y="492" width="474" height="310" viewBox="4.2 7.5 8.0 5.8">
<rect x="4.65" y="10.9" width="2.6999999999999993" height="1.1500000000000004" fill="#c4c9cb" stroke="#747d82" stroke-width=".02"/>
<rect x="4.65" y="7.95" width="2.6999999999999993" height="1.1499999999999995" fill="#c4c9cb" stroke="#747d82" stroke-width=".02"/>
<rect x="8.2" y="8.75" width="1.325000000000001" height="0.5999999999999996" fill="#c4c9cb" stroke="#747d82" stroke-width=".02"/>
<rect x="8.2" y="9.7" width="1.325000000000001" height="0.6000000000000014" fill="#c4c9cb" stroke="#747d82" stroke-width=".02"/>
<rect x="8.2" y="10.65" width="1.325000000000001" height="0.5999999999999996" fill="#c4c9cb" stroke="#747d82" stroke-width=".02"/>
<rect x="10.475" y="10.65" width="1.325000000000001" height="0.5999999999999996" fill="#c4c9cb" stroke="#747d82" stroke-width=".02"/>
<rect x="10.475" y="9.7" width="1.325000000000001" height="0.6000000000000014" fill="#c4c9cb" stroke="#747d82" stroke-width=".02"/>
<rect x="10.475" y="8.75" width="1.325000000000001" height="0.5999999999999996" fill="#c4c9cb" stroke="#747d82" stroke-width=".02"/>
<polygon points="7.55,10.5 7.95,10.5 7.95,12.0 7.55,12.0" fill="#ef6557" fill-opacity=".3" stroke="#b43832" stroke-width=".04"/>
<line x1="8.8625" y1="12.5" x2="8.8625" y2="10.95" stroke="#ab771b" stroke-width="0.25" stroke-linecap="round"/>
<line x1="7.5" y1="8.525" x2="8.8625" y2="9.05" stroke="#237a9a" stroke-width="0.25" stroke-linecap="round"/>
<line x1="6.0" y1="12.5" x2="8.8625" y2="12.5" stroke="#ab771b" stroke-width="0.25" stroke-linecap="round"/>
<line x1="6.0" y1="11.475" x2="6.0" y2="12.5" stroke="#ab771b" stroke-width="0.25" stroke-linecap="round"/>
<line x1="6.0" y1="8.525" x2="7.5" y2="8.525" stroke="#237a9a" stroke-width="0.25" stroke-linecap="round"/>
<text x="6.0" y="11.54" text-anchor="middle" font-size=".19">C9.1</text>
<text x="6.0" y="8.59" text-anchor="middle" font-size=".19">C9.2</text>
<text x="8.8625" y="9.115" text-anchor="middle" font-size=".19">U3.1</text>
<text x="8.8625" y="10.065" text-anchor="middle" font-size=".19">U3.2</text>
<text x="8.8625" y="11.014999999999999" text-anchor="middle" font-size=".19">U3.3</text>
<text x="11.1375" y="11.014999999999999" text-anchor="middle" font-size=".19">U3.4</text>
<text x="11.1375" y="10.065" text-anchor="middle" font-size=".19">U3.5</text>
<text x="11.1375" y="9.115" text-anchor="middle" font-size=".19">U3.6</text>
</svg>
<text x="28" y="833" font-size="13">61.4 seconds · Full run audit: pass · Independent board check: pass</text>
<text x="24" y="855" font-size="17">3. Disconnected ground: before</text>
<rect x="24" y="867" width="490" height="330" rx="6" fill="#fff" stroke="#d7dde0"/>
<svg x="32" y="877" width="474" height="310" viewBox="4.2 7.5 8.0 5.8">
<rect x="4.65" y="10.9" width="2.6999999999999993" height="1.1500000000000004" fill="#c4c9cb" stroke="#747d82" stroke-width=".02"/>
<rect x="4.65" y="7.95" width="2.6999999999999993" height="1.1499999999999995" fill="#c4c9cb" stroke="#747d82" stroke-width=".02"/>
<rect x="8.2" y="8.75" width="1.325000000000001" height="0.5999999999999996" fill="#c4c9cb" stroke="#747d82" stroke-width=".02"/>
<rect x="8.2" y="9.7" width="1.325000000000001" height="0.6000000000000014" fill="#c4c9cb" stroke="#747d82" stroke-width=".02"/>
<rect x="8.2" y="10.65" width="1.325000000000001" height="0.5999999999999996" fill="#c4c9cb" stroke="#747d82" stroke-width=".02"/>
<rect x="10.475" y="10.65" width="1.325000000000001" height="0.5999999999999996" fill="#c4c9cb" stroke="#747d82" stroke-width=".02"/>
<rect x="10.475" y="9.7" width="1.325000000000001" height="0.6000000000000014" fill="#c4c9cb" stroke="#747d82" stroke-width=".02"/>
<rect x="10.475" y="8.75" width="1.325000000000001" height="0.5999999999999996" fill="#c4c9cb" stroke="#747d82" stroke-width=".02"/>
<polygon points="7.55,10.5 7.95,10.5 7.95,12.0 7.55,12.0" fill="#ef6557" fill-opacity=".3" stroke="#b43832" stroke-width=".04"/>
<line x1="6.0" y1="8.525" x2="7.5" y2="8.525" stroke="#237a9a" stroke-width="0.25" stroke-linecap="round"/>
<line x1="8.1" y1="8.9" x2="8.8625" y2="9.05" stroke="#237a9a" stroke-width="0.25" stroke-linecap="round"/>
<line x1="8.8625" y1="12.5" x2="8.8625" y2="10.95" stroke="#ab771b" stroke-width="0.25" stroke-linecap="round"/>
<line x1="6.0" y1="11.475" x2="6.0" y2="12.5" stroke="#ab771b" stroke-width="0.25" stroke-linecap="round"/>
<line x1="6.0" y1="12.5" x2="8.8625" y2="12.5" stroke="#ab771b" stroke-width="0.25" stroke-linecap="round"/>
<text x="6.0" y="11.54" text-anchor="middle" font-size=".19">C9.1</text>
<text x="6.0" y="8.59" text-anchor="middle" font-size=".19">C9.2</text>
<text x="8.8625" y="9.115" text-anchor="middle" font-size=".19">U3.1</text>
<text x="8.8625" y="10.065" text-anchor="middle" font-size=".19">U3.2</text>
<text x="8.8625" y="11.014999999999999" text-anchor="middle" font-size=".19">U3.3</text>
<text x="11.1375" y="11.014999999999999" text-anchor="middle" font-size=".19">U3.4</text>
<text x="11.1375" y="10.065" text-anchor="middle" font-size=".19">U3.5</text>
<text x="11.1375" y="9.115" text-anchor="middle" font-size=".19">U3.6</text>
</svg>
<text x="538" y="855" font-size="17">3. Disconnected ground: after — pass, 1 edit(s)</text>
<rect x="538" y="867" width="490" height="330" rx="6" fill="#fff" stroke="#d7dde0"/>
<svg x="546" y="877" width="474" height="310" viewBox="4.2 7.5 8.0 5.8">
<rect x="4.65" y="10.9" width="2.6999999999999993" height="1.1500000000000004" fill="#c4c9cb" stroke="#747d82" stroke-width=".02"/>
<rect x="4.65" y="7.95" width="2.6999999999999993" height="1.1499999999999995" fill="#c4c9cb" stroke="#747d82" stroke-width=".02"/>
<rect x="8.2" y="8.75" width="1.325000000000001" height="0.5999999999999996" fill="#c4c9cb" stroke="#747d82" stroke-width=".02"/>
<rect x="8.2" y="9.7" width="1.325000000000001" height="0.6000000000000014" fill="#c4c9cb" stroke="#747d82" stroke-width=".02"/>
<rect x="8.2" y="10.65" width="1.325000000000001" height="0.5999999999999996" fill="#c4c9cb" stroke="#747d82" stroke-width=".02"/>
<rect x="10.475" y="10.65" width="1.325000000000001" height="0.5999999999999996" fill="#c4c9cb" stroke="#747d82" stroke-width=".02"/>
<rect x="10.475" y="9.7" width="1.325000000000001" height="0.6000000000000014" fill="#c4c9cb" stroke="#747d82" stroke-width=".02"/>
<rect x="10.475" y="8.75" width="1.325000000000001" height="0.5999999999999996" fill="#c4c9cb" stroke="#747d82" stroke-width=".02"/>
<polygon points="7.55,10.5 7.95,10.5 7.95,12.0 7.55,12.0" fill="#ef6557" fill-opacity=".3" stroke="#b43832" stroke-width=".04"/>
<line x1="8.8625" y1="12.5" x2="8.8625" y2="10.95" stroke="#ab771b" stroke-width="0.25" stroke-linecap="round"/>
<line x1="6.0" y1="11.475" x2="6.0" y2="12.5" stroke="#ab771b" stroke-width="0.25" stroke-linecap="round"/>
<line x1="6.0" y1="8.525" x2="8.8625" y2="9.05" stroke="#237a9a" stroke-width="0.25" stroke-linecap="round"/>
<line x1="6.0" y1="12.5" x2="8.8625" y2="12.5" stroke="#ab771b" stroke-width="0.25" stroke-linecap="round"/>
<text x="6.0" y="11.54" text-anchor="middle" font-size=".19">C9.1</text>
<text x="6.0" y="8.59" text-anchor="middle" font-size=".19">C9.2</text>
<text x="8.8625" y="9.115" text-anchor="middle" font-size=".19">U3.1</text>
<text x="8.8625" y="10.065" text-anchor="middle" font-size=".19">U3.2</text>
<text x="8.8625" y="11.014999999999999" text-anchor="middle" font-size=".19">U3.3</text>
<text x="11.1375" y="11.014999999999999" text-anchor="middle" font-size=".19">U3.4</text>
<text x="11.1375" y="10.065" text-anchor="middle" font-size=".19">U3.5</text>
<text x="11.1375" y="9.115" text-anchor="middle" font-size=".19">U3.6</text>
</svg>
<text x="28" y="1218" font-size="13">26.0 seconds · Full run audit: pass · Independent board check: pass</text>
<text x="28" y="1265" font-size="12">Native measured copper coordinates and widths. Pads shown as bounding boxes, not exact rounded contours.</text>
<text x="28" y="1285" font-size="12">Fixture experiment only; this diagram is illustrative and is not the validator.</text>
</svg>
