$MeshFormat
2.2 0 8
$EndMeshFormat
$Nodes
424
1 0.07829999999999999 0.12935 7.000000000000001e-05
2 0.07829999999999999 0.12935 0
3 0.07829999999999999 0.13465 7.000000000000001e-05
4 0.07829999999999999 0.13465 0
5 0.0818 0.12935 0
6 0.0818 0.12935 7.000000000000001e-05
7 0.0818 0.13465 7.000000000000001e-05
8 0.0818 0.134 7.000000000000001e-05
9 0.08070000000000001 0.134 7.000000000000001e-05
10 0.08070000000000001 0.13 7.000000000000001e-05
11 0.0818 0.13 7.000000000000001e-05
12 0.0818 0.13465 0
13 0.0818 0.134 0
14 0.08070000000000001 0.134 0
15 0.08070000000000001 0.13 0
16 0.0818 0.13 0
17 0.08179999999999997 0.1336703293088491 7.000000000000001e-05
18 0.08179999999999997 0.1336703293088491 0
19 0.08179999999999996 0.130329670691151 7.000000000000001e-05
20 0.08179999999999996 0.130329670691151 0
21 0.0742 0.12935 7.000000000000001e-05
22 0.07419999999999996 0.1295890873097518 7.000000000000001e-05
23 0.07419999999999996 0.1295890873097518 0
24 0.0742 0.12935 0
25 0.07529999999999999 0.12935 7.000000000000001e-05
26 0.07529999999999999 0.12935 0
27 0.07419999999999995 0.1344109126902482 7.000000000000001e-05
28 0.07419999999999995 0.1344109126902482 0
29 0.07529999999999999 0.13465 7.000000000000001e-05
30 0.07529999999999999 0.13465 0
31 0.0742 0.13465 7.000000000000001e-05
32 0.0742 0.13465 0
33 0.07770000000000001 0.12935 0
34 0.07770000000000001 0.12935 7.000000000000001e-05
35 0.0777000000000002 0.1308763897472887 0
36 0.0777000000000002 0.1308763897472887 7.000000000000001e-05
37 0.0777000000000002 0.1331236102527114 7.000000000000001e-05
38 0.0777000000000002 0.1331236102527114 0
39 0.07770000000000001 0.13465 0
40 0.07770000000000001 0.13465 7.000000000000001e-05
41 0.0839 0.13 0
42 0.0839 0.13 7.000000000000001e-05
43 0.0839 0.134 0
44 0.08270000000000001 0.132 0
45 0.0839 0.134 7.000000000000001e-05
46 0.08270000000000001 0.132 7.000000000000001e-05
47 0.0711 0.12935 7.000000000000001e-05
48 0.0711 0.12935 0
49 0.0711 0.13465 7.000000000000001e-05
50 0.0711 0.13465 0
51 0.07794999999999999 0.132 7.000000000000001e-05
52 0.07794999999999999 0.132 0
53 0.07829999999999999 0.1301071428571428 7.000000000000001e-05
54 0.07829999999999999 0.1308642857142857 7.000000000000001e-05
55 0.07829999999999999 0.1316214285714286 7.000000000000001e-05
56 0.07829999999999999 0.1323785714285714 7.000000000000001e-05
57 0.07829999999999999 0.1331357142857143 7.000000000000001e-05
58 0.07829999999999999 0.1338928571428571 7.000000000000001e-05
59 0.07829999999999999 0.1301071428571428 0
60 0.07829999999999999 0.1308642857142857 0
61 0.07829999999999999 0.1316214285714286 0
62 0.07829999999999999 0.1323785714285714 0
63 0.07829999999999999 0.1331357142857143 0
64 0.07829999999999999 0.1338928571428571 0
65 0.079 0.12935 0
66 0.07969999999999999 0.12935 0
67 0.0804 0.12935 0
68 0.08109999999999999 0.12935 0
69 0.079 0.12935 7.000000000000001e-05
70 0.07969999999999999 0.12935 7.000000000000001e-05
71 0.0804 0.12935 7.000000000000001e-05
72 0.08109999999999999 0.12935 7.000000000000001e-05
73 0.079 0.13465 7.000000000000001e-05
74 0.07969999999999999 0.13465 7.000000000000001e-05
75 0.0804 0.13465 7.000000000000001e-05
76 0.08109999999999999 0.13465 7.000000000000001e-05
77 0.08125 0.134 7.000000000000001e-05
78 0.07993463313526983 0.1338477590650226 7.000000000000001e-05
79 0.07928578643762692 0.1334142135623731 7.000000000000001e-05
80 0.07885224093497743 0.1327653668647302 7.000000000000001e-05
81 0.07870000000000001 0.132 7.000000000000001e-05
82 0.07885224093497743 0.1312346331352698 7.000000000000001e-05
83 0.0792857864376269 0.1305857864376269 7.000000000000001e-05
84 0.07993463313526983 0.1301522409349774 7.000000000000001e-05
85 0.08125 0.13 7.000000000000001e-05
86 0.079 0.13465 0
87 0.07969999999999999 0.13465 0
88 0.0804 0.13465 0
89 0.08109999999999999 0.13465 0
90 0.08125 0.134 0
91 0.07993463313526983 0.1338477590650226 0
92 0.07928578643762692 0.1334142135623731 0
93 0.07885224093497743 0.1327653668647302 0
94 0.07870000000000001 0.132 0
95 0.07885224093497743 0.1312346331352698 0
96 0.0792857864376269 0.1305857864376269 0
97 0.07993463313526983 0.1301522409349774 0
98 0.08125 0.13 0
99 0.08127416956654891 0.1339158103530488 7.000000000000001e-05
100 0.08127416956654891 0.1339158103530488 0
101 0.08070000000000001 0.1308 7.000000000000001e-05
102 0.08070000000000001 0.1316 7.000000000000001e-05
103 0.08070000000000001 0.1324 7.000000000000001e-05
104 0.08070000000000001 0.1332 7.000000000000001e-05
105 0.08070000000000001 0.1308 0
106 0.08070000000000001 0.1316 0
107 0.08070000000000001 0.1324 0
108 0.08070000000000001 0.1332 0
109 0.08127416956654891 0.1300841896469512 7.000000000000001e-05
110 0.08127416956654891 0.1300841896469512 0
111 0.0818 0.1309978024146906 7.000000000000001e-05
112 0.0818 0.1316659341382302 7.000000000000001e-05
113 0.0818 0.1323340658617698 7.000000000000001e-05
114 0.0818 0.1330021975853094 7.000000000000001e-05
115 0.0818 0.1309978024146906 0
116 0.0818 0.1316659341382302 0
117 0.0818 0.1323340658617698 0
118 0.0818 0.1330021975853094 0
119 0.07473715838336072 0.1294104615634096 7.000000000000001e-05
120 0.07475 0.12935 7.000000000000001e-05
121 0.07473715838336072 0.1294104615634096 0
122 0.07475 0.12935 0
123 0.0742 0.1302779195069656 7.000000000000001e-05
124 0.0742 0.1309667517041793 7.000000000000001e-05
125 0.0742 0.1316555839013931 7.000000000000001e-05
126 0.0742 0.1323444160986069 7.000000000000001e-05
127 0.0742 0.1330332482958207 7.000000000000001e-05
128 0.0742 0.1337220804930344 7.000000000000001e-05
129 0.0742 0.1302779195069656 0
130 0.0742 0.1309667517041793 0
131 0.0742 0.1316555839013931 0
132 0.0742 0.1323444160986069 0
133 0.0742 0.1330332482958207 0
134 0.0742 0.1337220804930344 0
135 0.07473715838336072 0.1345895384365904 7.000000000000001e-05
136 0.07529999999999999 0.1301071428571428 7.000000000000001e-05
137 0.07529999999999999 0.1308642857142857 7.000000000000001e-05
138 0.07529999999999999 0.1316214285714286 7.000000000000001e-05
139 0.07529999999999999 0.1323785714285714 7.000000000000001e-05
140 0.07529999999999999 0.1331357142857143 7.000000000000001e-05
141 0.07529999999999999 0.1338928571428571 7.000000000000001e-05
142 0.07473715838336072 0.1345895384365904 0
143 0.07529999999999999 0.1301071428571428 0
144 0.07529999999999999 0.1308642857142857 0
145 0.07529999999999999 0.1316214285714286 0
146 0.07529999999999999 0.1323785714285714 0
147 0.07529999999999999 0.1331357142857143 0
148 0.07529999999999999 0.1338928571428571 0
149 0.07475 0.13465 7.000000000000001e-05
150 0.07475 0.13465 0
151 0.0761 0.12935 0
152 0.0769 0.12935 0
153 0.0761 0.12935 7.000000000000001e-05
154 0.0769 0.12935 7.000000000000001e-05
155 0.07604057408768175 0.1294555845424431 0
156 0.0767221344574819 0.1297639245127137 0
157 0.0772903699850286 0.1302504493940737 0
158 0.07770000000000001 0.1301131948736443 0
159 0.07770000000000001 0.1301131948736443 7.000000000000001e-05
160 0.07604057408768175 0.1294555845424431 7.000000000000001e-05
161 0.0767221344574819 0.1297639245127137 7.000000000000001e-05
162 0.0772903699850286 0.1302504493940737 7.000000000000001e-05
163 0.0772903699850286 0.1337495506059264 7.000000000000001e-05
164 0.07672213445748191 0.1342360754872863 7.000000000000001e-05
165 0.07604057408768175 0.1345444154575569 7.000000000000001e-05
166 0.07770000000000001 0.1316254632490962 7.000000000000001e-05
167 0.07770000000000001 0.1323745367509038 7.000000000000001e-05
168 0.0772903699850286 0.1337495506059264 0
169 0.07672213445748191 0.1342360754872863 0
170 0.07604057408768175 0.1345444154575569 0
171 0.07770000000000001 0.1316254632490962 0
172 0.07770000000000001 0.1323745367509038 0
173 0.0761 0.13465 0
174 0.0769 0.13465 0
175 0.0761 0.13465 7.000000000000001e-05
176 0.0769 0.13465 7.000000000000001e-05
177 0.07770000000000001 0.1338868051263557 0
178 0.07770000000000001 0.1338868051263557 7.000000000000001e-05
179 0.0825 0.13 0
180 0.0832 0.13 0
181 0.0825 0.13 7.000000000000001e-05
182 0.0832 0.13 7.000000000000001e-05
183 0.0825 0.134 0
184 0.0832 0.134 0
185 0.0839 0.1308 0
186 0.0839 0.1316 0
187 0.0839 0.1324 0
188 0.0839 0.1332 0
189 0.08228126534988661 0.1307754184823998 0
190 0.08259242314239883 0.1313529029051886 0
191 0.08259242314239883 0.1326470970948114 0
192 0.08228126534988661 0.1332245815176002 0
193 0.0839 0.1308 7.000000000000001e-05
194 0.0839 0.1316 7.000000000000001e-05
195 0.0839 0.1324 7.000000000000001e-05
196 0.0839 0.1332 7.000000000000001e-05
197 0.0825 0.134 7.000000000000001e-05
198 0.0832 0.134 7.000000000000001e-05
199 0.08228126534988661 0.1307754184823998 7.000000000000001e-05
200 0.08259242314239883 0.1313529029051886 7.000000000000001e-05
201 0.08259242314239883 0.1326470970948114 7.000000000000001e-05
202 0.08228126534988661 0.1332245815176002 7.000000000000001e-05
203 0.0711 0.1301071428571428 7.000000000000001e-05
204 0.0711 0.1308642857142857 7.000000000000001e-05
205 0.0711 0.1316214285714286 7.000000000000001e-05
206 0.0711 0.1323785714285714 7.000000000000001e-05
207 0.0711 0.1331357142857143 7.000000000000001e-05
208 0.0711 0.1338928571428571 7.000000000000001e-05
209 0.0711 0.1301071428571428 0
210 0.0711 0.1308642857142857 0
211 0.0711 0.1316214285714286 0
212 0.0711 0.1323785714285714 0
213 0.0711 0.1331357142857143 0
214 0.0711 0.1338928571428571 0
215 0.07187499999999999 0.12935 0
216 0.07265000000000001 0.12935 0
217 0.073425 0.12935 0
218 0.07187499999999999 0.12935 7.000000000000001e-05
219 0.07265000000000001 0.12935 7.000000000000001e-05
220 0.073425 0.12935 7.000000000000001e-05
221 0.07187499999999999 0.13465 7.000000000000001e-05
222 0.07265000000000001 0.13465 7.000000000000001e-05
223 0.073425 0.13465 7.000000000000001e-05
224 0.07356514859290945 0.1340031950966683 7.000000000000001e-05
225 0.0730709306874841 0.1334330910647966 7.000000000000001e-05
226 0.07275740942362251 0.1327468153459299 7.000000000000001e-05
227 0.07264999999999999 0.132 7.000000000000001e-05
228 0.07275740942362252 0.1312531846540701 7.000000000000001e-05
229 0.0730709306874841 0.1305669089352034 7.000000000000001e-05
230 0.07356514859290945 0.1299968049033317 7.000000000000001e-05
231 0.07187499999999999 0.13465 0
232 0.07265000000000001 0.13465 0
233 0.073425 0.13465 0
234 0.07356514859290945 0.1340031950966683 0
235 0.0730709306874841 0.1334330910647966 0
236 0.07275740942362251 0.1327468153459299 0
237 0.07264999999999999 0.132 0
238 0.07275740942362252 0.1312531846540701 0
239 0.0730709306874841 0.1305669089352034 0
240 0.07356514859290945 0.1299968049033317 0
241 0.07788674505894966 0.1314244567783394 0
242 0.07788674505894966 0.1314244567783394 7.000000000000001e-05
243 0.07788674505894966 0.1325755432216607 7.000000000000001e-05
244 0.07788674505894966 0.1325755432216607 0
245 0.07934999999999999 0.1298877975512015 7.000000000000001e-05
246 0.07934999999999999 0.1341122024487985 7.000000000000001e-05
247 0.07874843175869231 0.1335303343001156 7.000000000000001e-05
248 0.07874843175869231 0.1304696656998844 7.000000000000001e-05
249 0.07877628458391904 0.1298531356772455 7.000000000000001e-05
250 0.07877628458391905 0.1341468643227544 7.000000000000001e-05
251 0.08150586734693878 0.134325 7.000000000000001e-05
252 0.08150586734693878 0.129675 7.000000000000001e-05
253 0.07934999999999999 0.1298877975512015 0
254 0.07934999999999999 0.1341122024487985 0
255 0.07874843175869231 0.1335303343001156 0
256 0.07874843175869231 0.1304696656998844 0
257 0.07877628458391904 0.1298531356772455 0
258 0.07877628458391904 0.1341468643227544 0
259 0.08150586734693878 0.134325 0
260 0.08150586734693878 0.129675 0
261 0.08000717967697246 0.132 7.000000000000001e-05
262 0.07962427063822294 0.1326935445133557 7.000000000000001e-05
263 0.07962427063822294 0.1313437875709881 7.000000000000001e-05
264 0.07935358983848624 0.1321119962530314 7.000000000000001e-05
265 0.07994810826654297 0.1308442612457976 7.000000000000001e-05
266 0.07994810826654297 0.1331632051710711 7.000000000000001e-05
267 0.0801958732042309 0.1326717482270974 7.000000000000001e-05
268 0.0801958668949064 0.131333795345673 7.000000000000001e-05
269 0.08000717967697246 0.132 0
270 0.07962427063822294 0.1326935445133557 0
271 0.07962427063822294 0.1313437875709881 0
272 0.07935358983848624 0.1321119962530314 0
273 0.07994810826654297 0.1308442612457976 0
274 0.07994810826654297 0.1331632051710711 0
275 0.0801958732042309 0.1326717482270974 0
276 0.0801958668949064 0.131333795345673 0
277 0.08136844349320356 0.1307087062058506 7.000000000000001e-05
278 0.08136844349320356 0.1332912937941494 7.000000000000001e-05
279 0.08125601596648965 0.132 7.000000000000001e-05
280 0.08127074324328221 0.1327045928735381 7.000000000000001e-05
281 0.08127074324328221 0.1312954071264619 7.000000000000001e-05
282 0.08136844349320356 0.1307087062058506 0
283 0.08136844349320356 0.1332912937941494 0
284 0.08125601596648965 0.132 0
285 0.08127074324328221 0.1312954071264619 0
286 0.08127074324328221 0.1327045928735381 0
287 0.07474661201448166 0.132 7.000000000000001e-05
288 0.07475233902170689 0.1312744115493783 7.000000000000001e-05
289 0.07475233902170687 0.1327255884506217 7.000000000000001e-05
290 0.07464091609982407 0.1299846061284506 7.000000000000001e-05
291 0.07473220918692182 0.1305791862434004 7.000000000000001e-05
292 0.07464091609982407 0.1340153938715494 7.000000000000001e-05
293 0.07473220918692182 0.1334208137565996 7.000000000000001e-05
294 0.07474661201448166 0.132 0
295 0.07475233902170687 0.1327255884506217 0
296 0.07475233902170689 0.1312744115493783 0
297 0.07464091609982407 0.1299846061284506 0
298 0.07473220918692182 0.1305791862434004 0
299 0.07464091609982407 0.1340153938715494 0
300 0.07473220918692182 0.1334208137565996 0
301 0.07724930488135463 0.1297527079765893 0
302 0.07724930488135463 0.1297527079765893 7.000000000000001e-05
303 0.07705128331813289 0.132 7.000000000000001e-05
304 0.07660097924265911 0.1304778751978114 7.000000000000001e-05
305 0.07660092204185531 0.1335221518903748 7.000000000000001e-05
306 0.07594632045408152 0.1319999780217995 7.000000000000001e-05
307 0.07590474745087331 0.1312759113287376 7.000000000000001e-05
308 0.07590459443452265 0.1327241726266861 7.000000000000001e-05
309 0.07704829134721931 0.131130605566781 7.000000000000001e-05
310 0.07704815201880393 0.1328694765442375 7.000000000000001e-05
311 0.07596660414169387 0.1306316746692505 7.000000000000001e-05
312 0.07596641608915081 0.1333683817614786 7.000000000000001e-05
313 0.07650349413335626 0.132374856899083 7.000000000000001e-05
314 0.07650349413335626 0.1316254632490962 7.000000000000001e-05
315 0.07612605838590332 0.1300872403558723 7.000000000000001e-05
316 0.07612600933523395 0.1339127763479107 7.000000000000001e-05
317 0.07646017459968248 0.1310475587249387 7.000000000000001e-05
318 0.07645955190189971 0.1329526274185745 7.000000000000001e-05
319 0.07705128331813289 0.132 0
320 0.07660097924265911 0.1304778751978114 0
321 0.07660092204185531 0.1335221518903748 0
322 0.07594632045408152 0.1319999780217995 0
323 0.07590474745087331 0.1312759113287376 0
324 0.07590459443452265 0.1327241726266861 0
325 0.07704829134721931 0.131130605566781 0
326 0.07704815201880393 0.1328694765442375 0
327 0.07596660414169387 0.1306316746692505 0
328 0.07596641608915081 0.1333683817614786 0
329 0.07650349413335626 0.132374856899083 0
330 0.07650349413335626 0.1316254632490962 0
331 0.07612605838590332 0.1300872403558723 0
332 0.07612600933523395 0.1339127763479107 0
333 0.07646017459968248 0.1310475587249387 0
334 0.07645955190189971 0.1329526274185745 0
335 0.07724930488135463 0.1342472920234107 0
336 0.07724930488135463 0.1342472920234107 7.000000000000001e-05
337 0.08285643720233123 0.1332950185118775 0
338 0.08285643720233123 0.1307049814881225 0
339 0.08320661409402122 0.1324167128389477 0
340 0.08320661409402122 0.1315832871610524 0
341 0.08224754051044357 0.1336379858676654 0
342 0.08224754051044357 0.1303620141323346 0
343 0.08342004406866171 0.133486288560079 0
344 0.08342004406866171 0.130513711439921 0
345 0.08345661907300284 0.1329596039821808 0
346 0.08345661907300284 0.1310403960178192 0
347 0.08350160191145935 0.132 0
348 0.08285643720233123 0.1332950185118775 7.000000000000001e-05
349 0.08285643720233123 0.1307049814881225 7.000000000000001e-05
350 0.08320661409402122 0.1324167128389477 7.000000000000001e-05
351 0.08320661409402122 0.1315832871610524 7.000000000000001e-05
352 0.08224754051044357 0.1336379858676654 7.000000000000001e-05
353 0.08224754051044357 0.1303620141323346 7.000000000000001e-05
354 0.08342004406866171 0.133486288560079 7.000000000000001e-05
355 0.08342004406866171 0.130513711439921 7.000000000000001e-05
356 0.08345661907300284 0.1329596039821808 7.000000000000001e-05
357 0.08345661907300284 0.1310403960178192 7.000000000000001e-05
358 0.08350160191145935 0.132 7.000000000000001e-05
359 0.08226506470023137 0.132 7.000000000000001e-05
360 0.08214775063850335 0.1326415884118982 7.000000000000001e-05
361 0.08214775063850335 0.1313584115881018 7.000000000000001e-05
362 0.08226506470023137 0.132 0
363 0.08214775063850337 0.1326415884118982 0
364 0.08214775063850335 0.1313584115881018 0
365 0.07171404218280837 0.133552373916038 7.000000000000001e-05
366 0.07171404218280837 0.130447626083962 7.000000000000001e-05
367 0.07215285253511645 0.1324336725491385 7.000000000000001e-05
368 0.07216427025949938 0.1315624281159461 7.000000000000001e-05
369 0.07220333552323616 0.1340561170528567 7.000000000000001e-05
370 0.07220333552323616 0.1299438829471432 7.000000000000001e-05
371 0.07240401604254215 0.1333230142426785 7.000000000000001e-05
372 0.07240401604254215 0.1306769857573215 7.000000000000001e-05
373 0.07288640514102865 0.1299807637571666 7.000000000000001e-05
374 0.07288640514102865 0.1340192362428334 7.000000000000001e-05
375 0.07164007599486613 0.1319993501108474 7.000000000000001e-05
376 0.07166166658729049 0.1310799779232438 7.000000000000001e-05
377 0.07166166658729049 0.1329200220767562 7.000000000000001e-05
378 0.07165607982916651 0.1299011271971051 7.000000000000001e-05
379 0.07165607982916651 0.1340988728028949 7.000000000000001e-05
380 0.07376784288340991 0.1343857005845894 7.000000000000001e-05
381 0.0737678428834099 0.1296142994154106 7.000000000000001e-05
382 0.07171404218280837 0.133552373916038 0
383 0.07171404218280837 0.130447626083962 0
384 0.07215285253511645 0.1324336725491385 0
385 0.07216427025949938 0.1315624281159461 0
386 0.07220333552323616 0.1340561170528567 0
387 0.07220333552323616 0.1299438829471432 0
388 0.07240401604254215 0.1333230142426785 0
389 0.07240401604254215 0.1306769857573215 0
390 0.07288640514102865 0.1340192362428334 0
391 0.07288640514102865 0.1299807637571666 0
392 0.07164007599486613 0.1319993501108474 0
393 0.07166166658729049 0.1310799779232438 0
394 0.07166166658729049 0.1329200220767562 0
395 0.07165607982916651 0.1299011271971051 0
396 0.07165607982916651 0.1340988728028949 0
397 0.0737678428834099 0.1296142994154106 0
398 0.07376784288340991 0.1343857005845894 0
399 0.07360345381826822 0.132 7.000000000000001e-05
400 0.07352602357480928 0.1327606810258775 7.000000000000001e-05
401 0.07352602357480928 0.1312393189741225 7.000000000000001e-05
402 0.07371242057104056 0.1333904591952395 7.000000000000001e-05
403 0.07371242057104058 0.1306095408047605 7.000000000000001e-05
404 0.07316282261735112 0.1323273918472329 7.000000000000001e-05
405 0.07316243097861531 0.1316708073800554 7.000000000000001e-05
406 0.07360345381826822 0.132 0
407 0.07352602357480928 0.1327606810258775 0
408 0.07352602357480928 0.1312393189741225 0
409 0.07371242057104056 0.1333904591952395 0
410 0.07371242057104058 0.1306095408047605 0
411 0.07316282261735112 0.1323273918472329 0
412 0.07316243097861531 0.1316708073800554 0
413 0.07863355756455657 0.1308561948498133 3.5e-05
414 0.08030101552395959 0.1316445984485577 3.5e-05
415 0.07925409933694243 0.1310547357146283 3.5e-05
416 0.08161867198882987 0.132 3.5e-05
417 0.08148087101991749 0.1303741888479843 3.5e-05
418 0.08089138985551629 0.1302947298823171 3.5e-05
419 0.0743469720332747 0.1299505376483893 3.5e-05
420 0.07425896634853409 0.1345368583855633 3.499328191736478e-05
421 0.07554685802922725 0.134362424200138 3.5e-05
422 0.07554685802922723 0.1296375757998619 3.499999999999999e-05
423 0.07138492297238828 0.1313938993819373 3.5e-05
424 0.0728567440136579 0.1323580690643876 3.500000000000002e-05
$EndNodes
$Elements
1119
1 2 2 13 54 42 41 185
2 2 2 13 54 42 185 193
3 2 2 13 54 188 43 45
4 2 2 13 54 196 188 45
5 2 2 13 54 185 186 194
6 2 2 13 54 193 185 194
7 2 2 13 54 194 186 187
8 2 2 13 54 196 187 188
9 2 2 13 54 187 195 194
10 2 2 13 54 196 195 187
11 2 2 13 61 203 48 47
12 2 2 13 61 48 203 209
13 2 2 13 61 214 49 50
14 2 2 13 61 49 214 208
15 2 2 13 61 203 204 210
16 2 2 13 61 203 210 209
17 2 2 13 61 204 205 210
18 2 2 13 61 205 206 211
19 2 2 13 61 210 205 211
20 2 2 13 61 206 207 213
21 2 2 13 61 211 206 212
22 2 2 13 61 206 213 212
23 2 2 13 61 214 207 208
24 2 2 13 61 207 214 213
25 4 2 1 1 82 256 248 413
26 4 2 1 1 82 95 256 413
27 4 2 1 1 77 259 89 251
28 4 2 1 1 85 68 10 98
29 4 2 1 1 9 90 89 77
30 4 2 1 1 10 67 97 15
31 4 2 1 1 9 88 14 78
32 4 2 1 1 74 87 88 78
33 4 2 1 1 66 71 84 70
34 4 2 1 1 11 5 252 260
35 4 2 1 1 58 64 3 250
36 4 2 1 1 2 257 59 53
37 4 2 1 1 85 10 68 72
38 4 2 1 1 56 63 80 62
39 4 2 1 1 63 56 80 57
40 4 2 1 1 76 77 9 89
41 4 2 1 1 5 6 252 72
42 4 2 1 1 75 74 88 78
43 4 2 1 1 254 258 255 246
44 4 2 1 1 257 248 253 256
45 4 2 1 1 9 88 78 75
46 4 2 1 1 54 248 60 413
47 4 2 1 1 68 15 10 98
48 4 2 1 1 90 9 89 14
49 4 2 1 1 72 67 10 68
50 4 2 1 1 254 79 255 92
51 4 2 1 1 9 89 88 76
52 4 2 1 1 63 80 62 93
53 4 2 1 1 91 88 87 78
54 4 2 1 1 251 76 7 89
55 4 2 1 1 85 68 98 260
56 4 2 1 1 259 77 89 90
57 4 2 1 1 88 91 14 78
58 4 2 1 1 15 10 67 68
59 4 2 1 1 89 9 88 14
60 4 2 1 1 79 255 92 80
61 4 2 1 1 79 254 255 246
62 4 2 1 1 246 255 79 247
63 4 2 1 1 80 62 94 56
64 4 2 1 1 256 60 248 413
65 4 2 1 1 92 255 93 80
66 4 2 1 1 80 94 81 56
67 4 2 1 1 253 96 256 83
68 4 2 1 1 248 253 256 83
69 4 2 1 1 83 248 253 245
70 4 2 1 1 79 255 80 247
71 4 2 1 1 62 80 94 93
72 4 2 1 1 8 12 13 259
73 4 2 1 1 5 11 16 260
74 4 2 1 1 5 6 11 252
75 4 2 1 1 74 86 246 73
76 4 2 1 1 55 62 56 94
77 4 2 1 1 55 62 94 61
78 4 2 1 1 64 247 58 57
79 4 2 1 1 55 61 95 54
80 4 2 1 1 60 95 61 54
81 4 2 1 1 248 54 60 53
82 4 2 1 1 77 76 251 89
83 4 2 1 1 255 63 93 80
84 4 2 1 1 67 72 10 71
85 4 2 1 1 81 56 94 55
86 4 2 1 1 76 88 9 75
87 4 2 1 1 74 246 87 78
88 4 2 1 1 70 66 245 84
89 4 2 1 1 246 254 87 78
90 4 2 1 1 66 253 245 84
91 4 2 1 1 91 254 92 79
92 4 2 1 1 94 61 95 55
93 4 2 1 1 81 94 95 55
94 4 2 1 1 86 74 246 87
95 4 2 1 1 66 245 69 70
96 4 2 1 1 87 246 86 254
97 4 2 1 1 246 79 254 78
98 4 2 1 1 95 83 256 96
99 4 2 1 1 256 82 248 83
100 4 2 1 1 97 96 253 83
101 4 2 1 1 253 83 245 84
102 4 2 1 1 11 85 260 252
103 4 2 1 1 8 77 251 259
104 4 2 1 1 60 95 54 413
105 4 2 1 1 253 66 97 84
106 4 2 1 1 91 87 254 78
107 4 2 1 1 54 95 55 82
108 4 2 1 1 79 91 254 78
109 4 2 1 1 53 257 248 249
110 4 2 1 1 95 83 82 256
111 4 2 1 1 83 253 97 84
112 4 2 1 1 86 246 258 254
113 4 2 1 1 55 95 81 82
114 4 2 1 1 58 247 64 250
115 4 2 1 1 13 77 259 90
116 4 2 1 1 98 11 85 260
117 4 2 1 1 98 11 260 16
118 4 2 1 1 13 77 8 259
119 4 2 1 1 54 95 82 413
120 4 2 1 1 60 256 95 413
121 4 2 1 1 82 248 54 413
122 4 2 1 1 8 259 7 12
123 4 2 1 1 8 7 259 251
124 4 2 1 1 89 7 259 12
125 4 2 1 1 89 259 7 251
126 4 2 1 1 85 260 72 68
127 4 2 1 1 85 72 260 252
128 4 2 1 1 5 72 260 68
129 4 2 1 1 5 260 72 252
130 4 2 1 1 246 250 255 247
131 4 2 1 1 246 255 250 258
132 4 2 1 1 64 255 250 247
133 4 2 1 1 64 250 255 258
134 4 2 1 1 1 65 249 69
135 4 2 1 1 258 4 73 86
136 4 2 1 1 73 246 258 86
137 4 2 1 1 258 246 73 250
138 4 2 1 1 2 53 249 257
139 4 2 1 1 249 53 2 1
140 4 2 1 1 249 65 2 257
141 4 2 1 1 2 65 249 1
142 4 2 1 1 64 3 258 4
143 4 2 1 1 64 258 3 250
144 4 2 1 1 73 258 3 4
145 4 2 1 1 73 3 258 250
146 4 2 1 1 10 67 84 97
147 4 2 1 1 10 84 67 71
148 4 2 1 1 66 84 67 97
149 4 2 1 1 66 67 84 71
150 4 2 1 1 65 249 253 257
151 4 2 1 1 248 249 253 245
152 4 2 1 1 248 253 249 257
153 4 2 1 1 80 57 255 63
154 4 2 1 1 80 255 57 247
155 4 2 1 1 64 255 57 63
156 4 2 1 1 64 57 255 247
157 4 2 1 1 69 249 253 65
158 4 2 1 1 253 249 69 245
159 4 2 1 1 253 66 69 65
160 4 2 1 1 69 66 253 245
161 4 2 1 1 53 257 256 248
162 4 2 1 1 256 257 53 59
163 4 2 1 1 256 60 53 248
164 4 2 1 1 53 60 256 59
165 4 2 1 2 13 17 99 18
166 4 2 1 2 17 13 99 8
167 4 2 1 2 90 9 14 100
168 4 2 1 2 13 77 99 8
169 4 2 1 2 13 18 99 100
170 4 2 1 2 13 77 100 99
171 4 2 1 2 13 100 77 90
172 4 2 1 2 9 100 77 99
173 4 2 1 2 9 77 100 90
174 4 2 1 3 261 269 102 414
175 4 2 1 3 102 269 106 414
176 4 2 1 3 95 83 96 415
177 4 2 1 3 107 102 269 106
178 4 2 1 3 101 273 97 265
179 4 2 1 3 108 9 14 78
180 4 2 1 3 10 97 101 15
181 4 2 1 3 79 92 270 80
182 4 2 1 3 262 79 270 80
183 4 2 1 3 93 270 92 80
184 4 2 1 3 83 95 82 415
185 4 2 1 3 91 108 14 78
186 4 2 1 3 10 97 84 101
187 4 2 1 3 78 108 9 104
188 4 2 1 3 105 97 15 101
189 4 2 1 3 273 101 97 105
190 4 2 1 3 97 84 101 265
191 4 2 1 3 108 78 266 104
192 4 2 1 3 79 270 274 266
193 4 2 1 3 270 274 92 79
194 4 2 1 3 266 79 270 262
195 4 2 1 3 94 80 272 93
196 4 2 1 3 270 80 272 262
197 4 2 1 3 106 276 101 268
198 4 2 1 3 80 270 272 93
199 4 2 1 3 273 83 97 265
200 4 2 1 3 269 264 271 261
201 4 2 1 3 274 91 92 79
202 4 2 1 3 263 271 264 261
203 4 2 1 3 104 267 107 103
204 4 2 1 3 268 101 106 102
205 4 2 1 3 83 273 97 96
206 4 2 1 3 270 272 269 262
207 4 2 1 3 262 264 269 261
208 4 2 1 3 272 264 262 80
209 4 2 1 3 264 269 271 272
210 4 2 1 3 84 97 83 265
211 4 2 1 3 106 276 105 101
212 4 2 1 3 276 273 105 101
213 4 2 1 3 264 269 272 262
214 4 2 1 3 106 276 268 414
215 4 2 1 3 106 268 102 414
216 4 2 1 3 82 263 83 415
217 4 2 1 3 261 102 268 414
218 4 2 1 3 106 269 276 414
219 4 2 1 3 95 96 271 415
220 4 2 1 3 415 271 83 96
221 4 2 1 3 415 83 271 263
222 4 2 1 3 273 83 271 96
223 4 2 1 3 102 261 107 269
224 4 2 1 3 102 107 261 103
225 4 2 1 3 267 261 107 103
226 4 2 1 3 108 274 78 91
227 4 2 1 3 108 78 274 266
228 4 2 1 3 79 78 274 91
229 4 2 1 3 79 274 78 266
230 4 2 1 3 83 271 265 273
231 4 2 1 3 83 265 271 263
232 4 2 1 3 271 95 264 272
233 4 2 1 3 81 95 264 82
234 4 2 1 3 415 95 263 271
235 4 2 1 3 415 263 95 82
236 4 2 1 3 264 263 95 271
237 4 2 1 3 264 95 263 82
238 4 2 1 3 95 94 264 272
239 4 2 1 3 95 264 94 81
240 4 2 1 3 80 264 94 272
241 4 2 1 3 80 94 264 81
242 4 2 1 3 265 268 271 263
243 4 2 1 3 261 271 268 263
244 4 2 1 3 275 270 266 274
245 4 2 1 3 266 108 275 274
246 4 2 1 3 268 271 273 265
247 4 2 1 3 273 271 268 276
248 4 2 1 3 273 101 268 265
249 4 2 1 3 268 101 273 276
250 4 2 1 3 266 104 275 108
251 4 2 1 3 266 275 104 267
252 4 2 1 3 107 275 104 108
253 4 2 1 3 107 104 275 267
254 4 2 1 3 269 262 275 270
255 4 2 1 3 266 275 262 270
256 4 2 1 3 266 262 275 267
257 4 2 1 3 269 414 268 276
258 4 2 1 3 268 414 269 261
259 4 2 1 3 268 271 269 276
260 4 2 1 3 269 271 268 261
261 4 2 1 3 275 262 261 267
262 4 2 1 3 261 262 275 269
263 4 2 1 3 261 107 275 267
264 4 2 1 3 275 107 261 269
265 4 2 1 4 19 16 110 20
266 4 2 1 4 110 85 10 98
267 4 2 1 4 16 19 110 11
268 4 2 1 4 110 10 15 98
269 4 2 1 4 98 11 110 85
270 4 2 1 4 11 98 110 16
271 4 2 1 4 19 110 11 109
272 4 2 1 4 85 110 10 109
273 4 2 1 4 85 109 11 110
274 4 2 1 5 109 105 110 418
275 4 2 1 5 112 117 116 416
276 4 2 1 5 117 112 113 416
277 4 2 1 5 101 105 109 418
278 4 2 1 5 106 107 279 284
279 4 2 1 5 107 103 102 279
280 4 2 1 5 106 107 102 279
281 4 2 1 5 114 117 286 118
282 4 2 1 5 111 281 112 115
283 4 2 1 5 110 19 20 417
284 4 2 1 5 284 279 106 285
285 4 2 1 5 20 19 277 417
286 4 2 1 5 108 14 9 100
287 4 2 1 5 20 277 282 417
288 4 2 1 5 281 106 279 285
289 4 2 1 5 281 105 106 285
290 4 2 1 5 111 20 19 277
291 4 2 1 5 17 18 114 278
292 4 2 1 5 279 107 103 280
293 4 2 1 5 279 102 106 281
294 4 2 1 5 108 104 278 99
295 4 2 1 5 277 101 105 109
296 4 2 1 5 107 104 103 280
297 4 2 1 5 278 286 108 283
298 4 2 1 5 277 105 281 282
299 4 2 1 5 101 10 15 418
300 4 2 1 5 102 101 106 281
301 4 2 1 5 99 108 9 100
302 4 2 1 5 104 108 9 99
303 4 2 1 5 282 105 281 285
304 4 2 1 5 19 110 109 417
305 4 2 1 5 105 281 106 101
306 4 2 1 5 15 105 101 418
307 4 2 1 5 278 17 18 99
308 4 2 1 5 281 115 282 285
309 4 2 1 5 278 114 280 286
310 4 2 1 5 10 110 15 418
311 4 2 1 5 105 277 281 101
312 4 2 1 5 110 10 109 418
313 4 2 1 5 282 110 20 417
314 4 2 1 5 277 19 109 417
315 4 2 1 5 101 109 10 418
316 4 2 1 5 105 15 110 418
317 4 2 1 5 279 113 112 416
318 4 2 1 5 117 284 116 416
319 4 2 1 5 417 277 110 109
320 4 2 1 5 417 110 277 282
321 4 2 1 5 105 110 277 109
322 4 2 1 5 105 277 110 282
323 4 2 1 5 18 283 99 100
324 4 2 1 5 18 99 283 278
325 4 2 1 5 108 99 283 100
326 4 2 1 5 108 283 99 278
327 4 2 1 5 115 112 285 281
328 4 2 1 5 115 285 112 116
329 4 2 1 5 279 285 112 281
330 4 2 1 5 285 284 112 116
331 4 2 1 5 285 112 284 279
332 4 2 1 5 416 112 284 116
333 4 2 1 5 416 284 112 279
334 4 2 1 5 107 279 286 280
335 4 2 1 5 107 286 279 284
336 4 2 1 5 278 286 104 108
337 4 2 1 5 278 104 286 280
338 4 2 1 5 107 104 286 108
339 4 2 1 5 107 286 104 280
340 4 2 1 5 286 114 283 278
341 4 2 1 5 286 283 114 118
342 4 2 1 5 18 283 114 278
343 4 2 1 5 18 114 283 118
344 4 2 1 5 281 111 282 115
345 4 2 1 5 281 282 111 277
346 4 2 1 5 20 282 111 115
347 4 2 1 5 20 111 282 277
348 4 2 1 5 279 113 286 280
349 4 2 1 5 114 113 286 117
350 4 2 1 5 114 286 113 280
351 4 2 1 5 284 286 113 117
352 4 2 1 5 113 286 284 279
353 4 2 1 5 113 416 284 117
354 4 2 1 5 284 416 113 279
355 4 2 2 6 25 119 122 120
356 4 2 2 6 119 122 120 21
357 4 2 2 6 26 119 122 25
358 4 2 2 6 121 21 24 122
359 4 2 2 6 26 119 121 122
360 4 2 2 6 23 119 22 21
361 4 2 2 6 24 23 21 121
362 4 2 2 6 119 122 21 121
363 4 2 2 6 23 119 21 121
364 4 2 2 7 123 23 129 419
365 4 2 2 7 23 123 22 419
366 4 2 2 7 295 139 147 289
367 4 2 2 7 294 139 145 146
368 4 2 2 7 139 295 147 146
369 4 2 2 7 139 289 140 147
370 4 2 2 7 144 138 288 137
371 4 2 2 7 294 139 295 287
372 4 2 2 7 289 139 287 295
373 4 2 2 7 139 294 295 146
374 4 2 2 7 289 287 126 295
375 4 2 2 7 295 287 132 294
376 4 2 2 7 124 129 291 123
377 4 2 2 7 133 134 128 300
378 4 2 2 7 295 300 289 147
379 4 2 2 7 298 288 144 296
380 4 2 2 7 296 288 130 298
381 4 2 2 7 127 295 300 289
382 4 2 2 7 295 127 300 133
383 4 2 2 7 147 293 300 289
384 4 2 2 7 298 137 288 291
385 4 2 2 7 133 128 127 300
386 4 2 2 7 293 289 127 300
387 4 2 2 7 293 127 128 300
388 4 2 2 7 147 293 289 140
389 4 2 2 7 298 137 144 288
390 4 2 2 7 287 132 126 295
391 4 2 2 7 289 126 127 295
392 4 2 2 7 125 130 288 124
393 4 2 2 7 132 127 295 133
394 4 2 2 7 119 26 136 25
395 4 2 2 7 30 135 148 29
396 4 2 2 7 136 137 298 291
397 4 2 2 7 293 148 147 300
398 4 2 2 7 128 299 27 292
399 4 2 2 7 290 298 136 297
400 4 2 2 7 299 292 293 148
401 4 2 2 7 147 141 293 140
402 4 2 2 7 137 143 298 144
403 4 2 2 7 128 299 134 27
404 4 2 2 7 127 132 295 126
405 4 2 2 7 136 121 297 143
406 4 2 2 7 141 292 135 148
407 4 2 2 7 287 131 132 294
408 4 2 2 7 26 119 136 121
409 4 2 2 7 30 135 142 148
410 4 2 2 7 298 290 136 291
411 4 2 2 7 293 299 148 300
412 4 2 2 7 299 134 27 28
413 4 2 2 7 125 132 287 131
414 4 2 2 7 132 125 287 126
415 4 2 2 7 135 29 141 148
416 4 2 2 7 26 136 143 121
417 4 2 2 7 293 299 128 292
418 4 2 2 7 298 290 129 297
419 4 2 2 7 300 128 299 134
420 4 2 2 7 291 123 129 290
421 4 2 2 7 143 137 298 136
422 4 2 2 7 141 147 293 148
423 4 2 2 7 290 129 297 419
424 4 2 2 7 128 300 299 293
425 4 2 2 7 129 291 290 298
426 4 2 2 7 123 129 290 419
427 4 2 2 7 292 141 293 148
428 4 2 2 7 136 297 298 143
429 4 2 2 7 27 299 28 142
430 4 2 2 7 123 290 22 419
431 4 2 2 7 129 23 297 419
432 4 2 2 7 290 419 23 22
433 4 2 2 7 23 419 290 297
434 4 2 2 7 23 119 290 22
435 4 2 2 7 136 290 121 119
436 4 2 2 7 136 121 290 297
437 4 2 2 7 23 121 290 119
438 4 2 2 7 23 290 121 297
439 4 2 2 7 148 299 135 142
440 4 2 2 7 148 135 299 292
441 4 2 2 7 27 135 299 142
442 4 2 2 7 27 299 135 292
443 4 2 2 7 139 145 287 294
444 4 2 2 7 139 287 145 138
445 4 2 2 7 131 287 296 294
446 4 2 2 7 145 296 287 294
447 4 2 2 7 129 124 298 130
448 4 2 2 7 129 298 124 291
449 4 2 2 7 288 298 124 130
450 4 2 2 7 288 124 298 291
451 4 2 2 7 130 125 296 131
452 4 2 2 7 130 296 125 288
453 4 2 2 7 287 296 125 131
454 4 2 2 7 287 125 296 288
455 4 2 2 7 144 296 138 145
456 4 2 2 7 144 138 296 288
457 4 2 2 7 287 138 296 145
458 4 2 2 7 287 296 138 288
459 4 2 2 8 28 142 32 420
460 4 2 2 8 31 135 27 420
461 4 2 2 8 28 27 142 420
462 4 2 2 8 27 135 142 420
463 4 2 2 8 150 135 29 149
464 4 2 2 8 149 135 31 150
465 4 2 2 8 135 30 150 29
466 4 2 2 8 30 135 150 142
467 4 2 2 8 28 31 27 420
468 4 2 2 8 31 28 32 420
469 4 2 2 8 420 31 142 32
470 4 2 2 8 420 142 31 135
471 4 2 2 8 150 142 31 32
472 4 2 2 8 150 31 142 135
473 4 2 2 9 154 302 34 152
474 4 2 2 9 161 151 156 152
475 4 2 2 9 302 161 162 301
476 4 2 2 9 153 152 161 154
477 4 2 2 9 153 152 151 161
478 4 2 2 9 25 151 26 155
479 4 2 2 9 151 160 25 153
480 4 2 2 9 161 157 301 156
481 4 2 2 9 36 158 162 35
482 4 2 2 9 158 36 162 159
483 4 2 2 9 160 151 25 155
484 4 2 2 9 157 161 301 162
485 4 2 2 9 157 35 162 158
486 4 2 2 9 161 155 156 151
487 4 2 2 9 161 153 160 151
488 4 2 2 9 161 155 151 160
489 4 2 2 9 302 152 161 301
490 4 2 2 9 152 156 161 301
491 4 2 2 9 152 302 161 154
492 4 2 2 9 162 157 158 301
493 4 2 2 9 162 301 159 302
494 4 2 2 9 162 159 301 158
495 4 2 2 9 33 301 159 158
496 4 2 2 9 152 34 301 302
497 4 2 2 9 152 301 34 33
498 4 2 2 9 159 301 34 302
499 4 2 2 9 159 34 301 33
500 4 2 2 10 160 136 143 422
501 4 2 2 10 160 143 155 422
502 4 2 2 10 141 165 170 421
503 4 2 2 10 141 170 148 421
504 4 2 2 10 26 136 25 422
505 4 2 2 10 148 30 29 421
506 4 2 2 10 136 26 143 422
507 4 2 2 10 29 141 148 421
508 4 2 2 10 139 145 306 138
509 4 2 2 10 139 140 308 147
510 4 2 2 10 306 145 322 323
511 4 2 2 10 138 144 307 137
512 4 2 2 10 157 304 309 320
513 4 2 2 10 37 38 310 168
514 4 2 2 10 162 35 309 36
515 4 2 2 10 167 319 310 172
516 4 2 2 10 141 332 170 316
517 4 2 2 10 160 331 143 315
518 4 2 2 10 330 303 314 325
519 4 2 2 10 314 307 306 323
520 4 2 2 10 319 167 310 303
521 4 2 2 10 308 313 306 322
522 4 2 2 10 38 310 172 37
523 4 2 2 10 309 35 166 36
524 4 2 2 10 321 168 310 326
525 4 2 2 10 309 162 304 157
526 4 2 2 10 309 325 157 320
527 4 2 2 10 310 319 326 172
528 4 2 2 10 303 166 309 325
529 4 2 2 10 147 141 140 328
530 4 2 2 10 163 37 310 168
531 4 2 2 10 35 162 309 157
532 4 2 2 10 325 35 309 157
533 4 2 2 10 168 38 310 326
534 4 2 2 10 318 321 310 334
535 4 2 2 10 37 167 310 172
536 4 2 2 10 35 166 171 325
537 4 2 2 10 330 319 303 325
538 4 2 2 10 144 323 307 327
539 4 2 2 10 308 328 324 147
540 4 2 2 10 332 141 170 148
541 4 2 2 10 316 141 165 170
542 4 2 2 10 136 315 160 143
543 4 2 2 10 331 160 143 155
544 4 2 2 10 141 312 140 328
545 4 2 2 10 167 319 172 171
546 4 2 2 10 328 308 140 147
547 4 2 2 10 310 319 329 326
548 4 2 2 10 309 314 303 325
549 4 2 2 10 35 309 166 325
550 4 2 2 10 310 38 172 326
551 4 2 2 10 331 311 143 315
552 4 2 2 10 314 330 333 323
553 4 2 2 10 311 331 143 327
554 4 2 2 10 321 318 310 305
555 4 2 2 10 317 309 304 320
556 4 2 2 10 312 308 140 328
557 4 2 2 10 161 304 162 157
558 4 2 2 10 143 311 137 136
559 4 2 2 10 147 141 328 148
560 4 2 2 10 328 321 318 334
561 4 2 2 10 327 333 317 320
562 4 2 2 10 314 330 325 333
563 4 2 2 10 304 161 315 331
564 4 2 2 10 136 311 315 143
565 4 2 2 10 141 148 332 328
566 4 2 2 10 310 321 326 334
567 4 2 2 10 161 155 331 156
568 4 2 2 10 317 311 307 327
569 4 2 2 10 318 308 312 328
570 4 2 2 10 304 327 317 320
571 4 2 2 10 331 160 161 315
572 4 2 2 10 30 165 29 421
573 4 2 2 10 26 25 155 422
574 4 2 2 10 310 329 334 326
575 4 2 2 10 327 304 317 311
576 4 2 2 10 164 170 316 165
577 4 2 2 10 155 161 331 160
578 4 2 2 10 165 30 170 421
579 4 2 2 10 25 160 155 422
580 4 2 2 10 327 304 331 320
581 4 2 2 10 304 315 311 331
582 4 2 2 10 331 311 304 327
583 4 2 2 10 141 29 165 421
584 4 2 2 10 26 155 143 422
585 4 2 2 10 136 160 25 422
586 4 2 2 10 170 30 148 421
587 4 2 2 10 322 308 139 306
588 4 2 2 10 139 145 322 306
589 4 2 2 10 322 145 139 146
590 4 2 2 10 322 324 139 308
591 4 2 2 10 322 139 324 146
592 4 2 2 10 147 139 324 308
593 4 2 2 10 147 324 139 146
594 4 2 2 10 144 323 138 307
595 4 2 2 10 144 138 323 145
596 4 2 2 10 306 138 323 307
597 4 2 2 10 306 323 138 145
598 4 2 2 10 325 171 303 166
599 4 2 2 10 325 303 171 319
600 4 2 2 10 167 303 171 166
601 4 2 2 10 167 171 303 319
602 4 2 2 10 303 313 330 314
603 4 2 2 10 322 313 330 329
604 4 2 2 10 307 144 311 137
605 4 2 2 10 307 311 144 327
606 4 2 2 10 143 311 144 137
607 4 2 2 10 143 144 311 327
608 4 2 2 10 314 333 309 317
609 4 2 2 10 314 309 333 325
610 4 2 2 10 320 309 333 317
611 4 2 2 10 320 333 309 325
612 4 2 2 10 161 157 320 304
613 4 2 2 10 320 157 161 156
614 4 2 2 10 320 331 161 304
615 4 2 2 10 161 331 320 156
616 4 2 2 10 163 169 305 164
617 4 2 2 10 329 310 318 313
618 4 2 2 10 318 310 329 334
619 4 2 2 10 327 317 323 307
620 4 2 2 10 327 323 317 333
621 4 2 2 10 314 323 317 307
622 4 2 2 10 314 317 323 333
623 4 2 2 10 310 319 313 329
624 4 2 2 10 310 313 319 303
625 4 2 2 10 330 313 319 329
626 4 2 2 10 330 319 313 303
627 4 2 2 10 308 322 329 313
628 4 2 2 10 329 322 308 324
629 4 2 2 10 329 318 308 313
630 4 2 2 10 316 141 328 312
631 4 2 2 10 328 141 316 332
632 4 2 2 10 334 329 308 324
633 4 2 2 10 308 329 334 318
634 4 2 2 10 308 328 334 324
635 4 2 2 10 334 328 308 318
636 4 2 2 10 310 168 305 163
637 4 2 2 10 310 305 168 321
638 4 2 2 10 169 305 168 163
639 4 2 2 10 169 168 305 321
640 4 2 2 10 318 305 328 312
641 4 2 2 10 318 328 305 321
642 4 2 2 10 316 328 305 312
643 4 2 2 10 313 306 330 314
644 4 2 2 10 313 330 306 322
645 4 2 2 10 323 330 306 314
646 4 2 2 10 323 306 330 322
647 4 2 2 10 332 328 305 316
648 4 2 2 10 305 328 332 321
649 4 2 2 10 332 169 305 321
650 4 2 2 10 170 164 332 169
651 4 2 2 10 170 332 164 316
652 4 2 2 10 305 332 164 169
653 4 2 2 10 305 164 332 316
654 4 2 2 11 336 176 40 174
655 4 2 2 11 176 173 164 175
656 4 2 2 11 165 30 29 175
657 4 2 2 11 173 175 30 170
658 4 2 2 11 163 336 169 164
659 4 2 2 11 38 37 178 168
660 4 2 2 11 177 38 178 168
661 4 2 2 11 175 165 30 170
662 4 2 2 11 163 178 37 168
663 4 2 2 11 164 173 169 170
664 4 2 2 11 164 173 170 175
665 4 2 2 11 170 164 175 165
666 4 2 2 11 169 336 335 174
667 4 2 2 11 168 335 178 177
668 4 2 2 11 39 178 335 177
669 4 2 2 11 178 40 335 336
670 4 2 2 11 178 335 40 39
671 4 2 2 11 174 335 40 336
672 4 2 2 11 174 40 335 39
673 4 2 2 11 336 169 176 174
674 4 2 2 11 336 176 169 164
675 4 2 2 11 173 176 169 174
676 4 2 2 11 173 169 176 164
677 4 2 2 11 178 335 163 336
678 4 2 2 11 178 163 335 168
679 4 2 2 11 169 163 335 336
680 4 2 2 11 169 335 163 168
681 4 2 3 12 356 339 337 345
682 4 2 3 12 349 351 190 200
683 4 2 3 12 355 185 42 344
684 4 2 3 12 346 194 357 185
685 4 2 3 12 345 188 356 187
686 4 2 3 12 339 356 337 350
687 4 2 3 12 348 350 337 356
688 4 2 3 12 179 182 180 338
689 4 2 3 12 183 198 348 184
690 4 2 3 12 179 182 338 181
691 4 2 3 12 198 183 348 197
692 4 2 3 12 191 350 339 337
693 4 2 3 12 185 355 42 193
694 4 2 3 12 185 42 344 41
695 4 2 3 12 196 354 45 188
696 4 2 3 12 193 357 194 185
697 4 2 3 12 356 196 195 187
698 4 2 3 12 346 186 194 185
699 4 2 3 12 196 356 188 187
700 4 2 3 12 184 348 183 337
701 4 2 3 12 181 182 338 349
702 4 2 3 12 183 348 352 341
703 4 2 3 12 342 181 338 353
704 4 2 3 12 190 349 199 189
705 4 2 3 12 184 354 348 343
706 4 2 3 12 187 194 347 186
707 4 2 3 12 184 45 198 354
708 4 2 3 12 42 180 344 41
709 4 2 3 12 19 199 353 189
710 4 2 3 12 202 18 341 192
711 4 2 3 12 189 19 20 342
712 4 2 3 12 352 197 348 183
713 4 2 3 12 181 342 338 179
714 4 2 3 12 200 349 199 190
715 4 2 3 12 356 339 345 187
716 4 2 3 12 198 354 348 184
717 4 2 3 12 189 353 19 342
718 4 2 3 12 183 352 13 341
719 4 2 3 12 181 11 353 342
720 4 2 3 12 11 16 342 179
721 4 2 3 12 8 183 352 13
722 4 2 3 12 46 350 358 44
723 4 2 3 12 44 347 358 340
724 4 2 3 12 46 358 351 44
725 4 2 3 12 340 186 194 346
726 4 2 3 12 350 191 44 201
727 4 2 3 12 46 190 351 200
728 4 2 3 12 349 353 199 189
729 4 2 3 12 342 181 11 179
730 4 2 3 12 8 183 197 352
731 4 2 3 12 341 183 348 337
732 4 2 3 12 353 181 338 349
733 4 2 3 12 348 202 352 341
734 4 2 3 12 189 338 353 342
735 4 2 3 12 348 184 343 337
736 4 2 3 12 349 355 182 338
737 4 2 3 12 356 348 354 343
738 4 2 3 12 350 201 44 46
739 4 2 3 12 190 46 351 44
740 4 2 3 12 337 356 345 343
741 4 2 3 12 44 358 351 340
742 4 2 3 12 349 190 338 189
743 4 2 3 12 190 44 351 340
744 4 2 3 12 191 350 44 339
745 4 2 3 12 353 349 338 189
746 4 2 3 12 337 356 343 348
747 4 2 3 12 349 357 355 338
748 4 2 3 12 16 20 19 342
749 4 2 3 12 354 188 356 343
750 4 2 3 12 194 347 186 340
751 4 2 3 12 347 194 358 340
752 4 2 3 12 188 356 343 345
753 4 2 3 12 11 19 353 342
754 4 2 3 12 19 11 16 342
755 4 2 3 12 8 17 13 352
756 4 2 3 12 357 193 355 185
757 4 2 3 12 188 354 356 196
758 4 2 3 12 351 358 194 340
759 4 2 3 12 349 351 338 190
760 4 2 3 12 349 338 351 357
761 4 2 3 12 340 338 351 190
762 4 2 3 12 194 346 351 340
763 4 2 3 12 194 351 346 357
764 4 2 3 12 338 351 346 340
765 4 2 3 12 338 346 351 357
766 4 2 3 12 192 337 201 191
767 4 2 3 12 350 337 201 348
768 4 2 3 12 350 201 337 191
769 4 2 3 12 184 343 45 354
770 4 2 3 12 184 45 343 43
771 4 2 3 12 188 45 343 354
772 4 2 3 12 188 343 45 43
773 4 2 3 12 338 344 182 180
774 4 2 3 12 338 182 344 355
775 4 2 3 12 42 182 344 180
776 4 2 3 12 42 344 182 355
777 4 2 3 12 202 341 337 192
778 4 2 3 12 337 341 202 348
779 4 2 3 12 337 201 202 192
780 4 2 3 12 202 201 337 348
781 4 2 3 12 202 18 352 341
782 4 2 3 12 202 352 18 17
783 4 2 3 12 13 352 18 341
784 4 2 3 12 13 18 352 17
785 4 2 3 12 358 44 339 347
786 4 2 3 12 339 44 358 350
787 4 2 3 12 185 344 357 346
788 4 2 3 12 185 357 344 355
789 4 2 3 12 338 357 344 346
790 4 2 3 12 338 344 357 355
791 4 2 3 12 194 187 358 195
792 4 2 3 12 194 358 187 347
793 4 2 3 12 339 187 358 347
794 4 2 3 12 358 187 350 195
795 4 2 3 12 358 350 187 339
796 4 2 3 12 356 350 187 195
797 4 2 3 12 356 187 350 339
798 4 2 3 13 111 199 19 189
799 4 2 3 13 202 114 18 192
800 4 2 3 13 192 114 18 118
801 4 2 3 13 111 19 20 189
802 4 2 3 13 114 18 17 202
803 4 2 3 13 189 20 111 115
804 4 2 3 13 190 361 359 364
805 4 2 3 13 201 360 363 362
806 4 2 3 13 361 190 359 200
807 4 2 3 13 190 364 359 362
808 4 2 3 13 360 201 359 362
809 4 2 3 13 191 201 363 362
810 4 2 3 13 112 117 113 359
811 4 2 3 13 361 112 364 115
812 4 2 3 13 112 116 364 115
813 4 2 3 13 360 114 117 113
814 4 2 3 13 363 201 192 360
815 4 2 3 13 361 189 364 190
816 4 2 3 13 112 361 111 115
817 4 2 3 13 192 201 202 360
818 4 2 3 13 361 189 190 199
819 4 2 3 13 112 359 361 364
820 4 2 3 13 360 117 363 362
821 4 2 3 13 44 359 362 190
822 4 2 3 13 44 359 201 362
823 4 2 3 13 190 359 200 46
824 4 2 3 13 362 201 44 191
825 4 2 3 13 113 360 359 117
826 4 2 3 13 200 199 361 190
827 4 2 3 13 201 363 192 191
828 4 2 3 13 117 360 359 362
829 4 2 3 13 44 359 190 46
830 4 2 3 13 359 44 201 46
831 4 2 3 13 189 115 361 364
832 4 2 3 13 111 189 361 199
833 4 2 3 13 360 114 202 192
834 4 2 3 13 189 111 361 115
835 4 2 3 13 117 112 362 359
836 4 2 3 13 117 362 112 116
837 4 2 3 13 364 362 112 359
838 4 2 3 13 364 112 362 116
839 4 2 3 13 192 363 114 118
840 4 2 3 13 192 114 363 360
841 4 2 3 13 117 114 363 118
842 4 2 3 13 117 363 114 360
843 4 2 3 14 211 205 210 423
844 4 2 3 14 27 28 224 380
845 4 2 3 14 230 240 23 397
846 4 2 3 14 233 31 398 32
847 4 2 3 14 217 21 24 397
848 4 2 3 14 203 210 383 209
849 4 2 3 14 213 382 214 207
850 4 2 3 14 386 222 231 369
851 4 2 3 14 222 221 231 369
852 4 2 3 14 222 386 231 232
853 4 2 3 14 218 216 370 219
854 4 2 3 14 217 216 219 373
855 4 2 3 14 385 228 372 238
856 4 2 3 14 372 387 373 370
857 4 2 3 14 374 369 386 371
858 4 2 3 14 203 395 48 209
859 4 2 3 14 49 231 221 379
860 4 2 3 14 233 222 374 223
861 4 2 3 14 219 217 373 220
862 4 2 3 14 216 217 391 373
863 4 2 3 14 372 383 387 366
864 4 2 3 14 382 371 386 365
865 4 2 3 14 366 387 372 370
866 4 2 3 14 369 365 386 371
867 4 2 3 14 387 389 373 391
868 4 2 3 14 206 392 377 375
869 4 2 3 14 388 390 386 374
870 4 2 3 14 385 372 393 389
871 4 2 3 14 372 393 383 366
872 4 2 3 14 371 367 384 226
873 4 2 3 14 217 373 220 230
874 4 2 3 14 237 384 385 227
875 4 2 3 14 384 388 394 371
876 4 2 3 14 371 365 382 377
877 4 2 3 14 238 372 385 389
878 4 2 3 14 228 385 372 368
879 4 2 3 14 233 390 234 374
880 4 2 3 14 213 377 207 206
881 4 2 3 14 387 372 373 389
882 4 2 3 14 374 386 388 371
883 4 2 3 14 386 374 222 369
884 4 2 3 14 373 387 216 370
885 4 2 3 14 370 219 216 373
886 4 2 3 14 389 383 387 372
887 4 2 3 14 236 384 237 227
888 4 2 3 14 373 239 389 229
889 4 2 3 14 236 384 227 226
890 4 2 3 14 388 235 374 225
891 4 2 3 14 371 382 386 388
892 4 2 3 14 385 237 227 228
893 4 2 3 14 224 235 374 234
894 4 2 3 14 375 385 393 392
895 4 2 3 14 373 387 391 216
896 4 2 3 14 237 385 238 228
897 4 2 3 14 377 392 367 375
898 4 2 3 14 239 373 389 391
899 4 2 3 14 227 367 385 368
900 4 2 3 14 372 238 228 229
901 4 2 3 14 388 235 390 374
902 4 2 3 14 367 385 384 227
903 4 2 3 14 389 393 383 372
904 4 2 3 14 393 372 376 366
905 4 2 3 14 371 382 394 377
906 4 2 3 14 394 388 382 371
907 4 2 3 14 211 206 392 212
908 4 2 3 14 235 224 374 225
909 4 2 3 14 229 373 239 230
910 4 2 3 14 239 238 389 229
911 4 2 3 14 225 236 388 235
912 4 2 3 14 389 372 373 229
913 4 2 3 14 235 374 234 390
914 4 2 3 14 377 365 382 207
915 4 2 3 14 225 374 388 371
916 4 2 3 14 377 382 213 207
917 4 2 3 14 227 384 367 226
918 4 2 3 14 375 385 367 368
919 4 2 3 14 367 392 385 375
920 4 2 3 14 392 367 385 384
921 4 2 3 14 385 227 368 228
922 4 2 3 14 372 389 238 229
923 4 2 3 14 395 383 209 203
924 4 2 3 14 240 217 397 230
925 4 2 3 14 379 365 386 369
926 4 2 3 14 213 394 382 377
927 4 2 3 14 379 386 231 369
928 4 2 3 14 231 221 379 369
929 4 2 3 14 386 379 231 396
930 4 2 3 14 28 380 31 398
931 4 2 3 14 380 28 31 27
932 4 2 3 14 21 397 23 24
933 4 2 3 14 28 31 32 398
934 4 2 3 14 393 211 210 423
935 4 2 3 14 423 211 392 393
936 4 2 3 14 375 423 392 393
937 4 2 3 14 376 423 375 393
938 4 2 3 14 376 375 423 205
939 4 2 3 14 28 224 398 234
940 4 2 3 14 28 398 224 380
941 4 2 3 14 381 21 23 22
942 4 2 3 14 23 21 381 397
943 4 2 3 14 23 230 381 22
944 4 2 3 14 381 230 23 397
945 4 2 3 14 381 230 217 220
946 4 2 3 14 217 230 381 397
947 4 2 3 14 217 21 381 220
948 4 2 3 14 381 21 217 397
949 4 2 3 14 207 365 214 208
950 4 2 3 14 207 214 365 382
951 4 2 3 14 393 366 210 383
952 4 2 3 14 203 210 366 383
953 4 2 3 14 203 366 210 204
954 4 2 3 14 392 212 377 394
955 4 2 3 14 392 377 212 206
956 4 2 3 14 213 377 212 394
957 4 2 3 14 213 212 377 206
958 4 2 3 14 386 232 374 390
959 4 2 3 14 386 374 232 222
960 4 2 3 14 233 374 232 390
961 4 2 3 14 233 232 374 222
962 4 2 3 14 236 384 371 388
963 4 2 3 14 371 384 236 226
964 4 2 3 14 371 225 236 388
965 4 2 3 14 236 225 371 226
966 4 2 3 14 396 214 49 50
967 4 2 3 14 49 231 396 50
968 4 2 3 14 396 231 49 379
969 4 2 3 14 203 395 47 48
970 4 2 3 14 203 47 395 378
971 4 2 3 14 215 47 395 48
972 4 2 3 14 240 217 373 391
973 4 2 3 14 373 217 240 230
974 4 2 3 14 373 239 240 391
975 4 2 3 14 240 239 373 230
976 4 2 3 14 233 398 224 234
977 4 2 3 14 233 374 224 223
978 4 2 3 14 224 374 233 234
979 4 2 3 14 372 385 376 368
980 4 2 3 14 372 376 385 393
981 4 2 3 14 375 376 385 368
982 4 2 3 14 375 385 376 393
983 4 2 3 14 392 377 384 394
984 4 2 3 14 392 384 377 367
985 4 2 3 14 371 384 377 394
986 4 2 3 14 371 377 384 367
987 4 2 3 14 206 211 375 205
988 4 2 3 14 206 375 211 392
989 4 2 3 14 423 375 211 205
990 4 2 3 14 423 211 375 392
991 4 2 3 14 386 396 365 379
992 4 2 3 14 386 365 396 382
993 4 2 3 14 214 396 365 382
994 4 2 3 14 387 366 378 370
995 4 2 3 14 366 376 210 204
996 4 2 3 14 366 210 376 393
997 4 2 3 14 423 376 210 393
998 4 2 3 14 216 218 387 215
999 4 2 3 14 216 387 218 370
1000 4 2 3 14 378 218 387 370
1001 4 2 3 14 205 210 376 204
1002 4 2 3 14 376 210 205 423
1003 4 2 3 14 224 380 233 223
1004 4 2 3 14 224 233 380 398
1005 4 2 3 14 31 233 380 223
1006 4 2 3 14 31 380 233 398
1007 4 2 3 14 365 208 396 214
1008 4 2 3 14 365 396 208 379
1009 4 2 3 14 49 396 208 214
1010 4 2 3 14 49 208 396 379
1011 4 2 3 14 387 218 395 215
1012 4 2 3 14 387 395 218 378
1013 4 2 3 14 47 395 218 215
1014 4 2 3 14 47 218 395 378
1015 4 2 3 14 383 387 378 395
1016 4 2 3 14 378 387 383 366
1017 4 2 3 14 378 203 383 395
1018 4 2 3 14 383 203 378 366
1019 4 2 3 15 237 236 227 424
1020 4 2 3 15 227 236 226 424
1021 4 2 3 15 237 404 411 424
1022 4 2 3 15 228 238 408 229
1023 4 2 3 15 134 27 224 128
1024 4 2 3 15 225 407 236 235
1025 4 2 3 15 229 408 228 401
1026 4 2 3 15 239 408 238 229
1027 4 2 3 15 404 237 227 424
1028 4 2 3 15 27 134 224 28
1029 4 2 3 15 28 224 234 134
1030 4 2 3 15 230 23 123 22
1031 4 2 3 15 400 406 132 399
1032 4 2 3 15 126 400 132 399
1033 4 2 3 15 410 229 230 403
1034 4 2 3 15 400 132 127 126
1035 4 2 3 15 131 408 130 125
1036 4 2 3 15 406 400 132 407
1037 4 2 3 15 408 125 399 401
1038 4 2 3 15 228 412 237 405
1039 4 2 3 15 409 407 133 402
1040 4 2 3 15 229 408 410 239
1041 4 2 3 15 407 402 225 400
1042 4 2 3 15 134 402 224 409
1043 4 2 3 15 409 133 134 402
1044 4 2 3 15 404 412 237 411
1045 4 2 3 15 412 404 237 405
1046 4 2 3 15 234 235 409 224
1047 4 2 3 15 410 239 240 230
1048 4 2 3 15 402 134 224 128
1049 4 2 3 15 411 404 226 424
1050 4 2 3 15 128 133 402 134
1051 4 2 3 15 237 227 228 405
1052 4 2 3 15 412 228 237 238
1053 4 2 3 15 133 128 402 127
1054 4 2 3 15 129 124 130 410
1055 4 2 3 15 410 229 239 230
1056 4 2 3 15 409 134 234 224
1057 4 2 3 15 408 412 238 228
1058 4 2 3 15 237 404 227 405
1059 4 2 3 15 399 408 412 406
1060 4 2 3 15 399 400 406 404
1061 4 2 3 15 236 411 226 424
1062 4 2 3 15 132 126 399 125
1063 4 2 3 15 412 406 411 404
1064 4 2 3 15 412 399 404 405
1065 4 2 3 15 399 412 404 406
1066 4 2 3 15 227 226 404 424
1067 4 2 3 15 237 411 236 424
1068 4 2 3 15 411 226 407 236
1069 4 2 3 15 225 407 226 236
1070 4 2 3 15 225 226 407 400
1071 4 2 3 15 410 129 230 240
1072 4 2 3 15 23 230 129 240
1073 4 2 3 15 23 129 230 123
1074 4 2 3 15 409 407 225 235
1075 4 2 3 15 225 407 409 402
1076 4 2 3 15 225 224 409 235
1077 4 2 3 15 409 224 225 402
1078 4 2 3 15 402 133 400 407
1079 4 2 3 15 402 400 133 127
1080 4 2 3 15 132 400 133 407
1081 4 2 3 15 132 133 400 127
1082 4 2 3 15 124 125 408 401
1083 4 2 3 15 408 125 124 130
1084 4 2 3 15 124 410 408 130
1085 4 2 3 15 132 406 125 399
1086 4 2 3 15 132 125 406 131
1087 4 2 3 15 408 125 406 399
1088 4 2 3 15 408 406 125 131
1089 4 2 3 15 124 403 408 410
1090 4 2 3 15 124 408 403 401
1091 4 2 3 15 229 408 403 410
1092 4 2 3 15 229 403 408 401
1093 4 2 3 15 230 403 129 410
1094 4 2 3 15 230 129 403 123
1095 4 2 3 15 124 129 403 410
1096 4 2 3 15 124 403 129 123
1097 4 2 3 15 226 404 407 400
1098 4 2 3 15 226 407 404 411
1099 4 2 3 15 406 407 404 400
1100 4 2 3 15 406 404 407 411
1101 4 2 3 15 399 405 408 401
1102 4 2 3 15 399 408 405 412
1103 4 2 3 15 228 408 405 401
1104 4 2 3 15 228 405 408 412
1105 4 2 3 16 242 35 166 241
1106 4 2 3 16 243 38 244 172
1107 4 2 3 16 166 36 35 242
1108 4 2 3 16 243 38 172 37
1109 4 2 3 16 166 52 167 51
1110 4 2 3 16 35 166 241 171
1111 4 2 3 16 243 167 37 172
1112 4 2 3 16 52 166 167 171
1113 4 2 3 16 52 167 172 171
1114 4 2 3 16 166 241 52 242
1115 4 2 3 16 166 52 51 242
1116 4 2 3 16 52 243 167 51
1117 4 2 3 16 172 243 52 244
1118 4 2 3 16 241 166 52 171
1119 4 2 3 16 243 172 52 167
$EndElements
