<?xml version="1.0" standalone="yes"?>
<!DOCTYPE svg PUBLIC "-//W3C//DTD SVG 1.1//EN"
 "http://www.w3.org/Graphics/SVG/1.1/DTD/svg11.dtd">
<svg xmlns="http://www.w3.org/2000/svg" version="1.1"
  width="100%" height="100%" viewBox="0 0 1024 768"
  style="fill: none; font-family: Helvetica;
 font: Helvetica;
">

<!-- Creator: NGspice -->

<rect x="0" y="0" width="1024" height="768" fill="black" stroke="none"/>
<text stroke="none" fill="white" font-size="16" x="358" y="752">
time
</text>
<text stroke="none" fill="white" font-size="16" x="10" y="16">
tran1: Gate-Emitter Voltages
</text>
<path stroke="white" d="M60 704l0 -636"/>
<text stroke="none" fill="white" font-size="16" x="45" y="728">
0.0
</text>
<path stroke="white" stroke-dasharray="1,2" d="M173 704l0 -636"/>
<text stroke="none" fill="white" font-size="16" x="153" y="728">
20.0
</text>
<path stroke="white" stroke-dasharray="1,2" d="M286 704l0 -636"/>
<text stroke="none" fill="white" font-size="16" x="266" y="728">
40.0
</text>
<path stroke="white" stroke-dasharray="1,2" d="M399 704l0 -636"/>
<text stroke="none" fill="white" font-size="16" x="379" y="728">
60.0
</text>
<path stroke="white" stroke-dasharray="1,2" d="M512 704l0 -636"/>
<text stroke="none" fill="white" font-size="16" x="492" y="728">
80.0
</text>
<path stroke="white" stroke-dasharray="1,2" d="M625 704l0 -636"/>
<text stroke="none" fill="white" font-size="16" x="600" y="728">
100.0
</text>
<path stroke="white" stroke-dasharray="1,2" d="M738 704l0 -636"/>
<text stroke="none" fill="white" font-size="16" x="713" y="728">
120.0
</text>
<path stroke="white" stroke-dasharray="1,2" d="M851 704l0 -636"/>
<text stroke="none" fill="white" font-size="16" x="826" y="728">
140.0
</text>
<path stroke="white" stroke-dasharray="1,2" d="M964 704l0 -636"/>
<text stroke="none" fill="white" font-size="16" x="939" y="728">
160.0
</text>
<text stroke="none" fill="white" font-size="16" x="614" y="752">
us
</text>
<path stroke="white" stroke-dasharray="1,2" d="M60 704l904 0"/>
<text stroke="none" fill="white" font-size="16" x="18" y="712">
-8.0
</text>
<path stroke="white" stroke-dasharray="1,2" d="M60 651l904 0"/>
<text stroke="none" fill="white" font-size="16" x="18" y="659">
-6.0
</text>
<path stroke="white" stroke-dasharray="1,2" d="M60 598l904 0"/>
<text stroke="none" fill="white" font-size="16" x="18" y="606">
-4.0
</text>
<path stroke="white" stroke-dasharray="1,2" d="M60 545l904 0"/>
<text stroke="none" fill="white" font-size="16" x="18" y="553">
-2.0
</text>
<path stroke="white" d="M60 492l904 0"/>
<text stroke="none" fill="white" font-size="16" x="28" y="500">
0.0
</text>
<path stroke="white" stroke-dasharray="1,2" d="M60 439l904 0"/>
<text stroke="none" fill="white" font-size="16" x="28" y="447">
2.0
</text>
<path stroke="white" stroke-dasharray="1,2" d="M60 386l904 0"/>
<text stroke="none" fill="white" font-size="16" x="28" y="394">
4.0
</text>
<path stroke="white" stroke-dasharray="1,2" d="M60 333l904 0"/>
<text stroke="none" fill="white" font-size="16" x="28" y="341">
6.0
</text>
<path stroke="white" stroke-dasharray="1,2" d="M60 280l904 0"/>
<text stroke="none" fill="white" font-size="16" x="28" y="288">
8.0
</text>
<path stroke="white" stroke-dasharray="1,2" d="M60 227l904 0"/>
<text stroke="none" fill="white" font-size="16" x="18" y="235">
10.0
</text>
<path stroke="white" stroke-dasharray="1,2" d="M60 174l904 0"/>
<text stroke="none" fill="white" font-size="16" x="18" y="182">
12.0
</text>
<path stroke="white" stroke-dasharray="1,2" d="M60 121l904 0"/>
<text stroke="none" fill="white" font-size="16" x="18" y="129">
14.0
</text>
<path stroke="white" stroke-dasharray="1,2" d="M60 68l904 0"/>
<text stroke="none" fill="white" font-size="16" x="18" y="76">
16.0
</text>
<text stroke="none" fill="white" font-size="16" x="10" y="32">
     
</text>
<path stroke="red" d="M452 23l45 0"/>
<text stroke="none" fill="white" font-size="16" x="507" y="32">
v(gate_hi,midpoint)
</text>
<path stroke="red" d="M60 492l1 0 0 -195 1 -11 0 -191 69 0M131 492l0 -397M131 492l3 0M134 493l0 -1 3 0M137 493l0 -1 83 0 0 -1M220 492l3 0 0 -397 70 0M293 492l0 -397M293 492l3 0M296 493l0 -1 85 0 0 -2M381 492l3 0 0 -395 1 -1M385 276l0 -181 69 0"/>
<path stroke="red" d="M454 492l0 -397M454 492l3 0M457 493l0 -1 86 0 0 -2M543 492l3 0 0 -397 69 0M615 306l0 -211M615 306l1 2M616 492l0 -184M616 492l2 0M618 493l0 -1 86 0 0 -2M704 492l3 0 0 -397M707 129l1 -12 0 -22 69 0M777 492l0 -397M777 492l3 0"/>
<path stroke="red" d="M780 493l0 -1 127 0"/>
<path stroke="blue" d="M60 23l45 0"/>
<text stroke="none" fill="white" font-size="16" x="115" y="32">
v(gate_lo)
</text>
<path stroke="blue" d="M60 492l1 0M61 493l0 -7M61 487l1 0M62 492l0 -5M62 492l69 0M131 639l0 -147 3 0 0 -397 3 0 0 -1M137 95l83 0M220 492l0 -397M220 492l3 0 0 -180M223 492l70 0M293 651l0 -159 2 0 0 -9 1 -15 0 -373 3 0 0 -1M299 95l82 0M381 467l0 -372"/>
<path stroke="blue" d="M381 467l1 11M382 492l0 -14M382 492l2 0 0 -7M384 491l1 0M385 492l0 -180M385 492l69 0M454 654l0 -162 3 0 0 -397 4 0 0 -1M461 95l82 0M543 492l0 -397M543 492l3 0 0 -176M546 492l69 0M615 513l0 -21M615 513l1 14M616 655l0 -163"/>
<path stroke="blue" d="M616 492l2 0 0 -374 1 -14 0 -9 3 0 0 -1M622 95l82 0M704 492l0 -397M704 492l3 0 0 -176M707 458l1 12M708 492l0 -22M708 492l69 0M777 655l0 -163 3 0 0 -397 4 0 0 -1M784 95l123 0"/>
</svg>
