<?xml version="1.0" standalone="yes"?>
<!DOCTYPE svg PUBLIC "-//W3C//DTD SVG 1.1//EN"
 "http://www.w3.org/Graphics/SVG/1.1/DTD/svg11.dtd">
<svg xmlns="http://www.w3.org/2000/svg" version="1.1"
  width="100%" height="100%" viewBox="0 0 1024 768"
  style="fill: none; font-family: Helvetica;
 font: Helvetica;
">

<!-- Creator: NGspice -->

<rect x="0" y="0" width="1024" height="768" fill="black" stroke="none"/>
<text stroke="none" fill="white" font-size="16" x="358" y="752">
time
</text>
<text stroke="none" fill="white" font-size="16" x="10" y="16">
tran1: VCE and IC (x10) vs Time
</text>
<path stroke="white" d="M70 704l0 -637"/>
<text stroke="none" fill="white" font-size="16" x="55" y="728">
0.0
</text>
<path stroke="white" stroke-dasharray="1,2" d="M180 704l0 -637"/>
<text stroke="none" fill="white" font-size="16" x="160" y="728">
10.0
</text>
<path stroke="white" stroke-dasharray="1,2" d="M290 704l0 -637"/>
<text stroke="none" fill="white" font-size="16" x="270" y="728">
20.0
</text>
<path stroke="white" stroke-dasharray="1,2" d="M400 704l0 -637"/>
<text stroke="none" fill="white" font-size="16" x="380" y="728">
30.0
</text>
<path stroke="white" stroke-dasharray="1,2" d="M510 704l0 -637"/>
<text stroke="none" fill="white" font-size="16" x="490" y="728">
40.0
</text>
<path stroke="white" stroke-dasharray="1,2" d="M620 704l0 -637"/>
<text stroke="none" fill="white" font-size="16" x="600" y="728">
50.0
</text>
<path stroke="white" stroke-dasharray="1,2" d="M730 704l0 -637"/>
<text stroke="none" fill="white" font-size="16" x="710" y="728">
60.0
</text>
<path stroke="white" stroke-dasharray="1,2" d="M840 704l0 -637"/>
<text stroke="none" fill="white" font-size="16" x="820" y="728">
70.0
</text>
<path stroke="white" stroke-dasharray="1,2" d="M950 704l0 -637"/>
<text stroke="none" fill="white" font-size="16" x="930" y="728">
80.0
</text>
<text stroke="none" fill="white" font-size="16" x="614" y="752">
us
</text>
<path stroke="white" d="M70 704l880 0"/>
<text stroke="none" fill="white" font-size="16" x="28" y="712">
-0.0
</text>
<path stroke="white" stroke-dasharray="1,2" d="M70 613l880 0"/>
<text stroke="none" fill="white" font-size="16" x="28" y="621">
50.0
</text>
<path stroke="white" stroke-dasharray="1,2" d="M70 522l880 0"/>
<text stroke="none" fill="white" font-size="16" x="18" y="530">
100.0
</text>
<path stroke="white" stroke-dasharray="1,2" d="M70 431l880 0"/>
<text stroke="none" fill="white" font-size="16" x="18" y="439">
150.0
</text>
<path stroke="white" stroke-dasharray="1,2" d="M70 340l880 0"/>
<text stroke="none" fill="white" font-size="16" x="18" y="348">
200.0
</text>
<path stroke="white" stroke-dasharray="1,2" d="M70 249l880 0"/>
<text stroke="none" fill="white" font-size="16" x="18" y="257">
250.0
</text>
<path stroke="white" stroke-dasharray="1,2" d="M70 158l880 0"/>
<text stroke="none" fill="white" font-size="16" x="18" y="166">
300.0
</text>
<path stroke="white" stroke-dasharray="1,2" d="M70 67l880 0"/>
<text stroke="none" fill="white" font-size="16" x="18" y="75">
350.0
</text>
<text stroke="none" fill="white" font-size="16" x="10" y="32">
     
</text>
<path stroke="red" d="M440 23l44 0"/>
<text stroke="none" fill="white" font-size="16" x="494" y="32">
v(collector)
</text>
<path stroke="red" d="M70 704l1 0 0 -1 1 0 0 -4 1 0 0 -9 1 0 0 -13 1 0 0 -18 1 0 0 -20 1 -1 0 -14 1 0 0 -11 1 0 0 -10 1 -1 0 -10 1 0 0 -11 1 0 0 -10 1 0 0 -11 1 0 0 -10 1 0 0 -11 1 0 0 -11 1 0 0 -10 1 0 0 -11 1 0 0 -10 1 0 0 -11 1 0 0 -10 1 -1"/>
<path stroke="red" d="M92 475l0 -10 1 0 0 -11 1 0 0 -10 1 0 0 -11 1 0 0 -10 1 0 0 -11 1 0 0 -11 1 0 0 -10 1 0 0 -11 1 0 0 -10 1 0 0 -11 1 0 0 -10 1 0 0 -10 1 0 0 -10 1 0 0 -10 1 0 0 -10 1 -1 0 -10 1 0 0 -10 1 0 0 -11 1 0 0 -11 1 0 0 -11 1 0 0 -11"/>
<path stroke="red" d="M113 244l1 0 0 -11 1 -1 0 -10 1 0 0 -11 1 0 0 -10 1 0 0 -10 1 0 0 -10 1 0 0 -10 1 0 0 -11 1 0 0 -10 1 0 0 -11 1 0 0 -11 1 0M125 704l0 -583M125 704l110 0 0 -584 110 0M345 704l0 -584M345 704l110 0 0 -584 110 0M565 704l0 -584"/>
<path stroke="red" d="M565 704l110 0 0 -584 193 0M868 121l0 -1M868 121l82 0"/>
<path stroke="blue" d="M70 23l44 0"/>
<text stroke="none" fill="white" font-size="16" x="124" y="32">
i(v_ic_sense)*10
</text>
<path stroke="blue" d="M70 704l4 0 0 -1 24 0M98 704l0 -1M98 704l27 0 0 -2 1 0 0 -5 1 0 0 -5 1 0 0 -5 1 -1 0 -4 1 -1 0 -4 1 0 0 -5 1 0 0 -5 1 0 0 -5 1 0 0 -4 1 0 0 -5 1 0 0 -5 1 0 0 -4 1 0 0 -4 1 0 0 -5 1 0 0 -4 1 0 0 -4 1 0 0 -4 1 0 0 -4 1 0"/>
<path stroke="blue" d="M144 619l0 -4 1 0 0 -4 1 0 0 -4 1 0 0 -4 1 0 0 -4 1 0 0 -4 1 0 0 -3 1 0 0 -4 1 0 0 -4 1 0 0 -3 1 0 0 -4 1 0 0 -3 1 0 0 -3 1 0 0 -4 1 0 0 -3 1 0 0 -3 1 0 0 -3 1 0 0 -4 1 0 0 -3 1 0 0 -3 1 0 0 -3 1 0 0 -3 1 0 0 -3 1 0 0 -2"/>
<path stroke="blue" d="M167 537l1 0 0 -3 1 0 0 -3 1 0 0 -3 1 0 0 -3 1 0 0 -2 1 0 0 -3 1 0 0 -2 1 0 0 -3 1 0 0 -3 1 0 0 -2 1 0 0 -2 1 -1 0 -2 1 0 0 -2 1 0 0 -3 1 0 0 -2 1 0 0 -2 1 0 0 -2 1 0 0 -3 1 0 0 -2 1 0 0 -2 1 0 0 -2 1 0 0 -2 1 0 0 -2 1 0"/>
<path stroke="blue" d="M191 481l0 -2 1 0 0 -2 1 0 0 -2 1 0 0 -2 1 0 0 -2 1 0 0 -2 1 0 0 -2 1 0 0 -2 1 0 0 -2 1 0 0 -1 1 0 0 -2 1 0 0 -2 1 0 0 -1 1 -1 0 -1 1 0 0 -2 1 0 0 -1 1 0 0 -2 1 0 0 -2 1 0 0 -1 1 0 0 -2 1 0 0 -1 1 0 0 -2 1 0 0 -1 1 0 0 -2"/>
<path stroke="blue" d="M214 439l1 0 0 -1 1 0 0 -2 1 0 0 -1 1 0 0 -1 1 0 0 -2 1 0 0 -1 1 0 0 -1 1 0 0 -2 1 0 0 -1 1 0 0 -1 1 0 0 -1 1 0 0 -2 1 0 0 -1 1 0 0 -1 1 0 0 -1 1 0 0 -1 1 0 0 -1 1 0 0 -2 1 0 0 -1 1 0 0 -1 1 0M235 415l0 -1M235 415l1 0M236 419l0 -4"/>
<path stroke="blue" d="M236 419l1 0M237 423l0 -4M237 423l1 0M238 427l0 -4M238 427l1 0M239 431l0 -4M239 431l1 0M240 435l0 -4M240 435l1 0M241 439l0 -4M241 439l1 0M242 443l0 -4M242 443l1 0M243 447l0 -4M243 447l1 0M244 451l0 -4M244 451l1 0M245 454l0 -3"/>
<path stroke="blue" d="M245 454l1 0M246 458l0 -4M246 458l1 0M247 461l0 -3M247 461l1 0M248 465l0 -4M248 465l1 0M249 468l0 -3M249 468l1 0M250 472l0 -4M250 472l1 0M251 475l0 -3M251 475l1 0M252 478l0 -3M252 478l1 1M253 482l0 -3M253 482l1 0M254 485l0 -3"/>
<path stroke="blue" d="M254 485l1 0M255 488l0 -3M255 488l1 0M256 491l0 -3M256 491l1 0M257 494l0 -3M257 494l1 0M258 497l0 -3M258 497l1 0M259 500l0 -3M259 500l1 0M260 503l0 -3M260 503l1 0M261 506l0 -3M261 506l1 0M262 509l0 -3M262 509l1 0M263 512l0 -3"/>
<path stroke="blue" d="M263 512l1 0M264 515l0 -3M264 515l1 0M265 517l0 -2M265 517l1 1M266 520l0 -2M266 520l1 0M267 523l0 -3M267 523l1 0M268 525l0 -2M268 525l1 1M269 528l0 -2M269 528l1 0M270 531l0 -3M270 531l1 0M271 533l0 -2M271 533l1 0M272 536l0 -3"/>
<path stroke="blue" d="M272 536l1 0M273 538l0 -2M273 538l1 0M274 540l0 -2M274 540l1 0M275 543l0 -3M275 543l1 0M276 545l0 -2M276 545l1 0M277 547l0 -2M277 547l1 1M278 550l0 -2M278 550l1 0M279 552l0 -2M279 552l1 0M280 554l0 -2M280 554l1 0M281 556l0 -2"/>
<path stroke="blue" d="M281 556l1 0M282 559l0 -3M282 559l1 0M283 561l0 -2M283 561l1 0M284 563l0 -2M284 563l1 0M285 565l0 -2M285 565l1 0M286 567l0 -2M286 567l1 0M287 569l0 -2M287 569l1 0M288 571l0 -2M288 571l1 0M289 573l0 -2M289 573l1 0M290 575l0 -2"/>
<path stroke="blue" d="M290 575l1 0M291 576l0 -1M291 576l1 1M292 578l0 -1M292 578l1 0M293 580l0 -2M293 580l1 0M294 582l0 -2M294 582l1 0M295 584l0 -2M295 584l1 0M296 585l0 -1M296 585l1 0M297 587l0 -2M297 587l1 0M298 589l0 -2M298 589l1 0M299 591l0 -2"/>
<path stroke="blue" d="M299 591l1 0M300 592l0 -1M300 592l1 0M301 594l0 -2M301 594l1 0M302 595l0 -1M302 595l1 0M303 597l0 -2M303 597l1 0M304 599l0 -2M304 599l1 0M305 600l0 -1M305 600l1 0M306 602l0 -2M306 602l1 0M307 603l0 -1M307 603l1 0M308 605l0 -2"/>
<path stroke="blue" d="M308 605l1 0M309 606l0 -1M309 606l1 0M310 607l0 -1M310 607l1 0M311 609l0 -2M311 609l1 0M312 610l0 -1M312 610l1 0M313 612l0 -2M313 612l1 0M314 613l0 -1M314 613l1 0M315 614l0 -1M315 614l1 0M316 616l0 -2M316 616l1 0M317 617l0 -1"/>
<path stroke="blue" d="M317 617l1 0M318 618l0 -1M318 618l1 0M319 619l0 -1M319 619l1 0M320 621l0 -2M320 621l1 0M321 622l0 -1M321 622l1 0M322 623l0 -1M322 623l1 0M323 624l0 -1M323 624l1 0M324 625l0 -1M324 625l1 0M325 627l0 -2M325 627l1 0M326 628l0 -1"/>
<path stroke="blue" d="M326 628l1 0M327 629l0 -1M327 629l1 0M328 630l0 -1M328 630l1 0M329 631l0 -1M329 631l1 0M330 632l0 -1M330 632l1 0M331 633l0 -1M331 633l1 0M332 634l0 -1M332 634l1 0M333 635l0 -1M333 635l1 0M334 636l0 -1M334 636l1 0M335 637l0 -1"/>
<path stroke="blue" d="M335 637l1 0M336 638l0 -1M336 638l1 0M337 639l0 -1M337 639l1 0M338 640l0 -1M338 640l1 0M339 641l0 -1M339 641l1 0M340 642l0 -1M340 642l1 0M341 643l0 -1M341 643l1 0M342 644l0 -1M342 644l1 0M343 645l0 -1M343 645l2 0M345 646l0 -1"/>
<path stroke="blue" d="M345 645l1 0 0 -5 1 0 0 -4 1 0 0 -4 1 0 0 -4 1 -1 0 -4 1 0 0 -4 1 0 0 -4 1 0 0 -4 1 0 0 -4 1 0 0 -3 1 -1 0 -3 1 0 0 -4 1 0 0 -4 1 0 0 -3 1 0 0 -4 1 0 0 -4 1 0 0 -3 1 0 0 -3 1 0 0 -4 1 0 0 -3 1 0 0 -3 1 0 0 -4 1 0 0 -3 1 0"/>
<path stroke="blue" d="M369 558l0 -3 1 0 0 -3 1 0 0 -3 1 0 0 -3 1 0 0 -3 1 0 0 -3 1 0 0 -3 1 0 0 -3 1 0 0 -3 1 0 0 -2 1 0 0 -3 1 0 0 -3 1 0 0 -2 1 0 0 -3 1 0 0 -3 1 0 0 -2 1 0 0 -3 1 0 0 -2 1 0 0 -2 1 -1 0 -2 1 0 0 -2 1 0 0 -3 1 0 0 -2 1 0 0 -2"/>
<path stroke="blue" d="M392 494l1 0 0 -2 1 0 0 -3 1 0 0 -2 1 0 0 -2 1 0 0 -2 1 0 0 -2 1 0 0 -2 1 0 0 -2 1 0 0 -2 1 0 0 -2 1 0 0 -2 1 0 0 -2 1 0 0 -2 1 0 0 -1 1 0 0 -2 1 0 0 -2 1 0 0 -2 1 0 0 -1 1 -1 0 -1 1 0 0 -2 1 0 0 -2 1 0 0 -1 1 0 0 -2 1 0"/>
<path stroke="blue" d="M416 450l0 -1 1 0 0 -2 1 0 0 -2 1 0 0 -1 1 0 0 -2 1 0 0 -1 1 0 0 -1 1 0 0 -2 1 0 0 -1 1 0 0 -2 1 0 0 -1 1 0 0 -1 1 0 0 -2 1 0 0 -1 1 0 0 -1 1 0 0 -2 1 0 0 -1 1 0 0 -1 1 0 0 -1 1 0 0 -2 1 0 0 -1 1 0 0 -1 1 0 0 -1 1 0 0 -1"/>
<path stroke="blue" d="M439 418l1 0 0 -1 1 0 0 -1 1 0 0 -2 1 0 0 -1 1 0 0 -1 1 0 0 -1 1 0 0 -1 1 0 0 -1 1 0 0 -1 1 0 0 -1 1 0 0 -1 1 0 0 -1 1 0 0 -1 1 0 1 -1 1 0 0 -1M455 403l1 0M456 408l0 -5M456 408l1 0M457 412l0 -4M457 412l1 0M458 416l0 -4"/>
<path stroke="blue" d="M458 416l1 0M459 420l0 -4M459 420l1 1M460 425l0 -4M460 425l1 0M461 429l0 -4M461 429l1 0M462 433l0 -4M462 433l1 0M463 437l0 -4M463 437l1 0M464 440l0 -3M464 440l1 0M465 444l0 -4M465 444l1 0M466 448l0 -4M466 448l1 0M467 452l0 -4"/>
<path stroke="blue" d="M467 452l1 0M468 455l0 -3M468 455l1 0M469 459l0 -4M469 459l1 0M470 463l0 -4M470 463l1 0M471 466l0 -3M471 466l1 0M472 469l0 -3M472 469l1 0M473 473l0 -4M473 473l1 0M474 476l0 -3M474 476l1 0M475 480l0 -4M475 480l1 0M476 483l0 -3"/>
<path stroke="blue" d="M476 483l1 0M477 486l0 -3M477 486l1 0M478 489l0 -3M478 489l1 0M479 492l0 -3M479 492l1 0M480 495l0 -3M480 495l1 0M481 498l0 -3M481 498l1 0M482 501l0 -3M482 501l1 0M483 504l0 -3M483 504l1 0M484 507l0 -3M484 507l1 0M485 510l0 -3"/>
<path stroke="blue" d="M485 510l1 0M486 513l0 -3M486 513l1 0M487 516l0 -3M487 516l1 0M488 518l0 -2M488 518l1 0M489 521l0 -3M489 521l1 0M490 524l0 -3M490 524l1 0M491 526l0 -2M491 526l1 0M492 529l0 -3M492 529l1 0M493 531l0 -2M493 531l1 0M494 534l0 -3"/>
<path stroke="blue" d="M494 534l1 0M495 536l0 -2M495 536l1 0M496 539l0 -3M496 539l1 0M497 541l0 -2M497 541l1 0M498 544l0 -3M498 544l1 0M499 546l0 -2M499 546l1 0M500 548l0 -2M500 548l1 0M501 550l0 -2M501 550l1 1M502 553l0 -2M502 553l1 0M503 555l0 -2"/>
<path stroke="blue" d="M503 555l1 0M504 557l0 -2M504 557l1 0M505 559l0 -2M505 559l1 0M506 561l0 -2M506 561l1 0M507 563l0 -2M507 563l1 0M508 565l0 -2M508 565l1 0M509 567l0 -2M509 567l1 0M510 569l0 -2M510 569l1 0M511 571l0 -2M511 571l1 0M512 573l0 -2"/>
<path stroke="blue" d="M512 573l1 0M513 575l0 -2M513 575l1 0M514 577l0 -2M514 577l1 0M515 579l0 -2M515 579l1 0M516 581l0 -2M516 581l1 0M517 583l0 -2M517 583l1 0M518 584l0 -1M518 584l1 0M519 586l0 -2M519 586l1 0M520 588l0 -2M520 588l1 0M521 589l0 -1"/>
<path stroke="blue" d="M521 589l1 0M522 591l0 -2M522 591l1 0M523 593l0 -2M523 593l1 0M524 594l0 -1M524 594l1 0M525 596l0 -2M525 596l1 0M526 598l0 -2M526 598l1 0M527 599l0 -1M527 599l1 0M528 601l0 -2M528 601l1 0M529 602l0 -1M529 602l1 0M530 604l0 -2"/>
<path stroke="blue" d="M530 604l1 0M531 605l0 -1M531 605l1 0M532 606l0 -1M532 606l1 1M533 608l0 -1M533 608l1 0M534 609l0 -1M534 609l1 0M535 611l0 -2M535 611l1 0M536 612l0 -1M536 612l1 0M537 613l0 -1M537 613l1 0M538 615l0 -2M538 615l1 0M539 616l0 -1"/>
<path stroke="blue" d="M539 616l1 0M540 617l0 -1M540 617l1 0M541 619l0 -2M541 619l1 0M542 620l0 -1M542 620l1 0M543 621l0 -1M543 621l1 0M544 622l0 -1M544 622l1 0M545 623l0 -1M545 623l1 0M546 625l0 -2M546 625l1 0M547 626l0 -1M547 626l1 0M548 627l0 -1"/>
<path stroke="blue" d="M548 627l1 0M549 628l0 -1M549 628l1 0M550 629l0 -1M550 629l1 0M551 630l0 -1M551 630l1 0M552 631l0 -1M552 631l1 0M553 632l0 -1M553 632l1 0M554 633l0 -1M554 633l1 0M555 634l0 -1M555 634l1 0M556 635l0 -1M556 635l1 0M557 636l0 -1"/>
<path stroke="blue" d="M557 636l1 0M558 637l0 -1M558 637l1 0M559 638l0 -1M559 638l1 0M560 639l0 -1M560 639l1 0M561 640l0 -1M561 640l1 0M562 641l0 -1M562 641l1 0M563 642l0 -1M563 642l1 0M564 643l0 -1M564 643l1 0M565 644l0 -2 1 0 0 -4 1 0 0 -4"/>
<path stroke="blue" d="M567 634l1 0 0 -4 1 -1 0 -4 1 0 0 -4 1 0 0 -4 1 0 0 -4 1 0 0 -4 1 0 0 -4 1 0 0 -4 1 0 0 -3 1 0 0 -4 1 0 0 -4 1 0 0 -3 1 0 0 -4 1 0 0 -3 1 0 0 -4 1 0 0 -3 1 0 0 -4 1 0 0 -3 1 0 0 -3 1 0 0 -3 1 0 0 -4 1 0 0 -3 1 0 0 -3 1 0"/>
<path stroke="blue" d="M591 550l0 -3 1 0 0 -3 1 0 0 -3 1 0 0 -3 1 0 0 -2 1 -1 0 -2 1 0 0 -3 1 0 0 -3 1 0 0 -3 1 0 0 -2 1 0 0 -3 1 0 0 -2 1 0 0 -3 1 0 0 -2 1 0 0 -3 1 0 0 -2 1 0 0 -3 1 0 0 -2 1 0 0 -2 1 -1 0 -2 1 0 0 -2 1 0 0 -2 1 0 0 -2 1 0 0 -3"/>
<path stroke="blue" d="M614 488l1 0 0 -2 1 0 0 -2 1 0 0 -2 1 0 0 -2 1 0 0 -2 1 0 0 -2 1 0 0 -2 1 0 0 -2 1 0 0 -2 1 0 0 -2 1 0 0 -2 1 0 0 -1 1 0 0 -2 1 0 0 -2 1 0 0 -2 1 0 0 -1 1 0 0 -2 1 0 0 -2 1 0 0 -1 1 0 0 -2 1 0 0 -2 1 0 0 -1 1 0 0 -2 1 0"/>
<path stroke="blue" d="M638 446l0 -1 1 0 0 -2 1 0 0 -1 1 0 0 -2 1 0 0 -1 1 0 0 -2 1 0 0 -1 1 0 0 -1 1 0 0 -2 1 0 0 -1 1 0 0 -1 1 0 0 -2 1 0 0 -1 1 0 0 -1 1 0 0 -2 1 0 0 -1 1 0 0 -1 1 0 0 -1 1 0 0 -1 1 0 0 -2 1 0 0 -1 1 0 0 -1 1 0 0 -1 1 0 0 -1"/>
<path stroke="blue" d="M661 415l1 0 0 -1 1 0 0 -1 1 0 0 -1 1 0 0 -1 1 0 0 -1 1 0 0 -1 1 0 0 -1 1 0 0 -1 1 0 0 -1 1 0 0 -1 1 0 0 -1 1 0 0 -1 1 0 0 -1 1 0M675 403l0 -1M675 403l1 0M676 407l0 -4M676 407l1 0M677 412l0 -5M677 412l1 0M678 416l0 -4M678 416l1 0"/>
<path stroke="blue" d="M679 420l0 -4M679 420l1 0M680 424l0 -4M680 424l1 0M681 428l0 -4M681 428l1 0M682 432l0 -4M682 432l1 0M683 436l0 -4M683 436l1 0M684 440l0 -4M684 440l1 0M685 444l0 -4M685 444l1 0M686 448l0 -4M686 448l1 0M687 451l0 -3M687 451l1 0"/>
<path stroke="blue" d="M688 455l0 -4M688 455l1 0M689 459l0 -4M689 459l1 0M690 462l0 -3M690 462l1 0M691 466l0 -4M691 466l1 0M692 469l0 -3M692 469l1 0M693 473l0 -4M693 473l1 0M694 476l0 -3M694 476l1 0M695 479l0 -3M695 479l1 0M696 482l0 -3M696 482l1 0"/>
<path stroke="blue" d="M697 486l0 -4M697 486l1 0M698 489l0 -3M698 489l1 0M699 492l0 -3M699 492l1 0M700 495l0 -3M700 495l1 0M701 498l0 -3M701 498l1 0M702 501l0 -3M702 501l1 0M703 504l0 -3M703 504l1 0M704 507l0 -3M704 507l1 0M705 510l0 -3M705 510l1 0"/>
<path stroke="blue" d="M706 513l0 -3M706 513l1 0M707 515l0 -2M707 515l1 0M708 518l0 -3M708 518l1 0M709 521l0 -3M709 521l1 0M710 523l0 -2M710 523l1 0M711 526l0 -3M711 526l1 0M712 529l0 -3M712 529l1 0M713 531l0 -2M713 531l1 0M714 534l0 -3M714 534l1 0"/>
<path stroke="blue" d="M715 536l0 -2M715 536l1 0M716 539l0 -3M716 539l1 0M717 541l0 -2M717 541l1 0M718 543l0 -2M718 543l1 0M719 546l0 -3M719 546l1 0M720 548l0 -2M720 548l1 0M721 550l0 -2M721 550l1 0M722 552l0 -2M722 552l1 0M723 555l0 -3M723 555l1 0"/>
<path stroke="blue" d="M724 557l0 -2M724 557l1 0M725 559l0 -2M725 559l1 0M726 561l0 -2M726 561l1 0M727 563l0 -2M727 563l1 0M728 565l0 -2M728 565l1 0M729 567l0 -2M729 567l1 0M730 569l0 -2M730 569l1 0M731 571l0 -2M731 571l1 0M732 573l0 -2M732 573l1 0"/>
<path stroke="blue" d="M733 575l0 -2M733 575l1 0M734 577l0 -2M734 577l1 0M735 579l0 -2M735 579l1 0M736 581l0 -2M736 581l1 0M737 582l0 -1M737 582l1 0M738 584l0 -2M738 584l1 0M739 586l0 -2M739 586l1 0M740 588l0 -2M740 588l1 0M741 589l0 -1M741 589l1 0"/>
<path stroke="blue" d="M742 591l0 -2M742 591l1 0M743 593l0 -2M743 593l1 0M744 594l0 -1M744 594l1 0M745 596l0 -2M745 596l1 0M746 597l0 -1M746 597l1 0M747 599l0 -2M747 599l1 0M748 600l0 -1M748 600l1 0M749 602l0 -2M749 602l1 0M750 603l0 -1M750 603l1 0"/>
<path stroke="blue" d="M751 605l0 -2M751 605l1 0M752 606l0 -1M752 606l1 0M753 608l0 -2M753 608l1 0M754 609l0 -1M754 609l1 0M755 611l0 -2M755 611l1 0M756 612l0 -1M756 612l1 0M757 613l0 -1M757 613l1 0M758 615l0 -2M758 615l1 0M759 616l0 -1M759 616l1 0"/>
<path stroke="blue" d="M760 617l0 -1M760 617l1 0M761 618l0 -1M761 618l1 0M762 620l0 -2M762 620l1 0M763 621l0 -1M763 621l1 0M764 622l0 -1M764 622l1 0M765 623l0 -1M765 623l1 0M766 624l0 -1M766 624l1 0M767 626l0 -2M767 626l1 0M768 627l0 -1M768 627l1 0"/>
<path stroke="blue" d="M769 628l0 -1M769 628l1 0M770 629l0 -1M770 629l1 0M771 630l0 -1M771 630l1 0M772 631l0 -1M772 631l1 0M773 632l0 -1M773 632l1 0M774 633l0 -1M774 633l1 0M775 634l0 -1M775 634l1 0M776 635l0 -1M776 635l1 0M777 636l0 -1M777 636l1 0"/>
<path stroke="blue" d="M778 637l0 -1M778 637l1 0M779 638l0 -1M779 638l1 0M780 639l0 -1M780 639l1 0M781 640l0 -1M781 640l1 0M782 641l0 -1M782 641l1 0M783 642l0 -1M783 642l1 0M784 643l0 -1M784 643l1 0M785 644l0 -1M785 644l1 0M786 645l0 -1M786 645l1 0"/>
<path stroke="blue" d="M787 646l0 -1M787 646l2 0M789 647l0 -1M789 647l1 0M790 648l0 -1M790 648l1 0M791 649l0 -1M791 649l1 0M792 650l0 -1M792 650l1 0M793 651l0 -1M793 651l2 0M795 652l0 -1M795 652l1 0M796 653l0 -1M796 653l1 0M797 654l0 -1M797 654l2 0"/>
<path stroke="blue" d="M799 655l0 -1M799 655l1 0M800 656l0 -1M800 656l1 0M801 657l0 -1M801 657l2 0M803 658l0 -1M803 658l1 0M804 659l0 -1M804 659l2 0M806 660l0 -1M806 660l1 0M807 661l0 -1M807 661l2 0M809 662l0 -1M809 662l2 0M811 663l0 -1M811 663l1 0"/>
<path stroke="blue" d="M812 664l0 -1M812 664l2 0M814 665l0 -1M814 665l2 0M816 666l0 -1M816 666l1 0M817 667l0 -1M817 667l2 0M819 668l0 -1M819 668l2 0M821 669l0 -1M821 669l2 0M823 670l0 -1M823 670l2 0M825 671l0 -1M825 671l2 0M827 672l0 -1M827 672l2 0"/>
<path stroke="blue" d="M829 673l0 -1M829 673l2 0M831 674l0 -1M831 674l3 0M834 675l0 -1M834 675l2 0M836 676l0 -1M836 676l2 0M838 677l0 -1M838 677l3 0M841 678l0 -1M841 678l2 0M843 679l0 -1M843 679l3 0M846 680l0 -1M846 680l3 0M849 681l0 -1M849 681l3 0"/>
<path stroke="blue" d="M852 682l0 -1M852 682l3 0M855 683l0 -1M855 683l3 0M858 684l0 -1M858 684l3 0M861 685l0 -1M861 685l4 0M865 686l0 -1M865 686l3 0M868 687l0 -1M868 687l4 0M872 688l0 -1M872 688l4 0M876 689l0 -1M876 689l5 0M881 690l0 -1M881 690l5 0"/>
<path stroke="blue" d="M886 691l0 -1M886 691l5 0M891 692l0 -1M891 692l5 0M896 693l0 -1M896 693l6 0M902 694l0 -1M902 694l6 0M908 695l0 -1M908 695l7 0M915 696l0 -1M915 696l8 0M923 697l0 -1M923 697l9 0M932 698l0 -1M932 698l11 0M943 699l0 -1M943 699l7 0"/>
</svg>
