<?xml version="1.0" standalone="yes"?>
<!DOCTYPE svg PUBLIC "-//W3C//DTD SVG 1.1//EN"
 "http://www.w3.org/Graphics/SVG/1.1/DTD/svg11.dtd">
<svg xmlns="http://www.w3.org/2000/svg" version="1.1"
  width="100%" height="100%" viewBox="0 0 1024 768"
  style="fill: none; font-family: Helvetica;
 font: Helvetica;
">

<!-- Creator: NGspice -->

<rect x="0" y="0" width="1024" height="768" fill="black" stroke="none"/>
<text stroke="none" fill="white" font-size="16" x="358" y="752">
time
</text>
<text stroke="none" fill="white" font-size="16" x="10" y="16">
tran1: Voltage Doubler Output
</text>
<path stroke="white" d="M70 704l0 -637"/>
<text stroke="none" fill="white" font-size="16" x="55" y="728">
0.0
</text>
<path stroke="white" stroke-dasharray="1,2" d="M217 704l0 -637"/>
<text stroke="none" fill="white" font-size="16" x="197" y="728">
50.0
</text>
<path stroke="white" stroke-dasharray="1,2" d="M364 704l0 -637"/>
<text stroke="none" fill="white" font-size="16" x="339" y="728">
100.0
</text>
<path stroke="white" stroke-dasharray="1,2" d="M511 704l0 -637"/>
<text stroke="none" fill="white" font-size="16" x="486" y="728">
150.0
</text>
<path stroke="white" stroke-dasharray="1,2" d="M658 704l0 -637"/>
<text stroke="none" fill="white" font-size="16" x="633" y="728">
200.0
</text>
<path stroke="white" stroke-dasharray="1,2" d="M805 704l0 -637"/>
<text stroke="none" fill="white" font-size="16" x="780" y="728">
250.0
</text>
<path stroke="white" stroke-dasharray="1,2" d="M952 704l0 -637"/>
<text stroke="none" fill="white" font-size="16" x="927" y="728">
300.0
</text>
<text stroke="none" fill="white" font-size="16" x="614" y="752">
ms
</text>
<path stroke="white" d="M70 704l882 0"/>
<text stroke="none" fill="white" font-size="16" x="38" y="712">
0.0
</text>
<path stroke="white" stroke-dasharray="1,2" d="M70 613l882 0"/>
<text stroke="none" fill="white" font-size="16" x="28" y="621">
50.0
</text>
<path stroke="white" stroke-dasharray="1,2" d="M70 522l882 0"/>
<text stroke="none" fill="white" font-size="16" x="18" y="530">
100.0
</text>
<path stroke="white" stroke-dasharray="1,2" d="M70 431l882 0"/>
<text stroke="none" fill="white" font-size="16" x="18" y="439">
150.0
</text>
<path stroke="white" stroke-dasharray="1,2" d="M70 340l882 0"/>
<text stroke="none" fill="white" font-size="16" x="18" y="348">
200.0
</text>
<path stroke="white" stroke-dasharray="1,2" d="M70 249l882 0"/>
<text stroke="none" fill="white" font-size="16" x="18" y="257">
250.0
</text>
<path stroke="white" stroke-dasharray="1,2" d="M70 158l882 0"/>
<text stroke="none" fill="white" font-size="16" x="18" y="166">
300.0
</text>
<path stroke="white" stroke-dasharray="1,2" d="M70 67l882 0"/>
<text stroke="none" fill="white" font-size="16" x="18" y="75">
350.0
</text>
<text stroke="none" fill="white" font-size="16" x="10" y="32">
     
</text>
<path stroke="red" d="M441 23l44 0"/>
<text stroke="none" fill="white" font-size="16" x="495" y="32">
vbus
</text>
<path stroke="red" d="M70 88l0 -2M70 88l1 0M71 91l0 -3M71 91l1 0M72 94l0 -3M72 94l1 0M73 98l0 -4M73 98l1 0M74 101l0 -3M74 101l1 0M75 104l0 -3M75 104l1 0M76 107l0 -3M76 107l1 0M77 110l0 -3M77 110l1 1M78 114l0 -3M78 114l1 0M79 117l0 -3M79 117l1 0"/>
<path stroke="red" d="M80 120l0 -3M80 120l1 0M81 123l0 -3M81 123l1 0M82 126l0 -3M82 126l1 0M83 129l0 -3M83 129l1 0M84 132l0 -3M84 132l1 0M85 135l0 -3M85 135l1 0M86 138l0 -3M86 138l1 0M87 141l0 -3M87 141l1 0M88 144l0 -3M88 144l1 0M89 147l0 -3"/>
<path stroke="red" d="M89 147l1 0M90 150l0 -3M90 150l1 0M91 153l0 -3M91 153l1 0M92 156l0 -3M92 156l1 0M93 159l0 -3M93 159l1 0M94 162l0 -3M94 162l1 0M95 165l0 -3M95 165l1 0M96 167l0 -2M96 167l1 0M97 170l0 -3M97 170l1 0M98 173l0 -3M98 173l1 0M99 176l0 -3"/>
<path stroke="red" d="M99 176l1 0M100 179l0 -3M100 179l1 0M101 181l0 -2M101 181l1 1M102 184l0 -2M102 184l1 0M103 187l0 -3M103 187l1 0M104 190l0 -3M104 190l1 0M105 193l0 -3M105 193l1 0M106 195l0 -2M106 195l1 0M107 198l0 -3M107 198l1 0M108 201l0 -3"/>
<path stroke="red" d="M108 201l1 0M109 203l0 -2M109 203l1 0M110 206l0 -3M110 206l1 0M111 209l0 -3M111 209l1 0M112 211l0 -2M112 211l1 0M113 214l0 -3M113 214l1 0M114 216l0 -2M114 216l1 1M115 219l0 -2M115 219l1 0M116 222l0 -3M116 222l1 0M117 224l0 -2"/>
<path stroke="red" d="M117 224l1 0M118 227l0 -3M118 227l1 0M119 229l0 -2M119 229l1 0M120 232l0 -3M120 232l1 0M121 234l0 -2M121 234l1 0M122 237l0 -3M122 237l1 0M123 239l0 -2M123 239l1 0M124 242l0 -3M124 242l1 0M125 244l0 -2M125 244l1 0M126 247l0 -3"/>
<path stroke="red" d="M126 247l1 0M127 249l0 -2M127 249l1 0M128 251l0 -2M128 251l1 0M129 254l0 -3M129 254l1 0M130 256l0 -2M130 256l1 0M131 259l0 -3M131 259l1 0M132 261l0 -2M132 261l1 0M133 263l0 -2M133 263l1 0M134 266l0 -3M134 266l1 0M135 268l0 -2"/>
<path stroke="red" d="M135 268l1 0M136 270l0 -2M136 270l1 0M137 273l0 -3M137 273l1 0M138 275l0 -2M138 275l1 0M139 277l0 -2M139 277l1 0M140 279l0 -2M140 279l1 0M141 282l0 -3M141 282l1 0M142 284l0 -2M142 284l1 0M143 286l0 -2M143 286l1 0M144 288l0 -2"/>
<path stroke="red" d="M144 288l1 0M145 291l0 -3M145 291l1 0M146 293l0 -2M146 293l1 0M147 295l0 -2M147 295l1 0M148 297l0 -2M148 297l1 0M149 299l0 -2M149 299l1 0M150 301l0 -2M150 301l1 0M151 304l0 -3M151 304l1 0M152 306l0 -2M152 306l1 0M153 308l0 -2"/>
<path stroke="red" d="M153 308l1 0M154 310l0 -2M154 310l1 0M155 312l0 -2M155 312l1 0M156 314l0 -2M156 314l1 0M157 316l0 -2M157 316l1 0M158 318l0 -2M158 318l1 0M159 320l0 -2M159 320l1 0M160 322l0 -2M160 322l1 0M161 324l0 -2M161 324l1 0M162 326l0 -2"/>
<path stroke="red" d="M162 326l1 0M163 328l0 -2M163 328l1 0M164 330l0 -2M164 330l1 0M165 332l0 -2M165 332l1 0M166 334l0 -2M166 334l1 0M167 336l0 -2M167 336l1 0M168 338l0 -2M168 338l1 0M169 340l0 -2M169 340l1 0M170 342l0 -2M170 342l1 0M171 344l0 -2"/>
<path stroke="red" d="M171 344l1 0M172 346l0 -2M172 346l1 0M173 348l0 -2M173 348l1 0M174 350l0 -2M174 350l1 0M175 351l0 -1M175 351l1 1M176 353l0 -1M176 353l1 0M177 355l0 -2M177 355l1 0M178 357l0 -2M178 357l1 0M179 359l0 -2M179 359l1 0M180 361l0 -2"/>
<path stroke="red" d="M180 361l1 0M181 363l0 -2M181 363l1 0M182 364l0 -1M182 364l1 0M183 366l0 -2M183 366l1 0M184 368l0 -2M184 368l1 0M185 370l0 -2M185 370l1 0M186 372l0 -2M186 372l1 0M187 373l0 -1M187 373l1 0M188 375l0 -2M188 375l1 0M189 377l0 -2"/>
<path stroke="red" d="M189 377l1 0M190 379l0 -2M190 379l1 0M191 380l0 -1M191 380l1 0M192 382l0 -2M192 382l1 0M193 384l0 -2M193 384l1 0M194 385l0 -1M194 385l1 0M195 387l0 -2M195 387l1 0M196 389l0 -2M196 389l1 0M197 390l0 -1M197 390l1 0M198 392l0 -2"/>
<path stroke="red" d="M198 392l1 0M199 394l0 -2M199 394l1 0M200 395l0 -1M200 395l1 0M201 397l0 -2M201 397l1 0M202 399l0 -2M202 399l1 0M203 400l0 -1M203 400l1 0M204 402l0 -2M204 402l1 0M205 403l0 -1M205 403l1 1M206 405l0 -1M206 405l1 0M207 407l0 -2"/>
<path stroke="red" d="M207 407l1 0M208 408l0 -1M208 408l1 0M209 410l0 -2M209 410l1 0M210 411l0 -1M210 411l1 0M211 413l0 -2M211 413l1 0M212 414l0 -1M212 414l1 0M213 416l0 -2M213 416l1 0M214 417l0 -1M214 417l1 1M215 419l0 -1M215 419l1 0M216 421l0 -2"/>
<path stroke="red" d="M216 421l1 0M217 422l0 -1M217 422l1 0M218 424l0 -2M218 424l1 0M219 425l0 -1M219 425l1 0M220 427l0 -2M220 427l1 0M221 428l0 -1M221 428l1 0M222 429l0 -1M222 429l1 0M223 431l0 -2M223 431l1 0M224 432l0 -1M224 432l1 0M225 434l0 -2"/>
<path stroke="red" d="M225 434l1 0M226 435l0 -1M226 435l1 0M227 437l0 -2M227 437l1 0M228 438l0 -1M228 438l1 0M229 439l0 -1M229 439l1 1M230 441l0 -1M230 441l1 0M231 442l0 -1M231 442l1 0M232 444l0 -2M232 444l1 0M233 445l0 -1M233 445l1 0M234 446l0 -1"/>
<path stroke="red" d="M234 446l1 0M235 448l0 -2M235 448l1 0M236 449l0 -1M236 449l1 0M237 450l0 -1M237 450l1 1M238 452l0 -1M238 452l1 0M239 453l0 -1M239 453l1 0M240 455l0 -2M240 455l1 0M241 456l0 -1M241 456l1 0M242 457l0 -1M242 457l1 0M243 458l0 -1"/>
<path stroke="red" d="M243 458l1 0M244 460l0 -2M244 460l1 0M245 461l0 -1M245 461l1 0M246 462l0 -1M246 462l1 0M247 464l0 -2M247 464l1 0M248 465l0 -1M248 465l1 0M249 466l0 -1M249 466l1 0M250 467l0 -1M250 467l1 0M251 469l0 -2M251 469l1 0M252 470l0 -1"/>
<path stroke="red" d="M252 470l1 0M253 471l0 -1M253 471l1 0M254 472l0 -1M254 472l1 0M255 474l0 -2M255 474l1 0M256 475l0 -1M256 475l1 0M257 476l0 -1M257 476l1 0M258 477l0 -1M258 477l1 0M259 478l0 -1M259 478l1 1M260 480l0 -1M260 480l1 0M261 481l0 -1"/>
<path stroke="red" d="M261 481l1 0M262 482l0 -1M262 482l1 0M263 483l0 -1M263 483l1 0M264 484l0 -1M264 484l1 0M265 486l0 -2M265 486l1 0M266 487l0 -1M266 487l1 0M267 488l0 -1M267 488l1 0M268 489l0 -1M268 489l1 0M269 490l0 -1M269 490l1 0M270 491l0 -1"/>
<path stroke="red" d="M270 491l1 0M271 492l0 -1M271 492l1 0M272 494l0 -2M272 494l1 0M273 495l0 -1M273 495l1 0M274 496l0 -1M274 496l1 0M275 497l0 -1M275 497l1 0M276 498l0 -1M276 498l1 0M277 499l0 -1M277 499l1 0M278 500l0 -1M278 500l1 0M279 501l0 -1"/>
<path stroke="red" d="M279 501l1 0M280 502l0 -1M280 502l1 0M281 503l0 -1M281 503l1 0M282 504l0 -1M282 504l1 0M283 506l0 -2M283 506l1 0M284 507l0 -1M284 507l1 0M285 508l0 -1M285 508l1 0M286 509l0 -1M286 509l1 0M287 510l0 -1M287 510l1 0M288 511l0 -1"/>
<path stroke="red" d="M288 511l1 0M289 512l0 -1M289 512l1 0M290 513l0 -1M290 513l1 0M291 514l0 -1M291 514l1 0M292 515l0 -1M292 515l1 0M293 516l0 -1M293 516l1 0M294 517l0 -1M294 517l1 0M295 518l0 -1M295 518l1 0M296 519l0 -1M296 519l1 0M297 520l0 -1"/>
<path stroke="red" d="M297 520l1 0M298 521l0 -1M298 521l1 0M299 522l0 -1M299 522l1 0M300 523l0 -1M300 523l1 0M301 524l0 -1M301 524l1 0M302 525l0 -1M302 525l1 0M303 526l0 -1M303 526l1 0 1 1 1 0M306 528l0 -1M306 528l1 0M307 529l0 -1M307 529l1 0"/>
<path stroke="red" d="M308 530l0 -1M308 530l1 0M309 531l0 -1M309 531l1 0M310 532l0 -1M310 532l1 0M311 533l0 -1M311 533l1 0M312 534l0 -1M312 534l1 0M313 535l0 -1M313 535l1 0M314 536l0 -1M314 536l1 0M315 537l0 -1M315 537l2 0M317 538l0 -1M317 538l1 0"/>
<path stroke="red" d="M318 539l0 -1M318 539l1 0M319 540l0 -1M319 540l1 0M320 541l0 -1M320 541l1 0M321 542l0 -1M321 542l1 0M322 543l0 -1M322 543l1 0M323 544l0 -1M323 544l2 0M325 545l0 -1M325 545l1 0M326 546l0 -1M326 546l1 0M327 547l0 -1M327 547l1 0"/>
<path stroke="red" d="M328 548l0 -1M328 548l1 0M329 549l0 -1M329 549l2 0M331 550l0 -1M331 550l1 0M332 551l0 -1M332 551l1 0M333 552l0 -1M333 552l1 0M334 553l0 -1M334 553l2 0M336 554l0 -1M336 554l1 0M337 555l0 -1M337 555l1 0M338 556l0 -1M338 556l1 0"/>
<path stroke="red" d="M339 557l0 -1M339 557l2 0M341 558l0 -1M341 558l1 0M342 559l0 -1M342 559l1 0M343 560l0 -1M343 560l1 0 1 1 1 0M346 562l0 -1M346 562l1 0M347 563l0 -1M347 563l1 0M348 564l0 -1M348 564l2 0M350 565l0 -1M350 565l1 0M351 566l0 -1"/>
<path stroke="red" d="M351 566l2 0M353 567l0 -1M353 567l1 0M354 568l0 -1M354 568l1 0M355 569l0 -1M355 569l2 0M357 570l0 -1M357 570l1 0M358 571l0 -1M358 571l1 0M359 572l0 -1M359 572l2 0M361 573l0 -1M361 573l1 0M362 574l0 -1M362 574l2 0M364 575l0 -1"/>
<path stroke="red" d="M364 575l1 0M365 576l0 -1M365 576l2 0M367 577l0 -1M367 577l1 0M368 578l0 -1M368 578l2 0M370 579l0 -1M370 579l1 0M371 580l0 -1M371 580l2 0M373 581l0 -1M373 581l1 0M374 582l0 -1M374 582l2 0M376 583l0 -1M376 583l1 0M377 584l0 -1"/>
<path stroke="red" d="M377 584l2 0M379 585l0 -1M379 585l1 0 1 1 1 0M382 587l0 -1M382 587l2 0M384 588l0 -1M384 588l1 0M385 589l0 -1M385 589l2 0M387 590l0 -1M387 590l2 0M389 591l0 -1M389 591l1 0M390 592l0 -1M390 592l2 0M392 593l0 -1M392 593l2 0"/>
<path stroke="red" d="M394 594l0 -1M394 594l1 0M395 595l0 -1M395 595l2 0M397 596l0 -1M397 596l2 0M399 597l0 -1M399 597l2 0M401 598l0 -1M401 598l1 0M402 599l0 -1M402 599l2 0M404 600l0 -1M404 600l2 0M406 601l0 -1M406 601l2 0M408 602l0 -1M408 602l2 0"/>
<path stroke="red" d="M410 603l0 -1M410 603l1 0M411 604l0 -1M411 604l2 0M413 605l0 -1M413 605l2 0M415 606l0 -1M415 606l2 0M417 607l0 -1M417 607l2 0M419 608l0 -1M419 608l2 0M421 609l0 -1M421 609l2 0M423 610l0 -1M423 610l2 0M425 611l0 -1M425 611l2 0"/>
<path stroke="red" d="M427 612l0 -1M427 612l2 0M429 613l0 -1M429 613l2 0M431 614l0 -1M431 614l2 0M433 615l0 -1M433 615l2 0M435 616l0 -1M435 616l3 0M438 617l0 -1M438 617l2 0M440 618l0 -1M440 618l2 0M442 619l0 -1M442 619l2 0M444 620l0 -1M444 620l2 0"/>
<path stroke="red" d="M446 621l0 -1M446 621l3 0M449 622l0 -1M449 622l2 0M451 623l0 -1M451 623l2 0M453 624l0 -1M453 624l3 0M456 625l0 -1M456 625l2 0M458 626l0 -1M458 626l2 0M460 627l0 -1M460 627l3 0M463 628l0 -1M463 628l2 0M465 629l0 -1M465 629l3 0"/>
<path stroke="red" d="M468 630l0 -1M468 630l2 0M470 631l0 -1M470 631l3 0M473 632l0 -1M473 632l2 0M475 633l0 -1M475 633l3 0M478 634l0 -1M478 634l3 0M481 635l0 -1M481 635l3 0M484 636l0 -1M484 636l2 0M486 637l0 -1M486 637l3 0M489 638l0 -1M489 638l3 0"/>
<path stroke="red" d="M492 639l0 -1M492 639l3 0M495 640l0 -1M495 640l3 0M498 641l0 -1M498 641l3 0M501 642l0 -1M501 642l3 0M504 643l0 -1M504 643l3 0M507 644l0 -1M507 644l3 0M510 645l0 -1M510 645l3 0M513 646l0 -1M513 646l3 0M516 647l0 -1M516 647l4 0"/>
<path stroke="red" d="M520 648l0 -1M520 648l3 0M523 649l0 -1M523 649l4 0M527 650l0 -1M527 650l3 0M530 651l0 -1M530 651l4 0M534 652l0 -1M534 652l3 0M537 653l0 -1M537 653l4 0M541 654l0 -1M541 654l4 0M545 655l0 -1M545 655l3 0M548 656l0 -1M548 656l4 0"/>
<path stroke="red" d="M552 657l0 -1M552 657l4 0M556 658l0 -1M556 658l4 0M560 659l0 -1M560 659l5 0M565 660l0 -1M565 660l4 0M569 661l0 -1M569 661l4 0M573 662l0 -1M573 662l5 0M578 663l0 -1M578 663l4 0M582 664l0 -1M582 664l5 0M587 665l0 -1M587 665l5 0"/>
<path stroke="red" d="M592 666l0 -1M592 666l5 0M597 667l0 -1M597 667l5 0M602 668l0 -1M602 668l5 0M607 669l0 -1M607 669l6 0M613 670l0 -1M613 670l5 0M618 671l0 -1M618 671l1 0 0 -1 1 0 0 -1 7 0M627 670l0 -1M627 670l6 0M633 671l0 -1M633 671l5 0M638 672l0 -1"/>
<path stroke="red" d="M638 672l6 0M644 673l0 -1M644 673l6 0M650 674l0 -1M650 674l7 0M657 675l0 -1M657 675l6 0M663 676l0 -1M663 676l2 0 0 -1 1 0 0 -2 1 0 0 -2 1 0 0 -1 1 0 0 -1 7 0M676 670l0 -1M676 670l6 0M682 671l0 -1M682 671l5 0M687 672l0 -1"/>
<path stroke="red" d="M687 672l6 0M693 673l0 -1M693 673l6 0M699 674l0 -1M699 674l7 0M706 675l0 -1M706 675l6 0M712 676l0 -1M712 676l2 0 0 -1 1 0 0 -2 1 0 0 -2 1 0 0 -1 1 0 0 -1 7 0M725 670l0 -1M725 670l6 0M731 671l0 -1M731 671l5 0M736 672l0 -1"/>
<path stroke="red" d="M736 672l6 0M742 673l0 -1M742 673l6 0M748 674l0 -1M748 674l7 0M755 675l0 -1M755 675l6 0M761 676l0 -1M761 676l2 0 0 -1 1 0 0 -2 1 0 0 -2 1 0 0 -1 1 0 0 -1 7 0M774 670l0 -1M774 670l6 0M780 671l0 -1M780 671l5 0M785 672l0 -1"/>
<path stroke="red" d="M785 672l6 0M791 673l0 -1M791 673l6 0M797 674l0 -1M797 674l7 0M804 675l0 -1M804 675l6 0M810 676l0 -1M810 676l2 0 0 -1 1 0 0 -2 1 0 0 -2 1 0 0 -1 1 0 0 -1 7 0M823 670l0 -1M823 670l6 0M829 671l0 -1M829 671l5 0M834 672l0 -1"/>
<path stroke="red" d="M834 672l6 0M840 673l0 -1M840 673l6 0M846 674l0 -1M846 674l7 0M853 675l0 -1M853 675l6 0M859 676l0 -1M859 676l2 0 0 -1 1 0 0 -2 1 0 0 -2 1 0 0 -1 1 0 0 -1 7 0M872 670l0 -1M872 670l6 0M878 671l0 -1M878 671l5 0M883 672l0 -1"/>
<path stroke="red" d="M883 672l6 0M889 673l0 -1M889 673l6 0M895 674l0 -1M895 674l7 0M902 675l0 -1M902 675l6 0M908 676l0 -1M908 676l2 0 0 -1 1 0 0 -2 1 0 0 -2 1 0 0 -1 1 0 0 -1 7 0M921 670l0 -1M921 670l6 0M927 671l0 -1M927 671l5 0M932 672l0 -1"/>
<path stroke="red" d="M932 672l6 0M938 673l0 -1M938 673l6 0M944 674l0 -1M944 674l7 0M951 675l0 -1M951 675l1 0"/>
</svg>
