<?xml version="1.0" standalone="yes"?>
<!DOCTYPE svg PUBLIC "-//W3C//DTD SVG 1.1//EN"
 "http://www.w3.org/Graphics/SVG/1.1/DTD/svg11.dtd">
<svg xmlns="http://www.w3.org/2000/svg" version="1.1"
  width="100%" height="100%" viewBox="0 0 1024 768"
  style="fill: none; font-family: Helvetica;
 font: Helvetica;
">

<!-- Creator: NGspice -->

<rect x="0" y="0" width="1024" height="768" fill="black" stroke="none"/>
<text stroke="none" fill="white" font-size="16" x="358" y="752">
time
</text>
<text stroke="none" fill="white" font-size="16" x="10" y="16">
tran1: Gate Voltage vs PWM Input
</text>
<path stroke="white" d="M60 704l0 -640"/>
<text stroke="none" fill="white" font-size="16" x="45" y="728">
0.0
</text>
<path stroke="white" stroke-dasharray="1,2" d="M173 704l0 -640"/>
<text stroke="none" fill="white" font-size="16" x="153" y="728">
10.0
</text>
<path stroke="white" stroke-dasharray="1,2" d="M286 704l0 -640"/>
<text stroke="none" fill="white" font-size="16" x="266" y="728">
20.0
</text>
<path stroke="white" stroke-dasharray="1,2" d="M399 704l0 -640"/>
<text stroke="none" fill="white" font-size="16" x="379" y="728">
30.0
</text>
<path stroke="white" stroke-dasharray="1,2" d="M512 704l0 -640"/>
<text stroke="none" fill="white" font-size="16" x="492" y="728">
40.0
</text>
<path stroke="white" stroke-dasharray="1,2" d="M625 704l0 -640"/>
<text stroke="none" fill="white" font-size="16" x="605" y="728">
50.0
</text>
<path stroke="white" stroke-dasharray="1,2" d="M738 704l0 -640"/>
<text stroke="none" fill="white" font-size="16" x="718" y="728">
60.0
</text>
<path stroke="white" stroke-dasharray="1,2" d="M851 704l0 -640"/>
<text stroke="none" fill="white" font-size="16" x="831" y="728">
70.0
</text>
<path stroke="white" stroke-dasharray="1,2" d="M964 704l0 -640"/>
<text stroke="none" fill="white" font-size="16" x="944" y="728">
80.0
</text>
<text stroke="none" fill="white" font-size="16" x="614" y="752">
us
</text>
<path stroke="white" d="M60 704l904 0"/>
<text stroke="none" fill="white" font-size="16" x="18" y="712">
-0.0
</text>
<path stroke="white" stroke-dasharray="1,2" d="M60 624l904 0"/>
<text stroke="none" fill="white" font-size="16" x="28" y="632">
2.0
</text>
<path stroke="white" stroke-dasharray="1,2" d="M60 544l904 0"/>
<text stroke="none" fill="white" font-size="16" x="28" y="552">
4.0
</text>
<path stroke="white" stroke-dasharray="1,2" d="M60 464l904 0"/>
<text stroke="none" fill="white" font-size="16" x="28" y="472">
6.0
</text>
<path stroke="white" stroke-dasharray="1,2" d="M60 384l904 0"/>
<text stroke="none" fill="white" font-size="16" x="28" y="392">
8.0
</text>
<path stroke="white" stroke-dasharray="1,2" d="M60 304l904 0"/>
<text stroke="none" fill="white" font-size="16" x="18" y="312">
10.0
</text>
<path stroke="white" stroke-dasharray="1,2" d="M60 224l904 0"/>
<text stroke="none" fill="white" font-size="16" x="18" y="232">
12.0
</text>
<path stroke="white" stroke-dasharray="1,2" d="M60 144l904 0"/>
<text stroke="none" fill="white" font-size="16" x="18" y="152">
14.0
</text>
<path stroke="white" stroke-dasharray="1,2" d="M60 64l904 0"/>
<text stroke="none" fill="white" font-size="16" x="18" y="72">
16.0
</text>
<text stroke="none" fill="white" font-size="16" x="10" y="32">
V
</text>
<path stroke="red" d="M452 23l45 0"/>
<text stroke="none" fill="white" font-size="16" x="507" y="32">
v(gate)
</text>
<path stroke="red" d="M60 704l2 0 0 -1 2 0 0 -1 3 0M67 703l0 -1M67 703l50 0 0 -598 112 0M229 359l0 -254M229 359l1 4M230 704l0 -341M230 704l113 0 0 -599 112 0M455 345l0 -240M455 345l1 14M456 704l0 -345M456 704l113 0 0 -599 112 0M681 359l0 -254"/>
<path stroke="red" d="M681 359l1 4M682 704l0 -341M682 704l282 0"/>
<path stroke="blue" d="M60 23l45 0"/>
<text stroke="none" fill="white" font-size="16" x="115" y="32">
v(pwm_in)
</text>
<path stroke="blue" d="M60 704l56 0 1 -2 0 -198 112 0M229 704l0 -200M229 704l113 0 1 -2 0 -198 112 0M455 697l0 -193M455 697l1 7 112 0 1 -2 0 -198 112 0M681 704l0 -200M681 704l283 0"/>
</svg>
