<?xml version="1.0" standalone="yes"?>
<!DOCTYPE svg PUBLIC "-//W3C//DTD SVG 1.1//EN"
 "http://www.w3.org/Graphics/SVG/1.1/DTD/svg11.dtd">
<svg xmlns="http://www.w3.org/2000/svg" version="1.1"
  width="100%" height="100%" viewBox="0 0 1024 768"
  style="fill: none; font-family: Helvetica;
 font: Helvetica;
">

<!-- Creator: NGspice -->

<rect x="0" y="0" width="1024" height="768" fill="black" stroke="none"/>
<text stroke="none" fill="white" font-size="16" x="358" y="752">
time
</text>
<text stroke="none" fill="white" font-size="16" x="10" y="16">
tran1: Switching Waveforms
</text>
<path stroke="white" d="M60 704l0 -639"/>
<text stroke="none" fill="white" font-size="16" x="45" y="728">
0.0
</text>
<path stroke="white" stroke-dasharray="1,2" d="M173 704l0 -639"/>
<text stroke="none" fill="white" font-size="16" x="153" y="728">
10.0
</text>
<path stroke="white" stroke-dasharray="1,2" d="M286 704l0 -639"/>
<text stroke="none" fill="white" font-size="16" x="266" y="728">
20.0
</text>
<path stroke="white" stroke-dasharray="1,2" d="M399 704l0 -639"/>
<text stroke="none" fill="white" font-size="16" x="379" y="728">
30.0
</text>
<path stroke="white" stroke-dasharray="1,2" d="M512 704l0 -639"/>
<text stroke="none" fill="white" font-size="16" x="492" y="728">
40.0
</text>
<path stroke="white" stroke-dasharray="1,2" d="M625 704l0 -639"/>
<text stroke="none" fill="white" font-size="16" x="605" y="728">
50.0
</text>
<path stroke="white" stroke-dasharray="1,2" d="M738 704l0 -639"/>
<text stroke="none" fill="white" font-size="16" x="718" y="728">
60.0
</text>
<path stroke="white" stroke-dasharray="1,2" d="M851 704l0 -639"/>
<text stroke="none" fill="white" font-size="16" x="831" y="728">
70.0
</text>
<path stroke="white" stroke-dasharray="1,2" d="M964 704l0 -639"/>
<text stroke="none" fill="white" font-size="16" x="944" y="728">
80.0
</text>
<text stroke="none" fill="white" font-size="16" x="614" y="752">
us
</text>
<path stroke="white" d="M60 704l904 0"/>
<text stroke="none" fill="white" font-size="16" x="18" y="712">
-0.0
</text>
<path stroke="white" stroke-dasharray="1,2" d="M60 633l904 0"/>
<text stroke="none" fill="white" font-size="16" x="28" y="641">
2.0
</text>
<path stroke="white" stroke-dasharray="1,2" d="M60 562l904 0"/>
<text stroke="none" fill="white" font-size="16" x="28" y="570">
4.0
</text>
<path stroke="white" stroke-dasharray="1,2" d="M60 491l904 0"/>
<text stroke="none" fill="white" font-size="16" x="28" y="499">
6.0
</text>
<path stroke="white" stroke-dasharray="1,2" d="M60 420l904 0"/>
<text stroke="none" fill="white" font-size="16" x="28" y="428">
8.0
</text>
<path stroke="white" stroke-dasharray="1,2" d="M60 349l904 0"/>
<text stroke="none" fill="white" font-size="16" x="18" y="357">
10.0
</text>
<path stroke="white" stroke-dasharray="1,2" d="M60 278l904 0"/>
<text stroke="none" fill="white" font-size="16" x="18" y="286">
12.0
</text>
<path stroke="white" stroke-dasharray="1,2" d="M60 207l904 0"/>
<text stroke="none" fill="white" font-size="16" x="18" y="215">
14.0
</text>
<path stroke="white" stroke-dasharray="1,2" d="M60 136l904 0"/>
<text stroke="none" fill="white" font-size="16" x="18" y="144">
16.0
</text>
<path stroke="white" stroke-dasharray="1,2" d="M60 65l904 0"/>
<text stroke="none" fill="white" font-size="16" x="18" y="73">
18.0
</text>
<text stroke="none" fill="white" font-size="16" x="10" y="32">
     
</text>
<path stroke="red" d="M452 23l45 0"/>
<text stroke="none" fill="white" font-size="16" x="507" y="32">
v(gate)
</text>
<path stroke="red" d="M60 704l2 0 0 -1 2 0 0 -1 3 0M67 703l0 -1M67 703l50 0 0 -530 1 0 0 -1 111 0M229 398l0 -226M229 398l1 3M230 704l0 -303M230 704l113 0 0 -531 1 0 0 -1 111 0M455 385l0 -213M455 385l1 13M456 704l0 -306M456 704l113 0 0 -531 1 0"/>
<path stroke="red" d="M570 173l0 -1 111 0M681 398l0 -226M681 398l1 3M682 704l0 -303M682 704l282 0"/>
<path stroke="blue" d="M60 23l45 0"/>
<text stroke="none" fill="white" font-size="16" x="115" y="32">
v(collector)/20
</text>
<path stroke="blue" d="M60 704l1 0 0 -1 1 0 0 -4 1 0 0 -7 1 0 0 -13 1 0 0 -16 1 0 0 -19 1 0 0 -16 1 0 0 -10 1 0 0 -10 1 0 0 -10 1 0 0 -10 1 -1 0 -9 1 -1 0 -10 1 0 0 -10 1 0 0 -10 1 0 0 -10 1 0 0 -10 1 0 0 -10 1 0 0 -10 1 0 0 -10 1 0 0 -10 1 0"/>
<path stroke="blue" d="M82 487l0 -10 1 0 0 -10 1 0 0 -10 1 0 0 -10 1 0 0 -10 1 0 0 -10 1 0 0 -10 1 0 0 -10 1 0 0 -10 1 0 0 -10 1 -1 0 -9 1 -1 0 -9 1 -1 0 -9 1 0 0 -10 1 0 0 -9 1 -1 0 -9 1 0 0 -9 1 -1 0 -9 1 0 0 -10 1 0 0 -10 1 0 0 -11 1 0 0 -10"/>
<path stroke="blue" d="M103 268l1 -1 0 -10 1 0 0 -11 1 0 0 -10 1 0 0 -10 1 0 0 -10 1 0 0 -9 1 0 0 -10 1 0 0 -9 1 -1 0 -9 1 0 0 -10 1 0 0 -10 1 0 0 -10 1 0 0 -11 1 0M117 704l0 -569M117 704l112 0 0 -1 1 0 0 -568 113 0M343 704l0 -569M343 704l112 0"/>
<path stroke="blue" d="M455 704l0 -1 1 0 0 -568 113 0M569 704l0 -569M569 704l112 0 0 -1 1 0 0 -568 282 0"/>
<path stroke="#FFA500" d="M452 39l45 0"/>
<text stroke="none" fill="white" font-size="16" x="507" y="48">
i(v_ic_sense)
</text>
<path stroke="#FFA500" d="M60 704l2 0 1 -1 2 0 0 -1 7 0M72 703l0 -1M72 703l45 0 0 -8 1 0 0 -10 1 0 0 -9 1 0 0 -10 1 0 0 -9 1 0 0 -10 1 0 0 -9 1 0 0 -9 1 0 0 -9 1 0 0 -9 1 0 0 -8 1 0 0 -9 1 0 0 -8 1 0 0 -9 1 0 0 -8 1 0 0 -8 1 0 0 -8 1 0 0 -8 1 0"/>
<path stroke="#FFA500" d="M135 545l0 -8 1 0 0 -7 1 0 0 -8 1 0 0 -7 1 0 0 -7 1 -1 0 -7 1 0 0 -7 1 0 0 -7 1 0 0 -7 1 0 0 -6 1 -1 0 -6 1 0 0 -7 1 0 0 -6 1 0 0 -7 1 0 0 -6 1 0 0 -6 1 0 0 -7 1 0 0 -6 1 0 0 -6 1 0 0 -6 1 0 0 -5 1 -1 0 -5 1 0 0 -6 1 0"/>
<path stroke="#FFA500" d="M158 392l0 -5 1 -1 0 -5 1 0 0 -5 1 0 0 -6 1 0 0 -5 1 0 0 -5 1 0 0 -5 1 0 0 -6 1 0 0 -4 1 -1 0 -4 1 0 0 -5 1 0 0 -5 1 0 0 -5 1 0 0 -4 1 0 0 -5 1 0 0 -5 1 0 0 -4 1 0 0 -4 1 0 0 -5 1 0 0 -4 1 0 0 -4 1 0 0 -4 1 0 0 -4 1 0"/>
<path stroke="#FFA500" d="M181 282l0 -5 1 0 0 -3 1 -1 0 -3 1 0 0 -4 1 0 0 -4 1 0 0 -4 1 0 0 -4 1 0 0 -3 1 0 0 -4 1 0 0 -3 1 0 0 -4 1 0 0 -3 1 0 0 -4 1 0 0 -3 1 0 0 -3 1 0 0 -4 1 0 0 -3 1 0 0 -3 1 0 0 -3 1 0 0 -3 1 0 0 -3 1 0 0 -3 1 0 0 -3 1 0"/>
<path stroke="#FFA500" d="M204 202l0 -3 1 0 0 -3 1 0 0 -3 1 0 0 -3 1 0 0 -2 1 0 0 -3 1 0 0 -3 1 0 0 -2 1 -1 0 -2 1 0 0 -3 1 0 0 -2 1 0 0 -3 1 0 0 -2 1 0 0 -3 1 0 0 -2 1 0 0 -2 1 0 0 -3 1 0 0 -2 1 0 0 -2 1 0 0 -2 1 0 0 -3 1 0 0 -2 1 0 0 -2 1 0"/>
<path stroke="#FFA500" d="M227 144l0 -2 1 0 0 -2 1 0 0 -2 1 0M230 144l0 -6M230 144l1 0M231 152l0 -8M231 152l1 0M232 160l0 -8M232 160l1 0M233 167l0 -7M233 167l1 1M234 175l0 -7M234 175l1 0M235 182l0 -7M235 182l1 1M236 190l0 -7M236 190l1 0M237 197l0 -7"/>
<path stroke="#FFA500" d="M237 197l1 0M238 204l0 -7M238 204l1 0M239 211l0 -7M239 211l1 0M240 218l0 -7M240 218l1 0M241 225l0 -7M241 225l1 0M242 232l0 -7M242 232l1 0M243 239l0 -7M243 239l1 0M244 245l0 -6M244 245l1 0M245 252l0 -7M245 252l1 0M246 258l0 -6"/>
<path stroke="#FFA500" d="M246 258l1 0M247 264l0 -6M247 264l1 0M248 270l0 -6M248 270l1 1M249 277l0 -6M249 277l1 0M250 283l0 -6M250 283l1 0M251 289l0 -6M251 289l1 0M252 294l0 -5M252 294l1 1M253 300l0 -5M253 300l1 0M254 306l0 -6M254 306l1 0M255 312l0 -6"/>
<path stroke="#FFA500" d="M255 312l1 0M256 317l0 -5M256 317l1 0M257 323l0 -6M257 323l1 0M258 328l0 -5M258 328l1 0M259 333l0 -5M259 333l1 0M260 338l0 -5M260 338l1 1M261 344l0 -5M261 344l1 0M262 349l0 -5M262 349l1 0M263 354l0 -5M263 354l1 0M264 359l0 -5"/>
<path stroke="#FFA500" d="M264 359l1 0M265 364l0 -5M265 364l1 0M266 368l0 -4M266 368l1 0M267 373l0 -5M267 373l1 0M268 378l0 -5M268 378l1 0M269 382l0 -4M269 382l1 0M270 387l0 -5M270 387l1 0M271 391l0 -4M271 391l1 0M272 396l0 -5M272 396l1 0M273 400l0 -4"/>
<path stroke="#FFA500" d="M273 400l1 0M274 405l0 -5M274 405l1 0M275 409l0 -4M275 409l1 0M276 413l0 -4M276 413l1 0M277 417l0 -4M277 417l1 0M278 421l0 -4M278 421l1 0M279 425l0 -4M279 425l1 0M280 429l0 -4M280 429l1 0M281 433l0 -4M281 433l1 0M282 437l0 -4"/>
<path stroke="#FFA500" d="M282 437l1 0M283 441l0 -4M283 441l1 0M284 444l0 -3M284 444l1 0M285 448l0 -4M285 448l1 0M286 452l0 -4M286 452l1 0M287 455l0 -3M287 455l1 0M288 459l0 -4M288 459l1 0M289 462l0 -3M289 462l1 0M290 466l0 -4M290 466l1 0M291 469l0 -3"/>
<path stroke="#FFA500" d="M291 469l1 0M292 472l0 -3M292 472l1 0M293 476l0 -4M293 476l1 0M294 479l0 -3M294 479l1 0M295 482l0 -3M295 482l1 0M296 485l0 -3M296 485l1 0M297 488l0 -3M297 488l1 0M298 491l0 -3M298 491l1 0M299 494l0 -3M299 494l1 0M300 497l0 -3"/>
<path stroke="#FFA500" d="M300 497l1 0M301 500l0 -3M301 500l1 0M302 503l0 -3M302 503l1 0M303 506l0 -3M303 506l1 0M304 509l0 -3M304 509l1 0M305 511l0 -2M305 511l1 1M306 514l0 -2M306 514l1 0M307 517l0 -3M307 517l1 0M308 520l0 -3M308 520l1 0M309 522l0 -2"/>
<path stroke="#FFA500" d="M309 522l1 0M310 525l0 -3M310 525l1 0M311 527l0 -2M311 527l1 0M312 530l0 -3M312 530l1 0M313 532l0 -2M313 532l1 0M314 535l0 -3M314 535l1 0M315 537l0 -2M315 537l1 0M316 539l0 -2M316 539l1 0M317 542l0 -3M317 542l1 0M318 544l0 -2"/>
<path stroke="#FFA500" d="M318 544l1 0M319 546l0 -2M319 546l1 0M320 549l0 -3M320 549l1 0M321 551l0 -2M321 551l1 0M322 553l0 -2M322 553l1 0M323 555l0 -2M323 555l1 0M324 557l0 -2M324 557l1 0M325 559l0 -2M325 559l1 0M326 561l0 -2M326 561l1 0M327 563l0 -2"/>
<path stroke="#FFA500" d="M327 563l1 0M328 565l0 -2M328 565l1 0M329 567l0 -2M329 567l1 0M330 569l0 -2M330 569l1 0M331 571l0 -2M331 571l1 0M332 573l0 -2M332 573l1 0M333 575l0 -2M333 575l1 0M334 577l0 -2M334 577l1 0M335 579l0 -2M335 579l1 0M336 580l0 -1"/>
<path stroke="#FFA500" d="M336 580l1 0M337 582l0 -2M337 582l1 0M338 584l0 -2M338 584l1 0M339 586l0 -2M339 586l1 0M340 587l0 -1M340 587l1 0M341 589l0 -2M341 589l1 0M342 591l0 -2M342 591l1 0 0 -7 1 0 0 -8 1 0 0 -8 1 0 0 -8 1 0 0 -8 1 0 0 -8 1 0"/>
<path stroke="#FFA500" d="M349 544l0 -8 1 0 0 -7 1 0 0 -8 1 0 0 -7 1 0 0 -8 1 0 0 -7 1 0 0 -7 1 0 0 -7 1 0 0 -7 1 0 0 -7 1 0 0 -6 1 0 0 -7 1 0 0 -6 1 0 0 -7 1 0 0 -6 1 0 0 -6 1 -1 0 -6 1 0 0 -6 1 0 0 -6 1 0 0 -6 1 0 0 -5 1 0 0 -6 1 0 0 -6 1 0"/>
<path stroke="#FFA500" d="M372 391l0 -5 1 0 0 -6 1 0 0 -5 1 0 0 -6 1 0 0 -5 1 0 0 -5 1 0 0 -5 1 0 0 -5 1 0 0 -5 1 0 0 -5 1 0 0 -5 1 0 0 -5 1 0 0 -5 1 0 0 -4 1 0 0 -5 1 0 0 -4 1 0 0 -5 1 0 0 -4 1 0 0 -4 1 0 0 -5 1 0 0 -4 1 0 0 -4 1 0 0 -4 1 0"/>
<path stroke="#FFA500" d="M395 281l0 -4 1 0 0 -4 1 0 0 -4 1 0 0 -4 1 0 0 -4 1 0 0 -3 1 0 0 -4 1 0 0 -4 1 0 0 -3 1 0 0 -4 1 0 0 -3 1 0 0 -4 1 0 0 -3 1 0 0 -4 1 0 0 -3 1 0 0 -3 1 0 0 -3 1 0 0 -4 1 0 0 -3 1 0 0 -3 1 0 0 -3 1 0 0 -3 1 0 0 -3 1 0"/>
<path stroke="#FFA500" d="M418 201l0 -3 1 0 0 -3 1 0 0 -2 1 0 0 -3 1 0 0 -3 1 0 0 -3 1 0 0 -2 1 0 0 -3 1 0 0 -2 1 -1 0 -2 1 0 0 -3 1 0 0 -2 1 0 0 -3 1 0 0 -2 1 0 0 -2 1 0 0 -3 1 0 0 -2 1 0 0 -2 1 0 0 -3 1 0 0 -2 1 0 0 -2 1 0 0 -2 1 0 0 -2 1 0"/>
<path stroke="#FFA500" d="M441 144l0 -2 1 0 0 -2 1 0 0 -2 1 0 0 -2 1 0 0 -2 1 0 0 -2 1 0 0 -2 1 0 0 -2 1 0 0 -2 1 0 0 -2 1 0 0 -2 1 0 0 -2 1 0 0 -1 1 0 0 -2 1 0 0 -2 1 0M456 122l0 -7M456 122l1 0M457 130l0 -8M457 130l1 0M458 138l0 -8M458 138l1 0"/>
<path stroke="#FFA500" d="M459 146l0 -8M459 146l1 0M460 154l0 -8M460 154l1 0M461 162l0 -8M461 162l1 0M462 169l0 -7M462 169l1 0M463 177l0 -8M463 177l1 0M464 184l0 -7M464 184l1 0M465 192l0 -8M465 192l1 0M466 199l0 -7M466 199l1 0M467 206l0 -7M467 206l1 0"/>
<path stroke="#FFA500" d="M468 213l0 -7M468 213l1 0M469 220l0 -7M469 220l1 0M470 227l0 -7M470 227l1 0M471 233l0 -6M471 233l1 1M472 240l0 -6M472 240l1 0M473 247l0 -7M473 247l1 0M474 253l0 -6M474 253l1 0M475 259l0 -6M475 259l1 1M476 266l0 -6M476 266l1 0"/>
<path stroke="#FFA500" d="M477 272l0 -6M477 272l1 0M478 278l0 -6M478 278l1 0M479 284l0 -6M479 284l1 0M480 290l0 -6M480 290l1 0M481 296l0 -6M481 296l1 0M482 302l0 -6M482 302l1 0M483 307l0 -5M483 307l1 0M484 313l0 -6M484 313l1 0M485 318l0 -5M485 318l1 0"/>
<path stroke="#FFA500" d="M486 324l0 -6M486 324l1 0M487 329l0 -5M487 329l1 0M488 335l0 -6M488 335l1 0M489 340l0 -5M489 340l1 0M490 345l0 -5M490 345l1 0M491 350l0 -5M491 350l1 0M492 355l0 -5M492 355l1 0M493 360l0 -5M493 360l1 0M494 365l0 -5M494 365l1 0"/>
<path stroke="#FFA500" d="M495 370l0 -5M495 370l1 0M496 374l0 -4M496 374l1 0M497 379l0 -5M497 379l1 0M498 384l0 -5M498 384l1 0M499 388l0 -4M499 388l1 0M500 393l0 -5M500 393l1 0M501 397l0 -4M501 397l1 0M502 401l0 -4M502 401l1 0M503 406l0 -5M503 406l1 0"/>
<path stroke="#FFA500" d="M504 410l0 -4M504 410l1 0M505 414l0 -4M505 414l1 0M506 418l0 -4M506 418l1 0M507 422l0 -4M507 422l1 0M508 426l0 -4M508 426l1 0M509 430l0 -4M509 430l1 0M510 434l0 -4M510 434l1 0M511 438l0 -4M511 438l1 0M512 441l0 -3M512 441l1 0"/>
<path stroke="#FFA500" d="M513 445l0 -4M513 445l1 0M514 449l0 -4M514 449l1 0M515 452l0 -3M515 452l1 0M516 456l0 -4M516 456l1 0M517 459l0 -3M517 459l1 1M518 463l0 -3M518 463l1 0M519 466l0 -3M519 466l1 0M520 470l0 -4M520 470l1 0M521 473l0 -3M521 473l1 0"/>
<path stroke="#FFA500" d="M522 476l0 -3M522 476l1 0M523 480l0 -4M523 480l1 0M524 483l0 -3M524 483l1 0M525 486l0 -3M525 486l1 0M526 489l0 -3M526 489l1 0M527 492l0 -3M527 492l1 0M528 495l0 -3M528 495l1 0M529 498l0 -3M529 498l1 0M530 501l0 -3M530 501l1 0"/>
<path stroke="#FFA500" d="M531 504l0 -3M531 504l1 0M532 507l0 -3M532 507l1 0M533 509l0 -2M533 509l1 0M534 512l0 -3M534 512l1 0M535 515l0 -3M535 515l1 0M536 518l0 -3M536 518l1 0M537 520l0 -2M537 520l1 0M538 523l0 -3M538 523l1 0M539 525l0 -2M539 525l1 0"/>
<path stroke="#FFA500" d="M540 528l0 -3M540 528l1 0M541 530l0 -2M541 530l1 0M542 533l0 -3M542 533l1 0M543 535l0 -2M543 535l1 0M544 538l0 -3M544 538l1 0M545 540l0 -2M545 540l1 0M546 542l0 -2M546 542l1 0M547 545l0 -3M547 545l1 0M548 547l0 -2M548 547l1 0"/>
<path stroke="#FFA500" d="M549 549l0 -2M549 549l1 0M550 551l0 -2M550 551l1 0M551 554l0 -3M551 554l1 0M552 556l0 -2M552 556l1 0M553 558l0 -2M553 558l1 0M554 560l0 -2M554 560l1 0M555 562l0 -2M555 562l1 0M556 564l0 -2M556 564l1 0M557 566l0 -2M557 566l1 0"/>
<path stroke="#FFA500" d="M558 568l0 -2M558 568l1 0M559 570l0 -2M559 570l1 0M560 572l0 -2M560 572l1 0M561 574l0 -2M561 574l1 0M562 575l0 -1M562 575l1 0M563 577l0 -2M563 577l1 0M564 579l0 -2M564 579l1 0M565 581l0 -2M565 581l1 0M566 583l0 -2M566 583l1 0"/>
<path stroke="#FFA500" d="M567 584l0 -1M567 584l1 0M568 586l0 -2M568 586l1 0 0 -6 1 0 0 -8 1 0 0 -9 1 0 0 -8 1 0 0 -7 1 -1 0 -7 1 0 0 -8 1 0 0 -7 1 -1 0 -7 1 0 0 -7 1 0 0 -8 1 0 0 -7 1 0 0 -7 1 0 0 -7 1 0 0 -6 1 -1 0 -6 1 0 0 -7 1 0 0 -6 1 -1"/>
<path stroke="#FFA500" d="M587 454l0 -6 1 0 0 -6 1 0 0 -7 1 0 0 -6 1 0 0 -6 1 0 0 -6 1 0 0 -6 1 0 0 -6 1 0 0 -5 1 -1 0 -5 1 0 0 -6 1 0 0 -5 1 0 0 -6 1 0 0 -5 1 0 0 -5 1 -1 0 -5 1 0 0 -5 1 0 0 -5 1 0 0 -5 1 0 0 -5 1 0 0 -5 1 0 0 -5 1 0 0 -4 1 0"/>
<path stroke="#FFA500" d="M610 327l0 -5 1 0 0 -5 1 0 0 -4 1 0 0 -5 1 0 0 -4 1 0 0 -4 1 0 0 -5 1 0 0 -4 1 0 0 -4 1 0 0 -4 1 0 0 -4 1 0 0 -4 1 0 0 -4 1 0 0 -4 1 0 0 -4 1 0 0 -4 1 0 0 -3 1 -1 0 -3 1 0 0 -4 1 0 0 -3 1 0 0 -4 1 0 0 -3 1 0 0 -4 1 0"/>
<path stroke="#FFA500" d="M633 234l0 -3 1 0 0 -3 1 0 0 -4 1 0 0 -3 1 0 0 -3 1 0 0 -3 1 0 0 -3 1 0 0 -3 1 0 0 -3 1 0 0 -3 1 0 0 -3 1 0 0 -3 1 0 0 -3 1 0 0 -3 1 0 0 -3 1 0 0 -2 1 0 0 -3 1 0 0 -3 1 0 0 -2 1 0 0 -3 1 0 0 -2 1 0 0 -3 1 0 0 -2 1 0"/>
<path stroke="#FFA500" d="M656 168l0 -3 1 0 0 -2 1 0 0 -3 1 0 0 -2 1 0 0 -2 1 0 0 -2 1 -1 0 -2 1 0 0 -2 1 0 0 -2 1 0 0 -2 1 0 0 -2 1 0 0 -2 1 0 0 -3 1 0 0 -2 1 0 0 -2 1 0 0 -1 1 -1 0 -1 1 0 0 -2 1 0 0 -2 1 0 0 -2 1 0 0 -2 1 0 0 -2 1 0 0 -2 1 0"/>
<path stroke="#FFA500" d="M679 119l0 -1 1 0 0 -2 1 0 0 -2 1 0M682 121l0 -7M682 121l1 0M683 129l0 -8M683 129l1 0M684 137l0 -8M684 137l1 0M685 145l0 -8M685 145l1 0M686 153l0 -8M686 153l1 0M687 161l0 -8M687 161l1 0M688 168l0 -7M688 168l1 1M689 176l0 -7"/>
<path stroke="#FFA500" d="M689 176l1 0M690 183l0 -7M690 183l1 1M691 191l0 -7M691 191l1 0M692 198l0 -7M692 198l1 0M693 205l0 -7M693 205l1 0M694 212l0 -7M694 212l1 0M695 219l0 -7M695 219l1 0M696 226l0 -7M696 226l1 0M697 233l0 -7M697 233l1 0M698 239l0 -6"/>
<path stroke="#FFA500" d="M698 239l1 0M699 246l0 -7M699 246l1 0M700 252l0 -6M700 252l1 0M701 259l0 -7M701 259l1 0M702 265l0 -6M702 265l1 0M703 271l0 -6M703 271l1 0M704 277l0 -6M704 277l1 0M705 283l0 -6M705 283l1 0M706 289l0 -6M706 289l1 0M707 295l0 -6"/>
<path stroke="#FFA500" d="M707 295l1 0M708 301l0 -6M708 301l1 0M709 307l0 -6M709 307l1 0M710 312l0 -5M710 312l1 0M711 318l0 -6M711 318l1 0M712 323l0 -5M712 323l1 0M713 329l0 -6M713 329l1 0M714 334l0 -5M714 334l1 0M715 339l0 -5M715 339l1 0M716 344l0 -5"/>
<path stroke="#FFA500" d="M716 344l1 0M717 349l0 -5M717 349l1 0M718 354l0 -5M718 354l1 0M719 359l0 -5M719 359l1 0M720 364l0 -5M720 364l1 0M721 369l0 -5M721 369l1 0M722 374l0 -5M722 374l1 0M723 378l0 -4M723 378l1 0M724 383l0 -5M724 383l1 0M725 388l0 -5"/>
<path stroke="#FFA500" d="M725 388l1 0M726 392l0 -4M726 392l1 0M727 396l0 -4M727 396l1 0M728 401l0 -5M728 401l1 0M729 405l0 -4M729 405l1 0M730 409l0 -4M730 409l1 0M731 413l0 -4M731 413l1 1M732 418l0 -4M732 418l1 0M733 422l0 -4M733 422l1 0M734 426l0 -4"/>
<path stroke="#FFA500" d="M734 426l1 0M735 430l0 -4M735 430l1 0M736 433l0 -3M736 433l1 0M737 437l0 -4M737 437l1 0M738 441l0 -4M738 441l1 0M739 445l0 -4M739 445l1 0M740 448l0 -3M740 448l1 0M741 452l0 -4M741 452l1 0M742 456l0 -4M742 456l1 0M743 459l0 -3"/>
<path stroke="#FFA500" d="M743 459l1 0M744 463l0 -4M744 463l1 0M745 466l0 -3M745 466l1 0M746 469l0 -3M746 469l1 0M747 473l0 -4M747 473l1 0M748 476l0 -3M748 476l1 0M749 479l0 -3M749 479l1 0M750 482l0 -3M750 482l1 0M751 486l0 -4M751 486l1 0M752 489l0 -3"/>
<path stroke="#FFA500" d="M752 489l1 0M753 492l0 -3M753 492l1 0M754 495l0 -3M754 495l1 0M755 498l0 -3M755 498l1 0M756 501l0 -3M756 501l1 0M757 503l0 -2M757 503l1 0M758 506l0 -3M758 506l1 0M759 509l0 -3M759 509l1 0M760 512l0 -3M760 512l1 0M761 515l0 -3"/>
<path stroke="#FFA500" d="M761 515l1 0M762 517l0 -2M762 517l1 0M763 520l0 -3M763 520l1 0M764 522l0 -2M764 522l1 1M765 525l0 -2M765 525l1 0M766 528l0 -3M766 528l1 0M767 530l0 -2M767 530l1 0M768 533l0 -3M768 533l1 0M769 535l0 -2M769 535l1 0M770 537l0 -2"/>
<path stroke="#FFA500" d="M770 537l1 0M771 540l0 -3M771 540l1 0M772 542l0 -2M772 542l1 0M773 544l0 -2M773 544l1 0M774 547l0 -3M774 547l1 0M775 549l0 -2M775 549l1 0M776 551l0 -2M776 551l1 0M777 553l0 -2M777 553l1 0M778 555l0 -2M778 555l1 0M779 558l0 -3"/>
<path stroke="#FFA500" d="M779 558l1 0M780 560l0 -2M780 560l1 0M781 562l0 -2M781 562l1 0M782 564l0 -2M782 564l1 0M783 566l0 -2M783 566l1 0M784 568l0 -2M784 568l1 0M785 570l0 -2M785 570l1 0M786 571l0 -1M786 571l1 1M787 573l0 -1M787 573l1 0M788 575l0 -2"/>
<path stroke="#FFA500" d="M788 575l1 0M789 577l0 -2M789 577l1 0M790 579l0 -2M790 579l1 0M791 581l0 -2M791 581l1 0M792 582l0 -1M792 582l1 0M793 584l0 -2M793 584l1 0M794 586l0 -2M794 586l1 0M795 588l0 -2M795 588l1 0M796 589l0 -1M796 589l1 0M797 591l0 -2"/>
<path stroke="#FFA500" d="M797 591l1 0M798 592l0 -1M798 592l1 0M799 594l0 -2M799 594l1 0M800 596l0 -2M800 596l1 0M801 597l0 -1M801 597l1 0M802 599l0 -2M802 599l1 0M803 600l0 -1M803 600l1 0M804 602l0 -2M804 602l1 0M805 603l0 -1M805 603l1 0M806 605l0 -2"/>
<path stroke="#FFA500" d="M806 605l1 0M807 606l0 -1M807 606l1 0M808 607l0 -1M808 607l1 0M809 609l0 -2M809 609l1 0M810 610l0 -1M810 610l1 0M811 611l0 -1M811 611l1 0M812 613l0 -2M812 613l1 0M813 614l0 -1M813 614l1 0M814 615l0 -1M814 615l1 0M815 617l0 -2"/>
<path stroke="#FFA500" d="M815 617l1 0M816 618l0 -1M816 618l1 0M817 619l0 -1M817 619l1 0M818 620l0 -1M818 620l1 0M819 621l0 -1M819 621l1 0M820 623l0 -2M820 623l1 0M821 624l0 -1M821 624l1 0M822 625l0 -1M822 625l1 0M823 626l0 -1M823 626l1 0M824 627l0 -1"/>
<path stroke="#FFA500" d="M824 627l1 0M825 628l0 -1M825 628l1 0M826 629l0 -1M826 629l1 0M827 630l0 -1M827 630l1 0M828 632l0 -2M828 632l1 0M829 633l0 -1M829 633l1 0M830 634l0 -1M830 634l1 0M831 635l0 -1M831 635l1 0M832 636l0 -1M832 636l1 0M833 637l0 -1"/>
<path stroke="#FFA500" d="M833 637l1 0M834 638l0 -1M834 638l1 0 1 1 1 0M837 640l0 -1M837 640l1 0M838 641l0 -1M838 641l1 0M839 642l0 -1M839 642l1 0M840 643l0 -1M840 643l1 0M841 644l0 -1M841 644l1 0M842 645l0 -1M842 645l1 0M843 646l0 -1M843 646l1 0"/>
<path stroke="#FFA500" d="M844 647l0 -1M844 647l2 0M846 648l0 -1M846 648l1 0M847 649l0 -1M847 649l1 0M848 650l0 -1M848 650l1 0M849 651l0 -1M849 651l2 0M851 652l0 -1M851 652l1 0M852 653l0 -1M852 653l1 0M853 654l0 -1M853 654l2 0M855 655l0 -1M855 655l1 0"/>
<path stroke="#FFA500" d="M856 656l0 -1M856 656l2 0M858 657l0 -1M858 657l1 0M859 658l0 -1M859 658l2 0M861 659l0 -1M861 659l1 0M862 660l0 -1M862 660l2 0M864 661l0 -1M864 661l1 0M865 662l0 -1M865 662l2 0M867 663l0 -1M867 663l2 0M869 664l0 -1M869 664l1 0"/>
<path stroke="#FFA500" d="M870 665l0 -1M870 665l2 0M872 666l0 -1M872 666l2 0M874 667l0 -1M874 667l2 0M876 668l0 -1M876 668l2 0M878 669l0 -1M878 669l1 0M879 670l0 -1M879 670l2 0M881 671l0 -1M881 671l3 0M884 672l0 -1M884 672l2 0M886 673l0 -1M886 673l2 0"/>
<path stroke="#FFA500" d="M888 674l0 -1M888 674l2 0M890 675l0 -1M890 675l2 0M892 676l0 -1M892 676l3 0M895 677l0 -1M895 677l2 0M897 678l0 -1M897 678l3 0M900 679l0 -1M900 679l3 0M903 680l0 -1M903 680l2 0M905 681l0 -1M905 681l3 0M908 682l0 -1M908 682l3 0"/>
<path stroke="#FFA500" d="M911 683l0 -1M911 683l3 0 1 1 3 0M918 685l0 -1M918 685l3 0M921 686l0 -1M921 686l4 0M925 687l0 -1M925 687l4 0M929 688l0 -1M929 688l4 0M933 689l0 -1M933 689l4 0M937 690l0 -1M937 690l5 0M942 691l0 -1M942 691l5 0M947 692l0 -1"/>
<path stroke="#FFA500" d="M947 692l5 0M952 693l0 -1M952 693l6 0M958 694l0 -1M958 694l6 0"/>
</svg>
