<?xml version="1.0" standalone="yes"?>
<!DOCTYPE svg PUBLIC "-//W3C//DTD SVG 1.1//EN"
 "http://www.w3.org/Graphics/SVG/1.1/DTD/svg11.dtd">
<svg xmlns="http://www.w3.org/2000/svg" version="1.1"
  width="100%" height="100%" viewBox="0 0 1024 768"
  style="fill: none; font-family: Helvetica;
 font: Helvetica;
">

<!-- Creator: NGspice -->

<rect x="0" y="0" width="1024" height="768" fill="black" stroke="none"/>
<text stroke="none" fill="white" font-size="16" x="358" y="752">
time
</text>
<text stroke="none" fill="white" font-size="16" x="10" y="16">
tran1: Combined Waveforms
</text>
<path stroke="white" d="M60 704l0 -640"/>
<text stroke="none" fill="white" font-size="16" x="45" y="728">
0.0
</text>
<path stroke="white" stroke-dasharray="1,2" d="M173 704l0 -640"/>
<text stroke="none" fill="white" font-size="16" x="153" y="728">
20.0
</text>
<path stroke="white" stroke-dasharray="1,2" d="M286 704l0 -640"/>
<text stroke="none" fill="white" font-size="16" x="266" y="728">
40.0
</text>
<path stroke="white" stroke-dasharray="1,2" d="M399 704l0 -640"/>
<text stroke="none" fill="white" font-size="16" x="379" y="728">
60.0
</text>
<path stroke="white" stroke-dasharray="1,2" d="M512 704l0 -640"/>
<text stroke="none" fill="white" font-size="16" x="492" y="728">
80.0
</text>
<path stroke="white" stroke-dasharray="1,2" d="M625 704l0 -640"/>
<text stroke="none" fill="white" font-size="16" x="600" y="728">
100.0
</text>
<path stroke="white" stroke-dasharray="1,2" d="M738 704l0 -640"/>
<text stroke="none" fill="white" font-size="16" x="713" y="728">
120.0
</text>
<path stroke="white" stroke-dasharray="1,2" d="M851 704l0 -640"/>
<text stroke="none" fill="white" font-size="16" x="826" y="728">
140.0
</text>
<path stroke="white" stroke-dasharray="1,2" d="M964 704l0 -640"/>
<text stroke="none" fill="white" font-size="16" x="939" y="728">
160.0
</text>
<text stroke="none" fill="white" font-size="16" x="614" y="752">
us
</text>
<path stroke="white" stroke-dasharray="1,2" d="M60 704l904 0"/>
<text stroke="none" fill="white" font-size="16" x="8" y="712">
-10.0
</text>
<path stroke="white" stroke-dasharray="1,2" d="M60 640l904 0"/>
<text stroke="none" fill="white" font-size="16" x="18" y="648">
-5.0
</text>
<path stroke="white" d="M60 576l904 0"/>
<text stroke="none" fill="white" font-size="16" x="28" y="584">
0.0
</text>
<path stroke="white" stroke-dasharray="1,2" d="M60 512l904 0"/>
<text stroke="none" fill="white" font-size="16" x="28" y="520">
5.0
</text>
<path stroke="white" stroke-dasharray="1,2" d="M60 448l904 0"/>
<text stroke="none" fill="white" font-size="16" x="18" y="456">
10.0
</text>
<path stroke="white" stroke-dasharray="1,2" d="M60 384l904 0"/>
<text stroke="none" fill="white" font-size="16" x="18" y="392">
15.0
</text>
<path stroke="white" stroke-dasharray="1,2" d="M60 320l904 0"/>
<text stroke="none" fill="white" font-size="16" x="18" y="328">
20.0
</text>
<path stroke="white" stroke-dasharray="1,2" d="M60 256l904 0"/>
<text stroke="none" fill="white" font-size="16" x="18" y="264">
25.0
</text>
<path stroke="white" stroke-dasharray="1,2" d="M60 192l904 0"/>
<text stroke="none" fill="white" font-size="16" x="18" y="200">
30.0
</text>
<path stroke="white" stroke-dasharray="1,2" d="M60 128l904 0"/>
<text stroke="none" fill="white" font-size="16" x="18" y="136">
35.0
</text>
<path stroke="white" stroke-dasharray="1,2" d="M60 64l904 0"/>
<text stroke="none" fill="white" font-size="16" x="18" y="72">
40.0
</text>
<text stroke="none" fill="white" font-size="16" x="10" y="32">
     
</text>
<path stroke="red" d="M452 23l45 0"/>
<text stroke="none" fill="white" font-size="16" x="507" y="32">
v(midpoint)/20
</text>
<path stroke="red" d="M60 576l0 -1 1 0 0 -4 1 0 0 -4 1 0 0 -4 1 0 0 -3 1 0 0 -4 1 0 0 -3 1 -1 0 -3 1 0 0 -4 1 0 0 -3 1 -1 0 -3 1 0 0 -4 1 0 0 -3 1 0 0 -4 1 0 0 -4 1 0 0 -3 1 0 0 -4 1 0 0 -3 1 0 0 -4 1 0 0 -4 1 0 0 -3 1 0 0 -4 1 0 0 -4 1 0 0 -3"/>
<path stroke="red" d="M83 491l1 0 0 -4 1 0 0 -3 1 0 0 -4 1 0 0 -4 1 0 0 -3 1 0 0 -4 1 0 0 -3 1 -1 0 -3 1 0 0 -4 1 0 0 -3 1 0 0 -4 1 0 0 -4 1 0 0 -3 1 0 0 -4 1 0 0 -3 1 -1 0 -3 1 0 0 -4 1 0 0 -3 1 0 0 -4 1 0 0 -4 1 0 0 -3 1 0 0 -4 1 0 0 -3 1 0"/>
<path stroke="red" d="M107 408l0 -4 1 0 0 -4 1 0 0 -3 1 0 0 -4 1 0 0 -3 1 -1 0 -3 1 0 0 -4 1 0 0 -3 1 0 0 -4 1 0 0 -4 15 0M131 578l0 -207M131 578l3 0 0 -1 2 0 0 -1 84 0M220 577l0 -1M220 577l3 0 0 -206 70 0M293 578l0 -207M293 578l3 0 0 -1 3 0"/>
<path stroke="red" d="M299 577l0 -1 82 0M381 577l0 -1M381 577l3 0 0 -7 1 0 0 -199 62 0 1 1 6 0M454 578l0 -206M454 578l3 0 0 -1 4 0 0 -1 82 0M543 577l0 -1M543 577l1 0M544 578l0 -1M544 578l2 0 0 -207 59 0M605 372l0 -1M605 372l10 0M615 383l0 -11"/>
<path stroke="red" d="M615 383l1 8M616 578l0 -187M616 578l2 0 0 -1 4 0 0 -1 82 0M704 577l0 -1M704 577l1 0M705 578l0 -1M705 578l2 0 0 -207 59 0M766 372l0 -1M766 372l11 0M777 578l0 -206M777 578l3 0 0 -1 4 0 0 -1 123 0"/>
<path stroke="blue" d="M60 23l45 0"/>
<text stroke="none" fill="white" font-size="16" x="115" y="32">
v(gate_hi,midpoint)
</text>
<path stroke="blue" d="M60 576l1 0 0 -94 1 -6 0 -92 69 0M131 576l0 -192M131 576l89 0 0 -1M220 576l3 0 0 -192 70 0M293 576l0 -192M293 576l3 0M296 577l0 -1 85 0 0 -1M381 576l3 0 0 -191 1 0M385 472l0 -88 69 0M454 576l0 -192M454 576l3 0M457 577l0 -1"/>
<path stroke="blue" d="M457 576l86 0 0 -1M543 576l3 0 0 -192 69 0M615 486l0 -102M615 486l1 1M616 576l0 -89M616 576l2 0M618 577l0 -1 86 0 0 -1M704 576l3 0 0 -192M707 401l1 -6 0 -11 69 0M777 576l0 -192M777 576l3 0M780 577l0 -1 127 0"/>
<path stroke="#FFA500" d="M452 39l45 0"/>
<text stroke="none" fill="white" font-size="16" x="507" y="48">
v(gate_lo)
</text>
<path stroke="#FFA500" d="M60 576l1 0 0 -3M61 574l1 0M62 576l0 -2M62 576l69 0M131 647l0 -71 3 0 0 -192 86 0M220 576l0 -192M220 576l3 0 0 -87M223 576l70 0M293 653l0 -77 2 0 0 -4 1 -8 0 -180 85 0M381 564l0 -180M381 564l1 5M382 576l0 -7M382 576l2 0"/>
<path stroke="#FFA500" d="M384 576l0 -3M384 576l1 0 0 -87M385 576l69 0M454 654l0 -78 3 0 0 -192 86 0M543 576l0 -192M543 576l3 0 0 -85M546 576l69 0M615 586l0 -10M615 586l1 7M616 655l0 -79 2 0 0 -181 1 -6 0 -5 85 0M704 576l0 -192M704 576l3 0 0 -85"/>
<path stroke="#FFA500" d="M707 560l1 6M708 576l0 -10M708 576l69 0M777 655l0 -79 3 0 0 -192 127 0"/>
<path stroke="green" d="M60 39l45 0"/>
<text stroke="none" fill="white" font-size="16" x="115" y="48">
i(l_load)
</text>
<path stroke="green" d="M60 576l3 0 0 -1 2 0 0 -1 1 0 0 -1 2 0 0 -1 1 0 0 -2 1 0 0 -1 1 0 0 -1 1 0 0 -2 1 0 0 -1 1 0 0 -2 1 0 0 -2 1 0 0 -2 1 0 0 -2 1 0 0 -2 1 0 0 -2 1 0 0 -2 1 0 0 -3 1 0 0 -2 1 0 0 -3 1 0 0 -3 1 0 0 -3 1 0 0 -3 1 0 0 -3 1 0"/>
<path stroke="green" d="M88 531l0 -3 1 0 0 -3 1 0 0 -4 1 0 0 -3 1 0 0 -4 1 0 0 -3 1 0 0 -4 1 0 0 -4 1 0 0 -4 1 0 0 -4 1 0 0 -4 1 0 0 -4 1 0 0 -5 1 0 0 -4 1 0 0 -5 1 0 0 -4 1 0 0 -5 1 0 0 -4 1 -1 0 -4 1 0 0 -5 1 0 0 -5 1 0 0 -5 1 0 0 -6 1 0 0 -5"/>
<path stroke="green" d="M111 429l1 0 0 -5 1 0 0 -6 1 0 0 -5 1 0 0 -6 1 0 0 -5 1 0 0 -6 1 0 0 -6 1 0 0 -5 1 0 0 -6 1 0 0 -5 1 0 0 -6 1 0 0 -5 1 0 0 -5 1 -1 0 -5 1 0 0 -5 1 0 0 -5 1 0 0 -5 1 0 0 -5 1 0 0 -5 1 0 0 -4 1 0M132 326l0 -3M132 326l1 0"/>
<path stroke="green" d="M133 328l0 -2M133 328l1 0M134 330l0 -2M134 330l1 0M135 332l0 -2M135 332l1 0M136 334l0 -2M136 334l1 0M137 336l0 -2M137 336l1 1M138 339l0 -2M138 339l1 0M139 341l0 -2M139 341l1 0M140 343l0 -2M140 343l1 0M141 345l0 -2M141 345l1 0"/>
<path stroke="green" d="M142 347l0 -2M142 347l1 0M143 349l0 -2M143 349l1 0M144 351l0 -2M144 351l1 0M145 353l0 -2M145 353l1 0M146 355l0 -2M146 355l1 0M147 357l0 -2M147 357l1 0M148 359l0 -2M148 359l1 0M149 361l0 -2M149 361l1 0M150 363l0 -2M150 363l1 0"/>
<path stroke="green" d="M151 364l0 -1M151 364l1 1M152 366l0 -1M152 366l1 0M153 368l0 -2M153 368l1 0M154 370l0 -2M154 370l1 0M155 372l0 -2M155 372l1 0M156 374l0 -2M156 374l1 0M157 375l0 -1M157 375l1 0M158 377l0 -2M158 377l1 0M159 379l0 -2M159 379l1 0"/>
<path stroke="green" d="M160 381l0 -2M160 381l1 0M161 382l0 -1M161 382l1 0M162 384l0 -2M162 384l1 0M163 386l0 -2M163 386l1 0M164 388l0 -2M164 388l1 0M165 389l0 -1M165 389l1 0M166 391l0 -2M166 391l1 0M167 392l0 -1M167 392l1 0M168 394l0 -2M168 394l1 0"/>
<path stroke="green" d="M169 396l0 -2M169 396l1 0M170 397l0 -1M170 397l1 0M171 399l0 -2M171 399l1 0M172 400l0 -1M172 400l1 0M173 402l0 -2M173 402l1 0M174 404l0 -2M174 404l1 0M175 405l0 -1M175 405l1 0M176 407l0 -2M176 407l1 0M177 408l0 -1M177 408l1 0"/>
<path stroke="green" d="M178 410l0 -2M178 410l1 0M179 411l0 -1M179 411l1 0M180 412l0 -1M180 412l1 1M181 414l0 -1M181 414l1 0M182 415l0 -1M182 415l1 0M183 417l0 -2M183 417l1 0M184 418l0 -1M184 418l1 0M185 420l0 -2M185 420l1 0M186 421l0 -1M186 421l1 0"/>
<path stroke="green" d="M187 422l0 -1M187 422l1 0M188 424l0 -2M188 424l1 0M189 425l0 -1M189 425l1 0M190 426l0 -1M190 426l1 0M191 428l0 -2M191 428l1 0M192 429l0 -1M192 429l1 0M193 430l0 -1M193 430l1 0M194 432l0 -2M194 432l1 0M195 433l0 -1M195 433l1 0"/>
<path stroke="green" d="M196 434l0 -1M196 434l1 0M197 435l0 -1M197 435l1 0M198 437l0 -2M198 437l1 0M199 438l0 -1M199 438l1 0M200 439l0 -1M200 439l1 0M201 440l0 -1M201 440l1 0M202 441l0 -1M202 441l1 0M203 443l0 -2M203 443l1 0M204 444l0 -1M204 444l1 0"/>
<path stroke="green" d="M205 445l0 -1M205 445l1 0M206 446l0 -1M206 446l1 0M207 447l0 -1M207 447l1 0M208 448l0 -1M208 448l1 0M209 450l0 -2M209 450l1 0M210 451l0 -1M210 451l1 0M211 452l0 -1M211 452l1 0M212 453l0 -1M212 453l1 0M213 454l0 -1M213 454l1 0"/>
<path stroke="green" d="M214 455l0 -1M214 455l1 0M215 456l0 -1M215 456l1 0M216 457l0 -1M216 457l1 0M217 458l0 -1M217 458l1 0M218 459l0 -1M218 459l1 0M219 460l0 -1M219 460l1 0M220 461l0 -1M220 461l1 0M221 462l0 -1M221 462l1 0M222 463l0 -1M222 463l1 0"/>
<path stroke="green" d="M223 464l0 -3 1 0 0 -6 1 0 0 -6 1 0 0 -6 1 0 0 -6 1 0 0 -6 1 0 0 -6 1 0 0 -6 1 0 0 -6 1 0 0 -6 1 0 0 -5 1 0 0 -6 1 0 0 -6 1 0 0 -5 1 0 0 -6 1 0 0 -5 1 0 0 -6 1 0 0 -5 1 0 0 -5 1 -1 0 -5 1 0 0 -5 1 0 0 -5 1 0 0 -5 1 0 0 -5"/>
<path stroke="green" d="M246 332l1 -1 0 -4 1 -1 0 -4 1 -1 0 -4 1 -1 0 -4 1 0 0 -5 1 0 0 -5 1 0 0 -5 1 0 0 -5 1 0 0 -4 1 0 0 -5 1 0 0 -5 1 0 0 -4 1 0 0 -5 1 0 0 -4 1 0 0 -5 1 0 0 -4 1 0 0 -5 1 0 0 -4 1 0 0 -4 1 0 0 -5 1 0 0 -4 1 0 0 -4 1 0 0 -4"/>
<path stroke="green" d="M269 226l1 0 0 -4 1 0 0 -4 1 0 0 -4 1 0 0 -4 1 0 0 -4 1 0 0 -4 1 0 0 -4 1 0 0 -4 1 0 0 -4 1 0 0 -4 1 0 0 -3 1 -1 0 -3 1 0 0 -4 1 0 0 -4 1 0 0 -3 1 0 0 -4 1 0 0 -4 1 0 0 -3 1 0 0 -4 1 0 0 -3 1 0 0 -3 1 -1 0 -3 1 0 0 -3"/>
<path stroke="green" d="M292 140l1 0M293 142l0 -3M293 142l1 0M294 146l0 -4M294 146l1 0M295 150l0 -4M295 150l1 0M296 154l0 -4M296 154l1 0M297 157l0 -3M297 157l1 1M298 161l0 -3M298 161l1 0M299 165l0 -4M299 165l1 0M300 169l0 -4M300 169l1 0M301 172l0 -3"/>
<path stroke="green" d="M301 172l1 0M302 176l0 -4M302 176l1 0M303 179l0 -3M303 179l1 0M304 183l0 -4M304 183l1 0M305 186l0 -3M305 186l1 0M306 190l0 -4M306 190l1 0M307 193l0 -3M307 193l1 0M308 196l0 -3M308 196l1 1M309 200l0 -3M309 200l1 0M310 203l0 -3"/>
<path stroke="green" d="M310 203l1 0M311 206l0 -3M311 206l1 0M312 210l0 -4M312 210l1 0M313 213l0 -3M313 213l1 0M314 216l0 -3M314 216l1 0M315 219l0 -3M315 219l1 0M316 222l0 -3M316 222l1 0M317 226l0 -4M317 226l1 0M318 229l0 -3M318 229l1 0M319 232l0 -3"/>
<path stroke="green" d="M319 232l1 0M320 235l0 -3M320 235l1 0M321 238l0 -3M321 238l1 0M322 241l0 -3M322 241l1 0M323 244l0 -3M323 244l1 0M324 247l0 -3M324 247l1 0M325 250l0 -3M325 250l1 0M326 252l0 -2M326 252l1 1M327 255l0 -2M327 255l1 0M328 258l0 -3"/>
<path stroke="green" d="M328 258l1 0M329 261l0 -3M329 261l1 0M330 264l0 -3M330 264l1 0M331 266l0 -2M331 266l1 1M332 269l0 -2M332 269l1 0M333 272l0 -3M333 272l1 0M334 275l0 -3M334 275l1 0M335 277l0 -2M335 277l1 0M336 280l0 -3M336 280l1 0M337 283l0 -3"/>
<path stroke="green" d="M337 283l1 0M338 285l0 -2M338 285l1 0M339 288l0 -3M339 288l1 0M340 290l0 -2M340 290l1 0M341 293l0 -3M341 293l1 0M342 295l0 -2M342 295l1 0M343 298l0 -3M343 298l1 0M344 300l0 -2M344 300l1 0M345 303l0 -3M345 303l1 0M346 305l0 -2"/>
<path stroke="green" d="M346 305l1 0M347 307l0 -2M347 307l1 1M348 310l0 -2M348 310l1 0M349 312l0 -2M349 312l1 0M350 315l0 -3M350 315l1 0M351 317l0 -2M351 317l1 0M352 319l0 -2M352 319l1 0M353 321l0 -2M353 321l1 0M354 324l0 -3M354 324l1 0M355 326l0 -2"/>
<path stroke="green" d="M355 326l1 0M356 328l0 -2M356 328l1 0M357 330l0 -2M357 330l1 0M358 332l0 -2M358 332l1 0M359 335l0 -3M359 335l1 0M360 337l0 -2M360 337l1 0M361 339l0 -2M361 339l1 0M362 341l0 -2M362 341l1 0M363 343l0 -2M363 343l1 0M364 345l0 -2"/>
<path stroke="green" d="M364 345l1 0M365 347l0 -2M365 347l1 0M366 349l0 -2M366 349l1 0M367 351l0 -2M367 351l1 0M368 353l0 -2M368 353l1 0M369 355l0 -2M369 355l1 0M370 357l0 -2M370 357l1 0M371 359l0 -2M371 359l1 0M372 361l0 -2M372 361l1 0M373 363l0 -2"/>
<path stroke="green" d="M373 363l1 0M374 365l0 -2M374 365l1 0M375 367l0 -2M375 367l1 0M376 368l0 -1M376 368l1 0M377 370l0 -2M377 370l1 0M378 372l0 -2M378 372l1 0M379 374l0 -2M379 374l1 0M380 376l0 -2M380 376l1 0M381 377l0 -1M381 377l1 0M382 379l0 -2"/>
<path stroke="green" d="M382 379l1 0M383 381l0 -2M383 381l1 0M384 383l0 -2M384 383l1 0 0 -5 1 -1 0 -5 1 0 0 -5 1 -1 0 -5 1 0 0 -5 1 0 0 -5 1 0 0 -5 1 -1 0 -5 1 0 0 -5 1 0 0 -5 1 0 0 -5 1 0 0 -5 1 0 0 -5 1 0 0 -5 1 0 0 -5 1 0 0 -5 1 0 0 -4 1 0"/>
<path stroke="green" d="M402 296l0 -5 1 0 0 -5 1 0 0 -4 1 0 0 -5 1 0 0 -5 1 0 0 -4 1 0 0 -5 1 0 0 -4 1 0 0 -5 1 0 0 -4 1 0 0 -4 1 0 0 -5 1 0 0 -4 1 0 0 -4 1 0 0 -4 1 0 0 -4 1 -1 0 -3 1 -1 0 -3 1 -1 0 -4 1 0 0 -4 1 0 0 -4 1 0 0 -3 1 -1 0 -3 1 0"/>
<path stroke="green" d="M425 197l0 -4 1 0 0 -4 1 0 0 -4 1 0 0 -4 1 0 0 -3 1 0 0 -4 1 0 0 -4 1 0 0 -3 1 -1 0 -3 1 0 0 -4 1 0 0 -3 1 0 0 -4 1 0 0 -3 1 0 0 -4 1 0 0 -3 1 0 0 -3 1 0 0 -4 1 0 0 -3 1 0 0 -3 1 0 0 -4 1 0 0 -3 1 0 0 -3 1 0 0 -3 1 0 0 -3"/>
<path stroke="green" d="M448 113l1 0 0 -3 1 -1 0 -3 1 0 0 -3 1 0 0 -3 1 0 0 -3 1 0 0 -1M454 97l1 0M455 101l0 -4M455 101l1 1M456 106l0 -4M456 106l1 0M457 110l0 -4M457 110l1 0M458 114l0 -4M458 114l1 0M459 118l0 -4M459 118l1 0M460 122l0 -4M460 122l1 0"/>
<path stroke="green" d="M461 126l0 -4M461 126l1 0M462 130l0 -4M462 130l1 0M463 134l0 -4M463 134l1 0M464 138l0 -4M464 138l1 0M465 142l0 -4M465 142l1 0M466 146l0 -4M466 146l1 0M467 149l0 -3M467 149l1 1M468 153l0 -3M468 153l1 0M469 157l0 -4M469 157l1 0"/>
<path stroke="green" d="M470 161l0 -4M470 161l1 0M471 164l0 -3M471 164l1 0M472 168l0 -4M472 168l1 0M473 172l0 -4M473 172l1 0M474 175l0 -3M474 175l1 0M475 179l0 -4M475 179l1 0M476 182l0 -3M476 182l1 0M477 186l0 -4M477 186l1 0M478 189l0 -3M478 189l1 0"/>
<path stroke="green" d="M479 193l0 -4M479 193l1 0M480 196l0 -3M480 196l1 0M481 199l0 -3M481 199l1 0M482 203l0 -4M482 203l1 0M483 206l0 -3M483 206l1 0M484 209l0 -3M484 209l1 0M485 212l0 -3M485 212l1 0M486 216l0 -4M486 216l1 0M487 219l0 -3M487 219l1 0"/>
<path stroke="green" d="M488 222l0 -3M488 222l1 0M489 225l0 -3M489 225l1 0M490 228l0 -3M490 228l1 0M491 231l0 -3M491 231l1 0M492 234l0 -3M492 234l1 0M493 237l0 -3M493 237l1 0M494 240l0 -3M494 240l1 0M495 243l0 -3M495 243l1 0M496 246l0 -3M496 246l1 0"/>
<path stroke="green" d="M497 249l0 -3M497 249l1 0M498 252l0 -3M498 252l1 0M499 255l0 -3M499 255l1 0M500 258l0 -3M500 258l1 0M501 261l0 -3M501 261l1 0M502 263l0 -2M502 263l1 0M503 266l0 -3M503 266l1 0M504 269l0 -3M504 269l1 0M505 272l0 -3M505 272l1 0"/>
<path stroke="green" d="M506 274l0 -2M506 274l1 0M507 277l0 -3M507 277l1 0M508 280l0 -3M508 280l1 0M509 282l0 -2M509 282l1 0M510 285l0 -3M510 285l1 0M511 287l0 -2M511 287l1 0M512 290l0 -3M512 290l1 0M513 292l0 -2M513 292l1 0M514 295l0 -3M514 295l1 0"/>
<path stroke="green" d="M515 297l0 -2M515 297l1 0M516 300l0 -3M516 300l1 0M517 302l0 -2M517 302l1 0M518 305l0 -3M518 305l1 0M519 307l0 -2M519 307l1 0M520 309l0 -2M520 309l1 1M521 312l0 -2M521 312l1 0M522 314l0 -2M522 314l1 0M523 316l0 -2M523 316l1 1"/>
<path stroke="green" d="M524 319l0 -2M524 319l1 0M525 321l0 -2M525 321l1 0M526 323l0 -2M526 323l1 0M527 326l0 -3M527 326l1 0M528 328l0 -2M528 328l1 0M529 330l0 -2M529 330l1 0M530 332l0 -2M530 332l1 0M531 334l0 -2M531 334l1 0M532 336l0 -2M532 336l1 0"/>
<path stroke="green" d="M533 338l0 -2M533 338l1 1M534 341l0 -2M534 341l1 0M535 343l0 -2M535 343l1 0M536 345l0 -2M536 345l1 0M537 347l0 -2M537 347l1 0M538 349l0 -2M538 349l1 0M539 351l0 -2M539 351l1 0M540 353l0 -2M540 353l1 0M541 355l0 -2M541 355l1 0"/>
<path stroke="green" d="M542 357l0 -2M542 357l1 0M543 359l0 -2M543 359l1 0M544 361l0 -2M544 361l1 0M545 363l0 -2M545 363l1 0M546 364l0 -3 1 0 0 -6 1 0 0 -5 1 0 0 -5 1 0 0 -5 1 0 0 -5 1 0 0 -5 1 -1 0 -4 1 -1 0 -4 1 -1 0 -4 1 -1 0 -4 1 0 0 -5 1 0"/>
<path stroke="green" d="M558 305l0 -5 1 0 0 -5 1 0 0 -5 1 0 0 -4 1 0 0 -5 1 0 0 -4 1 -1 0 -4 1 0 0 -5 1 0 0 -4 1 0 0 -5 1 0 0 -4 1 0 0 -4 1 0 0 -5 1 0 0 -4 1 0 0 -4 1 0 0 -4 1 -1 0 -4 1 0 0 -4 1 0 0 -4 1 0 0 -4 1 0 0 -4 1 0 0 -4 1 0 0 -4 1 0"/>
<path stroke="green" d="M581 204l0 -4 1 0 0 -4 1 0 0 -4 1 0 0 -3 1 -1 0 -3 1 0 0 -4 1 0 0 -4 1 0 0 -3 1 -1 0 -3 1 0 0 -4 1 0 0 -3 1 0 0 -4 1 0 0 -3 1 -1 0 -3 1 0 0 -3 1 -1 0 -3 1 0 0 -3 1 0 0 -4 1 0 0 -3 1 0 0 -3 1 0 0 -4 1 0 0 -3 1 0 0 -3 1 0"/>
<path stroke="green" d="M604 122l0 -3 1 0 0 -4 1 0 0 -3 1 0 0 -3 1 0 0 -3 1 0 0 -3 1 0 0 -3 1 0 0 -3 1 0 0 -3 1 0 0 -3 1 0 0 -3 1 0 0 -3 1 0M616 89l0 -4M616 89l1 0M617 94l0 -5M617 94l1 0M618 98l0 -4M618 98l1 0M619 102l0 -4M619 102l1 0M620 106l0 -4"/>
<path stroke="green" d="M620 106l1 1M621 111l0 -4M621 111l1 0M622 115l0 -4M622 115l1 0M623 119l0 -4M623 119l1 0M624 123l0 -4M624 123l1 0M625 127l0 -4M625 127l1 0M626 131l0 -4M626 131l1 0M627 135l0 -4M627 135l1 0M628 139l0 -4M628 139l1 0M629 142l0 -3"/>
<path stroke="green" d="M629 142l1 1M630 146l0 -3M630 146l1 0M631 150l0 -4M631 150l1 0M632 154l0 -4M632 154l1 0M633 158l0 -4M633 158l1 0M634 161l0 -3M634 161l1 0M635 165l0 -4M635 165l1 0M636 169l0 -4M636 169l1 0M637 172l0 -3M637 172l1 0M638 176l0 -4"/>
<path stroke="green" d="M638 176l1 0M639 179l0 -3M639 179l1 0M640 183l0 -4M640 183l1 0M641 186l0 -3M641 186l1 0M642 190l0 -4M642 190l1 0M643 193l0 -3M643 193l1 0M644 196l0 -3M644 196l1 1M645 200l0 -3M645 200l1 0M646 203l0 -3M646 203l1 0M647 207l0 -4"/>
<path stroke="green" d="M647 207l1 0M648 210l0 -3M648 210l1 0M649 213l0 -3M649 213l1 0M650 216l0 -3M650 216l1 0M651 219l0 -3M651 219l1 0M652 223l0 -4M652 223l1 0M653 226l0 -3M653 226l1 0M654 229l0 -3M654 229l1 0M655 232l0 -3M655 232l1 0M656 235l0 -3"/>
<path stroke="green" d="M656 235l1 0M657 238l0 -3M657 238l1 0M658 241l0 -3M658 241l1 0M659 244l0 -3M659 244l1 0M660 247l0 -3M660 247l1 0M661 250l0 -3M661 250l1 0M662 253l0 -3M662 253l1 0M663 255l0 -2M663 255l1 0M664 258l0 -3M664 258l1 0M665 261l0 -3"/>
<path stroke="green" d="M665 261l1 0M666 264l0 -3M666 264l1 0M667 267l0 -3M667 267l1 0M668 269l0 -2M668 269l1 0M669 272l0 -3M669 272l1 0M670 275l0 -3M670 275l1 0M671 277l0 -2M671 277l1 0M672 280l0 -3M672 280l1 0M673 283l0 -3M673 283l1 0M674 285l0 -2"/>
<path stroke="green" d="M674 285l1 0M675 288l0 -3M675 288l1 0M676 290l0 -2M676 290l1 0M677 293l0 -3M677 293l1 0M678 295l0 -2M678 295l1 0M679 298l0 -3M679 298l1 0M680 300l0 -2M680 300l1 0M681 303l0 -3M681 303l1 0M682 305l0 -2M682 305l1 0M683 308l0 -3"/>
<path stroke="green" d="M683 308l1 0M684 310l0 -2M684 310l1 0M685 312l0 -2M685 312l1 0M686 315l0 -3M686 315l1 0M687 317l0 -2M687 317l1 0M688 319l0 -2M688 319l1 0M689 321l0 -2M689 321l1 0M690 324l0 -3M690 324l1 0M691 326l0 -2M691 326l1 0M692 328l0 -2"/>
<path stroke="green" d="M692 328l1 0M693 330l0 -2M693 330l1 0M694 332l0 -2M694 332l1 1M695 335l0 -2M695 335l1 0M696 337l0 -2M696 337l1 0M697 339l0 -2M697 339l1 0M698 341l0 -2M698 341l1 0M699 343l0 -2M699 343l1 0M700 345l0 -2M700 345l1 0M701 347l0 -2"/>
<path stroke="green" d="M701 347l1 0M702 349l0 -2M702 349l1 0M703 351l0 -2M703 351l1 0M704 353l0 -2M704 353l1 0M705 355l0 -2M705 355l1 0M706 357l0 -2M706 357l1 0M707 359l0 -2M707 359l1 -1 0 -5 1 0 0 -5 1 0 0 -5 1 0 0 -5 1 -1 0 -4 1 -1 0 -5 1 0"/>
<path stroke="green" d="M714 327l0 -5 1 0 0 -5 1 0 0 -4 1 -1 0 -4 1 0 0 -5 1 0 0 -5 1 0 0 -5 1 0 0 -4 1 -1 0 -4 1 0 0 -5 1 0 0 -4 1 -1 0 -4 1 0 0 -4 1 -1 0 -4 1 0 0 -4 1 -1 0 -4 1 0 0 -4 1 0 0 -4 1 -1 0 -4 1 0 0 -4 1 0 0 -4 1 0 0 -4 1 -1 0 -3"/>
<path stroke="green" d="M736 223l1 -1 0 -4 1 0 0 -4 1 0 0 -4 1 0 0 -4 1 0 0 -4 1 0 0 -3 1 -1 0 -3 1 -1 0 -3 1 0 0 -4 1 0 0 -4 1 0 0 -4 1 0 0 -3 1 0 0 -4 1 0 0 -4 1 0 0 -3 1 0 0 -4 1 0 0 -3 1 -1 0 -3 1 0 0 -3 1 0 0 -4 1 0 0 -3 1 0 0 -4 1 0 0 -3"/>
<path stroke="green" d="M759 137l1 0 0 -3 1 0 0 -4 1 0 0 -3 1 0 0 -3 1 0 0 -3 1 -1 0 -3 1 0 0 -3 1 0 0 -3 1 0 0 -3 1 0 0 -3 1 0 0 -3 1 0 0 -3 1 0 0 -3 1 0 0 -3 1 0 0 -3 1 0 0 -3 1 0 0 -3 1 0M777 85l0 -2M777 85l1 0M778 89l0 -4M778 89l1 1M779 94l0 -4"/>
<path stroke="green" d="M779 94l1 0M780 98l0 -4M780 98l1 0M781 102l0 -4M781 102l1 0M782 107l0 -5M782 107l1 0M783 111l0 -4M783 111l1 0M784 115l0 -4M784 115l1 0M785 119l0 -4M785 119l1 0M786 123l0 -4M786 123l1 0M787 127l0 -4M787 127l1 0M788 131l0 -4"/>
<path stroke="green" d="M788 131l1 0M789 135l0 -4M789 135l1 0M790 139l0 -4M790 139l1 0M791 143l0 -4M791 143l1 0M792 146l0 -3M792 146l1 0M793 150l0 -4M793 150l1 0M794 154l0 -4M794 154l1 0M795 158l0 -4M795 158l1 0M796 161l0 -3M796 161l1 0M797 165l0 -4"/>
<path stroke="green" d="M797 165l1 0M798 169l0 -4M798 169l1 0M799 172l0 -3M799 172l1 0M800 176l0 -4M800 176l1 0M801 179l0 -3M801 179l1 0M802 183l0 -4M802 183l1 0M803 186l0 -3M803 186l1 0M804 190l0 -4M804 190l1 0M805 193l0 -3M805 193l1 0M806 197l0 -4"/>
<path stroke="green" d="M806 197l1 0M807 200l0 -3M807 200l1 0M808 203l0 -3M808 203l1 0M809 207l0 -4M809 207l1 0M810 210l0 -3M810 210l1 0M811 213l0 -3M811 213l1 0M812 216l0 -3M812 216l1 0M813 219l0 -3M813 219l1 0M814 223l0 -4M814 223l1 0M815 226l0 -3"/>
<path stroke="green" d="M815 226l1 0M816 229l0 -3M816 229l1 0M817 232l0 -3M817 232l1 0M818 235l0 -3M818 235l1 0M819 238l0 -3M819 238l1 0M820 241l0 -3M820 241l1 0M821 244l0 -3M821 244l1 0M822 247l0 -3M822 247l1 0M823 250l0 -3M823 250l1 0M824 253l0 -3"/>
<path stroke="green" d="M824 253l1 0M825 255l0 -2M825 255l1 0M826 258l0 -3M826 258l1 0M827 261l0 -3M827 261l1 0M828 264l0 -3M828 264l1 0M829 267l0 -3M829 267l1 0M830 269l0 -2M830 269l1 0M831 272l0 -3M831 272l1 0M832 275l0 -3M832 275l1 0M833 277l0 -2"/>
<path stroke="green" d="M833 277l1 0M834 280l0 -3M834 280l1 0M835 283l0 -3M835 283l1 0M836 285l0 -2M836 285l1 0M837 288l0 -3M837 288l1 0M838 290l0 -2M838 290l1 0M839 293l0 -3M839 293l1 0M840 295l0 -2M840 295l1 0M841 298l0 -3M841 298l1 0M842 300l0 -2"/>
<path stroke="green" d="M842 300l1 0M843 303l0 -3M843 303l1 0M844 305l0 -2M844 305l1 0M845 308l0 -3M845 308l1 0M846 310l0 -2M846 310l1 0M847 312l0 -2M847 312l1 0M848 315l0 -3M848 315l1 0M849 317l0 -2M849 317l1 0M850 319l0 -2M850 319l1 0M851 321l0 -2"/>
<path stroke="green" d="M851 321l1 1M852 324l0 -2M852 324l1 0M853 326l0 -2M853 326l1 0M854 328l0 -2M854 328l1 0M855 330l0 -2M855 330l1 0M856 333l0 -3M856 333l1 0M857 335l0 -2M857 335l1 0M858 337l0 -2M858 337l1 0M859 339l0 -2M859 339l1 0M860 341l0 -2"/>
<path stroke="green" d="M860 341l1 0M861 343l0 -2M861 343l1 0M862 345l0 -2M862 345l1 0M863 347l0 -2M863 347l1 0M864 349l0 -2M864 349l1 0M865 351l0 -2M865 351l1 0M866 353l0 -2M866 353l1 0M867 355l0 -2M867 355l1 0M868 357l0 -2M868 357l1 0M869 359l0 -2"/>
<path stroke="green" d="M869 359l1 0M870 361l0 -2M870 361l1 0M871 363l0 -2M871 363l1 0M872 365l0 -2M872 365l1 0M873 367l0 -2M873 367l1 0M874 368l0 -1M874 368l1 1M875 370l0 -1M875 370l1 0M876 372l0 -2M876 372l1 0M877 374l0 -2M877 374l1 0M878 376l0 -2"/>
<path stroke="green" d="M878 376l1 0M879 377l0 -1M879 377l1 1M880 379l0 -1M880 379l1 0M881 381l0 -2M881 381l1 0M882 383l0 -2M882 383l1 0M883 384l0 -1M883 384l1 0M884 386l0 -2M884 386l1 0M885 388l0 -2M885 388l1 0M886 389l0 -1M886 389l1 0M887 391l0 -2"/>
<path stroke="green" d="M887 391l1 0M888 393l0 -2M888 393l1 0M889 394l0 -1M889 394l1 0M890 396l0 -2M890 396l1 0M891 397l0 -1M891 397l1 1M892 399l0 -1M892 399l1 0M893 401l0 -2M893 401l1 0M894 402l0 -1M894 402l1 0M895 404l0 -2M895 404l1 0M896 405l0 -1"/>
<path stroke="green" d="M896 405l1 0M897 407l0 -2M897 407l1 0M898 408l0 -1M898 408l1 0M899 410l0 -2M899 410l1 0M900 411l0 -1M900 411l1 0M901 413l0 -2M901 413l1 0M902 414l0 -1M902 414l1 0M903 416l0 -2M903 416l1 0M904 417l0 -1M904 417l1 0M905 418l0 -1"/>
<path stroke="green" d="M905 418l1 0M906 420l0 -2M906 420l1 0M907 421l0 -1"/>
</svg>
