<?xml version="1.0" standalone="yes"?>
<!DOCTYPE svg PUBLIC "-//W3C//DTD SVG 1.1//EN"
 "http://www.w3.org/Graphics/SVG/1.1/DTD/svg11.dtd">
<svg xmlns="http://www.w3.org/2000/svg" version="1.1"
  width="100%" height="100%" viewBox="0 0 1024 768"
  style="fill: none; font-family: Helvetica;
 font: Helvetica;
">

<!-- Creator: NGspice -->

<rect x="0" y="0" width="1024" height="768" fill="black" stroke="none"/>
<text stroke="none" fill="white" font-size="16" x="358" y="752">
time
</text>
<text stroke="none" fill="white" font-size="16" x="10" y="16">
tran1: Midpoint (Switch Node) Voltage
</text>
<path stroke="white" d="M70 704l0 -640"/>
<text stroke="none" fill="white" font-size="16" x="55" y="728">
0.0
</text>
<path stroke="white" stroke-dasharray="1,2" d="M180 704l0 -640"/>
<text stroke="none" fill="white" font-size="16" x="160" y="728">
20.0
</text>
<path stroke="white" stroke-dasharray="1,2" d="M290 704l0 -640"/>
<text stroke="none" fill="white" font-size="16" x="270" y="728">
40.0
</text>
<path stroke="white" stroke-dasharray="1,2" d="M400 704l0 -640"/>
<text stroke="none" fill="white" font-size="16" x="380" y="728">
60.0
</text>
<path stroke="white" stroke-dasharray="1,2" d="M510 704l0 -640"/>
<text stroke="none" fill="white" font-size="16" x="490" y="728">
80.0
</text>
<path stroke="white" stroke-dasharray="1,2" d="M620 704l0 -640"/>
<text stroke="none" fill="white" font-size="16" x="595" y="728">
100.0
</text>
<path stroke="white" stroke-dasharray="1,2" d="M730 704l0 -640"/>
<text stroke="none" fill="white" font-size="16" x="705" y="728">
120.0
</text>
<path stroke="white" stroke-dasharray="1,2" d="M840 704l0 -640"/>
<text stroke="none" fill="white" font-size="16" x="815" y="728">
140.0
</text>
<path stroke="white" stroke-dasharray="1,2" d="M950 704l0 -640"/>
<text stroke="none" fill="white" font-size="16" x="925" y="728">
160.0
</text>
<text stroke="none" fill="white" font-size="16" x="614" y="752">
us
</text>
<path stroke="white" stroke-dasharray="1,2" d="M70 704l880 0"/>
<text stroke="none" fill="white" font-size="16" x="18" y="712">
-50.0
</text>
<path stroke="white" d="M70 624l880 0"/>
<text stroke="none" fill="white" font-size="16" x="38" y="632">
0.0
</text>
<path stroke="white" stroke-dasharray="1,2" d="M70 544l880 0"/>
<text stroke="none" fill="white" font-size="16" x="28" y="552">
50.0
</text>
<path stroke="white" stroke-dasharray="1,2" d="M70 464l880 0"/>
<text stroke="none" fill="white" font-size="16" x="18" y="472">
100.0
</text>
<path stroke="white" stroke-dasharray="1,2" d="M70 384l880 0"/>
<text stroke="none" fill="white" font-size="16" x="18" y="392">
150.0
</text>
<path stroke="white" stroke-dasharray="1,2" d="M70 304l880 0"/>
<text stroke="none" fill="white" font-size="16" x="18" y="312">
200.0
</text>
<path stroke="white" stroke-dasharray="1,2" d="M70 224l880 0"/>
<text stroke="none" fill="white" font-size="16" x="18" y="232">
250.0
</text>
<path stroke="white" stroke-dasharray="1,2" d="M70 144l880 0"/>
<text stroke="none" fill="white" font-size="16" x="18" y="152">
300.0
</text>
<path stroke="white" stroke-dasharray="1,2" d="M70 64l880 0"/>
<text stroke="none" fill="white" font-size="16" x="18" y="72">
350.0
</text>
<text stroke="none" fill="white" font-size="16" x="10" y="32">
V
</text>
<path stroke="red" d="M440 23l44 0"/>
<text stroke="none" fill="white" font-size="16" x="494" y="32">
v(midpoint)
</text>
<path stroke="red" d="M70 624l0 -2 1 0 0 -12 1 0 0 -9 1 0 0 -10 1 0 0 -9 1 0 0 -9 1 0 0 -9 1 -1 0 -9 1 0 0 -9 1 0 0 -9 1 -1 0 -9 1 0 0 -9 1 0 0 -9 1 -1 0 -8 1 -1 0 -9 1 0 0 -9 1 0 0 -9 1 -1 0 -9 1 0 0 -9 1 0 0 -9 1 -1 0 -9 1 0 0 -9 1 0 0 -9 1 0"/>
<path stroke="red" d="M93 415l0 -10 1 0 0 -9 1 0 0 -9 1 -1 0 -8 1 -1 0 -9 1 0 0 -9 1 0 0 -9 1 -1 0 -9 1 0 0 -9 1 0 0 -9 1 -1 0 -8 1 -1 0 -9 1 0 0 -9 1 0 0 -10 1 0 0 -9 1 0 0 -9 1 0 0 -9 1 -1 0 -9 1 0 0 -9 1 0 0 -9 1 -1 0 -9 1 0 0 -9 1 0 0 -9"/>
<path stroke="red" d="M115 201l1 -1 0 -8 1 -1 0 -9 1 0 0 -9 1 0 0 -9 1 -1 0 -9 1 0 0 -9 1 0 0 -9 1 0 0 -10 1 0 0 -9 1 0 0 -5 14 0M139 628l0 -516M139 628l3 0 0 -2 1 0 0 -1 1 0 1 -1 81 0M226 627l0 -3M226 627l3 0 0 -515 32 0M261 113l0 -1M261 113l35 0"/>
<path stroke="red" d="M296 313l0 -200M296 313l1 63M297 629l0 -253M297 629l2 0 0 -2 1 0 0 -1 2 0 0 -1 1 0 0 -1M303 625l30 0 1 -1 49 0M383 628l0 -4M383 628l3 0 0 -516 19 0M405 113l0 -1M405 113l49 0M454 630l0 -517M454 630l2 0 0 -3 1 0 0 -1 2 0 0 -1"/>
<path stroke="red" d="M459 625l1 0 0 -1M460 625l41 0 0 -1 39 0M540 628l0 -4M540 628l3 0 0 -516 15 0M558 113l0 -1M558 113l53 0M611 630l0 -517M611 630l3 0 0 -4 3 0 0 -1 44 0 0 -1 36 0M697 628l0 -4M697 628l3 0 0 -516 15 0M715 113l0 -1M715 113l53 0"/>
<path stroke="red" d="M768 630l0 -517M768 630l3 0 0 -3 1 0 0 -1 2 0 0 -1 44 0 0 -1 77 0"/>
</svg>
