%TF.GenerationSoftware,KiCad,Pcbnew,10.0.4*%
%TF.CreationDate,2026-09-24T00:17:52-06:00*%
%TF.ProjectId,section,73656374-696f-46e2-9e6b-696361645f70,rev?*%
%TF.SameCoordinates,Original*%
%TF.FileFunction,AssemblyDrawing,Top*%
%FSLAX45Y45*%
G04 Gerber Fmt 4.5, Leading zero omitted, Abs format (unit mm)*
G04 Created by KiCad (PCBNEW 10.0.4) date 2026-09-24 00:17:52*
%MOMM*%
%LPD*%
G01*
G04 APERTURE LIST*
%ADD10C,0.120000*%
%ADD11C,0.060000*%
%ADD12C,0.150000*%
%ADD13C,0.110000*%
%ADD14C,0.100000*%
G04 APERTURE END LIST*
D10*
X3986667Y-5248766D02*
X3982857Y-5252576D01*
X3982857Y-5252576D02*
X3971429Y-5256386D01*
X3971429Y-5256386D02*
X3963809Y-5256386D01*
X3963809Y-5256386D02*
X3952381Y-5252576D01*
X3952381Y-5252576D02*
X3944762Y-5244957D01*
X3944762Y-5244957D02*
X3940952Y-5237338D01*
X3940952Y-5237338D02*
X3937143Y-5222100D01*
X3937143Y-5222100D02*
X3937143Y-5210671D01*
X3937143Y-5210671D02*
X3940952Y-5195433D01*
X3940952Y-5195433D02*
X3944762Y-5187814D01*
X3944762Y-5187814D02*
X3952381Y-5180195D01*
X3952381Y-5180195D02*
X3963809Y-5176386D01*
X3963809Y-5176386D02*
X3971429Y-5176386D01*
X3971429Y-5176386D02*
X3982857Y-5180195D01*
X3982857Y-5180195D02*
X3986667Y-5184005D01*
X4062857Y-5256386D02*
X4017143Y-5256386D01*
X4040000Y-5256386D02*
X4040000Y-5176386D01*
X4040000Y-5176386D02*
X4032381Y-5187814D01*
X4032381Y-5187814D02*
X4024762Y-5195433D01*
X4024762Y-5195433D02*
X4017143Y-5199243D01*
X3636385Y-5493333D02*
X3598290Y-5520000D01*
X3636385Y-5539048D02*
X3556385Y-5539048D01*
X3556385Y-5539048D02*
X3556385Y-5508571D01*
X3556385Y-5508571D02*
X3560195Y-5500952D01*
X3560195Y-5500952D02*
X3564004Y-5497143D01*
X3564004Y-5497143D02*
X3571624Y-5493333D01*
X3571624Y-5493333D02*
X3583052Y-5493333D01*
X3583052Y-5493333D02*
X3590671Y-5497143D01*
X3590671Y-5497143D02*
X3594481Y-5500952D01*
X3594481Y-5500952D02*
X3598290Y-5508571D01*
X3598290Y-5508571D02*
X3598290Y-5539048D01*
X3583052Y-5424762D02*
X3636385Y-5424762D01*
X3552576Y-5443809D02*
X3609719Y-5462857D01*
X3609719Y-5462857D02*
X3609719Y-5413333D01*
D11*
X4918193Y-5606667D02*
X4899145Y-5620000D01*
X4918193Y-5629524D02*
X4878193Y-5629524D01*
X4878193Y-5629524D02*
X4878193Y-5614286D01*
X4878193Y-5614286D02*
X4880098Y-5610476D01*
X4880098Y-5610476D02*
X4882002Y-5608571D01*
X4882002Y-5608571D02*
X4885812Y-5606667D01*
X4885812Y-5606667D02*
X4891526Y-5606667D01*
X4891526Y-5606667D02*
X4895336Y-5608571D01*
X4895336Y-5608571D02*
X4897240Y-5610476D01*
X4897240Y-5610476D02*
X4899145Y-5614286D01*
X4899145Y-5614286D02*
X4899145Y-5629524D01*
X4895336Y-5583810D02*
X4893431Y-5587619D01*
X4893431Y-5587619D02*
X4891526Y-5589524D01*
X4891526Y-5589524D02*
X4887717Y-5591429D01*
X4887717Y-5591429D02*
X4885812Y-5591429D01*
X4885812Y-5591429D02*
X4882002Y-5589524D01*
X4882002Y-5589524D02*
X4880098Y-5587619D01*
X4880098Y-5587619D02*
X4878193Y-5583810D01*
X4878193Y-5583810D02*
X4878193Y-5576190D01*
X4878193Y-5576190D02*
X4880098Y-5572381D01*
X4880098Y-5572381D02*
X4882002Y-5570476D01*
X4882002Y-5570476D02*
X4885812Y-5568571D01*
X4885812Y-5568571D02*
X4887717Y-5568571D01*
X4887717Y-5568571D02*
X4891526Y-5570476D01*
X4891526Y-5570476D02*
X4893431Y-5572381D01*
X4893431Y-5572381D02*
X4895336Y-5576190D01*
X4895336Y-5576190D02*
X4895336Y-5583810D01*
X4895336Y-5583810D02*
X4897240Y-5587619D01*
X4897240Y-5587619D02*
X4899145Y-5589524D01*
X4899145Y-5589524D02*
X4902955Y-5591429D01*
X4902955Y-5591429D02*
X4910574Y-5591429D01*
X4910574Y-5591429D02*
X4914383Y-5589524D01*
X4914383Y-5589524D02*
X4916288Y-5587619D01*
X4916288Y-5587619D02*
X4918193Y-5583810D01*
X4918193Y-5583810D02*
X4918193Y-5576190D01*
X4918193Y-5576190D02*
X4916288Y-5572381D01*
X4916288Y-5572381D02*
X4914383Y-5570476D01*
X4914383Y-5570476D02*
X4910574Y-5568571D01*
X4910574Y-5568571D02*
X4902955Y-5568571D01*
X4902955Y-5568571D02*
X4899145Y-5570476D01*
X4899145Y-5570476D02*
X4897240Y-5572381D01*
X4897240Y-5572381D02*
X4895336Y-5576190D01*
X4918193Y-5256667D02*
X4899145Y-5270000D01*
X4918193Y-5279524D02*
X4878193Y-5279524D01*
X4878193Y-5279524D02*
X4878193Y-5264286D01*
X4878193Y-5264286D02*
X4880098Y-5260476D01*
X4880098Y-5260476D02*
X4882002Y-5258571D01*
X4882002Y-5258571D02*
X4885812Y-5256667D01*
X4885812Y-5256667D02*
X4891526Y-5256667D01*
X4891526Y-5256667D02*
X4895336Y-5258571D01*
X4895336Y-5258571D02*
X4897240Y-5260476D01*
X4897240Y-5260476D02*
X4899145Y-5264286D01*
X4899145Y-5264286D02*
X4899145Y-5279524D01*
X4878193Y-5243333D02*
X4878193Y-5216667D01*
X4878193Y-5216667D02*
X4918193Y-5233810D01*
X2918193Y-4906667D02*
X2899145Y-4920000D01*
X2918193Y-4929524D02*
X2878193Y-4929524D01*
X2878193Y-4929524D02*
X2878193Y-4914286D01*
X2878193Y-4914286D02*
X2880097Y-4910476D01*
X2880097Y-4910476D02*
X2882002Y-4908571D01*
X2882002Y-4908571D02*
X2885812Y-4906667D01*
X2885812Y-4906667D02*
X2891526Y-4906667D01*
X2891526Y-4906667D02*
X2895336Y-4908571D01*
X2895336Y-4908571D02*
X2897240Y-4910476D01*
X2897240Y-4910476D02*
X2899145Y-4914286D01*
X2899145Y-4914286D02*
X2899145Y-4929524D01*
X2878193Y-4870476D02*
X2878193Y-4889524D01*
X2878193Y-4889524D02*
X2897240Y-4891429D01*
X2897240Y-4891429D02*
X2895336Y-4889524D01*
X2895336Y-4889524D02*
X2893431Y-4885714D01*
X2893431Y-4885714D02*
X2893431Y-4876190D01*
X2893431Y-4876190D02*
X2895336Y-4872381D01*
X2895336Y-4872381D02*
X2897240Y-4870476D01*
X2897240Y-4870476D02*
X2901050Y-4868571D01*
X2901050Y-4868571D02*
X2910574Y-4868571D01*
X2910574Y-4868571D02*
X2914383Y-4870476D01*
X2914383Y-4870476D02*
X2916288Y-4872381D01*
X2916288Y-4872381D02*
X2918193Y-4876190D01*
X2918193Y-4876190D02*
X2918193Y-4885714D01*
X2918193Y-4885714D02*
X2916288Y-4889524D01*
X2916288Y-4889524D02*
X2914383Y-4891429D01*
X3043333Y-6324383D02*
X3041428Y-6326288D01*
X3041428Y-6326288D02*
X3035714Y-6328193D01*
X3035714Y-6328193D02*
X3031905Y-6328193D01*
X3031905Y-6328193D02*
X3026190Y-6326288D01*
X3026190Y-6326288D02*
X3022381Y-6322478D01*
X3022381Y-6322478D02*
X3020476Y-6318669D01*
X3020476Y-6318669D02*
X3018571Y-6311050D01*
X3018571Y-6311050D02*
X3018571Y-6305336D01*
X3018571Y-6305336D02*
X3020476Y-6297716D01*
X3020476Y-6297716D02*
X3022381Y-6293907D01*
X3022381Y-6293907D02*
X3026190Y-6290097D01*
X3026190Y-6290097D02*
X3031905Y-6288193D01*
X3031905Y-6288193D02*
X3035714Y-6288193D01*
X3035714Y-6288193D02*
X3041428Y-6290097D01*
X3041428Y-6290097D02*
X3043333Y-6292002D01*
X3056667Y-6288193D02*
X3081428Y-6288193D01*
X3081428Y-6288193D02*
X3068095Y-6303431D01*
X3068095Y-6303431D02*
X3073809Y-6303431D01*
X3073809Y-6303431D02*
X3077619Y-6305336D01*
X3077619Y-6305336D02*
X3079524Y-6307240D01*
X3079524Y-6307240D02*
X3081428Y-6311050D01*
X3081428Y-6311050D02*
X3081428Y-6320574D01*
X3081428Y-6320574D02*
X3079524Y-6324383D01*
X3079524Y-6324383D02*
X3077619Y-6326288D01*
X3077619Y-6326288D02*
X3073809Y-6328193D01*
X3073809Y-6328193D02*
X3062381Y-6328193D01*
X3062381Y-6328193D02*
X3058571Y-6326288D01*
X3058571Y-6326288D02*
X3056667Y-6324383D01*
X5718193Y-5106667D02*
X5699145Y-5120000D01*
X5718193Y-5129524D02*
X5678193Y-5129524D01*
X5678193Y-5129524D02*
X5678193Y-5114286D01*
X5678193Y-5114286D02*
X5680097Y-5110476D01*
X5680097Y-5110476D02*
X5682002Y-5108571D01*
X5682002Y-5108571D02*
X5685812Y-5106667D01*
X5685812Y-5106667D02*
X5691526Y-5106667D01*
X5691526Y-5106667D02*
X5695336Y-5108571D01*
X5695336Y-5108571D02*
X5697240Y-5110476D01*
X5697240Y-5110476D02*
X5699145Y-5114286D01*
X5699145Y-5114286D02*
X5699145Y-5129524D01*
X5678193Y-5093333D02*
X5678193Y-5068571D01*
X5678193Y-5068571D02*
X5693431Y-5081905D01*
X5693431Y-5081905D02*
X5693431Y-5076190D01*
X5693431Y-5076190D02*
X5695336Y-5072381D01*
X5695336Y-5072381D02*
X5697240Y-5070476D01*
X5697240Y-5070476D02*
X5701050Y-5068571D01*
X5701050Y-5068571D02*
X5710574Y-5068571D01*
X5710574Y-5068571D02*
X5714383Y-5070476D01*
X5714383Y-5070476D02*
X5716288Y-5072381D01*
X5716288Y-5072381D02*
X5718193Y-5076190D01*
X5718193Y-5076190D02*
X5718193Y-5087619D01*
X5718193Y-5087619D02*
X5716288Y-5091429D01*
X5716288Y-5091429D02*
X5714383Y-5093333D01*
D12*
X3854982Y-5686509D02*
X3754982Y-5686509D01*
X3754982Y-5686509D02*
X3754982Y-5662700D01*
X3754982Y-5662700D02*
X3759744Y-5648414D01*
X3759744Y-5648414D02*
X3769268Y-5638890D01*
X3769268Y-5638890D02*
X3778791Y-5634128D01*
X3778791Y-5634128D02*
X3797839Y-5629367D01*
X3797839Y-5629367D02*
X3812125Y-5629367D01*
X3812125Y-5629367D02*
X3831172Y-5634128D01*
X3831172Y-5634128D02*
X3840696Y-5638890D01*
X3840696Y-5638890D02*
X3850220Y-5648414D01*
X3850220Y-5648414D02*
X3854982Y-5662700D01*
X3854982Y-5662700D02*
X3854982Y-5686509D01*
X3764506Y-5591271D02*
X3759744Y-5586509D01*
X3759744Y-5586509D02*
X3754982Y-5576986D01*
X3754982Y-5576986D02*
X3754982Y-5553176D01*
X3754982Y-5553176D02*
X3759744Y-5543652D01*
X3759744Y-5543652D02*
X3764506Y-5538890D01*
X3764506Y-5538890D02*
X3774029Y-5534129D01*
X3774029Y-5534129D02*
X3783553Y-5534129D01*
X3783553Y-5534129D02*
X3797839Y-5538890D01*
X3797839Y-5538890D02*
X3854982Y-5596033D01*
X3854982Y-5596033D02*
X3854982Y-5534129D01*
D13*
X3260736Y-6054857D02*
X3319022Y-6054857D01*
X3319022Y-6054857D02*
X3325879Y-6051428D01*
X3325879Y-6051428D02*
X3329308Y-6048000D01*
X3329308Y-6048000D02*
X3332736Y-6041143D01*
X3332736Y-6041143D02*
X3332736Y-6027428D01*
X3332736Y-6027428D02*
X3329308Y-6020571D01*
X3329308Y-6020571D02*
X3325879Y-6017143D01*
X3325879Y-6017143D02*
X3319022Y-6013714D01*
X3319022Y-6013714D02*
X3260736Y-6013714D01*
X3332736Y-5941714D02*
X3332736Y-5982857D01*
X3332736Y-5962286D02*
X3260736Y-5962286D01*
X3260736Y-5962286D02*
X3271022Y-5969143D01*
X3271022Y-5969143D02*
X3277879Y-5976000D01*
X3277879Y-5976000D02*
X3281308Y-5982857D01*
D10*
X5428766Y-4763333D02*
X5432576Y-4767143D01*
X5432576Y-4767143D02*
X5436386Y-4778571D01*
X5436386Y-4778571D02*
X5436386Y-4786190D01*
X5436386Y-4786190D02*
X5432576Y-4797619D01*
X5432576Y-4797619D02*
X5424957Y-4805238D01*
X5424957Y-4805238D02*
X5417338Y-4809048D01*
X5417338Y-4809048D02*
X5402100Y-4812857D01*
X5402100Y-4812857D02*
X5390671Y-4812857D01*
X5390671Y-4812857D02*
X5375433Y-4809048D01*
X5375433Y-4809048D02*
X5367814Y-4805238D01*
X5367814Y-4805238D02*
X5360195Y-4797619D01*
X5360195Y-4797619D02*
X5356386Y-4786190D01*
X5356386Y-4786190D02*
X5356386Y-4778571D01*
X5356386Y-4778571D02*
X5360195Y-4767143D01*
X5360195Y-4767143D02*
X5364005Y-4763333D01*
X5364005Y-4732857D02*
X5360195Y-4729048D01*
X5360195Y-4729048D02*
X5356386Y-4721429D01*
X5356386Y-4721429D02*
X5356386Y-4702381D01*
X5356386Y-4702381D02*
X5360195Y-4694762D01*
X5360195Y-4694762D02*
X5364005Y-4690952D01*
X5364005Y-4690952D02*
X5371624Y-4687143D01*
X5371624Y-4687143D02*
X5379243Y-4687143D01*
X5379243Y-4687143D02*
X5390671Y-4690952D01*
X5390671Y-4690952D02*
X5436386Y-4736667D01*
X5436386Y-4736667D02*
X5436386Y-4687143D01*
D12*
X6615482Y-6358333D02*
X6686910Y-6358333D01*
X6686910Y-6358333D02*
X6701196Y-6363095D01*
X6701196Y-6363095D02*
X6710720Y-6372619D01*
X6710720Y-6372619D02*
X6715482Y-6386905D01*
X6715482Y-6386905D02*
X6715482Y-6396428D01*
X6625006Y-6315476D02*
X6620244Y-6310714D01*
X6620244Y-6310714D02*
X6615482Y-6301190D01*
X6615482Y-6301190D02*
X6615482Y-6277381D01*
X6615482Y-6277381D02*
X6620244Y-6267857D01*
X6620244Y-6267857D02*
X6625006Y-6263095D01*
X6625006Y-6263095D02*
X6634529Y-6258333D01*
X6634529Y-6258333D02*
X6644053Y-6258333D01*
X6644053Y-6258333D02*
X6658339Y-6263095D01*
X6658339Y-6263095D02*
X6715482Y-6320238D01*
X6715482Y-6320238D02*
X6715482Y-6258333D01*
D10*
X3986667Y-4956386D02*
X3960000Y-4918290D01*
X3940952Y-4956386D02*
X3940952Y-4876386D01*
X3940952Y-4876386D02*
X3971429Y-4876386D01*
X3971429Y-4876386D02*
X3979048Y-4880195D01*
X3979048Y-4880195D02*
X3982857Y-4884005D01*
X3982857Y-4884005D02*
X3986667Y-4891624D01*
X3986667Y-4891624D02*
X3986667Y-4903052D01*
X3986667Y-4903052D02*
X3982857Y-4910671D01*
X3982857Y-4910671D02*
X3979048Y-4914481D01*
X3979048Y-4914481D02*
X3971429Y-4918290D01*
X3971429Y-4918290D02*
X3940952Y-4918290D01*
X4062857Y-4956386D02*
X4017143Y-4956386D01*
X4040000Y-4956386D02*
X4040000Y-4876386D01*
X4040000Y-4876386D02*
X4032381Y-4887814D01*
X4032381Y-4887814D02*
X4024762Y-4895433D01*
X4024762Y-4895433D02*
X4017143Y-4899243D01*
D12*
X3585982Y-5611109D02*
X3485982Y-5611109D01*
X3485982Y-5611109D02*
X3485982Y-5587300D01*
X3485982Y-5587300D02*
X3490744Y-5573014D01*
X3490744Y-5573014D02*
X3500268Y-5563490D01*
X3500268Y-5563490D02*
X3509791Y-5558729D01*
X3509791Y-5558729D02*
X3528839Y-5553967D01*
X3528839Y-5553967D02*
X3543125Y-5553967D01*
X3543125Y-5553967D02*
X3562172Y-5558729D01*
X3562172Y-5558729D02*
X3571696Y-5563490D01*
X3571696Y-5563490D02*
X3581220Y-5573014D01*
X3581220Y-5573014D02*
X3585982Y-5587300D01*
X3585982Y-5587300D02*
X3585982Y-5611109D01*
X3585982Y-5458729D02*
X3585982Y-5515871D01*
X3585982Y-5487300D02*
X3485982Y-5487300D01*
X3485982Y-5487300D02*
X3500268Y-5496824D01*
X3500268Y-5496824D02*
X3509791Y-5506348D01*
X3509791Y-5506348D02*
X3514553Y-5515871D01*
D11*
X2918193Y-5256667D02*
X2899145Y-5270000D01*
X2918193Y-5279524D02*
X2878193Y-5279524D01*
X2878193Y-5279524D02*
X2878193Y-5264286D01*
X2878193Y-5264286D02*
X2880097Y-5260476D01*
X2880097Y-5260476D02*
X2882002Y-5258571D01*
X2882002Y-5258571D02*
X2885812Y-5256667D01*
X2885812Y-5256667D02*
X2891526Y-5256667D01*
X2891526Y-5256667D02*
X2895336Y-5258571D01*
X2895336Y-5258571D02*
X2897240Y-5260476D01*
X2897240Y-5260476D02*
X2899145Y-5264286D01*
X2899145Y-5264286D02*
X2899145Y-5279524D01*
X2878193Y-5222381D02*
X2878193Y-5230000D01*
X2878193Y-5230000D02*
X2880097Y-5233810D01*
X2880097Y-5233810D02*
X2882002Y-5235714D01*
X2882002Y-5235714D02*
X2887716Y-5239524D01*
X2887716Y-5239524D02*
X2895336Y-5241429D01*
X2895336Y-5241429D02*
X2910574Y-5241429D01*
X2910574Y-5241429D02*
X2914383Y-5239524D01*
X2914383Y-5239524D02*
X2916288Y-5237619D01*
X2916288Y-5237619D02*
X2918193Y-5233810D01*
X2918193Y-5233810D02*
X2918193Y-5226190D01*
X2918193Y-5226190D02*
X2916288Y-5222381D01*
X2916288Y-5222381D02*
X2914383Y-5220476D01*
X2914383Y-5220476D02*
X2910574Y-5218571D01*
X2910574Y-5218571D02*
X2901050Y-5218571D01*
X2901050Y-5218571D02*
X2897240Y-5220476D01*
X2897240Y-5220476D02*
X2895336Y-5222381D01*
X2895336Y-5222381D02*
X2893431Y-5226190D01*
X2893431Y-5226190D02*
X2893431Y-5233810D01*
X2893431Y-5233810D02*
X2895336Y-5237619D01*
X2895336Y-5237619D02*
X2897240Y-5239524D01*
X2897240Y-5239524D02*
X2901050Y-5241429D01*
X4423333Y-6434383D02*
X4421429Y-6436288D01*
X4421429Y-6436288D02*
X4415714Y-6438193D01*
X4415714Y-6438193D02*
X4411905Y-6438193D01*
X4411905Y-6438193D02*
X4406190Y-6436288D01*
X4406190Y-6436288D02*
X4402381Y-6432478D01*
X4402381Y-6432478D02*
X4400476Y-6428669D01*
X4400476Y-6428669D02*
X4398571Y-6421050D01*
X4398571Y-6421050D02*
X4398571Y-6415336D01*
X4398571Y-6415336D02*
X4400476Y-6407716D01*
X4400476Y-6407716D02*
X4402381Y-6403907D01*
X4402381Y-6403907D02*
X4406190Y-6400097D01*
X4406190Y-6400097D02*
X4411905Y-6398193D01*
X4411905Y-6398193D02*
X4415714Y-6398193D01*
X4415714Y-6398193D02*
X4421429Y-6400097D01*
X4421429Y-6400097D02*
X4423333Y-6402002D01*
X4459524Y-6398193D02*
X4440476Y-6398193D01*
X4440476Y-6398193D02*
X4438571Y-6417240D01*
X4438571Y-6417240D02*
X4440476Y-6415336D01*
X4440476Y-6415336D02*
X4444286Y-6413431D01*
X4444286Y-6413431D02*
X4453810Y-6413431D01*
X4453810Y-6413431D02*
X4457619Y-6415336D01*
X4457619Y-6415336D02*
X4459524Y-6417240D01*
X4459524Y-6417240D02*
X4461429Y-6421050D01*
X4461429Y-6421050D02*
X4461429Y-6430574D01*
X4461429Y-6430574D02*
X4459524Y-6434383D01*
X4459524Y-6434383D02*
X4457619Y-6436288D01*
X4457619Y-6436288D02*
X4453810Y-6438193D01*
X4453810Y-6438193D02*
X4444286Y-6438193D01*
X4444286Y-6438193D02*
X4440476Y-6436288D01*
X4440476Y-6436288D02*
X4438571Y-6434383D01*
X4014383Y-6086667D02*
X4016288Y-6088571D01*
X4016288Y-6088571D02*
X4018193Y-6094286D01*
X4018193Y-6094286D02*
X4018193Y-6098095D01*
X4018193Y-6098095D02*
X4016288Y-6103809D01*
X4016288Y-6103809D02*
X4012478Y-6107619D01*
X4012478Y-6107619D02*
X4008669Y-6109524D01*
X4008669Y-6109524D02*
X4001050Y-6111428D01*
X4001050Y-6111428D02*
X3995336Y-6111428D01*
X3995336Y-6111428D02*
X3987716Y-6109524D01*
X3987716Y-6109524D02*
X3983907Y-6107619D01*
X3983907Y-6107619D02*
X3980097Y-6103809D01*
X3980097Y-6103809D02*
X3978193Y-6098095D01*
X3978193Y-6098095D02*
X3978193Y-6094286D01*
X3978193Y-6094286D02*
X3980097Y-6088571D01*
X3980097Y-6088571D02*
X3982002Y-6086667D01*
X3991526Y-6052381D02*
X4018193Y-6052381D01*
X3976288Y-6061905D02*
X4004859Y-6071428D01*
X4004859Y-6071428D02*
X4004859Y-6046667D01*
D13*
X4360737Y-6054857D02*
X4419022Y-6054857D01*
X4419022Y-6054857D02*
X4425879Y-6051428D01*
X4425879Y-6051428D02*
X4429308Y-6048000D01*
X4429308Y-6048000D02*
X4432737Y-6041143D01*
X4432737Y-6041143D02*
X4432737Y-6027428D01*
X4432737Y-6027428D02*
X4429308Y-6020571D01*
X4429308Y-6020571D02*
X4425879Y-6017143D01*
X4425879Y-6017143D02*
X4419022Y-6013714D01*
X4419022Y-6013714D02*
X4360737Y-6013714D01*
X4367594Y-5982857D02*
X4364165Y-5979428D01*
X4364165Y-5979428D02*
X4360737Y-5972571D01*
X4360737Y-5972571D02*
X4360737Y-5955428D01*
X4360737Y-5955428D02*
X4364165Y-5948571D01*
X4364165Y-5948571D02*
X4367594Y-5945143D01*
X4367594Y-5945143D02*
X4374451Y-5941714D01*
X4374451Y-5941714D02*
X4381308Y-5941714D01*
X4381308Y-5941714D02*
X4391594Y-5945143D01*
X4391594Y-5945143D02*
X4432737Y-5986286D01*
X4432737Y-5986286D02*
X4432737Y-5941714D01*
D11*
X5718193Y-4756667D02*
X5699145Y-4770000D01*
X5718193Y-4779524D02*
X5678193Y-4779524D01*
X5678193Y-4779524D02*
X5678193Y-4764286D01*
X5678193Y-4764286D02*
X5680097Y-4760476D01*
X5680097Y-4760476D02*
X5682002Y-4758571D01*
X5682002Y-4758571D02*
X5685812Y-4756667D01*
X5685812Y-4756667D02*
X5691526Y-4756667D01*
X5691526Y-4756667D02*
X5695336Y-4758571D01*
X5695336Y-4758571D02*
X5697240Y-4760476D01*
X5697240Y-4760476D02*
X5699145Y-4764286D01*
X5699145Y-4764286D02*
X5699145Y-4779524D01*
X5682002Y-4741429D02*
X5680097Y-4739524D01*
X5680097Y-4739524D02*
X5678193Y-4735714D01*
X5678193Y-4735714D02*
X5678193Y-4726190D01*
X5678193Y-4726190D02*
X5680097Y-4722381D01*
X5680097Y-4722381D02*
X5682002Y-4720476D01*
X5682002Y-4720476D02*
X5685812Y-4718571D01*
X5685812Y-4718571D02*
X5689621Y-4718571D01*
X5689621Y-4718571D02*
X5695336Y-4720476D01*
X5695336Y-4720476D02*
X5718193Y-4743333D01*
X5718193Y-4743333D02*
X5718193Y-4718571D01*
D12*
X3795482Y-6876190D02*
X3876434Y-6876190D01*
X3876434Y-6876190D02*
X3885958Y-6871428D01*
X3885958Y-6871428D02*
X3890720Y-6866667D01*
X3890720Y-6866667D02*
X3895482Y-6857143D01*
X3895482Y-6857143D02*
X3895482Y-6838095D01*
X3895482Y-6838095D02*
X3890720Y-6828571D01*
X3890720Y-6828571D02*
X3885958Y-6823809D01*
X3885958Y-6823809D02*
X3876434Y-6819048D01*
X3876434Y-6819048D02*
X3795482Y-6819048D01*
X3795482Y-6780952D02*
X3795482Y-6719048D01*
X3795482Y-6719048D02*
X3833577Y-6752381D01*
X3833577Y-6752381D02*
X3833577Y-6738095D01*
X3833577Y-6738095D02*
X3838339Y-6728571D01*
X3838339Y-6728571D02*
X3843101Y-6723809D01*
X3843101Y-6723809D02*
X3852625Y-6719048D01*
X3852625Y-6719048D02*
X3876434Y-6719048D01*
X3876434Y-6719048D02*
X3885958Y-6723809D01*
X3885958Y-6723809D02*
X3890720Y-6728571D01*
X3890720Y-6728571D02*
X3895482Y-6738095D01*
X3895482Y-6738095D02*
X3895482Y-6766667D01*
X3895482Y-6766667D02*
X3890720Y-6776190D01*
X3890720Y-6776190D02*
X3885958Y-6780952D01*
%TO.C,C1*%
D14*
X3840000Y-5140000D02*
X4160000Y-5140000D01*
X4160000Y-5300000D01*
X3840000Y-5300000D01*
X3840000Y-5140000D01*
%TO.C,R4*%
X3520000Y-5320000D02*
X3680000Y-5320000D01*
X3680000Y-5640000D01*
X3520000Y-5640000D01*
X3520000Y-5320000D01*
%TO.C,R8*%
X4858750Y-5520000D02*
X4941250Y-5520000D01*
X4941250Y-5680000D01*
X4858750Y-5680000D01*
X4858750Y-5520000D01*
%TO.C,R7*%
X4858750Y-5170000D02*
X4941250Y-5170000D01*
X4941250Y-5330000D01*
X4858750Y-5330000D01*
X4858750Y-5170000D01*
%TO.C,R5*%
X2858750Y-4820000D02*
X2941250Y-4820000D01*
X2941250Y-4980000D01*
X2858750Y-4980000D01*
X2858750Y-4820000D01*
%TO.C,C3*%
X2970000Y-6270000D02*
X3130000Y-6270000D01*
X3130000Y-6350000D01*
X2970000Y-6350000D01*
X2970000Y-6270000D01*
%TO.C,R3*%
X5658750Y-5020000D02*
X5741250Y-5020000D01*
X5741250Y-5180000D01*
X5658750Y-5180000D01*
X5658750Y-5020000D01*
%TO.C,D2*%
X3910000Y-5460000D02*
X4090000Y-5460000D01*
X3910000Y-5740000D02*
X3910000Y-5460000D01*
X3960000Y-5575000D02*
X4040000Y-5575000D01*
X4000000Y-5575000D02*
X4000000Y-5525000D01*
X4000000Y-5635000D02*
X3945000Y-5635000D01*
X4000000Y-5635000D02*
X3960000Y-5575000D01*
X4000000Y-5635000D02*
X4055000Y-5635000D01*
X4000000Y-5675000D02*
X4000000Y-5635000D01*
X4040000Y-5575000D02*
X4000000Y-5635000D01*
X4090000Y-5460000D02*
X4090000Y-5740000D01*
X4090000Y-5740000D02*
X3910000Y-5740000D01*
%TO.C,U1*%
X3340000Y-6145000D02*
X3220000Y-6145000D01*
X3220000Y-5855000D01*
X3380000Y-5855000D01*
X3380000Y-6105000D01*
X3340000Y-6145000D01*
%TO.C,C2*%
X5320000Y-4590000D02*
X5480000Y-4590000D01*
X5480000Y-4910000D01*
X5320000Y-4910000D01*
X5320000Y-4590000D01*
%TO.C,J2*%
X6165000Y-6762500D02*
X6265000Y-6700000D01*
X6265000Y-6700000D02*
X6165000Y-6637500D01*
X6165000Y-5705000D02*
X6740000Y-5705000D01*
X6740000Y-6945000D01*
X6165000Y-6945000D01*
X6165000Y-5705000D01*
%TO.C,R1*%
X3840000Y-4840000D02*
X4160000Y-4840000D01*
X4160000Y-5000000D01*
X3840000Y-5000000D01*
X3840000Y-4840000D01*
%TO.C,T1*%
X2850000Y-1600000D02*
X5150000Y-1600000D01*
X5150000Y-4600000D01*
X2850000Y-4600000D01*
X2850000Y-1600000D01*
%TO.C,D1*%
X3260000Y-5410000D02*
X3440000Y-5410000D01*
X3260000Y-5690000D02*
X3260000Y-5410000D01*
X3310000Y-5575000D02*
X3350000Y-5515000D01*
X3350000Y-5475000D02*
X3350000Y-5515000D01*
X3350000Y-5515000D02*
X3295000Y-5515000D01*
X3350000Y-5515000D02*
X3390000Y-5575000D01*
X3350000Y-5515000D02*
X3405000Y-5515000D01*
X3350000Y-5575000D02*
X3350000Y-5625000D01*
X3390000Y-5575000D02*
X3310000Y-5575000D01*
X3440000Y-5410000D02*
X3440000Y-5690000D01*
X3440000Y-5690000D02*
X3260000Y-5690000D01*
%TO.C,R6*%
X2858750Y-5170000D02*
X2941250Y-5170000D01*
X2941250Y-5330000D01*
X2858750Y-5330000D01*
X2858750Y-5170000D01*
%TO.C,C5*%
X4350000Y-6380000D02*
X4510000Y-6380000D01*
X4510000Y-6460000D01*
X4350000Y-6460000D01*
X4350000Y-6380000D01*
%TO.C,C4*%
X3960000Y-6000000D02*
X4040000Y-6000000D01*
X4040000Y-6160000D01*
X3960000Y-6160000D01*
X3960000Y-6000000D01*
%TO.C,U2*%
X4440000Y-6145000D02*
X4320000Y-6145000D01*
X4320000Y-5855000D01*
X4480000Y-5855000D01*
X4480000Y-6105000D01*
X4440000Y-6145000D01*
%TO.C,R2*%
X5658750Y-4670000D02*
X5741250Y-4670000D01*
X5741250Y-4830000D01*
X5658750Y-4830000D01*
X5658750Y-4670000D01*
%TO.C,U3*%
X3752500Y-6367500D02*
X4045000Y-6367500D01*
X4045000Y-7232500D01*
X3655000Y-7232500D01*
X3655000Y-6465000D01*
X3752500Y-6367500D01*
%TD*%
M02*
