%TF.GenerationSoftware,KiCad,Pcbnew,10.0.4*%
%TF.CreationDate,2026-09-24T00:17:52-06:00*%
%TF.ProjectId,section,73656374-696f-46e2-9e6b-696361645f70,rev?*%
%TF.SameCoordinates,Original*%
%TF.FileFunction,Legend,Top*%
%TF.FilePolarity,Positive*%
%FSLAX45Y45*%
G04 Gerber Fmt 4.5, Leading zero omitted, Abs format (unit mm)*
G04 Created by KiCad (PCBNEW 10.0.4) date 2026-09-24 00:17:52*
%MOMM*%
%LPD*%
G01*
G04 APERTURE LIST*
G04 Aperture macros list*
%AMRoundRect*
0 Rectangle with rounded corners*
0 $1 Rounding radius*
0 $2 $3 $4 $5 $6 $7 $8 $9 X,Y pos of 4 corners*
0 Add a 4 corners polygon primitive as box body*
4,1,4,$2,$3,$4,$5,$6,$7,$8,$9,$2,$3,0*
0 Add four circle primitives for the rounded corners*
1,1,$1+$1,$2,$3*
1,1,$1+$1,$4,$5*
1,1,$1+$1,$6,$7*
1,1,$1+$1,$8,$9*
0 Add four rect primitives between the rounded corners*
20,1,$1+$1,$2,$3,$4,$5,0*
20,1,$1+$1,$4,$5,$6,$7,0*
20,1,$1+$1,$6,$7,$8,$9,0*
20,1,$1+$1,$8,$9,$2,$3,0*%
G04 Aperture macros list end*
%ADD10C,0.150000*%
%ADD11C,0.120000*%
%ADD12C,0.450000*%
%ADD13RoundRect,0.250000X-0.325000X-0.650000X0.325000X-0.650000X0.325000X0.650000X-0.325000X0.650000X0*%
%ADD14RoundRect,0.250000X-0.625000X0.312500X-0.625000X-0.312500X0.625000X-0.312500X0.625000X0.312500X0*%
%ADD15RoundRect,0.200000X-0.275000X0.200000X-0.275000X-0.200000X0.275000X-0.200000X0.275000X0.200000X0*%
%ADD16RoundRect,0.225000X0.225000X0.250000X-0.225000X0.250000X-0.225000X-0.250000X0.225000X-0.250000X0*%
%ADD17C,15.000000*%
%ADD18RoundRect,0.250000X0.300000X-0.300000X0.300000X0.300000X-0.300000X0.300000X-0.300000X-0.300000X0*%
%ADD19RoundRect,0.150000X0.512500X0.150000X-0.512500X0.150000X-0.512500X-0.150000X0.512500X-0.150000X0*%
%ADD20RoundRect,0.250000X0.650000X-0.325000X0.650000X0.325000X-0.650000X0.325000X-0.650000X-0.325000X0*%
%ADD21RoundRect,0.250000X0.725000X-0.600000X0.725000X0.600000X-0.725000X0.600000X-0.725000X-0.600000X0*%
%ADD22O,1.950000X1.700000*%
%ADD23RoundRect,0.250000X-0.312500X-0.625000X0.312500X-0.625000X0.312500X0.625000X-0.312500X0.625000X0*%
%ADD24R,4.800000X9.000000*%
%ADD25R,3.000000X4.600000*%
%ADD26RoundRect,0.250000X-0.300000X0.300000X-0.300000X-0.300000X0.300000X-0.300000X0.300000X0.300000X0*%
%ADD27RoundRect,0.225000X-0.225000X-0.250000X0.225000X-0.250000X0.225000X0.250000X-0.225000X0.250000X0*%
%ADD28RoundRect,0.225000X0.250000X-0.225000X0.250000X0.225000X-0.250000X0.225000X-0.250000X-0.225000X0*%
%ADD29RoundRect,0.150000X-0.825000X-0.150000X0.825000X-0.150000X0.825000X0.150000X-0.825000X0.150000X0*%
G04 APERTURE END LIST*
D10*
X6861905Y-5995482D02*
X6861905Y-5895482D01*
X6861905Y-5895482D02*
X6895238Y-5966910D01*
X6895238Y-5966910D02*
X6928571Y-5895482D01*
X6928571Y-5895482D02*
X6928571Y-5995482D01*
X6995238Y-5895482D02*
X7014286Y-5895482D01*
X7014286Y-5895482D02*
X7023809Y-5900244D01*
X7023809Y-5900244D02*
X7033333Y-5909768D01*
X7033333Y-5909768D02*
X7038095Y-5928815D01*
X7038095Y-5928815D02*
X7038095Y-5962148D01*
X7038095Y-5962148D02*
X7033333Y-5981196D01*
X7033333Y-5981196D02*
X7023809Y-5990720D01*
X7023809Y-5990720D02*
X7014286Y-5995482D01*
X7014286Y-5995482D02*
X6995238Y-5995482D01*
X6995238Y-5995482D02*
X6985714Y-5990720D01*
X6985714Y-5990720D02*
X6976190Y-5981196D01*
X6976190Y-5981196D02*
X6971429Y-5962148D01*
X6971429Y-5962148D02*
X6971429Y-5928815D01*
X6971429Y-5928815D02*
X6976190Y-5909768D01*
X6976190Y-5909768D02*
X6985714Y-5900244D01*
X6985714Y-5900244D02*
X6995238Y-5895482D01*
X7080952Y-5995482D02*
X7080952Y-5895482D01*
X7080952Y-5895482D02*
X7138095Y-5995482D01*
X7138095Y-5995482D02*
X7138095Y-5895482D01*
X6840476Y-6193101D02*
X6807143Y-6193101D01*
X6807143Y-6245482D02*
X6807143Y-6145482D01*
X6807143Y-6145482D02*
X6854762Y-6145482D01*
X6888095Y-6216910D02*
X6935714Y-6216910D01*
X6878571Y-6245482D02*
X6911905Y-6145482D01*
X6911905Y-6145482D02*
X6945238Y-6245482D01*
X6978571Y-6145482D02*
X6978571Y-6226434D01*
X6978571Y-6226434D02*
X6983333Y-6235958D01*
X6983333Y-6235958D02*
X6988095Y-6240720D01*
X6988095Y-6240720D02*
X6997619Y-6245482D01*
X6997619Y-6245482D02*
X7016667Y-6245482D01*
X7016667Y-6245482D02*
X7026190Y-6240720D01*
X7026190Y-6240720D02*
X7030952Y-6235958D01*
X7030952Y-6235958D02*
X7035714Y-6226434D01*
X7035714Y-6226434D02*
X7035714Y-6145482D01*
X7130952Y-6245482D02*
X7083333Y-6245482D01*
X7083333Y-6245482D02*
X7083333Y-6145482D01*
X7150000Y-6145482D02*
X7207143Y-6145482D01*
X7178571Y-6245482D02*
X7178571Y-6145482D01*
X6923809Y-6400244D02*
X6914286Y-6395482D01*
X6914286Y-6395482D02*
X6900000Y-6395482D01*
X6900000Y-6395482D02*
X6885714Y-6400244D01*
X6885714Y-6400244D02*
X6876190Y-6409768D01*
X6876190Y-6409768D02*
X6871429Y-6419291D01*
X6871429Y-6419291D02*
X6866667Y-6438339D01*
X6866667Y-6438339D02*
X6866667Y-6452625D01*
X6866667Y-6452625D02*
X6871429Y-6471672D01*
X6871429Y-6471672D02*
X6876190Y-6481196D01*
X6876190Y-6481196D02*
X6885714Y-6490720D01*
X6885714Y-6490720D02*
X6900000Y-6495482D01*
X6900000Y-6495482D02*
X6909524Y-6495482D01*
X6909524Y-6495482D02*
X6923809Y-6490720D01*
X6923809Y-6490720D02*
X6928571Y-6485958D01*
X6928571Y-6485958D02*
X6928571Y-6452625D01*
X6928571Y-6452625D02*
X6909524Y-6452625D01*
X6971429Y-6495482D02*
X6971429Y-6395482D01*
X6971429Y-6395482D02*
X7028571Y-6495482D01*
X7028571Y-6495482D02*
X7028571Y-6395482D01*
X7076190Y-6495482D02*
X7076190Y-6395482D01*
X7076190Y-6395482D02*
X7100000Y-6395482D01*
X7100000Y-6395482D02*
X7114286Y-6400244D01*
X7114286Y-6400244D02*
X7123809Y-6409768D01*
X7123809Y-6409768D02*
X7128571Y-6419291D01*
X7128571Y-6419291D02*
X7133333Y-6438339D01*
X7133333Y-6438339D02*
X7133333Y-6452625D01*
X7133333Y-6452625D02*
X7128571Y-6471672D01*
X7128571Y-6471672D02*
X7123809Y-6481196D01*
X7123809Y-6481196D02*
X7114286Y-6490720D01*
X7114286Y-6490720D02*
X7100000Y-6495482D01*
X7100000Y-6495482D02*
X7076190Y-6495482D01*
X6876190Y-6645482D02*
X6938095Y-6645482D01*
X6938095Y-6645482D02*
X6904762Y-6683577D01*
X6904762Y-6683577D02*
X6919048Y-6683577D01*
X6919048Y-6683577D02*
X6928571Y-6688339D01*
X6928571Y-6688339D02*
X6933333Y-6693101D01*
X6933333Y-6693101D02*
X6938095Y-6702625D01*
X6938095Y-6702625D02*
X6938095Y-6726434D01*
X6938095Y-6726434D02*
X6933333Y-6735958D01*
X6933333Y-6735958D02*
X6928571Y-6740720D01*
X6928571Y-6740720D02*
X6919048Y-6745482D01*
X6919048Y-6745482D02*
X6890476Y-6745482D01*
X6890476Y-6745482D02*
X6880952Y-6740720D01*
X6880952Y-6740720D02*
X6876190Y-6735958D01*
X6966667Y-6645482D02*
X7000000Y-6745482D01*
X7000000Y-6745482D02*
X7033333Y-6645482D01*
X7057143Y-6645482D02*
X7119048Y-6645482D01*
X7119048Y-6645482D02*
X7085714Y-6683577D01*
X7085714Y-6683577D02*
X7100000Y-6683577D01*
X7100000Y-6683577D02*
X7109524Y-6688339D01*
X7109524Y-6688339D02*
X7114286Y-6693101D01*
X7114286Y-6693101D02*
X7119048Y-6702625D01*
X7119048Y-6702625D02*
X7119048Y-6726434D01*
X7119048Y-6726434D02*
X7114286Y-6735958D01*
X7114286Y-6735958D02*
X7109524Y-6740720D01*
X7109524Y-6740720D02*
X7100000Y-6745482D01*
X7100000Y-6745482D02*
X7071429Y-6745482D01*
X7071429Y-6745482D02*
X7061905Y-6740720D01*
X7061905Y-6740720D02*
X7057143Y-6735958D01*
X1048571Y-3254734D02*
X1048571Y-3134734D01*
X1048571Y-3134734D02*
X1094286Y-3134734D01*
X1094286Y-3134734D02*
X1105714Y-3140448D01*
X1105714Y-3140448D02*
X1111429Y-3146163D01*
X1111429Y-3146163D02*
X1117143Y-3157591D01*
X1117143Y-3157591D02*
X1117143Y-3174734D01*
X1117143Y-3174734D02*
X1111429Y-3186163D01*
X1111429Y-3186163D02*
X1105714Y-3191877D01*
X1105714Y-3191877D02*
X1094286Y-3197591D01*
X1094286Y-3197591D02*
X1048571Y-3197591D01*
X1237143Y-3254734D02*
X1197143Y-3197591D01*
X1168571Y-3254734D02*
X1168571Y-3134734D01*
X1168571Y-3134734D02*
X1214286Y-3134734D01*
X1214286Y-3134734D02*
X1225714Y-3140448D01*
X1225714Y-3140448D02*
X1231429Y-3146163D01*
X1231429Y-3146163D02*
X1237143Y-3157591D01*
X1237143Y-3157591D02*
X1237143Y-3174734D01*
X1237143Y-3174734D02*
X1231429Y-3186163D01*
X1231429Y-3186163D02*
X1225714Y-3191877D01*
X1225714Y-3191877D02*
X1214286Y-3197591D01*
X1214286Y-3197591D02*
X1168571Y-3197591D01*
X1288571Y-3254734D02*
X1288571Y-3134734D01*
X1345714Y-3254734D02*
X1345714Y-3134734D01*
X1345714Y-3134734D02*
X1385714Y-3220448D01*
X1385714Y-3220448D02*
X1425714Y-3134734D01*
X1425714Y-3134734D02*
X1425714Y-3254734D01*
X1477143Y-3220448D02*
X1534286Y-3220448D01*
X1465714Y-3254734D02*
X1505714Y-3134734D01*
X1505714Y-3134734D02*
X1545714Y-3254734D01*
X1654286Y-3254734D02*
X1614286Y-3197591D01*
X1585714Y-3254734D02*
X1585714Y-3134734D01*
X1585714Y-3134734D02*
X1631429Y-3134734D01*
X1631429Y-3134734D02*
X1642857Y-3140448D01*
X1642857Y-3140448D02*
X1648571Y-3146163D01*
X1648571Y-3146163D02*
X1654286Y-3157591D01*
X1654286Y-3157591D02*
X1654286Y-3174734D01*
X1654286Y-3174734D02*
X1648571Y-3186163D01*
X1648571Y-3186163D02*
X1642857Y-3191877D01*
X1642857Y-3191877D02*
X1631429Y-3197591D01*
X1631429Y-3197591D02*
X1585714Y-3197591D01*
X1728571Y-3197591D02*
X1728571Y-3254734D01*
X1688571Y-3134734D02*
X1728571Y-3197591D01*
X1728571Y-3197591D02*
X1768571Y-3134734D01*
X874286Y-4254734D02*
X874286Y-4134734D01*
X925714Y-4249020D02*
X942857Y-4254734D01*
X942857Y-4254734D02*
X971429Y-4254734D01*
X971429Y-4254734D02*
X982857Y-4249020D01*
X982857Y-4249020D02*
X988571Y-4243306D01*
X988571Y-4243306D02*
X994286Y-4231877D01*
X994286Y-4231877D02*
X994286Y-4220449D01*
X994286Y-4220449D02*
X988571Y-4209020D01*
X988571Y-4209020D02*
X982857Y-4203306D01*
X982857Y-4203306D02*
X971429Y-4197591D01*
X971429Y-4197591D02*
X948571Y-4191877D01*
X948571Y-4191877D02*
X937143Y-4186163D01*
X937143Y-4186163D02*
X931429Y-4180448D01*
X931429Y-4180448D02*
X925714Y-4169020D01*
X925714Y-4169020D02*
X925714Y-4157591D01*
X925714Y-4157591D02*
X931429Y-4146163D01*
X931429Y-4146163D02*
X937143Y-4140448D01*
X937143Y-4140448D02*
X948571Y-4134734D01*
X948571Y-4134734D02*
X977143Y-4134734D01*
X977143Y-4134734D02*
X994286Y-4140448D01*
X1068571Y-4134734D02*
X1091429Y-4134734D01*
X1091429Y-4134734D02*
X1102857Y-4140448D01*
X1102857Y-4140448D02*
X1114286Y-4151877D01*
X1114286Y-4151877D02*
X1120000Y-4174734D01*
X1120000Y-4174734D02*
X1120000Y-4214734D01*
X1120000Y-4214734D02*
X1114286Y-4237591D01*
X1114286Y-4237591D02*
X1102857Y-4249020D01*
X1102857Y-4249020D02*
X1091429Y-4254734D01*
X1091429Y-4254734D02*
X1068571Y-4254734D01*
X1068571Y-4254734D02*
X1057143Y-4249020D01*
X1057143Y-4249020D02*
X1045714Y-4237591D01*
X1045714Y-4237591D02*
X1040000Y-4214734D01*
X1040000Y-4214734D02*
X1040000Y-4174734D01*
X1040000Y-4174734D02*
X1045714Y-4151877D01*
X1045714Y-4151877D02*
X1057143Y-4140448D01*
X1057143Y-4140448D02*
X1068571Y-4134734D01*
X1228571Y-4254734D02*
X1171429Y-4254734D01*
X1171429Y-4254734D02*
X1171429Y-4134734D01*
X1262857Y-4220449D02*
X1320000Y-4220449D01*
X1251429Y-4254734D02*
X1291429Y-4134734D01*
X1291429Y-4134734D02*
X1331429Y-4254734D01*
X1354286Y-4134734D02*
X1422857Y-4134734D01*
X1388571Y-4254734D02*
X1388571Y-4134734D01*
X1462857Y-4191877D02*
X1502857Y-4191877D01*
X1520000Y-4254734D02*
X1462857Y-4254734D01*
X1462857Y-4254734D02*
X1462857Y-4134734D01*
X1462857Y-4134734D02*
X1520000Y-4134734D01*
X1571429Y-4254734D02*
X1571429Y-4134734D01*
X1571429Y-4134734D02*
X1600000Y-4134734D01*
X1600000Y-4134734D02*
X1617143Y-4140448D01*
X1617143Y-4140448D02*
X1628571Y-4151877D01*
X1628571Y-4151877D02*
X1634286Y-4163306D01*
X1634286Y-4163306D02*
X1640000Y-4186163D01*
X1640000Y-4186163D02*
X1640000Y-4203306D01*
X1640000Y-4203306D02*
X1634286Y-4226163D01*
X1634286Y-4226163D02*
X1628571Y-4237591D01*
X1628571Y-4237591D02*
X1617143Y-4249020D01*
X1617143Y-4249020D02*
X1600000Y-4254734D01*
X1600000Y-4254734D02*
X1571429Y-4254734D01*
X1840000Y-4254734D02*
X1782857Y-4254734D01*
X1782857Y-4254734D02*
X1782857Y-4134734D01*
X1862857Y-4134734D02*
X1902857Y-4254734D01*
X1902857Y-4254734D02*
X1942857Y-4134734D01*
X652143Y-1053170D02*
X670714Y-1059360D01*
X670714Y-1059360D02*
X701667Y-1059360D01*
X701667Y-1059360D02*
X714048Y-1053170D01*
X714048Y-1053170D02*
X720238Y-1046979D01*
X720238Y-1046979D02*
X726429Y-1034598D01*
X726429Y-1034598D02*
X726429Y-1022218D01*
X726429Y-1022218D02*
X720238Y-1009837D01*
X720238Y-1009837D02*
X714048Y-1003646D01*
X714048Y-1003646D02*
X701667Y-997456D01*
X701667Y-997456D02*
X676905Y-991265D01*
X676905Y-991265D02*
X664524Y-985075D01*
X664524Y-985075D02*
X658333Y-978884D01*
X658333Y-978884D02*
X652143Y-966503D01*
X652143Y-966503D02*
X652143Y-954122D01*
X652143Y-954122D02*
X658333Y-941741D01*
X658333Y-941741D02*
X664524Y-935551D01*
X664524Y-935551D02*
X676905Y-929360D01*
X676905Y-929360D02*
X707857Y-929360D01*
X707857Y-929360D02*
X726429Y-935551D01*
X782143Y-991265D02*
X825476Y-991265D01*
X844048Y-1059360D02*
X782143Y-1059360D01*
X782143Y-1059360D02*
X782143Y-929360D01*
X782143Y-929360D02*
X844048Y-929360D01*
X974047Y-1059360D02*
X930714Y-997456D01*
X899762Y-1059360D02*
X899762Y-929360D01*
X899762Y-929360D02*
X949286Y-929360D01*
X949286Y-929360D02*
X961667Y-935551D01*
X961667Y-935551D02*
X967857Y-941741D01*
X967857Y-941741D02*
X974047Y-954122D01*
X974047Y-954122D02*
X974047Y-972694D01*
X974047Y-972694D02*
X967857Y-985075D01*
X967857Y-985075D02*
X961667Y-991265D01*
X961667Y-991265D02*
X949286Y-997456D01*
X949286Y-997456D02*
X899762Y-997456D01*
X1029762Y-1059360D02*
X1029762Y-929360D01*
X1091667Y-991265D02*
X1135000Y-991265D01*
X1153571Y-1059360D02*
X1091667Y-1059360D01*
X1091667Y-1059360D02*
X1091667Y-929360D01*
X1091667Y-929360D02*
X1153571Y-929360D01*
X1203095Y-1053170D02*
X1221667Y-1059360D01*
X1221667Y-1059360D02*
X1252619Y-1059360D01*
X1252619Y-1059360D02*
X1265000Y-1053170D01*
X1265000Y-1053170D02*
X1271190Y-1046979D01*
X1271190Y-1046979D02*
X1277381Y-1034598D01*
X1277381Y-1034598D02*
X1277381Y-1022218D01*
X1277381Y-1022218D02*
X1271190Y-1009837D01*
X1271190Y-1009837D02*
X1265000Y-1003646D01*
X1265000Y-1003646D02*
X1252619Y-997456D01*
X1252619Y-997456D02*
X1227857Y-991265D01*
X1227857Y-991265D02*
X1215476Y-985075D01*
X1215476Y-985075D02*
X1209286Y-978884D01*
X1209286Y-978884D02*
X1203095Y-966503D01*
X1203095Y-966503D02*
X1203095Y-954122D01*
X1203095Y-954122D02*
X1209286Y-941741D01*
X1209286Y-941741D02*
X1215476Y-935551D01*
X1215476Y-935551D02*
X1227857Y-929360D01*
X1227857Y-929360D02*
X1258809Y-929360D01*
X1258809Y-929360D02*
X1277381Y-935551D01*
X1456905Y-929360D02*
X1481666Y-929360D01*
X1481666Y-929360D02*
X1494047Y-935551D01*
X1494047Y-935551D02*
X1506428Y-947932D01*
X1506428Y-947932D02*
X1512619Y-972694D01*
X1512619Y-972694D02*
X1512619Y-1016027D01*
X1512619Y-1016027D02*
X1506428Y-1040789D01*
X1506428Y-1040789D02*
X1494047Y-1053170D01*
X1494047Y-1053170D02*
X1481666Y-1059360D01*
X1481666Y-1059360D02*
X1456905Y-1059360D01*
X1456905Y-1059360D02*
X1444524Y-1053170D01*
X1444524Y-1053170D02*
X1432143Y-1040789D01*
X1432143Y-1040789D02*
X1425952Y-1016027D01*
X1425952Y-1016027D02*
X1425952Y-972694D01*
X1425952Y-972694D02*
X1432143Y-947932D01*
X1432143Y-947932D02*
X1444524Y-935551D01*
X1444524Y-935551D02*
X1456905Y-929360D01*
X1568333Y-929360D02*
X1568333Y-1034598D01*
X1568333Y-1034598D02*
X1574524Y-1046979D01*
X1574524Y-1046979D02*
X1580714Y-1053170D01*
X1580714Y-1053170D02*
X1593095Y-1059360D01*
X1593095Y-1059360D02*
X1617857Y-1059360D01*
X1617857Y-1059360D02*
X1630238Y-1053170D01*
X1630238Y-1053170D02*
X1636428Y-1046979D01*
X1636428Y-1046979D02*
X1642619Y-1034598D01*
X1642619Y-1034598D02*
X1642619Y-929360D01*
X1685952Y-929360D02*
X1760238Y-929360D01*
X1723095Y-1059360D02*
X1723095Y-929360D01*
X6438810Y-1053170D02*
X6457381Y-1059360D01*
X6457381Y-1059360D02*
X6488333Y-1059360D01*
X6488333Y-1059360D02*
X6500714Y-1053170D01*
X6500714Y-1053170D02*
X6506905Y-1046979D01*
X6506905Y-1046979D02*
X6513095Y-1034598D01*
X6513095Y-1034598D02*
X6513095Y-1022218D01*
X6513095Y-1022218D02*
X6506905Y-1009837D01*
X6506905Y-1009837D02*
X6500714Y-1003646D01*
X6500714Y-1003646D02*
X6488333Y-997456D01*
X6488333Y-997456D02*
X6463571Y-991265D01*
X6463571Y-991265D02*
X6451190Y-985075D01*
X6451190Y-985075D02*
X6445000Y-978884D01*
X6445000Y-978884D02*
X6438810Y-966503D01*
X6438810Y-966503D02*
X6438810Y-954122D01*
X6438810Y-954122D02*
X6445000Y-941741D01*
X6445000Y-941741D02*
X6451190Y-935551D01*
X6451190Y-935551D02*
X6463571Y-929360D01*
X6463571Y-929360D02*
X6494524Y-929360D01*
X6494524Y-929360D02*
X6513095Y-935551D01*
X6568809Y-991265D02*
X6612143Y-991265D01*
X6630714Y-1059360D02*
X6568809Y-1059360D01*
X6568809Y-1059360D02*
X6568809Y-929360D01*
X6568809Y-929360D02*
X6630714Y-929360D01*
X6760714Y-1059360D02*
X6717381Y-997456D01*
X6686428Y-1059360D02*
X6686428Y-929360D01*
X6686428Y-929360D02*
X6735952Y-929360D01*
X6735952Y-929360D02*
X6748333Y-935551D01*
X6748333Y-935551D02*
X6754524Y-941741D01*
X6754524Y-941741D02*
X6760714Y-954122D01*
X6760714Y-954122D02*
X6760714Y-972694D01*
X6760714Y-972694D02*
X6754524Y-985075D01*
X6754524Y-985075D02*
X6748333Y-991265D01*
X6748333Y-991265D02*
X6735952Y-997456D01*
X6735952Y-997456D02*
X6686428Y-997456D01*
X6816428Y-1059360D02*
X6816428Y-929360D01*
X6878333Y-991265D02*
X6921667Y-991265D01*
X6940238Y-1059360D02*
X6878333Y-1059360D01*
X6878333Y-1059360D02*
X6878333Y-929360D01*
X6878333Y-929360D02*
X6940238Y-929360D01*
X6989762Y-1053170D02*
X7008333Y-1059360D01*
X7008333Y-1059360D02*
X7039286Y-1059360D01*
X7039286Y-1059360D02*
X7051667Y-1053170D01*
X7051667Y-1053170D02*
X7057857Y-1046979D01*
X7057857Y-1046979D02*
X7064048Y-1034598D01*
X7064048Y-1034598D02*
X7064048Y-1022218D01*
X7064048Y-1022218D02*
X7057857Y-1009837D01*
X7057857Y-1009837D02*
X7051667Y-1003646D01*
X7051667Y-1003646D02*
X7039286Y-997456D01*
X7039286Y-997456D02*
X7014524Y-991265D01*
X7014524Y-991265D02*
X7002143Y-985075D01*
X7002143Y-985075D02*
X6995952Y-978884D01*
X6995952Y-978884D02*
X6989762Y-966503D01*
X6989762Y-966503D02*
X6989762Y-954122D01*
X6989762Y-954122D02*
X6995952Y-941741D01*
X6995952Y-941741D02*
X7002143Y-935551D01*
X7002143Y-935551D02*
X7014524Y-929360D01*
X7014524Y-929360D02*
X7045476Y-929360D01*
X7045476Y-929360D02*
X7064048Y-935551D01*
X7218809Y-1059360D02*
X7218809Y-929360D01*
X7280714Y-1059360D02*
X7280714Y-929360D01*
X7280714Y-929360D02*
X7355000Y-1059360D01*
X7355000Y-1059360D02*
X7355000Y-929360D01*
X2689286Y-7754327D02*
X2682143Y-7761470D01*
X2682143Y-7761470D02*
X2660714Y-7768613D01*
X2660714Y-7768613D02*
X2646429Y-7768613D01*
X2646429Y-7768613D02*
X2625000Y-7761470D01*
X2625000Y-7761470D02*
X2610714Y-7747184D01*
X2610714Y-7747184D02*
X2603571Y-7732898D01*
X2603571Y-7732898D02*
X2596429Y-7704327D01*
X2596429Y-7704327D02*
X2596429Y-7682898D01*
X2596429Y-7682898D02*
X2603571Y-7654327D01*
X2603571Y-7654327D02*
X2610714Y-7640041D01*
X2610714Y-7640041D02*
X2625000Y-7625756D01*
X2625000Y-7625756D02*
X2646429Y-7618613D01*
X2646429Y-7618613D02*
X2660714Y-7618613D01*
X2660714Y-7618613D02*
X2682143Y-7625756D01*
X2682143Y-7625756D02*
X2689286Y-7632898D01*
X2753571Y-7618613D02*
X2753571Y-7740041D01*
X2753571Y-7740041D02*
X2760714Y-7754327D01*
X2760714Y-7754327D02*
X2767857Y-7761470D01*
X2767857Y-7761470D02*
X2782143Y-7768613D01*
X2782143Y-7768613D02*
X2810714Y-7768613D01*
X2810714Y-7768613D02*
X2825000Y-7761470D01*
X2825000Y-7761470D02*
X2832143Y-7754327D01*
X2832143Y-7754327D02*
X2839286Y-7740041D01*
X2839286Y-7740041D02*
X2839286Y-7618613D01*
X2996429Y-7768613D02*
X2946429Y-7697184D01*
X2910714Y-7768613D02*
X2910714Y-7618613D01*
X2910714Y-7618613D02*
X2967857Y-7618613D01*
X2967857Y-7618613D02*
X2982143Y-7625756D01*
X2982143Y-7625756D02*
X2989286Y-7632898D01*
X2989286Y-7632898D02*
X2996429Y-7647184D01*
X2996429Y-7647184D02*
X2996429Y-7668613D01*
X2996429Y-7668613D02*
X2989286Y-7682898D01*
X2989286Y-7682898D02*
X2982143Y-7690041D01*
X2982143Y-7690041D02*
X2967857Y-7697184D01*
X2967857Y-7697184D02*
X2910714Y-7697184D01*
X3146429Y-7768613D02*
X3096429Y-7697184D01*
X3060714Y-7768613D02*
X3060714Y-7618613D01*
X3060714Y-7618613D02*
X3117857Y-7618613D01*
X3117857Y-7618613D02*
X3132143Y-7625756D01*
X3132143Y-7625756D02*
X3139286Y-7632898D01*
X3139286Y-7632898D02*
X3146429Y-7647184D01*
X3146429Y-7647184D02*
X3146429Y-7668613D01*
X3146429Y-7668613D02*
X3139286Y-7682898D01*
X3139286Y-7682898D02*
X3132143Y-7690041D01*
X3132143Y-7690041D02*
X3117857Y-7697184D01*
X3117857Y-7697184D02*
X3060714Y-7697184D01*
X3210714Y-7690041D02*
X3260714Y-7690041D01*
X3282143Y-7768613D02*
X3210714Y-7768613D01*
X3210714Y-7768613D02*
X3210714Y-7618613D01*
X3210714Y-7618613D02*
X3282143Y-7618613D01*
X3346429Y-7768613D02*
X3346429Y-7618613D01*
X3346429Y-7618613D02*
X3432143Y-7768613D01*
X3432143Y-7768613D02*
X3432143Y-7618613D01*
X3482143Y-7618613D02*
X3567857Y-7618613D01*
X3525000Y-7768613D02*
X3525000Y-7618613D01*
X3725000Y-7761470D02*
X3746429Y-7768613D01*
X3746429Y-7768613D02*
X3782143Y-7768613D01*
X3782143Y-7768613D02*
X3796429Y-7761470D01*
X3796429Y-7761470D02*
X3803571Y-7754327D01*
X3803571Y-7754327D02*
X3810714Y-7740041D01*
X3810714Y-7740041D02*
X3810714Y-7725756D01*
X3810714Y-7725756D02*
X3803571Y-7711470D01*
X3803571Y-7711470D02*
X3796429Y-7704327D01*
X3796429Y-7704327D02*
X3782143Y-7697184D01*
X3782143Y-7697184D02*
X3753571Y-7690041D01*
X3753571Y-7690041D02*
X3739286Y-7682898D01*
X3739286Y-7682898D02*
X3732143Y-7675756D01*
X3732143Y-7675756D02*
X3725000Y-7661470D01*
X3725000Y-7661470D02*
X3725000Y-7647184D01*
X3725000Y-7647184D02*
X3732143Y-7632898D01*
X3732143Y-7632898D02*
X3739286Y-7625756D01*
X3739286Y-7625756D02*
X3753571Y-7618613D01*
X3753571Y-7618613D02*
X3789286Y-7618613D01*
X3789286Y-7618613D02*
X3810714Y-7625756D01*
X3875000Y-7690041D02*
X3925000Y-7690041D01*
X3946429Y-7768613D02*
X3875000Y-7768613D01*
X3875000Y-7768613D02*
X3875000Y-7618613D01*
X3875000Y-7618613D02*
X3946429Y-7618613D01*
X4010714Y-7768613D02*
X4010714Y-7618613D01*
X4010714Y-7618613D02*
X4096429Y-7768613D01*
X4096429Y-7768613D02*
X4096429Y-7618613D01*
X4160714Y-7761470D02*
X4182143Y-7768613D01*
X4182143Y-7768613D02*
X4217857Y-7768613D01*
X4217857Y-7768613D02*
X4232143Y-7761470D01*
X4232143Y-7761470D02*
X4239286Y-7754327D01*
X4239286Y-7754327D02*
X4246429Y-7740041D01*
X4246429Y-7740041D02*
X4246429Y-7725756D01*
X4246429Y-7725756D02*
X4239286Y-7711470D01*
X4239286Y-7711470D02*
X4232143Y-7704327D01*
X4232143Y-7704327D02*
X4217857Y-7697184D01*
X4217857Y-7697184D02*
X4189286Y-7690041D01*
X4189286Y-7690041D02*
X4175000Y-7682898D01*
X4175000Y-7682898D02*
X4167857Y-7675756D01*
X4167857Y-7675756D02*
X4160714Y-7661470D01*
X4160714Y-7661470D02*
X4160714Y-7647184D01*
X4160714Y-7647184D02*
X4167857Y-7632898D01*
X4167857Y-7632898D02*
X4175000Y-7625756D01*
X4175000Y-7625756D02*
X4189286Y-7618613D01*
X4189286Y-7618613D02*
X4225000Y-7618613D01*
X4225000Y-7618613D02*
X4246429Y-7625756D01*
X4310714Y-7690041D02*
X4360714Y-7690041D01*
X4382143Y-7768613D02*
X4310714Y-7768613D01*
X4310714Y-7768613D02*
X4310714Y-7618613D01*
X4310714Y-7618613D02*
X4382143Y-7618613D01*
X4667857Y-7611470D02*
X4539286Y-7804327D01*
X4917857Y-7768613D02*
X4867857Y-7697184D01*
X4832143Y-7768613D02*
X4832143Y-7618613D01*
X4832143Y-7618613D02*
X4889286Y-7618613D01*
X4889286Y-7618613D02*
X4903572Y-7625756D01*
X4903572Y-7625756D02*
X4910714Y-7632898D01*
X4910714Y-7632898D02*
X4917857Y-7647184D01*
X4917857Y-7647184D02*
X4917857Y-7668613D01*
X4917857Y-7668613D02*
X4910714Y-7682898D01*
X4910714Y-7682898D02*
X4903572Y-7690041D01*
X4903572Y-7690041D02*
X4889286Y-7697184D01*
X4889286Y-7697184D02*
X4832143Y-7697184D01*
X5039286Y-7761470D02*
X5025000Y-7768613D01*
X5025000Y-7768613D02*
X4996429Y-7768613D01*
X4996429Y-7768613D02*
X4982143Y-7761470D01*
X4982143Y-7761470D02*
X4975000Y-7747184D01*
X4975000Y-7747184D02*
X4975000Y-7690041D01*
X4975000Y-7690041D02*
X4982143Y-7675756D01*
X4982143Y-7675756D02*
X4996429Y-7668613D01*
X4996429Y-7668613D02*
X5025000Y-7668613D01*
X5025000Y-7668613D02*
X5039286Y-7675756D01*
X5039286Y-7675756D02*
X5046429Y-7690041D01*
X5046429Y-7690041D02*
X5046429Y-7704327D01*
X5046429Y-7704327D02*
X4975000Y-7718613D01*
X5096429Y-7668613D02*
X5132143Y-7768613D01*
X5132143Y-7768613D02*
X5167857Y-7668613D01*
X5332143Y-7725756D02*
X5403572Y-7725756D01*
X5317857Y-7768613D02*
X5367857Y-7618613D01*
X5367857Y-7618613D02*
X5417857Y-7768613D01*
D11*
X4365000Y-5252440D02*
X4360714Y-5256726D01*
X4360714Y-5256726D02*
X4347857Y-5261012D01*
X4347857Y-5261012D02*
X4339286Y-5261012D01*
X4339286Y-5261012D02*
X4326429Y-5256726D01*
X4326429Y-5256726D02*
X4317857Y-5248155D01*
X4317857Y-5248155D02*
X4313571Y-5239583D01*
X4313571Y-5239583D02*
X4309286Y-5222440D01*
X4309286Y-5222440D02*
X4309286Y-5209583D01*
X4309286Y-5209583D02*
X4313571Y-5192440D01*
X4313571Y-5192440D02*
X4317857Y-5183869D01*
X4317857Y-5183869D02*
X4326429Y-5175297D01*
X4326429Y-5175297D02*
X4339286Y-5171012D01*
X4339286Y-5171012D02*
X4347857Y-5171012D01*
X4347857Y-5171012D02*
X4360714Y-5175297D01*
X4360714Y-5175297D02*
X4365000Y-5179583D01*
X4450714Y-5261012D02*
X4399286Y-5261012D01*
X4425000Y-5261012D02*
X4425000Y-5171012D01*
X4425000Y-5171012D02*
X4416429Y-5183869D01*
X4416429Y-5183869D02*
X4407857Y-5192440D01*
X4407857Y-5192440D02*
X4399286Y-5196726D01*
X3765000Y-5541012D02*
X3735000Y-5498155D01*
X3713571Y-5541012D02*
X3713571Y-5451012D01*
X3713571Y-5451012D02*
X3747857Y-5451012D01*
X3747857Y-5451012D02*
X3756429Y-5455297D01*
X3756429Y-5455297D02*
X3760714Y-5459583D01*
X3760714Y-5459583D02*
X3765000Y-5468155D01*
X3765000Y-5468155D02*
X3765000Y-5481012D01*
X3765000Y-5481012D02*
X3760714Y-5489583D01*
X3760714Y-5489583D02*
X3756429Y-5493869D01*
X3756429Y-5493869D02*
X3747857Y-5498155D01*
X3747857Y-5498155D02*
X3713571Y-5498155D01*
X3842143Y-5481012D02*
X3842143Y-5541012D01*
X3820714Y-5446726D02*
X3799286Y-5511012D01*
X3799286Y-5511012D02*
X3855000Y-5511012D01*
X5085000Y-5641012D02*
X5055000Y-5598154D01*
X5033571Y-5641012D02*
X5033571Y-5551012D01*
X5033571Y-5551012D02*
X5067857Y-5551012D01*
X5067857Y-5551012D02*
X5076429Y-5555297D01*
X5076429Y-5555297D02*
X5080714Y-5559583D01*
X5080714Y-5559583D02*
X5085000Y-5568155D01*
X5085000Y-5568155D02*
X5085000Y-5581012D01*
X5085000Y-5581012D02*
X5080714Y-5589583D01*
X5080714Y-5589583D02*
X5076429Y-5593869D01*
X5076429Y-5593869D02*
X5067857Y-5598154D01*
X5067857Y-5598154D02*
X5033571Y-5598154D01*
X5136429Y-5589583D02*
X5127857Y-5585297D01*
X5127857Y-5585297D02*
X5123571Y-5581012D01*
X5123571Y-5581012D02*
X5119286Y-5572440D01*
X5119286Y-5572440D02*
X5119286Y-5568155D01*
X5119286Y-5568155D02*
X5123571Y-5559583D01*
X5123571Y-5559583D02*
X5127857Y-5555297D01*
X5127857Y-5555297D02*
X5136429Y-5551012D01*
X5136429Y-5551012D02*
X5153571Y-5551012D01*
X5153571Y-5551012D02*
X5162143Y-5555297D01*
X5162143Y-5555297D02*
X5166429Y-5559583D01*
X5166429Y-5559583D02*
X5170714Y-5568155D01*
X5170714Y-5568155D02*
X5170714Y-5572440D01*
X5170714Y-5572440D02*
X5166429Y-5581012D01*
X5166429Y-5581012D02*
X5162143Y-5585297D01*
X5162143Y-5585297D02*
X5153571Y-5589583D01*
X5153571Y-5589583D02*
X5136429Y-5589583D01*
X5136429Y-5589583D02*
X5127857Y-5593869D01*
X5127857Y-5593869D02*
X5123571Y-5598154D01*
X5123571Y-5598154D02*
X5119286Y-5606726D01*
X5119286Y-5606726D02*
X5119286Y-5623869D01*
X5119286Y-5623869D02*
X5123571Y-5632440D01*
X5123571Y-5632440D02*
X5127857Y-5636726D01*
X5127857Y-5636726D02*
X5136429Y-5641012D01*
X5136429Y-5641012D02*
X5153571Y-5641012D01*
X5153571Y-5641012D02*
X5162143Y-5636726D01*
X5162143Y-5636726D02*
X5166429Y-5632440D01*
X5166429Y-5632440D02*
X5170714Y-5623869D01*
X5170714Y-5623869D02*
X5170714Y-5606726D01*
X5170714Y-5606726D02*
X5166429Y-5598154D01*
X5166429Y-5598154D02*
X5162143Y-5593869D01*
X5162143Y-5593869D02*
X5153571Y-5589583D01*
X5085000Y-5291012D02*
X5055000Y-5248155D01*
X5033571Y-5291012D02*
X5033571Y-5201012D01*
X5033571Y-5201012D02*
X5067857Y-5201012D01*
X5067857Y-5201012D02*
X5076429Y-5205297D01*
X5076429Y-5205297D02*
X5080714Y-5209583D01*
X5080714Y-5209583D02*
X5085000Y-5218155D01*
X5085000Y-5218155D02*
X5085000Y-5231012D01*
X5085000Y-5231012D02*
X5080714Y-5239583D01*
X5080714Y-5239583D02*
X5076429Y-5243869D01*
X5076429Y-5243869D02*
X5067857Y-5248155D01*
X5067857Y-5248155D02*
X5033571Y-5248155D01*
X5115000Y-5201012D02*
X5175000Y-5201012D01*
X5175000Y-5201012D02*
X5136429Y-5291012D01*
X2685000Y-4941012D02*
X2655000Y-4898155D01*
X2633571Y-4941012D02*
X2633571Y-4851012D01*
X2633571Y-4851012D02*
X2667857Y-4851012D01*
X2667857Y-4851012D02*
X2676429Y-4855297D01*
X2676429Y-4855297D02*
X2680714Y-4859583D01*
X2680714Y-4859583D02*
X2685000Y-4868155D01*
X2685000Y-4868155D02*
X2685000Y-4881012D01*
X2685000Y-4881012D02*
X2680714Y-4889583D01*
X2680714Y-4889583D02*
X2676429Y-4893869D01*
X2676429Y-4893869D02*
X2667857Y-4898155D01*
X2667857Y-4898155D02*
X2633571Y-4898155D01*
X2766429Y-4851012D02*
X2723571Y-4851012D01*
X2723571Y-4851012D02*
X2719286Y-4893869D01*
X2719286Y-4893869D02*
X2723571Y-4889583D01*
X2723571Y-4889583D02*
X2732143Y-4885297D01*
X2732143Y-4885297D02*
X2753571Y-4885297D01*
X2753571Y-4885297D02*
X2762143Y-4889583D01*
X2762143Y-4889583D02*
X2766429Y-4893869D01*
X2766429Y-4893869D02*
X2770714Y-4902440D01*
X2770714Y-4902440D02*
X2770714Y-4923869D01*
X2770714Y-4923869D02*
X2766429Y-4932440D01*
X2766429Y-4932440D02*
X2762143Y-4936726D01*
X2762143Y-4936726D02*
X2753571Y-4941012D01*
X2753571Y-4941012D02*
X2732143Y-4941012D01*
X2732143Y-4941012D02*
X2723571Y-4936726D01*
X2723571Y-4936726D02*
X2719286Y-4932440D01*
X2785000Y-6512440D02*
X2780714Y-6516726D01*
X2780714Y-6516726D02*
X2767857Y-6521012D01*
X2767857Y-6521012D02*
X2759286Y-6521012D01*
X2759286Y-6521012D02*
X2746429Y-6516726D01*
X2746429Y-6516726D02*
X2737857Y-6508154D01*
X2737857Y-6508154D02*
X2733571Y-6499583D01*
X2733571Y-6499583D02*
X2729286Y-6482440D01*
X2729286Y-6482440D02*
X2729286Y-6469583D01*
X2729286Y-6469583D02*
X2733571Y-6452440D01*
X2733571Y-6452440D02*
X2737857Y-6443869D01*
X2737857Y-6443869D02*
X2746429Y-6435297D01*
X2746429Y-6435297D02*
X2759286Y-6431012D01*
X2759286Y-6431012D02*
X2767857Y-6431012D01*
X2767857Y-6431012D02*
X2780714Y-6435297D01*
X2780714Y-6435297D02*
X2785000Y-6439583D01*
X2815000Y-6431012D02*
X2870714Y-6431012D01*
X2870714Y-6431012D02*
X2840714Y-6465297D01*
X2840714Y-6465297D02*
X2853571Y-6465297D01*
X2853571Y-6465297D02*
X2862143Y-6469583D01*
X2862143Y-6469583D02*
X2866429Y-6473869D01*
X2866429Y-6473869D02*
X2870714Y-6482440D01*
X2870714Y-6482440D02*
X2870714Y-6503869D01*
X2870714Y-6503869D02*
X2866429Y-6512440D01*
X2866429Y-6512440D02*
X2862143Y-6516726D01*
X2862143Y-6516726D02*
X2853571Y-6521012D01*
X2853571Y-6521012D02*
X2827857Y-6521012D01*
X2827857Y-6521012D02*
X2819286Y-6516726D01*
X2819286Y-6516726D02*
X2815000Y-6512440D01*
X5965000Y-5141012D02*
X5935000Y-5098155D01*
X5913571Y-5141012D02*
X5913571Y-5051012D01*
X5913571Y-5051012D02*
X5947857Y-5051012D01*
X5947857Y-5051012D02*
X5956429Y-5055297D01*
X5956429Y-5055297D02*
X5960714Y-5059583D01*
X5960714Y-5059583D02*
X5965000Y-5068155D01*
X5965000Y-5068155D02*
X5965000Y-5081012D01*
X5965000Y-5081012D02*
X5960714Y-5089583D01*
X5960714Y-5089583D02*
X5956429Y-5093869D01*
X5956429Y-5093869D02*
X5947857Y-5098155D01*
X5947857Y-5098155D02*
X5913571Y-5098155D01*
X5995000Y-5051012D02*
X6050714Y-5051012D01*
X6050714Y-5051012D02*
X6020714Y-5085297D01*
X6020714Y-5085297D02*
X6033571Y-5085297D01*
X6033571Y-5085297D02*
X6042143Y-5089583D01*
X6042143Y-5089583D02*
X6046429Y-5093869D01*
X6046429Y-5093869D02*
X6050714Y-5102440D01*
X6050714Y-5102440D02*
X6050714Y-5123869D01*
X6050714Y-5123869D02*
X6046429Y-5132440D01*
X6046429Y-5132440D02*
X6042143Y-5136726D01*
X6042143Y-5136726D02*
X6033571Y-5141012D01*
X6033571Y-5141012D02*
X6007857Y-5141012D01*
X6007857Y-5141012D02*
X5999286Y-5136726D01*
X5999286Y-5136726D02*
X5995000Y-5132440D01*
X3970000Y48988D02*
X3970000Y-15297D01*
X3970000Y-15297D02*
X3965714Y-28154D01*
X3965714Y-28154D02*
X3957143Y-36726D01*
X3957143Y-36726D02*
X3944286Y-41012D01*
X3944286Y-41012D02*
X3935714Y-41012D01*
X4060000Y-41012D02*
X4008571Y-41012D01*
X4034286Y-41012D02*
X4034286Y48988D01*
X4034286Y48988D02*
X4025714Y36131D01*
X4025714Y36131D02*
X4017143Y27560D01*
X4017143Y27560D02*
X4008571Y23274D01*
X4133571Y-5591012D02*
X4133571Y-5501012D01*
X4133571Y-5501012D02*
X4155000Y-5501012D01*
X4155000Y-5501012D02*
X4167857Y-5505297D01*
X4167857Y-5505297D02*
X4176429Y-5513869D01*
X4176429Y-5513869D02*
X4180714Y-5522440D01*
X4180714Y-5522440D02*
X4185000Y-5539583D01*
X4185000Y-5539583D02*
X4185000Y-5552440D01*
X4185000Y-5552440D02*
X4180714Y-5569583D01*
X4180714Y-5569583D02*
X4176429Y-5578155D01*
X4176429Y-5578155D02*
X4167857Y-5586726D01*
X4167857Y-5586726D02*
X4155000Y-5591012D01*
X4155000Y-5591012D02*
X4133571Y-5591012D01*
X4219286Y-5509583D02*
X4223571Y-5505297D01*
X4223571Y-5505297D02*
X4232143Y-5501012D01*
X4232143Y-5501012D02*
X4253571Y-5501012D01*
X4253571Y-5501012D02*
X4262143Y-5505297D01*
X4262143Y-5505297D02*
X4266429Y-5509583D01*
X4266429Y-5509583D02*
X4270714Y-5518155D01*
X4270714Y-5518155D02*
X4270714Y-5526726D01*
X4270714Y-5526726D02*
X4266429Y-5539583D01*
X4266429Y-5539583D02*
X4215000Y-5591012D01*
X4215000Y-5591012D02*
X4270714Y-5591012D01*
X2861428Y-5881012D02*
X2861428Y-5953869D01*
X2861428Y-5953869D02*
X2865714Y-5962440D01*
X2865714Y-5962440D02*
X2870000Y-5966726D01*
X2870000Y-5966726D02*
X2878571Y-5971012D01*
X2878571Y-5971012D02*
X2895714Y-5971012D01*
X2895714Y-5971012D02*
X2904286Y-5966726D01*
X2904286Y-5966726D02*
X2908571Y-5962440D01*
X2908571Y-5962440D02*
X2912857Y-5953869D01*
X2912857Y-5953869D02*
X2912857Y-5881012D01*
X3002857Y-5971012D02*
X2951428Y-5971012D01*
X2977143Y-5971012D02*
X2977143Y-5881012D01*
X2977143Y-5881012D02*
X2968571Y-5893869D01*
X2968571Y-5893869D02*
X2960000Y-5902440D01*
X2960000Y-5902440D02*
X2951428Y-5906726D01*
X5125000Y-5012440D02*
X5120714Y-5016726D01*
X5120714Y-5016726D02*
X5107857Y-5021012D01*
X5107857Y-5021012D02*
X5099286Y-5021012D01*
X5099286Y-5021012D02*
X5086429Y-5016726D01*
X5086429Y-5016726D02*
X5077857Y-5008155D01*
X5077857Y-5008155D02*
X5073571Y-4999583D01*
X5073571Y-4999583D02*
X5069286Y-4982440D01*
X5069286Y-4982440D02*
X5069286Y-4969583D01*
X5069286Y-4969583D02*
X5073571Y-4952440D01*
X5073571Y-4952440D02*
X5077857Y-4943869D01*
X5077857Y-4943869D02*
X5086429Y-4935297D01*
X5086429Y-4935297D02*
X5099286Y-4931012D01*
X5099286Y-4931012D02*
X5107857Y-4931012D01*
X5107857Y-4931012D02*
X5120714Y-4935297D01*
X5120714Y-4935297D02*
X5125000Y-4939583D01*
X5159286Y-4939583D02*
X5163571Y-4935297D01*
X5163571Y-4935297D02*
X5172143Y-4931012D01*
X5172143Y-4931012D02*
X5193571Y-4931012D01*
X5193571Y-4931012D02*
X5202143Y-4935297D01*
X5202143Y-4935297D02*
X5206429Y-4939583D01*
X5206429Y-4939583D02*
X5210714Y-4948155D01*
X5210714Y-4948155D02*
X5210714Y-4956726D01*
X5210714Y-4956726D02*
X5206429Y-4969583D01*
X5206429Y-4969583D02*
X5155000Y-5021012D01*
X5155000Y-5021012D02*
X5210714Y-5021012D01*
X6870000Y-6951012D02*
X6870000Y-7015297D01*
X6870000Y-7015297D02*
X6865714Y-7028154D01*
X6865714Y-7028154D02*
X6857143Y-7036726D01*
X6857143Y-7036726D02*
X6844286Y-7041012D01*
X6844286Y-7041012D02*
X6835714Y-7041012D01*
X6908571Y-6959583D02*
X6912857Y-6955297D01*
X6912857Y-6955297D02*
X6921429Y-6951012D01*
X6921429Y-6951012D02*
X6942857Y-6951012D01*
X6942857Y-6951012D02*
X6951429Y-6955297D01*
X6951429Y-6955297D02*
X6955714Y-6959583D01*
X6955714Y-6959583D02*
X6960000Y-6968154D01*
X6960000Y-6968154D02*
X6960000Y-6976726D01*
X6960000Y-6976726D02*
X6955714Y-6989583D01*
X6955714Y-6989583D02*
X6904286Y-7041012D01*
X6904286Y-7041012D02*
X6960000Y-7041012D01*
X3385000Y-5141012D02*
X3355000Y-5098155D01*
X3333571Y-5141012D02*
X3333571Y-5051012D01*
X3333571Y-5051012D02*
X3367857Y-5051012D01*
X3367857Y-5051012D02*
X3376429Y-5055297D01*
X3376429Y-5055297D02*
X3380714Y-5059583D01*
X3380714Y-5059583D02*
X3385000Y-5068155D01*
X3385000Y-5068155D02*
X3385000Y-5081012D01*
X3385000Y-5081012D02*
X3380714Y-5089583D01*
X3380714Y-5089583D02*
X3376429Y-5093869D01*
X3376429Y-5093869D02*
X3367857Y-5098155D01*
X3367857Y-5098155D02*
X3333571Y-5098155D01*
X3470714Y-5141012D02*
X3419286Y-5141012D01*
X3445000Y-5141012D02*
X3445000Y-5051012D01*
X3445000Y-5051012D02*
X3436429Y-5063869D01*
X3436429Y-5063869D02*
X3427857Y-5072440D01*
X3427857Y-5072440D02*
X3419286Y-5076726D01*
X3931429Y-1271012D02*
X3982857Y-1271012D01*
X3957143Y-1361012D02*
X3957143Y-1271012D01*
X4060000Y-1361012D02*
X4008571Y-1361012D01*
X4034286Y-1361012D02*
X4034286Y-1271012D01*
X4034286Y-1271012D02*
X4025714Y-1283869D01*
X4025714Y-1283869D02*
X4017143Y-1292440D01*
X4017143Y-1292440D02*
X4008571Y-1296726D01*
X3033571Y-5591012D02*
X3033571Y-5501012D01*
X3033571Y-5501012D02*
X3055000Y-5501012D01*
X3055000Y-5501012D02*
X3067857Y-5505297D01*
X3067857Y-5505297D02*
X3076429Y-5513869D01*
X3076429Y-5513869D02*
X3080714Y-5522440D01*
X3080714Y-5522440D02*
X3085000Y-5539583D01*
X3085000Y-5539583D02*
X3085000Y-5552440D01*
X3085000Y-5552440D02*
X3080714Y-5569583D01*
X3080714Y-5569583D02*
X3076429Y-5578155D01*
X3076429Y-5578155D02*
X3067857Y-5586726D01*
X3067857Y-5586726D02*
X3055000Y-5591012D01*
X3055000Y-5591012D02*
X3033571Y-5591012D01*
X3170714Y-5591012D02*
X3119286Y-5591012D01*
X3145000Y-5591012D02*
X3145000Y-5501012D01*
X3145000Y-5501012D02*
X3136429Y-5513869D01*
X3136429Y-5513869D02*
X3127857Y-5522440D01*
X3127857Y-5522440D02*
X3119286Y-5526726D01*
X2685000Y-5291012D02*
X2655000Y-5248155D01*
X2633571Y-5291012D02*
X2633571Y-5201012D01*
X2633571Y-5201012D02*
X2667857Y-5201012D01*
X2667857Y-5201012D02*
X2676429Y-5205297D01*
X2676429Y-5205297D02*
X2680714Y-5209583D01*
X2680714Y-5209583D02*
X2685000Y-5218155D01*
X2685000Y-5218155D02*
X2685000Y-5231012D01*
X2685000Y-5231012D02*
X2680714Y-5239583D01*
X2680714Y-5239583D02*
X2676429Y-5243869D01*
X2676429Y-5243869D02*
X2667857Y-5248155D01*
X2667857Y-5248155D02*
X2633571Y-5248155D01*
X2762143Y-5201012D02*
X2745000Y-5201012D01*
X2745000Y-5201012D02*
X2736429Y-5205297D01*
X2736429Y-5205297D02*
X2732143Y-5209583D01*
X2732143Y-5209583D02*
X2723571Y-5222440D01*
X2723571Y-5222440D02*
X2719286Y-5239583D01*
X2719286Y-5239583D02*
X2719286Y-5273869D01*
X2719286Y-5273869D02*
X2723571Y-5282440D01*
X2723571Y-5282440D02*
X2727857Y-5286726D01*
X2727857Y-5286726D02*
X2736429Y-5291012D01*
X2736429Y-5291012D02*
X2753571Y-5291012D01*
X2753571Y-5291012D02*
X2762143Y-5286726D01*
X2762143Y-5286726D02*
X2766429Y-5282440D01*
X2766429Y-5282440D02*
X2770714Y-5273869D01*
X2770714Y-5273869D02*
X2770714Y-5252440D01*
X2770714Y-5252440D02*
X2766429Y-5243869D01*
X2766429Y-5243869D02*
X2762143Y-5239583D01*
X2762143Y-5239583D02*
X2753571Y-5235297D01*
X2753571Y-5235297D02*
X2736429Y-5235297D01*
X2736429Y-5235297D02*
X2727857Y-5239583D01*
X2727857Y-5239583D02*
X2723571Y-5243869D01*
X2723571Y-5243869D02*
X2719286Y-5252440D01*
X4685000Y-6452440D02*
X4680714Y-6456726D01*
X4680714Y-6456726D02*
X4667857Y-6461012D01*
X4667857Y-6461012D02*
X4659286Y-6461012D01*
X4659286Y-6461012D02*
X4646429Y-6456726D01*
X4646429Y-6456726D02*
X4637857Y-6448154D01*
X4637857Y-6448154D02*
X4633571Y-6439583D01*
X4633571Y-6439583D02*
X4629286Y-6422440D01*
X4629286Y-6422440D02*
X4629286Y-6409583D01*
X4629286Y-6409583D02*
X4633571Y-6392440D01*
X4633571Y-6392440D02*
X4637857Y-6383869D01*
X4637857Y-6383869D02*
X4646429Y-6375297D01*
X4646429Y-6375297D02*
X4659286Y-6371012D01*
X4659286Y-6371012D02*
X4667857Y-6371012D01*
X4667857Y-6371012D02*
X4680714Y-6375297D01*
X4680714Y-6375297D02*
X4685000Y-6379583D01*
X4766429Y-6371012D02*
X4723571Y-6371012D01*
X4723571Y-6371012D02*
X4719286Y-6413869D01*
X4719286Y-6413869D02*
X4723571Y-6409583D01*
X4723571Y-6409583D02*
X4732143Y-6405297D01*
X4732143Y-6405297D02*
X4753571Y-6405297D01*
X4753571Y-6405297D02*
X4762143Y-6409583D01*
X4762143Y-6409583D02*
X4766429Y-6413869D01*
X4766429Y-6413869D02*
X4770714Y-6422440D01*
X4770714Y-6422440D02*
X4770714Y-6443869D01*
X4770714Y-6443869D02*
X4766429Y-6452440D01*
X4766429Y-6452440D02*
X4762143Y-6456726D01*
X4762143Y-6456726D02*
X4753571Y-6461012D01*
X4753571Y-6461012D02*
X4732143Y-6461012D01*
X4732143Y-6461012D02*
X4723571Y-6456726D01*
X4723571Y-6456726D02*
X4719286Y-6452440D01*
X3795000Y-6062440D02*
X3790714Y-6066726D01*
X3790714Y-6066726D02*
X3777857Y-6071012D01*
X3777857Y-6071012D02*
X3769286Y-6071012D01*
X3769286Y-6071012D02*
X3756429Y-6066726D01*
X3756429Y-6066726D02*
X3747857Y-6058154D01*
X3747857Y-6058154D02*
X3743571Y-6049583D01*
X3743571Y-6049583D02*
X3739286Y-6032440D01*
X3739286Y-6032440D02*
X3739286Y-6019583D01*
X3739286Y-6019583D02*
X3743571Y-6002440D01*
X3743571Y-6002440D02*
X3747857Y-5993869D01*
X3747857Y-5993869D02*
X3756429Y-5985297D01*
X3756429Y-5985297D02*
X3769286Y-5981012D01*
X3769286Y-5981012D02*
X3777857Y-5981012D01*
X3777857Y-5981012D02*
X3790714Y-5985297D01*
X3790714Y-5985297D02*
X3795000Y-5989583D01*
X3872143Y-6011012D02*
X3872143Y-6071012D01*
X3850714Y-5976726D02*
X3829286Y-6041012D01*
X3829286Y-6041012D02*
X3885000Y-6041012D01*
X4331429Y-5721012D02*
X4331429Y-5793869D01*
X4331429Y-5793869D02*
X4335714Y-5802440D01*
X4335714Y-5802440D02*
X4340000Y-5806726D01*
X4340000Y-5806726D02*
X4348571Y-5811012D01*
X4348571Y-5811012D02*
X4365714Y-5811012D01*
X4365714Y-5811012D02*
X4374286Y-5806726D01*
X4374286Y-5806726D02*
X4378571Y-5802440D01*
X4378571Y-5802440D02*
X4382857Y-5793869D01*
X4382857Y-5793869D02*
X4382857Y-5721012D01*
X4421429Y-5729583D02*
X4425714Y-5725297D01*
X4425714Y-5725297D02*
X4434286Y-5721012D01*
X4434286Y-5721012D02*
X4455714Y-5721012D01*
X4455714Y-5721012D02*
X4464286Y-5725297D01*
X4464286Y-5725297D02*
X4468571Y-5729583D01*
X4468571Y-5729583D02*
X4472857Y-5738154D01*
X4472857Y-5738154D02*
X4472857Y-5746726D01*
X4472857Y-5746726D02*
X4468571Y-5759583D01*
X4468571Y-5759583D02*
X4417143Y-5811012D01*
X4417143Y-5811012D02*
X4472857Y-5811012D01*
X5965000Y-4791012D02*
X5935000Y-4748155D01*
X5913571Y-4791012D02*
X5913571Y-4701012D01*
X5913571Y-4701012D02*
X5947857Y-4701012D01*
X5947857Y-4701012D02*
X5956429Y-4705297D01*
X5956429Y-4705297D02*
X5960714Y-4709583D01*
X5960714Y-4709583D02*
X5965000Y-4718155D01*
X5965000Y-4718155D02*
X5965000Y-4731012D01*
X5965000Y-4731012D02*
X5960714Y-4739583D01*
X5960714Y-4739583D02*
X5956429Y-4743869D01*
X5956429Y-4743869D02*
X5947857Y-4748155D01*
X5947857Y-4748155D02*
X5913571Y-4748155D01*
X5999286Y-4709583D02*
X6003571Y-4705297D01*
X6003571Y-4705297D02*
X6012143Y-4701012D01*
X6012143Y-4701012D02*
X6033571Y-4701012D01*
X6033571Y-4701012D02*
X6042143Y-4705297D01*
X6042143Y-4705297D02*
X6046429Y-4709583D01*
X6046429Y-4709583D02*
X6050714Y-4718155D01*
X6050714Y-4718155D02*
X6050714Y-4726726D01*
X6050714Y-4726726D02*
X6046429Y-4739583D01*
X6046429Y-4739583D02*
X5995000Y-4791012D01*
X5995000Y-4791012D02*
X6050714Y-4791012D01*
X3781428Y-6751012D02*
X3781428Y-6823869D01*
X3781428Y-6823869D02*
X3785714Y-6832440D01*
X3785714Y-6832440D02*
X3790000Y-6836726D01*
X3790000Y-6836726D02*
X3798571Y-6841012D01*
X3798571Y-6841012D02*
X3815714Y-6841012D01*
X3815714Y-6841012D02*
X3824286Y-6836726D01*
X3824286Y-6836726D02*
X3828571Y-6832440D01*
X3828571Y-6832440D02*
X3832857Y-6823869D01*
X3832857Y-6823869D02*
X3832857Y-6751012D01*
X3867143Y-6751012D02*
X3922857Y-6751012D01*
X3922857Y-6751012D02*
X3892857Y-6785297D01*
X3892857Y-6785297D02*
X3905714Y-6785297D01*
X3905714Y-6785297D02*
X3914286Y-6789583D01*
X3914286Y-6789583D02*
X3918571Y-6793869D01*
X3918571Y-6793869D02*
X3922857Y-6802440D01*
X3922857Y-6802440D02*
X3922857Y-6823869D01*
X3922857Y-6823869D02*
X3918571Y-6832440D01*
X3918571Y-6832440D02*
X3914286Y-6836726D01*
X3914286Y-6836726D02*
X3905714Y-6841012D01*
X3905714Y-6841012D02*
X3880000Y-6841012D01*
X3880000Y-6841012D02*
X3871428Y-6836726D01*
X3871428Y-6836726D02*
X3867143Y-6832440D01*
%TO.C,C1*%
X3928875Y-5129000D02*
X4071125Y-5129000D01*
X3928875Y-5311000D02*
X4071125Y-5311000D01*
%TO.C,R4*%
X3509000Y-5407294D02*
X3509000Y-5552706D01*
X3691000Y-5407294D02*
X3691000Y-5552706D01*
%TO.C,R8*%
X4847750Y-5576274D02*
X4847750Y-5623726D01*
X4952250Y-5576274D02*
X4952250Y-5623726D01*
%TO.C,R7*%
X4847750Y-5226274D02*
X4847750Y-5273726D01*
X4952250Y-5226274D02*
X4952250Y-5273726D01*
%TO.C,R5*%
X2847750Y-4876274D02*
X2847750Y-4923726D01*
X2952250Y-4876274D02*
X2952250Y-4923726D01*
%TO.C,C3*%
X3064058Y-6259000D02*
X3035942Y-6259000D01*
X3064058Y-6361000D02*
X3035942Y-6361000D01*
%TO.C,R3*%
X5647750Y-5076274D02*
X5647750Y-5123726D01*
X5752250Y-5076274D02*
X5752250Y-5123726D01*
%TO.C,D2*%
X3900000Y-5821000D02*
X3900000Y-5435000D01*
X3900000Y-5821000D02*
X4100000Y-5821000D01*
X4100000Y-5821000D02*
X4100000Y-5435000D01*
%TO.C,U1*%
X3209000Y-5844000D02*
X3391000Y-5844000D01*
X3209000Y-5849000D02*
X3209000Y-5844000D01*
X3209000Y-6039000D02*
X3209000Y-5961000D01*
X3209000Y-6156000D02*
X3209000Y-6151000D01*
X3391000Y-5844000D02*
X3391000Y-5849000D01*
X3391000Y-6151000D02*
X3391000Y-6156000D01*
X3391000Y-6156000D02*
X3209000Y-6156000D01*
X3445000Y-6151000D02*
X3469000Y-6184000D01*
X3421000Y-6184000D01*
X3445000Y-6151000D01*
G36*
X3469000Y-6184000D02*
G01*
X3421000Y-6184000D01*
X3445000Y-6151000D01*
X3469000Y-6184000D01*
G37*
%TO.C,C2*%
X5309000Y-4821125D02*
X5309000Y-4678875D01*
X5491000Y-4821125D02*
X5491000Y-4678875D01*
%TO.C,J2*%
X6125000Y-6860000D02*
X6125000Y-6985000D01*
X6125000Y-6985000D02*
X6250000Y-6985000D01*
X6380000Y-5695000D02*
X6380000Y-5770000D01*
X6380000Y-5770000D02*
X6675000Y-5770000D01*
X6380000Y-6880000D02*
X6675000Y-6880000D01*
X6380000Y-6955000D02*
X6380000Y-6880000D01*
X6675000Y-5770000D02*
X6675000Y-6325000D01*
X6675000Y-6880000D02*
X6675000Y-6325000D01*
X6154000Y-5694000D02*
X6751000Y-5694000D01*
X6751000Y-6956000D01*
X6154000Y-6956000D01*
X6154000Y-5694000D01*
X6155000Y-5695000D02*
X6230000Y-5695000D01*
X6230000Y-5875000D01*
X6155000Y-5875000D01*
X6155000Y-5695000D01*
X6155000Y-6025000D02*
X6230000Y-6025000D01*
X6230000Y-6625000D01*
X6155000Y-6625000D01*
X6155000Y-6025000D01*
X6155000Y-6775000D02*
X6230000Y-6775000D01*
X6230000Y-6955000D01*
X6155000Y-6955000D01*
X6155000Y-6775000D01*
%TO.C,R1*%
X3927294Y-4829000D02*
X4072706Y-4829000D01*
X3927294Y-5011000D02*
X4072706Y-5011000D01*
%TO.C,T1*%
X2830000Y-1450000D02*
X2830000Y-4750000D01*
X2830000Y-1450000D02*
X5170000Y-1450000D01*
X2830000Y-4750000D02*
X5170000Y-4750000D01*
X5170000Y-1450000D02*
X5170000Y-4750000D01*
D12*
X4902500Y-1550000D02*
G75*
G02*
X4857500Y-1550000I-22500J0D01*
G01*
X4857500Y-1550000D02*
G75*
G02*
X4902500Y-1550000I22500J0D01*
G01*
%TO.C,D1*%
D11*
X3250000Y-5329000D02*
X3250000Y-5715000D01*
X3450000Y-5329000D02*
X3250000Y-5329000D01*
X3450000Y-5329000D02*
X3450000Y-5715000D01*
%TO.C,R6*%
X2847750Y-5226274D02*
X2847750Y-5273726D01*
X2952250Y-5226274D02*
X2952250Y-5273726D01*
%TO.C,C5*%
X4415942Y-6369000D02*
X4444058Y-6369000D01*
X4415942Y-6471000D02*
X4444058Y-6471000D01*
%TO.C,C4*%
X3949000Y-6094058D02*
X3949000Y-6065942D01*
X4051000Y-6094058D02*
X4051000Y-6065942D01*
%TO.C,U2*%
X4309000Y-5844000D02*
X4491000Y-5844000D01*
X4309000Y-5849000D02*
X4309000Y-5844000D01*
X4309000Y-6039000D02*
X4309000Y-5961000D01*
X4309000Y-6156000D02*
X4309000Y-6151000D01*
X4491000Y-5844000D02*
X4491000Y-5849000D01*
X4491000Y-6151000D02*
X4491000Y-6156000D01*
X4491000Y-6156000D02*
X4309000Y-6156000D01*
X4545000Y-6151000D02*
X4569000Y-6184000D01*
X4521000Y-6184000D01*
X4545000Y-6151000D01*
G36*
X4569000Y-6184000D02*
G01*
X4521000Y-6184000D01*
X4545000Y-6151000D01*
X4569000Y-6184000D01*
G37*
%TO.C,R2*%
X5647750Y-4726274D02*
X5647750Y-4773726D01*
X5752250Y-4726274D02*
X5752250Y-4773726D01*
%TO.C,U3*%
X3644000Y-6356500D02*
X4056000Y-6356500D01*
X3644000Y-6363000D02*
X3644000Y-6356500D01*
X3644000Y-7243500D02*
X3644000Y-7237000D01*
X4056000Y-6356500D02*
X4056000Y-6363000D01*
X4056000Y-7237000D02*
X4056000Y-7243500D01*
X4056000Y-7243500D02*
X3644000Y-7243500D01*
X3590000Y-6363000D02*
X3566000Y-6330000D01*
X3614000Y-6330000D01*
X3590000Y-6363000D01*
G36*
X3590000Y-6363000D02*
G01*
X3566000Y-6330000D01*
X3614000Y-6330000D01*
X3590000Y-6363000D01*
G37*
%TD*%
%LPC*%
D13*
%TO.C,C1*%
X3852500Y-5220000D03*
X4147500Y-5220000D03*
%TD*%
D14*
%TO.C,R4*%
X3600000Y-5333750D03*
X3600000Y-5626250D03*
%TD*%
D15*
%TO.C,R8*%
X4900000Y-5517500D03*
X4900000Y-5682500D03*
%TD*%
%TO.C,R7*%
X4900000Y-5167500D03*
X4900000Y-5332500D03*
%TD*%
%TO.C,R5*%
X2900000Y-4817500D03*
X2900000Y-4982500D03*
%TD*%
D16*
%TO.C,C3*%
X3127500Y-6310000D03*
X2972500Y-6310000D03*
%TD*%
D15*
%TO.C,R3*%
X5700000Y-5017500D03*
X5700000Y-5182500D03*
%TD*%
D17*
%TO.C,J1*%
X5250000Y-600000D03*
X2750000Y-600000D03*
%TD*%
D18*
%TO.C,D2*%
X4000000Y-5740000D03*
X4000000Y-5460000D03*
%TD*%
D19*
%TO.C,U1*%
X3413750Y-6095000D03*
X3413750Y-6000000D03*
X3413750Y-5905000D03*
X3186250Y-5905000D03*
X3186250Y-6095000D03*
%TD*%
D20*
%TO.C,C2*%
X5400000Y-4897500D03*
X5400000Y-4602500D03*
%TD*%
D21*
%TO.C,J2*%
X6400000Y-6700000D03*
D22*
X6400000Y-6450000D03*
X6400000Y-6200000D03*
X6400000Y-5950000D03*
%TD*%
D23*
%TO.C,R1*%
X3853750Y-4920000D03*
X4146250Y-4920000D03*
%TD*%
D24*
%TO.C,T1*%
X4558000Y-1945000D03*
X3442000Y-1945000D03*
D25*
X3312000Y-4475000D03*
X4688000Y-4475000D03*
%TD*%
D26*
%TO.C,D1*%
X3350000Y-5410000D03*
X3350000Y-5690000D03*
%TD*%
D15*
%TO.C,R6*%
X2900000Y-5167500D03*
X2900000Y-5332500D03*
%TD*%
D27*
%TO.C,C5*%
X4352500Y-6420000D03*
X4507500Y-6420000D03*
%TD*%
D28*
%TO.C,C4*%
X4000000Y-6157500D03*
X4000000Y-6002500D03*
%TD*%
D19*
%TO.C,U2*%
X4513750Y-6095000D03*
X4513750Y-6000000D03*
X4513750Y-5905000D03*
X4286250Y-5905000D03*
X4286250Y-6095000D03*
%TD*%
D15*
%TO.C,R2*%
X5700000Y-4667500D03*
X5700000Y-4832500D03*
%TD*%
D29*
%TO.C,U3*%
X3602500Y-6419000D03*
X3602500Y-6546000D03*
X3602500Y-6673000D03*
X3602500Y-6800000D03*
X3602500Y-6927000D03*
X3602500Y-7054000D03*
X3602500Y-7181000D03*
X4097500Y-7181000D03*
X4097500Y-7054000D03*
X4097500Y-6927000D03*
X4097500Y-6800000D03*
X4097500Y-6673000D03*
X4097500Y-6546000D03*
X4097500Y-6419000D03*
%TD*%
%LPD*%
M02*
