%TF.GenerationSoftware,KiCad,Pcbnew,10.0.4*%
%TF.CreationDate,2026-09-24T00:17:31-06:00*%
%TF.ProjectId,section,73656374-696f-46e2-9e6b-696361645f70,rev?*%
%TF.SameCoordinates,Original*%
%TF.FileFunction,Legend,Top*%
%TF.FilePolarity,Positive*%
%FSLAX45Y45*%
G04 Gerber Fmt 4.5, Leading zero omitted, Abs format (unit mm)*
G04 Created by KiCad (PCBNEW 10.0.4) date 2026-09-24 00:17:31*
%MOMM*%
%LPD*%
G01*
G04 APERTURE LIST*
G04 Aperture macros list*
%AMRoundRect*
0 Rectangle with rounded corners*
0 $1 Rounding radius*
0 $2 $3 $4 $5 $6 $7 $8 $9 X,Y pos of 4 corners*
0 Add a 4 corners polygon primitive as box body*
4,1,4,$2,$3,$4,$5,$6,$7,$8,$9,$2,$3,0*
0 Add four circle primitives for the rounded corners*
1,1,$1+$1,$2,$3*
1,1,$1+$1,$4,$5*
1,1,$1+$1,$6,$7*
1,1,$1+$1,$8,$9*
0 Add four rect primitives between the rounded corners*
20,1,$1+$1,$2,$3,$4,$5,0*
20,1,$1+$1,$4,$5,$6,$7,0*
20,1,$1+$1,$6,$7,$8,$9,0*
20,1,$1+$1,$8,$9,$2,$3,0*%
G04 Aperture macros list end*
%ADD10C,0.120000*%
%ADD11C,0.075000*%
%ADD12C,0.175000*%
%ADD13C,0.150000*%
%ADD14RoundRect,0.200000X0.275000X-0.200000X0.275000X0.200000X-0.275000X0.200000X-0.275000X-0.200000X0*%
%ADD15RoundRect,0.225000X0.225000X0.250000X-0.225000X0.250000X-0.225000X-0.250000X0.225000X-0.250000X0*%
%ADD16RoundRect,0.000000X-0.350000X-0.075000X0.350000X-0.075000X0.350000X0.075000X-0.350000X0.075000X0*%
%ADD17RoundRect,0.000000X-0.300000X-0.075000X0.300000X-0.075000X0.300000X0.075000X-0.300000X0.075000X0*%
%ADD18RoundRect,0.100000X-0.300000X-0.075000X0.300000X-0.075000X0.300000X0.075000X-0.300000X0.075000X0*%
%ADD19RoundRect,0.150000X-0.512500X-0.150000X0.512500X-0.150000X0.512500X0.150000X-0.512500X0.150000X0*%
%ADD20RoundRect,0.218750X-0.218750X-0.256250X0.218750X-0.256250X0.218750X0.256250X-0.218750X0.256250X0*%
%ADD21RoundRect,0.200000X-0.275000X0.200000X-0.275000X-0.200000X0.275000X-0.200000X0.275000X0.200000X0*%
%ADD22RoundRect,0.200000X0.200000X0.275000X-0.200000X0.275000X-0.200000X-0.275000X0.200000X-0.275000X0*%
%ADD23RoundRect,0.200000X-0.200000X-0.275000X0.200000X-0.275000X0.200000X0.275000X-0.200000X0.275000X0*%
%ADD24RoundRect,0.250000X-0.600000X-0.725000X0.600000X-0.725000X0.600000X0.725000X-0.600000X0.725000X0*%
%ADD25O,1.700000X1.950000*%
%ADD26R,1.050000X1.050000*%
%ADD27C,1.050000*%
%ADD28RoundRect,0.225000X-0.225000X-0.250000X0.225000X-0.250000X0.225000X0.250000X-0.225000X0.250000X0*%
%ADD29RoundRect,0.250000X-0.450000X0.262500X-0.450000X-0.262500X0.450000X-0.262500X0.450000X0.262500X0*%
%ADD30RoundRect,0.150000X0.512500X0.150000X-0.512500X0.150000X-0.512500X-0.150000X0.512500X-0.150000X0*%
%ADD31R,1.200000X0.400000*%
G04 APERTURE END LIST*
D10*
X782857Y-5136386D02*
X737143Y-5136386D01*
X760000Y-5136386D02*
X760000Y-5056386D01*
X760000Y-5056386D02*
X752381Y-5067814D01*
X752381Y-5067814D02*
X744762Y-5075433D01*
X744762Y-5075433D02*
X737143Y-5079243D01*
X843809Y-5094481D02*
X817143Y-5094481D01*
X817143Y-5136386D02*
X817143Y-5056386D01*
X817143Y-5056386D02*
X855238Y-5056386D01*
X885714Y-5105909D02*
X946667Y-5105909D01*
X916190Y-5136386D02*
X916190Y-5075433D01*
X1102857Y-5064005D02*
X1106667Y-5060195D01*
X1106667Y-5060195D02*
X1114286Y-5056386D01*
X1114286Y-5056386D02*
X1133333Y-5056386D01*
X1133333Y-5056386D02*
X1140952Y-5060195D01*
X1140952Y-5060195D02*
X1144762Y-5064005D01*
X1144762Y-5064005D02*
X1148571Y-5071624D01*
X1148571Y-5071624D02*
X1148571Y-5079243D01*
X1148571Y-5079243D02*
X1144762Y-5090671D01*
X1144762Y-5090671D02*
X1099048Y-5136386D01*
X1099048Y-5136386D02*
X1148571Y-5136386D01*
X1179048Y-5132576D02*
X1190476Y-5136386D01*
X1190476Y-5136386D02*
X1209524Y-5136386D01*
X1209524Y-5136386D02*
X1217143Y-5132576D01*
X1217143Y-5132576D02*
X1220952Y-5128766D01*
X1220952Y-5128766D02*
X1224762Y-5121147D01*
X1224762Y-5121147D02*
X1224762Y-5113528D01*
X1224762Y-5113528D02*
X1220952Y-5105909D01*
X1220952Y-5105909D02*
X1217143Y-5102100D01*
X1217143Y-5102100D02*
X1209524Y-5098290D01*
X1209524Y-5098290D02*
X1194286Y-5094481D01*
X1194286Y-5094481D02*
X1186667Y-5090671D01*
X1186667Y-5090671D02*
X1182857Y-5086862D01*
X1182857Y-5086862D02*
X1179048Y-5079243D01*
X1179048Y-5079243D02*
X1179048Y-5071624D01*
X1179048Y-5071624D02*
X1182857Y-5064005D01*
X1182857Y-5064005D02*
X1186667Y-5060195D01*
X1186667Y-5060195D02*
X1194286Y-5056386D01*
X1194286Y-5056386D02*
X1213333Y-5056386D01*
X1213333Y-5056386D02*
X1224762Y-5060195D01*
X1259048Y-5105909D02*
X1320000Y-5105909D01*
X1289524Y-5136386D02*
X1289524Y-5075433D01*
X1472381Y-5056386D02*
X1521905Y-5056386D01*
X1521905Y-5056386D02*
X1495238Y-5086862D01*
X1495238Y-5086862D02*
X1506667Y-5086862D01*
X1506667Y-5086862D02*
X1514286Y-5090671D01*
X1514286Y-5090671D02*
X1518095Y-5094481D01*
X1518095Y-5094481D02*
X1521905Y-5102100D01*
X1521905Y-5102100D02*
X1521905Y-5121147D01*
X1521905Y-5121147D02*
X1518095Y-5128766D01*
X1518095Y-5128766D02*
X1514286Y-5132576D01*
X1514286Y-5132576D02*
X1506667Y-5136386D01*
X1506667Y-5136386D02*
X1483809Y-5136386D01*
X1483809Y-5136386D02*
X1476190Y-5132576D01*
X1476190Y-5132576D02*
X1472381Y-5128766D01*
X1552381Y-5132576D02*
X1563809Y-5136386D01*
X1563809Y-5136386D02*
X1582857Y-5136386D01*
X1582857Y-5136386D02*
X1590476Y-5132576D01*
X1590476Y-5132576D02*
X1594286Y-5128766D01*
X1594286Y-5128766D02*
X1598095Y-5121147D01*
X1598095Y-5121147D02*
X1598095Y-5113528D01*
X1598095Y-5113528D02*
X1594286Y-5105909D01*
X1594286Y-5105909D02*
X1590476Y-5102100D01*
X1590476Y-5102100D02*
X1582857Y-5098290D01*
X1582857Y-5098290D02*
X1567619Y-5094481D01*
X1567619Y-5094481D02*
X1560000Y-5090671D01*
X1560000Y-5090671D02*
X1556190Y-5086862D01*
X1556190Y-5086862D02*
X1552381Y-5079243D01*
X1552381Y-5079243D02*
X1552381Y-5071624D01*
X1552381Y-5071624D02*
X1556190Y-5064005D01*
X1556190Y-5064005D02*
X1560000Y-5060195D01*
X1560000Y-5060195D02*
X1567619Y-5056386D01*
X1567619Y-5056386D02*
X1586667Y-5056386D01*
X1586667Y-5056386D02*
X1598095Y-5060195D01*
X1632381Y-5105909D02*
X1693333Y-5105909D01*
X1887619Y-5083052D02*
X1887619Y-5136386D01*
X1868571Y-5052576D02*
X1849524Y-5109719D01*
X1849524Y-5109719D02*
X1899048Y-5109719D01*
X1956190Y-5094481D02*
X1929524Y-5094481D01*
X1929524Y-5136386D02*
X1929524Y-5056386D01*
X1929524Y-5056386D02*
X1967619Y-5056386D01*
X1998095Y-5105909D02*
X2059048Y-5105909D01*
X1544762Y-2936385D02*
X1544762Y-2856385D01*
X1544762Y-2856385D02*
X1575238Y-2856385D01*
X1575238Y-2856385D02*
X1582857Y-2860195D01*
X1582857Y-2860195D02*
X1586666Y-2864004D01*
X1586666Y-2864004D02*
X1590476Y-2871624D01*
X1590476Y-2871624D02*
X1590476Y-2883052D01*
X1590476Y-2883052D02*
X1586666Y-2890671D01*
X1586666Y-2890671D02*
X1582857Y-2894481D01*
X1582857Y-2894481D02*
X1575238Y-2898290D01*
X1575238Y-2898290D02*
X1544762Y-2898290D01*
X1613333Y-2856385D02*
X1659047Y-2856385D01*
X1636190Y-2936385D02*
X1636190Y-2856385D01*
X1727619Y-2936385D02*
X1681905Y-2936385D01*
X1704762Y-2936385D02*
X1704762Y-2856385D01*
X1704762Y-2856385D02*
X1697143Y-2867814D01*
X1697143Y-2867814D02*
X1689524Y-2875433D01*
X1689524Y-2875433D02*
X1681905Y-2879243D01*
X1777143Y-2856385D02*
X1784762Y-2856385D01*
X1784762Y-2856385D02*
X1792381Y-2860195D01*
X1792381Y-2860195D02*
X1796190Y-2864004D01*
X1796190Y-2864004D02*
X1800000Y-2871624D01*
X1800000Y-2871624D02*
X1803809Y-2886862D01*
X1803809Y-2886862D02*
X1803809Y-2905909D01*
X1803809Y-2905909D02*
X1800000Y-2921147D01*
X1800000Y-2921147D02*
X1796190Y-2928766D01*
X1796190Y-2928766D02*
X1792381Y-2932576D01*
X1792381Y-2932576D02*
X1784762Y-2936385D01*
X1784762Y-2936385D02*
X1777143Y-2936385D01*
X1777143Y-2936385D02*
X1769524Y-2932576D01*
X1769524Y-2932576D02*
X1765714Y-2928766D01*
X1765714Y-2928766D02*
X1761905Y-2921147D01*
X1761905Y-2921147D02*
X1758095Y-2905909D01*
X1758095Y-2905909D02*
X1758095Y-2886862D01*
X1758095Y-2886862D02*
X1761905Y-2871624D01*
X1761905Y-2871624D02*
X1765714Y-2864004D01*
X1765714Y-2864004D02*
X1769524Y-2860195D01*
X1769524Y-2860195D02*
X1777143Y-2856385D01*
X1853333Y-2856385D02*
X1860952Y-2856385D01*
X1860952Y-2856385D02*
X1868571Y-2860195D01*
X1868571Y-2860195D02*
X1872381Y-2864004D01*
X1872381Y-2864004D02*
X1876190Y-2871624D01*
X1876190Y-2871624D02*
X1880000Y-2886862D01*
X1880000Y-2886862D02*
X1880000Y-2905909D01*
X1880000Y-2905909D02*
X1876190Y-2921147D01*
X1876190Y-2921147D02*
X1872381Y-2928766D01*
X1872381Y-2928766D02*
X1868571Y-2932576D01*
X1868571Y-2932576D02*
X1860952Y-2936385D01*
X1860952Y-2936385D02*
X1853333Y-2936385D01*
X1853333Y-2936385D02*
X1845714Y-2932576D01*
X1845714Y-2932576D02*
X1841905Y-2928766D01*
X1841905Y-2928766D02*
X1838095Y-2921147D01*
X1838095Y-2921147D02*
X1834286Y-2905909D01*
X1834286Y-2905909D02*
X1834286Y-2886862D01*
X1834286Y-2886862D02*
X1838095Y-2871624D01*
X1838095Y-2871624D02*
X1841905Y-2864004D01*
X1841905Y-2864004D02*
X1845714Y-2860195D01*
X1845714Y-2860195D02*
X1853333Y-2856385D01*
X2070476Y-2883052D02*
X2070476Y-2936385D01*
X2051429Y-2852576D02*
X2032381Y-2909719D01*
X2032381Y-2909719D02*
X2081905Y-2909719D01*
X2112381Y-2905909D02*
X2173333Y-2905909D01*
X2203810Y-2856385D02*
X2222857Y-2936385D01*
X2222857Y-2936385D02*
X2238095Y-2879243D01*
X2238095Y-2879243D02*
X2253333Y-2936385D01*
X2253333Y-2936385D02*
X2272381Y-2856385D01*
X2302857Y-2936385D02*
X2302857Y-2856385D01*
X2386667Y-2936385D02*
X2360000Y-2898290D01*
X2340952Y-2936385D02*
X2340952Y-2856385D01*
X2340952Y-2856385D02*
X2371429Y-2856385D01*
X2371429Y-2856385D02*
X2379048Y-2860195D01*
X2379048Y-2860195D02*
X2382857Y-2864004D01*
X2382857Y-2864004D02*
X2386667Y-2871624D01*
X2386667Y-2871624D02*
X2386667Y-2883052D01*
X2386667Y-2883052D02*
X2382857Y-2890671D01*
X2382857Y-2890671D02*
X2379048Y-2894481D01*
X2379048Y-2894481D02*
X2371429Y-2898290D01*
X2371429Y-2898290D02*
X2340952Y-2898290D01*
X2420952Y-2894481D02*
X2447619Y-2894481D01*
X2459048Y-2936385D02*
X2420952Y-2936385D01*
X2420952Y-2936385D02*
X2420952Y-2856385D01*
X2420952Y-2856385D02*
X2459048Y-2856385D01*
X1344762Y-5636385D02*
X1318095Y-5598290D01*
X1299048Y-5636385D02*
X1299048Y-5556386D01*
X1299048Y-5556386D02*
X1329524Y-5556386D01*
X1329524Y-5556386D02*
X1337143Y-5560195D01*
X1337143Y-5560195D02*
X1340952Y-5564005D01*
X1340952Y-5564005D02*
X1344762Y-5571624D01*
X1344762Y-5571624D02*
X1344762Y-5583052D01*
X1344762Y-5583052D02*
X1340952Y-5590671D01*
X1340952Y-5590671D02*
X1337143Y-5594481D01*
X1337143Y-5594481D02*
X1329524Y-5598290D01*
X1329524Y-5598290D02*
X1299048Y-5598290D01*
X1367619Y-5556386D02*
X1413333Y-5556386D01*
X1390476Y-5636385D02*
X1390476Y-5556386D01*
X1440000Y-5636385D02*
X1440000Y-5556386D01*
X1440000Y-5556386D02*
X1459048Y-5556386D01*
X1459048Y-5556386D02*
X1470476Y-5560195D01*
X1470476Y-5560195D02*
X1478095Y-5567814D01*
X1478095Y-5567814D02*
X1481905Y-5575433D01*
X1481905Y-5575433D02*
X1485714Y-5590671D01*
X1485714Y-5590671D02*
X1485714Y-5602100D01*
X1485714Y-5602100D02*
X1481905Y-5617338D01*
X1481905Y-5617338D02*
X1478095Y-5624957D01*
X1478095Y-5624957D02*
X1470476Y-5632576D01*
X1470476Y-5632576D02*
X1459048Y-5636385D01*
X1459048Y-5636385D02*
X1440000Y-5636385D01*
X1580952Y-5556386D02*
X1580952Y-5621147D01*
X1580952Y-5621147D02*
X1584762Y-5628766D01*
X1584762Y-5628766D02*
X1588571Y-5632576D01*
X1588571Y-5632576D02*
X1596190Y-5636385D01*
X1596190Y-5636385D02*
X1611429Y-5636385D01*
X1611429Y-5636385D02*
X1619048Y-5632576D01*
X1619048Y-5632576D02*
X1622857Y-5628766D01*
X1622857Y-5628766D02*
X1626667Y-5621147D01*
X1626667Y-5621147D02*
X1626667Y-5556386D01*
X1664762Y-5636385D02*
X1664762Y-5556386D01*
X1664762Y-5556386D02*
X1710476Y-5636385D01*
X1710476Y-5636385D02*
X1710476Y-5556386D01*
X1748571Y-5636385D02*
X1748571Y-5556386D01*
X1775238Y-5556386D02*
X1820952Y-5556386D01*
X1798095Y-5636385D02*
X1798095Y-5556386D01*
X2026667Y-5552576D02*
X1958095Y-5655433D01*
X2167619Y-5556386D02*
X2217143Y-5556386D01*
X2217143Y-5556386D02*
X2190476Y-5586862D01*
X2190476Y-5586862D02*
X2201905Y-5586862D01*
X2201905Y-5586862D02*
X2209524Y-5590671D01*
X2209524Y-5590671D02*
X2213333Y-5594481D01*
X2213333Y-5594481D02*
X2217143Y-5602100D01*
X2217143Y-5602100D02*
X2217143Y-5621147D01*
X2217143Y-5621147D02*
X2213333Y-5628766D01*
X2213333Y-5628766D02*
X2209524Y-5632576D01*
X2209524Y-5632576D02*
X2201905Y-5636385D01*
X2201905Y-5636385D02*
X2179048Y-5636385D01*
X2179048Y-5636385D02*
X2171429Y-5632576D01*
X2171429Y-5632576D02*
X2167619Y-5628766D01*
X2240000Y-5556386D02*
X2266667Y-5636385D01*
X2266667Y-5636385D02*
X2293333Y-5556386D01*
X2312381Y-5556386D02*
X2361905Y-5556386D01*
X2361905Y-5556386D02*
X2335238Y-5586862D01*
X2335238Y-5586862D02*
X2346667Y-5586862D01*
X2346667Y-5586862D02*
X2354286Y-5590671D01*
X2354286Y-5590671D02*
X2358095Y-5594481D01*
X2358095Y-5594481D02*
X2361905Y-5602100D01*
X2361905Y-5602100D02*
X2361905Y-5621147D01*
X2361905Y-5621147D02*
X2358095Y-5628766D01*
X2358095Y-5628766D02*
X2354286Y-5632576D01*
X2354286Y-5632576D02*
X2346667Y-5636385D01*
X2346667Y-5636385D02*
X2323810Y-5636385D01*
X2323810Y-5636385D02*
X2316190Y-5632576D01*
X2316190Y-5632576D02*
X2312381Y-5628766D01*
X2453333Y-5632576D02*
X2464762Y-5636385D01*
X2464762Y-5636385D02*
X2483810Y-5636385D01*
X2483810Y-5636385D02*
X2491429Y-5632576D01*
X2491429Y-5632576D02*
X2495238Y-5628766D01*
X2495238Y-5628766D02*
X2499048Y-5621147D01*
X2499048Y-5621147D02*
X2499048Y-5613528D01*
X2499048Y-5613528D02*
X2495238Y-5605909D01*
X2495238Y-5605909D02*
X2491429Y-5602100D01*
X2491429Y-5602100D02*
X2483810Y-5598290D01*
X2483810Y-5598290D02*
X2468571Y-5594481D01*
X2468571Y-5594481D02*
X2460952Y-5590671D01*
X2460952Y-5590671D02*
X2457143Y-5586862D01*
X2457143Y-5586862D02*
X2453333Y-5579243D01*
X2453333Y-5579243D02*
X2453333Y-5571624D01*
X2453333Y-5571624D02*
X2457143Y-5564005D01*
X2457143Y-5564005D02*
X2460952Y-5560195D01*
X2460952Y-5560195D02*
X2468571Y-5556386D01*
X2468571Y-5556386D02*
X2487619Y-5556386D01*
X2487619Y-5556386D02*
X2499048Y-5560195D01*
X2533333Y-5594481D02*
X2560000Y-5594481D01*
X2571429Y-5636385D02*
X2533333Y-5636385D01*
X2533333Y-5636385D02*
X2533333Y-5556386D01*
X2533333Y-5556386D02*
X2571429Y-5556386D01*
X2643810Y-5636385D02*
X2605714Y-5636385D01*
X2605714Y-5636385D02*
X2605714Y-5556386D01*
X2659048Y-5556386D02*
X2685714Y-5636385D01*
X2685714Y-5636385D02*
X2712381Y-5556386D01*
X4790476Y-1734397D02*
X4790476Y-1791540D01*
X4790476Y-1791540D02*
X4786667Y-1802968D01*
X4786667Y-1802968D02*
X4779048Y-1810587D01*
X4779048Y-1810587D02*
X4767619Y-1814397D01*
X4767619Y-1814397D02*
X4760000Y-1814397D01*
X4824762Y-1742016D02*
X4828571Y-1738206D01*
X4828571Y-1738206D02*
X4836190Y-1734397D01*
X4836190Y-1734397D02*
X4855238Y-1734397D01*
X4855238Y-1734397D02*
X4862857Y-1738206D01*
X4862857Y-1738206D02*
X4866667Y-1742016D01*
X4866667Y-1742016D02*
X4870476Y-1749635D01*
X4870476Y-1749635D02*
X4870476Y-1757254D01*
X4870476Y-1757254D02*
X4866667Y-1768682D01*
X4866667Y-1768682D02*
X4820952Y-1814397D01*
X4820952Y-1814397D02*
X4870476Y-1814397D01*
X4965714Y-1814397D02*
X4965714Y-1734397D01*
X4965714Y-1772492D02*
X5011429Y-1772492D01*
X5011429Y-1814397D02*
X5011429Y-1734397D01*
X5064762Y-1734397D02*
X5080000Y-1734397D01*
X5080000Y-1734397D02*
X5087619Y-1738206D01*
X5087619Y-1738206D02*
X5095238Y-1745825D01*
X5095238Y-1745825D02*
X5099048Y-1761063D01*
X5099048Y-1761063D02*
X5099048Y-1787730D01*
X5099048Y-1787730D02*
X5095238Y-1802968D01*
X5095238Y-1802968D02*
X5087619Y-1810587D01*
X5087619Y-1810587D02*
X5080000Y-1814397D01*
X5080000Y-1814397D02*
X5064762Y-1814397D01*
X5064762Y-1814397D02*
X5057143Y-1810587D01*
X5057143Y-1810587D02*
X5049524Y-1802968D01*
X5049524Y-1802968D02*
X5045714Y-1787730D01*
X5045714Y-1787730D02*
X5045714Y-1761063D01*
X5045714Y-1761063D02*
X5049524Y-1745825D01*
X5049524Y-1745825D02*
X5057143Y-1738206D01*
X5057143Y-1738206D02*
X5064762Y-1734397D01*
X5129524Y-1810587D02*
X5140952Y-1814397D01*
X5140952Y-1814397D02*
X5160000Y-1814397D01*
X5160000Y-1814397D02*
X5167619Y-1810587D01*
X5167619Y-1810587D02*
X5171429Y-1806778D01*
X5171429Y-1806778D02*
X5175238Y-1799159D01*
X5175238Y-1799159D02*
X5175238Y-1791540D01*
X5175238Y-1791540D02*
X5171429Y-1783921D01*
X5171429Y-1783921D02*
X5167619Y-1780111D01*
X5167619Y-1780111D02*
X5160000Y-1776301D01*
X5160000Y-1776301D02*
X5144762Y-1772492D01*
X5144762Y-1772492D02*
X5137143Y-1768682D01*
X5137143Y-1768682D02*
X5133333Y-1764873D01*
X5133333Y-1764873D02*
X5129524Y-1757254D01*
X5129524Y-1757254D02*
X5129524Y-1749635D01*
X5129524Y-1749635D02*
X5133333Y-1742016D01*
X5133333Y-1742016D02*
X5137143Y-1738206D01*
X5137143Y-1738206D02*
X5144762Y-1734397D01*
X5144762Y-1734397D02*
X5163810Y-1734397D01*
X5163810Y-1734397D02*
X5175238Y-1738206D01*
X5198095Y-1734397D02*
X5243810Y-1734397D01*
X5220952Y-1814397D02*
X5220952Y-1734397D01*
X4596190Y-1943192D02*
X4550476Y-1943192D01*
X4573333Y-1943192D02*
X4573333Y-1863192D01*
X4573333Y-1863192D02*
X4565714Y-1874621D01*
X4565714Y-1874621D02*
X4558095Y-1882240D01*
X4558095Y-1882240D02*
X4550476Y-1886049D01*
X4680000Y-1863192D02*
X4706667Y-1943192D01*
X4706667Y-1943192D02*
X4733333Y-1863192D01*
X4805714Y-1935573D02*
X4801905Y-1939383D01*
X4801905Y-1939383D02*
X4790476Y-1943192D01*
X4790476Y-1943192D02*
X4782857Y-1943192D01*
X4782857Y-1943192D02*
X4771429Y-1939383D01*
X4771429Y-1939383D02*
X4763810Y-1931764D01*
X4763810Y-1931764D02*
X4760000Y-1924145D01*
X4760000Y-1924145D02*
X4756190Y-1908907D01*
X4756190Y-1908907D02*
X4756190Y-1897478D01*
X4756190Y-1897478D02*
X4760000Y-1882240D01*
X4760000Y-1882240D02*
X4763810Y-1874621D01*
X4763810Y-1874621D02*
X4771429Y-1867002D01*
X4771429Y-1867002D02*
X4782857Y-1863192D01*
X4782857Y-1863192D02*
X4790476Y-1863192D01*
X4790476Y-1863192D02*
X4801905Y-1867002D01*
X4801905Y-1867002D02*
X4805714Y-1870811D01*
X4885714Y-1935573D02*
X4881905Y-1939383D01*
X4881905Y-1939383D02*
X4870476Y-1943192D01*
X4870476Y-1943192D02*
X4862857Y-1943192D01*
X4862857Y-1943192D02*
X4851429Y-1939383D01*
X4851429Y-1939383D02*
X4843810Y-1931764D01*
X4843810Y-1931764D02*
X4840000Y-1924145D01*
X4840000Y-1924145D02*
X4836190Y-1908907D01*
X4836190Y-1908907D02*
X4836190Y-1897478D01*
X4836190Y-1897478D02*
X4840000Y-1882240D01*
X4840000Y-1882240D02*
X4843810Y-1874621D01*
X4843810Y-1874621D02*
X4851429Y-1867002D01*
X4851429Y-1867002D02*
X4862857Y-1863192D01*
X4862857Y-1863192D02*
X4870476Y-1863192D01*
X4870476Y-1863192D02*
X4881905Y-1867002D01*
X4881905Y-1867002D02*
X4885714Y-1870811D01*
X5099048Y-1870811D02*
X5102857Y-1867002D01*
X5102857Y-1867002D02*
X5110476Y-1863192D01*
X5110476Y-1863192D02*
X5129524Y-1863192D01*
X5129524Y-1863192D02*
X5137143Y-1867002D01*
X5137143Y-1867002D02*
X5140952Y-1870811D01*
X5140952Y-1870811D02*
X5144762Y-1878430D01*
X5144762Y-1878430D02*
X5144762Y-1886049D01*
X5144762Y-1886049D02*
X5140952Y-1897478D01*
X5140952Y-1897478D02*
X5095238Y-1943192D01*
X5095238Y-1943192D02*
X5144762Y-1943192D01*
X5281905Y-1867002D02*
X5274286Y-1863192D01*
X5274286Y-1863192D02*
X5262857Y-1863192D01*
X5262857Y-1863192D02*
X5251429Y-1867002D01*
X5251429Y-1867002D02*
X5243810Y-1874621D01*
X5243810Y-1874621D02*
X5240000Y-1882240D01*
X5240000Y-1882240D02*
X5236191Y-1897478D01*
X5236191Y-1897478D02*
X5236191Y-1908907D01*
X5236191Y-1908907D02*
X5240000Y-1924145D01*
X5240000Y-1924145D02*
X5243810Y-1931764D01*
X5243810Y-1931764D02*
X5251429Y-1939383D01*
X5251429Y-1939383D02*
X5262857Y-1943192D01*
X5262857Y-1943192D02*
X5270476Y-1943192D01*
X5270476Y-1943192D02*
X5281905Y-1939383D01*
X5281905Y-1939383D02*
X5285714Y-1935573D01*
X5285714Y-1935573D02*
X5285714Y-1908907D01*
X5285714Y-1908907D02*
X5270476Y-1908907D01*
X5320000Y-1943192D02*
X5320000Y-1863192D01*
X5320000Y-1863192D02*
X5365714Y-1943192D01*
X5365714Y-1943192D02*
X5365714Y-1863192D01*
X5403810Y-1943192D02*
X5403810Y-1863192D01*
X5403810Y-1863192D02*
X5422857Y-1863192D01*
X5422857Y-1863192D02*
X5434286Y-1867002D01*
X5434286Y-1867002D02*
X5441905Y-1874621D01*
X5441905Y-1874621D02*
X5445714Y-1882240D01*
X5445714Y-1882240D02*
X5449524Y-1897478D01*
X5449524Y-1897478D02*
X5449524Y-1908907D01*
X5449524Y-1908907D02*
X5445714Y-1924145D01*
X5445714Y-1924145D02*
X5441905Y-1931764D01*
X5441905Y-1931764D02*
X5434286Y-1939383D01*
X5434286Y-1939383D02*
X5422857Y-1943192D01*
X5422857Y-1943192D02*
X5403810Y-1943192D01*
X4542857Y-1991988D02*
X4592381Y-1991988D01*
X4592381Y-1991988D02*
X4565714Y-2022464D01*
X4565714Y-2022464D02*
X4577143Y-2022464D01*
X4577143Y-2022464D02*
X4584762Y-2026273D01*
X4584762Y-2026273D02*
X4588571Y-2030083D01*
X4588571Y-2030083D02*
X4592381Y-2037702D01*
X4592381Y-2037702D02*
X4592381Y-2056750D01*
X4592381Y-2056750D02*
X4588571Y-2064369D01*
X4588571Y-2064369D02*
X4584762Y-2068178D01*
X4584762Y-2068178D02*
X4577143Y-2071988D01*
X4577143Y-2071988D02*
X4554286Y-2071988D01*
X4554286Y-2071988D02*
X4546667Y-2068178D01*
X4546667Y-2068178D02*
X4542857Y-2064369D01*
X4729524Y-1995797D02*
X4721905Y-1991988D01*
X4721905Y-1991988D02*
X4710476Y-1991988D01*
X4710476Y-1991988D02*
X4699048Y-1995797D01*
X4699048Y-1995797D02*
X4691429Y-2003416D01*
X4691429Y-2003416D02*
X4687619Y-2011035D01*
X4687619Y-2011035D02*
X4683809Y-2026273D01*
X4683809Y-2026273D02*
X4683809Y-2037702D01*
X4683809Y-2037702D02*
X4687619Y-2052940D01*
X4687619Y-2052940D02*
X4691429Y-2060559D01*
X4691429Y-2060559D02*
X4699048Y-2068178D01*
X4699048Y-2068178D02*
X4710476Y-2071988D01*
X4710476Y-2071988D02*
X4718095Y-2071988D01*
X4718095Y-2071988D02*
X4729524Y-2068178D01*
X4729524Y-2068178D02*
X4733333Y-2064369D01*
X4733333Y-2064369D02*
X4733333Y-2037702D01*
X4733333Y-2037702D02*
X4718095Y-2037702D01*
X4767619Y-2071988D02*
X4767619Y-1991988D01*
X4767619Y-1991988D02*
X4813333Y-2071988D01*
X4813333Y-2071988D02*
X4813333Y-1991988D01*
X4851429Y-2071988D02*
X4851429Y-1991988D01*
X4851429Y-1991988D02*
X4870476Y-1991988D01*
X4870476Y-1991988D02*
X4881905Y-1995797D01*
X4881905Y-1995797D02*
X4889524Y-2003416D01*
X4889524Y-2003416D02*
X4893333Y-2011035D01*
X4893333Y-2011035D02*
X4897143Y-2026273D01*
X4897143Y-2026273D02*
X4897143Y-2037702D01*
X4897143Y-2037702D02*
X4893333Y-2052940D01*
X4893333Y-2052940D02*
X4889524Y-2060559D01*
X4889524Y-2060559D02*
X4881905Y-2068178D01*
X4881905Y-2068178D02*
X4870476Y-2071988D01*
X4870476Y-2071988D02*
X4851429Y-2071988D01*
X5148571Y-2018654D02*
X5148571Y-2071988D01*
X5129524Y-1988178D02*
X5110476Y-2045321D01*
X5110476Y-2045321D02*
X5160000Y-2045321D01*
X5247619Y-2068178D02*
X5259048Y-2071988D01*
X5259048Y-2071988D02*
X5278095Y-2071988D01*
X5278095Y-2071988D02*
X5285714Y-2068178D01*
X5285714Y-2068178D02*
X5289524Y-2064369D01*
X5289524Y-2064369D02*
X5293333Y-2056750D01*
X5293333Y-2056750D02*
X5293333Y-2049131D01*
X5293333Y-2049131D02*
X5289524Y-2041512D01*
X5289524Y-2041512D02*
X5285714Y-2037702D01*
X5285714Y-2037702D02*
X5278095Y-2033892D01*
X5278095Y-2033892D02*
X5262857Y-2030083D01*
X5262857Y-2030083D02*
X5255238Y-2026273D01*
X5255238Y-2026273D02*
X5251429Y-2022464D01*
X5251429Y-2022464D02*
X5247619Y-2014845D01*
X5247619Y-2014845D02*
X5247619Y-2007226D01*
X5247619Y-2007226D02*
X5251429Y-1999607D01*
X5251429Y-1999607D02*
X5255238Y-1995797D01*
X5255238Y-1995797D02*
X5262857Y-1991988D01*
X5262857Y-1991988D02*
X5281905Y-1991988D01*
X5281905Y-1991988D02*
X5293333Y-1995797D01*
X5373333Y-2064369D02*
X5369524Y-2068178D01*
X5369524Y-2068178D02*
X5358095Y-2071988D01*
X5358095Y-2071988D02*
X5350476Y-2071988D01*
X5350476Y-2071988D02*
X5339048Y-2068178D01*
X5339048Y-2068178D02*
X5331429Y-2060559D01*
X5331429Y-2060559D02*
X5327619Y-2052940D01*
X5327619Y-2052940D02*
X5323810Y-2037702D01*
X5323810Y-2037702D02*
X5323810Y-2026273D01*
X5323810Y-2026273D02*
X5327619Y-2011035D01*
X5327619Y-2011035D02*
X5331429Y-2003416D01*
X5331429Y-2003416D02*
X5339048Y-1995797D01*
X5339048Y-1995797D02*
X5350476Y-1991988D01*
X5350476Y-1991988D02*
X5358095Y-1991988D01*
X5358095Y-1991988D02*
X5369524Y-1995797D01*
X5369524Y-1995797D02*
X5373333Y-1999607D01*
X5407619Y-2071988D02*
X5407619Y-1991988D01*
X5453333Y-2071988D02*
X5419048Y-2026273D01*
X5453333Y-1991988D02*
X5407619Y-2037702D01*
X4611429Y-2120783D02*
X4573333Y-2120783D01*
X4573333Y-2120783D02*
X4569524Y-2158879D01*
X4569524Y-2158879D02*
X4573333Y-2155069D01*
X4573333Y-2155069D02*
X4580952Y-2151260D01*
X4580952Y-2151260D02*
X4600000Y-2151260D01*
X4600000Y-2151260D02*
X4607619Y-2155069D01*
X4607619Y-2155069D02*
X4611429Y-2158879D01*
X4611429Y-2158879D02*
X4615238Y-2166498D01*
X4615238Y-2166498D02*
X4615238Y-2185545D01*
X4615238Y-2185545D02*
X4611429Y-2193164D01*
X4611429Y-2193164D02*
X4607619Y-2196974D01*
X4607619Y-2196974D02*
X4600000Y-2200783D01*
X4600000Y-2200783D02*
X4580952Y-2200783D01*
X4580952Y-2200783D02*
X4573333Y-2196974D01*
X4573333Y-2196974D02*
X4569524Y-2193164D01*
X4706667Y-2196974D02*
X4718095Y-2200783D01*
X4718095Y-2200783D02*
X4737143Y-2200783D01*
X4737143Y-2200783D02*
X4744762Y-2196974D01*
X4744762Y-2196974D02*
X4748571Y-2193164D01*
X4748571Y-2193164D02*
X4752381Y-2185545D01*
X4752381Y-2185545D02*
X4752381Y-2177926D01*
X4752381Y-2177926D02*
X4748571Y-2170307D01*
X4748571Y-2170307D02*
X4744762Y-2166498D01*
X4744762Y-2166498D02*
X4737143Y-2162688D01*
X4737143Y-2162688D02*
X4721905Y-2158879D01*
X4721905Y-2158879D02*
X4714286Y-2155069D01*
X4714286Y-2155069D02*
X4710476Y-2151260D01*
X4710476Y-2151260D02*
X4706667Y-2143640D01*
X4706667Y-2143640D02*
X4706667Y-2136021D01*
X4706667Y-2136021D02*
X4710476Y-2128402D01*
X4710476Y-2128402D02*
X4714286Y-2124593D01*
X4714286Y-2124593D02*
X4721905Y-2120783D01*
X4721905Y-2120783D02*
X4740952Y-2120783D01*
X4740952Y-2120783D02*
X4752381Y-2124593D01*
X4786667Y-2200783D02*
X4786667Y-2120783D01*
X4786667Y-2120783D02*
X4805714Y-2120783D01*
X4805714Y-2120783D02*
X4817143Y-2124593D01*
X4817143Y-2124593D02*
X4824762Y-2132212D01*
X4824762Y-2132212D02*
X4828571Y-2139831D01*
X4828571Y-2139831D02*
X4832381Y-2155069D01*
X4832381Y-2155069D02*
X4832381Y-2166498D01*
X4832381Y-2166498D02*
X4828571Y-2181736D01*
X4828571Y-2181736D02*
X4824762Y-2189355D01*
X4824762Y-2189355D02*
X4817143Y-2196974D01*
X4817143Y-2196974D02*
X4805714Y-2200783D01*
X4805714Y-2200783D02*
X4786667Y-2200783D01*
X4866667Y-2200783D02*
X4866667Y-2120783D01*
X5121905Y-2120783D02*
X5106667Y-2120783D01*
X5106667Y-2120783D02*
X5099048Y-2124593D01*
X5099048Y-2124593D02*
X5095238Y-2128402D01*
X5095238Y-2128402D02*
X5087619Y-2139831D01*
X5087619Y-2139831D02*
X5083810Y-2155069D01*
X5083810Y-2155069D02*
X5083810Y-2185545D01*
X5083810Y-2185545D02*
X5087619Y-2193164D01*
X5087619Y-2193164D02*
X5091429Y-2196974D01*
X5091429Y-2196974D02*
X5099048Y-2200783D01*
X5099048Y-2200783D02*
X5114286Y-2200783D01*
X5114286Y-2200783D02*
X5121905Y-2196974D01*
X5121905Y-2196974D02*
X5125714Y-2193164D01*
X5125714Y-2193164D02*
X5129524Y-2185545D01*
X5129524Y-2185545D02*
X5129524Y-2166498D01*
X5129524Y-2166498D02*
X5125714Y-2158879D01*
X5125714Y-2158879D02*
X5121905Y-2155069D01*
X5121905Y-2155069D02*
X5114286Y-2151260D01*
X5114286Y-2151260D02*
X5099048Y-2151260D01*
X5099048Y-2151260D02*
X5091429Y-2155069D01*
X5091429Y-2155069D02*
X5087619Y-2158879D01*
X5087619Y-2158879D02*
X5083810Y-2166498D01*
X5220952Y-2196974D02*
X5232381Y-2200783D01*
X5232381Y-2200783D02*
X5251429Y-2200783D01*
X5251429Y-2200783D02*
X5259048Y-2196974D01*
X5259048Y-2196974D02*
X5262857Y-2193164D01*
X5262857Y-2193164D02*
X5266667Y-2185545D01*
X5266667Y-2185545D02*
X5266667Y-2177926D01*
X5266667Y-2177926D02*
X5262857Y-2170307D01*
X5262857Y-2170307D02*
X5259048Y-2166498D01*
X5259048Y-2166498D02*
X5251429Y-2162688D01*
X5251429Y-2162688D02*
X5236191Y-2158879D01*
X5236191Y-2158879D02*
X5228572Y-2155069D01*
X5228572Y-2155069D02*
X5224762Y-2151260D01*
X5224762Y-2151260D02*
X5220952Y-2143640D01*
X5220952Y-2143640D02*
X5220952Y-2136021D01*
X5220952Y-2136021D02*
X5224762Y-2128402D01*
X5224762Y-2128402D02*
X5228572Y-2124593D01*
X5228572Y-2124593D02*
X5236191Y-2120783D01*
X5236191Y-2120783D02*
X5255238Y-2120783D01*
X5255238Y-2120783D02*
X5266667Y-2124593D01*
X5300953Y-2200783D02*
X5300953Y-2120783D01*
X5300953Y-2120783D02*
X5320000Y-2120783D01*
X5320000Y-2120783D02*
X5331429Y-2124593D01*
X5331429Y-2124593D02*
X5339048Y-2132212D01*
X5339048Y-2132212D02*
X5342857Y-2139831D01*
X5342857Y-2139831D02*
X5346667Y-2155069D01*
X5346667Y-2155069D02*
X5346667Y-2166498D01*
X5346667Y-2166498D02*
X5342857Y-2181736D01*
X5342857Y-2181736D02*
X5339048Y-2189355D01*
X5339048Y-2189355D02*
X5331429Y-2196974D01*
X5331429Y-2196974D02*
X5320000Y-2200783D01*
X5320000Y-2200783D02*
X5300953Y-2200783D01*
X5396191Y-2120783D02*
X5411429Y-2120783D01*
X5411429Y-2120783D02*
X5419048Y-2124593D01*
X5419048Y-2124593D02*
X5426667Y-2132212D01*
X5426667Y-2132212D02*
X5430476Y-2147450D01*
X5430476Y-2147450D02*
X5430476Y-2174117D01*
X5430476Y-2174117D02*
X5426667Y-2189355D01*
X5426667Y-2189355D02*
X5419048Y-2196974D01*
X5419048Y-2196974D02*
X5411429Y-2200783D01*
X5411429Y-2200783D02*
X5396191Y-2200783D01*
X5396191Y-2200783D02*
X5388572Y-2196974D01*
X5388572Y-2196974D02*
X5380953Y-2189355D01*
X5380953Y-2189355D02*
X5377143Y-2174117D01*
X5377143Y-2174117D02*
X5377143Y-2147450D01*
X5377143Y-2147450D02*
X5380953Y-2132212D01*
X5380953Y-2132212D02*
X5388572Y-2124593D01*
X5388572Y-2124593D02*
X5396191Y-2120783D01*
X4514286Y-2249579D02*
X4567619Y-2249579D01*
X4567619Y-2249579D02*
X4533333Y-2329579D01*
X4704762Y-2321960D02*
X4700952Y-2325769D01*
X4700952Y-2325769D02*
X4689524Y-2329579D01*
X4689524Y-2329579D02*
X4681905Y-2329579D01*
X4681905Y-2329579D02*
X4670476Y-2325769D01*
X4670476Y-2325769D02*
X4662857Y-2318150D01*
X4662857Y-2318150D02*
X4659048Y-2310531D01*
X4659048Y-2310531D02*
X4655238Y-2295293D01*
X4655238Y-2295293D02*
X4655238Y-2283865D01*
X4655238Y-2283865D02*
X4659048Y-2268626D01*
X4659048Y-2268626D02*
X4662857Y-2261007D01*
X4662857Y-2261007D02*
X4670476Y-2253388D01*
X4670476Y-2253388D02*
X4681905Y-2249579D01*
X4681905Y-2249579D02*
X4689524Y-2249579D01*
X4689524Y-2249579D02*
X4700952Y-2253388D01*
X4700952Y-2253388D02*
X4704762Y-2257198D01*
X4735238Y-2325769D02*
X4746667Y-2329579D01*
X4746667Y-2329579D02*
X4765714Y-2329579D01*
X4765714Y-2329579D02*
X4773333Y-2325769D01*
X4773333Y-2325769D02*
X4777143Y-2321960D01*
X4777143Y-2321960D02*
X4780952Y-2314341D01*
X4780952Y-2314341D02*
X4780952Y-2306722D01*
X4780952Y-2306722D02*
X4777143Y-2299103D01*
X4777143Y-2299103D02*
X4773333Y-2295293D01*
X4773333Y-2295293D02*
X4765714Y-2291484D01*
X4765714Y-2291484D02*
X4750476Y-2287674D01*
X4750476Y-2287674D02*
X4742857Y-2283865D01*
X4742857Y-2283865D02*
X4739048Y-2280055D01*
X4739048Y-2280055D02*
X4735238Y-2272436D01*
X4735238Y-2272436D02*
X4735238Y-2264817D01*
X4735238Y-2264817D02*
X4739048Y-2257198D01*
X4739048Y-2257198D02*
X4742857Y-2253388D01*
X4742857Y-2253388D02*
X4750476Y-2249579D01*
X4750476Y-2249579D02*
X4769524Y-2249579D01*
X4769524Y-2249579D02*
X4780952Y-2253388D01*
X4815238Y-2276245D02*
X4815238Y-2329579D01*
X4815238Y-2283865D02*
X4819048Y-2280055D01*
X4819048Y-2280055D02*
X4826667Y-2276245D01*
X4826667Y-2276245D02*
X4838095Y-2276245D01*
X4838095Y-2276245D02*
X4845714Y-2280055D01*
X4845714Y-2280055D02*
X4849524Y-2287674D01*
X4849524Y-2287674D02*
X4849524Y-2329579D01*
X5081905Y-2283865D02*
X5074286Y-2280055D01*
X5074286Y-2280055D02*
X5070476Y-2276245D01*
X5070476Y-2276245D02*
X5066667Y-2268626D01*
X5066667Y-2268626D02*
X5066667Y-2264817D01*
X5066667Y-2264817D02*
X5070476Y-2257198D01*
X5070476Y-2257198D02*
X5074286Y-2253388D01*
X5074286Y-2253388D02*
X5081905Y-2249579D01*
X5081905Y-2249579D02*
X5097143Y-2249579D01*
X5097143Y-2249579D02*
X5104762Y-2253388D01*
X5104762Y-2253388D02*
X5108572Y-2257198D01*
X5108572Y-2257198D02*
X5112381Y-2264817D01*
X5112381Y-2264817D02*
X5112381Y-2268626D01*
X5112381Y-2268626D02*
X5108572Y-2276245D01*
X5108572Y-2276245D02*
X5104762Y-2280055D01*
X5104762Y-2280055D02*
X5097143Y-2283865D01*
X5097143Y-2283865D02*
X5081905Y-2283865D01*
X5081905Y-2283865D02*
X5074286Y-2287674D01*
X5074286Y-2287674D02*
X5070476Y-2291484D01*
X5070476Y-2291484D02*
X5066667Y-2299103D01*
X5066667Y-2299103D02*
X5066667Y-2314341D01*
X5066667Y-2314341D02*
X5070476Y-2321960D01*
X5070476Y-2321960D02*
X5074286Y-2325769D01*
X5074286Y-2325769D02*
X5081905Y-2329579D01*
X5081905Y-2329579D02*
X5097143Y-2329579D01*
X5097143Y-2329579D02*
X5104762Y-2325769D01*
X5104762Y-2325769D02*
X5108572Y-2321960D01*
X5108572Y-2321960D02*
X5112381Y-2314341D01*
X5112381Y-2314341D02*
X5112381Y-2299103D01*
X5112381Y-2299103D02*
X5108572Y-2291484D01*
X5108572Y-2291484D02*
X5104762Y-2287674D01*
X5104762Y-2287674D02*
X5097143Y-2283865D01*
X5207619Y-2329579D02*
X5207619Y-2249579D01*
X5207619Y-2249579D02*
X5226667Y-2249579D01*
X5226667Y-2249579D02*
X5238095Y-2253388D01*
X5238095Y-2253388D02*
X5245714Y-2261007D01*
X5245714Y-2261007D02*
X5249524Y-2268626D01*
X5249524Y-2268626D02*
X5253334Y-2283865D01*
X5253334Y-2283865D02*
X5253334Y-2295293D01*
X5253334Y-2295293D02*
X5249524Y-2310531D01*
X5249524Y-2310531D02*
X5245714Y-2318150D01*
X5245714Y-2318150D02*
X5238095Y-2325769D01*
X5238095Y-2325769D02*
X5226667Y-2329579D01*
X5226667Y-2329579D02*
X5207619Y-2329579D01*
X5333334Y-2329579D02*
X5306667Y-2291484D01*
X5287619Y-2329579D02*
X5287619Y-2249579D01*
X5287619Y-2249579D02*
X5318095Y-2249579D01*
X5318095Y-2249579D02*
X5325714Y-2253388D01*
X5325714Y-2253388D02*
X5329524Y-2257198D01*
X5329524Y-2257198D02*
X5333334Y-2264817D01*
X5333334Y-2264817D02*
X5333334Y-2276245D01*
X5333334Y-2276245D02*
X5329524Y-2283865D01*
X5329524Y-2283865D02*
X5325714Y-2287674D01*
X5325714Y-2287674D02*
X5318095Y-2291484D01*
X5318095Y-2291484D02*
X5287619Y-2291484D01*
X5367619Y-2329579D02*
X5367619Y-2249579D01*
X5367619Y-2249579D02*
X5386667Y-2249579D01*
X5386667Y-2249579D02*
X5398095Y-2253388D01*
X5398095Y-2253388D02*
X5405714Y-2261007D01*
X5405714Y-2261007D02*
X5409524Y-2268626D01*
X5409524Y-2268626D02*
X5413334Y-2283865D01*
X5413334Y-2283865D02*
X5413334Y-2295293D01*
X5413334Y-2295293D02*
X5409524Y-2310531D01*
X5409524Y-2310531D02*
X5405714Y-2318150D01*
X5405714Y-2318150D02*
X5398095Y-2325769D01*
X5398095Y-2325769D02*
X5386667Y-2329579D01*
X5386667Y-2329579D02*
X5367619Y-2329579D01*
X5462857Y-2291484D02*
X5462857Y-2329579D01*
X5436191Y-2249579D02*
X5462857Y-2291484D01*
X5462857Y-2291484D02*
X5489524Y-2249579D01*
X4533333Y-2458374D02*
X4548571Y-2458374D01*
X4548571Y-2458374D02*
X4556190Y-2454565D01*
X4556190Y-2454565D02*
X4560000Y-2450755D01*
X4560000Y-2450755D02*
X4567619Y-2439327D01*
X4567619Y-2439327D02*
X4571429Y-2424089D01*
X4571429Y-2424089D02*
X4571429Y-2393612D01*
X4571429Y-2393612D02*
X4567619Y-2385993D01*
X4567619Y-2385993D02*
X4563810Y-2382184D01*
X4563810Y-2382184D02*
X4556190Y-2378374D01*
X4556190Y-2378374D02*
X4540952Y-2378374D01*
X4540952Y-2378374D02*
X4533333Y-2382184D01*
X4533333Y-2382184D02*
X4529524Y-2385993D01*
X4529524Y-2385993D02*
X4525714Y-2393612D01*
X4525714Y-2393612D02*
X4525714Y-2412660D01*
X4525714Y-2412660D02*
X4529524Y-2420279D01*
X4529524Y-2420279D02*
X4533333Y-2424089D01*
X4533333Y-2424089D02*
X4540952Y-2427898D01*
X4540952Y-2427898D02*
X4556190Y-2427898D01*
X4556190Y-2427898D02*
X4563810Y-2424089D01*
X4563810Y-2424089D02*
X4567619Y-2420279D01*
X4567619Y-2420279D02*
X4571429Y-2412660D01*
X4693333Y-2416470D02*
X4666667Y-2416470D01*
X4666667Y-2458374D02*
X4666667Y-2378374D01*
X4666667Y-2378374D02*
X4704762Y-2378374D01*
X4731429Y-2435517D02*
X4769524Y-2435517D01*
X4723810Y-2458374D02*
X4750476Y-2378374D01*
X4750476Y-2378374D02*
X4777143Y-2458374D01*
X4803810Y-2378374D02*
X4803810Y-2443136D01*
X4803810Y-2443136D02*
X4807619Y-2450755D01*
X4807619Y-2450755D02*
X4811429Y-2454565D01*
X4811429Y-2454565D02*
X4819048Y-2458374D01*
X4819048Y-2458374D02*
X4834286Y-2458374D01*
X4834286Y-2458374D02*
X4841905Y-2454565D01*
X4841905Y-2454565D02*
X4845714Y-2450755D01*
X4845714Y-2450755D02*
X4849524Y-2443136D01*
X4849524Y-2443136D02*
X4849524Y-2378374D01*
X4925714Y-2458374D02*
X4887619Y-2458374D01*
X4887619Y-2458374D02*
X4887619Y-2378374D01*
X4940952Y-2378374D02*
X4986667Y-2378374D01*
X4963809Y-2458374D02*
X4963809Y-2378374D01*
X5116190Y-2458374D02*
X5070476Y-2458374D01*
X5093333Y-2458374D02*
X5093333Y-2378374D01*
X5093333Y-2378374D02*
X5085714Y-2389803D01*
X5085714Y-2389803D02*
X5078095Y-2397422D01*
X5078095Y-2397422D02*
X5070476Y-2401231D01*
X5165714Y-2378374D02*
X5173333Y-2378374D01*
X5173333Y-2378374D02*
X5180952Y-2382184D01*
X5180952Y-2382184D02*
X5184762Y-2385993D01*
X5184762Y-2385993D02*
X5188571Y-2393612D01*
X5188571Y-2393612D02*
X5192381Y-2408851D01*
X5192381Y-2408851D02*
X5192381Y-2427898D01*
X5192381Y-2427898D02*
X5188571Y-2443136D01*
X5188571Y-2443136D02*
X5184762Y-2450755D01*
X5184762Y-2450755D02*
X5180952Y-2454565D01*
X5180952Y-2454565D02*
X5173333Y-2458374D01*
X5173333Y-2458374D02*
X5165714Y-2458374D01*
X5165714Y-2458374D02*
X5158095Y-2454565D01*
X5158095Y-2454565D02*
X5154286Y-2450755D01*
X5154286Y-2450755D02*
X5150476Y-2443136D01*
X5150476Y-2443136D02*
X5146667Y-2427898D01*
X5146667Y-2427898D02*
X5146667Y-2408851D01*
X5146667Y-2408851D02*
X5150476Y-2393612D01*
X5150476Y-2393612D02*
X5154286Y-2385993D01*
X5154286Y-2385993D02*
X5158095Y-2382184D01*
X5158095Y-2382184D02*
X5165714Y-2378374D01*
X5333333Y-2458374D02*
X5306667Y-2420279D01*
X5287619Y-2458374D02*
X5287619Y-2378374D01*
X5287619Y-2378374D02*
X5318095Y-2378374D01*
X5318095Y-2378374D02*
X5325714Y-2382184D01*
X5325714Y-2382184D02*
X5329524Y-2385993D01*
X5329524Y-2385993D02*
X5333333Y-2393612D01*
X5333333Y-2393612D02*
X5333333Y-2405041D01*
X5333333Y-2405041D02*
X5329524Y-2412660D01*
X5329524Y-2412660D02*
X5325714Y-2416470D01*
X5325714Y-2416470D02*
X5318095Y-2420279D01*
X5318095Y-2420279D02*
X5287619Y-2420279D01*
X5367619Y-2416470D02*
X5394286Y-2416470D01*
X5405714Y-2458374D02*
X5367619Y-2458374D01*
X5367619Y-2458374D02*
X5367619Y-2378374D01*
X5367619Y-2378374D02*
X5405714Y-2378374D01*
X5466667Y-2416470D02*
X5440000Y-2416470D01*
X5440000Y-2458374D02*
X5440000Y-2378374D01*
X5440000Y-2378374D02*
X5478095Y-2378374D01*
X5198571Y-4736386D02*
X5171905Y-4698290D01*
X5152857Y-4736386D02*
X5152857Y-4656386D01*
X5152857Y-4656386D02*
X5183333Y-4656386D01*
X5183333Y-4656386D02*
X5190952Y-4660195D01*
X5190952Y-4660195D02*
X5194762Y-4664005D01*
X5194762Y-4664005D02*
X5198571Y-4671624D01*
X5198571Y-4671624D02*
X5198571Y-4683052D01*
X5198571Y-4683052D02*
X5194762Y-4690671D01*
X5194762Y-4690671D02*
X5190952Y-4694481D01*
X5190952Y-4694481D02*
X5183333Y-4698290D01*
X5183333Y-4698290D02*
X5152857Y-4698290D01*
X5274762Y-4736386D02*
X5229048Y-4736386D01*
X5251905Y-4736386D02*
X5251905Y-4656386D01*
X5251905Y-4656386D02*
X5244286Y-4667814D01*
X5244286Y-4667814D02*
X5236667Y-4675433D01*
X5236667Y-4675433D02*
X5229048Y-4679243D01*
X5320476Y-4690671D02*
X5312857Y-4686862D01*
X5312857Y-4686862D02*
X5309048Y-4683052D01*
X5309048Y-4683052D02*
X5305238Y-4675433D01*
X5305238Y-4675433D02*
X5305238Y-4671624D01*
X5305238Y-4671624D02*
X5309048Y-4664005D01*
X5309048Y-4664005D02*
X5312857Y-4660195D01*
X5312857Y-4660195D02*
X5320476Y-4656386D01*
X5320476Y-4656386D02*
X5335714Y-4656386D01*
X5335714Y-4656386D02*
X5343333Y-4660195D01*
X5343333Y-4660195D02*
X5347143Y-4664005D01*
X5347143Y-4664005D02*
X5350952Y-4671624D01*
X5350952Y-4671624D02*
X5350952Y-4675433D01*
X5350952Y-4675433D02*
X5347143Y-4683052D01*
X5347143Y-4683052D02*
X5343333Y-4686862D01*
X5343333Y-4686862D02*
X5335714Y-4690671D01*
X5335714Y-4690671D02*
X5320476Y-4690671D01*
X5320476Y-4690671D02*
X5312857Y-4694481D01*
X5312857Y-4694481D02*
X5309048Y-4698290D01*
X5309048Y-4698290D02*
X5305238Y-4705909D01*
X5305238Y-4705909D02*
X5305238Y-4721147D01*
X5305238Y-4721147D02*
X5309048Y-4728766D01*
X5309048Y-4728766D02*
X5312857Y-4732576D01*
X5312857Y-4732576D02*
X5320476Y-4736386D01*
X5320476Y-4736386D02*
X5335714Y-4736386D01*
X5335714Y-4736386D02*
X5343333Y-4732576D01*
X5343333Y-4732576D02*
X5347143Y-4728766D01*
X5347143Y-4728766D02*
X5350952Y-4721147D01*
X5350952Y-4721147D02*
X5350952Y-4705909D01*
X5350952Y-4705909D02*
X5347143Y-4698290D01*
X5347143Y-4698290D02*
X5343333Y-4694481D01*
X5343333Y-4694481D02*
X5335714Y-4690671D01*
X1206667Y-1828766D02*
X1202857Y-1832576D01*
X1202857Y-1832576D02*
X1191429Y-1836385D01*
X1191429Y-1836385D02*
X1183810Y-1836385D01*
X1183810Y-1836385D02*
X1172381Y-1832576D01*
X1172381Y-1832576D02*
X1164762Y-1824957D01*
X1164762Y-1824957D02*
X1160952Y-1817338D01*
X1160952Y-1817338D02*
X1157143Y-1802100D01*
X1157143Y-1802100D02*
X1157143Y-1790671D01*
X1157143Y-1790671D02*
X1160952Y-1775433D01*
X1160952Y-1775433D02*
X1164762Y-1767814D01*
X1164762Y-1767814D02*
X1172381Y-1760195D01*
X1172381Y-1760195D02*
X1183810Y-1756385D01*
X1183810Y-1756385D02*
X1191429Y-1756385D01*
X1191429Y-1756385D02*
X1202857Y-1760195D01*
X1202857Y-1760195D02*
X1206667Y-1764004D01*
X1282857Y-1836385D02*
X1237143Y-1836385D01*
X1260000Y-1836385D02*
X1260000Y-1756385D01*
X1260000Y-1756385D02*
X1252381Y-1767814D01*
X1252381Y-1767814D02*
X1244762Y-1775433D01*
X1244762Y-1775433D02*
X1237143Y-1779243D01*
X3986667Y-3818766D02*
X3982857Y-3822576D01*
X3982857Y-3822576D02*
X3971429Y-3826385D01*
X3971429Y-3826385D02*
X3963809Y-3826385D01*
X3963809Y-3826385D02*
X3952381Y-3822576D01*
X3952381Y-3822576D02*
X3944762Y-3814957D01*
X3944762Y-3814957D02*
X3940952Y-3807338D01*
X3940952Y-3807338D02*
X3937143Y-3792100D01*
X3937143Y-3792100D02*
X3937143Y-3780671D01*
X3937143Y-3780671D02*
X3940952Y-3765433D01*
X3940952Y-3765433D02*
X3944762Y-3757814D01*
X3944762Y-3757814D02*
X3952381Y-3750195D01*
X3952381Y-3750195D02*
X3963809Y-3746385D01*
X3963809Y-3746385D02*
X3971429Y-3746385D01*
X3971429Y-3746385D02*
X3982857Y-3750195D01*
X3982857Y-3750195D02*
X3986667Y-3754004D01*
X4013333Y-3746385D02*
X4066667Y-3746385D01*
X4066667Y-3746385D02*
X4032381Y-3826385D01*
X2986667Y-4518766D02*
X2982857Y-4522576D01*
X2982857Y-4522576D02*
X2971429Y-4526386D01*
X2971429Y-4526386D02*
X2963809Y-4526386D01*
X2963809Y-4526386D02*
X2952381Y-4522576D01*
X2952381Y-4522576D02*
X2944762Y-4514957D01*
X2944762Y-4514957D02*
X2940952Y-4507338D01*
X2940952Y-4507338D02*
X2937143Y-4492100D01*
X2937143Y-4492100D02*
X2937143Y-4480671D01*
X2937143Y-4480671D02*
X2940952Y-4465433D01*
X2940952Y-4465433D02*
X2944762Y-4457814D01*
X2944762Y-4457814D02*
X2952381Y-4450195D01*
X2952381Y-4450195D02*
X2963809Y-4446386D01*
X2963809Y-4446386D02*
X2971429Y-4446386D01*
X2971429Y-4446386D02*
X2982857Y-4450195D01*
X2982857Y-4450195D02*
X2986667Y-4454005D01*
X3055238Y-4446386D02*
X3040000Y-4446386D01*
X3040000Y-4446386D02*
X3032381Y-4450195D01*
X3032381Y-4450195D02*
X3028571Y-4454005D01*
X3028571Y-4454005D02*
X3020952Y-4465433D01*
X3020952Y-4465433D02*
X3017143Y-4480671D01*
X3017143Y-4480671D02*
X3017143Y-4511147D01*
X3017143Y-4511147D02*
X3020952Y-4518766D01*
X3020952Y-4518766D02*
X3024762Y-4522576D01*
X3024762Y-4522576D02*
X3032381Y-4526386D01*
X3032381Y-4526386D02*
X3047619Y-4526386D01*
X3047619Y-4526386D02*
X3055238Y-4522576D01*
X3055238Y-4522576D02*
X3059048Y-4518766D01*
X3059048Y-4518766D02*
X3062857Y-4511147D01*
X3062857Y-4511147D02*
X3062857Y-4492100D01*
X3062857Y-4492100D02*
X3059048Y-4484481D01*
X3059048Y-4484481D02*
X3055238Y-4480671D01*
X3055238Y-4480671D02*
X3047619Y-4476862D01*
X3047619Y-4476862D02*
X3032381Y-4476862D01*
X3032381Y-4476862D02*
X3024762Y-4480671D01*
X3024762Y-4480671D02*
X3020952Y-4484481D01*
X3020952Y-4484481D02*
X3017143Y-4492100D01*
X2626667Y-2736386D02*
X2600000Y-2698290D01*
X2580952Y-2736386D02*
X2580952Y-2656386D01*
X2580952Y-2656386D02*
X2611429Y-2656386D01*
X2611429Y-2656386D02*
X2619048Y-2660195D01*
X2619048Y-2660195D02*
X2622857Y-2664005D01*
X2622857Y-2664005D02*
X2626667Y-2671624D01*
X2626667Y-2671624D02*
X2626667Y-2683052D01*
X2626667Y-2683052D02*
X2622857Y-2690671D01*
X2622857Y-2690671D02*
X2619048Y-2694481D01*
X2619048Y-2694481D02*
X2611429Y-2698290D01*
X2611429Y-2698290D02*
X2580952Y-2698290D01*
X2653333Y-2656386D02*
X2702857Y-2656386D01*
X2702857Y-2656386D02*
X2676191Y-2686862D01*
X2676191Y-2686862D02*
X2687619Y-2686862D01*
X2687619Y-2686862D02*
X2695238Y-2690671D01*
X2695238Y-2690671D02*
X2699048Y-2694481D01*
X2699048Y-2694481D02*
X2702857Y-2702100D01*
X2702857Y-2702100D02*
X2702857Y-2721147D01*
X2702857Y-2721147D02*
X2699048Y-2728766D01*
X2699048Y-2728766D02*
X2695238Y-2732576D01*
X2695238Y-2732576D02*
X2687619Y-2736386D01*
X2687619Y-2736386D02*
X2664762Y-2736386D01*
X2664762Y-2736386D02*
X2657143Y-2732576D01*
X2657143Y-2732576D02*
X2653333Y-2728766D01*
X4239048Y-2576386D02*
X4239048Y-2641147D01*
X4239048Y-2641147D02*
X4242857Y-2648766D01*
X4242857Y-2648766D02*
X4246667Y-2652576D01*
X4246667Y-2652576D02*
X4254286Y-2656386D01*
X4254286Y-2656386D02*
X4269524Y-2656386D01*
X4269524Y-2656386D02*
X4277143Y-2652576D01*
X4277143Y-2652576D02*
X4280952Y-2648766D01*
X4280952Y-2648766D02*
X4284762Y-2641147D01*
X4284762Y-2641147D02*
X4284762Y-2576386D01*
X4357143Y-2576386D02*
X4341905Y-2576386D01*
X4341905Y-2576386D02*
X4334286Y-2580195D01*
X4334286Y-2580195D02*
X4330476Y-2584005D01*
X4330476Y-2584005D02*
X4322857Y-2595433D01*
X4322857Y-2595433D02*
X4319048Y-2610671D01*
X4319048Y-2610671D02*
X4319048Y-2641147D01*
X4319048Y-2641147D02*
X4322857Y-2648766D01*
X4322857Y-2648766D02*
X4326667Y-2652576D01*
X4326667Y-2652576D02*
X4334286Y-2656386D01*
X4334286Y-2656386D02*
X4349524Y-2656386D01*
X4349524Y-2656386D02*
X4357143Y-2652576D01*
X4357143Y-2652576D02*
X4360952Y-2648766D01*
X4360952Y-2648766D02*
X4364762Y-2641147D01*
X4364762Y-2641147D02*
X4364762Y-2622100D01*
X4364762Y-2622100D02*
X4360952Y-2614481D01*
X4360952Y-2614481D02*
X4357143Y-2610671D01*
X4357143Y-2610671D02*
X4349524Y-2606862D01*
X4349524Y-2606862D02*
X4334286Y-2606862D01*
X4334286Y-2606862D02*
X4326667Y-2610671D01*
X4326667Y-2610671D02*
X4322857Y-2614481D01*
X4322857Y-2614481D02*
X4319048Y-2622100D01*
X3939048Y-4416386D02*
X3939048Y-4481147D01*
X3939048Y-4481147D02*
X3942857Y-4488766D01*
X3942857Y-4488766D02*
X3946667Y-4492576D01*
X3946667Y-4492576D02*
X3954286Y-4496386D01*
X3954286Y-4496386D02*
X3969524Y-4496386D01*
X3969524Y-4496386D02*
X3977143Y-4492576D01*
X3977143Y-4492576D02*
X3980952Y-4488766D01*
X3980952Y-4488766D02*
X3984762Y-4481147D01*
X3984762Y-4481147D02*
X3984762Y-4416386D01*
X4060952Y-4416386D02*
X4022857Y-4416386D01*
X4022857Y-4416386D02*
X4019047Y-4454481D01*
X4019047Y-4454481D02*
X4022857Y-4450671D01*
X4022857Y-4450671D02*
X4030476Y-4446862D01*
X4030476Y-4446862D02*
X4049524Y-4446862D01*
X4049524Y-4446862D02*
X4057143Y-4450671D01*
X4057143Y-4450671D02*
X4060952Y-4454481D01*
X4060952Y-4454481D02*
X4064762Y-4462100D01*
X4064762Y-4462100D02*
X4064762Y-4481147D01*
X4064762Y-4481147D02*
X4060952Y-4488766D01*
X4060952Y-4488766D02*
X4057143Y-4492576D01*
X4057143Y-4492576D02*
X4049524Y-4496386D01*
X4049524Y-4496386D02*
X4030476Y-4496386D01*
X4030476Y-4496386D02*
X4022857Y-4492576D01*
X4022857Y-4492576D02*
X4019047Y-4488766D01*
X3586667Y-1086386D02*
X3560000Y-1048290D01*
X3540952Y-1086386D02*
X3540952Y-1006385D01*
X3540952Y-1006385D02*
X3571429Y-1006385D01*
X3571429Y-1006385D02*
X3579048Y-1010195D01*
X3579048Y-1010195D02*
X3582857Y-1014004D01*
X3582857Y-1014004D02*
X3586667Y-1021624D01*
X3586667Y-1021624D02*
X3586667Y-1033052D01*
X3586667Y-1033052D02*
X3582857Y-1040671D01*
X3582857Y-1040671D02*
X3579048Y-1044481D01*
X3579048Y-1044481D02*
X3571429Y-1048290D01*
X3571429Y-1048290D02*
X3540952Y-1048290D01*
X3632381Y-1040671D02*
X3624762Y-1036862D01*
X3624762Y-1036862D02*
X3620952Y-1033052D01*
X3620952Y-1033052D02*
X3617143Y-1025433D01*
X3617143Y-1025433D02*
X3617143Y-1021624D01*
X3617143Y-1021624D02*
X3620952Y-1014004D01*
X3620952Y-1014004D02*
X3624762Y-1010195D01*
X3624762Y-1010195D02*
X3632381Y-1006385D01*
X3632381Y-1006385D02*
X3647619Y-1006385D01*
X3647619Y-1006385D02*
X3655238Y-1010195D01*
X3655238Y-1010195D02*
X3659048Y-1014004D01*
X3659048Y-1014004D02*
X3662857Y-1021624D01*
X3662857Y-1021624D02*
X3662857Y-1025433D01*
X3662857Y-1025433D02*
X3659048Y-1033052D01*
X3659048Y-1033052D02*
X3655238Y-1036862D01*
X3655238Y-1036862D02*
X3647619Y-1040671D01*
X3647619Y-1040671D02*
X3632381Y-1040671D01*
X3632381Y-1040671D02*
X3624762Y-1044481D01*
X3624762Y-1044481D02*
X3620952Y-1048290D01*
X3620952Y-1048290D02*
X3617143Y-1055909D01*
X3617143Y-1055909D02*
X3617143Y-1071147D01*
X3617143Y-1071147D02*
X3620952Y-1078766D01*
X3620952Y-1078766D02*
X3624762Y-1082576D01*
X3624762Y-1082576D02*
X3632381Y-1086386D01*
X3632381Y-1086386D02*
X3647619Y-1086386D01*
X3647619Y-1086386D02*
X3655238Y-1082576D01*
X3655238Y-1082576D02*
X3659048Y-1078766D01*
X3659048Y-1078766D02*
X3662857Y-1071147D01*
X3662857Y-1071147D02*
X3662857Y-1055909D01*
X3662857Y-1055909D02*
X3659048Y-1048290D01*
X3659048Y-1048290D02*
X3655238Y-1044481D01*
X3655238Y-1044481D02*
X3647619Y-1040671D01*
X3698571Y-2986385D02*
X3671905Y-2948290D01*
X3652857Y-2986385D02*
X3652857Y-2906385D01*
X3652857Y-2906385D02*
X3683333Y-2906385D01*
X3683333Y-2906385D02*
X3690952Y-2910195D01*
X3690952Y-2910195D02*
X3694762Y-2914004D01*
X3694762Y-2914004D02*
X3698571Y-2921624D01*
X3698571Y-2921624D02*
X3698571Y-2933052D01*
X3698571Y-2933052D02*
X3694762Y-2940671D01*
X3694762Y-2940671D02*
X3690952Y-2944481D01*
X3690952Y-2944481D02*
X3683333Y-2948290D01*
X3683333Y-2948290D02*
X3652857Y-2948290D01*
X3774762Y-2986385D02*
X3729047Y-2986385D01*
X3751905Y-2986385D02*
X3751905Y-2906385D01*
X3751905Y-2906385D02*
X3744286Y-2917814D01*
X3744286Y-2917814D02*
X3736667Y-2925433D01*
X3736667Y-2925433D02*
X3729047Y-2929243D01*
X3843333Y-2906385D02*
X3828095Y-2906385D01*
X3828095Y-2906385D02*
X3820476Y-2910195D01*
X3820476Y-2910195D02*
X3816667Y-2914004D01*
X3816667Y-2914004D02*
X3809048Y-2925433D01*
X3809048Y-2925433D02*
X3805238Y-2940671D01*
X3805238Y-2940671D02*
X3805238Y-2971147D01*
X3805238Y-2971147D02*
X3809048Y-2978766D01*
X3809048Y-2978766D02*
X3812857Y-2982576D01*
X3812857Y-2982576D02*
X3820476Y-2986385D01*
X3820476Y-2986385D02*
X3835714Y-2986385D01*
X3835714Y-2986385D02*
X3843333Y-2982576D01*
X3843333Y-2982576D02*
X3847143Y-2978766D01*
X3847143Y-2978766D02*
X3850952Y-2971147D01*
X3850952Y-2971147D02*
X3850952Y-2952100D01*
X3850952Y-2952100D02*
X3847143Y-2944481D01*
X3847143Y-2944481D02*
X3843333Y-2940671D01*
X3843333Y-2940671D02*
X3835714Y-2936862D01*
X3835714Y-2936862D02*
X3820476Y-2936862D01*
X3820476Y-2936862D02*
X3812857Y-2940671D01*
X3812857Y-2940671D02*
X3809048Y-2944481D01*
X3809048Y-2944481D02*
X3805238Y-2952100D01*
X2498571Y-5436386D02*
X2471905Y-5398290D01*
X2452857Y-5436386D02*
X2452857Y-5356386D01*
X2452857Y-5356386D02*
X2483333Y-5356386D01*
X2483333Y-5356386D02*
X2490952Y-5360195D01*
X2490952Y-5360195D02*
X2494762Y-5364005D01*
X2494762Y-5364005D02*
X2498571Y-5371624D01*
X2498571Y-5371624D02*
X2498571Y-5383052D01*
X2498571Y-5383052D02*
X2494762Y-5390671D01*
X2494762Y-5390671D02*
X2490952Y-5394481D01*
X2490952Y-5394481D02*
X2483333Y-5398290D01*
X2483333Y-5398290D02*
X2452857Y-5398290D01*
X2574762Y-5436386D02*
X2529048Y-5436386D01*
X2551905Y-5436386D02*
X2551905Y-5356386D01*
X2551905Y-5356386D02*
X2544286Y-5367814D01*
X2544286Y-5367814D02*
X2536667Y-5375433D01*
X2536667Y-5375433D02*
X2529048Y-5379243D01*
X2605238Y-5364005D02*
X2609048Y-5360195D01*
X2609048Y-5360195D02*
X2616667Y-5356386D01*
X2616667Y-5356386D02*
X2635714Y-5356386D01*
X2635714Y-5356386D02*
X2643333Y-5360195D01*
X2643333Y-5360195D02*
X2647143Y-5364005D01*
X2647143Y-5364005D02*
X2650952Y-5371624D01*
X2650952Y-5371624D02*
X2650952Y-5379243D01*
X2650952Y-5379243D02*
X2647143Y-5390671D01*
X2647143Y-5390671D02*
X2601429Y-5436386D01*
X2601429Y-5436386D02*
X2650952Y-5436386D01*
X2986667Y-3618766D02*
X2982857Y-3622576D01*
X2982857Y-3622576D02*
X2971429Y-3626385D01*
X2971429Y-3626385D02*
X2963809Y-3626385D01*
X2963809Y-3626385D02*
X2952381Y-3622576D01*
X2952381Y-3622576D02*
X2944762Y-3614957D01*
X2944762Y-3614957D02*
X2940952Y-3607338D01*
X2940952Y-3607338D02*
X2937143Y-3592100D01*
X2937143Y-3592100D02*
X2937143Y-3580671D01*
X2937143Y-3580671D02*
X2940952Y-3565433D01*
X2940952Y-3565433D02*
X2944762Y-3557814D01*
X2944762Y-3557814D02*
X2952381Y-3550195D01*
X2952381Y-3550195D02*
X2963809Y-3546385D01*
X2963809Y-3546385D02*
X2971429Y-3546385D01*
X2971429Y-3546385D02*
X2982857Y-3550195D01*
X2982857Y-3550195D02*
X2986667Y-3554004D01*
X3059048Y-3546385D02*
X3020952Y-3546385D01*
X3020952Y-3546385D02*
X3017143Y-3584481D01*
X3017143Y-3584481D02*
X3020952Y-3580671D01*
X3020952Y-3580671D02*
X3028571Y-3576862D01*
X3028571Y-3576862D02*
X3047619Y-3576862D01*
X3047619Y-3576862D02*
X3055238Y-3580671D01*
X3055238Y-3580671D02*
X3059048Y-3584481D01*
X3059048Y-3584481D02*
X3062857Y-3592100D01*
X3062857Y-3592100D02*
X3062857Y-3611147D01*
X3062857Y-3611147D02*
X3059048Y-3618766D01*
X3059048Y-3618766D02*
X3055238Y-3622576D01*
X3055238Y-3622576D02*
X3047619Y-3626385D01*
X3047619Y-3626385D02*
X3028571Y-3626385D01*
X3028571Y-3626385D02*
X3020952Y-3622576D01*
X3020952Y-3622576D02*
X3017143Y-3618766D01*
X2498571Y-4516386D02*
X2471905Y-4478290D01*
X2452857Y-4516386D02*
X2452857Y-4436386D01*
X2452857Y-4436386D02*
X2483333Y-4436386D01*
X2483333Y-4436386D02*
X2490952Y-4440195D01*
X2490952Y-4440195D02*
X2494762Y-4444005D01*
X2494762Y-4444005D02*
X2498571Y-4451624D01*
X2498571Y-4451624D02*
X2498571Y-4463052D01*
X2498571Y-4463052D02*
X2494762Y-4470671D01*
X2494762Y-4470671D02*
X2490952Y-4474481D01*
X2490952Y-4474481D02*
X2483333Y-4478290D01*
X2483333Y-4478290D02*
X2452857Y-4478290D01*
X2574762Y-4516386D02*
X2529048Y-4516386D01*
X2551905Y-4516386D02*
X2551905Y-4436386D01*
X2551905Y-4436386D02*
X2544286Y-4447814D01*
X2544286Y-4447814D02*
X2536667Y-4455433D01*
X2536667Y-4455433D02*
X2529048Y-4459243D01*
X2624286Y-4436386D02*
X2631905Y-4436386D01*
X2631905Y-4436386D02*
X2639524Y-4440195D01*
X2639524Y-4440195D02*
X2643333Y-4444005D01*
X2643333Y-4444005D02*
X2647143Y-4451624D01*
X2647143Y-4451624D02*
X2650952Y-4466862D01*
X2650952Y-4466862D02*
X2650952Y-4485909D01*
X2650952Y-4485909D02*
X2647143Y-4501147D01*
X2647143Y-4501147D02*
X2643333Y-4508766D01*
X2643333Y-4508766D02*
X2639524Y-4512576D01*
X2639524Y-4512576D02*
X2631905Y-4516386D01*
X2631905Y-4516386D02*
X2624286Y-4516386D01*
X2624286Y-4516386D02*
X2616667Y-4512576D01*
X2616667Y-4512576D02*
X2612857Y-4508766D01*
X2612857Y-4508766D02*
X2609048Y-4501147D01*
X2609048Y-4501147D02*
X2605238Y-4485909D01*
X2605238Y-4485909D02*
X2605238Y-4466862D01*
X2605238Y-4466862D02*
X2609048Y-4451624D01*
X2609048Y-4451624D02*
X2612857Y-4444005D01*
X2612857Y-4444005D02*
X2616667Y-4440195D01*
X2616667Y-4440195D02*
X2624286Y-4436386D01*
X2939048Y-5126386D02*
X2939048Y-5191147D01*
X2939048Y-5191147D02*
X2942857Y-5198766D01*
X2942857Y-5198766D02*
X2946667Y-5202576D01*
X2946667Y-5202576D02*
X2954286Y-5206386D01*
X2954286Y-5206386D02*
X2969524Y-5206386D01*
X2969524Y-5206386D02*
X2977143Y-5202576D01*
X2977143Y-5202576D02*
X2980952Y-5198766D01*
X2980952Y-5198766D02*
X2984762Y-5191147D01*
X2984762Y-5191147D02*
X2984762Y-5126386D01*
X3057143Y-5153052D02*
X3057143Y-5206386D01*
X3038095Y-5122576D02*
X3019047Y-5179719D01*
X3019047Y-5179719D02*
X3068571Y-5179719D01*
X4886667Y-3818766D02*
X4882857Y-3822576D01*
X4882857Y-3822576D02*
X4871429Y-3826385D01*
X4871429Y-3826385D02*
X4863810Y-3826385D01*
X4863810Y-3826385D02*
X4852381Y-3822576D01*
X4852381Y-3822576D02*
X4844762Y-3814957D01*
X4844762Y-3814957D02*
X4840952Y-3807338D01*
X4840952Y-3807338D02*
X4837143Y-3792100D01*
X4837143Y-3792100D02*
X4837143Y-3780671D01*
X4837143Y-3780671D02*
X4840952Y-3765433D01*
X4840952Y-3765433D02*
X4844762Y-3757814D01*
X4844762Y-3757814D02*
X4852381Y-3750195D01*
X4852381Y-3750195D02*
X4863810Y-3746385D01*
X4863810Y-3746385D02*
X4871429Y-3746385D01*
X4871429Y-3746385D02*
X4882857Y-3750195D01*
X4882857Y-3750195D02*
X4886667Y-3754004D01*
X4924762Y-3826385D02*
X4940000Y-3826385D01*
X4940000Y-3826385D02*
X4947619Y-3822576D01*
X4947619Y-3822576D02*
X4951429Y-3818766D01*
X4951429Y-3818766D02*
X4959048Y-3807338D01*
X4959048Y-3807338D02*
X4962857Y-3792100D01*
X4962857Y-3792100D02*
X4962857Y-3761624D01*
X4962857Y-3761624D02*
X4959048Y-3754004D01*
X4959048Y-3754004D02*
X4955238Y-3750195D01*
X4955238Y-3750195D02*
X4947619Y-3746385D01*
X4947619Y-3746385D02*
X4932381Y-3746385D01*
X4932381Y-3746385D02*
X4924762Y-3750195D01*
X4924762Y-3750195D02*
X4920952Y-3754004D01*
X4920952Y-3754004D02*
X4917143Y-3761624D01*
X4917143Y-3761624D02*
X4917143Y-3780671D01*
X4917143Y-3780671D02*
X4920952Y-3788290D01*
X4920952Y-3788290D02*
X4924762Y-3792100D01*
X4924762Y-3792100D02*
X4932381Y-3795909D01*
X4932381Y-3795909D02*
X4947619Y-3795909D01*
X4947619Y-3795909D02*
X4955238Y-3792100D01*
X4955238Y-3792100D02*
X4959048Y-3788290D01*
X4959048Y-3788290D02*
X4962857Y-3780671D01*
X4839048Y-4416386D02*
X4839048Y-4481147D01*
X4839048Y-4481147D02*
X4842857Y-4488766D01*
X4842857Y-4488766D02*
X4846667Y-4492576D01*
X4846667Y-4492576D02*
X4854286Y-4496386D01*
X4854286Y-4496386D02*
X4869524Y-4496386D01*
X4869524Y-4496386D02*
X4877143Y-4492576D01*
X4877143Y-4492576D02*
X4880952Y-4488766D01*
X4880952Y-4488766D02*
X4884762Y-4481147D01*
X4884762Y-4481147D02*
X4884762Y-4416386D01*
X4915238Y-4416386D02*
X4968571Y-4416386D01*
X4968571Y-4416386D02*
X4934286Y-4496386D01*
X2939048Y-4226386D02*
X2939048Y-4291147D01*
X2939048Y-4291147D02*
X2942857Y-4298766D01*
X2942857Y-4298766D02*
X2946667Y-4302576D01*
X2946667Y-4302576D02*
X2954286Y-4306386D01*
X2954286Y-4306386D02*
X2969524Y-4306386D01*
X2969524Y-4306386D02*
X2977143Y-4302576D01*
X2977143Y-4302576D02*
X2980952Y-4298766D01*
X2980952Y-4298766D02*
X2984762Y-4291147D01*
X2984762Y-4291147D02*
X2984762Y-4226386D01*
X3015238Y-4226386D02*
X3064762Y-4226386D01*
X3064762Y-4226386D02*
X3038095Y-4256862D01*
X3038095Y-4256862D02*
X3049524Y-4256862D01*
X3049524Y-4256862D02*
X3057143Y-4260671D01*
X3057143Y-4260671D02*
X3060952Y-4264481D01*
X3060952Y-4264481D02*
X3064762Y-4272100D01*
X3064762Y-4272100D02*
X3064762Y-4291147D01*
X3064762Y-4291147D02*
X3060952Y-4298766D01*
X3060952Y-4298766D02*
X3057143Y-4302576D01*
X3057143Y-4302576D02*
X3049524Y-4306386D01*
X3049524Y-4306386D02*
X3026667Y-4306386D01*
X3026667Y-4306386D02*
X3019047Y-4302576D01*
X3019047Y-4302576D02*
X3015238Y-4298766D01*
X3086667Y-1896385D02*
X3060000Y-1858290D01*
X3040952Y-1896385D02*
X3040952Y-1816385D01*
X3040952Y-1816385D02*
X3071429Y-1816385D01*
X3071429Y-1816385D02*
X3079048Y-1820195D01*
X3079048Y-1820195D02*
X3082857Y-1824004D01*
X3082857Y-1824004D02*
X3086667Y-1831624D01*
X3086667Y-1831624D02*
X3086667Y-1843052D01*
X3086667Y-1843052D02*
X3082857Y-1850671D01*
X3082857Y-1850671D02*
X3079048Y-1854481D01*
X3079048Y-1854481D02*
X3071429Y-1858290D01*
X3071429Y-1858290D02*
X3040952Y-1858290D01*
X3155238Y-1816385D02*
X3140000Y-1816385D01*
X3140000Y-1816385D02*
X3132381Y-1820195D01*
X3132381Y-1820195D02*
X3128571Y-1824004D01*
X3128571Y-1824004D02*
X3120952Y-1835433D01*
X3120952Y-1835433D02*
X3117143Y-1850671D01*
X3117143Y-1850671D02*
X3117143Y-1881147D01*
X3117143Y-1881147D02*
X3120952Y-1888766D01*
X3120952Y-1888766D02*
X3124762Y-1892576D01*
X3124762Y-1892576D02*
X3132381Y-1896385D01*
X3132381Y-1896385D02*
X3147619Y-1896385D01*
X3147619Y-1896385D02*
X3155238Y-1892576D01*
X3155238Y-1892576D02*
X3159048Y-1888766D01*
X3159048Y-1888766D02*
X3162857Y-1881147D01*
X3162857Y-1881147D02*
X3162857Y-1862100D01*
X3162857Y-1862100D02*
X3159048Y-1854481D01*
X3159048Y-1854481D02*
X3155238Y-1850671D01*
X3155238Y-1850671D02*
X3147619Y-1846862D01*
X3147619Y-1846862D02*
X3132381Y-1846862D01*
X3132381Y-1846862D02*
X3124762Y-1850671D01*
X3124762Y-1850671D02*
X3120952Y-1854481D01*
X3120952Y-1854481D02*
X3117143Y-1862100D01*
X4548571Y-3286385D02*
X4521905Y-3248290D01*
X4502857Y-3286385D02*
X4502857Y-3206385D01*
X4502857Y-3206385D02*
X4533333Y-3206385D01*
X4533333Y-3206385D02*
X4540952Y-3210195D01*
X4540952Y-3210195D02*
X4544762Y-3214004D01*
X4544762Y-3214004D02*
X4548571Y-3221624D01*
X4548571Y-3221624D02*
X4548571Y-3233052D01*
X4548571Y-3233052D02*
X4544762Y-3240671D01*
X4544762Y-3240671D02*
X4540952Y-3244481D01*
X4540952Y-3244481D02*
X4533333Y-3248290D01*
X4533333Y-3248290D02*
X4502857Y-3248290D01*
X4624762Y-3286385D02*
X4579048Y-3286385D01*
X4601905Y-3286385D02*
X4601905Y-3206385D01*
X4601905Y-3206385D02*
X4594286Y-3217814D01*
X4594286Y-3217814D02*
X4586667Y-3225433D01*
X4586667Y-3225433D02*
X4579048Y-3229243D01*
X4651429Y-3206385D02*
X4704762Y-3206385D01*
X4704762Y-3206385D02*
X4670476Y-3286385D01*
X2773333Y-3356385D02*
X2773333Y-3413528D01*
X2773333Y-3413528D02*
X2769524Y-3424957D01*
X2769524Y-3424957D02*
X2761905Y-3432576D01*
X2761905Y-3432576D02*
X2750476Y-3436385D01*
X2750476Y-3436385D02*
X2742857Y-3436385D01*
X2853333Y-3436385D02*
X2807619Y-3436385D01*
X2830476Y-3436385D02*
X2830476Y-3356385D01*
X2830476Y-3356385D02*
X2822857Y-3367814D01*
X2822857Y-3367814D02*
X2815238Y-3375433D01*
X2815238Y-3375433D02*
X2807619Y-3379243D01*
X4773333Y-706385D02*
X4773333Y-763528D01*
X4773333Y-763528D02*
X4769524Y-774957D01*
X4769524Y-774957D02*
X4761905Y-782576D01*
X4761905Y-782576D02*
X4750476Y-786385D01*
X4750476Y-786385D02*
X4742857Y-786385D01*
X4807619Y-714004D02*
X4811429Y-710195D01*
X4811429Y-710195D02*
X4819048Y-706385D01*
X4819048Y-706385D02*
X4838095Y-706385D01*
X4838095Y-706385D02*
X4845714Y-710195D01*
X4845714Y-710195D02*
X4849524Y-714004D01*
X4849524Y-714004D02*
X4853333Y-721624D01*
X4853333Y-721624D02*
X4853333Y-729243D01*
X4853333Y-729243D02*
X4849524Y-740671D01*
X4849524Y-740671D02*
X4803810Y-786385D01*
X4803810Y-786385D02*
X4853333Y-786385D01*
X3286667Y-2236386D02*
X3260000Y-2198290D01*
X3240952Y-2236386D02*
X3240952Y-2156386D01*
X3240952Y-2156386D02*
X3271429Y-2156386D01*
X3271429Y-2156386D02*
X3279048Y-2160195D01*
X3279048Y-2160195D02*
X3282857Y-2164005D01*
X3282857Y-2164005D02*
X3286667Y-2171624D01*
X3286667Y-2171624D02*
X3286667Y-2183052D01*
X3286667Y-2183052D02*
X3282857Y-2190671D01*
X3282857Y-2190671D02*
X3279048Y-2194481D01*
X3279048Y-2194481D02*
X3271429Y-2198290D01*
X3271429Y-2198290D02*
X3240952Y-2198290D01*
X3359048Y-2156386D02*
X3320952Y-2156386D01*
X3320952Y-2156386D02*
X3317143Y-2194481D01*
X3317143Y-2194481D02*
X3320952Y-2190671D01*
X3320952Y-2190671D02*
X3328571Y-2186862D01*
X3328571Y-2186862D02*
X3347619Y-2186862D01*
X3347619Y-2186862D02*
X3355238Y-2190671D01*
X3355238Y-2190671D02*
X3359048Y-2194481D01*
X3359048Y-2194481D02*
X3362857Y-2202100D01*
X3362857Y-2202100D02*
X3362857Y-2221147D01*
X3362857Y-2221147D02*
X3359048Y-2228766D01*
X3359048Y-2228766D02*
X3355238Y-2232576D01*
X3355238Y-2232576D02*
X3347619Y-2236386D01*
X3347619Y-2236386D02*
X3328571Y-2236386D01*
X3328571Y-2236386D02*
X3320952Y-2232576D01*
X3320952Y-2232576D02*
X3317143Y-2228766D01*
X1346667Y-2736386D02*
X1320000Y-2698290D01*
X1300952Y-2736386D02*
X1300952Y-2656386D01*
X1300952Y-2656386D02*
X1331429Y-2656386D01*
X1331429Y-2656386D02*
X1339048Y-2660195D01*
X1339048Y-2660195D02*
X1342857Y-2664005D01*
X1342857Y-2664005D02*
X1346667Y-2671624D01*
X1346667Y-2671624D02*
X1346667Y-2683052D01*
X1346667Y-2683052D02*
X1342857Y-2690671D01*
X1342857Y-2690671D02*
X1339048Y-2694481D01*
X1339048Y-2694481D02*
X1331429Y-2698290D01*
X1331429Y-2698290D02*
X1300952Y-2698290D01*
X1377143Y-2664005D02*
X1380952Y-2660195D01*
X1380952Y-2660195D02*
X1388571Y-2656386D01*
X1388571Y-2656386D02*
X1407619Y-2656386D01*
X1407619Y-2656386D02*
X1415238Y-2660195D01*
X1415238Y-2660195D02*
X1419048Y-2664005D01*
X1419048Y-2664005D02*
X1422857Y-2671624D01*
X1422857Y-2671624D02*
X1422857Y-2679243D01*
X1422857Y-2679243D02*
X1419048Y-2690671D01*
X1419048Y-2690671D02*
X1373333Y-2736386D01*
X1373333Y-2736386D02*
X1422857Y-2736386D01*
X1986667Y-2728766D02*
X1982857Y-2732576D01*
X1982857Y-2732576D02*
X1971429Y-2736386D01*
X1971429Y-2736386D02*
X1963809Y-2736386D01*
X1963809Y-2736386D02*
X1952381Y-2732576D01*
X1952381Y-2732576D02*
X1944762Y-2724957D01*
X1944762Y-2724957D02*
X1940952Y-2717338D01*
X1940952Y-2717338D02*
X1937143Y-2702100D01*
X1937143Y-2702100D02*
X1937143Y-2690671D01*
X1937143Y-2690671D02*
X1940952Y-2675433D01*
X1940952Y-2675433D02*
X1944762Y-2667814D01*
X1944762Y-2667814D02*
X1952381Y-2660195D01*
X1952381Y-2660195D02*
X1963809Y-2656386D01*
X1963809Y-2656386D02*
X1971429Y-2656386D01*
X1971429Y-2656386D02*
X1982857Y-2660195D01*
X1982857Y-2660195D02*
X1986667Y-2664005D01*
X2013333Y-2656386D02*
X2062857Y-2656386D01*
X2062857Y-2656386D02*
X2036190Y-2686862D01*
X2036190Y-2686862D02*
X2047619Y-2686862D01*
X2047619Y-2686862D02*
X2055238Y-2690671D01*
X2055238Y-2690671D02*
X2059048Y-2694481D01*
X2059048Y-2694481D02*
X2062857Y-2702100D01*
X2062857Y-2702100D02*
X2062857Y-2721147D01*
X2062857Y-2721147D02*
X2059048Y-2728766D01*
X2059048Y-2728766D02*
X2055238Y-2732576D01*
X2055238Y-2732576D02*
X2047619Y-2736386D01*
X2047619Y-2736386D02*
X2024762Y-2736386D01*
X2024762Y-2736386D02*
X2017143Y-2732576D01*
X2017143Y-2732576D02*
X2013333Y-2728766D01*
X2336667Y-3936385D02*
X2310000Y-3898290D01*
X2290952Y-3936385D02*
X2290952Y-3856385D01*
X2290952Y-3856385D02*
X2321429Y-3856385D01*
X2321429Y-3856385D02*
X2329048Y-3860195D01*
X2329048Y-3860195D02*
X2332857Y-3864004D01*
X2332857Y-3864004D02*
X2336667Y-3871624D01*
X2336667Y-3871624D02*
X2336667Y-3883052D01*
X2336667Y-3883052D02*
X2332857Y-3890671D01*
X2332857Y-3890671D02*
X2329048Y-3894481D01*
X2329048Y-3894481D02*
X2321429Y-3898290D01*
X2321429Y-3898290D02*
X2290952Y-3898290D01*
X2374762Y-3936385D02*
X2390000Y-3936385D01*
X2390000Y-3936385D02*
X2397619Y-3932576D01*
X2397619Y-3932576D02*
X2401429Y-3928766D01*
X2401429Y-3928766D02*
X2409048Y-3917338D01*
X2409048Y-3917338D02*
X2412857Y-3902100D01*
X2412857Y-3902100D02*
X2412857Y-3871624D01*
X2412857Y-3871624D02*
X2409048Y-3864004D01*
X2409048Y-3864004D02*
X2405238Y-3860195D01*
X2405238Y-3860195D02*
X2397619Y-3856385D01*
X2397619Y-3856385D02*
X2382381Y-3856385D01*
X2382381Y-3856385D02*
X2374762Y-3860195D01*
X2374762Y-3860195D02*
X2370952Y-3864004D01*
X2370952Y-3864004D02*
X2367143Y-3871624D01*
X2367143Y-3871624D02*
X2367143Y-3890671D01*
X2367143Y-3890671D02*
X2370952Y-3898290D01*
X2370952Y-3898290D02*
X2374762Y-3902100D01*
X2374762Y-3902100D02*
X2382381Y-3905909D01*
X2382381Y-3905909D02*
X2397619Y-3905909D01*
X2397619Y-3905909D02*
X2405238Y-3902100D01*
X2405238Y-3902100D02*
X2409048Y-3898290D01*
X2409048Y-3898290D02*
X2412857Y-3890671D01*
X4286667Y-3238766D02*
X4282857Y-3242576D01*
X4282857Y-3242576D02*
X4271429Y-3246385D01*
X4271429Y-3246385D02*
X4263810Y-3246385D01*
X4263810Y-3246385D02*
X4252381Y-3242576D01*
X4252381Y-3242576D02*
X4244762Y-3234957D01*
X4244762Y-3234957D02*
X4240952Y-3227338D01*
X4240952Y-3227338D02*
X4237143Y-3212100D01*
X4237143Y-3212100D02*
X4237143Y-3200671D01*
X4237143Y-3200671D02*
X4240952Y-3185433D01*
X4240952Y-3185433D02*
X4244762Y-3177814D01*
X4244762Y-3177814D02*
X4252381Y-3170195D01*
X4252381Y-3170195D02*
X4263810Y-3166385D01*
X4263810Y-3166385D02*
X4271429Y-3166385D01*
X4271429Y-3166385D02*
X4282857Y-3170195D01*
X4282857Y-3170195D02*
X4286667Y-3174004D01*
X4332381Y-3200671D02*
X4324762Y-3196862D01*
X4324762Y-3196862D02*
X4320952Y-3193052D01*
X4320952Y-3193052D02*
X4317143Y-3185433D01*
X4317143Y-3185433D02*
X4317143Y-3181624D01*
X4317143Y-3181624D02*
X4320952Y-3174004D01*
X4320952Y-3174004D02*
X4324762Y-3170195D01*
X4324762Y-3170195D02*
X4332381Y-3166385D01*
X4332381Y-3166385D02*
X4347619Y-3166385D01*
X4347619Y-3166385D02*
X4355238Y-3170195D01*
X4355238Y-3170195D02*
X4359048Y-3174004D01*
X4359048Y-3174004D02*
X4362857Y-3181624D01*
X4362857Y-3181624D02*
X4362857Y-3185433D01*
X4362857Y-3185433D02*
X4359048Y-3193052D01*
X4359048Y-3193052D02*
X4355238Y-3196862D01*
X4355238Y-3196862D02*
X4347619Y-3200671D01*
X4347619Y-3200671D02*
X4332381Y-3200671D01*
X4332381Y-3200671D02*
X4324762Y-3204481D01*
X4324762Y-3204481D02*
X4320952Y-3208290D01*
X4320952Y-3208290D02*
X4317143Y-3215909D01*
X4317143Y-3215909D02*
X4317143Y-3231147D01*
X4317143Y-3231147D02*
X4320952Y-3238766D01*
X4320952Y-3238766D02*
X4324762Y-3242576D01*
X4324762Y-3242576D02*
X4332381Y-3246385D01*
X4332381Y-3246385D02*
X4347619Y-3246385D01*
X4347619Y-3246385D02*
X4355238Y-3242576D01*
X4355238Y-3242576D02*
X4359048Y-3238766D01*
X4359048Y-3238766D02*
X4362857Y-3231147D01*
X4362857Y-3231147D02*
X4362857Y-3215909D01*
X4362857Y-3215909D02*
X4359048Y-3208290D01*
X4359048Y-3208290D02*
X4355238Y-3204481D01*
X4355238Y-3204481D02*
X4347619Y-3200671D01*
X3086667Y-1726385D02*
X3060000Y-1688290D01*
X3040952Y-1726385D02*
X3040952Y-1646385D01*
X3040952Y-1646385D02*
X3071429Y-1646385D01*
X3071429Y-1646385D02*
X3079048Y-1650195D01*
X3079048Y-1650195D02*
X3082857Y-1654004D01*
X3082857Y-1654004D02*
X3086667Y-1661624D01*
X3086667Y-1661624D02*
X3086667Y-1673052D01*
X3086667Y-1673052D02*
X3082857Y-1680671D01*
X3082857Y-1680671D02*
X3079048Y-1684481D01*
X3079048Y-1684481D02*
X3071429Y-1688290D01*
X3071429Y-1688290D02*
X3040952Y-1688290D01*
X3113333Y-1646385D02*
X3166667Y-1646385D01*
X3166667Y-1646385D02*
X3132381Y-1726385D01*
X3298571Y-3086385D02*
X3271905Y-3048290D01*
X3252857Y-3086385D02*
X3252857Y-3006385D01*
X3252857Y-3006385D02*
X3283333Y-3006385D01*
X3283333Y-3006385D02*
X3290952Y-3010195D01*
X3290952Y-3010195D02*
X3294762Y-3014004D01*
X3294762Y-3014004D02*
X3298571Y-3021624D01*
X3298571Y-3021624D02*
X3298571Y-3033052D01*
X3298571Y-3033052D02*
X3294762Y-3040671D01*
X3294762Y-3040671D02*
X3290952Y-3044481D01*
X3290952Y-3044481D02*
X3283333Y-3048290D01*
X3283333Y-3048290D02*
X3252857Y-3048290D01*
X3374762Y-3086385D02*
X3329047Y-3086385D01*
X3351905Y-3086385D02*
X3351905Y-3006385D01*
X3351905Y-3006385D02*
X3344286Y-3017814D01*
X3344286Y-3017814D02*
X3336667Y-3025433D01*
X3336667Y-3025433D02*
X3329047Y-3029243D01*
X3401428Y-3006385D02*
X3450952Y-3006385D01*
X3450952Y-3006385D02*
X3424286Y-3036862D01*
X3424286Y-3036862D02*
X3435714Y-3036862D01*
X3435714Y-3036862D02*
X3443333Y-3040671D01*
X3443333Y-3040671D02*
X3447143Y-3044481D01*
X3447143Y-3044481D02*
X3450952Y-3052100D01*
X3450952Y-3052100D02*
X3450952Y-3071147D01*
X3450952Y-3071147D02*
X3447143Y-3078766D01*
X3447143Y-3078766D02*
X3443333Y-3082576D01*
X3443333Y-3082576D02*
X3435714Y-3086385D01*
X3435714Y-3086385D02*
X3412857Y-3086385D01*
X3412857Y-3086385D02*
X3405238Y-3082576D01*
X3405238Y-3082576D02*
X3401428Y-3078766D01*
X3698571Y-2636386D02*
X3671905Y-2598290D01*
X3652857Y-2636386D02*
X3652857Y-2556386D01*
X3652857Y-2556386D02*
X3683333Y-2556386D01*
X3683333Y-2556386D02*
X3690952Y-2560195D01*
X3690952Y-2560195D02*
X3694762Y-2564005D01*
X3694762Y-2564005D02*
X3698571Y-2571624D01*
X3698571Y-2571624D02*
X3698571Y-2583052D01*
X3698571Y-2583052D02*
X3694762Y-2590671D01*
X3694762Y-2590671D02*
X3690952Y-2594481D01*
X3690952Y-2594481D02*
X3683333Y-2598290D01*
X3683333Y-2598290D02*
X3652857Y-2598290D01*
X3774762Y-2636386D02*
X3729047Y-2636386D01*
X3751905Y-2636386D02*
X3751905Y-2556386D01*
X3751905Y-2556386D02*
X3744286Y-2567814D01*
X3744286Y-2567814D02*
X3736667Y-2575433D01*
X3736667Y-2575433D02*
X3729047Y-2579243D01*
X3847143Y-2556386D02*
X3809048Y-2556386D01*
X3809048Y-2556386D02*
X3805238Y-2594481D01*
X3805238Y-2594481D02*
X3809048Y-2590671D01*
X3809048Y-2590671D02*
X3816667Y-2586862D01*
X3816667Y-2586862D02*
X3835714Y-2586862D01*
X3835714Y-2586862D02*
X3843333Y-2590671D01*
X3843333Y-2590671D02*
X3847143Y-2594481D01*
X3847143Y-2594481D02*
X3850952Y-2602100D01*
X3850952Y-2602100D02*
X3850952Y-2621147D01*
X3850952Y-2621147D02*
X3847143Y-2628766D01*
X3847143Y-2628766D02*
X3843333Y-2632576D01*
X3843333Y-2632576D02*
X3835714Y-2636386D01*
X3835714Y-2636386D02*
X3816667Y-2636386D01*
X3816667Y-2636386D02*
X3809048Y-2632576D01*
X3809048Y-2632576D02*
X3805238Y-2628766D01*
X1436667Y-1438766D02*
X1432857Y-1442576D01*
X1432857Y-1442576D02*
X1421429Y-1446385D01*
X1421429Y-1446385D02*
X1413809Y-1446385D01*
X1413809Y-1446385D02*
X1402381Y-1442576D01*
X1402381Y-1442576D02*
X1394762Y-1434957D01*
X1394762Y-1434957D02*
X1390952Y-1427338D01*
X1390952Y-1427338D02*
X1387143Y-1412100D01*
X1387143Y-1412100D02*
X1387143Y-1400671D01*
X1387143Y-1400671D02*
X1390952Y-1385433D01*
X1390952Y-1385433D02*
X1394762Y-1377814D01*
X1394762Y-1377814D02*
X1402381Y-1370195D01*
X1402381Y-1370195D02*
X1413809Y-1366386D01*
X1413809Y-1366386D02*
X1421429Y-1366386D01*
X1421429Y-1366386D02*
X1432857Y-1370195D01*
X1432857Y-1370195D02*
X1436667Y-1374005D01*
X1467143Y-1374005D02*
X1470952Y-1370195D01*
X1470952Y-1370195D02*
X1478571Y-1366386D01*
X1478571Y-1366386D02*
X1497619Y-1366386D01*
X1497619Y-1366386D02*
X1505238Y-1370195D01*
X1505238Y-1370195D02*
X1509048Y-1374005D01*
X1509048Y-1374005D02*
X1512857Y-1381624D01*
X1512857Y-1381624D02*
X1512857Y-1389243D01*
X1512857Y-1389243D02*
X1509048Y-1400671D01*
X1509048Y-1400671D02*
X1463333Y-1446385D01*
X1463333Y-1446385D02*
X1512857Y-1446385D01*
X2298571Y-4836386D02*
X2271905Y-4798290D01*
X2252857Y-4836386D02*
X2252857Y-4756386D01*
X2252857Y-4756386D02*
X2283333Y-4756386D01*
X2283333Y-4756386D02*
X2290952Y-4760195D01*
X2290952Y-4760195D02*
X2294762Y-4764005D01*
X2294762Y-4764005D02*
X2298571Y-4771624D01*
X2298571Y-4771624D02*
X2298571Y-4783052D01*
X2298571Y-4783052D02*
X2294762Y-4790671D01*
X2294762Y-4790671D02*
X2290952Y-4794481D01*
X2290952Y-4794481D02*
X2283333Y-4798290D01*
X2283333Y-4798290D02*
X2252857Y-4798290D01*
X2374762Y-4836386D02*
X2329048Y-4836386D01*
X2351905Y-4836386D02*
X2351905Y-4756386D01*
X2351905Y-4756386D02*
X2344286Y-4767814D01*
X2344286Y-4767814D02*
X2336667Y-4775433D01*
X2336667Y-4775433D02*
X2329048Y-4779243D01*
X2450952Y-4836386D02*
X2405238Y-4836386D01*
X2428095Y-4836386D02*
X2428095Y-4756386D01*
X2428095Y-4756386D02*
X2420476Y-4767814D01*
X2420476Y-4767814D02*
X2412857Y-4775433D01*
X2412857Y-4775433D02*
X2405238Y-4779243D01*
X1206667Y-2086385D02*
X1180000Y-2048290D01*
X1160952Y-2086385D02*
X1160952Y-2006385D01*
X1160952Y-2006385D02*
X1191429Y-2006385D01*
X1191429Y-2006385D02*
X1199048Y-2010195D01*
X1199048Y-2010195D02*
X1202857Y-2014004D01*
X1202857Y-2014004D02*
X1206667Y-2021624D01*
X1206667Y-2021624D02*
X1206667Y-2033052D01*
X1206667Y-2033052D02*
X1202857Y-2040671D01*
X1202857Y-2040671D02*
X1199048Y-2044481D01*
X1199048Y-2044481D02*
X1191429Y-2048290D01*
X1191429Y-2048290D02*
X1160952Y-2048290D01*
X1282857Y-2086385D02*
X1237143Y-2086385D01*
X1260000Y-2086385D02*
X1260000Y-2006385D01*
X1260000Y-2006385D02*
X1252381Y-2017814D01*
X1252381Y-2017814D02*
X1244762Y-2025433D01*
X1244762Y-2025433D02*
X1237143Y-2029243D01*
X1939048Y-4336386D02*
X1939048Y-4401147D01*
X1939048Y-4401147D02*
X1942857Y-4408766D01*
X1942857Y-4408766D02*
X1946667Y-4412576D01*
X1946667Y-4412576D02*
X1954286Y-4416386D01*
X1954286Y-4416386D02*
X1969524Y-4416386D01*
X1969524Y-4416386D02*
X1977143Y-4412576D01*
X1977143Y-4412576D02*
X1980952Y-4408766D01*
X1980952Y-4408766D02*
X1984762Y-4401147D01*
X1984762Y-4401147D02*
X1984762Y-4336386D01*
X2019047Y-4344005D02*
X2022857Y-4340195D01*
X2022857Y-4340195D02*
X2030476Y-4336386D01*
X2030476Y-4336386D02*
X2049524Y-4336386D01*
X2049524Y-4336386D02*
X2057143Y-4340195D01*
X2057143Y-4340195D02*
X2060952Y-4344005D01*
X2060952Y-4344005D02*
X2064762Y-4351624D01*
X2064762Y-4351624D02*
X2064762Y-4359243D01*
X2064762Y-4359243D02*
X2060952Y-4370671D01*
X2060952Y-4370671D02*
X2015238Y-4416386D01*
X2015238Y-4416386D02*
X2064762Y-4416386D01*
X3286667Y-2066385D02*
X3260000Y-2028290D01*
X3240952Y-2066385D02*
X3240952Y-1986385D01*
X3240952Y-1986385D02*
X3271429Y-1986385D01*
X3271429Y-1986385D02*
X3279048Y-1990195D01*
X3279048Y-1990195D02*
X3282857Y-1994004D01*
X3282857Y-1994004D02*
X3286667Y-2001624D01*
X3286667Y-2001624D02*
X3286667Y-2013052D01*
X3286667Y-2013052D02*
X3282857Y-2020671D01*
X3282857Y-2020671D02*
X3279048Y-2024481D01*
X3279048Y-2024481D02*
X3271429Y-2028290D01*
X3271429Y-2028290D02*
X3240952Y-2028290D01*
X3355238Y-2013052D02*
X3355238Y-2066385D01*
X3336190Y-1982576D02*
X3317143Y-2039719D01*
X3317143Y-2039719D02*
X3366667Y-2039719D01*
X1939048Y-1426385D02*
X1939048Y-1491147D01*
X1939048Y-1491147D02*
X1942857Y-1498766D01*
X1942857Y-1498766D02*
X1946667Y-1502576D01*
X1946667Y-1502576D02*
X1954286Y-1506385D01*
X1954286Y-1506385D02*
X1969524Y-1506385D01*
X1969524Y-1506385D02*
X1977143Y-1502576D01*
X1977143Y-1502576D02*
X1980952Y-1498766D01*
X1980952Y-1498766D02*
X1984762Y-1491147D01*
X1984762Y-1491147D02*
X1984762Y-1426385D01*
X2064762Y-1506385D02*
X2019047Y-1506385D01*
X2041905Y-1506385D02*
X2041905Y-1426385D01*
X2041905Y-1426385D02*
X2034286Y-1437814D01*
X2034286Y-1437814D02*
X2026667Y-1445433D01*
X2026667Y-1445433D02*
X2019047Y-1449243D01*
X4418571Y-4586386D02*
X4391905Y-4548290D01*
X4372857Y-4586386D02*
X4372857Y-4506386D01*
X4372857Y-4506386D02*
X4403333Y-4506386D01*
X4403333Y-4506386D02*
X4410952Y-4510195D01*
X4410952Y-4510195D02*
X4414762Y-4514005D01*
X4414762Y-4514005D02*
X4418571Y-4521624D01*
X4418571Y-4521624D02*
X4418571Y-4533052D01*
X4418571Y-4533052D02*
X4414762Y-4540671D01*
X4414762Y-4540671D02*
X4410952Y-4544481D01*
X4410952Y-4544481D02*
X4403333Y-4548290D01*
X4403333Y-4548290D02*
X4372857Y-4548290D01*
X4494762Y-4586386D02*
X4449048Y-4586386D01*
X4471905Y-4586386D02*
X4471905Y-4506386D01*
X4471905Y-4506386D02*
X4464286Y-4517814D01*
X4464286Y-4517814D02*
X4456667Y-4525433D01*
X4456667Y-4525433D02*
X4449048Y-4529243D01*
X4563333Y-4533052D02*
X4563333Y-4586386D01*
X4544286Y-4502576D02*
X4525238Y-4559719D01*
X4525238Y-4559719D02*
X4574762Y-4559719D01*
X1686667Y-3928766D02*
X1682857Y-3932576D01*
X1682857Y-3932576D02*
X1671429Y-3936385D01*
X1671429Y-3936385D02*
X1663809Y-3936385D01*
X1663809Y-3936385D02*
X1652381Y-3932576D01*
X1652381Y-3932576D02*
X1644762Y-3924957D01*
X1644762Y-3924957D02*
X1640952Y-3917338D01*
X1640952Y-3917338D02*
X1637143Y-3902100D01*
X1637143Y-3902100D02*
X1637143Y-3890671D01*
X1637143Y-3890671D02*
X1640952Y-3875433D01*
X1640952Y-3875433D02*
X1644762Y-3867814D01*
X1644762Y-3867814D02*
X1652381Y-3860195D01*
X1652381Y-3860195D02*
X1663809Y-3856385D01*
X1663809Y-3856385D02*
X1671429Y-3856385D01*
X1671429Y-3856385D02*
X1682857Y-3860195D01*
X1682857Y-3860195D02*
X1686667Y-3864004D01*
X1755238Y-3883052D02*
X1755238Y-3936385D01*
X1736190Y-3852576D02*
X1717143Y-3909719D01*
X1717143Y-3909719D02*
X1766667Y-3909719D01*
%TO.C,R18*%
X5197750Y-4473726D02*
X5197750Y-4426274D01*
X5302250Y-4473726D02*
X5302250Y-4426274D01*
%TO.C,C1*%
X1454058Y-1749000D02*
X1425942Y-1749000D01*
X1454058Y-1851000D02*
X1425942Y-1851000D01*
%TO.C,C7*%
X4014058Y-3884000D02*
X3985942Y-3884000D01*
X4014058Y-3986000D02*
X3985942Y-3986000D01*
%TO.C,C6*%
X3014058Y-4584000D02*
X2985942Y-4584000D01*
X3014058Y-4686000D02*
X2985942Y-4686000D01*
%TO.C,R3*%
X2377750Y-2723726D02*
X2377750Y-2676274D01*
X2482250Y-2723726D02*
X2482250Y-2676274D01*
%TO.C,U6*%
X4205000Y-2710000D02*
X4395000Y-2710000D01*
X4205000Y-2890000D02*
X4395000Y-2890000D01*
D11*
X4193750Y-2710000D02*
G75*
G02*
X4186250Y-2710000I-3750J0D01*
G01*
X4186250Y-2710000D02*
G75*
G02*
X4193750Y-2710000I3750J0D01*
G01*
%TO.C,U5*%
D10*
X3909000Y-4044000D02*
X4091000Y-4044000D01*
X3909000Y-4049000D02*
X3909000Y-4044000D01*
X3909000Y-4356000D02*
X3909000Y-4351000D01*
X4091000Y-4044000D02*
X4091000Y-4049000D01*
X4091000Y-4161000D02*
X4091000Y-4239000D01*
X4091000Y-4351000D02*
X4091000Y-4356000D01*
X4091000Y-4356000D02*
X3909000Y-4356000D01*
X3855000Y-4049000D02*
X3831000Y-4016000D01*
X3879000Y-4016000D01*
X3855000Y-4049000D01*
G36*
X3855000Y-4049000D02*
G01*
X3831000Y-4016000D01*
X3879000Y-4016000D01*
X3855000Y-4049000D01*
G37*
%TO.C,R8*%
X3583722Y-1149000D02*
X3616278Y-1149000D01*
X3583722Y-1251000D02*
X3616278Y-1251000D01*
%TO.C,R16*%
X3897750Y-2926274D02*
X3897750Y-2973726D01*
X4002250Y-2926274D02*
X4002250Y-2973726D01*
%TO.C,R12*%
X2497750Y-5126274D02*
X2497750Y-5173726D01*
X2602250Y-5126274D02*
X2602250Y-5173726D01*
%TO.C,C5*%
X3014058Y-3684000D02*
X2985942Y-3684000D01*
X3014058Y-3786000D02*
X2985942Y-3786000D01*
%TO.C,R10*%
X2497750Y-4226274D02*
X2497750Y-4273726D01*
X2602250Y-4226274D02*
X2602250Y-4273726D01*
%TO.C,U4*%
X2909000Y-4744000D02*
X3091000Y-4744000D01*
X2909000Y-4749000D02*
X2909000Y-4744000D01*
X2909000Y-5056000D02*
X2909000Y-5051000D01*
X3091000Y-4744000D02*
X3091000Y-4749000D01*
X3091000Y-4861000D02*
X3091000Y-4939000D01*
X3091000Y-5051000D02*
X3091000Y-5056000D01*
X3091000Y-5056000D02*
X2909000Y-5056000D01*
X2855000Y-4749000D02*
X2831000Y-4716000D01*
X2879000Y-4716000D01*
X2855000Y-4749000D01*
G36*
X2855000Y-4749000D02*
G01*
X2831000Y-4716000D01*
X2879000Y-4716000D01*
X2855000Y-4749000D01*
G37*
%TO.C,C9*%
X4914058Y-3884000D02*
X4885942Y-3884000D01*
X4914058Y-3986000D02*
X4885942Y-3986000D01*
%TO.C,U7*%
X4809000Y-4044000D02*
X4991000Y-4044000D01*
X4809000Y-4049000D02*
X4809000Y-4044000D01*
X4809000Y-4356000D02*
X4809000Y-4351000D01*
X4991000Y-4044000D02*
X4991000Y-4049000D01*
X4991000Y-4161000D02*
X4991000Y-4239000D01*
X4991000Y-4351000D02*
X4991000Y-4356000D01*
X4991000Y-4356000D02*
X4809000Y-4356000D01*
X4755000Y-4049000D02*
X4731000Y-4016000D01*
X4779000Y-4016000D01*
X4755000Y-4049000D01*
G36*
X4755000Y-4049000D02*
G01*
X4731000Y-4016000D01*
X4779000Y-4016000D01*
X4755000Y-4049000D01*
G37*
%TO.C,U3*%
X2909000Y-3844000D02*
X3091000Y-3844000D01*
X2909000Y-3849000D02*
X2909000Y-3844000D01*
X2909000Y-4156000D02*
X2909000Y-4151000D01*
X3091000Y-3844000D02*
X3091000Y-3849000D01*
X3091000Y-3961000D02*
X3091000Y-4039000D01*
X3091000Y-4151000D02*
X3091000Y-4156000D01*
X3091000Y-4156000D02*
X2909000Y-4156000D01*
X2855000Y-3849000D02*
X2831000Y-3816000D01*
X2879000Y-3816000D01*
X2855000Y-3849000D01*
G36*
X2855000Y-3849000D02*
G01*
X2831000Y-3816000D01*
X2879000Y-3816000D01*
X2855000Y-3849000D01*
G37*
%TO.C,R6*%
X2723726Y-1807750D02*
X2676274Y-1807750D01*
X2723726Y-1912250D02*
X2676274Y-1912250D01*
%TO.C,R17*%
X4576274Y-3047750D02*
X4623726Y-3047750D01*
X4576274Y-3152250D02*
X4623726Y-3152250D01*
%TO.C,J1*%
X1340000Y-3025000D02*
X1340000Y-3150000D01*
X1370000Y-3280000D02*
X1445000Y-3280000D01*
X1445000Y-3280000D02*
X1445000Y-3575000D01*
X1445000Y-3575000D02*
X2000000Y-3575000D01*
X1465000Y-3025000D02*
X1340000Y-3025000D01*
X2555000Y-3280000D02*
X2555000Y-3575000D01*
X2555000Y-3575000D02*
X2000000Y-3575000D01*
X2630000Y-3280000D02*
X2555000Y-3280000D01*
X1369000Y-3054000D02*
X2631000Y-3054000D01*
X2631000Y-3651000D01*
X1369000Y-3651000D01*
X1369000Y-3054000D01*
X1370000Y-3055000D02*
X1550000Y-3055000D01*
X1550000Y-3130000D01*
X1370000Y-3130000D01*
X1370000Y-3055000D01*
X1700000Y-3055000D02*
X2300000Y-3055000D01*
X2300000Y-3130000D01*
X1700000Y-3130000D01*
X1700000Y-3055000D01*
X2450000Y-3055000D02*
X2630000Y-3055000D01*
X2630000Y-3130000D01*
X2450000Y-3130000D01*
X2450000Y-3055000D01*
%TO.C,J2*%
X4625000Y-880000D02*
X4685000Y-880000D01*
X4625000Y-880000D02*
X4975000Y-880000D01*
X4975000Y-1520000D01*
X4625000Y-1520000D01*
X4625000Y-880000D01*
D12*
X4666750Y-946000D02*
G75*
G02*
X4649250Y-946000I-8750J0D01*
G01*
X4649250Y-946000D02*
G75*
G02*
X4666750Y-946000I8750J0D01*
G01*
%TO.C,R5*%
D10*
X2723726Y-2147750D02*
X2676274Y-2147750D01*
X2723726Y-2252250D02*
X2676274Y-2252250D01*
%TO.C,R2*%
X1517750Y-2723726D02*
X1517750Y-2676274D01*
X1622250Y-2723726D02*
X1622250Y-2676274D01*
%TO.C,C3*%
X1985942Y-2499000D02*
X2014058Y-2499000D01*
X1985942Y-2601000D02*
X2014058Y-2601000D01*
%TO.C,R9*%
X2497750Y-3876274D02*
X2497750Y-3923726D01*
X2602250Y-3876274D02*
X2602250Y-3923726D01*
%TO.C,C8*%
X4314058Y-2999000D02*
X4285942Y-2999000D01*
X4314058Y-3101000D02*
X4285942Y-3101000D01*
%TO.C,R7*%
X2676274Y-1637750D02*
X2723726Y-1637750D01*
X2676274Y-1742250D02*
X2723726Y-1742250D01*
%TO.C,R13*%
X3326274Y-3147750D02*
X3373726Y-3147750D01*
X3326274Y-3252250D02*
X3373726Y-3252250D01*
%TO.C,R15*%
X3897750Y-2576274D02*
X3897750Y-2623726D01*
X4002250Y-2576274D02*
X4002250Y-2623726D01*
%TO.C,C2*%
X1464058Y-1529000D02*
X1435942Y-1529000D01*
X1464058Y-1631000D02*
X1435942Y-1631000D01*
%TO.C,R11*%
X2497750Y-4776274D02*
X2497750Y-4823726D01*
X2602250Y-4776274D02*
X2602250Y-4823726D01*
%TO.C,R1*%
X1376500Y-2027294D02*
X1376500Y-2072706D01*
X1523500Y-2027294D02*
X1523500Y-2072706D01*
%TO.C,U2*%
X1909000Y-3944000D02*
X2091000Y-3944000D01*
X1909000Y-3949000D02*
X1909000Y-3944000D01*
X1909000Y-4139000D02*
X1909000Y-4061000D01*
X1909000Y-4256000D02*
X1909000Y-4251000D01*
X2091000Y-3944000D02*
X2091000Y-3949000D01*
X2091000Y-4251000D02*
X2091000Y-4256000D01*
X2091000Y-4256000D02*
X1909000Y-4256000D01*
X2145000Y-4251000D02*
X2169000Y-4284000D01*
X2121000Y-4284000D01*
X2145000Y-4251000D01*
G36*
X2169000Y-4284000D02*
G01*
X2121000Y-4284000D01*
X2145000Y-4251000D01*
X2169000Y-4284000D01*
G37*
%TO.C,R4*%
X2723726Y-1977750D02*
X2676274Y-1977750D01*
X2723726Y-2082250D02*
X2676274Y-2082250D01*
%TO.C,U1*%
D13*
X1792500Y-1552500D02*
X2207500Y-1552500D01*
X1792500Y-1663500D02*
X1792500Y-1552500D01*
X1792500Y-2447500D02*
X1792500Y-2336500D01*
X1792500Y-2447500D02*
X2207500Y-2447500D01*
X2207500Y-1552500D02*
X2207500Y-1663500D01*
X2207500Y-2447500D02*
X2207500Y-2336500D01*
D10*
X1736250Y-1663500D02*
X1712250Y-1630500D01*
X1760250Y-1630500D01*
X1736250Y-1663500D01*
G36*
X1736250Y-1663500D02*
G01*
X1712250Y-1630500D01*
X1760250Y-1630500D01*
X1736250Y-1663500D01*
G37*
%TO.C,R14*%
X4197750Y-4526274D02*
X4197750Y-4573726D01*
X4302250Y-4526274D02*
X4302250Y-4573726D01*
%TO.C,C4*%
X1985942Y-3784000D02*
X2014058Y-3784000D01*
X1985942Y-3886000D02*
X2014058Y-3886000D01*
%TD*%
%LPC*%
D14*
%TO.C,R18*%
X5250000Y-4532500D03*
X5250000Y-4367500D03*
%TD*%
D15*
%TO.C,C1*%
X1517500Y-1800000D03*
X1362500Y-1800000D03*
%TD*%
%TO.C,C7*%
X4077500Y-3935000D03*
X3922500Y-3935000D03*
%TD*%
%TO.C,C6*%
X3077500Y-4635000D03*
X2922500Y-4635000D03*
%TD*%
D14*
%TO.C,R3*%
X2430000Y-2782500D03*
X2430000Y-2617500D03*
%TD*%
D16*
%TO.C,U6*%
X4245000Y-2750000D03*
D17*
X4240000Y-2800000D03*
X4240000Y-2850000D03*
D18*
X4360000Y-2850000D03*
X4360000Y-2800000D03*
X4360000Y-2750000D03*
%TD*%
D19*
%TO.C,U5*%
X3886250Y-4105000D03*
X3886250Y-4200000D03*
X3886250Y-4295000D03*
X4113750Y-4295000D03*
X4113750Y-4105000D03*
%TD*%
D20*
%TO.C,R8*%
X3521250Y-1200000D03*
X3678750Y-1200000D03*
%TD*%
D21*
%TO.C,R16*%
X3950000Y-2867500D03*
X3950000Y-3032500D03*
%TD*%
%TO.C,R12*%
X2550000Y-5067500D03*
X2550000Y-5232500D03*
%TD*%
D15*
%TO.C,C5*%
X3077500Y-3735000D03*
X2922500Y-3735000D03*
%TD*%
D21*
%TO.C,R10*%
X2550000Y-4167500D03*
X2550000Y-4332500D03*
%TD*%
D19*
%TO.C,U4*%
X2886250Y-4805000D03*
X2886250Y-4900000D03*
X2886250Y-4995000D03*
X3113750Y-4995000D03*
X3113750Y-4805000D03*
%TD*%
D15*
%TO.C,C9*%
X4977500Y-3935000D03*
X4822500Y-3935000D03*
%TD*%
D19*
%TO.C,U7*%
X4786250Y-4105000D03*
X4786250Y-4200000D03*
X4786250Y-4295000D03*
X5013750Y-4295000D03*
X5013750Y-4105000D03*
%TD*%
%TO.C,U3*%
X2886250Y-3905000D03*
X2886250Y-4000000D03*
X2886250Y-4095000D03*
X3113750Y-4095000D03*
X3113750Y-3905000D03*
%TD*%
D22*
%TO.C,R6*%
X2782500Y-1860000D03*
X2617500Y-1860000D03*
%TD*%
D23*
%TO.C,R17*%
X4517500Y-3100000D03*
X4682500Y-3100000D03*
%TD*%
D24*
%TO.C,J1*%
X1625000Y-3300000D03*
D25*
X1875000Y-3300000D03*
X2125000Y-3300000D03*
X2375000Y-3300000D03*
%TD*%
D26*
%TO.C,J2*%
X4736500Y-946000D03*
D27*
X4863500Y-946000D03*
X4736500Y-1073000D03*
X4863500Y-1073000D03*
X4736500Y-1200000D03*
X4863500Y-1200000D03*
X4736500Y-1327000D03*
X4863500Y-1327000D03*
X4736500Y-1454000D03*
X4863500Y-1454000D03*
%TD*%
D22*
%TO.C,R5*%
X2782500Y-2200000D03*
X2617500Y-2200000D03*
%TD*%
D14*
%TO.C,R2*%
X1570000Y-2782500D03*
X1570000Y-2617500D03*
%TD*%
D28*
%TO.C,C3*%
X1922500Y-2550000D03*
X2077500Y-2550000D03*
%TD*%
D21*
%TO.C,R9*%
X2550000Y-3817500D03*
X2550000Y-3982500D03*
%TD*%
D15*
%TO.C,C8*%
X4377500Y-3050000D03*
X4222500Y-3050000D03*
%TD*%
D23*
%TO.C,R7*%
X2617500Y-1690000D03*
X2782500Y-1690000D03*
%TD*%
%TO.C,R13*%
X3267500Y-3200000D03*
X3432500Y-3200000D03*
%TD*%
D21*
%TO.C,R15*%
X3950000Y-2517500D03*
X3950000Y-2682500D03*
%TD*%
D15*
%TO.C,C2*%
X1527500Y-1580000D03*
X1372500Y-1580000D03*
%TD*%
D21*
%TO.C,R11*%
X2550000Y-4717500D03*
X2550000Y-4882500D03*
%TD*%
D29*
%TO.C,R1*%
X1450000Y-1958750D03*
X1450000Y-2141250D03*
%TD*%
D30*
%TO.C,U2*%
X2113750Y-4195000D03*
X2113750Y-4100000D03*
X2113750Y-4005000D03*
X1886250Y-4005000D03*
X1886250Y-4195000D03*
%TD*%
D22*
%TO.C,R4*%
X2782500Y-2030000D03*
X2617500Y-2030000D03*
%TD*%
D31*
%TO.C,U1*%
X1740000Y-1714250D03*
X1740000Y-1777750D03*
X1740000Y-1841250D03*
X1740000Y-1904750D03*
X1740000Y-1968250D03*
X1740000Y-2031750D03*
X1740000Y-2095250D03*
X1740000Y-2158750D03*
X1740000Y-2222250D03*
X1740000Y-2285750D03*
X2260000Y-2285750D03*
X2260000Y-2222250D03*
X2260000Y-2158750D03*
X2260000Y-2095250D03*
X2260000Y-2031750D03*
X2260000Y-1968250D03*
X2260000Y-1904750D03*
X2260000Y-1841250D03*
X2260000Y-1777750D03*
X2260000Y-1714250D03*
%TD*%
D21*
%TO.C,R14*%
X4250000Y-4467500D03*
X4250000Y-4632500D03*
%TD*%
D28*
%TO.C,C4*%
X1922500Y-3835000D03*
X2077500Y-3835000D03*
%TD*%
%LPD*%
M02*
