%TF.GenerationSoftware,KiCad,Pcbnew,10.0.4*%
%TF.CreationDate,2026-09-24T00:17:31-06:00*%
%TF.ProjectId,section,73656374-696f-46e2-9e6b-696361645f70,rev?*%
%TF.SameCoordinates,Original*%
%TF.FileFunction,Paste,Top*%
%TF.FilePolarity,Positive*%
%FSLAX45Y45*%
G04 Gerber Fmt 4.5, Leading zero omitted, Abs format (unit mm)*
G04 Created by KiCad (PCBNEW 10.0.4) date 2026-09-24 00:17:31*
%MOMM*%
%LPD*%
G01*
G04 APERTURE LIST*
G04 Aperture macros list*
%AMRoundRect*
0 Rectangle with rounded corners*
0 $1 Rounding radius*
0 $2 $3 $4 $5 $6 $7 $8 $9 X,Y pos of 4 corners*
0 Add a 4 corners polygon primitive as box body*
4,1,4,$2,$3,$4,$5,$6,$7,$8,$9,$2,$3,0*
0 Add four circle primitives for the rounded corners*
1,1,$1+$1,$2,$3*
1,1,$1+$1,$4,$5*
1,1,$1+$1,$6,$7*
1,1,$1+$1,$8,$9*
0 Add four rect primitives between the rounded corners*
20,1,$1+$1,$2,$3,$4,$5,0*
20,1,$1+$1,$4,$5,$6,$7,0*
20,1,$1+$1,$6,$7,$8,$9,0*
20,1,$1+$1,$8,$9,$2,$3,0*%
G04 Aperture macros list end*
%ADD10RoundRect,0.200000X0.275000X-0.200000X0.275000X0.200000X-0.275000X0.200000X-0.275000X-0.200000X0*%
%ADD11RoundRect,0.225000X0.225000X0.250000X-0.225000X0.250000X-0.225000X-0.250000X0.225000X-0.250000X0*%
%ADD12RoundRect,0.050000X-0.350000X-0.075000X0.350000X-0.075000X0.350000X0.075000X-0.350000X0.075000X0*%
%ADD13RoundRect,0.050000X-0.300000X-0.075000X0.300000X-0.075000X0.300000X0.075000X-0.300000X0.075000X0*%
%ADD14RoundRect,0.150000X-0.512500X-0.150000X0.512500X-0.150000X0.512500X0.150000X-0.512500X0.150000X0*%
%ADD15RoundRect,0.218750X-0.218750X-0.256250X0.218750X-0.256250X0.218750X0.256250X-0.218750X0.256250X0*%
%ADD16RoundRect,0.200000X-0.275000X0.200000X-0.275000X-0.200000X0.275000X-0.200000X0.275000X0.200000X0*%
%ADD17RoundRect,0.200000X0.200000X0.275000X-0.200000X0.275000X-0.200000X-0.275000X0.200000X-0.275000X0*%
%ADD18RoundRect,0.200000X-0.200000X-0.275000X0.200000X-0.275000X0.200000X0.275000X-0.200000X0.275000X0*%
%ADD19RoundRect,0.225000X-0.225000X-0.250000X0.225000X-0.250000X0.225000X0.250000X-0.225000X0.250000X0*%
%ADD20RoundRect,0.250000X-0.450000X0.262500X-0.450000X-0.262500X0.450000X-0.262500X0.450000X0.262500X0*%
%ADD21RoundRect,0.150000X0.512500X0.150000X-0.512500X0.150000X-0.512500X-0.150000X0.512500X-0.150000X0*%
%ADD22R,1.200000X0.400000*%
G04 APERTURE END LIST*
D10*
%TO.C,R18*%
X5250000Y-4532500D03*
X5250000Y-4367500D03*
%TD*%
D11*
%TO.C,C1*%
X1517500Y-1800000D03*
X1362500Y-1800000D03*
%TD*%
%TO.C,C7*%
X4077500Y-3935000D03*
X3922500Y-3935000D03*
%TD*%
%TO.C,C6*%
X3077500Y-4635000D03*
X2922500Y-4635000D03*
%TD*%
D10*
%TO.C,R3*%
X2430000Y-2782500D03*
X2430000Y-2617500D03*
%TD*%
D12*
%TO.C,U6*%
X4245000Y-2750000D03*
D13*
X4240000Y-2800000D03*
X4240000Y-2850000D03*
X4360000Y-2850000D03*
X4360000Y-2800000D03*
X4360000Y-2750000D03*
%TD*%
D14*
%TO.C,U5*%
X3886250Y-4105000D03*
X3886250Y-4200000D03*
X3886250Y-4295000D03*
X4113750Y-4295000D03*
X4113750Y-4105000D03*
%TD*%
D15*
%TO.C,R8*%
X3521250Y-1200000D03*
X3678750Y-1200000D03*
%TD*%
D16*
%TO.C,R16*%
X3950000Y-2867500D03*
X3950000Y-3032500D03*
%TD*%
%TO.C,R12*%
X2550000Y-5067500D03*
X2550000Y-5232500D03*
%TD*%
D11*
%TO.C,C5*%
X3077500Y-3735000D03*
X2922500Y-3735000D03*
%TD*%
D16*
%TO.C,R10*%
X2550000Y-4167500D03*
X2550000Y-4332500D03*
%TD*%
D14*
%TO.C,U4*%
X2886250Y-4805000D03*
X2886250Y-4900000D03*
X2886250Y-4995000D03*
X3113750Y-4995000D03*
X3113750Y-4805000D03*
%TD*%
D11*
%TO.C,C9*%
X4977500Y-3935000D03*
X4822500Y-3935000D03*
%TD*%
D14*
%TO.C,U7*%
X4786250Y-4105000D03*
X4786250Y-4200000D03*
X4786250Y-4295000D03*
X5013750Y-4295000D03*
X5013750Y-4105000D03*
%TD*%
%TO.C,U3*%
X2886250Y-3905000D03*
X2886250Y-4000000D03*
X2886250Y-4095000D03*
X3113750Y-4095000D03*
X3113750Y-3905000D03*
%TD*%
D17*
%TO.C,R6*%
X2782500Y-1860000D03*
X2617500Y-1860000D03*
%TD*%
D18*
%TO.C,R17*%
X4517500Y-3100000D03*
X4682500Y-3100000D03*
%TD*%
D17*
%TO.C,R5*%
X2782500Y-2200000D03*
X2617500Y-2200000D03*
%TD*%
D10*
%TO.C,R2*%
X1570000Y-2782500D03*
X1570000Y-2617500D03*
%TD*%
D19*
%TO.C,C3*%
X1922500Y-2550000D03*
X2077500Y-2550000D03*
%TD*%
D16*
%TO.C,R9*%
X2550000Y-3817500D03*
X2550000Y-3982500D03*
%TD*%
D11*
%TO.C,C8*%
X4377500Y-3050000D03*
X4222500Y-3050000D03*
%TD*%
D18*
%TO.C,R7*%
X2617500Y-1690000D03*
X2782500Y-1690000D03*
%TD*%
%TO.C,R13*%
X3267500Y-3200000D03*
X3432500Y-3200000D03*
%TD*%
D16*
%TO.C,R15*%
X3950000Y-2517500D03*
X3950000Y-2682500D03*
%TD*%
D11*
%TO.C,C2*%
X1527500Y-1580000D03*
X1372500Y-1580000D03*
%TD*%
D16*
%TO.C,R11*%
X2550000Y-4717500D03*
X2550000Y-4882500D03*
%TD*%
D20*
%TO.C,R1*%
X1450000Y-1958750D03*
X1450000Y-2141250D03*
%TD*%
D21*
%TO.C,U2*%
X2113750Y-4195000D03*
X2113750Y-4100000D03*
X2113750Y-4005000D03*
X1886250Y-4005000D03*
X1886250Y-4195000D03*
%TD*%
D17*
%TO.C,R4*%
X2782500Y-2030000D03*
X2617500Y-2030000D03*
%TD*%
D22*
%TO.C,U1*%
X1740000Y-1714250D03*
X1740000Y-1777750D03*
X1740000Y-1841250D03*
X1740000Y-1904750D03*
X1740000Y-1968250D03*
X1740000Y-2031750D03*
X1740000Y-2095250D03*
X1740000Y-2158750D03*
X1740000Y-2222250D03*
X1740000Y-2285750D03*
X2260000Y-2285750D03*
X2260000Y-2222250D03*
X2260000Y-2158750D03*
X2260000Y-2095250D03*
X2260000Y-2031750D03*
X2260000Y-1968250D03*
X2260000Y-1904750D03*
X2260000Y-1841250D03*
X2260000Y-1777750D03*
X2260000Y-1714250D03*
%TD*%
D16*
%TO.C,R14*%
X4250000Y-4467500D03*
X4250000Y-4632500D03*
%TD*%
D19*
%TO.C,C4*%
X1922500Y-3835000D03*
X2077500Y-3835000D03*
%TD*%
M02*
