%TF.GenerationSoftware,KiCad,Pcbnew,10.0.4*%
%TF.CreationDate,2026-09-24T00:17:31-06:00*%
%TF.ProjectId,section,73656374-696f-46e2-9e6b-696361645f70,rev?*%
%TF.SameCoordinates,Original*%
%TF.FileFunction,AssemblyDrawing,Top*%
%FSLAX45Y45*%
G04 Gerber Fmt 4.5, Leading zero omitted, Abs format (unit mm)*
G04 Created by KiCad (PCBNEW 10.0.4) date 2026-09-24 00:17:31*
%MOMM*%
%LPD*%
G01*
G04 APERTURE LIST*
%ADD10C,0.060000*%
%ADD11C,0.110000*%
%ADD12C,0.150000*%
%ADD13C,0.080000*%
%ADD14C,0.100000*%
%ADD15C,0.050000*%
G04 APERTURE END LIST*
D10*
X5268193Y-4475714D02*
X5249145Y-4489048D01*
X5268193Y-4498571D02*
X5228193Y-4498571D01*
X5228193Y-4498571D02*
X5228193Y-4483333D01*
X5228193Y-4483333D02*
X5230098Y-4479524D01*
X5230098Y-4479524D02*
X5232002Y-4477619D01*
X5232002Y-4477619D02*
X5235812Y-4475714D01*
X5235812Y-4475714D02*
X5241526Y-4475714D01*
X5241526Y-4475714D02*
X5245336Y-4477619D01*
X5245336Y-4477619D02*
X5247240Y-4479524D01*
X5247240Y-4479524D02*
X5249145Y-4483333D01*
X5249145Y-4483333D02*
X5249145Y-4498571D01*
X5268193Y-4437619D02*
X5268193Y-4460476D01*
X5268193Y-4449048D02*
X5228193Y-4449048D01*
X5228193Y-4449048D02*
X5233907Y-4452857D01*
X5233907Y-4452857D02*
X5237717Y-4456667D01*
X5237717Y-4456667D02*
X5239621Y-4460476D01*
X5245336Y-4414762D02*
X5243431Y-4418571D01*
X5243431Y-4418571D02*
X5241526Y-4420476D01*
X5241526Y-4420476D02*
X5237717Y-4422381D01*
X5237717Y-4422381D02*
X5235812Y-4422381D01*
X5235812Y-4422381D02*
X5232002Y-4420476D01*
X5232002Y-4420476D02*
X5230098Y-4418571D01*
X5230098Y-4418571D02*
X5228193Y-4414762D01*
X5228193Y-4414762D02*
X5228193Y-4407143D01*
X5228193Y-4407143D02*
X5230098Y-4403333D01*
X5230098Y-4403333D02*
X5232002Y-4401429D01*
X5232002Y-4401429D02*
X5235812Y-4399524D01*
X5235812Y-4399524D02*
X5237717Y-4399524D01*
X5237717Y-4399524D02*
X5241526Y-4401429D01*
X5241526Y-4401429D02*
X5243431Y-4403333D01*
X5243431Y-4403333D02*
X5245336Y-4407143D01*
X5245336Y-4407143D02*
X5245336Y-4414762D01*
X5245336Y-4414762D02*
X5247240Y-4418571D01*
X5247240Y-4418571D02*
X5249145Y-4420476D01*
X5249145Y-4420476D02*
X5252955Y-4422381D01*
X5252955Y-4422381D02*
X5260574Y-4422381D01*
X5260574Y-4422381D02*
X5264383Y-4420476D01*
X5264383Y-4420476D02*
X5266288Y-4418571D01*
X5266288Y-4418571D02*
X5268193Y-4414762D01*
X5268193Y-4414762D02*
X5268193Y-4407143D01*
X5268193Y-4407143D02*
X5266288Y-4403333D01*
X5266288Y-4403333D02*
X5264383Y-4401429D01*
X5264383Y-4401429D02*
X5260574Y-4399524D01*
X5260574Y-4399524D02*
X5252955Y-4399524D01*
X5252955Y-4399524D02*
X5249145Y-4401429D01*
X5249145Y-4401429D02*
X5247240Y-4403333D01*
X5247240Y-4403333D02*
X5245336Y-4407143D01*
X1433333Y-1814383D02*
X1431428Y-1816288D01*
X1431428Y-1816288D02*
X1425714Y-1818193D01*
X1425714Y-1818193D02*
X1421905Y-1818193D01*
X1421905Y-1818193D02*
X1416190Y-1816288D01*
X1416190Y-1816288D02*
X1412381Y-1812478D01*
X1412381Y-1812478D02*
X1410476Y-1808669D01*
X1410476Y-1808669D02*
X1408571Y-1801050D01*
X1408571Y-1801050D02*
X1408571Y-1795336D01*
X1408571Y-1795336D02*
X1410476Y-1787716D01*
X1410476Y-1787716D02*
X1412381Y-1783907D01*
X1412381Y-1783907D02*
X1416190Y-1780097D01*
X1416190Y-1780097D02*
X1421905Y-1778193D01*
X1421905Y-1778193D02*
X1425714Y-1778193D01*
X1425714Y-1778193D02*
X1431428Y-1780097D01*
X1431428Y-1780097D02*
X1433333Y-1782002D01*
X1471428Y-1818193D02*
X1448571Y-1818193D01*
X1460000Y-1818193D02*
X1460000Y-1778193D01*
X1460000Y-1778193D02*
X1456190Y-1783907D01*
X1456190Y-1783907D02*
X1452381Y-1787716D01*
X1452381Y-1787716D02*
X1448571Y-1789621D01*
X3993333Y-3949383D02*
X3991428Y-3951288D01*
X3991428Y-3951288D02*
X3985714Y-3953193D01*
X3985714Y-3953193D02*
X3981905Y-3953193D01*
X3981905Y-3953193D02*
X3976190Y-3951288D01*
X3976190Y-3951288D02*
X3972381Y-3947478D01*
X3972381Y-3947478D02*
X3970476Y-3943669D01*
X3970476Y-3943669D02*
X3968571Y-3936050D01*
X3968571Y-3936050D02*
X3968571Y-3930336D01*
X3968571Y-3930336D02*
X3970476Y-3922716D01*
X3970476Y-3922716D02*
X3972381Y-3918907D01*
X3972381Y-3918907D02*
X3976190Y-3915097D01*
X3976190Y-3915097D02*
X3981905Y-3913193D01*
X3981905Y-3913193D02*
X3985714Y-3913193D01*
X3985714Y-3913193D02*
X3991428Y-3915097D01*
X3991428Y-3915097D02*
X3993333Y-3917002D01*
X4006667Y-3913193D02*
X4033333Y-3913193D01*
X4033333Y-3913193D02*
X4016190Y-3953193D01*
X2993333Y-4649383D02*
X2991428Y-4651288D01*
X2991428Y-4651288D02*
X2985714Y-4653193D01*
X2985714Y-4653193D02*
X2981905Y-4653193D01*
X2981905Y-4653193D02*
X2976190Y-4651288D01*
X2976190Y-4651288D02*
X2972381Y-4647478D01*
X2972381Y-4647478D02*
X2970476Y-4643669D01*
X2970476Y-4643669D02*
X2968571Y-4636050D01*
X2968571Y-4636050D02*
X2968571Y-4630336D01*
X2968571Y-4630336D02*
X2970476Y-4622717D01*
X2970476Y-4622717D02*
X2972381Y-4618907D01*
X2972381Y-4618907D02*
X2976190Y-4615098D01*
X2976190Y-4615098D02*
X2981905Y-4613193D01*
X2981905Y-4613193D02*
X2985714Y-4613193D01*
X2985714Y-4613193D02*
X2991428Y-4615098D01*
X2991428Y-4615098D02*
X2993333Y-4617002D01*
X3027619Y-4613193D02*
X3020000Y-4613193D01*
X3020000Y-4613193D02*
X3016190Y-4615098D01*
X3016190Y-4615098D02*
X3014286Y-4617002D01*
X3014286Y-4617002D02*
X3010476Y-4622717D01*
X3010476Y-4622717D02*
X3008571Y-4630336D01*
X3008571Y-4630336D02*
X3008571Y-4645574D01*
X3008571Y-4645574D02*
X3010476Y-4649383D01*
X3010476Y-4649383D02*
X3012381Y-4651288D01*
X3012381Y-4651288D02*
X3016190Y-4653193D01*
X3016190Y-4653193D02*
X3023809Y-4653193D01*
X3023809Y-4653193D02*
X3027619Y-4651288D01*
X3027619Y-4651288D02*
X3029524Y-4649383D01*
X3029524Y-4649383D02*
X3031428Y-4645574D01*
X3031428Y-4645574D02*
X3031428Y-4636050D01*
X3031428Y-4636050D02*
X3029524Y-4632240D01*
X3029524Y-4632240D02*
X3027619Y-4630336D01*
X3027619Y-4630336D02*
X3023809Y-4628431D01*
X3023809Y-4628431D02*
X3016190Y-4628431D01*
X3016190Y-4628431D02*
X3012381Y-4630336D01*
X3012381Y-4630336D02*
X3010476Y-4632240D01*
X3010476Y-4632240D02*
X3008571Y-4636050D01*
X2448193Y-2706667D02*
X2429145Y-2720000D01*
X2448193Y-2729524D02*
X2408193Y-2729524D01*
X2408193Y-2729524D02*
X2408193Y-2714286D01*
X2408193Y-2714286D02*
X2410098Y-2710476D01*
X2410098Y-2710476D02*
X2412002Y-2708571D01*
X2412002Y-2708571D02*
X2415812Y-2706667D01*
X2415812Y-2706667D02*
X2421526Y-2706667D01*
X2421526Y-2706667D02*
X2425336Y-2708571D01*
X2425336Y-2708571D02*
X2427240Y-2710476D01*
X2427240Y-2710476D02*
X2429145Y-2714286D01*
X2429145Y-2714286D02*
X2429145Y-2729524D01*
X2408193Y-2693333D02*
X2408193Y-2668571D01*
X2408193Y-2668571D02*
X2423431Y-2681905D01*
X2423431Y-2681905D02*
X2423431Y-2676190D01*
X2423431Y-2676190D02*
X2425336Y-2672381D01*
X2425336Y-2672381D02*
X2427240Y-2670476D01*
X2427240Y-2670476D02*
X2431050Y-2668571D01*
X2431050Y-2668571D02*
X2440574Y-2668571D01*
X2440574Y-2668571D02*
X2444383Y-2670476D01*
X2444383Y-2670476D02*
X2446288Y-2672381D01*
X2446288Y-2672381D02*
X2448193Y-2676190D01*
X2448193Y-2676190D02*
X2448193Y-2687619D01*
X2448193Y-2687619D02*
X2446288Y-2691429D01*
X2446288Y-2691429D02*
X2444383Y-2693333D01*
D11*
X3960736Y-4254857D02*
X4019022Y-4254857D01*
X4019022Y-4254857D02*
X4025879Y-4251429D01*
X4025879Y-4251429D02*
X4029308Y-4248000D01*
X4029308Y-4248000D02*
X4032736Y-4241143D01*
X4032736Y-4241143D02*
X4032736Y-4227429D01*
X4032736Y-4227429D02*
X4029308Y-4220571D01*
X4029308Y-4220571D02*
X4025879Y-4217143D01*
X4025879Y-4217143D02*
X4019022Y-4213714D01*
X4019022Y-4213714D02*
X3960736Y-4213714D01*
X3960736Y-4145143D02*
X3960736Y-4179428D01*
X3960736Y-4179428D02*
X3995022Y-4182857D01*
X3995022Y-4182857D02*
X3991594Y-4179428D01*
X3991594Y-4179428D02*
X3988165Y-4172571D01*
X3988165Y-4172571D02*
X3988165Y-4155428D01*
X3988165Y-4155428D02*
X3991594Y-4148571D01*
X3991594Y-4148571D02*
X3995022Y-4145143D01*
X3995022Y-4145143D02*
X4001879Y-4141714D01*
X4001879Y-4141714D02*
X4019022Y-4141714D01*
X4019022Y-4141714D02*
X4025879Y-4145143D01*
X4025879Y-4145143D02*
X4029308Y-4148571D01*
X4029308Y-4148571D02*
X4032736Y-4155428D01*
X4032736Y-4155428D02*
X4032736Y-4172571D01*
X4032736Y-4172571D02*
X4029308Y-4179428D01*
X4029308Y-4179428D02*
X4025879Y-4182857D01*
D10*
X3593333Y-1218193D02*
X3580000Y-1199145D01*
X3570476Y-1218193D02*
X3570476Y-1178193D01*
X3570476Y-1178193D02*
X3585714Y-1178193D01*
X3585714Y-1178193D02*
X3589524Y-1180098D01*
X3589524Y-1180098D02*
X3591428Y-1182002D01*
X3591428Y-1182002D02*
X3593333Y-1185812D01*
X3593333Y-1185812D02*
X3593333Y-1191526D01*
X3593333Y-1191526D02*
X3591428Y-1195336D01*
X3591428Y-1195336D02*
X3589524Y-1197240D01*
X3589524Y-1197240D02*
X3585714Y-1199145D01*
X3585714Y-1199145D02*
X3570476Y-1199145D01*
X3616190Y-1195336D02*
X3612381Y-1193431D01*
X3612381Y-1193431D02*
X3610476Y-1191526D01*
X3610476Y-1191526D02*
X3608571Y-1187717D01*
X3608571Y-1187717D02*
X3608571Y-1185812D01*
X3608571Y-1185812D02*
X3610476Y-1182002D01*
X3610476Y-1182002D02*
X3612381Y-1180098D01*
X3612381Y-1180098D02*
X3616190Y-1178193D01*
X3616190Y-1178193D02*
X3623809Y-1178193D01*
X3623809Y-1178193D02*
X3627619Y-1180098D01*
X3627619Y-1180098D02*
X3629524Y-1182002D01*
X3629524Y-1182002D02*
X3631428Y-1185812D01*
X3631428Y-1185812D02*
X3631428Y-1187717D01*
X3631428Y-1187717D02*
X3629524Y-1191526D01*
X3629524Y-1191526D02*
X3627619Y-1193431D01*
X3627619Y-1193431D02*
X3623809Y-1195336D01*
X3623809Y-1195336D02*
X3616190Y-1195336D01*
X3616190Y-1195336D02*
X3612381Y-1197240D01*
X3612381Y-1197240D02*
X3610476Y-1199145D01*
X3610476Y-1199145D02*
X3608571Y-1202955D01*
X3608571Y-1202955D02*
X3608571Y-1210574D01*
X3608571Y-1210574D02*
X3610476Y-1214383D01*
X3610476Y-1214383D02*
X3612381Y-1216288D01*
X3612381Y-1216288D02*
X3616190Y-1218193D01*
X3616190Y-1218193D02*
X3623809Y-1218193D01*
X3623809Y-1218193D02*
X3627619Y-1216288D01*
X3627619Y-1216288D02*
X3629524Y-1214383D01*
X3629524Y-1214383D02*
X3631428Y-1210574D01*
X3631428Y-1210574D02*
X3631428Y-1202955D01*
X3631428Y-1202955D02*
X3629524Y-1199145D01*
X3629524Y-1199145D02*
X3627619Y-1197240D01*
X3627619Y-1197240D02*
X3623809Y-1195336D01*
X3968193Y-2975714D02*
X3949145Y-2989047D01*
X3968193Y-2998571D02*
X3928193Y-2998571D01*
X3928193Y-2998571D02*
X3928193Y-2983333D01*
X3928193Y-2983333D02*
X3930097Y-2979524D01*
X3930097Y-2979524D02*
X3932002Y-2977619D01*
X3932002Y-2977619D02*
X3935812Y-2975714D01*
X3935812Y-2975714D02*
X3941526Y-2975714D01*
X3941526Y-2975714D02*
X3945336Y-2977619D01*
X3945336Y-2977619D02*
X3947240Y-2979524D01*
X3947240Y-2979524D02*
X3949145Y-2983333D01*
X3949145Y-2983333D02*
X3949145Y-2998571D01*
X3968193Y-2937619D02*
X3968193Y-2960476D01*
X3968193Y-2949047D02*
X3928193Y-2949047D01*
X3928193Y-2949047D02*
X3933907Y-2952857D01*
X3933907Y-2952857D02*
X3937716Y-2956667D01*
X3937716Y-2956667D02*
X3939621Y-2960476D01*
X3928193Y-2903333D02*
X3928193Y-2910952D01*
X3928193Y-2910952D02*
X3930097Y-2914762D01*
X3930097Y-2914762D02*
X3932002Y-2916667D01*
X3932002Y-2916667D02*
X3937716Y-2920476D01*
X3937716Y-2920476D02*
X3945336Y-2922381D01*
X3945336Y-2922381D02*
X3960574Y-2922381D01*
X3960574Y-2922381D02*
X3964383Y-2920476D01*
X3964383Y-2920476D02*
X3966288Y-2918571D01*
X3966288Y-2918571D02*
X3968193Y-2914762D01*
X3968193Y-2914762D02*
X3968193Y-2907143D01*
X3968193Y-2907143D02*
X3966288Y-2903333D01*
X3966288Y-2903333D02*
X3964383Y-2901428D01*
X3964383Y-2901428D02*
X3960574Y-2899524D01*
X3960574Y-2899524D02*
X3951050Y-2899524D01*
X3951050Y-2899524D02*
X3947240Y-2901428D01*
X3947240Y-2901428D02*
X3945336Y-2903333D01*
X3945336Y-2903333D02*
X3943431Y-2907143D01*
X3943431Y-2907143D02*
X3943431Y-2914762D01*
X3943431Y-2914762D02*
X3945336Y-2918571D01*
X3945336Y-2918571D02*
X3947240Y-2920476D01*
X3947240Y-2920476D02*
X3951050Y-2922381D01*
X2568193Y-5175714D02*
X2549145Y-5189048D01*
X2568193Y-5198571D02*
X2528193Y-5198571D01*
X2528193Y-5198571D02*
X2528193Y-5183333D01*
X2528193Y-5183333D02*
X2530098Y-5179524D01*
X2530098Y-5179524D02*
X2532002Y-5177619D01*
X2532002Y-5177619D02*
X2535812Y-5175714D01*
X2535812Y-5175714D02*
X2541526Y-5175714D01*
X2541526Y-5175714D02*
X2545336Y-5177619D01*
X2545336Y-5177619D02*
X2547240Y-5179524D01*
X2547240Y-5179524D02*
X2549145Y-5183333D01*
X2549145Y-5183333D02*
X2549145Y-5198571D01*
X2568193Y-5137619D02*
X2568193Y-5160476D01*
X2568193Y-5149048D02*
X2528193Y-5149048D01*
X2528193Y-5149048D02*
X2533907Y-5152857D01*
X2533907Y-5152857D02*
X2537717Y-5156667D01*
X2537717Y-5156667D02*
X2539621Y-5160476D01*
X2532002Y-5122381D02*
X2530098Y-5120476D01*
X2530098Y-5120476D02*
X2528193Y-5116667D01*
X2528193Y-5116667D02*
X2528193Y-5107143D01*
X2528193Y-5107143D02*
X2530098Y-5103333D01*
X2530098Y-5103333D02*
X2532002Y-5101429D01*
X2532002Y-5101429D02*
X2535812Y-5099524D01*
X2535812Y-5099524D02*
X2539621Y-5099524D01*
X2539621Y-5099524D02*
X2545336Y-5101429D01*
X2545336Y-5101429D02*
X2568193Y-5124286D01*
X2568193Y-5124286D02*
X2568193Y-5099524D01*
X2993333Y-3749383D02*
X2991428Y-3751288D01*
X2991428Y-3751288D02*
X2985714Y-3753193D01*
X2985714Y-3753193D02*
X2981905Y-3753193D01*
X2981905Y-3753193D02*
X2976190Y-3751288D01*
X2976190Y-3751288D02*
X2972381Y-3747478D01*
X2972381Y-3747478D02*
X2970476Y-3743669D01*
X2970476Y-3743669D02*
X2968571Y-3736050D01*
X2968571Y-3736050D02*
X2968571Y-3730336D01*
X2968571Y-3730336D02*
X2970476Y-3722716D01*
X2970476Y-3722716D02*
X2972381Y-3718907D01*
X2972381Y-3718907D02*
X2976190Y-3715097D01*
X2976190Y-3715097D02*
X2981905Y-3713193D01*
X2981905Y-3713193D02*
X2985714Y-3713193D01*
X2985714Y-3713193D02*
X2991428Y-3715097D01*
X2991428Y-3715097D02*
X2993333Y-3717002D01*
X3029524Y-3713193D02*
X3010476Y-3713193D01*
X3010476Y-3713193D02*
X3008571Y-3732240D01*
X3008571Y-3732240D02*
X3010476Y-3730336D01*
X3010476Y-3730336D02*
X3014286Y-3728431D01*
X3014286Y-3728431D02*
X3023809Y-3728431D01*
X3023809Y-3728431D02*
X3027619Y-3730336D01*
X3027619Y-3730336D02*
X3029524Y-3732240D01*
X3029524Y-3732240D02*
X3031428Y-3736050D01*
X3031428Y-3736050D02*
X3031428Y-3745574D01*
X3031428Y-3745574D02*
X3029524Y-3749383D01*
X3029524Y-3749383D02*
X3027619Y-3751288D01*
X3027619Y-3751288D02*
X3023809Y-3753193D01*
X3023809Y-3753193D02*
X3014286Y-3753193D01*
X3014286Y-3753193D02*
X3010476Y-3751288D01*
X3010476Y-3751288D02*
X3008571Y-3749383D01*
X2568193Y-4275714D02*
X2549145Y-4289048D01*
X2568193Y-4298571D02*
X2528193Y-4298571D01*
X2528193Y-4298571D02*
X2528193Y-4283333D01*
X2528193Y-4283333D02*
X2530098Y-4279524D01*
X2530098Y-4279524D02*
X2532002Y-4277619D01*
X2532002Y-4277619D02*
X2535812Y-4275714D01*
X2535812Y-4275714D02*
X2541526Y-4275714D01*
X2541526Y-4275714D02*
X2545336Y-4277619D01*
X2545336Y-4277619D02*
X2547240Y-4279524D01*
X2547240Y-4279524D02*
X2549145Y-4283333D01*
X2549145Y-4283333D02*
X2549145Y-4298571D01*
X2568193Y-4237619D02*
X2568193Y-4260476D01*
X2568193Y-4249048D02*
X2528193Y-4249048D01*
X2528193Y-4249048D02*
X2533907Y-4252857D01*
X2533907Y-4252857D02*
X2537717Y-4256667D01*
X2537717Y-4256667D02*
X2539621Y-4260476D01*
X2528193Y-4212857D02*
X2528193Y-4209048D01*
X2528193Y-4209048D02*
X2530098Y-4205238D01*
X2530098Y-4205238D02*
X2532002Y-4203333D01*
X2532002Y-4203333D02*
X2535812Y-4201429D01*
X2535812Y-4201429D02*
X2543431Y-4199524D01*
X2543431Y-4199524D02*
X2552955Y-4199524D01*
X2552955Y-4199524D02*
X2560574Y-4201429D01*
X2560574Y-4201429D02*
X2564383Y-4203333D01*
X2564383Y-4203333D02*
X2566288Y-4205238D01*
X2566288Y-4205238D02*
X2568193Y-4209048D01*
X2568193Y-4209048D02*
X2568193Y-4212857D01*
X2568193Y-4212857D02*
X2566288Y-4216667D01*
X2566288Y-4216667D02*
X2564383Y-4218571D01*
X2564383Y-4218571D02*
X2560574Y-4220476D01*
X2560574Y-4220476D02*
X2552955Y-4222381D01*
X2552955Y-4222381D02*
X2543431Y-4222381D01*
X2543431Y-4222381D02*
X2535812Y-4220476D01*
X2535812Y-4220476D02*
X2532002Y-4218571D01*
X2532002Y-4218571D02*
X2530098Y-4216667D01*
X2530098Y-4216667D02*
X2528193Y-4212857D01*
D11*
X2960736Y-4954857D02*
X3019022Y-4954857D01*
X3019022Y-4954857D02*
X3025879Y-4951429D01*
X3025879Y-4951429D02*
X3029308Y-4948000D01*
X3029308Y-4948000D02*
X3032736Y-4941143D01*
X3032736Y-4941143D02*
X3032736Y-4927429D01*
X3032736Y-4927429D02*
X3029308Y-4920571D01*
X3029308Y-4920571D02*
X3025879Y-4917143D01*
X3025879Y-4917143D02*
X3019022Y-4913714D01*
X3019022Y-4913714D02*
X2960736Y-4913714D01*
X2984736Y-4848571D02*
X3032736Y-4848571D01*
X2957308Y-4865714D02*
X3008736Y-4882857D01*
X3008736Y-4882857D02*
X3008736Y-4838286D01*
D10*
X4893333Y-3949383D02*
X4891429Y-3951288D01*
X4891429Y-3951288D02*
X4885714Y-3953193D01*
X4885714Y-3953193D02*
X4881905Y-3953193D01*
X4881905Y-3953193D02*
X4876190Y-3951288D01*
X4876190Y-3951288D02*
X4872381Y-3947478D01*
X4872381Y-3947478D02*
X4870476Y-3943669D01*
X4870476Y-3943669D02*
X4868571Y-3936050D01*
X4868571Y-3936050D02*
X4868571Y-3930336D01*
X4868571Y-3930336D02*
X4870476Y-3922716D01*
X4870476Y-3922716D02*
X4872381Y-3918907D01*
X4872381Y-3918907D02*
X4876190Y-3915097D01*
X4876190Y-3915097D02*
X4881905Y-3913193D01*
X4881905Y-3913193D02*
X4885714Y-3913193D01*
X4885714Y-3913193D02*
X4891429Y-3915097D01*
X4891429Y-3915097D02*
X4893333Y-3917002D01*
X4912381Y-3953193D02*
X4920000Y-3953193D01*
X4920000Y-3953193D02*
X4923810Y-3951288D01*
X4923810Y-3951288D02*
X4925714Y-3949383D01*
X4925714Y-3949383D02*
X4929524Y-3943669D01*
X4929524Y-3943669D02*
X4931429Y-3936050D01*
X4931429Y-3936050D02*
X4931429Y-3920812D01*
X4931429Y-3920812D02*
X4929524Y-3917002D01*
X4929524Y-3917002D02*
X4927619Y-3915097D01*
X4927619Y-3915097D02*
X4923810Y-3913193D01*
X4923810Y-3913193D02*
X4916190Y-3913193D01*
X4916190Y-3913193D02*
X4912381Y-3915097D01*
X4912381Y-3915097D02*
X4910476Y-3917002D01*
X4910476Y-3917002D02*
X4908571Y-3920812D01*
X4908571Y-3920812D02*
X4908571Y-3930336D01*
X4908571Y-3930336D02*
X4910476Y-3934145D01*
X4910476Y-3934145D02*
X4912381Y-3936050D01*
X4912381Y-3936050D02*
X4916190Y-3937955D01*
X4916190Y-3937955D02*
X4923810Y-3937955D01*
X4923810Y-3937955D02*
X4927619Y-3936050D01*
X4927619Y-3936050D02*
X4929524Y-3934145D01*
X4929524Y-3934145D02*
X4931429Y-3930336D01*
D11*
X4860737Y-4254857D02*
X4919022Y-4254857D01*
X4919022Y-4254857D02*
X4925879Y-4251429D01*
X4925879Y-4251429D02*
X4929308Y-4248000D01*
X4929308Y-4248000D02*
X4932737Y-4241143D01*
X4932737Y-4241143D02*
X4932737Y-4227429D01*
X4932737Y-4227429D02*
X4929308Y-4220571D01*
X4929308Y-4220571D02*
X4925879Y-4217143D01*
X4925879Y-4217143D02*
X4919022Y-4213714D01*
X4919022Y-4213714D02*
X4860737Y-4213714D01*
X4860737Y-4186286D02*
X4860737Y-4138286D01*
X4860737Y-4138286D02*
X4932737Y-4169143D01*
X2960736Y-4054857D02*
X3019022Y-4054857D01*
X3019022Y-4054857D02*
X3025879Y-4051428D01*
X3025879Y-4051428D02*
X3029308Y-4048000D01*
X3029308Y-4048000D02*
X3032736Y-4041143D01*
X3032736Y-4041143D02*
X3032736Y-4027428D01*
X3032736Y-4027428D02*
X3029308Y-4020571D01*
X3029308Y-4020571D02*
X3025879Y-4017143D01*
X3025879Y-4017143D02*
X3019022Y-4013714D01*
X3019022Y-4013714D02*
X2960736Y-4013714D01*
X2960736Y-3986286D02*
X2960736Y-3941714D01*
X2960736Y-3941714D02*
X2988165Y-3965714D01*
X2988165Y-3965714D02*
X2988165Y-3955428D01*
X2988165Y-3955428D02*
X2991594Y-3948571D01*
X2991594Y-3948571D02*
X2995022Y-3945143D01*
X2995022Y-3945143D02*
X3001879Y-3941714D01*
X3001879Y-3941714D02*
X3019022Y-3941714D01*
X3019022Y-3941714D02*
X3025879Y-3945143D01*
X3025879Y-3945143D02*
X3029308Y-3948571D01*
X3029308Y-3948571D02*
X3032736Y-3955428D01*
X3032736Y-3955428D02*
X3032736Y-3976000D01*
X3032736Y-3976000D02*
X3029308Y-3982857D01*
X3029308Y-3982857D02*
X3025879Y-3986286D01*
D10*
X2693333Y-1878193D02*
X2680000Y-1859145D01*
X2670476Y-1878193D02*
X2670476Y-1838193D01*
X2670476Y-1838193D02*
X2685714Y-1838193D01*
X2685714Y-1838193D02*
X2689524Y-1840097D01*
X2689524Y-1840097D02*
X2691429Y-1842002D01*
X2691429Y-1842002D02*
X2693333Y-1845812D01*
X2693333Y-1845812D02*
X2693333Y-1851526D01*
X2693333Y-1851526D02*
X2691429Y-1855336D01*
X2691429Y-1855336D02*
X2689524Y-1857240D01*
X2689524Y-1857240D02*
X2685714Y-1859145D01*
X2685714Y-1859145D02*
X2670476Y-1859145D01*
X2727619Y-1838193D02*
X2720000Y-1838193D01*
X2720000Y-1838193D02*
X2716190Y-1840097D01*
X2716190Y-1840097D02*
X2714286Y-1842002D01*
X2714286Y-1842002D02*
X2710476Y-1847716D01*
X2710476Y-1847716D02*
X2708571Y-1855336D01*
X2708571Y-1855336D02*
X2708571Y-1870574D01*
X2708571Y-1870574D02*
X2710476Y-1874383D01*
X2710476Y-1874383D02*
X2712381Y-1876288D01*
X2712381Y-1876288D02*
X2716190Y-1878193D01*
X2716190Y-1878193D02*
X2723810Y-1878193D01*
X2723810Y-1878193D02*
X2727619Y-1876288D01*
X2727619Y-1876288D02*
X2729524Y-1874383D01*
X2729524Y-1874383D02*
X2731429Y-1870574D01*
X2731429Y-1870574D02*
X2731429Y-1861050D01*
X2731429Y-1861050D02*
X2729524Y-1857240D01*
X2729524Y-1857240D02*
X2727619Y-1855336D01*
X2727619Y-1855336D02*
X2723810Y-1853431D01*
X2723810Y-1853431D02*
X2716190Y-1853431D01*
X2716190Y-1853431D02*
X2712381Y-1855336D01*
X2712381Y-1855336D02*
X2710476Y-1857240D01*
X2710476Y-1857240D02*
X2708571Y-1861050D01*
X4574286Y-3118193D02*
X4560952Y-3099145D01*
X4551429Y-3118193D02*
X4551429Y-3078193D01*
X4551429Y-3078193D02*
X4566667Y-3078193D01*
X4566667Y-3078193D02*
X4570476Y-3080097D01*
X4570476Y-3080097D02*
X4572381Y-3082002D01*
X4572381Y-3082002D02*
X4574286Y-3085812D01*
X4574286Y-3085812D02*
X4574286Y-3091526D01*
X4574286Y-3091526D02*
X4572381Y-3095336D01*
X4572381Y-3095336D02*
X4570476Y-3097240D01*
X4570476Y-3097240D02*
X4566667Y-3099145D01*
X4566667Y-3099145D02*
X4551429Y-3099145D01*
X4612381Y-3118193D02*
X4589524Y-3118193D01*
X4600952Y-3118193D02*
X4600952Y-3078193D01*
X4600952Y-3078193D02*
X4597143Y-3083907D01*
X4597143Y-3083907D02*
X4593333Y-3087716D01*
X4593333Y-3087716D02*
X4589524Y-3089621D01*
X4625714Y-3078193D02*
X4652381Y-3078193D01*
X4652381Y-3078193D02*
X4635238Y-3118193D01*
D12*
X1966667Y-3515482D02*
X1966667Y-3586910D01*
X1966667Y-3586910D02*
X1961905Y-3601196D01*
X1961905Y-3601196D02*
X1952381Y-3610720D01*
X1952381Y-3610720D02*
X1938095Y-3615482D01*
X1938095Y-3615482D02*
X1928571Y-3615482D01*
X2066667Y-3615482D02*
X2009524Y-3615482D01*
X2038095Y-3615482D02*
X2038095Y-3515482D01*
X2038095Y-3515482D02*
X2028571Y-3529768D01*
X2028571Y-3529768D02*
X2019048Y-3539291D01*
X2019048Y-3539291D02*
X2009524Y-3544053D01*
D10*
X2693333Y-2218193D02*
X2680000Y-2199145D01*
X2670476Y-2218193D02*
X2670476Y-2178193D01*
X2670476Y-2178193D02*
X2685714Y-2178193D01*
X2685714Y-2178193D02*
X2689524Y-2180098D01*
X2689524Y-2180098D02*
X2691429Y-2182002D01*
X2691429Y-2182002D02*
X2693333Y-2185812D01*
X2693333Y-2185812D02*
X2693333Y-2191526D01*
X2693333Y-2191526D02*
X2691429Y-2195336D01*
X2691429Y-2195336D02*
X2689524Y-2197240D01*
X2689524Y-2197240D02*
X2685714Y-2199145D01*
X2685714Y-2199145D02*
X2670476Y-2199145D01*
X2729524Y-2178193D02*
X2710476Y-2178193D01*
X2710476Y-2178193D02*
X2708571Y-2197240D01*
X2708571Y-2197240D02*
X2710476Y-2195336D01*
X2710476Y-2195336D02*
X2714286Y-2193431D01*
X2714286Y-2193431D02*
X2723810Y-2193431D01*
X2723810Y-2193431D02*
X2727619Y-2195336D01*
X2727619Y-2195336D02*
X2729524Y-2197240D01*
X2729524Y-2197240D02*
X2731429Y-2201050D01*
X2731429Y-2201050D02*
X2731429Y-2210574D01*
X2731429Y-2210574D02*
X2729524Y-2214383D01*
X2729524Y-2214383D02*
X2727619Y-2216288D01*
X2727619Y-2216288D02*
X2723810Y-2218193D01*
X2723810Y-2218193D02*
X2714286Y-2218193D01*
X2714286Y-2218193D02*
X2710476Y-2216288D01*
X2710476Y-2216288D02*
X2708571Y-2214383D01*
X1588193Y-2706667D02*
X1569145Y-2720000D01*
X1588193Y-2729524D02*
X1548193Y-2729524D01*
X1548193Y-2729524D02*
X1548193Y-2714286D01*
X1548193Y-2714286D02*
X1550097Y-2710476D01*
X1550097Y-2710476D02*
X1552002Y-2708571D01*
X1552002Y-2708571D02*
X1555812Y-2706667D01*
X1555812Y-2706667D02*
X1561526Y-2706667D01*
X1561526Y-2706667D02*
X1565336Y-2708571D01*
X1565336Y-2708571D02*
X1567240Y-2710476D01*
X1567240Y-2710476D02*
X1569145Y-2714286D01*
X1569145Y-2714286D02*
X1569145Y-2729524D01*
X1552002Y-2691429D02*
X1550097Y-2689524D01*
X1550097Y-2689524D02*
X1548193Y-2685714D01*
X1548193Y-2685714D02*
X1548193Y-2676190D01*
X1548193Y-2676190D02*
X1550097Y-2672381D01*
X1550097Y-2672381D02*
X1552002Y-2670476D01*
X1552002Y-2670476D02*
X1555812Y-2668571D01*
X1555812Y-2668571D02*
X1559621Y-2668571D01*
X1559621Y-2668571D02*
X1565336Y-2670476D01*
X1565336Y-2670476D02*
X1588193Y-2693333D01*
X1588193Y-2693333D02*
X1588193Y-2668571D01*
X1993333Y-2564383D02*
X1991428Y-2566288D01*
X1991428Y-2566288D02*
X1985714Y-2568193D01*
X1985714Y-2568193D02*
X1981905Y-2568193D01*
X1981905Y-2568193D02*
X1976190Y-2566288D01*
X1976190Y-2566288D02*
X1972381Y-2562478D01*
X1972381Y-2562478D02*
X1970476Y-2558669D01*
X1970476Y-2558669D02*
X1968571Y-2551050D01*
X1968571Y-2551050D02*
X1968571Y-2545336D01*
X1968571Y-2545336D02*
X1970476Y-2537717D01*
X1970476Y-2537717D02*
X1972381Y-2533907D01*
X1972381Y-2533907D02*
X1976190Y-2530098D01*
X1976190Y-2530098D02*
X1981905Y-2528193D01*
X1981905Y-2528193D02*
X1985714Y-2528193D01*
X1985714Y-2528193D02*
X1991428Y-2530098D01*
X1991428Y-2530098D02*
X1993333Y-2532002D01*
X2006667Y-2528193D02*
X2031428Y-2528193D01*
X2031428Y-2528193D02*
X2018095Y-2543431D01*
X2018095Y-2543431D02*
X2023809Y-2543431D01*
X2023809Y-2543431D02*
X2027619Y-2545336D01*
X2027619Y-2545336D02*
X2029524Y-2547240D01*
X2029524Y-2547240D02*
X2031428Y-2551050D01*
X2031428Y-2551050D02*
X2031428Y-2560574D01*
X2031428Y-2560574D02*
X2029524Y-2564383D01*
X2029524Y-2564383D02*
X2027619Y-2566288D01*
X2027619Y-2566288D02*
X2023809Y-2568193D01*
X2023809Y-2568193D02*
X2012381Y-2568193D01*
X2012381Y-2568193D02*
X2008571Y-2566288D01*
X2008571Y-2566288D02*
X2006667Y-2564383D01*
X2568193Y-3906667D02*
X2549145Y-3920000D01*
X2568193Y-3929524D02*
X2528193Y-3929524D01*
X2528193Y-3929524D02*
X2528193Y-3914286D01*
X2528193Y-3914286D02*
X2530098Y-3910476D01*
X2530098Y-3910476D02*
X2532002Y-3908571D01*
X2532002Y-3908571D02*
X2535812Y-3906667D01*
X2535812Y-3906667D02*
X2541526Y-3906667D01*
X2541526Y-3906667D02*
X2545336Y-3908571D01*
X2545336Y-3908571D02*
X2547240Y-3910476D01*
X2547240Y-3910476D02*
X2549145Y-3914286D01*
X2549145Y-3914286D02*
X2549145Y-3929524D01*
X2568193Y-3887619D02*
X2568193Y-3880000D01*
X2568193Y-3880000D02*
X2566288Y-3876190D01*
X2566288Y-3876190D02*
X2564383Y-3874286D01*
X2564383Y-3874286D02*
X2558669Y-3870476D01*
X2558669Y-3870476D02*
X2551050Y-3868571D01*
X2551050Y-3868571D02*
X2535812Y-3868571D01*
X2535812Y-3868571D02*
X2532002Y-3870476D01*
X2532002Y-3870476D02*
X2530098Y-3872381D01*
X2530098Y-3872381D02*
X2528193Y-3876190D01*
X2528193Y-3876190D02*
X2528193Y-3883809D01*
X2528193Y-3883809D02*
X2530098Y-3887619D01*
X2530098Y-3887619D02*
X2532002Y-3889524D01*
X2532002Y-3889524D02*
X2535812Y-3891428D01*
X2535812Y-3891428D02*
X2545336Y-3891428D01*
X2545336Y-3891428D02*
X2549145Y-3889524D01*
X2549145Y-3889524D02*
X2551050Y-3887619D01*
X2551050Y-3887619D02*
X2552955Y-3883809D01*
X2552955Y-3883809D02*
X2552955Y-3876190D01*
X2552955Y-3876190D02*
X2551050Y-3872381D01*
X2551050Y-3872381D02*
X2549145Y-3870476D01*
X2549145Y-3870476D02*
X2545336Y-3868571D01*
X4293333Y-3064383D02*
X4291429Y-3066288D01*
X4291429Y-3066288D02*
X4285714Y-3068193D01*
X4285714Y-3068193D02*
X4281905Y-3068193D01*
X4281905Y-3068193D02*
X4276190Y-3066288D01*
X4276190Y-3066288D02*
X4272381Y-3062478D01*
X4272381Y-3062478D02*
X4270476Y-3058669D01*
X4270476Y-3058669D02*
X4268571Y-3051050D01*
X4268571Y-3051050D02*
X4268571Y-3045336D01*
X4268571Y-3045336D02*
X4270476Y-3037716D01*
X4270476Y-3037716D02*
X4272381Y-3033907D01*
X4272381Y-3033907D02*
X4276190Y-3030097D01*
X4276190Y-3030097D02*
X4281905Y-3028193D01*
X4281905Y-3028193D02*
X4285714Y-3028193D01*
X4285714Y-3028193D02*
X4291429Y-3030097D01*
X4291429Y-3030097D02*
X4293333Y-3032002D01*
X4316190Y-3045336D02*
X4312381Y-3043431D01*
X4312381Y-3043431D02*
X4310476Y-3041526D01*
X4310476Y-3041526D02*
X4308571Y-3037716D01*
X4308571Y-3037716D02*
X4308571Y-3035812D01*
X4308571Y-3035812D02*
X4310476Y-3032002D01*
X4310476Y-3032002D02*
X4312381Y-3030097D01*
X4312381Y-3030097D02*
X4316190Y-3028193D01*
X4316190Y-3028193D02*
X4323810Y-3028193D01*
X4323810Y-3028193D02*
X4327619Y-3030097D01*
X4327619Y-3030097D02*
X4329524Y-3032002D01*
X4329524Y-3032002D02*
X4331429Y-3035812D01*
X4331429Y-3035812D02*
X4331429Y-3037716D01*
X4331429Y-3037716D02*
X4329524Y-3041526D01*
X4329524Y-3041526D02*
X4327619Y-3043431D01*
X4327619Y-3043431D02*
X4323810Y-3045336D01*
X4323810Y-3045336D02*
X4316190Y-3045336D01*
X4316190Y-3045336D02*
X4312381Y-3047240D01*
X4312381Y-3047240D02*
X4310476Y-3049145D01*
X4310476Y-3049145D02*
X4308571Y-3052955D01*
X4308571Y-3052955D02*
X4308571Y-3060574D01*
X4308571Y-3060574D02*
X4310476Y-3064383D01*
X4310476Y-3064383D02*
X4312381Y-3066288D01*
X4312381Y-3066288D02*
X4316190Y-3068193D01*
X4316190Y-3068193D02*
X4323810Y-3068193D01*
X4323810Y-3068193D02*
X4327619Y-3066288D01*
X4327619Y-3066288D02*
X4329524Y-3064383D01*
X4329524Y-3064383D02*
X4331429Y-3060574D01*
X4331429Y-3060574D02*
X4331429Y-3052955D01*
X4331429Y-3052955D02*
X4329524Y-3049145D01*
X4329524Y-3049145D02*
X4327619Y-3047240D01*
X4327619Y-3047240D02*
X4323810Y-3045336D01*
X2693333Y-1708193D02*
X2680000Y-1689145D01*
X2670476Y-1708193D02*
X2670476Y-1668193D01*
X2670476Y-1668193D02*
X2685714Y-1668193D01*
X2685714Y-1668193D02*
X2689524Y-1670097D01*
X2689524Y-1670097D02*
X2691429Y-1672002D01*
X2691429Y-1672002D02*
X2693333Y-1675812D01*
X2693333Y-1675812D02*
X2693333Y-1681526D01*
X2693333Y-1681526D02*
X2691429Y-1685336D01*
X2691429Y-1685336D02*
X2689524Y-1687240D01*
X2689524Y-1687240D02*
X2685714Y-1689145D01*
X2685714Y-1689145D02*
X2670476Y-1689145D01*
X2706667Y-1668193D02*
X2733333Y-1668193D01*
X2733333Y-1668193D02*
X2716190Y-1708193D01*
X3324286Y-3218193D02*
X3310952Y-3199145D01*
X3301429Y-3218193D02*
X3301429Y-3178193D01*
X3301429Y-3178193D02*
X3316667Y-3178193D01*
X3316667Y-3178193D02*
X3320476Y-3180097D01*
X3320476Y-3180097D02*
X3322381Y-3182002D01*
X3322381Y-3182002D02*
X3324286Y-3185812D01*
X3324286Y-3185812D02*
X3324286Y-3191526D01*
X3324286Y-3191526D02*
X3322381Y-3195336D01*
X3322381Y-3195336D02*
X3320476Y-3197240D01*
X3320476Y-3197240D02*
X3316667Y-3199145D01*
X3316667Y-3199145D02*
X3301429Y-3199145D01*
X3362381Y-3218193D02*
X3339524Y-3218193D01*
X3350952Y-3218193D02*
X3350952Y-3178193D01*
X3350952Y-3178193D02*
X3347143Y-3183907D01*
X3347143Y-3183907D02*
X3343333Y-3187716D01*
X3343333Y-3187716D02*
X3339524Y-3189621D01*
X3375714Y-3178193D02*
X3400476Y-3178193D01*
X3400476Y-3178193D02*
X3387143Y-3193431D01*
X3387143Y-3193431D02*
X3392857Y-3193431D01*
X3392857Y-3193431D02*
X3396667Y-3195336D01*
X3396667Y-3195336D02*
X3398571Y-3197240D01*
X3398571Y-3197240D02*
X3400476Y-3201050D01*
X3400476Y-3201050D02*
X3400476Y-3210574D01*
X3400476Y-3210574D02*
X3398571Y-3214383D01*
X3398571Y-3214383D02*
X3396667Y-3216288D01*
X3396667Y-3216288D02*
X3392857Y-3218193D01*
X3392857Y-3218193D02*
X3381428Y-3218193D01*
X3381428Y-3218193D02*
X3377619Y-3216288D01*
X3377619Y-3216288D02*
X3375714Y-3214383D01*
X3968193Y-2625714D02*
X3949145Y-2639048D01*
X3968193Y-2648571D02*
X3928193Y-2648571D01*
X3928193Y-2648571D02*
X3928193Y-2633333D01*
X3928193Y-2633333D02*
X3930097Y-2629524D01*
X3930097Y-2629524D02*
X3932002Y-2627619D01*
X3932002Y-2627619D02*
X3935812Y-2625714D01*
X3935812Y-2625714D02*
X3941526Y-2625714D01*
X3941526Y-2625714D02*
X3945336Y-2627619D01*
X3945336Y-2627619D02*
X3947240Y-2629524D01*
X3947240Y-2629524D02*
X3949145Y-2633333D01*
X3949145Y-2633333D02*
X3949145Y-2648571D01*
X3968193Y-2587619D02*
X3968193Y-2610476D01*
X3968193Y-2599048D02*
X3928193Y-2599048D01*
X3928193Y-2599048D02*
X3933907Y-2602857D01*
X3933907Y-2602857D02*
X3937716Y-2606667D01*
X3937716Y-2606667D02*
X3939621Y-2610476D01*
X3928193Y-2551429D02*
X3928193Y-2570476D01*
X3928193Y-2570476D02*
X3947240Y-2572381D01*
X3947240Y-2572381D02*
X3945336Y-2570476D01*
X3945336Y-2570476D02*
X3943431Y-2566667D01*
X3943431Y-2566667D02*
X3943431Y-2557143D01*
X3943431Y-2557143D02*
X3945336Y-2553333D01*
X3945336Y-2553333D02*
X3947240Y-2551429D01*
X3947240Y-2551429D02*
X3951050Y-2549524D01*
X3951050Y-2549524D02*
X3960574Y-2549524D01*
X3960574Y-2549524D02*
X3964383Y-2551429D01*
X3964383Y-2551429D02*
X3966288Y-2553333D01*
X3966288Y-2553333D02*
X3968193Y-2557143D01*
X3968193Y-2557143D02*
X3968193Y-2566667D01*
X3968193Y-2566667D02*
X3966288Y-2570476D01*
X3966288Y-2570476D02*
X3964383Y-2572381D01*
X1443333Y-1594383D02*
X1441428Y-1596288D01*
X1441428Y-1596288D02*
X1435714Y-1598193D01*
X1435714Y-1598193D02*
X1431905Y-1598193D01*
X1431905Y-1598193D02*
X1426190Y-1596288D01*
X1426190Y-1596288D02*
X1422381Y-1592478D01*
X1422381Y-1592478D02*
X1420476Y-1588669D01*
X1420476Y-1588669D02*
X1418571Y-1581050D01*
X1418571Y-1581050D02*
X1418571Y-1575336D01*
X1418571Y-1575336D02*
X1420476Y-1567716D01*
X1420476Y-1567716D02*
X1422381Y-1563907D01*
X1422381Y-1563907D02*
X1426190Y-1560097D01*
X1426190Y-1560097D02*
X1431905Y-1558193D01*
X1431905Y-1558193D02*
X1435714Y-1558193D01*
X1435714Y-1558193D02*
X1441428Y-1560097D01*
X1441428Y-1560097D02*
X1443333Y-1562002D01*
X1458571Y-1562002D02*
X1460476Y-1560097D01*
X1460476Y-1560097D02*
X1464286Y-1558193D01*
X1464286Y-1558193D02*
X1473809Y-1558193D01*
X1473809Y-1558193D02*
X1477619Y-1560097D01*
X1477619Y-1560097D02*
X1479524Y-1562002D01*
X1479524Y-1562002D02*
X1481428Y-1565812D01*
X1481428Y-1565812D02*
X1481428Y-1569621D01*
X1481428Y-1569621D02*
X1479524Y-1575336D01*
X1479524Y-1575336D02*
X1456667Y-1598193D01*
X1456667Y-1598193D02*
X1481428Y-1598193D01*
X2568193Y-4825714D02*
X2549145Y-4839048D01*
X2568193Y-4848571D02*
X2528193Y-4848571D01*
X2528193Y-4848571D02*
X2528193Y-4833333D01*
X2528193Y-4833333D02*
X2530098Y-4829524D01*
X2530098Y-4829524D02*
X2532002Y-4827619D01*
X2532002Y-4827619D02*
X2535812Y-4825714D01*
X2535812Y-4825714D02*
X2541526Y-4825714D01*
X2541526Y-4825714D02*
X2545336Y-4827619D01*
X2545336Y-4827619D02*
X2547240Y-4829524D01*
X2547240Y-4829524D02*
X2549145Y-4833333D01*
X2549145Y-4833333D02*
X2549145Y-4848571D01*
X2568193Y-4787619D02*
X2568193Y-4810476D01*
X2568193Y-4799048D02*
X2528193Y-4799048D01*
X2528193Y-4799048D02*
X2533907Y-4802857D01*
X2533907Y-4802857D02*
X2537717Y-4806667D01*
X2537717Y-4806667D02*
X2539621Y-4810476D01*
X2568193Y-4749524D02*
X2568193Y-4772381D01*
X2568193Y-4760952D02*
X2528193Y-4760952D01*
X2528193Y-4760952D02*
X2533907Y-4764762D01*
X2533907Y-4764762D02*
X2537717Y-4768571D01*
X2537717Y-4768571D02*
X2539621Y-4772381D01*
D13*
X1472715Y-2058333D02*
X1448905Y-2075000D01*
X1472715Y-2086905D02*
X1422715Y-2086905D01*
X1422715Y-2086905D02*
X1422715Y-2067857D01*
X1422715Y-2067857D02*
X1425096Y-2063095D01*
X1425096Y-2063095D02*
X1427477Y-2060714D01*
X1427477Y-2060714D02*
X1432239Y-2058333D01*
X1432239Y-2058333D02*
X1439382Y-2058333D01*
X1439382Y-2058333D02*
X1444143Y-2060714D01*
X1444143Y-2060714D02*
X1446524Y-2063095D01*
X1446524Y-2063095D02*
X1448905Y-2067857D01*
X1448905Y-2067857D02*
X1448905Y-2086905D01*
X1472715Y-2010714D02*
X1472715Y-2039286D01*
X1472715Y-2025000D02*
X1422715Y-2025000D01*
X1422715Y-2025000D02*
X1429858Y-2029762D01*
X1429858Y-2029762D02*
X1434620Y-2034524D01*
X1434620Y-2034524D02*
X1437001Y-2039286D01*
D11*
X1960736Y-4154857D02*
X2019022Y-4154857D01*
X2019022Y-4154857D02*
X2025879Y-4151428D01*
X2025879Y-4151428D02*
X2029308Y-4148000D01*
X2029308Y-4148000D02*
X2032736Y-4141143D01*
X2032736Y-4141143D02*
X2032736Y-4127428D01*
X2032736Y-4127428D02*
X2029308Y-4120571D01*
X2029308Y-4120571D02*
X2025879Y-4117143D01*
X2025879Y-4117143D02*
X2019022Y-4113714D01*
X2019022Y-4113714D02*
X1960736Y-4113714D01*
X1967594Y-4082857D02*
X1964165Y-4079428D01*
X1964165Y-4079428D02*
X1960736Y-4072571D01*
X1960736Y-4072571D02*
X1960736Y-4055428D01*
X1960736Y-4055428D02*
X1964165Y-4048571D01*
X1964165Y-4048571D02*
X1967594Y-4045143D01*
X1967594Y-4045143D02*
X1974451Y-4041714D01*
X1974451Y-4041714D02*
X1981308Y-4041714D01*
X1981308Y-4041714D02*
X1991594Y-4045143D01*
X1991594Y-4045143D02*
X2032736Y-4086286D01*
X2032736Y-4086286D02*
X2032736Y-4041714D01*
D10*
X2693333Y-2048193D02*
X2680000Y-2029145D01*
X2670476Y-2048193D02*
X2670476Y-2008193D01*
X2670476Y-2008193D02*
X2685714Y-2008193D01*
X2685714Y-2008193D02*
X2689524Y-2010097D01*
X2689524Y-2010097D02*
X2691429Y-2012002D01*
X2691429Y-2012002D02*
X2693333Y-2015812D01*
X2693333Y-2015812D02*
X2693333Y-2021526D01*
X2693333Y-2021526D02*
X2691429Y-2025336D01*
X2691429Y-2025336D02*
X2689524Y-2027240D01*
X2689524Y-2027240D02*
X2685714Y-2029145D01*
X2685714Y-2029145D02*
X2670476Y-2029145D01*
X2727619Y-2021526D02*
X2727619Y-2048193D01*
X2718095Y-2006288D02*
X2708571Y-2034859D01*
X2708571Y-2034859D02*
X2733333Y-2034859D01*
D12*
X1939048Y-1956229D02*
X1939048Y-2020991D01*
X1939048Y-2020991D02*
X1942857Y-2028610D01*
X1942857Y-2028610D02*
X1946667Y-2032420D01*
X1946667Y-2032420D02*
X1954286Y-2036229D01*
X1954286Y-2036229D02*
X1969524Y-2036229D01*
X1969524Y-2036229D02*
X1977143Y-2032420D01*
X1977143Y-2032420D02*
X1980952Y-2028610D01*
X1980952Y-2028610D02*
X1984762Y-2020991D01*
X1984762Y-2020991D02*
X1984762Y-1956229D01*
X2064762Y-2036229D02*
X2019047Y-2036229D01*
X2041905Y-2036229D02*
X2041905Y-1956229D01*
X2041905Y-1956229D02*
X2034286Y-1967658D01*
X2034286Y-1967658D02*
X2026667Y-1975277D01*
X2026667Y-1975277D02*
X2019047Y-1979087D01*
D10*
X4268193Y-4575714D02*
X4249145Y-4589048D01*
X4268193Y-4598571D02*
X4228193Y-4598571D01*
X4228193Y-4598571D02*
X4228193Y-4583333D01*
X4228193Y-4583333D02*
X4230098Y-4579524D01*
X4230098Y-4579524D02*
X4232002Y-4577619D01*
X4232002Y-4577619D02*
X4235812Y-4575714D01*
X4235812Y-4575714D02*
X4241526Y-4575714D01*
X4241526Y-4575714D02*
X4245336Y-4577619D01*
X4245336Y-4577619D02*
X4247240Y-4579524D01*
X4247240Y-4579524D02*
X4249145Y-4583333D01*
X4249145Y-4583333D02*
X4249145Y-4598571D01*
X4268193Y-4537619D02*
X4268193Y-4560476D01*
X4268193Y-4549048D02*
X4228193Y-4549048D01*
X4228193Y-4549048D02*
X4233907Y-4552857D01*
X4233907Y-4552857D02*
X4237717Y-4556667D01*
X4237717Y-4556667D02*
X4239621Y-4560476D01*
X4241526Y-4503333D02*
X4268193Y-4503333D01*
X4226288Y-4512857D02*
X4254859Y-4522381D01*
X4254859Y-4522381D02*
X4254859Y-4497619D01*
X1993333Y-3849383D02*
X1991428Y-3851288D01*
X1991428Y-3851288D02*
X1985714Y-3853193D01*
X1985714Y-3853193D02*
X1981905Y-3853193D01*
X1981905Y-3853193D02*
X1976190Y-3851288D01*
X1976190Y-3851288D02*
X1972381Y-3847478D01*
X1972381Y-3847478D02*
X1970476Y-3843669D01*
X1970476Y-3843669D02*
X1968571Y-3836050D01*
X1968571Y-3836050D02*
X1968571Y-3830336D01*
X1968571Y-3830336D02*
X1970476Y-3822716D01*
X1970476Y-3822716D02*
X1972381Y-3818907D01*
X1972381Y-3818907D02*
X1976190Y-3815097D01*
X1976190Y-3815097D02*
X1981905Y-3813193D01*
X1981905Y-3813193D02*
X1985714Y-3813193D01*
X1985714Y-3813193D02*
X1991428Y-3815097D01*
X1991428Y-3815097D02*
X1993333Y-3817002D01*
X2027619Y-3826526D02*
X2027619Y-3853193D01*
X2018095Y-3811288D02*
X2008571Y-3839859D01*
X2008571Y-3839859D02*
X2033333Y-3839859D01*
%TO.C,R18*%
D14*
X5208750Y-4370000D02*
X5291250Y-4370000D01*
X5291250Y-4530000D01*
X5208750Y-4530000D01*
X5208750Y-4370000D01*
%TO.C,C1*%
X1360000Y-1760000D02*
X1520000Y-1760000D01*
X1520000Y-1840000D01*
X1360000Y-1840000D01*
X1360000Y-1760000D01*
%TO.C,C7*%
X3920000Y-3895000D02*
X4080000Y-3895000D01*
X4080000Y-3975000D01*
X3920000Y-3975000D01*
X3920000Y-3895000D01*
%TO.C,C6*%
X2920000Y-4595000D02*
X3080000Y-4595000D01*
X3080000Y-4675000D01*
X2920000Y-4675000D01*
X2920000Y-4595000D01*
%TO.C,R3*%
X2388750Y-2620000D02*
X2471250Y-2620000D01*
X2471250Y-2780000D01*
X2388750Y-2780000D01*
X2388750Y-2620000D01*
%TO.C,U6*%
D15*
X4222500Y-2722500D02*
X4377500Y-2722500D01*
X4377500Y-2877500D01*
X4222500Y-2877500D01*
X4222500Y-2722500D01*
D14*
%TO.C,U5*%
X3960000Y-4055000D02*
X4080000Y-4055000D01*
X4080000Y-4345000D01*
X3920000Y-4345000D01*
X3920000Y-4095000D01*
X3960000Y-4055000D01*
%TO.C,R8*%
X3520000Y-1160000D02*
X3680000Y-1160000D01*
X3680000Y-1240000D01*
X3520000Y-1240000D01*
X3520000Y-1160000D01*
%TO.C,R16*%
X3908750Y-2870000D02*
X3991250Y-2870000D01*
X3991250Y-3030000D01*
X3908750Y-3030000D01*
X3908750Y-2870000D01*
%TO.C,R12*%
X2508750Y-5070000D02*
X2591250Y-5070000D01*
X2591250Y-5230000D01*
X2508750Y-5230000D01*
X2508750Y-5070000D01*
%TO.C,C5*%
X2920000Y-3695000D02*
X3080000Y-3695000D01*
X3080000Y-3775000D01*
X2920000Y-3775000D01*
X2920000Y-3695000D01*
%TO.C,R10*%
X2508750Y-4170000D02*
X2591250Y-4170000D01*
X2591250Y-4330000D01*
X2508750Y-4330000D01*
X2508750Y-4170000D01*
%TO.C,U4*%
X2960000Y-4755000D02*
X3080000Y-4755000D01*
X3080000Y-5045000D01*
X2920000Y-5045000D01*
X2920000Y-4795000D01*
X2960000Y-4755000D01*
%TO.C,C9*%
X4820000Y-3895000D02*
X4980000Y-3895000D01*
X4980000Y-3975000D01*
X4820000Y-3975000D01*
X4820000Y-3895000D01*
%TO.C,U7*%
X4860000Y-4055000D02*
X4980000Y-4055000D01*
X4980000Y-4345000D01*
X4820000Y-4345000D01*
X4820000Y-4095000D01*
X4860000Y-4055000D01*
%TO.C,U3*%
X2960000Y-3855000D02*
X3080000Y-3855000D01*
X3080000Y-4145000D01*
X2920000Y-4145000D01*
X2920000Y-3895000D01*
X2960000Y-3855000D01*
%TO.C,R6*%
X2620000Y-1818750D02*
X2780000Y-1818750D01*
X2780000Y-1901250D01*
X2620000Y-1901250D01*
X2620000Y-1818750D01*
%TO.C,R17*%
X4520000Y-3058750D02*
X4680000Y-3058750D01*
X4680000Y-3141250D01*
X4520000Y-3141250D01*
X4520000Y-3058750D01*
%TO.C,J1*%
X1562500Y-3065000D02*
X1625000Y-3165000D01*
X1625000Y-3165000D02*
X1687500Y-3065000D01*
X1380000Y-3065000D02*
X2620000Y-3065000D01*
X2620000Y-3640000D01*
X1380000Y-3640000D01*
X1380000Y-3065000D01*
%TO.C,J2*%
D15*
X4628500Y-882500D02*
X4971500Y-882500D01*
X4971500Y-1517500D01*
X4628500Y-1517500D01*
X4628500Y-882500D01*
%TO.C,R5*%
D14*
X2620000Y-2158750D02*
X2780000Y-2158750D01*
X2780000Y-2241250D01*
X2620000Y-2241250D01*
X2620000Y-2158750D01*
%TO.C,R2*%
X1528750Y-2620000D02*
X1611250Y-2620000D01*
X1611250Y-2780000D01*
X1528750Y-2780000D01*
X1528750Y-2620000D01*
%TO.C,C3*%
X1920000Y-2510000D02*
X2080000Y-2510000D01*
X2080000Y-2590000D01*
X1920000Y-2590000D01*
X1920000Y-2510000D01*
%TO.C,R9*%
X2508750Y-3820000D02*
X2591250Y-3820000D01*
X2591250Y-3980000D01*
X2508750Y-3980000D01*
X2508750Y-3820000D01*
%TO.C,C8*%
X4220000Y-3010000D02*
X4380000Y-3010000D01*
X4380000Y-3090000D01*
X4220000Y-3090000D01*
X4220000Y-3010000D01*
%TO.C,R7*%
X2620000Y-1648750D02*
X2780000Y-1648750D01*
X2780000Y-1731250D01*
X2620000Y-1731250D01*
X2620000Y-1648750D01*
%TO.C,R13*%
X3270000Y-3158750D02*
X3430000Y-3158750D01*
X3430000Y-3241250D01*
X3270000Y-3241250D01*
X3270000Y-3158750D01*
%TO.C,R15*%
X3908750Y-2520000D02*
X3991250Y-2520000D01*
X3991250Y-2680000D01*
X3908750Y-2680000D01*
X3908750Y-2520000D01*
%TO.C,C2*%
X1370000Y-1540000D02*
X1530000Y-1540000D01*
X1530000Y-1620000D01*
X1370000Y-1620000D01*
X1370000Y-1540000D01*
%TO.C,R11*%
X2508750Y-4720000D02*
X2591250Y-4720000D01*
X2591250Y-4880000D01*
X2508750Y-4880000D01*
X2508750Y-4720000D01*
%TO.C,R1*%
X1387500Y-1950000D02*
X1512500Y-1950000D01*
X1512500Y-2150000D01*
X1387500Y-2150000D01*
X1387500Y-1950000D01*
%TO.C,U2*%
X2040000Y-4245000D02*
X1920000Y-4245000D01*
X1920000Y-3955000D01*
X2080000Y-3955000D01*
X2080000Y-4205000D01*
X2040000Y-4245000D01*
%TO.C,R4*%
X2620000Y-1988750D02*
X2780000Y-1988750D01*
X2780000Y-2071250D01*
X2620000Y-2071250D01*
X2620000Y-1988750D01*
%TO.C,U1*%
D12*
X1805000Y-1665000D02*
X1905000Y-1565000D01*
X1805000Y-2435000D02*
X1805000Y-1665000D01*
X1905000Y-1565000D02*
X2195000Y-1565000D01*
X2195000Y-1565000D02*
X2195000Y-2435000D01*
X2195000Y-2435000D02*
X1805000Y-2435000D01*
%TO.C,R14*%
D14*
X4208750Y-4470000D02*
X4291250Y-4470000D01*
X4291250Y-4630000D01*
X4208750Y-4630000D01*
X4208750Y-4470000D01*
%TO.C,C4*%
X1920000Y-3795000D02*
X2080000Y-3795000D01*
X2080000Y-3875000D01*
X1920000Y-3875000D01*
X1920000Y-3795000D01*
%TD*%
M02*
