M48
; DRILL file KiCad 10.0.4 date 2026-09-24T00:18:08
; FORMAT={-:-/ absolute / metric / decimal}
; #@! TF.CreationDate,2026-09-24T00:18:08-06:00
; #@! TF.GenerationSoftware,Kicad,Pcbnew,10.0.4
; #@! TF.FileFunction,MixedPlating,1,4
FMAT,2
METRIC
; #@! TA.AperFunction,Plated,PTH,ViaDrill
T1C0.300
; #@! TA.AperFunction,Plated,PTH,ComponentDrill
T2C0.710
; #@! TA.AperFunction,Plated,PTH,ComponentDrill
T3C0.950
%
G90
G05
T1
X12.8Y-15.8
X12.8Y-18.2
X13.3Y-27.5
X13.4Y-19.587
X14.5Y-14.8
X14.5Y-26.175
X16.5Y-13.3
X17.5Y-34.9
X17.5Y-41.95
X17.7Y-13.3
X18.1Y-25.5
X18.4Y-38.35
X19.0Y-22.223
X19.1Y-24.1
X20.0Y-42.95
X21.0Y-21.587
X21.5Y-38.35
X22.5Y-41.95
X23.1Y-34.5
X24.0Y-17.777
X24.2Y-38.175
X24.4Y-52.325
X25.5Y-26.175
X25.5Y-27.5
X27.2Y-40.95
X27.8Y-15.6
X27.9Y-40.0
X27.9Y-49.0
X28.4Y-37.35
X28.4Y-46.35
X29.0Y-16.9
X29.5Y-20.3
X29.5Y-22.0
X31.8Y-32.0
X31.8Y-33.2
X32.0Y-20.7
X33.0Y-49.95
X34.0Y-12.0
X34.2Y-49.95
X35.2Y-32.0
X36.4Y-32.0
X37.8Y-42.95
X38.4Y-30.325
X38.4Y-39.35
X41.3Y-30.5
X41.5Y-28.0
X43.6Y-46.325
X45.0Y-30.5
X46.0Y-36.825
X46.0Y-42.0
X46.7Y-42.95
X47.4Y-39.35
X50.6Y-39.35
X53.5Y-45.325
X54.7Y-43.675
T2
X47.365Y-9.46
X47.365Y-10.73
X47.365Y-12.0
X47.365Y-13.27
X47.365Y-14.54
X48.635Y-9.46
X48.635Y-10.73
X48.635Y-12.0
X48.635Y-13.27
X48.635Y-14.54
T3
X16.25Y-33.0
X18.75Y-33.0
X21.25Y-33.0
X23.75Y-33.0
M30
