%TF.GenerationSoftware,KiCad,Pcbnew,10.0.4*%
%TF.CreationDate,2026-09-24T00:17:31-06:00*%
%TF.ProjectId,section,73656374-696f-46e2-9e6b-696361645f70,rev?*%
%TF.SameCoordinates,Original*%
%TF.FileFunction,Copper,L1,Top*%
%TF.FilePolarity,Positive*%
%FSLAX45Y45*%
G04 Gerber Fmt 4.5, Leading zero omitted, Abs format (unit mm)*
G04 Created by KiCad (PCBNEW 10.0.4) date 2026-09-24 00:17:31*
%MOMM*%
%LPD*%
G01*
G04 APERTURE LIST*
G04 Aperture macros list*
%AMRoundRect*
0 Rectangle with rounded corners*
0 $1 Rounding radius*
0 $2 $3 $4 $5 $6 $7 $8 $9 X,Y pos of 4 corners*
0 Add a 4 corners polygon primitive as box body*
4,1,4,$2,$3,$4,$5,$6,$7,$8,$9,$2,$3,0*
0 Add four circle primitives for the rounded corners*
1,1,$1+$1,$2,$3*
1,1,$1+$1,$4,$5*
1,1,$1+$1,$6,$7*
1,1,$1+$1,$8,$9*
0 Add four rect primitives between the rounded corners*
20,1,$1+$1,$2,$3,$4,$5,0*
20,1,$1+$1,$4,$5,$6,$7,0*
20,1,$1+$1,$6,$7,$8,$9,0*
20,1,$1+$1,$8,$9,$2,$3,0*%
G04 Aperture macros list end*
%TA.AperFunction,SMDPad,CuDef*%
%ADD10RoundRect,0.200000X0.275000X-0.200000X0.275000X0.200000X-0.275000X0.200000X-0.275000X-0.200000X0*%
%TD*%
%TA.AperFunction,SMDPad,CuDef*%
%ADD11RoundRect,0.225000X0.225000X0.250000X-0.225000X0.250000X-0.225000X-0.250000X0.225000X-0.250000X0*%
%TD*%
%TA.AperFunction,SMDPad,CuDef*%
%ADD12RoundRect,0.050000X-0.350000X-0.075000X0.350000X-0.075000X0.350000X0.075000X-0.350000X0.075000X0*%
%TD*%
%TA.AperFunction,SMDPad,CuDef*%
%ADD13RoundRect,0.050000X-0.300000X-0.075000X0.300000X-0.075000X0.300000X0.075000X-0.300000X0.075000X0*%
%TD*%
%TA.AperFunction,SMDPad,CuDef*%
%ADD14RoundRect,0.150000X-0.512500X-0.150000X0.512500X-0.150000X0.512500X0.150000X-0.512500X0.150000X0*%
%TD*%
%TA.AperFunction,SMDPad,CuDef*%
%ADD15RoundRect,0.218750X-0.218750X-0.256250X0.218750X-0.256250X0.218750X0.256250X-0.218750X0.256250X0*%
%TD*%
%TA.AperFunction,SMDPad,CuDef*%
%ADD16RoundRect,0.200000X-0.275000X0.200000X-0.275000X-0.200000X0.275000X-0.200000X0.275000X0.200000X0*%
%TD*%
%TA.AperFunction,SMDPad,CuDef*%
%ADD17RoundRect,0.200000X0.200000X0.275000X-0.200000X0.275000X-0.200000X-0.275000X0.200000X-0.275000X0*%
%TD*%
%TA.AperFunction,SMDPad,CuDef*%
%ADD18RoundRect,0.200000X-0.200000X-0.275000X0.200000X-0.275000X0.200000X0.275000X-0.200000X0.275000X0*%
%TD*%
%TA.AperFunction,ComponentPad*%
%ADD19RoundRect,0.250000X-0.600000X-0.725000X0.600000X-0.725000X0.600000X0.725000X-0.600000X0.725000X0*%
%TD*%
%TA.AperFunction,ComponentPad*%
%ADD20O,1.700000X1.950000*%
%TD*%
%TA.AperFunction,ComponentPad*%
%ADD21R,1.050000X1.050000*%
%TD*%
%TA.AperFunction,ComponentPad*%
%ADD22C,1.050000*%
%TD*%
%TA.AperFunction,SMDPad,CuDef*%
%ADD23RoundRect,0.225000X-0.225000X-0.250000X0.225000X-0.250000X0.225000X0.250000X-0.225000X0.250000X0*%
%TD*%
%TA.AperFunction,SMDPad,CuDef*%
%ADD24RoundRect,0.250000X-0.450000X0.262500X-0.450000X-0.262500X0.450000X-0.262500X0.450000X0.262500X0*%
%TD*%
%TA.AperFunction,SMDPad,CuDef*%
%ADD25RoundRect,0.150000X0.512500X0.150000X-0.512500X0.150000X-0.512500X-0.150000X0.512500X-0.150000X0*%
%TD*%
%TA.AperFunction,SMDPad,CuDef*%
%ADD26R,1.200000X0.400000*%
%TD*%
%TA.AperFunction,ViaPad*%
%ADD27C,0.700000*%
%TD*%
%TA.AperFunction,Conductor*%
%ADD28C,0.300000*%
%TD*%
%TA.AperFunction,Conductor*%
%ADD29C,0.200000*%
%TD*%
G04 APERTURE END LIST*
D10*
%TO.P,R18,1*%
%TO.N,+3V3*%
X5250000Y-4532500D03*
%TO.P,R18,2*%
%TO.N,RTD_HW_FAULT*%
X5250000Y-4367500D03*
%TD*%
D11*
%TO.P,C1,1*%
%TO.N,RTD_AVDD*%
X1517500Y-1800000D03*
%TO.P,C1,2*%
%TO.N,gnd*%
X1362500Y-1800000D03*
%TD*%
%TO.P,C7,1*%
%TO.N,RTD_AVDD*%
X4077500Y-3935000D03*
%TO.P,C7,2*%
%TO.N,gnd*%
X3922500Y-3935000D03*
%TD*%
%TO.P,C6,1*%
%TO.N,RTD_AVDD*%
X3077500Y-4635000D03*
%TO.P,C6,2*%
%TO.N,gnd*%
X2922500Y-4635000D03*
%TD*%
D10*
%TO.P,R3,1*%
%TO.N,rtd_sense_n*%
X2430000Y-2782500D03*
%TO.P,R3,2*%
%TO.N,bias*%
X2430000Y-2617500D03*
%TD*%
D12*
%TO.P,U6,1*%
%TO.N,sense*%
X4245000Y-2750000D03*
D13*
%TO.P,U6,2*%
%TO.N,gnd*%
X4240000Y-2800000D03*
%TO.P,U6,3*%
%TO.N,+3V3*%
X4240000Y-2850000D03*
%TO.P,U6,4*%
X4360000Y-2850000D03*
%TO.P,U6,5*%
%TO.N,ct*%
X4360000Y-2800000D03*
%TO.P,U6,6*%
%TO.N,reset*%
X4360000Y-2750000D03*
%TD*%
D14*
%TO.P,U5,1*%
%TO.N,rtd_pan.low_window-out*%
X3886250Y-4105000D03*
%TO.P,U5,2*%
%TO.N,rtd_pan.high_window-out*%
X3886250Y-4200000D03*
%TO.P,U5,3*%
%TO.N,gnd*%
X3886250Y-4295000D03*
%TO.P,U5,4*%
%TO.N,y*%
X4113750Y-4295000D03*
%TO.P,U5,5*%
%TO.N,RTD_AVDD*%
X4113750Y-4105000D03*
%TD*%
D15*
%TO.P,R8,1*%
%TO.N,+3V3*%
X3521250Y-1200000D03*
%TO.P,R8,2*%
%TO.N,RTD_AVDD*%
X3678750Y-1200000D03*
%TD*%
D16*
%TO.P,R16,1*%
%TO.N,sense*%
X3950000Y-2867500D03*
%TO.P,R16,2*%
%TO.N,gnd*%
X3950000Y-3032500D03*
%TD*%
%TO.P,R12,1*%
%TO.N,inp*%
X2550000Y-5067500D03*
%TO.P,R12,2*%
%TO.N,gnd*%
X2550000Y-5232500D03*
%TD*%
D11*
%TO.P,C5,1*%
%TO.N,RTD_AVDD*%
X3077500Y-3735000D03*
%TO.P,C5,2*%
%TO.N,gnd*%
X2922500Y-3735000D03*
%TD*%
D16*
%TO.P,R10,1*%
%TO.N,inn*%
X2550000Y-4167500D03*
%TO.P,R10,2*%
%TO.N,rtd_sense_n*%
X2550000Y-4332500D03*
%TD*%
D14*
%TO.P,U4,1*%
%TO.N,rtd_pan.high_window-out*%
X2886250Y-4805000D03*
%TO.P,U4,2*%
%TO.N,gnd*%
X2886250Y-4900000D03*
%TO.P,U4,3*%
%TO.N,inp*%
X2886250Y-4995000D03*
%TO.P,U4,4*%
%TO.N,window_rtdin_p*%
X3113750Y-4995000D03*
%TO.P,U4,5*%
%TO.N,RTD_AVDD*%
X3113750Y-4805000D03*
%TD*%
D11*
%TO.P,C9,1*%
%TO.N,+3V3*%
X4977500Y-3935000D03*
%TO.P,C9,2*%
%TO.N,gnd*%
X4822500Y-3935000D03*
%TD*%
D14*
%TO.P,U7,1*%
%TO.N,y*%
X4786250Y-4105000D03*
%TO.P,U7,2*%
%TO.N,reset*%
X4786250Y-4200000D03*
%TO.P,U7,3*%
%TO.N,gnd*%
X4786250Y-4295000D03*
%TO.P,U7,4*%
%TO.N,RTD_HW_FAULT*%
X5013750Y-4295000D03*
%TO.P,U7,5*%
%TO.N,+3V3*%
X5013750Y-4105000D03*
%TD*%
%TO.P,U3,1*%
%TO.N,rtd_pan.low_window-out*%
X2886250Y-3905000D03*
%TO.P,U3,2*%
%TO.N,gnd*%
X2886250Y-4000000D03*
%TO.P,U3,3*%
%TO.N,window_rtdin_p*%
X2886250Y-4095000D03*
%TO.P,U3,4*%
%TO.N,inn*%
X3113750Y-4095000D03*
%TO.P,U3,5*%
%TO.N,RTD_AVDD*%
X3113750Y-3905000D03*
%TD*%
D17*
%TO.P,R6,1*%
%TO.N,RTD_CS_N*%
X2782500Y-1860000D03*
%TO.P,R6,2*%
%TO.N,cs_n*%
X2617500Y-1860000D03*
%TD*%
D18*
%TO.P,R17,1*%
%TO.N,+3V3*%
X4517500Y-3100000D03*
%TO.P,R17,2*%
%TO.N,reset*%
X4682500Y-3100000D03*
%TD*%
D19*
%TO.P,J1,1*%
%TO.N,rtd_force_p*%
X1625000Y-3300000D03*
D20*
%TO.P,J1,2*%
%TO.N,rtd_sense_p*%
X1875000Y-3300000D03*
%TO.P,J1,3*%
%TO.N,rtd_sense_n*%
X2125000Y-3300000D03*
%TO.P,J1,4*%
%TO.N,rtd_force_n*%
X2375000Y-3300000D03*
%TD*%
D21*
%TO.P,J2,1*%
%TO.N,+3V3*%
X4736500Y-946000D03*
D22*
%TO.P,J2,2*%
%TO.N,gnd*%
X4863500Y-946000D03*
%TO.P,J2,3*%
X4736500Y-1073000D03*
%TO.P,J2,4*%
%TO.N,RTD_SCK*%
X4863500Y-1073000D03*
%TO.P,J2,5*%
%TO.N,RTD_SDI*%
X4736500Y-1200000D03*
%TO.P,J2,6*%
%TO.N,RTD_SDO*%
X4863500Y-1200000D03*
%TO.P,J2,7*%
%TO.N,RTD_CS_N*%
X4736500Y-1327000D03*
%TO.P,J2,8*%
%TO.N,RTD_DRDY*%
X4863500Y-1327000D03*
%TO.P,J2,9*%
%TO.N,RTD_HW_FAULT*%
X4736500Y-1454000D03*
%TO.P,J2,10*%
%TO.N,SHARED_REF_2V5*%
X4863500Y-1454000D03*
%TD*%
D17*
%TO.P,R5,1*%
%TO.N,RTD_SDI*%
X2782500Y-2200000D03*
%TO.P,R5,2*%
%TO.N,sdi*%
X2617500Y-2200000D03*
%TD*%
D10*
%TO.P,R2,1*%
%TO.N,rtd_sense_p*%
X1570000Y-2782500D03*
%TO.P,R2,2*%
%TO.N,bias*%
X1570000Y-2617500D03*
%TD*%
D23*
%TO.P,C3,1*%
%TO.N,rtd_sense_p*%
X1922500Y-2550000D03*
%TO.P,C3,2*%
%TO.N,rtd_sense_n*%
X2077500Y-2550000D03*
%TD*%
D16*
%TO.P,R9,1*%
%TO.N,vbias*%
X2550000Y-3817500D03*
%TO.P,R9,2*%
%TO.N,inn*%
X2550000Y-3982500D03*
%TD*%
D11*
%TO.P,C8,1*%
%TO.N,+3V3*%
X4377500Y-3050000D03*
%TO.P,C8,2*%
%TO.N,gnd*%
X4222500Y-3050000D03*
%TD*%
D18*
%TO.P,R7,1*%
%TO.N,sdo*%
X2617500Y-1690000D03*
%TO.P,R7,2*%
%TO.N,RTD_SDO*%
X2782500Y-1690000D03*
%TD*%
%TO.P,R13,1*%
%TO.N,rtd_sense_p*%
X3267500Y-3200000D03*
%TO.P,R13,2*%
%TO.N,window_rtdin_p*%
X3432500Y-3200000D03*
%TD*%
D16*
%TO.P,R15,1*%
%TO.N,RTD_AVDD*%
X3950000Y-2517500D03*
%TO.P,R15,2*%
%TO.N,sense*%
X3950000Y-2682500D03*
%TD*%
D11*
%TO.P,C2,1*%
%TO.N,+3V3*%
X1527500Y-1580000D03*
%TO.P,C2,2*%
%TO.N,gnd*%
X1372500Y-1580000D03*
%TD*%
D16*
%TO.P,R11,1*%
%TO.N,vbias*%
X2550000Y-4717500D03*
%TO.P,R11,2*%
%TO.N,inp*%
X2550000Y-4882500D03*
%TD*%
D24*
%TO.P,R1,1*%
%TO.N,bias*%
X1450000Y-1958750D03*
%TO.P,R1,2*%
%TO.N,refin_n*%
X1450000Y-2141250D03*
%TD*%
D25*
%TO.P,U2,1*%
%TO.N,vbias*%
X2113750Y-4195000D03*
%TO.P,U2,2*%
%TO.N,gnd*%
X2113750Y-4100000D03*
%TO.P,U2,3*%
%TO.N,+3V3*%
X2113750Y-4005000D03*
%TO.P,U2,4*%
X1886250Y-4005000D03*
%TO.P,U2,5*%
%TO.N,SHARED_REF_2V5*%
X1886250Y-4195000D03*
%TD*%
D17*
%TO.P,R4,1*%
%TO.N,RTD_SCK*%
X2782500Y-2030000D03*
%TO.P,R4,2*%
%TO.N,sclk*%
X2617500Y-2030000D03*
%TD*%
D26*
%TO.P,U1,1*%
%TO.N,RTD_DRDY*%
X1740000Y-1714250D03*
%TO.P,U1,2*%
%TO.N,+3V3*%
X1740000Y-1777750D03*
%TO.P,U1,3*%
%TO.N,RTD_AVDD*%
X1740000Y-1841250D03*
%TO.P,U1,4*%
%TO.N,bias*%
X1740000Y-1904750D03*
%TO.P,U1,5*%
X1740000Y-1968250D03*
%TO.P,U1,6*%
%TO.N,refin_n*%
X1740000Y-2031750D03*
%TO.P,U1,7*%
X1740000Y-2095250D03*
%TO.P,U1,8*%
%TO.N,rtd_force_p*%
X1740000Y-2158750D03*
%TO.P,U1,9*%
%TO.N,gnd*%
X1740000Y-2222250D03*
%TO.P,U1,10*%
%TO.N,rtd_sense_p*%
X1740000Y-2285750D03*
%TO.P,U1,11*%
%TO.N,rtd_sense_n*%
X2260000Y-2285750D03*
%TO.P,U1,12*%
%TO.N,rtd_force_n*%
X2260000Y-2222250D03*
%TO.P,U1,13*%
%TO.N,gnd*%
X2260000Y-2158750D03*
%TO.P,U1,14*%
%TO.N,sdi*%
X2260000Y-2095250D03*
%TO.P,U1,15*%
%TO.N,sclk*%
X2260000Y-2031750D03*
%TO.P,U1,16*%
%TO.N,cs_n*%
X2260000Y-1968250D03*
%TO.P,U1,17*%
%TO.N,sdo*%
X2260000Y-1904750D03*
%TO.P,U1,18*%
%TO.N,gnd*%
X2260000Y-1841250D03*
%TO.P,U1,19*%
X2260000Y-1777750D03*
%TO.P,U1,20*%
%TO.N,nc3*%
X2260000Y-1714250D03*
%TD*%
D16*
%TO.P,R14,1*%
%TO.N,y*%
X4250000Y-4467500D03*
%TO.P,R14,2*%
%TO.N,gnd*%
X4250000Y-4632500D03*
%TD*%
D23*
%TO.P,C4,1*%
%TO.N,+3V3*%
X1922500Y-3835000D03*
%TO.P,C4,2*%
%TO.N,gnd*%
X2077500Y-3835000D03*
%TD*%
D27*
%TO.N,+3V3*%
X5350000Y-4532500D03*
X4500000Y-3050000D03*
X1840000Y-3835000D03*
X1450000Y-1480000D03*
X3400000Y-1200000D03*
X5060000Y-3935000D03*
%TO.N,RTD_HW_FAULT*%
X5470000Y-4367500D03*
%TO.N,gnd*%
X4740000Y-3935000D03*
X2150000Y-3835000D03*
X2790000Y-4000000D03*
X1770000Y-1330000D03*
X4150000Y-2800000D03*
X2100000Y-2158750D03*
X1330000Y-2750000D03*
X2400000Y-1777750D03*
X2780000Y-1560000D03*
X1910000Y-2410000D03*
X2440000Y-5232500D03*
X2550000Y-2750000D03*
X3180000Y-3320000D03*
X1280000Y-1820000D03*
X1900000Y-2222250D03*
X4360000Y-4632500D03*
X3840000Y-3032500D03*
X3420000Y-4995000D03*
X3200000Y-2070000D03*
X2840000Y-4635000D03*
X4670000Y-4295000D03*
X4130000Y-3050000D03*
X1750000Y-3490000D03*
X2310000Y-3450000D03*
X1280000Y-1580000D03*
X3640000Y-3200000D03*
X3840000Y-3935000D03*
X3780000Y-4295000D03*
X2840000Y-3735000D03*
X2790000Y-4900000D03*
X2000000Y-4295000D03*
%TO.N,bias*%
X1450000Y-2617500D03*
X1340000Y-1958750D03*
X2550000Y-2617500D03*
%TO.N,reset*%
X4600000Y-4200000D03*
X4600000Y-3682500D03*
%TO.N,window_rtdin_p*%
X3520000Y-3200000D03*
X3300000Y-4995000D03*
X2720000Y-4095000D03*
%TO.N,rtd_sense_p*%
X3180000Y-3200000D03*
X1810000Y-2550000D03*
%TO.N,RTD_SCK*%
X2950000Y-2030000D03*
%TO.N,RTD_SDI*%
X2950000Y-2200000D03*
%TO.N,RTD_SDO*%
X2900000Y-1690000D03*
%TO.N,RTD_DRDY*%
X1650000Y-1330000D03*
%TO.N,SHARED_REF_2V5*%
X1750000Y-4195000D03*
%TO.N,vbias*%
X2420000Y-3817500D03*
X2250000Y-4195000D03*
%TD*%
%TO.N,+3V3*%
D28*
X5013750Y-4105000D02*
X4977500Y-3935000D01*
X4517500Y-3100000D02*
X4517500Y-3050000D01*
X1922500Y-3920000D02*
X1922500Y-3835000D01*
X4517500Y-3050000D02*
X4500000Y-3050000D01*
D29*
X1600000Y-1650000D02*
X1527500Y-1580000D01*
D28*
X4377500Y-3050000D02*
X4500000Y-3050000D01*
X5250000Y-4532500D02*
X5350000Y-4532500D01*
X1922500Y-3835000D02*
X1840000Y-3835000D01*
X4377500Y-2960000D02*
X4377500Y-3050000D01*
X4977500Y-3935000D02*
X5060000Y-3935000D01*
X4240000Y-2850000D02*
X4360000Y-2850000D01*
X3521250Y-1200000D02*
X3400000Y-1200000D01*
X1886250Y-4005000D02*
X1922500Y-3920000D01*
X1886250Y-4005000D02*
X2113750Y-4005000D01*
D29*
X1600000Y-1777750D02*
X1600000Y-1650000D01*
X1527500Y-1580000D02*
X1450000Y-1480000D01*
D28*
X4360000Y-2850000D02*
X4377500Y-2960000D01*
D29*
X1740000Y-1777750D02*
X1600000Y-1777750D01*
%TO.N,RTD_HW_FAULT*%
X5250000Y-4367500D02*
X5470000Y-4367500D01*
X5013750Y-4295000D02*
X5250000Y-4367500D01*
%TO.N,RTD_AVDD*%
X1517500Y-1800000D02*
X1490000Y-1695000D01*
D28*
X3950000Y-2517500D02*
X3840000Y-2517500D01*
X3077500Y-3735000D02*
X3160000Y-3735000D01*
X3113750Y-3905000D02*
X3077500Y-3735000D01*
X4077500Y-3935000D02*
X4160000Y-3935000D01*
X3678750Y-1200000D02*
X3800000Y-1200000D01*
X4113750Y-4105000D02*
X4077500Y-3935000D01*
X3077500Y-4635000D02*
X3160000Y-4635000D01*
D29*
X1740000Y-1841250D02*
X1600000Y-1841250D01*
D28*
X3113750Y-4805000D02*
X3077500Y-4635000D01*
D29*
X1600000Y-1841250D02*
X1517500Y-1800000D01*
%TO.N,gnd*%
D28*
X3922500Y-3935000D02*
X3840000Y-3935000D01*
X1362500Y-1800000D02*
X1280000Y-1820000D01*
X2922500Y-4635000D02*
X2840000Y-4635000D01*
X3886250Y-4295000D02*
X3780000Y-4295000D01*
X2260000Y-2158750D02*
X2100000Y-2158750D01*
X2550000Y-5232500D02*
X2440000Y-5232500D01*
X2886250Y-4900000D02*
X2790000Y-4900000D01*
X4786250Y-4295000D02*
X4670000Y-4295000D01*
X2077500Y-3835000D02*
X2150000Y-3835000D01*
X2113750Y-4100000D02*
X2000000Y-4100000D01*
X4250000Y-4632500D02*
X4360000Y-4632500D01*
X4222500Y-3050000D02*
X4130000Y-3050000D01*
X2260000Y-1841250D02*
X2260000Y-1777750D01*
X2000000Y-4100000D02*
X2000000Y-4295000D01*
X4822500Y-3935000D02*
X4740000Y-3935000D01*
X3950000Y-3032500D02*
X3840000Y-3032500D01*
X4240000Y-2800000D02*
X4150000Y-2800000D01*
X2922500Y-3735000D02*
X2840000Y-3735000D01*
X1740000Y-2222250D02*
X1900000Y-2222250D01*
X2886250Y-4000000D02*
X2790000Y-4000000D01*
X2260000Y-1777750D02*
X2400000Y-1777750D01*
X1372500Y-1580000D02*
X1280000Y-1580000D01*
%TO.N,rtd_sense_n*%
D29*
X2260000Y-2285750D02*
X2260000Y-2410000D01*
X2077500Y-2550000D02*
X2125000Y-2950000D01*
X2077500Y-2550000D02*
X2200000Y-2640000D01*
X2125000Y-3300000D02*
X2125000Y-3425000D01*
X2200000Y-2640000D02*
X2430000Y-2782500D01*
X2340000Y-3640000D02*
X2340000Y-4332500D01*
X2260000Y-2410000D02*
X2077500Y-2550000D01*
X2125000Y-2950000D02*
X2125000Y-3300000D01*
X2125000Y-3425000D02*
X2340000Y-3640000D01*
X2340000Y-4332500D02*
X2550000Y-4332500D01*
%TO.N,bias*%
X1450000Y-1958750D02*
X1340000Y-1958750D01*
X1740000Y-1904750D02*
X1610000Y-1904750D01*
X1610000Y-1904750D02*
X1610000Y-1968250D01*
X1610000Y-1968250D02*
X1740000Y-1968250D01*
X2430000Y-2617500D02*
X2550000Y-2617500D01*
X1570000Y-2617500D02*
X1450000Y-2617500D01*
X1610000Y-1968250D02*
X1450000Y-1958750D01*
%TO.N,sense*%
X3950000Y-2682500D02*
X3950000Y-2867500D01*
X4100000Y-2682500D02*
X4245000Y-2750000D01*
X3950000Y-2682500D02*
X4100000Y-2682500D01*
%TO.N,reset*%
X4440000Y-2750000D02*
X4440000Y-2670000D01*
X4682500Y-3600000D02*
X4600000Y-3682500D01*
X4682500Y-3100000D02*
X4682500Y-3600000D01*
X4760000Y-2670000D02*
X4760000Y-3100000D01*
X4360000Y-2750000D02*
X4440000Y-2750000D01*
X4760000Y-3100000D02*
X4682500Y-3100000D01*
X4440000Y-2670000D02*
X4760000Y-2670000D01*
X4600000Y-4200000D02*
X4786250Y-4200000D01*
%TO.N,rtd_pan.low_window-out*%
X3700000Y-4105000D02*
X3886250Y-4105000D01*
X3700000Y-3700000D02*
X3700000Y-4105000D01*
X2720000Y-3500000D02*
X3500000Y-3500000D01*
X2720000Y-3905000D02*
X2720000Y-3500000D01*
X3500000Y-3500000D02*
X3700000Y-3700000D01*
X2886250Y-3905000D02*
X2720000Y-3905000D01*
%TO.N,rtd_pan.high_window-out*%
X3780000Y-4200000D02*
X3886250Y-4200000D01*
X2886250Y-4805000D02*
X2720000Y-4805000D01*
X2720000Y-4805000D02*
X2720000Y-4480000D01*
X3500000Y-4480000D02*
X3780000Y-4200000D01*
X2720000Y-4480000D02*
X3500000Y-4480000D01*
%TO.N,y*%
X4400000Y-4295000D02*
X4500000Y-4195000D01*
X4113750Y-4295000D02*
X4400000Y-4295000D01*
X4500000Y-4105000D02*
X4786250Y-4105000D01*
X4250000Y-4295000D02*
X4250000Y-4467500D01*
X4500000Y-4195000D02*
X4500000Y-4105000D01*
X4113750Y-4295000D02*
X4250000Y-4295000D01*
%TO.N,inp*%
X2550000Y-5067500D02*
X2700000Y-5067500D01*
X2700000Y-5067500D02*
X2886250Y-4995000D01*
X2550000Y-4882500D02*
X2550000Y-5067500D01*
%TO.N,inn*%
X2680000Y-4167500D02*
X2680000Y-4300000D01*
X2680000Y-4300000D02*
X3260000Y-4300000D01*
X2550000Y-3982500D02*
X2550000Y-4167500D01*
X3260000Y-4095000D02*
X3113750Y-4095000D01*
X3260000Y-4300000D02*
X3260000Y-4095000D01*
X2550000Y-4167500D02*
X2680000Y-4167500D01*
%TO.N,window_rtdin_p*%
X3432500Y-3200000D02*
X3520000Y-3200000D01*
X2720000Y-4095000D02*
X2886250Y-4095000D01*
X3300000Y-4995000D02*
X3113750Y-4995000D01*
%TO.N,RTD_CS_N*%
X3300000Y-1860000D02*
X3300000Y-900000D01*
X2782500Y-1860000D02*
X3300000Y-1860000D01*
X3300000Y-900000D02*
X4400000Y-900000D01*
X4400000Y-900000D02*
X4400000Y-1327000D01*
X4400000Y-1327000D02*
X4736500Y-1327000D01*
%TO.N,cs_n*%
X2260000Y-1968250D02*
X2460000Y-1968250D01*
X2460000Y-1968250D02*
X2568250Y-1860000D01*
X2568250Y-1860000D02*
X2617500Y-1860000D01*
%TO.N,rtd_force_p*%
X1250000Y-2610000D02*
X1250000Y-3150000D01*
X1250000Y-3150000D02*
X1400000Y-3300000D01*
X1400000Y-3300000D02*
X1625000Y-3300000D01*
X1740000Y-2158750D02*
X1580000Y-2158750D01*
X1580000Y-2280000D02*
X1250000Y-2610000D01*
X1580000Y-2158750D02*
X1580000Y-2280000D01*
%TO.N,rtd_sense_p*%
X1922500Y-2550000D02*
X1922500Y-3000000D01*
X1922500Y-2550000D02*
X1870000Y-2610000D01*
X3180000Y-3200000D02*
X3267500Y-3200000D01*
X1870000Y-2610000D02*
X1740000Y-2782500D01*
X1740000Y-2410000D02*
X1922500Y-2550000D01*
X1740000Y-2285750D02*
X1740000Y-2410000D01*
X1922500Y-2550000D02*
X1810000Y-2550000D01*
X1875000Y-3047500D02*
X1875000Y-3300000D01*
X1740000Y-2782500D02*
X1570000Y-2782500D01*
X1922500Y-3000000D02*
X1875000Y-3047500D01*
%TO.N,rtd_force_n*%
X2680000Y-3000000D02*
X2375000Y-3300000D01*
X2460000Y-2222250D02*
X2680000Y-2442250D01*
X2260000Y-2222250D02*
X2460000Y-2222250D01*
X2680000Y-2442250D02*
X2680000Y-3000000D01*
%TO.N,RTD_SCK*%
X2782500Y-2030000D02*
X2950000Y-2030000D01*
%TO.N,RTD_SDI*%
X2782500Y-2200000D02*
X2950000Y-2200000D01*
%TO.N,RTD_SDO*%
X2782500Y-1690000D02*
X2900000Y-1690000D01*
%TO.N,RTD_DRDY*%
X1650000Y-1714250D02*
X1650000Y-1330000D01*
X1740000Y-1714250D02*
X1650000Y-1714250D01*
%TO.N,SHARED_REF_2V5*%
X1886250Y-4195000D02*
X1750000Y-4195000D01*
%TO.N,sdi*%
X2584750Y-2200000D02*
X2617500Y-2200000D01*
X2480000Y-2095250D02*
X2584750Y-2200000D01*
X2260000Y-2095250D02*
X2480000Y-2095250D01*
%TO.N,vbias*%
X2113750Y-4195000D02*
X2113750Y-4600000D01*
X2113750Y-4195000D02*
X2250000Y-4195000D01*
X2550000Y-4600000D02*
X2550000Y-4717500D01*
X2420000Y-3817500D02*
X2550000Y-3817500D01*
X2113750Y-4600000D02*
X2550000Y-4600000D01*
%TO.N,sdo*%
X2260000Y-1904750D02*
X2400000Y-1904750D01*
X2400000Y-1904750D02*
X2500000Y-1804750D01*
X2500000Y-1690000D02*
X2617500Y-1690000D01*
X2500000Y-1804750D02*
X2500000Y-1690000D01*
%TO.N,refin_n*%
X1610000Y-2031750D02*
X1610000Y-2095250D01*
X1610000Y-2095250D02*
X1450000Y-2141250D01*
X1740000Y-2031750D02*
X1610000Y-2031750D01*
X1610000Y-2095250D02*
X1740000Y-2095250D01*
%TO.N,sclk*%
X2260000Y-2031750D02*
X2500000Y-2031750D01*
X2500000Y-2031750D02*
X2617500Y-2030000D01*
%TD*%
%TA.AperFunction,Conductor*%
%TO.N,RTD_AVDD*%
G36*
X5794304Y-201968D02*
G01*
X5798879Y-207249D01*
X5800000Y-212400D01*
X5800000Y-5787600D01*
X5798031Y-5794304D01*
X5792751Y-5798879D01*
X5787600Y-5800000D01*
X212400Y-5800000D01*
X205696Y-5798031D01*
X201121Y-5792751D01*
X200000Y-5787600D01*
X200000Y-5225253D01*
X2384950Y-5225253D01*
X2384950Y-5239748D01*
X2388702Y-5253749D01*
X2388702Y-5253749D01*
X2395949Y-5266301D01*
X2395949Y-5266301D01*
X2395949Y-5266302D01*
X2406199Y-5276551D01*
X2406199Y-5276551D01*
X2406199Y-5276551D01*
X2418751Y-5283798D01*
X2418751Y-5283798D01*
X2418752Y-5283798D01*
X2432753Y-5287550D01*
X2432753Y-5287550D01*
X2447247Y-5287550D01*
X2447248Y-5287550D01*
X2461249Y-5283798D01*
X2473802Y-5276551D01*
X2473802Y-5276550D01*
X2474289Y-5276177D01*
X2480806Y-5273657D01*
X2487651Y-5275060D01*
X2490606Y-5277246D01*
X2498665Y-5285305D01*
X2498665Y-5285305D01*
X2498666Y-5285305D01*
X2509969Y-5291065D01*
X2509970Y-5291065D01*
X2519348Y-5292550D01*
X2519348Y-5292550D01*
X2580652Y-5292550D01*
X2590030Y-5291065D01*
X2601334Y-5285305D01*
X2610305Y-5276334D01*
X2616065Y-5265030D01*
X2616065Y-5265030D01*
X2616065Y-5265030D01*
X2617550Y-5255652D01*
X2617550Y-5255652D01*
X2617550Y-5209348D01*
X2616065Y-5199970D01*
X2610305Y-5188666D01*
X2610305Y-5188665D01*
X2610305Y-5188665D01*
X2601335Y-5179695D01*
X2601334Y-5179695D01*
X2601334Y-5179695D01*
X2593652Y-5175781D01*
X2590030Y-5173935D01*
X2580652Y-5172450D01*
X2519348Y-5172450D01*
X2511252Y-5173732D01*
X2509970Y-5173935D01*
X2498666Y-5179695D01*
X2498666Y-5179695D01*
X2498666Y-5179695D01*
X2490606Y-5187754D01*
X2484474Y-5191103D01*
X2477505Y-5190604D01*
X2474290Y-5188824D01*
X2473802Y-5188449D01*
X2461249Y-5181202D01*
X2461249Y-5181202D01*
X2460101Y-5180894D01*
X2447248Y-5177450D01*
X2432753Y-5177450D01*
X2419899Y-5180894D01*
X2418751Y-5181202D01*
X2406199Y-5188449D01*
X2406198Y-5188449D01*
X2395949Y-5198698D01*
X2395949Y-5198699D01*
X2388702Y-5211251D01*
X2388702Y-5211252D01*
X2384950Y-5225253D01*
X200000Y-5225253D01*
X200000Y-4187752D01*
X1694950Y-4187752D01*
X1694950Y-4202248D01*
X1698702Y-4216249D01*
X1698702Y-4216249D01*
X1705949Y-4228801D01*
X1705949Y-4228801D01*
X1705949Y-4228802D01*
X1716198Y-4239051D01*
X1716199Y-4239051D01*
X1716199Y-4239051D01*
X1728751Y-4246298D01*
X1728751Y-4246298D01*
X1728751Y-4246298D01*
X1742752Y-4250050D01*
X1742753Y-4250050D01*
X1757247Y-4250050D01*
X1757247Y-4250050D01*
X1771248Y-4246298D01*
X1783801Y-4239051D01*
X1790374Y-4232478D01*
X1796506Y-4229130D01*
X1803475Y-4229628D01*
X1807910Y-4232478D01*
X1814351Y-4238920D01*
X1814351Y-4238920D01*
X1814352Y-4238920D01*
X1824861Y-4244057D01*
X1828267Y-4244554D01*
X1831674Y-4245050D01*
X1831674Y-4245050D01*
X1940826Y-4245050D01*
X1940826Y-4245050D01*
X1942197Y-4244850D01*
X1949115Y-4245832D01*
X1954404Y-4250397D01*
X1956385Y-4257097D01*
X1954724Y-4263321D01*
X1948702Y-4273751D01*
X1948702Y-4273752D01*
X1944950Y-4287753D01*
X1944950Y-4302248D01*
X1948689Y-4316202D01*
X1948702Y-4316249D01*
X1955949Y-4328801D01*
X1955949Y-4328801D01*
X1955949Y-4328802D01*
X1966198Y-4339051D01*
X1966199Y-4339051D01*
X1966199Y-4339051D01*
X1978751Y-4346298D01*
X1978751Y-4346298D01*
X1978751Y-4346298D01*
X1992752Y-4350050D01*
X1992753Y-4350050D01*
X2007247Y-4350050D01*
X2007247Y-4350050D01*
X2021248Y-4346298D01*
X2033801Y-4339051D01*
X2044051Y-4328802D01*
X2051298Y-4316249D01*
X2055050Y-4302248D01*
X2055050Y-4287753D01*
X2051298Y-4273752D01*
X2045276Y-4263321D01*
X2043629Y-4256531D01*
X2045914Y-4249928D01*
X2051406Y-4245609D01*
X2057803Y-4244850D01*
X2059174Y-4245050D01*
X2059174Y-4245050D01*
X2071300Y-4245050D01*
X2078004Y-4247019D01*
X2082579Y-4252299D01*
X2083700Y-4257450D01*
X2083700Y-4596044D01*
X2083700Y-4603956D01*
X2085065Y-4609051D01*
X2085748Y-4611599D01*
X2085748Y-4611600D01*
X2089703Y-4618450D01*
X2089704Y-4618451D01*
X2089704Y-4618451D01*
X2095299Y-4624046D01*
X2095299Y-4624046D01*
X2095299Y-4624046D01*
X2101719Y-4627753D01*
X2102151Y-4628002D01*
X2109794Y-4630050D01*
X2507550Y-4630050D01*
X2508419Y-4630305D01*
X2509315Y-4630176D01*
X2511719Y-4631274D01*
X2514254Y-4632019D01*
X2514847Y-4632703D01*
X2515670Y-4633079D01*
X2517099Y-4635302D01*
X2518829Y-4637299D01*
X2519058Y-4638350D01*
X2519448Y-4638957D01*
X2519950Y-4642450D01*
X2519950Y-4646764D01*
X2517982Y-4653468D01*
X2512701Y-4658043D01*
X2510884Y-4658591D01*
X2510898Y-4658634D01*
X2509970Y-4658935D01*
X2504430Y-4661758D01*
X2498666Y-4664695D01*
X2498666Y-4664695D01*
X2498665Y-4664695D01*
X2489695Y-4673665D01*
X2489695Y-4673666D01*
X2489695Y-4673666D01*
X2488416Y-4676176D01*
X2483935Y-4684970D01*
X2482450Y-4694348D01*
X2482450Y-4740652D01*
X2483529Y-4747466D01*
X2483935Y-4750030D01*
X2489695Y-4761334D01*
X2489695Y-4761334D01*
X2489695Y-4761335D01*
X2498665Y-4770305D01*
X2498665Y-4770305D01*
X2498666Y-4770305D01*
X2507782Y-4774950D01*
X2509970Y-4776065D01*
X2519348Y-4777550D01*
X2519348Y-4777550D01*
X2580652Y-4777550D01*
X2590030Y-4776065D01*
X2601334Y-4770305D01*
X2610305Y-4761334D01*
X2616065Y-4750030D01*
X2616065Y-4750030D01*
X2616065Y-4750030D01*
X2617550Y-4740652D01*
X2617550Y-4740652D01*
X2617550Y-4694348D01*
X2616065Y-4684970D01*
X2610305Y-4673666D01*
X2610305Y-4673665D01*
X2610305Y-4673665D01*
X2601335Y-4664695D01*
X2601334Y-4664695D01*
X2601334Y-4664695D01*
X2593652Y-4660781D01*
X2590030Y-4658935D01*
X2589102Y-4658634D01*
X2589184Y-4658383D01*
X2584196Y-4656018D01*
X2580503Y-4650087D01*
X2580050Y-4646764D01*
X2580050Y-4596044D01*
X2579114Y-4592550D01*
X2578002Y-4588401D01*
X2577511Y-4587550D01*
X2574046Y-4581550D01*
X2574046Y-4581549D01*
X2568451Y-4575954D01*
X2568450Y-4575954D01*
X2561600Y-4571998D01*
X2561599Y-4571998D01*
X2559051Y-4571315D01*
X2553956Y-4569950D01*
X2553956Y-4569950D01*
X2156200Y-4569950D01*
X2149496Y-4567982D01*
X2144921Y-4562701D01*
X2143800Y-4557550D01*
X2143800Y-4257450D01*
X2145769Y-4250746D01*
X2151049Y-4246171D01*
X2156200Y-4245050D01*
X2168326Y-4245050D01*
X2170597Y-4244719D01*
X2175139Y-4244057D01*
X2185648Y-4238920D01*
X2185836Y-4238732D01*
X2192090Y-4232478D01*
X2198222Y-4229130D01*
X2205191Y-4229628D01*
X2209626Y-4232478D01*
X2216199Y-4239051D01*
X2216199Y-4239051D01*
X2216199Y-4239051D01*
X2228751Y-4246298D01*
X2228751Y-4246298D01*
X2228752Y-4246298D01*
X2242753Y-4250050D01*
X2242753Y-4250050D01*
X2257247Y-4250050D01*
X2257248Y-4250050D01*
X2271249Y-4246298D01*
X2283802Y-4239051D01*
X2288782Y-4234071D01*
X2294914Y-4230722D01*
X2301883Y-4231220D01*
X2307477Y-4235408D01*
X2309918Y-4241954D01*
X2309950Y-4242839D01*
X2309950Y-4328544D01*
X2309950Y-4336456D01*
X2310762Y-4339487D01*
X2311998Y-4344099D01*
X2311998Y-4344100D01*
X2315954Y-4350950D01*
X2315954Y-4350951D01*
X2315954Y-4350951D01*
X2321549Y-4356546D01*
X2321549Y-4356546D01*
X2321550Y-4356546D01*
X2327969Y-4360253D01*
X2328401Y-4360502D01*
X2336044Y-4362550D01*
X2475073Y-4362550D01*
X2481777Y-4364519D01*
X2486121Y-4369320D01*
X2489695Y-4376334D01*
X2489695Y-4376335D01*
X2498665Y-4385305D01*
X2498665Y-4385305D01*
X2498666Y-4385305D01*
X2509969Y-4391065D01*
X2509970Y-4391065D01*
X2519348Y-4392550D01*
X2519348Y-4392550D01*
X2580652Y-4392550D01*
X2590030Y-4391065D01*
X2601334Y-4385305D01*
X2610305Y-4376334D01*
X2616065Y-4365030D01*
X2616065Y-4365030D01*
X2616065Y-4365030D01*
X2617550Y-4355652D01*
X2617550Y-4355652D01*
X2617550Y-4309348D01*
X2616065Y-4299970D01*
X2610305Y-4288666D01*
X2610305Y-4288665D01*
X2610305Y-4288665D01*
X2601335Y-4279695D01*
X2601334Y-4279695D01*
X2601334Y-4279695D01*
X2593652Y-4275781D01*
X2590030Y-4273935D01*
X2580652Y-4272450D01*
X2519348Y-4272450D01*
X2511774Y-4273650D01*
X2509970Y-4273935D01*
X2498666Y-4279695D01*
X2498666Y-4279695D01*
X2498665Y-4279695D01*
X2489695Y-4288665D01*
X2489695Y-4288666D01*
X2489695Y-4288666D01*
X2486121Y-4295680D01*
X2481324Y-4300759D01*
X2475073Y-4302450D01*
X2382450Y-4302450D01*
X2375746Y-4300482D01*
X2371171Y-4295201D01*
X2370050Y-4290050D01*
X2370050Y-3959347D01*
X2482450Y-3959347D01*
X2482450Y-4005652D01*
X2483276Y-4010866D01*
X2483935Y-4015030D01*
X2489695Y-4026334D01*
X2489695Y-4026334D01*
X2489695Y-4026335D01*
X2498665Y-4035304D01*
X2498665Y-4035305D01*
X2498666Y-4035305D01*
X2509153Y-4040648D01*
X2509970Y-4041065D01*
X2510898Y-4041366D01*
X2510816Y-4041618D01*
X2515802Y-4043980D01*
X2519496Y-4049911D01*
X2519950Y-4053236D01*
X2519950Y-4096764D01*
X2517982Y-4103468D01*
X2512701Y-4108043D01*
X2510884Y-4108591D01*
X2510898Y-4108634D01*
X2509970Y-4108935D01*
X2504430Y-4111758D01*
X2498666Y-4114695D01*
X2498666Y-4114695D01*
X2498665Y-4114695D01*
X2489695Y-4123665D01*
X2489695Y-4123666D01*
X2489695Y-4123666D01*
X2488540Y-4125933D01*
X2483935Y-4134970D01*
X2482450Y-4144347D01*
X2482450Y-4190652D01*
X2483529Y-4197466D01*
X2483935Y-4200030D01*
X2489695Y-4211334D01*
X2489695Y-4211334D01*
X2489695Y-4211335D01*
X2498665Y-4220305D01*
X2498665Y-4220305D01*
X2498666Y-4220305D01*
X2509969Y-4226065D01*
X2509970Y-4226065D01*
X2519348Y-4227550D01*
X2519348Y-4227550D01*
X2580652Y-4227550D01*
X2590030Y-4226065D01*
X2601334Y-4220305D01*
X2610305Y-4211334D01*
X2613879Y-4204320D01*
X2614924Y-4203214D01*
X2615556Y-4201830D01*
X2617274Y-4200726D01*
X2618676Y-4199241D01*
X2620244Y-4198817D01*
X2621434Y-4198052D01*
X2624927Y-4197550D01*
X2637550Y-4197550D01*
X2644254Y-4199519D01*
X2648829Y-4204799D01*
X2649950Y-4209950D01*
X2649950Y-4296044D01*
X2649950Y-4303956D01*
X2650886Y-4307450D01*
X2651998Y-4311599D01*
X2651998Y-4311600D01*
X2655954Y-4318450D01*
X2655954Y-4318451D01*
X2655954Y-4318451D01*
X2661549Y-4324046D01*
X2661549Y-4324046D01*
X2661550Y-4324046D01*
X2664575Y-4325793D01*
X2668401Y-4328002D01*
X2676044Y-4330050D01*
X2676044Y-4330050D01*
X3263956Y-4330050D01*
X3263956Y-4330050D01*
X3271599Y-4328002D01*
X3278451Y-4324046D01*
X3284046Y-4318451D01*
X3288002Y-4311599D01*
X3290050Y-4303956D01*
X3290050Y-4091044D01*
X3288002Y-4083401D01*
X3287005Y-4081674D01*
X3284046Y-4076549D01*
X3284046Y-4076549D01*
X3278451Y-4070954D01*
X3278450Y-4070953D01*
X3271599Y-4066998D01*
X3271599Y-4066998D01*
X3269051Y-4066315D01*
X3263956Y-4064950D01*
X3263956Y-4064950D01*
X3204300Y-4064950D01*
X3197596Y-4062981D01*
X3194208Y-4059755D01*
X3193919Y-4059351D01*
X3185648Y-4051080D01*
X3175139Y-4045943D01*
X3168326Y-4044950D01*
X3168326Y-4044950D01*
X3059174Y-4044950D01*
X3059174Y-4044950D01*
X3052361Y-4045943D01*
X3041851Y-4051080D01*
X3033580Y-4059351D01*
X3028443Y-4069861D01*
X3027450Y-4076674D01*
X3027450Y-4113326D01*
X3028443Y-4120139D01*
X3033580Y-4130648D01*
X3041851Y-4138920D01*
X3041851Y-4138920D01*
X3041852Y-4138920D01*
X3052361Y-4144057D01*
X3054352Y-4144347D01*
X3059174Y-4145050D01*
X3059174Y-4145050D01*
X3168326Y-4145050D01*
X3170597Y-4144719D01*
X3175139Y-4144057D01*
X3185648Y-4138920D01*
X3193920Y-4130648D01*
X3193920Y-4130648D01*
X3194208Y-4130245D01*
X3194679Y-4129875D01*
X3194928Y-4129330D01*
X3197396Y-4127743D01*
X3199705Y-4125933D01*
X3200431Y-4125793D01*
X3200806Y-4125552D01*
X3204300Y-4125050D01*
X3217550Y-4125050D01*
X3224254Y-4127018D01*
X3228829Y-4132299D01*
X3229950Y-4137450D01*
X3229950Y-4257550D01*
X3227981Y-4264254D01*
X3222701Y-4268829D01*
X3217550Y-4269950D01*
X2722450Y-4269950D01*
X2715746Y-4267982D01*
X2711171Y-4262701D01*
X2710050Y-4257550D01*
X2710050Y-4162731D01*
X2710328Y-4162731D01*
X2711196Y-4157165D01*
X2715834Y-4151939D01*
X2722413Y-4150050D01*
X2727247Y-4150050D01*
X2727248Y-4150050D01*
X2741249Y-4146298D01*
X2753802Y-4139051D01*
X2764051Y-4128801D01*
X2764051Y-4128801D01*
X2764171Y-4128682D01*
X2766863Y-4127211D01*
X2769445Y-4125552D01*
X2770065Y-4125463D01*
X2770303Y-4125333D01*
X2772939Y-4125050D01*
X2795700Y-4125050D01*
X2802404Y-4127018D01*
X2805792Y-4130245D01*
X2806080Y-4130649D01*
X2814351Y-4138920D01*
X2814351Y-4138920D01*
X2814352Y-4138920D01*
X2824861Y-4144057D01*
X2826852Y-4144347D01*
X2831674Y-4145050D01*
X2831674Y-4145050D01*
X2940826Y-4145050D01*
X2943097Y-4144719D01*
X2947639Y-4144057D01*
X2958148Y-4138920D01*
X2966420Y-4130648D01*
X2971557Y-4120139D01*
X2972550Y-4113326D01*
X2972550Y-4076674D01*
X2972532Y-4076549D01*
X2971557Y-4069861D01*
X2971506Y-4069755D01*
X2966420Y-4059352D01*
X2966420Y-4059351D01*
X2966420Y-4059351D01*
X2963336Y-4056268D01*
X2959988Y-4050136D01*
X2960486Y-4043167D01*
X2963336Y-4038732D01*
X2966420Y-4035648D01*
X2966420Y-4035648D01*
X2971557Y-4025139D01*
X2972550Y-4018326D01*
X2972550Y-3981674D01*
X2971557Y-3974861D01*
X2966420Y-3964352D01*
X2966420Y-3964351D01*
X2966420Y-3964351D01*
X2963336Y-3961268D01*
X2959988Y-3955136D01*
X2960486Y-3948167D01*
X2963336Y-3943732D01*
X2966420Y-3940648D01*
X2966420Y-3940648D01*
X2971557Y-3930139D01*
X2972550Y-3923326D01*
X2972550Y-3886674D01*
X2972495Y-3886298D01*
X2971557Y-3879861D01*
X2971557Y-3879861D01*
X2966420Y-3869352D01*
X2966420Y-3869351D01*
X2966420Y-3869351D01*
X2958148Y-3861080D01*
X2947639Y-3855943D01*
X2940826Y-3854950D01*
X2940826Y-3854950D01*
X2831674Y-3854950D01*
X2831674Y-3854950D01*
X2824861Y-3855943D01*
X2814351Y-3861080D01*
X2806080Y-3869351D01*
X2805792Y-3869755D01*
X2800295Y-3874067D01*
X2795700Y-3874950D01*
X2762450Y-3874950D01*
X2755746Y-3872981D01*
X2751171Y-3867701D01*
X2750050Y-3862550D01*
X2750050Y-3727752D01*
X2784950Y-3727752D01*
X2784950Y-3742247D01*
X2788702Y-3756248D01*
X2788702Y-3756249D01*
X2795949Y-3768801D01*
X2795949Y-3768801D01*
X2795949Y-3768801D01*
X2806198Y-3779051D01*
X2806199Y-3779051D01*
X2806199Y-3779051D01*
X2818751Y-3786298D01*
X2818751Y-3786298D01*
X2818751Y-3786298D01*
X2832752Y-3790050D01*
X2832753Y-3790050D01*
X2847247Y-3790050D01*
X2847247Y-3790050D01*
X2858178Y-3787121D01*
X2865163Y-3787287D01*
X2870156Y-3790330D01*
X2874677Y-3794852D01*
X2874678Y-3794853D01*
X2874678Y-3794853D01*
X2886687Y-3800972D01*
X2886688Y-3800972D01*
X2886688Y-3800972D01*
X2896651Y-3802550D01*
X2896651Y-3802550D01*
X2948349Y-3802550D01*
X2958312Y-3800972D01*
X2958312Y-3800972D01*
X2958313Y-3800972D01*
X2970322Y-3794853D01*
X2979853Y-3785322D01*
X2985972Y-3773313D01*
X2986650Y-3769028D01*
X2987550Y-3763349D01*
X2987550Y-3706651D01*
X2985972Y-3696688D01*
X2985972Y-3696688D01*
X2985972Y-3696687D01*
X2979853Y-3684678D01*
X2979853Y-3684678D01*
X2979852Y-3684677D01*
X2970322Y-3675148D01*
X2970322Y-3675147D01*
X2970322Y-3675147D01*
X2958313Y-3669028D01*
X2958312Y-3669028D01*
X2958312Y-3669028D01*
X2948349Y-3667450D01*
X2948349Y-3667450D01*
X2896651Y-3667450D01*
X2896651Y-3667450D01*
X2886688Y-3669028D01*
X2874678Y-3675147D01*
X2874677Y-3675148D01*
X2870155Y-3679670D01*
X2864023Y-3683018D01*
X2858178Y-3682879D01*
X2847247Y-3679950D01*
X2832752Y-3679950D01*
X2821303Y-3683018D01*
X2818751Y-3683702D01*
X2806199Y-3690949D01*
X2806198Y-3690949D01*
X2795949Y-3701198D01*
X2795949Y-3701199D01*
X2788702Y-3713751D01*
X2788702Y-3713751D01*
X2784950Y-3727752D01*
X2750050Y-3727752D01*
X2750050Y-3542450D01*
X2752019Y-3535746D01*
X2757299Y-3531171D01*
X2762450Y-3530050D01*
X3482417Y-3530050D01*
X3489121Y-3532018D01*
X3491185Y-3533682D01*
X3666318Y-3708815D01*
X3669667Y-3714947D01*
X3669950Y-3717583D01*
X3669950Y-4108956D01*
X3671121Y-4113326D01*
X3671998Y-4116599D01*
X3671998Y-4116599D01*
X3675953Y-4123450D01*
X3675954Y-4123451D01*
X3675954Y-4123451D01*
X3681549Y-4129046D01*
X3681549Y-4129046D01*
X3681549Y-4129046D01*
X3687086Y-4132243D01*
X3688401Y-4133002D01*
X3696044Y-4135050D01*
X3703956Y-4135050D01*
X3795700Y-4135050D01*
X3798851Y-4135975D01*
X3802035Y-4136790D01*
X3802226Y-4136966D01*
X3802404Y-4137018D01*
X3804781Y-4139007D01*
X3805828Y-4140132D01*
X3806080Y-4140648D01*
X3809322Y-4143890D01*
X3809477Y-4144057D01*
X3810942Y-4146988D01*
X3812512Y-4149864D01*
X3812495Y-4150097D01*
X3812600Y-4150307D01*
X3812247Y-4153565D01*
X3812014Y-4156833D01*
X3811870Y-4157058D01*
X3811848Y-4157253D01*
X3811335Y-4157889D01*
X3809164Y-4161268D01*
X3806080Y-4164351D01*
X3805792Y-4164755D01*
X3800295Y-4169067D01*
X3795700Y-4169950D01*
X3776044Y-4169950D01*
X3770949Y-4171315D01*
X3768401Y-4171998D01*
X3765364Y-4173751D01*
X3765364Y-4173751D01*
X3761549Y-4175953D01*
X3761549Y-4175954D01*
X3491185Y-4446318D01*
X3485052Y-4449667D01*
X3482417Y-4449950D01*
X2723956Y-4449950D01*
X2716044Y-4449950D01*
X2712222Y-4450974D01*
X2708401Y-4451998D01*
X2708400Y-4451998D01*
X2701550Y-4455954D01*
X2701549Y-4455954D01*
X2695954Y-4461549D01*
X2695954Y-4461550D01*
X2691998Y-4468400D01*
X2691998Y-4468401D01*
X2690633Y-4473496D01*
X2689950Y-4476044D01*
X2689950Y-4808956D01*
X2691315Y-4814051D01*
X2691998Y-4816599D01*
X2691998Y-4816600D01*
X2695954Y-4823450D01*
X2695954Y-4823451D01*
X2695954Y-4823451D01*
X2701549Y-4829046D01*
X2701549Y-4829046D01*
X2701550Y-4829046D01*
X2708400Y-4833002D01*
X2708401Y-4833002D01*
X2716044Y-4835050D01*
X2723956Y-4835050D01*
X2747161Y-4835050D01*
X2753865Y-4837019D01*
X2758441Y-4842299D01*
X2759435Y-4849215D01*
X2756533Y-4855570D01*
X2755930Y-4856218D01*
X2745949Y-4866198D01*
X2745949Y-4866199D01*
X2738702Y-4878751D01*
X2738702Y-4878752D01*
X2734950Y-4892753D01*
X2734950Y-4907248D01*
X2737919Y-4918326D01*
X2738702Y-4921249D01*
X2745949Y-4933801D01*
X2745949Y-4933801D01*
X2745949Y-4933802D01*
X2756199Y-4944051D01*
X2756199Y-4944051D01*
X2756199Y-4944051D01*
X2768751Y-4951298D01*
X2768751Y-4951298D01*
X2768752Y-4951298D01*
X2782753Y-4955050D01*
X2782753Y-4955050D01*
X2788763Y-4955050D01*
X2789984Y-4955409D01*
X2791253Y-4955303D01*
X2793273Y-4956374D01*
X2795467Y-4957019D01*
X2796300Y-4957980D01*
X2797425Y-4958577D01*
X2798545Y-4960571D01*
X2800042Y-4962299D01*
X2800304Y-4963702D01*
X2800847Y-4964668D01*
X2800948Y-4967152D01*
X2801141Y-4968185D01*
X2801055Y-4969630D01*
X2800943Y-4969861D01*
X2799950Y-4976674D01*
X2799950Y-4988236D01*
X2799928Y-4988603D01*
X2798866Y-4991559D01*
X2797981Y-4994571D01*
X2797694Y-4994820D01*
X2797566Y-4995178D01*
X2795074Y-4997091D01*
X2792701Y-4999147D01*
X2792048Y-4999423D01*
X2696527Y-5036605D01*
X2692029Y-5037450D01*
X2624927Y-5037450D01*
X2618223Y-5035482D01*
X2613879Y-5030680D01*
X2611010Y-5025050D01*
X2610305Y-5023666D01*
X2610305Y-5023666D01*
X2610305Y-5023665D01*
X2601335Y-5014695D01*
X2601334Y-5014695D01*
X2601334Y-5014695D01*
X2593652Y-5010781D01*
X2590030Y-5008935D01*
X2589102Y-5008634D01*
X2589184Y-5008383D01*
X2584196Y-5006018D01*
X2580503Y-5000087D01*
X2580050Y-4996764D01*
X2580050Y-4953236D01*
X2582019Y-4946532D01*
X2587299Y-4941957D01*
X2589116Y-4941409D01*
X2589102Y-4941366D01*
X2590030Y-4941065D01*
X2590030Y-4941065D01*
X2590030Y-4941065D01*
X2601334Y-4935305D01*
X2610305Y-4926334D01*
X2616065Y-4915030D01*
X2616065Y-4915030D01*
X2616065Y-4915030D01*
X2617550Y-4905652D01*
X2617550Y-4905652D01*
X2617550Y-4859348D01*
X2616065Y-4849970D01*
X2610305Y-4838666D01*
X2610305Y-4838665D01*
X2610305Y-4838665D01*
X2601335Y-4829695D01*
X2601334Y-4829695D01*
X2601334Y-4829695D01*
X2593652Y-4825781D01*
X2590030Y-4823935D01*
X2580652Y-4822450D01*
X2519348Y-4822450D01*
X2511252Y-4823732D01*
X2509970Y-4823935D01*
X2498666Y-4829695D01*
X2498666Y-4829695D01*
X2498665Y-4829695D01*
X2489695Y-4838665D01*
X2489695Y-4838666D01*
X2483935Y-4849970D01*
X2482450Y-4859348D01*
X2482450Y-4905652D01*
X2483529Y-4912466D01*
X2483935Y-4915030D01*
X2489695Y-4926334D01*
X2489695Y-4926334D01*
X2489695Y-4926335D01*
X2498665Y-4935305D01*
X2498665Y-4935305D01*
X2498666Y-4935305D01*
X2507782Y-4939950D01*
X2509970Y-4941065D01*
X2510898Y-4941366D01*
X2510816Y-4941618D01*
X2515802Y-4943980D01*
X2519496Y-4949911D01*
X2519950Y-4953236D01*
X2519950Y-4996764D01*
X2517982Y-5003468D01*
X2512701Y-5008043D01*
X2510884Y-5008591D01*
X2510898Y-5008634D01*
X2509970Y-5008935D01*
X2504430Y-5011758D01*
X2498666Y-5014695D01*
X2498666Y-5014695D01*
X2498665Y-5014695D01*
X2489695Y-5023665D01*
X2489695Y-5023666D01*
X2489695Y-5023666D01*
X2488990Y-5025050D01*
X2483935Y-5034970D01*
X2482450Y-5044348D01*
X2482450Y-5090652D01*
X2483474Y-5097120D01*
X2483935Y-5100030D01*
X2489695Y-5111334D01*
X2489695Y-5111334D01*
X2489695Y-5111335D01*
X2498665Y-5120305D01*
X2498665Y-5120305D01*
X2498666Y-5120305D01*
X2509969Y-5126065D01*
X2509970Y-5126065D01*
X2519348Y-5127550D01*
X2519348Y-5127550D01*
X2580652Y-5127550D01*
X2590030Y-5126065D01*
X2601334Y-5120305D01*
X2610305Y-5111334D01*
X2613879Y-5104320D01*
X2618676Y-5099241D01*
X2624927Y-5097550D01*
X2697706Y-5097550D01*
X2699349Y-5097802D01*
X2701646Y-5097550D01*
X2703956Y-5097550D01*
X2704647Y-5097365D01*
X2706504Y-5097016D01*
X2706761Y-5096988D01*
X2707214Y-5096938D01*
X2709367Y-5096100D01*
X2711599Y-5095502D01*
X2713038Y-5094671D01*
X2837306Y-5046298D01*
X2838343Y-5045895D01*
X2842841Y-5045050D01*
X2940826Y-5045050D01*
X2943097Y-5044719D01*
X2947639Y-5044057D01*
X2958148Y-5038920D01*
X2966420Y-5030648D01*
X2971557Y-5020139D01*
X2972550Y-5013326D01*
X2972550Y-4976674D01*
X2972550Y-4976674D01*
X3027450Y-4976674D01*
X3027450Y-5013326D01*
X3028443Y-5020139D01*
X3033580Y-5030649D01*
X3041851Y-5038920D01*
X3041851Y-5038920D01*
X3041852Y-5038920D01*
X3052361Y-5044057D01*
X3054352Y-5044348D01*
X3059174Y-5045050D01*
X3059174Y-5045050D01*
X3168326Y-5045050D01*
X3170597Y-5044719D01*
X3175139Y-5044057D01*
X3185648Y-5038920D01*
X3193920Y-5030648D01*
X3193920Y-5030648D01*
X3194208Y-5030245D01*
X3199705Y-5025933D01*
X3204300Y-5025050D01*
X3247061Y-5025050D01*
X3253765Y-5027019D01*
X3255829Y-5028682D01*
X3255949Y-5028802D01*
X3266198Y-5039051D01*
X3266199Y-5039051D01*
X3266199Y-5039051D01*
X3278751Y-5046298D01*
X3278751Y-5046298D01*
X3278751Y-5046298D01*
X3292752Y-5050050D01*
X3292753Y-5050050D01*
X3307247Y-5050050D01*
X3307247Y-5050050D01*
X3321248Y-5046298D01*
X3333801Y-5039051D01*
X3344051Y-5028802D01*
X3348319Y-5021408D01*
X3349261Y-5019777D01*
X3354318Y-5014955D01*
X3361179Y-5013633D01*
X3367665Y-5016230D01*
X3370739Y-5019777D01*
X3373255Y-5024135D01*
X3375949Y-5028802D01*
X3386198Y-5039051D01*
X3386199Y-5039051D01*
X3386199Y-5039051D01*
X3398751Y-5046298D01*
X3398751Y-5046298D01*
X3398751Y-5046298D01*
X3412752Y-5050050D01*
X3412753Y-5050050D01*
X3427247Y-5050050D01*
X3427247Y-5050050D01*
X3441248Y-5046298D01*
X3453801Y-5039051D01*
X3464051Y-5028802D01*
X3471298Y-5016249D01*
X3475050Y-5002248D01*
X3475050Y-4987753D01*
X3471298Y-4973752D01*
X3469052Y-4969861D01*
X3464051Y-4961199D01*
X3464051Y-4961198D01*
X3453802Y-4950949D01*
X3453801Y-4950949D01*
X3441249Y-4943702D01*
X3441249Y-4943702D01*
X3439252Y-4943167D01*
X3427247Y-4939950D01*
X3412752Y-4939950D01*
X3400748Y-4943167D01*
X3398751Y-4943702D01*
X3386199Y-4950949D01*
X3386198Y-4950949D01*
X3375949Y-4961198D01*
X3375949Y-4961199D01*
X3370739Y-4970223D01*
X3365682Y-4975045D01*
X3358821Y-4976367D01*
X3352335Y-4973770D01*
X3349261Y-4970223D01*
X3346217Y-4964950D01*
X3344051Y-4961199D01*
X3333801Y-4950949D01*
X3333801Y-4950949D01*
X3333801Y-4950949D01*
X3321249Y-4943702D01*
X3321249Y-4943702D01*
X3319252Y-4943167D01*
X3307247Y-4939950D01*
X3292752Y-4939950D01*
X3280748Y-4943167D01*
X3278751Y-4943702D01*
X3266199Y-4950949D01*
X3266198Y-4950949D01*
X3255829Y-4961318D01*
X3249697Y-4964667D01*
X3247061Y-4964950D01*
X3204300Y-4964950D01*
X3197596Y-4962982D01*
X3194208Y-4959755D01*
X3193919Y-4959351D01*
X3185648Y-4951080D01*
X3175139Y-4945943D01*
X3168326Y-4944950D01*
X3168326Y-4944950D01*
X3059174Y-4944950D01*
X3059174Y-4944950D01*
X3052361Y-4945943D01*
X3041851Y-4951080D01*
X3033580Y-4959351D01*
X3028443Y-4969861D01*
X3027450Y-4976674D01*
X2972550Y-4976674D01*
X2972505Y-4976367D01*
X2971557Y-4969861D01*
X2969019Y-4964668D01*
X2966420Y-4959352D01*
X2966420Y-4959352D01*
X2966420Y-4959351D01*
X2963336Y-4956268D01*
X2959988Y-4950136D01*
X2960486Y-4943167D01*
X2963336Y-4938732D01*
X2966420Y-4935649D01*
X2966420Y-4935648D01*
X2971557Y-4925139D01*
X2972550Y-4918326D01*
X2972550Y-4881674D01*
X2971557Y-4874861D01*
X2966420Y-4864352D01*
X2966420Y-4864352D01*
X2966420Y-4864351D01*
X2963336Y-4861268D01*
X2959988Y-4855136D01*
X2960486Y-4848167D01*
X2963336Y-4843732D01*
X2966420Y-4840649D01*
X2966420Y-4840648D01*
X2971557Y-4830139D01*
X2972550Y-4823326D01*
X2972550Y-4786674D01*
X2971557Y-4779861D01*
X2966420Y-4769352D01*
X2966420Y-4769352D01*
X2966420Y-4769351D01*
X2958148Y-4761080D01*
X2947639Y-4755943D01*
X2940826Y-4754950D01*
X2940826Y-4754950D01*
X2831674Y-4754950D01*
X2831674Y-4754950D01*
X2824861Y-4755943D01*
X2814351Y-4761080D01*
X2806080Y-4769351D01*
X2805792Y-4769755D01*
X2800295Y-4774067D01*
X2795700Y-4774950D01*
X2762450Y-4774950D01*
X2755746Y-4772982D01*
X2751171Y-4767701D01*
X2750050Y-4762550D01*
X2750050Y-4627753D01*
X2784950Y-4627753D01*
X2784950Y-4642248D01*
X2788702Y-4656249D01*
X2788702Y-4656249D01*
X2795949Y-4668801D01*
X2795949Y-4668801D01*
X2795949Y-4668802D01*
X2806198Y-4679051D01*
X2806199Y-4679051D01*
X2806199Y-4679051D01*
X2818751Y-4686298D01*
X2818751Y-4686298D01*
X2818751Y-4686298D01*
X2832752Y-4690050D01*
X2832753Y-4690050D01*
X2847247Y-4690050D01*
X2847247Y-4690050D01*
X2858178Y-4687121D01*
X2865163Y-4687287D01*
X2870156Y-4690331D01*
X2874677Y-4694852D01*
X2874678Y-4694853D01*
X2874678Y-4694853D01*
X2886687Y-4700972D01*
X2886688Y-4700972D01*
X2886688Y-4700972D01*
X2896651Y-4702550D01*
X2896651Y-4702550D01*
X2948349Y-4702550D01*
X2958312Y-4700972D01*
X2958312Y-4700972D01*
X2958313Y-4700972D01*
X2970322Y-4694853D01*
X2979853Y-4685322D01*
X2985972Y-4673313D01*
X2986686Y-4668802D01*
X2987550Y-4663349D01*
X2987550Y-4609348D01*
X4182450Y-4609348D01*
X4182450Y-4655652D01*
X4182916Y-4658591D01*
X4183935Y-4665030D01*
X4189695Y-4676334D01*
X4189695Y-4676334D01*
X4189695Y-4676335D01*
X4198665Y-4685305D01*
X4198665Y-4685305D01*
X4198666Y-4685305D01*
X4208529Y-4690331D01*
X4209970Y-4691065D01*
X4219348Y-4692550D01*
X4219348Y-4692550D01*
X4280652Y-4692550D01*
X4290030Y-4691065D01*
X4301334Y-4685305D01*
X4309394Y-4677246D01*
X4315526Y-4673897D01*
X4322495Y-4674396D01*
X4325710Y-4676176D01*
X4326198Y-4676551D01*
X4326199Y-4676551D01*
X4330528Y-4679051D01*
X4338751Y-4683798D01*
X4338751Y-4683798D01*
X4338752Y-4683798D01*
X4352753Y-4687550D01*
X4352753Y-4687550D01*
X4367247Y-4687550D01*
X4367248Y-4687550D01*
X4381249Y-4683798D01*
X4393802Y-4676551D01*
X4404051Y-4666302D01*
X4411298Y-4653749D01*
X4415050Y-4639748D01*
X4415050Y-4625253D01*
X4411298Y-4611252D01*
X4410199Y-4609348D01*
X4404051Y-4598699D01*
X4404051Y-4598698D01*
X4393802Y-4588449D01*
X4393801Y-4588449D01*
X4381249Y-4581202D01*
X4381249Y-4581202D01*
X4380101Y-4580894D01*
X4367248Y-4577450D01*
X4352753Y-4577450D01*
X4339899Y-4580894D01*
X4338751Y-4581202D01*
X4326198Y-4588449D01*
X4325710Y-4588824D01*
X4319193Y-4591343D01*
X4312348Y-4589939D01*
X4309394Y-4587754D01*
X4301335Y-4579695D01*
X4301334Y-4579695D01*
X4301334Y-4579695D01*
X4292409Y-4575147D01*
X4290030Y-4573935D01*
X4280652Y-4572450D01*
X4219348Y-4572450D01*
X4211252Y-4573732D01*
X4209970Y-4573935D01*
X4198666Y-4579695D01*
X4198666Y-4579695D01*
X4198665Y-4579695D01*
X4189695Y-4588665D01*
X4189695Y-4588666D01*
X4189695Y-4588666D01*
X4188473Y-4591065D01*
X4183935Y-4599970D01*
X4182450Y-4609348D01*
X2987550Y-4609348D01*
X2987550Y-4606651D01*
X2985972Y-4596688D01*
X2985972Y-4596688D01*
X2985972Y-4596687D01*
X2979853Y-4584678D01*
X2979853Y-4584678D01*
X2979852Y-4584677D01*
X2970322Y-4575148D01*
X2970322Y-4575147D01*
X2970322Y-4575147D01*
X2958313Y-4569028D01*
X2958312Y-4569028D01*
X2958312Y-4569028D01*
X2948349Y-4567450D01*
X2948349Y-4567450D01*
X2896651Y-4567450D01*
X2896651Y-4567450D01*
X2886688Y-4569028D01*
X2874678Y-4575147D01*
X2874677Y-4575148D01*
X2870155Y-4579670D01*
X2864023Y-4583018D01*
X2858178Y-4582879D01*
X2847247Y-4579950D01*
X2832752Y-4579950D01*
X2821303Y-4583018D01*
X2818751Y-4583702D01*
X2806199Y-4590949D01*
X2806198Y-4590949D01*
X2795949Y-4601198D01*
X2795949Y-4601199D01*
X2788702Y-4613751D01*
X2788702Y-4613752D01*
X2784950Y-4627753D01*
X2750050Y-4627753D01*
X2750050Y-4522450D01*
X2752019Y-4515746D01*
X2757299Y-4511171D01*
X2762450Y-4510050D01*
X3503956Y-4510050D01*
X3503956Y-4510050D01*
X3511599Y-4508002D01*
X3518451Y-4504046D01*
X3524046Y-4498451D01*
X3709056Y-4313441D01*
X3715189Y-4310092D01*
X3722158Y-4310591D01*
X3727751Y-4314778D01*
X3728563Y-4316009D01*
X3732027Y-4322008D01*
X3735949Y-4328802D01*
X3746198Y-4339051D01*
X3746199Y-4339051D01*
X3746199Y-4339051D01*
X3758751Y-4346298D01*
X3758751Y-4346298D01*
X3758751Y-4346298D01*
X3772752Y-4350050D01*
X3772753Y-4350050D01*
X3787247Y-4350050D01*
X3787247Y-4350050D01*
X3801248Y-4346298D01*
X3801249Y-4346298D01*
X3801249Y-4346298D01*
X3801249Y-4346298D01*
X3808460Y-4342135D01*
X3815250Y-4340487D01*
X3820106Y-4341733D01*
X3824861Y-4344057D01*
X3827545Y-4344448D01*
X3831674Y-4345050D01*
X3831674Y-4345050D01*
X3940826Y-4345050D01*
X3943097Y-4344719D01*
X3947639Y-4344057D01*
X3958148Y-4338920D01*
X3966420Y-4330648D01*
X3971557Y-4320139D01*
X3972550Y-4313326D01*
X3972550Y-4276674D01*
X3972550Y-4276674D01*
X4027450Y-4276674D01*
X4027450Y-4313326D01*
X4028443Y-4320139D01*
X4033580Y-4330649D01*
X4041851Y-4338920D01*
X4041851Y-4338920D01*
X4041852Y-4338920D01*
X4052361Y-4344057D01*
X4055045Y-4344448D01*
X4059174Y-4345050D01*
X4059174Y-4345050D01*
X4168326Y-4345050D01*
X4170597Y-4344719D01*
X4175139Y-4344057D01*
X4185648Y-4338920D01*
X4193920Y-4330648D01*
X4193920Y-4330648D01*
X4194208Y-4330245D01*
X4194679Y-4329875D01*
X4194928Y-4329330D01*
X4197397Y-4327744D01*
X4199705Y-4325933D01*
X4200432Y-4325793D01*
X4200806Y-4325552D01*
X4204300Y-4325050D01*
X4207550Y-4325050D01*
X4214254Y-4327019D01*
X4218829Y-4332299D01*
X4219950Y-4337450D01*
X4219950Y-4396764D01*
X4217982Y-4403468D01*
X4212701Y-4408043D01*
X4210884Y-4408591D01*
X4210898Y-4408634D01*
X4209970Y-4408935D01*
X4205262Y-4411334D01*
X4198666Y-4414695D01*
X4198666Y-4414695D01*
X4198665Y-4414695D01*
X4189695Y-4423665D01*
X4189695Y-4423666D01*
X4189695Y-4423666D01*
X4188473Y-4426065D01*
X4183935Y-4434970D01*
X4182450Y-4444348D01*
X4182450Y-4490652D01*
X4182731Y-4492426D01*
X4183935Y-4500030D01*
X4189695Y-4511334D01*
X4189695Y-4511334D01*
X4189695Y-4511335D01*
X4198665Y-4520305D01*
X4198665Y-4520305D01*
X4198666Y-4520305D01*
X4208376Y-4525253D01*
X4209970Y-4526065D01*
X4219348Y-4527550D01*
X4219348Y-4527550D01*
X4280652Y-4527550D01*
X4290030Y-4526065D01*
X4301334Y-4520305D01*
X4310305Y-4511334D01*
X4311317Y-4509348D01*
X5182450Y-4509348D01*
X5182450Y-4555652D01*
X5182751Y-4557550D01*
X5183935Y-4565030D01*
X5189695Y-4576334D01*
X5189695Y-4576334D01*
X5189695Y-4576335D01*
X5198665Y-4585305D01*
X5198665Y-4585305D01*
X5198666Y-4585305D01*
X5209742Y-4590949D01*
X5209970Y-4591065D01*
X5219348Y-4592550D01*
X5219348Y-4592550D01*
X5280652Y-4592550D01*
X5290030Y-4591065D01*
X5301334Y-4585305D01*
X5305597Y-4581042D01*
X5311729Y-4577694D01*
X5318698Y-4578192D01*
X5320564Y-4579072D01*
X5328752Y-4583798D01*
X5342753Y-4587550D01*
X5342753Y-4587550D01*
X5357247Y-4587550D01*
X5357248Y-4587550D01*
X5371249Y-4583798D01*
X5383802Y-4576551D01*
X5394051Y-4566302D01*
X5401298Y-4553749D01*
X5405050Y-4539748D01*
X5405050Y-4525253D01*
X5401298Y-4511252D01*
X5400199Y-4509348D01*
X5394051Y-4498699D01*
X5394051Y-4498698D01*
X5383802Y-4488449D01*
X5383801Y-4488449D01*
X5371249Y-4481202D01*
X5371249Y-4481202D01*
X5370101Y-4480894D01*
X5357248Y-4477450D01*
X5342753Y-4477450D01*
X5329899Y-4480894D01*
X5328751Y-4481202D01*
X5320565Y-4485928D01*
X5313775Y-4487575D01*
X5307172Y-4485290D01*
X5305597Y-4483957D01*
X5301335Y-4479695D01*
X5301334Y-4479695D01*
X5301334Y-4479695D01*
X5293652Y-4475781D01*
X5290030Y-4473935D01*
X5280652Y-4472450D01*
X5219348Y-4472450D01*
X5211252Y-4473732D01*
X5209970Y-4473935D01*
X5198666Y-4479695D01*
X5198666Y-4479695D01*
X5198665Y-4479695D01*
X5189695Y-4488665D01*
X5189695Y-4488666D01*
X5189695Y-4488666D01*
X5188683Y-4490652D01*
X5183935Y-4499970D01*
X5182450Y-4509348D01*
X4311317Y-4509348D01*
X4313122Y-4505805D01*
X4314434Y-4503231D01*
X4314434Y-4503231D01*
X4316065Y-4500030D01*
X4316065Y-4500030D01*
X4317550Y-4490652D01*
X4317550Y-4490652D01*
X4317550Y-4444348D01*
X4316065Y-4434970D01*
X4310305Y-4423666D01*
X4310305Y-4423665D01*
X4310305Y-4423665D01*
X4301335Y-4414695D01*
X4301334Y-4414695D01*
X4301334Y-4414695D01*
X4293652Y-4410781D01*
X4290030Y-4408935D01*
X4289102Y-4408634D01*
X4289184Y-4408383D01*
X4284196Y-4406018D01*
X4280503Y-4400087D01*
X4280050Y-4396764D01*
X4280050Y-4337450D01*
X4282019Y-4330746D01*
X4287299Y-4326171D01*
X4292450Y-4325050D01*
X4403956Y-4325050D01*
X4403956Y-4325050D01*
X4411599Y-4323002D01*
X4418451Y-4319046D01*
X4424046Y-4313451D01*
X4524046Y-4213451D01*
X4524491Y-4212681D01*
X4529547Y-4207859D01*
X4536408Y-4206537D01*
X4542895Y-4209133D01*
X4546948Y-4214824D01*
X4547207Y-4215671D01*
X4548702Y-4221248D01*
X4548702Y-4221249D01*
X4555949Y-4233801D01*
X4555949Y-4233801D01*
X4555949Y-4233802D01*
X4566199Y-4244051D01*
X4566199Y-4244051D01*
X4566199Y-4244051D01*
X4578751Y-4251298D01*
X4578751Y-4251298D01*
X4578752Y-4251298D01*
X4592753Y-4255050D01*
X4592753Y-4255050D01*
X4608021Y-4255050D01*
X4614725Y-4257019D01*
X4619301Y-4262299D01*
X4620295Y-4269215D01*
X4618989Y-4272990D01*
X4619013Y-4273000D01*
X4618844Y-4273407D01*
X4618760Y-4273650D01*
X4618702Y-4273751D01*
X4618702Y-4273751D01*
X4618652Y-4273935D01*
X4614950Y-4287753D01*
X4614950Y-4302248D01*
X4618689Y-4316202D01*
X4618702Y-4316249D01*
X4625949Y-4328801D01*
X4625949Y-4328801D01*
X4625949Y-4328802D01*
X4636199Y-4339051D01*
X4636199Y-4339051D01*
X4636199Y-4339051D01*
X4648751Y-4346298D01*
X4648751Y-4346298D01*
X4648752Y-4346298D01*
X4662753Y-4350050D01*
X4662753Y-4350050D01*
X4677247Y-4350050D01*
X4677248Y-4350050D01*
X4691249Y-4346298D01*
X4703046Y-4339487D01*
X4709835Y-4337840D01*
X4714691Y-4339086D01*
X4724861Y-4344057D01*
X4727545Y-4344448D01*
X4731674Y-4345050D01*
X4731674Y-4345050D01*
X4840826Y-4345050D01*
X4843097Y-4344719D01*
X4847639Y-4344057D01*
X4858148Y-4338920D01*
X4866420Y-4330648D01*
X4871557Y-4320139D01*
X4872550Y-4313326D01*
X4872550Y-4276674D01*
X4872550Y-4276674D01*
X4927450Y-4276674D01*
X4927450Y-4313326D01*
X4928443Y-4320139D01*
X4933580Y-4330649D01*
X4941851Y-4338920D01*
X4941852Y-4338920D01*
X4941852Y-4338920D01*
X4952361Y-4344057D01*
X4955045Y-4344448D01*
X4959174Y-4345050D01*
X4959174Y-4345050D01*
X5068326Y-4345050D01*
X5068326Y-4345050D01*
X5069695Y-4344851D01*
X5075121Y-4345266D01*
X5173688Y-4375515D01*
X5179519Y-4379363D01*
X5182344Y-4385754D01*
X5182450Y-4387369D01*
X5182450Y-4390652D01*
X5182751Y-4392550D01*
X5183935Y-4400030D01*
X5189695Y-4411334D01*
X5189695Y-4411334D01*
X5189695Y-4411335D01*
X5198665Y-4420305D01*
X5198665Y-4420305D01*
X5198666Y-4420305D01*
X5209969Y-4426065D01*
X5209970Y-4426065D01*
X5219348Y-4427550D01*
X5219348Y-4427550D01*
X5280652Y-4427550D01*
X5290030Y-4426065D01*
X5301334Y-4420305D01*
X5310305Y-4411334D01*
X5313879Y-4404320D01*
X5318676Y-4399241D01*
X5324927Y-4397550D01*
X5417061Y-4397550D01*
X5423765Y-4399519D01*
X5425830Y-4401182D01*
X5425949Y-4401302D01*
X5436199Y-4411551D01*
X5436199Y-4411551D01*
X5436199Y-4411551D01*
X5448751Y-4418798D01*
X5448751Y-4418798D01*
X5448752Y-4418798D01*
X5462753Y-4422550D01*
X5462753Y-4422550D01*
X5477247Y-4422550D01*
X5477248Y-4422550D01*
X5491249Y-4418798D01*
X5503802Y-4411551D01*
X5514051Y-4401302D01*
X5521298Y-4388749D01*
X5525050Y-4374748D01*
X5525050Y-4360253D01*
X5521298Y-4346252D01*
X5520490Y-4344851D01*
X5514051Y-4333699D01*
X5514051Y-4333698D01*
X5503802Y-4323449D01*
X5503801Y-4323449D01*
X5491249Y-4316202D01*
X5491249Y-4316202D01*
X5486790Y-4315007D01*
X5477248Y-4312450D01*
X5462753Y-4312450D01*
X5453210Y-4315007D01*
X5448751Y-4316202D01*
X5436199Y-4323449D01*
X5436198Y-4323449D01*
X5425830Y-4333818D01*
X5419697Y-4337167D01*
X5417061Y-4337450D01*
X5324927Y-4337450D01*
X5318223Y-4335482D01*
X5313879Y-4330680D01*
X5310499Y-4324046D01*
X5310305Y-4323666D01*
X5310305Y-4323666D01*
X5310305Y-4323665D01*
X5301335Y-4314695D01*
X5301334Y-4314695D01*
X5301334Y-4314695D01*
X5293279Y-4310591D01*
X5290030Y-4308935D01*
X5280652Y-4307450D01*
X5219348Y-4307450D01*
X5211252Y-4308732D01*
X5209970Y-4308935D01*
X5201353Y-4313326D01*
X5198665Y-4314695D01*
X5198236Y-4315007D01*
X5191655Y-4317354D01*
X5187311Y-4316829D01*
X5108812Y-4292739D01*
X5102981Y-4288891D01*
X5100156Y-4282500D01*
X5100050Y-4280885D01*
X5100050Y-4276674D01*
X5099057Y-4269861D01*
X5099057Y-4269861D01*
X5093920Y-4259352D01*
X5093920Y-4259352D01*
X5093920Y-4259351D01*
X5085649Y-4251080D01*
X5075139Y-4245943D01*
X5068326Y-4244950D01*
X5068326Y-4244950D01*
X4959174Y-4244950D01*
X4959174Y-4244950D01*
X4952361Y-4245943D01*
X4941851Y-4251080D01*
X4933580Y-4259351D01*
X4928443Y-4269861D01*
X4927450Y-4276674D01*
X4872550Y-4276674D01*
X4871557Y-4269861D01*
X4866420Y-4259352D01*
X4866420Y-4259352D01*
X4866420Y-4259351D01*
X4863336Y-4256268D01*
X4859988Y-4250136D01*
X4860486Y-4243167D01*
X4863336Y-4238732D01*
X4866420Y-4235649D01*
X4866420Y-4235648D01*
X4871557Y-4225139D01*
X4872550Y-4218326D01*
X4872550Y-4181674D01*
X4871557Y-4174861D01*
X4866420Y-4164352D01*
X4866420Y-4164351D01*
X4866420Y-4164351D01*
X4863336Y-4161268D01*
X4859988Y-4155136D01*
X4860486Y-4148167D01*
X4863336Y-4143732D01*
X4866420Y-4140648D01*
X4866420Y-4140648D01*
X4871557Y-4130139D01*
X4872550Y-4123326D01*
X4872550Y-4086674D01*
X4872532Y-4086549D01*
X4871557Y-4079861D01*
X4870882Y-4078479D01*
X4866420Y-4069352D01*
X4866420Y-4069351D01*
X4866420Y-4069351D01*
X4858149Y-4061080D01*
X4847639Y-4055943D01*
X4840826Y-4054950D01*
X4840826Y-4054950D01*
X4731674Y-4054950D01*
X4731674Y-4054950D01*
X4724861Y-4055943D01*
X4714351Y-4061080D01*
X4706081Y-4069351D01*
X4705792Y-4069755D01*
X4700295Y-4074067D01*
X4695700Y-4074950D01*
X4503956Y-4074950D01*
X4496044Y-4074950D01*
X4492222Y-4075974D01*
X4488401Y-4076998D01*
X4488400Y-4076998D01*
X4481550Y-4080953D01*
X4481549Y-4080954D01*
X4475954Y-4086549D01*
X4475954Y-4086549D01*
X4471998Y-4093400D01*
X4471998Y-4093401D01*
X4469950Y-4101044D01*
X4469950Y-4177417D01*
X4467982Y-4184121D01*
X4466318Y-4186185D01*
X4391185Y-4261318D01*
X4385053Y-4264667D01*
X4382417Y-4264950D01*
X4204300Y-4264950D01*
X4197596Y-4262982D01*
X4194208Y-4259755D01*
X4193919Y-4259351D01*
X4185648Y-4251080D01*
X4175139Y-4245943D01*
X4168326Y-4244950D01*
X4168326Y-4244950D01*
X4059174Y-4244950D01*
X4059174Y-4244950D01*
X4052361Y-4245943D01*
X4041851Y-4251080D01*
X4033580Y-4259351D01*
X4028443Y-4269861D01*
X4027450Y-4276674D01*
X3972550Y-4276674D01*
X3971557Y-4269861D01*
X3966420Y-4259352D01*
X3966420Y-4259352D01*
X3966420Y-4259351D01*
X3963336Y-4256268D01*
X3959988Y-4250136D01*
X3960486Y-4243167D01*
X3963336Y-4238732D01*
X3966420Y-4235649D01*
X3966420Y-4235648D01*
X3971557Y-4225139D01*
X3972550Y-4218326D01*
X3972550Y-4181674D01*
X3971557Y-4174861D01*
X3966420Y-4164352D01*
X3966420Y-4164351D01*
X3966420Y-4164351D01*
X3963336Y-4161268D01*
X3959988Y-4155136D01*
X3960486Y-4148167D01*
X3963336Y-4143732D01*
X3966420Y-4140648D01*
X3966420Y-4140648D01*
X3971557Y-4130139D01*
X3972550Y-4123326D01*
X3972550Y-4086674D01*
X3972532Y-4086549D01*
X3971557Y-4079861D01*
X3970882Y-4078479D01*
X3966420Y-4069352D01*
X3966420Y-4069351D01*
X3966420Y-4069351D01*
X3958148Y-4061080D01*
X3947639Y-4055943D01*
X3940826Y-4054950D01*
X3940826Y-4054950D01*
X3831674Y-4054950D01*
X3831674Y-4054950D01*
X3824861Y-4055943D01*
X3814351Y-4061080D01*
X3806080Y-4069351D01*
X3805792Y-4069755D01*
X3800295Y-4074067D01*
X3795700Y-4074950D01*
X3742450Y-4074950D01*
X3735746Y-4072981D01*
X3731171Y-4067701D01*
X3730050Y-4062550D01*
X3730050Y-3927752D01*
X3784950Y-3927752D01*
X3784950Y-3942247D01*
X3788620Y-3955943D01*
X3788702Y-3956249D01*
X3795949Y-3968801D01*
X3795949Y-3968801D01*
X3795949Y-3968801D01*
X3806198Y-3979051D01*
X3806199Y-3979051D01*
X3806199Y-3979051D01*
X3818751Y-3986298D01*
X3818751Y-3986298D01*
X3818751Y-3986298D01*
X3832752Y-3990050D01*
X3832753Y-3990050D01*
X3847247Y-3990050D01*
X3847247Y-3990050D01*
X3858178Y-3987121D01*
X3865163Y-3987287D01*
X3870156Y-3990330D01*
X3874677Y-3994852D01*
X3874678Y-3994853D01*
X3874678Y-3994853D01*
X3886687Y-4000972D01*
X3886688Y-4000972D01*
X3886688Y-4000972D01*
X3896651Y-4002550D01*
X3896651Y-4002550D01*
X3948349Y-4002550D01*
X3958312Y-4000972D01*
X3958312Y-4000972D01*
X3958313Y-4000972D01*
X3970322Y-3994853D01*
X3979853Y-3985322D01*
X3985972Y-3973313D01*
X3986549Y-3969667D01*
X3987550Y-3963349D01*
X3987550Y-3927752D01*
X4684950Y-3927752D01*
X4684950Y-3942247D01*
X4688620Y-3955943D01*
X4688702Y-3956249D01*
X4695949Y-3968801D01*
X4695949Y-3968801D01*
X4695949Y-3968801D01*
X4706199Y-3979051D01*
X4706199Y-3979051D01*
X4706199Y-3979051D01*
X4718751Y-3986298D01*
X4718751Y-3986298D01*
X4718752Y-3986298D01*
X4732753Y-3990050D01*
X4732753Y-3990050D01*
X4747247Y-3990050D01*
X4747248Y-3990050D01*
X4758179Y-3987121D01*
X4765163Y-3987287D01*
X4770156Y-3990330D01*
X4774678Y-3994852D01*
X4774678Y-3994853D01*
X4774678Y-3994853D01*
X4786687Y-4000972D01*
X4786688Y-4000972D01*
X4786688Y-4000972D01*
X4796651Y-4002550D01*
X4796651Y-4002550D01*
X4848349Y-4002550D01*
X4858312Y-4000972D01*
X4858312Y-4000972D01*
X4858313Y-4000972D01*
X4870322Y-3994853D01*
X4879853Y-3985322D01*
X4885972Y-3973313D01*
X4886549Y-3969667D01*
X4887550Y-3963349D01*
X4887550Y-3906651D01*
X4912450Y-3906651D01*
X4912450Y-3963349D01*
X4914028Y-3973312D01*
X4914028Y-3973312D01*
X4914028Y-3973313D01*
X4919645Y-3984337D01*
X4920147Y-3985322D01*
X4920148Y-3985322D01*
X4929677Y-3994852D01*
X4929678Y-3994853D01*
X4929678Y-3994853D01*
X4941687Y-4000972D01*
X4941688Y-4000972D01*
X4941688Y-4000972D01*
X4947809Y-4001941D01*
X4954122Y-4004934D01*
X4957815Y-4010866D01*
X4957996Y-4011603D01*
X4964236Y-4040862D01*
X4963709Y-4047829D01*
X4959498Y-4053406D01*
X4953896Y-4055719D01*
X4952361Y-4055943D01*
X4941851Y-4061080D01*
X4933580Y-4069351D01*
X4928443Y-4079861D01*
X4927450Y-4086674D01*
X4927450Y-4123326D01*
X4928443Y-4130139D01*
X4933580Y-4140648D01*
X4941851Y-4148920D01*
X4941852Y-4148920D01*
X4941852Y-4148920D01*
X4952361Y-4154057D01*
X4955767Y-4154554D01*
X4959174Y-4155050D01*
X4959174Y-4155050D01*
X5068326Y-4155050D01*
X5070597Y-4154719D01*
X5075139Y-4154057D01*
X5085648Y-4148920D01*
X5093920Y-4140648D01*
X5099057Y-4130139D01*
X5100050Y-4123326D01*
X5100050Y-4086674D01*
X5100032Y-4086549D01*
X5099057Y-4079861D01*
X5098382Y-4078479D01*
X5093920Y-4069352D01*
X5093920Y-4069351D01*
X5093920Y-4069351D01*
X5085649Y-4061080D01*
X5075139Y-4055943D01*
X5068326Y-4054950D01*
X5068326Y-4054950D01*
X5048950Y-4054950D01*
X5042246Y-4052981D01*
X5037671Y-4047701D01*
X5036823Y-4045136D01*
X5027622Y-4001989D01*
X5028150Y-3995022D01*
X5032360Y-3989446D01*
X5038916Y-3987031D01*
X5042959Y-3987426D01*
X5052753Y-3990050D01*
X5052753Y-3990050D01*
X5067247Y-3990050D01*
X5067248Y-3990050D01*
X5081249Y-3986298D01*
X5093802Y-3979051D01*
X5104051Y-3968801D01*
X5111298Y-3956248D01*
X5115050Y-3942247D01*
X5115050Y-3927752D01*
X5111298Y-3913751D01*
X5108530Y-3908956D01*
X5104051Y-3901199D01*
X5104051Y-3901198D01*
X5093802Y-3890949D01*
X5093801Y-3890949D01*
X5081249Y-3883702D01*
X5081249Y-3883702D01*
X5078697Y-3883018D01*
X5067248Y-3879950D01*
X5052753Y-3879950D01*
X5041822Y-3882879D01*
X5034837Y-3882713D01*
X5029844Y-3879669D01*
X5025322Y-3875147D01*
X5025322Y-3875147D01*
X5025322Y-3875147D01*
X5013313Y-3869028D01*
X5013312Y-3869028D01*
X5013312Y-3869028D01*
X5003349Y-3867450D01*
X5003349Y-3867450D01*
X4951651Y-3867450D01*
X4951651Y-3867450D01*
X4941688Y-3869028D01*
X4929678Y-3875147D01*
X4929677Y-3875148D01*
X4920148Y-3884677D01*
X4920147Y-3884678D01*
X4914028Y-3896688D01*
X4912450Y-3906651D01*
X4887550Y-3906651D01*
X4885972Y-3896688D01*
X4885972Y-3896688D01*
X4885972Y-3896687D01*
X4879853Y-3884678D01*
X4879853Y-3884678D01*
X4879852Y-3884677D01*
X4870323Y-3875148D01*
X4870322Y-3875147D01*
X4870322Y-3875147D01*
X4858313Y-3869028D01*
X4858312Y-3869028D01*
X4858312Y-3869028D01*
X4848349Y-3867450D01*
X4848349Y-3867450D01*
X4796651Y-3867450D01*
X4796651Y-3867450D01*
X4786688Y-3869028D01*
X4774678Y-3875147D01*
X4774677Y-3875148D01*
X4770155Y-3879670D01*
X4764023Y-3883018D01*
X4758178Y-3882879D01*
X4747248Y-3879950D01*
X4732753Y-3879950D01*
X4721303Y-3883018D01*
X4718751Y-3883702D01*
X4706199Y-3890949D01*
X4706198Y-3890949D01*
X4695949Y-3901198D01*
X4695949Y-3901199D01*
X4688702Y-3913751D01*
X4688702Y-3913751D01*
X4684950Y-3927752D01*
X3987550Y-3927752D01*
X3987550Y-3906651D01*
X3985972Y-3896688D01*
X3985972Y-3896688D01*
X3985972Y-3896687D01*
X3979853Y-3884678D01*
X3979853Y-3884678D01*
X3979852Y-3884677D01*
X3970322Y-3875148D01*
X3970322Y-3875147D01*
X3970322Y-3875147D01*
X3958313Y-3869028D01*
X3958312Y-3869028D01*
X3958312Y-3869028D01*
X3948349Y-3867450D01*
X3948349Y-3867450D01*
X3896651Y-3867450D01*
X3896651Y-3867450D01*
X3886688Y-3869028D01*
X3874678Y-3875147D01*
X3874677Y-3875148D01*
X3870155Y-3879670D01*
X3864023Y-3883018D01*
X3858178Y-3882879D01*
X3847247Y-3879950D01*
X3832752Y-3879950D01*
X3821303Y-3883018D01*
X3818751Y-3883702D01*
X3806199Y-3890949D01*
X3806198Y-3890949D01*
X3795949Y-3901198D01*
X3795949Y-3901199D01*
X3788702Y-3913751D01*
X3788702Y-3913751D01*
X3784950Y-3927752D01*
X3730050Y-3927752D01*
X3730050Y-3696044D01*
X3728685Y-3690949D01*
X3728002Y-3688401D01*
X3728002Y-3688400D01*
X3724046Y-3681549D01*
X3724046Y-3681549D01*
X3518451Y-3475954D01*
X3517635Y-3475483D01*
X3516004Y-3474541D01*
X3516004Y-3474541D01*
X3513801Y-3473270D01*
X3511599Y-3471998D01*
X3508802Y-3471248D01*
X3503956Y-3469950D01*
X2723956Y-3469950D01*
X2716044Y-3469950D01*
X2712222Y-3470974D01*
X2708401Y-3471998D01*
X2708400Y-3471998D01*
X2701550Y-3475953D01*
X2701549Y-3475954D01*
X2695954Y-3481549D01*
X2695954Y-3481549D01*
X2691998Y-3488400D01*
X2691998Y-3488401D01*
X2690633Y-3493496D01*
X2689950Y-3496044D01*
X2689950Y-3901044D01*
X2689950Y-3908956D01*
X2691235Y-3913751D01*
X2691998Y-3916599D01*
X2691998Y-3916599D01*
X2695954Y-3923450D01*
X2695954Y-3923451D01*
X2695954Y-3923451D01*
X2701549Y-3929046D01*
X2701549Y-3929046D01*
X2701550Y-3929046D01*
X2707212Y-3932316D01*
X2708401Y-3933002D01*
X2716044Y-3935050D01*
X2747161Y-3935050D01*
X2753865Y-3937018D01*
X2758441Y-3942299D01*
X2759435Y-3949215D01*
X2756533Y-3955570D01*
X2755930Y-3956218D01*
X2745949Y-3966198D01*
X2745949Y-3966199D01*
X2738702Y-3978751D01*
X2738621Y-3979051D01*
X2734950Y-3992752D01*
X2734950Y-4007247D01*
X2737919Y-4018326D01*
X2738702Y-4021249D01*
X2738702Y-4021249D01*
X2738760Y-4021350D01*
X2738784Y-4021446D01*
X2739013Y-4022000D01*
X2738927Y-4022036D01*
X2740407Y-4028140D01*
X2738122Y-4034743D01*
X2732630Y-4039062D01*
X2728021Y-4039950D01*
X2727248Y-4039950D01*
X2712753Y-4039950D01*
X2700748Y-4043167D01*
X2698751Y-4043702D01*
X2686199Y-4050949D01*
X2686198Y-4050949D01*
X2675949Y-4061198D01*
X2675949Y-4061199D01*
X2668702Y-4073751D01*
X2668404Y-4074861D01*
X2664950Y-4087752D01*
X2664950Y-4102247D01*
X2668702Y-4116248D01*
X2668702Y-4116249D01*
X2670204Y-4118850D01*
X2671851Y-4125640D01*
X2669566Y-4132243D01*
X2664073Y-4136562D01*
X2659465Y-4137450D01*
X2624927Y-4137450D01*
X2618223Y-4135481D01*
X2613879Y-4130680D01*
X2611389Y-4125793D01*
X2610305Y-4123666D01*
X2610305Y-4123665D01*
X2610305Y-4123665D01*
X2601335Y-4114695D01*
X2601334Y-4114695D01*
X2601334Y-4114695D01*
X2593652Y-4110780D01*
X2590030Y-4108935D01*
X2589102Y-4108634D01*
X2589184Y-4108382D01*
X2584196Y-4106018D01*
X2580503Y-4100087D01*
X2580050Y-4096764D01*
X2580050Y-4053236D01*
X2582019Y-4046532D01*
X2587299Y-4041956D01*
X2589116Y-4041409D01*
X2589102Y-4041366D01*
X2590030Y-4041065D01*
X2590030Y-4041065D01*
X2590030Y-4041065D01*
X2601334Y-4035305D01*
X2610305Y-4026334D01*
X2616065Y-4015030D01*
X2616065Y-4015030D01*
X2616065Y-4015030D01*
X2617550Y-4005652D01*
X2617550Y-4005652D01*
X2617550Y-3959348D01*
X2616065Y-3949970D01*
X2610305Y-3938666D01*
X2610305Y-3938665D01*
X2610305Y-3938665D01*
X2601335Y-3929695D01*
X2601334Y-3929695D01*
X2601334Y-3929695D01*
X2593652Y-3925780D01*
X2590030Y-3923935D01*
X2580652Y-3922450D01*
X2519348Y-3922450D01*
X2511252Y-3923732D01*
X2509970Y-3923935D01*
X2498666Y-3929695D01*
X2498666Y-3929695D01*
X2498665Y-3929695D01*
X2489695Y-3938665D01*
X2489695Y-3938666D01*
X2483935Y-3949970D01*
X2482450Y-3959347D01*
X2370050Y-3959347D01*
X2370050Y-3873705D01*
X2372019Y-3867001D01*
X2377299Y-3862425D01*
X2384215Y-3861431D01*
X2388650Y-3862966D01*
X2393078Y-3865523D01*
X2398751Y-3868798D01*
X2398751Y-3868798D01*
X2398751Y-3868798D01*
X2398752Y-3868798D01*
X2412753Y-3872550D01*
X2412753Y-3872550D01*
X2427247Y-3872550D01*
X2427248Y-3872550D01*
X2441249Y-3868798D01*
X2453802Y-3861551D01*
X2464051Y-3851301D01*
X2464051Y-3851301D01*
X2464171Y-3851182D01*
X2466863Y-3849711D01*
X2469445Y-3848052D01*
X2470065Y-3847963D01*
X2470303Y-3847833D01*
X2472939Y-3847550D01*
X2475073Y-3847550D01*
X2481777Y-3849518D01*
X2486121Y-3854320D01*
X2489695Y-3861334D01*
X2489695Y-3861335D01*
X2498665Y-3870304D01*
X2498665Y-3870305D01*
X2498666Y-3870305D01*
X2508170Y-3875147D01*
X2509970Y-3876065D01*
X2519348Y-3877550D01*
X2519348Y-3877550D01*
X2580652Y-3877550D01*
X2590030Y-3876065D01*
X2601334Y-3870305D01*
X2610305Y-3861334D01*
X2616065Y-3850030D01*
X2616065Y-3850030D01*
X2616065Y-3850030D01*
X2617550Y-3840652D01*
X2617550Y-3840652D01*
X2617550Y-3794348D01*
X2616065Y-3784970D01*
X2610305Y-3773666D01*
X2610305Y-3773665D01*
X2610305Y-3773665D01*
X2601335Y-3764695D01*
X2601334Y-3764695D01*
X2601334Y-3764695D01*
X2593652Y-3760780D01*
X2590030Y-3758935D01*
X2580652Y-3757450D01*
X2519348Y-3757450D01*
X2511252Y-3758732D01*
X2509970Y-3758935D01*
X2498666Y-3764695D01*
X2498666Y-3764695D01*
X2498665Y-3764695D01*
X2489695Y-3773665D01*
X2489695Y-3773666D01*
X2489695Y-3773666D01*
X2486121Y-3780680D01*
X2485076Y-3781786D01*
X2484444Y-3783170D01*
X2482726Y-3784274D01*
X2481324Y-3785759D01*
X2479756Y-3786183D01*
X2478566Y-3786948D01*
X2475073Y-3787450D01*
X2472939Y-3787450D01*
X2466235Y-3785481D01*
X2464171Y-3783818D01*
X2453802Y-3773449D01*
X2453801Y-3773449D01*
X2441249Y-3766202D01*
X2441249Y-3766202D01*
X2440101Y-3765894D01*
X2427248Y-3762450D01*
X2412753Y-3762450D01*
X2399899Y-3765894D01*
X2398751Y-3766202D01*
X2388650Y-3772034D01*
X2381860Y-3773681D01*
X2375257Y-3771396D01*
X2370938Y-3765904D01*
X2370050Y-3761295D01*
X2370050Y-3636044D01*
X2368753Y-3631202D01*
X2368002Y-3628401D01*
X2367289Y-3627167D01*
X2364046Y-3621549D01*
X2364046Y-3621549D01*
X2169025Y-3426527D01*
X2165676Y-3420395D01*
X2166175Y-3413426D01*
X2170362Y-3407833D01*
X2173048Y-3406303D01*
X2174760Y-3405594D01*
X2191966Y-3394098D01*
X2206598Y-3379465D01*
X2218094Y-3362260D01*
X2226013Y-3343142D01*
X2230050Y-3322846D01*
X2230050Y-3277153D01*
X2226013Y-3256858D01*
X2218094Y-3237740D01*
X2206598Y-3220534D01*
X2206598Y-3220534D01*
X2191966Y-3205902D01*
X2174760Y-3194406D01*
X2162705Y-3189412D01*
X2157264Y-3185028D01*
X2155058Y-3178399D01*
X2155050Y-3177956D01*
X2155050Y-2952161D01*
X2155307Y-2950385D01*
X2155050Y-2948222D01*
X2155050Y-2946044D01*
X2154816Y-2945171D01*
X2154480Y-2943425D01*
X2152419Y-2926064D01*
X2118874Y-2643581D01*
X2120038Y-2636692D01*
X2124742Y-2631526D01*
X2131492Y-2629723D01*
X2138146Y-2631855D01*
X2138528Y-2632125D01*
X2179988Y-2662586D01*
X2180810Y-2663461D01*
X2183165Y-2664919D01*
X2185396Y-2666559D01*
X2185397Y-2666559D01*
X2185456Y-2666582D01*
X2187482Y-2667594D01*
X2356581Y-2772362D01*
X2361243Y-2777566D01*
X2362450Y-2782903D01*
X2362450Y-2805652D01*
X2363409Y-2811707D01*
X2363935Y-2815030D01*
X2369695Y-2826334D01*
X2369695Y-2826334D01*
X2369695Y-2826335D01*
X2378665Y-2835304D01*
X2378665Y-2835305D01*
X2378666Y-2835305D01*
X2389969Y-2841064D01*
X2389970Y-2841065D01*
X2399348Y-2842550D01*
X2399348Y-2842550D01*
X2460652Y-2842550D01*
X2470030Y-2841065D01*
X2481334Y-2835305D01*
X2490305Y-2826334D01*
X2496065Y-2815030D01*
X2496065Y-2815030D01*
X2496065Y-2815030D01*
X2497550Y-2805653D01*
X2497550Y-2805652D01*
X2497550Y-2805652D01*
X2497550Y-2804762D01*
X2499518Y-2798058D01*
X2504798Y-2793482D01*
X2511714Y-2792488D01*
X2516150Y-2794023D01*
X2516198Y-2794051D01*
X2516199Y-2794051D01*
X2528752Y-2801298D01*
X2542753Y-2805050D01*
X2542753Y-2805050D01*
X2557247Y-2805050D01*
X2557248Y-2805050D01*
X2571249Y-2801298D01*
X2583802Y-2794051D01*
X2594051Y-2783802D01*
X2601298Y-2771249D01*
X2605050Y-2757248D01*
X2605050Y-2742753D01*
X2601298Y-2728752D01*
X2599929Y-2726379D01*
X2594051Y-2716199D01*
X2594051Y-2716198D01*
X2583802Y-2705949D01*
X2583801Y-2705949D01*
X2571249Y-2698702D01*
X2571249Y-2698702D01*
X2570137Y-2698404D01*
X2560149Y-2695727D01*
X2554183Y-2692091D01*
X2551130Y-2685806D01*
X2551959Y-2678869D01*
X2556408Y-2673481D01*
X2560148Y-2671773D01*
X2571249Y-2668798D01*
X2583802Y-2661551D01*
X2594051Y-2651302D01*
X2601298Y-2638749D01*
X2605050Y-2624748D01*
X2605050Y-2610253D01*
X2601298Y-2596252D01*
X2600200Y-2594348D01*
X2594051Y-2583699D01*
X2594051Y-2583698D01*
X2583802Y-2573449D01*
X2583801Y-2573449D01*
X2571249Y-2566202D01*
X2571249Y-2566202D01*
X2570101Y-2565894D01*
X2557248Y-2562450D01*
X2542753Y-2562450D01*
X2529899Y-2565894D01*
X2528751Y-2566202D01*
X2516199Y-2573449D01*
X2516198Y-2573449D01*
X2511040Y-2578607D01*
X2504908Y-2581956D01*
X2497939Y-2581457D01*
X2492345Y-2577270D01*
X2491224Y-2575469D01*
X2490952Y-2574935D01*
X2490305Y-2573666D01*
X2490305Y-2573666D01*
X2490305Y-2573665D01*
X2481335Y-2564695D01*
X2481334Y-2564695D01*
X2481334Y-2564695D01*
X2473108Y-2560503D01*
X2470030Y-2558935D01*
X2460652Y-2557450D01*
X2399348Y-2557450D01*
X2391683Y-2558664D01*
X2389970Y-2558935D01*
X2378666Y-2564695D01*
X2378666Y-2564695D01*
X2378665Y-2564695D01*
X2369695Y-2573665D01*
X2369695Y-2573666D01*
X2369695Y-2573666D01*
X2368776Y-2575469D01*
X2363935Y-2584970D01*
X2362450Y-2594348D01*
X2362450Y-2640652D01*
X2363290Y-2645954D01*
X2363935Y-2650030D01*
X2369695Y-2661334D01*
X2369695Y-2661334D01*
X2369695Y-2661335D01*
X2378665Y-2670305D01*
X2378665Y-2670305D01*
X2378666Y-2670305D01*
X2389969Y-2676065D01*
X2389970Y-2676065D01*
X2399348Y-2677550D01*
X2399348Y-2677550D01*
X2460652Y-2677550D01*
X2470030Y-2676065D01*
X2481334Y-2670305D01*
X2490305Y-2661334D01*
X2491224Y-2659531D01*
X2496021Y-2654452D01*
X2502803Y-2652772D01*
X2509417Y-2655026D01*
X2511040Y-2656393D01*
X2516199Y-2661551D01*
X2516199Y-2661551D01*
X2516199Y-2661551D01*
X2528751Y-2668798D01*
X2528751Y-2668798D01*
X2528752Y-2668798D01*
X2539851Y-2671773D01*
X2545817Y-2675409D01*
X2548870Y-2681694D01*
X2548041Y-2688631D01*
X2543592Y-2694019D01*
X2539851Y-2695727D01*
X2529883Y-2698398D01*
X2528751Y-2698702D01*
X2516199Y-2705949D01*
X2516198Y-2705949D01*
X2505949Y-2716198D01*
X2505949Y-2716199D01*
X2500071Y-2726379D01*
X2495015Y-2731201D01*
X2488154Y-2732523D01*
X2482044Y-2730211D01*
X2481335Y-2729695D01*
X2481334Y-2729695D01*
X2473652Y-2725781D01*
X2470030Y-2723935D01*
X2460652Y-2722450D01*
X2399348Y-2722450D01*
X2399348Y-2722450D01*
X2396561Y-2722891D01*
X2389632Y-2721996D01*
X2388091Y-2721185D01*
X2217252Y-2615339D01*
X2216441Y-2614791D01*
X2147608Y-2564220D01*
X2147297Y-2563811D01*
X2146830Y-2563598D01*
X2145200Y-2561061D01*
X2143371Y-2558664D01*
X2143255Y-2558035D01*
X2143052Y-2557720D01*
X2142550Y-2554227D01*
X2142550Y-2544088D01*
X2144519Y-2537384D01*
X2147402Y-2534250D01*
X2276086Y-2435534D01*
X2277432Y-2434634D01*
X2278451Y-2434046D01*
X2279855Y-2432643D01*
X2281429Y-2431435D01*
X2282640Y-2429857D01*
X2284046Y-2428451D01*
X2284632Y-2427436D01*
X2285534Y-2426087D01*
X2286247Y-2425158D01*
X2286247Y-2425157D01*
X2286697Y-2424071D01*
X2286697Y-2424071D01*
X2287008Y-2423320D01*
X2288002Y-2421599D01*
X2288516Y-2419682D01*
X2288827Y-2418931D01*
X2288827Y-2418930D01*
X2289276Y-2417848D01*
X2289429Y-2416682D01*
X2289746Y-2415092D01*
X2290050Y-2413957D01*
X2290050Y-2413956D01*
X2290050Y-2411971D01*
X2290309Y-2410004D01*
X2290050Y-2408032D01*
X2290050Y-2338200D01*
X2292019Y-2331496D01*
X2297299Y-2326921D01*
X2302450Y-2325800D01*
X2321975Y-2325800D01*
X2321975Y-2325800D01*
X2323457Y-2325505D01*
X2327823Y-2324637D01*
X2327823Y-2324637D01*
X2327823Y-2324637D01*
X2334455Y-2320205D01*
X2338887Y-2313573D01*
X2338887Y-2313573D01*
X2338887Y-2313573D01*
X2340050Y-2307725D01*
X2340050Y-2307725D01*
X2340050Y-2264700D01*
X2342019Y-2257996D01*
X2347299Y-2253421D01*
X2352450Y-2252300D01*
X2442417Y-2252300D01*
X2449121Y-2254269D01*
X2451185Y-2255932D01*
X2646318Y-2451065D01*
X2649667Y-2457198D01*
X2649950Y-2459833D01*
X2649950Y-2982210D01*
X2647982Y-2988914D01*
X2646245Y-2991051D01*
X2440732Y-3193195D01*
X2434572Y-3196493D01*
X2427608Y-3195937D01*
X2425148Y-3194665D01*
X2424760Y-3194406D01*
X2424760Y-3194406D01*
X2405642Y-3186487D01*
X2405641Y-3186487D01*
X2385347Y-3182450D01*
X2385347Y-3182450D01*
X2364654Y-3182450D01*
X2364653Y-3182450D01*
X2344359Y-3186487D01*
X2344358Y-3186487D01*
X2325240Y-3194406D01*
X2308034Y-3205902D01*
X2293402Y-3220534D01*
X2281906Y-3237740D01*
X2273987Y-3256858D01*
X2273987Y-3256859D01*
X2269950Y-3277153D01*
X2269950Y-3322847D01*
X2273987Y-3343141D01*
X2273987Y-3343142D01*
X2281906Y-3362260D01*
X2293402Y-3379465D01*
X2293741Y-3379972D01*
X2293643Y-3380037D01*
X2296129Y-3385891D01*
X2294949Y-3392778D01*
X2290234Y-3397934D01*
X2289001Y-3398557D01*
X2276199Y-3405949D01*
X2276198Y-3405949D01*
X2265949Y-3416198D01*
X2265949Y-3416199D01*
X2258702Y-3428751D01*
X2258258Y-3430405D01*
X2254950Y-3442752D01*
X2254950Y-3457247D01*
X2258354Y-3469950D01*
X2258702Y-3471249D01*
X2265949Y-3483801D01*
X2265949Y-3483801D01*
X2265949Y-3483801D01*
X2276199Y-3494051D01*
X2276199Y-3494051D01*
X2276199Y-3494051D01*
X2288751Y-3501298D01*
X2288751Y-3501298D01*
X2288752Y-3501298D01*
X2302753Y-3505050D01*
X2302753Y-3505050D01*
X2317247Y-3505050D01*
X2317248Y-3505050D01*
X2331249Y-3501298D01*
X2343802Y-3494051D01*
X2354051Y-3483801D01*
X2361298Y-3471248D01*
X2365050Y-3457247D01*
X2365050Y-3442752D01*
X2362479Y-3433159D01*
X2362646Y-3426174D01*
X2366562Y-3420388D01*
X2372985Y-3417638D01*
X2374457Y-3417550D01*
X2385347Y-3417550D01*
X2385347Y-3417550D01*
X2405642Y-3413513D01*
X2424760Y-3405594D01*
X2441966Y-3394098D01*
X2456598Y-3379465D01*
X2468094Y-3362260D01*
X2476013Y-3343142D01*
X2480050Y-3322846D01*
X2480050Y-3277153D01*
X2476013Y-3256858D01*
X2475073Y-3254588D01*
X2474326Y-3247641D01*
X2477453Y-3241393D01*
X2477831Y-3241005D01*
X2526888Y-3192752D01*
X3124950Y-3192752D01*
X3124950Y-3207247D01*
X3128107Y-3219030D01*
X3128702Y-3221249D01*
X3135949Y-3233801D01*
X3135949Y-3233801D01*
X3135949Y-3233801D01*
X3146198Y-3244051D01*
X3152417Y-3247641D01*
X3155223Y-3249261D01*
X3160045Y-3254318D01*
X3161367Y-3261179D01*
X3158770Y-3267665D01*
X3155223Y-3270739D01*
X3146198Y-3275949D01*
X3146198Y-3275949D01*
X3135949Y-3286198D01*
X3135949Y-3286199D01*
X3128702Y-3298751D01*
X3128702Y-3298751D01*
X3124950Y-3312752D01*
X3124950Y-3327247D01*
X3127643Y-3337299D01*
X3128702Y-3341249D01*
X3135949Y-3353801D01*
X3135949Y-3353801D01*
X3135949Y-3353801D01*
X3146198Y-3364051D01*
X3146199Y-3364051D01*
X3146199Y-3364051D01*
X3158751Y-3371298D01*
X3158751Y-3371298D01*
X3158751Y-3371298D01*
X3172752Y-3375050D01*
X3172753Y-3375050D01*
X3187247Y-3375050D01*
X3187247Y-3375050D01*
X3201248Y-3371298D01*
X3213801Y-3364051D01*
X3224051Y-3353801D01*
X3231298Y-3341248D01*
X3235050Y-3327247D01*
X3235050Y-3312752D01*
X3231298Y-3298751D01*
X3224051Y-3286198D01*
X3224051Y-3286198D01*
X3223874Y-3285969D01*
X3223786Y-3285740D01*
X3223644Y-3285495D01*
X3223683Y-3285472D01*
X3221355Y-3279452D01*
X3222759Y-3272607D01*
X3227640Y-3267608D01*
X3234449Y-3266042D01*
X3235652Y-3266173D01*
X3244347Y-3267550D01*
X3244348Y-3267550D01*
X3290652Y-3267550D01*
X3300030Y-3266065D01*
X3311334Y-3260305D01*
X3320305Y-3251334D01*
X3326065Y-3240030D01*
X3326065Y-3240030D01*
X3326065Y-3240030D01*
X3327550Y-3230652D01*
X3327550Y-3230652D01*
X3327550Y-3169348D01*
X3327550Y-3169347D01*
X3372450Y-3169347D01*
X3372450Y-3230652D01*
X3373529Y-3237466D01*
X3373935Y-3240030D01*
X3379695Y-3251334D01*
X3379695Y-3251334D01*
X3379695Y-3251335D01*
X3388665Y-3260304D01*
X3388665Y-3260305D01*
X3388666Y-3260305D01*
X3399969Y-3266064D01*
X3399970Y-3266065D01*
X3409347Y-3267550D01*
X3409348Y-3267550D01*
X3455652Y-3267550D01*
X3465030Y-3266065D01*
X3476334Y-3260305D01*
X3483521Y-3253118D01*
X3489654Y-3249769D01*
X3496623Y-3250268D01*
X3498489Y-3251147D01*
X3498751Y-3251298D01*
X3498751Y-3251298D01*
X3498751Y-3251298D01*
X3512752Y-3255050D01*
X3512753Y-3255050D01*
X3527247Y-3255050D01*
X3527247Y-3255050D01*
X3541248Y-3251298D01*
X3553801Y-3244051D01*
X3564051Y-3233801D01*
X3569261Y-3224777D01*
X3574318Y-3219955D01*
X3581179Y-3218633D01*
X3587665Y-3221230D01*
X3590739Y-3224777D01*
X3595949Y-3233801D01*
X3606198Y-3244051D01*
X3606199Y-3244051D01*
X3606199Y-3244051D01*
X3618751Y-3251298D01*
X3618751Y-3251298D01*
X3618751Y-3251298D01*
X3632752Y-3255050D01*
X3632753Y-3255050D01*
X3647247Y-3255050D01*
X3647247Y-3255050D01*
X3661248Y-3251298D01*
X3673801Y-3244051D01*
X3684051Y-3233801D01*
X3691298Y-3221248D01*
X3695050Y-3207247D01*
X3695050Y-3192752D01*
X3691298Y-3178751D01*
X3685869Y-3169348D01*
X3684051Y-3166199D01*
X3684051Y-3166198D01*
X3673802Y-3155949D01*
X3673801Y-3155949D01*
X3661249Y-3148702D01*
X3661249Y-3148702D01*
X3659431Y-3148214D01*
X3647247Y-3144950D01*
X3632752Y-3144950D01*
X3620569Y-3148214D01*
X3618751Y-3148702D01*
X3606199Y-3155949D01*
X3606198Y-3155949D01*
X3595949Y-3166198D01*
X3595949Y-3166198D01*
X3590739Y-3175223D01*
X3585682Y-3180045D01*
X3578821Y-3181367D01*
X3572335Y-3178770D01*
X3569261Y-3175223D01*
X3568093Y-3173200D01*
X3564051Y-3166198D01*
X3553801Y-3155949D01*
X3553801Y-3155949D01*
X3553801Y-3155949D01*
X3541249Y-3148702D01*
X3541249Y-3148702D01*
X3539431Y-3148214D01*
X3527247Y-3144950D01*
X3512752Y-3144950D01*
X3504352Y-3147201D01*
X3498751Y-3148702D01*
X3498751Y-3148702D01*
X3498489Y-3148853D01*
X3498240Y-3148913D01*
X3498000Y-3149013D01*
X3497985Y-3148975D01*
X3491699Y-3150500D01*
X3485096Y-3148214D01*
X3483522Y-3146883D01*
X3476334Y-3139695D01*
X3470570Y-3136758D01*
X3465030Y-3133935D01*
X3455652Y-3132450D01*
X3409348Y-3132450D01*
X3401252Y-3133732D01*
X3399970Y-3133935D01*
X3388666Y-3139695D01*
X3388666Y-3139695D01*
X3388665Y-3139695D01*
X3379695Y-3148665D01*
X3379695Y-3148666D01*
X3379695Y-3148666D01*
X3378760Y-3150500D01*
X3373935Y-3159970D01*
X3372450Y-3169347D01*
X3327550Y-3169347D01*
X3326065Y-3159970D01*
X3320305Y-3148666D01*
X3320305Y-3148665D01*
X3320304Y-3148665D01*
X3311335Y-3139695D01*
X3311334Y-3139695D01*
X3311334Y-3139695D01*
X3303652Y-3135780D01*
X3300030Y-3133935D01*
X3290652Y-3132450D01*
X3244348Y-3132450D01*
X3236252Y-3133732D01*
X3234970Y-3133935D01*
X3223666Y-3139695D01*
X3223666Y-3139695D01*
X3223666Y-3139695D01*
X3216478Y-3146882D01*
X3210346Y-3150231D01*
X3203377Y-3149732D01*
X3201511Y-3148853D01*
X3201248Y-3148702D01*
X3187247Y-3144950D01*
X3172752Y-3144950D01*
X3160569Y-3148214D01*
X3158751Y-3148702D01*
X3146199Y-3155949D01*
X3146198Y-3155949D01*
X3135949Y-3166198D01*
X3135949Y-3166199D01*
X3128702Y-3178751D01*
X3128702Y-3178751D01*
X3124950Y-3192752D01*
X2526888Y-3192752D01*
X2697179Y-3025252D01*
X3784950Y-3025252D01*
X3784950Y-3039747D01*
X3787340Y-3048666D01*
X3788702Y-3053749D01*
X3795949Y-3066301D01*
X3795949Y-3066301D01*
X3795949Y-3066301D01*
X3806198Y-3076551D01*
X3806199Y-3076551D01*
X3806199Y-3076551D01*
X3818751Y-3083798D01*
X3818751Y-3083798D01*
X3818751Y-3083798D01*
X3832752Y-3087550D01*
X3832753Y-3087550D01*
X3847247Y-3087550D01*
X3847247Y-3087550D01*
X3861248Y-3083798D01*
X3873801Y-3076551D01*
X3873802Y-3076550D01*
X3874289Y-3076177D01*
X3880806Y-3073657D01*
X3887650Y-3075060D01*
X3890606Y-3077246D01*
X3898665Y-3085304D01*
X3898665Y-3085305D01*
X3898666Y-3085305D01*
X3909969Y-3091064D01*
X3909970Y-3091065D01*
X3919347Y-3092550D01*
X3919348Y-3092550D01*
X3980652Y-3092550D01*
X3990030Y-3091065D01*
X4001334Y-3085305D01*
X4010305Y-3076334D01*
X4016065Y-3065030D01*
X4016065Y-3065030D01*
X4016065Y-3065030D01*
X4017550Y-3055652D01*
X4017550Y-3042752D01*
X4074950Y-3042752D01*
X4074950Y-3057247D01*
X4078192Y-3069348D01*
X4078702Y-3071249D01*
X4085949Y-3083801D01*
X4085949Y-3083801D01*
X4085949Y-3083801D01*
X4096198Y-3094051D01*
X4096199Y-3094051D01*
X4096199Y-3094051D01*
X4108751Y-3101298D01*
X4108751Y-3101298D01*
X4108751Y-3101298D01*
X4122752Y-3105050D01*
X4122753Y-3105050D01*
X4137247Y-3105050D01*
X4137247Y-3105050D01*
X4151248Y-3101298D01*
X4152439Y-3100611D01*
X4159229Y-3098964D01*
X4165831Y-3101249D01*
X4167407Y-3102582D01*
X4174677Y-3109852D01*
X4174678Y-3109853D01*
X4174678Y-3109853D01*
X4186687Y-3115972D01*
X4186688Y-3115972D01*
X4186688Y-3115972D01*
X4196651Y-3117550D01*
X4196651Y-3117550D01*
X4248349Y-3117550D01*
X4258312Y-3115972D01*
X4258312Y-3115972D01*
X4258313Y-3115972D01*
X4270322Y-3109853D01*
X4279853Y-3100322D01*
X4285972Y-3088313D01*
X4286448Y-3085305D01*
X4287550Y-3078349D01*
X4287550Y-3021651D01*
X4285972Y-3011688D01*
X4285972Y-3011688D01*
X4285972Y-3011687D01*
X4279853Y-2999678D01*
X4279853Y-2999678D01*
X4279852Y-2999677D01*
X4270323Y-2990148D01*
X4270322Y-2990147D01*
X4270322Y-2990147D01*
X4258313Y-2984028D01*
X4258312Y-2984028D01*
X4258312Y-2984028D01*
X4248349Y-2982450D01*
X4248349Y-2982450D01*
X4196651Y-2982450D01*
X4196651Y-2982450D01*
X4186688Y-2984028D01*
X4186687Y-2984028D01*
X4186687Y-2984028D01*
X4182730Y-2986044D01*
X4174678Y-2990147D01*
X4167407Y-2997418D01*
X4161274Y-3000767D01*
X4154305Y-3000268D01*
X4152439Y-2999389D01*
X4151248Y-2998702D01*
X4151249Y-2998702D01*
X4146459Y-2997418D01*
X4137247Y-2994950D01*
X4122752Y-2994950D01*
X4109899Y-2998394D01*
X4108751Y-2998702D01*
X4096199Y-3005949D01*
X4096198Y-3005949D01*
X4085949Y-3016198D01*
X4085949Y-3016199D01*
X4078702Y-3028751D01*
X4078321Y-3030170D01*
X4074950Y-3042752D01*
X4017550Y-3042752D01*
X4017550Y-3041940D01*
X4017550Y-3009348D01*
X4017327Y-3007943D01*
X4016065Y-2999970D01*
X4010305Y-2988666D01*
X4010305Y-2988665D01*
X4010304Y-2988665D01*
X4001335Y-2979695D01*
X4001334Y-2979695D01*
X4001334Y-2979695D01*
X3993652Y-2975780D01*
X3990030Y-2973935D01*
X3980652Y-2972450D01*
X3919348Y-2972450D01*
X3911252Y-2973732D01*
X3909970Y-2973935D01*
X3898666Y-2979695D01*
X3898666Y-2979695D01*
X3898666Y-2979695D01*
X3890606Y-2987754D01*
X3884474Y-2991103D01*
X3877505Y-2990604D01*
X3874290Y-2988824D01*
X3873801Y-2988449D01*
X3861249Y-2981202D01*
X3861249Y-2981202D01*
X3859465Y-2980724D01*
X3847247Y-2977450D01*
X3832752Y-2977450D01*
X3820535Y-2980724D01*
X3818751Y-2981202D01*
X3806199Y-2988449D01*
X3806198Y-2988449D01*
X3795949Y-2998698D01*
X3795949Y-2998699D01*
X3788702Y-3011251D01*
X3788607Y-3011605D01*
X3784950Y-3025252D01*
X2697179Y-3025252D01*
X2698342Y-3024109D01*
X2698451Y-3024046D01*
X2701160Y-3021337D01*
X2703893Y-3018649D01*
X2703893Y-3018649D01*
X2703897Y-3018644D01*
X2703938Y-3018592D01*
X2703999Y-3018513D01*
X2704043Y-3018457D01*
X2704168Y-3018240D01*
X2704245Y-3018107D01*
X2705950Y-3015153D01*
X2705973Y-3015113D01*
X2707905Y-3011830D01*
X2707905Y-3011829D01*
X2707968Y-3011683D01*
X2707977Y-3011661D01*
X2708000Y-3011605D01*
X2708002Y-3011599D01*
X2708002Y-3011599D01*
X2708994Y-3007898D01*
X2710016Y-3004204D01*
X2710017Y-3004079D01*
X2710050Y-3003957D01*
X2710050Y-3000175D01*
X2710050Y-3000073D01*
X2710051Y-2999970D01*
X2710082Y-2996292D01*
X2710082Y-2996292D01*
X2710085Y-2995849D01*
X2710050Y-2995275D01*
X2710050Y-2659348D01*
X3882450Y-2659348D01*
X3882450Y-2705652D01*
X3883527Y-2712450D01*
X3883935Y-2715030D01*
X3889695Y-2726334D01*
X3889695Y-2726334D01*
X3889695Y-2726335D01*
X3898665Y-2735305D01*
X3898665Y-2735305D01*
X3898666Y-2735305D01*
X3909970Y-2741065D01*
X3909970Y-2741065D01*
X3910898Y-2741366D01*
X3910816Y-2741618D01*
X3915802Y-2743980D01*
X3919496Y-2749911D01*
X3919950Y-2753236D01*
X3919950Y-2796764D01*
X3917981Y-2803468D01*
X3912701Y-2808043D01*
X3910884Y-2808591D01*
X3910898Y-2808634D01*
X3909970Y-2808935D01*
X3905288Y-2811321D01*
X3898666Y-2814695D01*
X3898666Y-2814695D01*
X3898665Y-2814695D01*
X3889695Y-2823665D01*
X3889695Y-2823666D01*
X3883935Y-2834970D01*
X3882450Y-2844347D01*
X3882450Y-2890652D01*
X3883218Y-2895502D01*
X3883935Y-2900030D01*
X3889695Y-2911334D01*
X3889695Y-2911334D01*
X3889695Y-2911335D01*
X3898665Y-2920304D01*
X3898665Y-2920305D01*
X3898666Y-2920305D01*
X3909969Y-2926064D01*
X3909970Y-2926065D01*
X3919347Y-2927550D01*
X3919348Y-2927550D01*
X3980652Y-2927550D01*
X3990030Y-2926065D01*
X4001334Y-2920305D01*
X4010305Y-2911334D01*
X4016065Y-2900030D01*
X4016065Y-2900030D01*
X4016065Y-2900030D01*
X4017550Y-2890652D01*
X4017550Y-2890652D01*
X4017550Y-2844348D01*
X4016065Y-2834970D01*
X4010305Y-2823666D01*
X4010305Y-2823665D01*
X4010304Y-2823665D01*
X4001335Y-2814695D01*
X4001334Y-2814695D01*
X4001334Y-2814695D01*
X3992056Y-2809967D01*
X3990030Y-2808935D01*
X3989102Y-2808634D01*
X3989184Y-2808382D01*
X3984196Y-2806018D01*
X3980503Y-2800087D01*
X3980050Y-2796764D01*
X3980050Y-2753236D01*
X3982018Y-2746532D01*
X3987299Y-2741957D01*
X3989116Y-2741409D01*
X3989102Y-2741366D01*
X3990030Y-2741065D01*
X3990030Y-2741065D01*
X3990030Y-2741065D01*
X4001334Y-2735305D01*
X4010305Y-2726334D01*
X4013879Y-2719320D01*
X4018676Y-2714241D01*
X4024927Y-2712550D01*
X4090603Y-2712550D01*
X4095837Y-2713708D01*
X4109244Y-2719950D01*
X4123134Y-2726416D01*
X4126002Y-2727751D01*
X4131248Y-2732365D01*
X4133168Y-2739083D01*
X4131151Y-2745772D01*
X4126968Y-2749731D01*
X4116198Y-2755949D01*
X4116198Y-2755949D01*
X4105949Y-2766198D01*
X4105949Y-2766199D01*
X4098702Y-2778751D01*
X4098702Y-2778752D01*
X4094950Y-2792753D01*
X4094950Y-2807247D01*
X4098185Y-2819320D01*
X4098702Y-2821249D01*
X4105949Y-2833801D01*
X4105949Y-2833801D01*
X4105949Y-2833801D01*
X4116198Y-2844051D01*
X4116199Y-2844051D01*
X4116199Y-2844051D01*
X4128751Y-2851298D01*
X4128751Y-2851298D01*
X4128751Y-2851298D01*
X4142752Y-2855050D01*
X4142753Y-2855050D01*
X4157247Y-2855050D01*
X4157247Y-2855050D01*
X4169831Y-2851678D01*
X4176816Y-2851844D01*
X4182602Y-2855760D01*
X4185202Y-2861236D01*
X4186403Y-2867274D01*
X4186403Y-2867274D01*
X4186403Y-2867274D01*
X4191940Y-2875560D01*
X4199626Y-2880695D01*
X4200226Y-2881097D01*
X4200226Y-2881097D01*
X4207532Y-2882550D01*
X4207532Y-2882550D01*
X4207533Y-2882550D01*
X4224423Y-2882550D01*
X4227632Y-2882972D01*
X4235386Y-2885050D01*
X4319502Y-2885050D01*
X4326206Y-2887018D01*
X4330782Y-2892299D01*
X4331748Y-2895502D01*
X4342296Y-2961802D01*
X4342450Y-2963751D01*
X4342450Y-2976041D01*
X4340482Y-2982745D01*
X4335680Y-2987089D01*
X4329678Y-2990147D01*
X4329677Y-2990148D01*
X4320148Y-2999677D01*
X4320147Y-2999678D01*
X4320147Y-2999678D01*
X4314041Y-3011661D01*
X4314028Y-3011688D01*
X4312450Y-3021651D01*
X4312450Y-3078349D01*
X4314028Y-3088312D01*
X4314028Y-3088312D01*
X4314028Y-3088313D01*
X4320147Y-3100322D01*
X4320147Y-3100322D01*
X4320148Y-3100322D01*
X4329677Y-3109852D01*
X4329678Y-3109853D01*
X4329678Y-3109853D01*
X4341687Y-3115972D01*
X4341688Y-3115972D01*
X4341688Y-3115972D01*
X4351651Y-3117550D01*
X4351651Y-3117550D01*
X4403349Y-3117550D01*
X4413312Y-3115972D01*
X4413312Y-3115972D01*
X4413313Y-3115972D01*
X4425322Y-3109853D01*
X4434853Y-3100322D01*
X4434853Y-3100322D01*
X4435018Y-3100095D01*
X4435290Y-3099885D01*
X4435543Y-3099632D01*
X4435576Y-3099665D01*
X4440550Y-3095828D01*
X4447512Y-3095230D01*
X4453691Y-3098490D01*
X4457128Y-3104573D01*
X4457450Y-3107383D01*
X4457450Y-3130652D01*
X4457970Y-3133935D01*
X4458935Y-3140030D01*
X4464695Y-3151334D01*
X4464695Y-3151334D01*
X4464695Y-3151335D01*
X4473665Y-3160304D01*
X4473665Y-3160305D01*
X4473666Y-3160305D01*
X4484969Y-3166064D01*
X4484970Y-3166065D01*
X4494348Y-3167550D01*
X4494348Y-3167550D01*
X4540652Y-3167550D01*
X4550030Y-3166065D01*
X4561334Y-3160305D01*
X4570305Y-3151334D01*
X4576065Y-3140030D01*
X4576065Y-3140030D01*
X4576065Y-3140030D01*
X4577550Y-3130652D01*
X4577550Y-3130652D01*
X4577550Y-3069348D01*
X4576065Y-3059970D01*
X4570305Y-3048666D01*
X4570305Y-3048665D01*
X4570305Y-3048665D01*
X4561334Y-3039695D01*
X4558026Y-3038009D01*
X4552947Y-3033212D01*
X4551679Y-3030171D01*
X4551298Y-3028751D01*
X4549278Y-3025252D01*
X4544051Y-3016199D01*
X4544051Y-3016198D01*
X4533802Y-3005949D01*
X4533801Y-3005949D01*
X4521249Y-2998702D01*
X4521249Y-2998702D01*
X4520101Y-2998394D01*
X4507248Y-2994950D01*
X4492753Y-2994950D01*
X4479899Y-2998394D01*
X4478751Y-2998702D01*
X4466199Y-3005949D01*
X4466198Y-3005949D01*
X4460830Y-3011318D01*
X4458137Y-3012788D01*
X4455555Y-3014448D01*
X4454935Y-3014537D01*
X4454697Y-3014667D01*
X4452061Y-3014950D01*
X4450233Y-3014950D01*
X4443529Y-3012981D01*
X4439185Y-3008179D01*
X4439041Y-3007898D01*
X4434853Y-2999678D01*
X4434852Y-2999678D01*
X4434852Y-2999677D01*
X4425323Y-2990148D01*
X4425322Y-2990147D01*
X4419321Y-2987089D01*
X4418214Y-2986044D01*
X4416830Y-2985412D01*
X4415726Y-2983694D01*
X4414241Y-2982292D01*
X4413817Y-2980724D01*
X4413052Y-2979534D01*
X4412550Y-2976041D01*
X4412550Y-2962471D01*
X4412617Y-2961183D01*
X4412840Y-2959050D01*
X4412550Y-2957229D01*
X4412550Y-2955386D01*
X4411828Y-2952691D01*
X4401622Y-2888541D01*
X4402513Y-2881611D01*
X4406979Y-2876282D01*
X4408060Y-2875560D01*
X4413597Y-2867274D01*
X4415050Y-2859967D01*
X4415050Y-2840033D01*
X4415050Y-2840032D01*
X4415050Y-2840032D01*
X4413597Y-2832726D01*
X4413597Y-2832726D01*
X4413597Y-2832726D01*
X4413597Y-2832726D01*
X4413037Y-2831889D01*
X4410950Y-2825222D01*
X4412798Y-2818484D01*
X4413034Y-2818116D01*
X4413597Y-2817274D01*
X4415050Y-2809967D01*
X4415050Y-2792450D01*
X4417019Y-2785746D01*
X4422299Y-2781171D01*
X4427450Y-2780050D01*
X4443956Y-2780050D01*
X4443956Y-2780050D01*
X4451599Y-2778002D01*
X4458451Y-2774046D01*
X4464046Y-2768451D01*
X4468002Y-2761599D01*
X4470050Y-2753956D01*
X4470050Y-2712450D01*
X4472019Y-2705746D01*
X4477299Y-2701171D01*
X4482450Y-2700050D01*
X4717550Y-2700050D01*
X4724254Y-2702019D01*
X4728829Y-2707299D01*
X4729950Y-2712450D01*
X4729950Y-3021780D01*
X4727982Y-3028484D01*
X4722701Y-3033059D01*
X4715785Y-3034054D01*
X4715610Y-3034027D01*
X4705653Y-3032450D01*
X4659348Y-3032450D01*
X4651252Y-3033732D01*
X4649970Y-3033935D01*
X4638666Y-3039695D01*
X4638666Y-3039695D01*
X4638665Y-3039695D01*
X4629695Y-3048665D01*
X4629695Y-3048666D01*
X4623935Y-3059970D01*
X4622450Y-3069347D01*
X4622450Y-3130652D01*
X4622970Y-3133935D01*
X4623935Y-3140030D01*
X4629695Y-3151334D01*
X4629695Y-3151334D01*
X4629695Y-3151335D01*
X4638665Y-3160304D01*
X4638665Y-3160305D01*
X4638666Y-3160305D01*
X4645680Y-3163879D01*
X4650759Y-3168676D01*
X4652450Y-3174927D01*
X4652450Y-3582417D01*
X4650482Y-3589120D01*
X4648818Y-3591185D01*
X4616185Y-3623818D01*
X4610052Y-3627167D01*
X4607417Y-3627450D01*
X4607248Y-3627450D01*
X4592753Y-3627450D01*
X4579899Y-3630894D01*
X4578751Y-3631202D01*
X4566199Y-3638449D01*
X4566198Y-3638449D01*
X4555949Y-3648698D01*
X4555949Y-3648699D01*
X4548702Y-3661251D01*
X4548702Y-3661251D01*
X4544950Y-3675252D01*
X4544950Y-3689747D01*
X4548018Y-3701199D01*
X4548702Y-3703749D01*
X4555949Y-3716301D01*
X4555949Y-3716301D01*
X4555949Y-3716301D01*
X4566199Y-3726551D01*
X4566199Y-3726551D01*
X4566199Y-3726551D01*
X4578751Y-3733798D01*
X4578751Y-3733798D01*
X4578752Y-3733798D01*
X4592753Y-3737550D01*
X4592753Y-3737550D01*
X4607247Y-3737550D01*
X4607248Y-3737550D01*
X4621249Y-3733798D01*
X4633802Y-3726551D01*
X4644051Y-3716301D01*
X4651298Y-3703748D01*
X4655050Y-3689747D01*
X4655050Y-3675252D01*
X4655050Y-3675083D01*
X4657019Y-3668379D01*
X4658682Y-3666315D01*
X4676299Y-3648698D01*
X4706546Y-3618451D01*
X4707988Y-3615954D01*
X4710271Y-3611999D01*
X4710272Y-3611998D01*
X4710299Y-3611951D01*
X4710502Y-3611599D01*
X4712550Y-3603956D01*
X4712550Y-3174927D01*
X4714519Y-3168223D01*
X4719320Y-3163879D01*
X4726334Y-3160305D01*
X4735305Y-3151334D01*
X4741065Y-3140030D01*
X4741065Y-3140030D01*
X4741065Y-3140030D01*
X4741366Y-3139102D01*
X4741617Y-3139184D01*
X4743982Y-3134196D01*
X4749913Y-3130503D01*
X4753236Y-3130050D01*
X4763956Y-3130050D01*
X4763956Y-3130050D01*
X4771599Y-3128002D01*
X4778451Y-3124046D01*
X4784046Y-3118451D01*
X4788002Y-3111599D01*
X4790050Y-3103956D01*
X4790050Y-2666044D01*
X4788002Y-2658401D01*
X4785549Y-2654152D01*
X4784046Y-2651550D01*
X4784046Y-2651549D01*
X4778451Y-2645954D01*
X4778450Y-2645954D01*
X4771600Y-2641998D01*
X4771599Y-2641998D01*
X4769051Y-2641315D01*
X4763956Y-2639950D01*
X4443956Y-2639950D01*
X4436044Y-2639950D01*
X4433423Y-2640652D01*
X4428401Y-2641998D01*
X4428400Y-2641998D01*
X4421550Y-2645954D01*
X4421549Y-2645954D01*
X4415954Y-2651549D01*
X4415954Y-2651550D01*
X4411998Y-2658400D01*
X4411998Y-2658401D01*
X4409950Y-2666044D01*
X4409950Y-2705818D01*
X4407982Y-2712522D01*
X4402701Y-2717097D01*
X4395785Y-2718092D01*
X4395131Y-2717980D01*
X4392467Y-2717450D01*
X4327533Y-2717450D01*
X4327532Y-2717450D01*
X4320226Y-2718903D01*
X4320226Y-2718903D01*
X4311889Y-2724474D01*
X4305221Y-2726562D01*
X4298483Y-2724713D01*
X4298111Y-2724474D01*
X4289774Y-2718903D01*
X4289774Y-2718903D01*
X4282468Y-2717450D01*
X4282467Y-2717450D01*
X4249026Y-2717450D01*
X4243793Y-2716292D01*
X4114374Y-2656045D01*
X4114374Y-2656045D01*
X4113879Y-2655814D01*
X4111599Y-2654498D01*
X4110307Y-2654152D01*
X4109328Y-2653696D01*
X4109095Y-2653588D01*
X4109095Y-2653587D01*
X4107038Y-2653226D01*
X4107038Y-2653226D01*
X4106500Y-2653132D01*
X4103956Y-2652450D01*
X4102619Y-2652450D01*
X4101555Y-2652263D01*
X4101555Y-2652263D01*
X4101302Y-2652219D01*
X4099470Y-2652380D01*
X4099221Y-2652402D01*
X4098133Y-2652450D01*
X4024927Y-2652450D01*
X4018223Y-2650482D01*
X4013879Y-2645680D01*
X4010959Y-2639950D01*
X4010305Y-2638666D01*
X4010305Y-2638666D01*
X4010304Y-2638665D01*
X4001335Y-2629695D01*
X4001334Y-2629695D01*
X4001334Y-2629695D01*
X3993275Y-2625589D01*
X3990030Y-2623935D01*
X3980652Y-2622450D01*
X3919348Y-2622450D01*
X3911252Y-2623732D01*
X3909970Y-2623935D01*
X3898666Y-2629695D01*
X3898666Y-2629695D01*
X3898665Y-2629695D01*
X3889695Y-2638665D01*
X3889695Y-2638666D01*
X3889695Y-2638666D01*
X3887775Y-2642434D01*
X3883935Y-2649970D01*
X3882450Y-2659348D01*
X2710050Y-2659348D01*
X2710050Y-2438294D01*
X2709178Y-2435040D01*
X2708002Y-2430651D01*
X2706732Y-2428451D01*
X2704046Y-2423800D01*
X2704046Y-2423799D01*
X2561512Y-2281265D01*
X2558163Y-2275132D01*
X2558662Y-2268163D01*
X2562849Y-2262570D01*
X2569395Y-2260128D01*
X2575909Y-2261448D01*
X2584970Y-2266065D01*
X2584970Y-2266065D01*
X2584970Y-2266065D01*
X2584970Y-2266065D01*
X2594348Y-2267550D01*
X2594348Y-2267550D01*
X2640652Y-2267550D01*
X2650030Y-2266065D01*
X2661334Y-2260305D01*
X2670305Y-2251334D01*
X2676065Y-2240030D01*
X2676065Y-2240030D01*
X2676065Y-2240030D01*
X2677128Y-2233315D01*
X2677550Y-2230652D01*
X2677550Y-2169348D01*
X2677550Y-2169348D01*
X2722450Y-2169348D01*
X2722450Y-2230652D01*
X2723011Y-2234196D01*
X2723935Y-2240030D01*
X2729695Y-2251334D01*
X2729695Y-2251334D01*
X2729695Y-2251335D01*
X2738665Y-2260305D01*
X2738665Y-2260305D01*
X2738666Y-2260305D01*
X2749969Y-2266065D01*
X2749970Y-2266065D01*
X2759348Y-2267550D01*
X2759348Y-2267550D01*
X2805652Y-2267550D01*
X2815030Y-2266065D01*
X2826334Y-2260305D01*
X2835305Y-2251334D01*
X2841065Y-2240030D01*
X2841065Y-2240030D01*
X2841065Y-2240030D01*
X2841366Y-2239102D01*
X2841617Y-2239184D01*
X2843982Y-2234196D01*
X2849913Y-2230503D01*
X2853236Y-2230050D01*
X2897061Y-2230050D01*
X2903765Y-2232019D01*
X2905829Y-2233682D01*
X2905949Y-2233802D01*
X2916198Y-2244051D01*
X2916199Y-2244051D01*
X2916199Y-2244051D01*
X2928751Y-2251298D01*
X2928751Y-2251298D01*
X2928751Y-2251298D01*
X2942752Y-2255050D01*
X2942753Y-2255050D01*
X2957247Y-2255050D01*
X2957247Y-2255050D01*
X2971248Y-2251298D01*
X2983801Y-2244051D01*
X2994051Y-2233802D01*
X3001298Y-2221249D01*
X3005050Y-2207248D01*
X3005050Y-2192753D01*
X3001298Y-2178752D01*
X2999692Y-2175970D01*
X2994051Y-2166199D01*
X2994051Y-2166198D01*
X2983802Y-2155949D01*
X2983801Y-2155949D01*
X2971249Y-2148702D01*
X2971249Y-2148702D01*
X2970101Y-2148394D01*
X2957247Y-2144950D01*
X2942752Y-2144950D01*
X2929899Y-2148394D01*
X2928751Y-2148702D01*
X2916199Y-2155949D01*
X2916198Y-2155949D01*
X2905829Y-2166318D01*
X2899697Y-2169667D01*
X2897061Y-2169950D01*
X2853236Y-2169950D01*
X2846532Y-2167982D01*
X2841957Y-2162701D01*
X2841409Y-2160884D01*
X2841366Y-2160898D01*
X2841065Y-2159970D01*
X2841065Y-2159970D01*
X2841065Y-2159970D01*
X2835305Y-2148666D01*
X2835305Y-2148665D01*
X2835304Y-2148665D01*
X2826335Y-2139695D01*
X2826334Y-2139695D01*
X2826334Y-2139695D01*
X2818286Y-2135594D01*
X2815030Y-2133935D01*
X2805652Y-2132450D01*
X2759348Y-2132450D01*
X2751252Y-2133732D01*
X2749970Y-2133935D01*
X2738666Y-2139695D01*
X2738666Y-2139695D01*
X2738665Y-2139695D01*
X2729695Y-2148665D01*
X2729695Y-2148666D01*
X2729695Y-2148666D01*
X2728250Y-2151503D01*
X2723935Y-2159970D01*
X2722450Y-2169348D01*
X2677550Y-2169348D01*
X2676065Y-2159970D01*
X2670305Y-2148666D01*
X2670305Y-2148665D01*
X2670305Y-2148665D01*
X2661335Y-2139695D01*
X2661334Y-2139695D01*
X2661334Y-2139695D01*
X2653286Y-2135594D01*
X2650030Y-2133935D01*
X2640652Y-2132450D01*
X2594348Y-2132450D01*
X2586252Y-2133732D01*
X2584970Y-2133935D01*
X2577239Y-2137875D01*
X2570372Y-2139164D01*
X2563898Y-2136536D01*
X2562841Y-2135594D01*
X2509941Y-2082694D01*
X2506593Y-2076562D01*
X2507091Y-2069593D01*
X2511278Y-2063999D01*
X2517825Y-2061558D01*
X2518524Y-2061527D01*
X2546842Y-2061106D01*
X2553574Y-2062974D01*
X2558228Y-2068186D01*
X2558819Y-2069672D01*
X2558935Y-2070030D01*
X2558935Y-2070030D01*
X2558935Y-2070030D01*
X2564695Y-2081334D01*
X2564695Y-2081334D01*
X2564695Y-2081335D01*
X2573665Y-2090304D01*
X2573665Y-2090305D01*
X2573666Y-2090305D01*
X2584969Y-2096064D01*
X2584970Y-2096065D01*
X2594348Y-2097550D01*
X2594348Y-2097550D01*
X2640652Y-2097550D01*
X2650030Y-2096065D01*
X2661334Y-2090305D01*
X2670305Y-2081334D01*
X2676065Y-2070030D01*
X2676065Y-2070030D01*
X2676065Y-2070030D01*
X2677217Y-2062752D01*
X2677550Y-2060652D01*
X2677550Y-1999348D01*
X2677550Y-1999347D01*
X2722450Y-1999347D01*
X2722450Y-2060652D01*
X2722980Y-2063999D01*
X2723935Y-2070030D01*
X2729695Y-2081334D01*
X2729695Y-2081334D01*
X2729695Y-2081335D01*
X2738665Y-2090304D01*
X2738665Y-2090305D01*
X2738666Y-2090305D01*
X2749969Y-2096064D01*
X2749970Y-2096065D01*
X2759348Y-2097550D01*
X2759348Y-2097550D01*
X2805652Y-2097550D01*
X2815030Y-2096065D01*
X2826334Y-2090305D01*
X2835305Y-2081334D01*
X2841065Y-2070030D01*
X2841065Y-2070030D01*
X2841065Y-2070030D01*
X2841366Y-2069102D01*
X2841617Y-2069184D01*
X2843982Y-2064196D01*
X2849913Y-2060503D01*
X2853236Y-2060050D01*
X2897061Y-2060050D01*
X2903765Y-2062018D01*
X2905829Y-2063682D01*
X2905949Y-2063801D01*
X2905949Y-2063801D01*
X2916198Y-2074051D01*
X2916199Y-2074051D01*
X2916199Y-2074051D01*
X2928751Y-2081298D01*
X2928751Y-2081298D01*
X2928751Y-2081298D01*
X2942752Y-2085050D01*
X2942753Y-2085050D01*
X2957247Y-2085050D01*
X2957247Y-2085050D01*
X2971248Y-2081298D01*
X2983801Y-2074051D01*
X2994051Y-2063801D01*
X2994656Y-2062752D01*
X3144950Y-2062752D01*
X3144950Y-2077247D01*
X3148449Y-2090305D01*
X3148702Y-2091249D01*
X3155949Y-2103801D01*
X3155949Y-2103801D01*
X3155949Y-2103802D01*
X3166198Y-2114051D01*
X3166199Y-2114051D01*
X3166199Y-2114051D01*
X3178751Y-2121298D01*
X3178751Y-2121298D01*
X3178751Y-2121298D01*
X3192752Y-2125050D01*
X3192753Y-2125050D01*
X3207247Y-2125050D01*
X3207247Y-2125050D01*
X3221248Y-2121298D01*
X3233801Y-2114051D01*
X3244051Y-2103802D01*
X3251298Y-2091248D01*
X3255050Y-2077247D01*
X3255050Y-2062752D01*
X3251298Y-2048751D01*
X3244656Y-2037247D01*
X3244051Y-2036199D01*
X3244051Y-2036198D01*
X3233802Y-2025949D01*
X3233801Y-2025949D01*
X3221249Y-2018702D01*
X3221249Y-2018702D01*
X3220101Y-2018394D01*
X3207247Y-2014950D01*
X3192752Y-2014950D01*
X3179899Y-2018394D01*
X3178751Y-2018702D01*
X3166199Y-2025949D01*
X3166198Y-2025949D01*
X3155949Y-2036198D01*
X3155949Y-2036199D01*
X3148702Y-2048751D01*
X3148702Y-2048751D01*
X3144950Y-2062752D01*
X2994656Y-2062752D01*
X3001298Y-2051248D01*
X3005050Y-2037247D01*
X3005050Y-2022752D01*
X3001298Y-2008751D01*
X3000694Y-2007704D01*
X2994051Y-1996199D01*
X2994051Y-1996198D01*
X2983802Y-1985949D01*
X2983801Y-1985949D01*
X2971249Y-1978702D01*
X2971249Y-1978702D01*
X2970101Y-1978394D01*
X2957247Y-1974950D01*
X2942752Y-1974950D01*
X2929899Y-1978394D01*
X2928751Y-1978702D01*
X2916199Y-1985949D01*
X2916198Y-1985949D01*
X2905829Y-1996318D01*
X2899697Y-1999667D01*
X2897061Y-1999950D01*
X2853236Y-1999950D01*
X2846532Y-1997981D01*
X2841957Y-1992701D01*
X2841409Y-1990884D01*
X2841366Y-1990898D01*
X2841065Y-1989970D01*
X2841065Y-1989970D01*
X2841065Y-1989970D01*
X2835305Y-1978666D01*
X2835305Y-1978665D01*
X2835304Y-1978665D01*
X2826335Y-1969695D01*
X2826334Y-1969695D01*
X2826334Y-1969695D01*
X2818652Y-1965780D01*
X2815030Y-1963935D01*
X2805652Y-1962450D01*
X2759348Y-1962450D01*
X2751252Y-1963732D01*
X2749970Y-1963935D01*
X2738666Y-1969695D01*
X2738666Y-1969695D01*
X2738665Y-1969695D01*
X2729695Y-1978665D01*
X2729695Y-1978666D01*
X2729695Y-1978666D01*
X2729016Y-1979998D01*
X2723935Y-1989970D01*
X2722450Y-1999347D01*
X2677550Y-1999347D01*
X2676065Y-1989970D01*
X2670305Y-1978666D01*
X2670305Y-1978665D01*
X2670305Y-1978665D01*
X2661335Y-1969695D01*
X2661334Y-1969695D01*
X2661334Y-1969695D01*
X2653652Y-1965780D01*
X2650030Y-1963935D01*
X2640652Y-1962450D01*
X2594348Y-1962450D01*
X2586252Y-1963732D01*
X2584970Y-1963935D01*
X2573666Y-1969695D01*
X2573666Y-1969695D01*
X2573665Y-1969695D01*
X2564695Y-1978665D01*
X2564695Y-1978666D01*
X2564695Y-1978666D01*
X2564016Y-1979998D01*
X2558935Y-1989970D01*
X2558845Y-1990541D01*
X2555852Y-1996855D01*
X2549920Y-2000548D01*
X2546782Y-2001000D01*
X2499867Y-2001699D01*
X2499682Y-2001700D01*
X2498983Y-2001700D01*
X2492279Y-1999731D01*
X2487704Y-1994451D01*
X2486710Y-1987535D01*
X2489612Y-1981180D01*
X2490215Y-1980532D01*
X2504750Y-1965997D01*
X2553286Y-1917461D01*
X2559418Y-1914113D01*
X2566387Y-1914611D01*
X2570822Y-1917461D01*
X2573665Y-1920304D01*
X2573665Y-1920305D01*
X2573666Y-1920305D01*
X2584242Y-1925694D01*
X2584970Y-1926065D01*
X2594348Y-1927550D01*
X2594348Y-1927550D01*
X2640652Y-1927550D01*
X2650030Y-1926065D01*
X2661334Y-1920305D01*
X2670305Y-1911334D01*
X2676065Y-1900030D01*
X2676065Y-1900030D01*
X2676065Y-1900030D01*
X2677550Y-1890652D01*
X2677550Y-1890652D01*
X2677550Y-1829348D01*
X2677550Y-1829347D01*
X2722450Y-1829347D01*
X2722450Y-1890652D01*
X2722846Y-1893151D01*
X2723935Y-1900030D01*
X2729695Y-1911334D01*
X2729695Y-1911334D01*
X2729695Y-1911335D01*
X2738665Y-1920304D01*
X2738665Y-1920305D01*
X2738666Y-1920305D01*
X2749242Y-1925694D01*
X2749970Y-1926065D01*
X2759348Y-1927550D01*
X2759348Y-1927550D01*
X2805652Y-1927550D01*
X2815030Y-1926065D01*
X2826334Y-1920305D01*
X2835305Y-1911334D01*
X2841065Y-1900030D01*
X2841065Y-1900030D01*
X2841065Y-1900030D01*
X2841366Y-1899102D01*
X2841617Y-1899184D01*
X2843982Y-1894196D01*
X2849913Y-1890503D01*
X2853236Y-1890050D01*
X3303956Y-1890050D01*
X3303956Y-1890050D01*
X3311599Y-1888002D01*
X3318451Y-1884046D01*
X3324046Y-1878451D01*
X3328002Y-1871599D01*
X3330050Y-1863956D01*
X3330050Y-1235220D01*
X3332018Y-1228517D01*
X3337299Y-1223941D01*
X3344215Y-1222947D01*
X3350570Y-1225849D01*
X3353189Y-1229020D01*
X3355949Y-1233801D01*
X3355949Y-1233801D01*
X3355949Y-1233802D01*
X3366198Y-1244051D01*
X3366199Y-1244051D01*
X3366199Y-1244051D01*
X3378751Y-1251298D01*
X3378751Y-1251298D01*
X3378751Y-1251298D01*
X3392752Y-1255050D01*
X3392753Y-1255050D01*
X3407247Y-1255050D01*
X3407247Y-1255050D01*
X3421248Y-1251298D01*
X3433801Y-1244051D01*
X3439170Y-1238682D01*
X3441863Y-1237212D01*
X3444445Y-1235552D01*
X3445065Y-1235463D01*
X3445303Y-1235333D01*
X3447939Y-1235050D01*
X3449525Y-1235050D01*
X3456229Y-1237019D01*
X3460573Y-1241820D01*
X3465034Y-1250575D01*
X3465034Y-1250575D01*
X3465035Y-1250576D01*
X3474424Y-1259965D01*
X3474424Y-1259965D01*
X3474425Y-1259966D01*
X3486258Y-1265995D01*
X3486258Y-1265995D01*
X3486258Y-1265995D01*
X3486258Y-1265995D01*
X3496075Y-1267550D01*
X3496075Y-1267550D01*
X3546425Y-1267550D01*
X3556242Y-1265995D01*
X3556242Y-1265995D01*
X3556242Y-1265995D01*
X3568075Y-1259966D01*
X3577466Y-1250575D01*
X3583495Y-1238742D01*
X3583495Y-1238742D01*
X3583495Y-1238742D01*
X3585050Y-1228925D01*
X3585050Y-1171075D01*
X3583495Y-1161258D01*
X3583495Y-1161258D01*
X3577466Y-1149425D01*
X3577465Y-1149425D01*
X3577465Y-1149424D01*
X3568076Y-1140035D01*
X3568075Y-1140034D01*
X3568075Y-1140034D01*
X3556242Y-1134005D01*
X3556242Y-1134005D01*
X3556242Y-1134005D01*
X3556242Y-1134005D01*
X3546425Y-1132450D01*
X3546425Y-1132450D01*
X3496075Y-1132450D01*
X3496075Y-1132450D01*
X3486258Y-1134005D01*
X3478369Y-1138024D01*
X3474425Y-1140034D01*
X3474425Y-1140034D01*
X3474424Y-1140035D01*
X3465035Y-1149424D01*
X3465034Y-1149425D01*
X3465034Y-1149425D01*
X3460573Y-1158180D01*
X3459529Y-1159286D01*
X3458896Y-1160670D01*
X3457178Y-1161774D01*
X3455776Y-1163259D01*
X3454208Y-1163683D01*
X3453019Y-1164448D01*
X3449525Y-1164950D01*
X3447939Y-1164950D01*
X3441235Y-1162982D01*
X3439170Y-1161318D01*
X3433802Y-1155949D01*
X3433801Y-1155949D01*
X3421249Y-1148702D01*
X3421249Y-1148702D01*
X3420101Y-1148394D01*
X3407247Y-1144950D01*
X3392752Y-1144950D01*
X3379899Y-1148394D01*
X3378751Y-1148702D01*
X3366199Y-1155949D01*
X3366198Y-1155949D01*
X3355949Y-1166198D01*
X3355949Y-1166199D01*
X3353189Y-1170980D01*
X3348132Y-1175801D01*
X3341271Y-1177123D01*
X3334785Y-1174527D01*
X3330732Y-1168835D01*
X3330050Y-1164780D01*
X3330050Y-942450D01*
X3332018Y-935746D01*
X3337299Y-931171D01*
X3342450Y-930050D01*
X4357550Y-930050D01*
X4364254Y-932018D01*
X4368829Y-937299D01*
X4369950Y-942450D01*
X4369950Y-1323044D01*
X4369950Y-1330956D01*
X4371315Y-1336051D01*
X4371998Y-1338599D01*
X4371998Y-1338600D01*
X4375954Y-1345450D01*
X4375954Y-1345451D01*
X4375954Y-1345451D01*
X4381549Y-1351046D01*
X4381549Y-1351046D01*
X4381550Y-1351046D01*
X4388011Y-1354777D01*
X4388401Y-1355002D01*
X4396044Y-1357050D01*
X4662696Y-1357050D01*
X4669400Y-1359019D01*
X4673006Y-1362561D01*
X4680146Y-1373247D01*
X4680147Y-1373248D01*
X4688631Y-1381732D01*
X4691979Y-1387864D01*
X4691481Y-1394833D01*
X4688631Y-1399268D01*
X4680147Y-1407752D01*
X4680147Y-1407752D01*
X4672207Y-1419634D01*
X4672207Y-1419635D01*
X4666738Y-1432838D01*
X4666738Y-1432838D01*
X4663950Y-1446854D01*
X4663950Y-1446854D01*
X4663950Y-1461145D01*
X4663950Y-1461146D01*
X4663950Y-1461146D01*
X4666738Y-1475161D01*
X4666738Y-1475162D01*
X4672207Y-1488365D01*
X4672207Y-1488366D01*
X4680147Y-1500248D01*
X4680147Y-1500248D01*
X4690252Y-1510353D01*
X4690252Y-1510353D01*
X4702134Y-1518292D01*
X4702135Y-1518293D01*
X4702135Y-1518293D01*
X4715338Y-1523762D01*
X4715338Y-1523762D01*
X4715339Y-1523762D01*
X4729354Y-1526550D01*
X4729355Y-1526550D01*
X4743646Y-1526550D01*
X4753075Y-1524674D01*
X4757662Y-1523762D01*
X4770865Y-1518293D01*
X4782748Y-1510353D01*
X4785455Y-1507646D01*
X4791232Y-1501869D01*
X4797364Y-1498521D01*
X4804333Y-1499019D01*
X4808768Y-1501869D01*
X4817252Y-1510353D01*
X4817252Y-1510353D01*
X4829134Y-1518292D01*
X4829135Y-1518293D01*
X4829135Y-1518293D01*
X4842338Y-1523762D01*
X4842338Y-1523762D01*
X4842339Y-1523762D01*
X4856354Y-1526550D01*
X4856355Y-1526550D01*
X4870646Y-1526550D01*
X4880075Y-1524674D01*
X4884662Y-1523762D01*
X4897865Y-1518293D01*
X4909748Y-1510353D01*
X4919853Y-1500248D01*
X4927793Y-1488365D01*
X4933262Y-1475162D01*
X4936050Y-1461145D01*
X4936050Y-1446854D01*
X4936050Y-1446854D01*
X4933262Y-1432838D01*
X4933262Y-1432838D01*
X4933262Y-1432838D01*
X4927793Y-1419635D01*
X4927793Y-1419635D01*
X4927793Y-1419634D01*
X4919853Y-1407752D01*
X4919853Y-1407752D01*
X4911369Y-1399268D01*
X4908021Y-1393136D01*
X4908519Y-1386167D01*
X4911369Y-1381732D01*
X4919853Y-1373248D01*
X4919853Y-1373248D01*
X4927793Y-1361365D01*
X4933262Y-1348162D01*
X4934174Y-1343575D01*
X4936050Y-1334146D01*
X4936050Y-1319854D01*
X4933262Y-1305839D01*
X4933262Y-1305838D01*
X4933262Y-1305838D01*
X4927793Y-1292635D01*
X4927793Y-1292635D01*
X4927793Y-1292634D01*
X4919853Y-1280752D01*
X4919853Y-1280752D01*
X4911369Y-1272268D01*
X4908021Y-1266136D01*
X4908519Y-1259167D01*
X4911369Y-1254732D01*
X4919853Y-1246248D01*
X4919853Y-1246248D01*
X4927793Y-1234365D01*
X4933262Y-1221162D01*
X4936050Y-1207146D01*
X4936050Y-1192855D01*
X4936050Y-1192854D01*
X4933262Y-1178839D01*
X4933262Y-1178838D01*
X4933262Y-1178838D01*
X4927793Y-1165635D01*
X4927793Y-1165635D01*
X4927793Y-1165634D01*
X4919853Y-1153752D01*
X4919853Y-1153752D01*
X4911369Y-1145268D01*
X4908021Y-1139136D01*
X4908519Y-1132167D01*
X4911369Y-1127732D01*
X4919853Y-1119248D01*
X4919853Y-1119248D01*
X4927793Y-1107365D01*
X4933262Y-1094162D01*
X4936050Y-1080146D01*
X4936050Y-1065855D01*
X4936050Y-1065854D01*
X4933262Y-1051839D01*
X4933262Y-1051838D01*
X4933262Y-1051838D01*
X4927793Y-1038635D01*
X4927793Y-1038635D01*
X4927793Y-1038634D01*
X4919853Y-1026752D01*
X4919853Y-1026752D01*
X4911369Y-1018268D01*
X4908021Y-1012136D01*
X4908519Y-1005167D01*
X4911369Y-1000732D01*
X4919853Y-992248D01*
X4919853Y-992248D01*
X4927793Y-980365D01*
X4933262Y-967162D01*
X4936050Y-953145D01*
X4936050Y-938854D01*
X4936050Y-938854D01*
X4933262Y-924838D01*
X4933262Y-924838D01*
X4933262Y-924838D01*
X4927793Y-911635D01*
X4927793Y-911635D01*
X4927793Y-911634D01*
X4919853Y-899752D01*
X4919853Y-899752D01*
X4909748Y-889647D01*
X4909748Y-889647D01*
X4897866Y-881707D01*
X4897865Y-881707D01*
X4884662Y-876238D01*
X4884661Y-876238D01*
X4870646Y-873450D01*
X4870646Y-873450D01*
X4856355Y-873450D01*
X4856354Y-873450D01*
X4842339Y-876238D01*
X4842338Y-876238D01*
X4829135Y-881707D01*
X4829134Y-881708D01*
X4822921Y-885859D01*
X4816254Y-887946D01*
X4809516Y-886098D01*
X4805722Y-882437D01*
X4803455Y-879045D01*
X4796823Y-874613D01*
X4796823Y-874613D01*
X4790975Y-873450D01*
X4790975Y-873450D01*
X4682025Y-873450D01*
X4682025Y-873450D01*
X4676177Y-874613D01*
X4676177Y-874613D01*
X4669545Y-879045D01*
X4665113Y-885677D01*
X4665113Y-885677D01*
X4663950Y-891525D01*
X4663950Y-1000475D01*
X4665113Y-1006323D01*
X4665113Y-1006323D01*
X4669545Y-1012955D01*
X4672937Y-1015222D01*
X4677418Y-1020583D01*
X4678289Y-1027516D01*
X4676359Y-1032421D01*
X4672208Y-1038634D01*
X4672207Y-1038635D01*
X4666738Y-1051838D01*
X4666738Y-1051839D01*
X4663950Y-1065854D01*
X4663950Y-1065855D01*
X4663950Y-1080146D01*
X4663950Y-1080146D01*
X4663950Y-1080146D01*
X4666738Y-1094161D01*
X4666738Y-1094162D01*
X4672207Y-1107365D01*
X4672207Y-1107366D01*
X4680147Y-1119248D01*
X4680147Y-1119248D01*
X4688631Y-1127732D01*
X4691979Y-1133864D01*
X4691481Y-1140833D01*
X4688631Y-1145268D01*
X4680147Y-1153752D01*
X4680147Y-1153752D01*
X4672207Y-1165634D01*
X4672207Y-1165635D01*
X4666738Y-1178838D01*
X4666738Y-1178839D01*
X4663950Y-1192854D01*
X4663950Y-1192855D01*
X4663950Y-1207146D01*
X4663950Y-1207146D01*
X4663950Y-1207146D01*
X4666738Y-1221161D01*
X4666738Y-1221162D01*
X4672207Y-1234365D01*
X4672207Y-1234366D01*
X4680147Y-1246248D01*
X4680147Y-1246248D01*
X4688631Y-1254732D01*
X4691979Y-1260864D01*
X4691481Y-1267833D01*
X4688631Y-1272268D01*
X4680147Y-1280752D01*
X4680146Y-1280753D01*
X4673006Y-1291439D01*
X4667645Y-1295920D01*
X4662696Y-1296950D01*
X4442450Y-1296950D01*
X4435746Y-1294982D01*
X4431171Y-1289701D01*
X4430050Y-1284550D01*
X4430050Y-896044D01*
X4428839Y-891525D01*
X4428002Y-888401D01*
X4426534Y-885859D01*
X4424046Y-881549D01*
X4424046Y-881549D01*
X4418451Y-875954D01*
X4418450Y-875953D01*
X4411600Y-871998D01*
X4411599Y-871998D01*
X4409051Y-871315D01*
X4403956Y-869950D01*
X3303956Y-869950D01*
X3296044Y-869950D01*
X3292222Y-870974D01*
X3288401Y-871998D01*
X3288400Y-871998D01*
X3281549Y-875953D01*
X3281549Y-875954D01*
X3275954Y-881549D01*
X3275953Y-881549D01*
X3271998Y-888400D01*
X3271998Y-888401D01*
X3269950Y-896044D01*
X3269950Y-1817550D01*
X3267981Y-1824254D01*
X3262701Y-1828829D01*
X3257550Y-1829950D01*
X2853236Y-1829950D01*
X2846532Y-1827981D01*
X2841957Y-1822701D01*
X2841409Y-1820884D01*
X2841366Y-1820898D01*
X2841065Y-1819970D01*
X2841065Y-1819970D01*
X2841065Y-1819970D01*
X2835305Y-1808666D01*
X2835305Y-1808665D01*
X2835304Y-1808665D01*
X2826335Y-1799695D01*
X2826334Y-1799695D01*
X2826334Y-1799695D01*
X2818652Y-1795780D01*
X2815030Y-1793935D01*
X2805652Y-1792450D01*
X2759348Y-1792450D01*
X2751252Y-1793732D01*
X2749970Y-1793935D01*
X2738666Y-1799695D01*
X2738666Y-1799695D01*
X2738665Y-1799695D01*
X2729695Y-1808665D01*
X2729695Y-1808666D01*
X2729695Y-1808666D01*
X2728286Y-1811432D01*
X2723935Y-1819970D01*
X2722450Y-1829347D01*
X2677550Y-1829347D01*
X2676065Y-1819970D01*
X2670305Y-1808666D01*
X2670305Y-1808665D01*
X2670305Y-1808665D01*
X2661335Y-1799695D01*
X2661334Y-1799695D01*
X2661334Y-1799695D01*
X2653652Y-1795780D01*
X2650030Y-1793935D01*
X2640652Y-1792450D01*
X2594348Y-1792450D01*
X2586252Y-1793732D01*
X2584970Y-1793935D01*
X2573666Y-1799695D01*
X2573666Y-1799695D01*
X2573665Y-1799695D01*
X2564695Y-1808665D01*
X2564695Y-1808666D01*
X2564695Y-1808666D01*
X2560634Y-1816637D01*
X2558935Y-1819970D01*
X2557994Y-1825915D01*
X2557903Y-1826106D01*
X2557924Y-1826316D01*
X2556413Y-1829250D01*
X2555001Y-1832229D01*
X2554791Y-1832399D01*
X2554725Y-1832528D01*
X2551952Y-1834711D01*
X2551803Y-1834797D01*
X2551798Y-1834800D01*
X2551204Y-1835143D01*
X2549799Y-1835954D01*
X2549799Y-1835954D01*
X2451185Y-1934568D01*
X2448492Y-1936038D01*
X2445910Y-1937698D01*
X2445290Y-1937787D01*
X2445053Y-1937917D01*
X2442417Y-1938200D01*
X2438983Y-1938200D01*
X2432279Y-1936231D01*
X2427704Y-1930951D01*
X2426710Y-1924035D01*
X2429612Y-1917680D01*
X2430215Y-1917032D01*
X2476976Y-1870271D01*
X2524046Y-1823201D01*
X2528002Y-1816349D01*
X2530050Y-1808706D01*
X2530050Y-1800794D01*
X2530050Y-1732450D01*
X2530305Y-1731581D01*
X2530176Y-1730685D01*
X2531274Y-1728281D01*
X2532019Y-1725746D01*
X2532703Y-1725153D01*
X2533079Y-1724330D01*
X2535302Y-1722901D01*
X2537299Y-1721171D01*
X2538350Y-1720942D01*
X2538957Y-1720552D01*
X2542450Y-1720050D01*
X2546764Y-1720050D01*
X2553468Y-1722018D01*
X2558043Y-1727299D01*
X2558591Y-1729116D01*
X2558634Y-1729102D01*
X2558935Y-1730030D01*
X2558935Y-1730030D01*
X2558935Y-1730030D01*
X2564695Y-1741334D01*
X2564695Y-1741334D01*
X2564695Y-1741335D01*
X2573665Y-1750304D01*
X2573665Y-1750305D01*
X2573666Y-1750305D01*
X2584402Y-1755775D01*
X2584970Y-1756065D01*
X2594348Y-1757550D01*
X2594348Y-1757550D01*
X2640652Y-1757550D01*
X2650030Y-1756065D01*
X2661334Y-1750305D01*
X2670305Y-1741334D01*
X2676065Y-1730030D01*
X2676065Y-1730030D01*
X2676065Y-1730030D01*
X2677226Y-1722700D01*
X2677550Y-1720652D01*
X2677550Y-1659348D01*
X2677550Y-1659347D01*
X2722450Y-1659347D01*
X2722450Y-1720652D01*
X2723163Y-1725153D01*
X2723935Y-1730030D01*
X2729695Y-1741334D01*
X2729695Y-1741334D01*
X2729695Y-1741335D01*
X2738665Y-1750304D01*
X2738665Y-1750305D01*
X2738666Y-1750305D01*
X2749402Y-1755775D01*
X2749970Y-1756065D01*
X2759348Y-1757550D01*
X2759348Y-1757550D01*
X2805652Y-1757550D01*
X2815030Y-1756065D01*
X2826334Y-1750305D01*
X2835305Y-1741334D01*
X2840443Y-1731250D01*
X2845240Y-1726171D01*
X2852022Y-1724491D01*
X2858636Y-1726745D01*
X2860259Y-1728112D01*
X2866198Y-1734051D01*
X2866199Y-1734051D01*
X2866199Y-1734051D01*
X2878751Y-1741298D01*
X2878751Y-1741298D01*
X2878751Y-1741298D01*
X2892752Y-1745050D01*
X2892753Y-1745050D01*
X2907247Y-1745050D01*
X2907247Y-1745050D01*
X2921248Y-1741298D01*
X2933801Y-1734051D01*
X2944051Y-1723801D01*
X2951298Y-1711248D01*
X2955050Y-1697247D01*
X2955050Y-1682752D01*
X2951298Y-1668751D01*
X2950259Y-1666951D01*
X2944051Y-1656199D01*
X2944051Y-1656198D01*
X2933802Y-1645949D01*
X2933801Y-1645949D01*
X2921249Y-1638702D01*
X2921249Y-1638702D01*
X2920101Y-1638394D01*
X2907247Y-1634950D01*
X2892752Y-1634950D01*
X2879899Y-1638394D01*
X2878751Y-1638702D01*
X2866199Y-1645949D01*
X2860259Y-1651888D01*
X2854127Y-1655237D01*
X2847158Y-1654738D01*
X2841564Y-1650551D01*
X2840443Y-1648751D01*
X2835305Y-1638666D01*
X2835305Y-1638666D01*
X2835304Y-1638665D01*
X2826335Y-1629695D01*
X2826334Y-1629695D01*
X2826334Y-1629695D01*
X2816229Y-1624546D01*
X2811150Y-1619749D01*
X2809470Y-1612967D01*
X2811724Y-1606353D01*
X2813307Y-1604706D01*
X2813227Y-1604626D01*
X2817547Y-1600305D01*
X2824051Y-1593801D01*
X2831298Y-1581248D01*
X2835050Y-1567247D01*
X2835050Y-1552752D01*
X2831298Y-1538751D01*
X2831169Y-1538528D01*
X2824051Y-1526199D01*
X2824051Y-1526198D01*
X2813802Y-1515949D01*
X2813801Y-1515949D01*
X2801249Y-1508702D01*
X2801249Y-1508702D01*
X2800101Y-1508394D01*
X2787248Y-1504950D01*
X2772753Y-1504950D01*
X2759899Y-1508394D01*
X2758751Y-1508702D01*
X2746199Y-1515949D01*
X2746198Y-1515949D01*
X2735949Y-1526198D01*
X2735949Y-1526199D01*
X2728702Y-1538751D01*
X2728702Y-1538751D01*
X2724950Y-1552752D01*
X2724950Y-1567247D01*
X2728702Y-1581248D01*
X2728702Y-1581249D01*
X2735949Y-1593801D01*
X2735949Y-1593801D01*
X2735949Y-1593801D01*
X2746199Y-1604051D01*
X2746484Y-1604215D01*
X2746676Y-1604417D01*
X2746843Y-1604546D01*
X2746823Y-1604572D01*
X2751305Y-1609272D01*
X2752627Y-1616133D01*
X2750030Y-1622619D01*
X2745913Y-1626002D01*
X2738666Y-1629695D01*
X2738665Y-1629695D01*
X2729695Y-1638665D01*
X2729695Y-1638666D01*
X2729695Y-1638666D01*
X2729090Y-1639853D01*
X2723935Y-1649970D01*
X2722450Y-1659347D01*
X2677550Y-1659347D01*
X2676065Y-1649970D01*
X2670305Y-1638666D01*
X2670305Y-1638665D01*
X2670305Y-1638665D01*
X2661335Y-1629695D01*
X2661334Y-1629695D01*
X2661334Y-1629695D01*
X2653652Y-1625780D01*
X2650030Y-1623935D01*
X2640652Y-1622450D01*
X2594348Y-1622450D01*
X2586252Y-1623732D01*
X2584970Y-1623935D01*
X2573666Y-1629695D01*
X2573666Y-1629695D01*
X2573665Y-1629695D01*
X2564695Y-1638665D01*
X2564695Y-1638666D01*
X2564695Y-1638666D01*
X2564090Y-1639853D01*
X2558935Y-1649970D01*
X2558634Y-1650898D01*
X2558383Y-1650816D01*
X2556018Y-1655804D01*
X2550087Y-1659497D01*
X2546764Y-1659950D01*
X2503956Y-1659950D01*
X2496044Y-1659950D01*
X2492222Y-1660974D01*
X2488401Y-1661998D01*
X2488400Y-1661998D01*
X2481550Y-1665953D01*
X2481549Y-1665954D01*
X2475954Y-1671549D01*
X2475954Y-1671549D01*
X2471998Y-1678400D01*
X2471998Y-1678401D01*
X2469950Y-1686044D01*
X2469950Y-1742529D01*
X2467982Y-1749233D01*
X2462701Y-1753809D01*
X2455785Y-1754803D01*
X2449430Y-1751901D01*
X2446811Y-1748730D01*
X2444051Y-1743949D01*
X2444051Y-1743949D01*
X2444051Y-1743948D01*
X2433802Y-1733699D01*
X2433801Y-1733699D01*
X2433801Y-1733699D01*
X2421249Y-1726452D01*
X2421249Y-1726452D01*
X2420101Y-1726144D01*
X2407248Y-1722700D01*
X2392753Y-1722700D01*
X2379899Y-1726144D01*
X2378751Y-1726452D01*
X2366199Y-1733699D01*
X2366198Y-1733699D01*
X2361218Y-1738679D01*
X2355086Y-1742028D01*
X2348117Y-1741530D01*
X2342523Y-1737342D01*
X2340082Y-1730796D01*
X2340050Y-1729911D01*
X2340050Y-1692275D01*
X2340050Y-1692275D01*
X2338887Y-1686427D01*
X2338887Y-1686427D01*
X2334455Y-1679795D01*
X2327823Y-1675363D01*
X2327823Y-1675363D01*
X2321975Y-1674200D01*
X2321975Y-1674200D01*
X2198025Y-1674200D01*
X2198025Y-1674200D01*
X2192177Y-1675363D01*
X2192177Y-1675363D01*
X2185545Y-1679795D01*
X2181113Y-1686427D01*
X2181113Y-1686427D01*
X2179950Y-1692275D01*
X2179950Y-1736225D01*
X2181352Y-1743271D01*
X2180999Y-1743341D01*
X2181521Y-1748204D01*
X2181320Y-1748887D01*
X2179950Y-1755775D01*
X2179950Y-1799725D01*
X2181352Y-1806771D01*
X2180999Y-1806841D01*
X2181521Y-1811704D01*
X2181320Y-1812387D01*
X2179950Y-1819275D01*
X2179950Y-1863225D01*
X2181352Y-1870271D01*
X2180999Y-1870341D01*
X2181521Y-1875204D01*
X2181320Y-1875887D01*
X2179950Y-1882775D01*
X2179950Y-1926725D01*
X2181352Y-1933771D01*
X2180999Y-1933841D01*
X2181521Y-1938704D01*
X2181320Y-1939387D01*
X2179950Y-1946275D01*
X2179950Y-1990225D01*
X2181352Y-1997271D01*
X2180999Y-1997341D01*
X2181521Y-2002204D01*
X2181320Y-2002887D01*
X2179950Y-2009775D01*
X2179950Y-2053725D01*
X2181352Y-2060771D01*
X2180999Y-2060841D01*
X2181521Y-2065704D01*
X2181320Y-2066387D01*
X2179950Y-2073275D01*
X2179950Y-2111300D01*
X2179695Y-2112169D01*
X2179824Y-2113065D01*
X2178726Y-2115469D01*
X2177982Y-2118004D01*
X2177297Y-2118597D01*
X2176921Y-2119420D01*
X2174698Y-2120849D01*
X2172701Y-2122579D01*
X2171650Y-2122808D01*
X2171044Y-2123198D01*
X2167550Y-2123700D01*
X2147939Y-2123700D01*
X2141235Y-2121732D01*
X2139171Y-2120068D01*
X2133802Y-2114699D01*
X2133801Y-2114699D01*
X2121249Y-2107452D01*
X2121249Y-2107452D01*
X2120101Y-2107144D01*
X2107248Y-2103700D01*
X2092752Y-2103700D01*
X2079899Y-2107144D01*
X2078751Y-2107452D01*
X2066199Y-2114699D01*
X2066198Y-2114699D01*
X2055949Y-2124948D01*
X2055949Y-2124949D01*
X2048702Y-2137501D01*
X2048258Y-2139156D01*
X2044950Y-2151503D01*
X2044950Y-2165998D01*
X2048219Y-2178199D01*
X2048702Y-2179999D01*
X2055949Y-2192551D01*
X2055949Y-2192551D01*
X2055949Y-2192552D01*
X2066198Y-2202801D01*
X2066199Y-2202801D01*
X2066199Y-2202801D01*
X2078751Y-2210048D01*
X2078751Y-2210048D01*
X2078751Y-2210048D01*
X2092752Y-2213800D01*
X2092753Y-2213800D01*
X2107247Y-2213800D01*
X2107248Y-2213800D01*
X2121249Y-2210048D01*
X2133802Y-2202801D01*
X2139171Y-2197432D01*
X2141863Y-2195962D01*
X2144445Y-2194302D01*
X2145065Y-2194213D01*
X2145303Y-2194083D01*
X2147939Y-2193800D01*
X2167550Y-2193800D01*
X2174254Y-2195769D01*
X2178829Y-2201049D01*
X2179950Y-2206200D01*
X2179950Y-2244225D01*
X2181352Y-2251271D01*
X2180999Y-2251341D01*
X2181521Y-2256204D01*
X2181320Y-2256887D01*
X2179950Y-2263775D01*
X2179950Y-2307725D01*
X2181113Y-2313573D01*
X2181113Y-2313573D01*
X2185545Y-2320205D01*
X2192177Y-2324637D01*
X2192177Y-2324637D01*
X2198025Y-2325800D01*
X2198025Y-2325800D01*
X2198025Y-2325800D01*
X2217550Y-2325800D01*
X2224254Y-2327769D01*
X2228829Y-2333049D01*
X2229950Y-2338200D01*
X2229950Y-2389063D01*
X2227982Y-2395766D01*
X2225097Y-2398901D01*
X2118215Y-2480893D01*
X2111698Y-2483412D01*
X2108728Y-2483302D01*
X2103350Y-2482450D01*
X2103349Y-2482450D01*
X2051651Y-2482450D01*
X2051651Y-2482450D01*
X2041688Y-2484028D01*
X2029678Y-2490147D01*
X2029677Y-2490148D01*
X2020148Y-2499677D01*
X2020147Y-2499678D01*
X2014028Y-2511688D01*
X2012450Y-2521651D01*
X2012450Y-2578349D01*
X2014028Y-2588312D01*
X2014028Y-2588312D01*
X2014028Y-2588313D01*
X2019168Y-2598401D01*
X2020147Y-2600322D01*
X2020148Y-2600323D01*
X2029677Y-2609852D01*
X2029678Y-2609853D01*
X2029678Y-2609853D01*
X2041687Y-2615972D01*
X2046062Y-2616665D01*
X2052376Y-2619658D01*
X2056069Y-2625589D01*
X2056436Y-2627450D01*
X2078012Y-2809147D01*
X2092073Y-2927550D01*
X2094863Y-2951049D01*
X2094950Y-2952511D01*
X2094950Y-3177956D01*
X2092981Y-3184660D01*
X2087701Y-3189236D01*
X2087295Y-3189412D01*
X2075240Y-3194406D01*
X2058034Y-3205902D01*
X2043402Y-3220534D01*
X2031906Y-3237740D01*
X2023987Y-3256858D01*
X2023987Y-3256859D01*
X2019950Y-3277153D01*
X2019950Y-3322847D01*
X2023987Y-3343141D01*
X2023987Y-3343142D01*
X2031906Y-3362260D01*
X2043402Y-3379466D01*
X2058034Y-3394097D01*
X2058034Y-3394098D01*
X2075240Y-3405594D01*
X2087295Y-3410587D01*
X2092736Y-3414971D01*
X2094672Y-3419433D01*
X2094950Y-3420723D01*
X2094950Y-3428956D01*
X2096998Y-3436599D01*
X2098212Y-3438702D01*
X2099185Y-3440387D01*
X2099185Y-3440387D01*
X2100954Y-3443451D01*
X2306318Y-3648815D01*
X2309667Y-3654947D01*
X2309950Y-3657583D01*
X2309950Y-4147161D01*
X2307982Y-4153865D01*
X2302701Y-4158441D01*
X2295785Y-4159435D01*
X2289430Y-4156533D01*
X2288782Y-4155929D01*
X2283802Y-4150949D01*
X2283801Y-4150949D01*
X2271249Y-4143702D01*
X2271249Y-4143702D01*
X2269065Y-4143117D01*
X2257248Y-4139950D01*
X2242753Y-4139950D01*
X2230935Y-4143117D01*
X2228751Y-4143702D01*
X2216199Y-4150949D01*
X2216198Y-4150949D01*
X2209626Y-4157522D01*
X2208831Y-4157955D01*
X2208289Y-4158680D01*
X2205813Y-4159604D01*
X2203494Y-4160870D01*
X2202591Y-4160805D01*
X2201743Y-4161122D01*
X2199160Y-4160560D01*
X2196525Y-4160372D01*
X2195619Y-4159790D01*
X2194915Y-4159637D01*
X2192090Y-4157522D01*
X2190836Y-4156268D01*
X2187488Y-4150136D01*
X2187986Y-4143167D01*
X2190836Y-4138732D01*
X2193920Y-4135648D01*
X2193920Y-4135648D01*
X2199057Y-4125139D01*
X2200050Y-4118326D01*
X2200050Y-4081674D01*
X2199057Y-4074861D01*
X2193920Y-4064352D01*
X2193920Y-4064351D01*
X2193920Y-4064351D01*
X2190836Y-4061268D01*
X2187488Y-4055136D01*
X2187986Y-4048167D01*
X2190836Y-4043732D01*
X2193920Y-4040648D01*
X2193920Y-4040648D01*
X2199057Y-4030139D01*
X2200050Y-4023326D01*
X2200050Y-3986674D01*
X2199995Y-3986298D01*
X2199057Y-3979861D01*
X2198661Y-3979051D01*
X2193920Y-3969352D01*
X2193920Y-3969351D01*
X2193920Y-3969351D01*
X2185649Y-3961080D01*
X2175139Y-3955943D01*
X2168326Y-3954950D01*
X2168326Y-3954950D01*
X2059174Y-3954950D01*
X2059174Y-3954950D01*
X2052361Y-3955943D01*
X2041852Y-3961080D01*
X2039583Y-3963349D01*
X2036614Y-3966318D01*
X2030482Y-3969667D01*
X2027846Y-3969950D01*
X1972154Y-3969950D01*
X1969786Y-3969254D01*
X1967333Y-3968974D01*
X1966173Y-3968194D01*
X1965450Y-3967981D01*
X1964310Y-3967154D01*
X1963827Y-3966759D01*
X1958148Y-3961080D01*
X1954975Y-3959529D01*
X1953865Y-3958622D01*
X1952668Y-3956874D01*
X1951105Y-3955446D01*
X1950734Y-3954049D01*
X1949918Y-3952857D01*
X1949856Y-3950740D01*
X1949313Y-3948692D01*
X1949740Y-3946736D01*
X1949715Y-3945873D01*
X1950049Y-3945317D01*
X1950303Y-3944154D01*
X1951094Y-3942299D01*
X1953618Y-3936381D01*
X1954285Y-3935046D01*
X1955161Y-3933529D01*
X1955486Y-3932315D01*
X1956057Y-3930661D01*
X1956551Y-3929505D01*
X1956551Y-3929505D01*
X1956797Y-3927770D01*
X1956797Y-3927770D01*
X1956903Y-3927029D01*
X1957550Y-3924614D01*
X1957550Y-3922481D01*
X1957850Y-3920368D01*
X1957640Y-3918629D01*
X1957550Y-3917138D01*
X1957550Y-3908959D01*
X1959518Y-3902255D01*
X1964320Y-3897911D01*
X1970322Y-3894853D01*
X1979853Y-3885322D01*
X1985972Y-3873313D01*
X1985972Y-3873312D01*
X1987550Y-3863349D01*
X1987550Y-3806651D01*
X2012450Y-3806651D01*
X2012450Y-3863349D01*
X2014028Y-3873312D01*
X2014028Y-3873312D01*
X2014028Y-3873313D01*
X2019645Y-3884337D01*
X2020147Y-3885322D01*
X2020148Y-3885322D01*
X2029677Y-3894852D01*
X2029678Y-3894853D01*
X2029678Y-3894853D01*
X2041687Y-3900972D01*
X2041688Y-3900972D01*
X2041688Y-3900972D01*
X2051651Y-3902550D01*
X2051651Y-3902550D01*
X2103349Y-3902550D01*
X2113312Y-3900972D01*
X2113312Y-3900972D01*
X2113313Y-3900972D01*
X2125322Y-3894853D01*
X2127731Y-3892444D01*
X2133863Y-3889095D01*
X2139708Y-3889234D01*
X2142753Y-3890050D01*
X2142753Y-3890050D01*
X2157247Y-3890050D01*
X2157248Y-3890050D01*
X2171249Y-3886298D01*
X2183802Y-3879051D01*
X2194051Y-3868801D01*
X2201298Y-3856248D01*
X2205050Y-3842247D01*
X2205050Y-3827752D01*
X2201298Y-3813751D01*
X2197199Y-3806651D01*
X2194051Y-3801199D01*
X2194051Y-3801198D01*
X2183802Y-3790949D01*
X2183801Y-3790949D01*
X2171249Y-3783702D01*
X2171249Y-3783702D01*
X2168697Y-3783018D01*
X2157248Y-3779950D01*
X2142753Y-3779950D01*
X2142752Y-3779950D01*
X2139708Y-3780766D01*
X2132723Y-3780599D01*
X2127731Y-3777556D01*
X2125323Y-3775148D01*
X2125322Y-3775147D01*
X2125322Y-3775147D01*
X2113313Y-3769028D01*
X2113312Y-3769028D01*
X2113312Y-3769028D01*
X2103349Y-3767450D01*
X2103349Y-3767450D01*
X2051651Y-3767450D01*
X2051651Y-3767450D01*
X2041688Y-3769028D01*
X2029678Y-3775147D01*
X2029677Y-3775148D01*
X2020148Y-3784677D01*
X2020147Y-3784678D01*
X2014028Y-3796688D01*
X2012450Y-3806651D01*
X1987550Y-3806651D01*
X1985972Y-3796688D01*
X1985972Y-3796688D01*
X1985972Y-3796687D01*
X1979853Y-3784678D01*
X1979853Y-3784678D01*
X1979852Y-3784677D01*
X1970322Y-3775148D01*
X1970322Y-3775147D01*
X1970322Y-3775147D01*
X1958313Y-3769028D01*
X1958312Y-3769028D01*
X1958312Y-3769028D01*
X1948349Y-3767450D01*
X1948349Y-3767450D01*
X1896651Y-3767450D01*
X1896651Y-3767450D01*
X1886688Y-3769028D01*
X1874678Y-3775147D01*
X1874677Y-3775148D01*
X1870155Y-3779670D01*
X1864023Y-3783018D01*
X1858178Y-3782879D01*
X1847247Y-3779950D01*
X1832752Y-3779950D01*
X1821303Y-3783018D01*
X1818751Y-3783702D01*
X1806199Y-3790949D01*
X1806198Y-3790949D01*
X1795949Y-3801198D01*
X1795949Y-3801199D01*
X1788702Y-3813751D01*
X1788702Y-3813751D01*
X1784950Y-3827752D01*
X1784950Y-3842247D01*
X1788620Y-3855943D01*
X1788702Y-3856249D01*
X1795949Y-3868801D01*
X1795949Y-3868801D01*
X1795949Y-3868801D01*
X1806198Y-3879051D01*
X1806199Y-3879051D01*
X1806199Y-3879051D01*
X1818751Y-3886298D01*
X1818751Y-3886298D01*
X1818751Y-3886298D01*
X1832752Y-3890050D01*
X1832753Y-3890050D01*
X1847247Y-3890050D01*
X1847247Y-3890050D01*
X1858178Y-3887121D01*
X1865163Y-3887287D01*
X1868644Y-3889044D01*
X1869451Y-3889626D01*
X1874678Y-3894853D01*
X1881532Y-3898345D01*
X1882307Y-3898904D01*
X1883886Y-3900939D01*
X1885759Y-3902708D01*
X1886026Y-3903697D01*
X1886591Y-3904424D01*
X1886771Y-3906450D01*
X1887450Y-3908959D01*
X1887450Y-3910304D01*
X1886456Y-3915168D01*
X1876435Y-3938665D01*
X1872704Y-3947414D01*
X1868264Y-3952809D01*
X1861612Y-3954946D01*
X1861298Y-3954950D01*
X1831674Y-3954950D01*
X1824861Y-3955943D01*
X1814351Y-3961080D01*
X1806080Y-3969351D01*
X1800943Y-3979861D01*
X1799950Y-3986674D01*
X1799950Y-4023326D01*
X1800943Y-4030139D01*
X1806080Y-4040648D01*
X1814351Y-4048920D01*
X1814351Y-4048920D01*
X1814352Y-4048920D01*
X1824861Y-4054057D01*
X1828267Y-4054554D01*
X1831674Y-4055050D01*
X1831674Y-4055050D01*
X1940826Y-4055050D01*
X1943097Y-4054719D01*
X1947639Y-4054057D01*
X1958148Y-4048920D01*
X1963386Y-4043682D01*
X1969518Y-4040333D01*
X1972154Y-4040050D01*
X2027846Y-4040050D01*
X2030795Y-4040916D01*
X2033799Y-4041573D01*
X2034293Y-4041943D01*
X2034550Y-4042018D01*
X2036623Y-4043691D01*
X2036672Y-4043741D01*
X2040015Y-4049876D01*
X2039509Y-4056845D01*
X2036672Y-4061259D01*
X2036623Y-4061309D01*
X2035838Y-4061738D01*
X2035317Y-4062434D01*
X2032980Y-4063303D01*
X2030494Y-4064664D01*
X2028839Y-4064843D01*
X2028768Y-4064869D01*
X2028710Y-4064857D01*
X2027846Y-4064950D01*
X2004614Y-4064950D01*
X1995386Y-4064950D01*
X1986471Y-4067339D01*
X1986471Y-4067339D01*
X1986471Y-4067339D01*
X1986471Y-4067339D01*
X1978479Y-4071953D01*
X1978478Y-4071953D01*
X1971953Y-4078478D01*
X1971953Y-4078479D01*
X1967339Y-4086471D01*
X1967339Y-4086471D01*
X1967339Y-4086471D01*
X1967339Y-4086471D01*
X1967318Y-4086549D01*
X1964950Y-4095386D01*
X1964950Y-4134541D01*
X1962981Y-4141245D01*
X1957701Y-4145820D01*
X1950785Y-4146815D01*
X1948587Y-4146138D01*
X1948559Y-4146227D01*
X1947639Y-4145943D01*
X1940826Y-4144950D01*
X1940826Y-4144950D01*
X1831674Y-4144950D01*
X1831674Y-4144950D01*
X1824861Y-4145943D01*
X1814351Y-4151080D01*
X1807910Y-4157522D01*
X1801778Y-4160870D01*
X1794809Y-4160372D01*
X1790374Y-4157522D01*
X1783802Y-4150949D01*
X1783801Y-4150949D01*
X1771249Y-4143702D01*
X1771249Y-4143702D01*
X1769065Y-4143117D01*
X1757247Y-4139950D01*
X1742752Y-4139950D01*
X1730935Y-4143117D01*
X1728751Y-4143702D01*
X1716199Y-4150949D01*
X1716198Y-4150949D01*
X1705949Y-4161198D01*
X1705949Y-4161199D01*
X1698702Y-4173751D01*
X1698702Y-4173751D01*
X1694950Y-4187752D01*
X200000Y-4187752D01*
X200000Y-3482752D01*
X1694950Y-3482752D01*
X1694950Y-3497247D01*
X1697041Y-3505050D01*
X1698702Y-3511249D01*
X1705949Y-3523801D01*
X1705949Y-3523801D01*
X1705949Y-3523801D01*
X1716198Y-3534051D01*
X1716199Y-3534051D01*
X1716199Y-3534051D01*
X1728751Y-3541298D01*
X1728751Y-3541298D01*
X1728751Y-3541298D01*
X1742752Y-3545050D01*
X1742753Y-3545050D01*
X1757247Y-3545050D01*
X1757247Y-3545050D01*
X1771248Y-3541298D01*
X1783801Y-3534051D01*
X1794051Y-3523801D01*
X1801298Y-3511248D01*
X1805050Y-3497247D01*
X1805050Y-3482752D01*
X1801298Y-3468751D01*
X1794656Y-3457247D01*
X1794051Y-3456199D01*
X1794051Y-3456198D01*
X1783802Y-3445949D01*
X1783801Y-3445949D01*
X1771249Y-3438702D01*
X1771248Y-3438702D01*
X1757247Y-3434950D01*
X1742752Y-3434950D01*
X1729899Y-3438394D01*
X1728751Y-3438702D01*
X1716199Y-3445949D01*
X1716198Y-3445949D01*
X1705949Y-3456198D01*
X1705949Y-3456199D01*
X1698702Y-3468751D01*
X1698702Y-3468751D01*
X1694950Y-3482752D01*
X200000Y-3482752D01*
X200000Y-2606044D01*
X1219950Y-2606044D01*
X1219950Y-3153956D01*
X1220484Y-3155949D01*
X1221998Y-3161599D01*
X1221998Y-3161599D01*
X1225954Y-3168450D01*
X1225954Y-3168451D01*
X1225954Y-3168451D01*
X1375954Y-3318451D01*
X1381549Y-3324046D01*
X1381549Y-3324046D01*
X1381550Y-3324046D01*
X1387094Y-3327247D01*
X1388401Y-3328002D01*
X1396044Y-3330050D01*
X1507550Y-3330050D01*
X1514254Y-3332018D01*
X1518829Y-3337299D01*
X1519950Y-3342450D01*
X1519950Y-3377927D01*
X1520235Y-3380970D01*
X1520235Y-3380970D01*
X1524721Y-3393788D01*
X1524721Y-3393788D01*
X1532785Y-3404715D01*
X1543712Y-3412779D01*
X1545809Y-3413513D01*
X1556530Y-3417265D01*
X1559573Y-3417550D01*
X1559573Y-3417550D01*
X1690427Y-3417550D01*
X1693470Y-3417265D01*
X1693470Y-3417265D01*
X1700023Y-3414971D01*
X1706288Y-3412779D01*
X1717215Y-3404715D01*
X1725279Y-3393788D01*
X1728043Y-3385891D01*
X1729765Y-3380970D01*
X1729765Y-3380970D01*
X1730050Y-3377927D01*
X1730050Y-3222073D01*
X1729765Y-3219030D01*
X1729765Y-3219030D01*
X1725279Y-3206212D01*
X1725279Y-3206212D01*
X1717215Y-3195285D01*
X1706288Y-3187221D01*
X1706288Y-3187221D01*
X1693470Y-3182735D01*
X1690427Y-3182450D01*
X1690427Y-3182450D01*
X1559573Y-3182450D01*
X1559573Y-3182450D01*
X1556530Y-3182735D01*
X1556530Y-3182735D01*
X1543712Y-3187221D01*
X1543712Y-3187221D01*
X1532785Y-3195285D01*
X1524721Y-3206212D01*
X1524721Y-3206212D01*
X1520235Y-3219030D01*
X1520235Y-3219030D01*
X1519950Y-3222073D01*
X1519950Y-3257550D01*
X1517981Y-3264254D01*
X1512701Y-3268829D01*
X1507550Y-3269950D01*
X1417583Y-3269950D01*
X1410879Y-3267981D01*
X1408815Y-3266318D01*
X1283682Y-3141185D01*
X1280333Y-3135052D01*
X1280050Y-3132417D01*
X1280050Y-2806205D01*
X1282019Y-2799501D01*
X1287299Y-2794926D01*
X1294215Y-2793931D01*
X1298650Y-2795466D01*
X1300898Y-2796764D01*
X1308751Y-2801298D01*
X1308751Y-2801298D01*
X1308751Y-2801298D01*
X1308752Y-2801298D01*
X1322753Y-2805050D01*
X1322753Y-2805050D01*
X1337247Y-2805050D01*
X1337248Y-2805050D01*
X1351249Y-2801298D01*
X1363802Y-2794051D01*
X1374051Y-2783802D01*
X1381298Y-2771249D01*
X1385050Y-2757248D01*
X1385050Y-2742753D01*
X1381298Y-2728752D01*
X1379929Y-2726379D01*
X1374051Y-2716199D01*
X1374051Y-2716198D01*
X1363802Y-2705949D01*
X1363801Y-2705949D01*
X1351249Y-2698702D01*
X1351249Y-2698702D01*
X1350101Y-2698394D01*
X1337248Y-2694950D01*
X1322753Y-2694950D01*
X1309899Y-2698394D01*
X1308751Y-2698702D01*
X1298650Y-2704534D01*
X1291860Y-2706181D01*
X1285257Y-2703896D01*
X1280938Y-2698404D01*
X1280050Y-2693795D01*
X1280050Y-2627583D01*
X1282019Y-2620879D01*
X1283682Y-2618815D01*
X1292245Y-2610253D01*
X1394950Y-2610253D01*
X1394950Y-2624748D01*
X1398679Y-2638666D01*
X1398702Y-2638749D01*
X1405949Y-2651301D01*
X1405949Y-2651301D01*
X1405949Y-2651302D01*
X1416198Y-2661551D01*
X1416199Y-2661551D01*
X1416199Y-2661551D01*
X1428751Y-2668798D01*
X1428751Y-2668798D01*
X1428751Y-2668798D01*
X1442752Y-2672550D01*
X1442753Y-2672550D01*
X1457247Y-2672550D01*
X1457247Y-2672550D01*
X1471248Y-2668798D01*
X1483801Y-2661551D01*
X1488960Y-2656393D01*
X1495092Y-2653044D01*
X1502061Y-2653543D01*
X1507654Y-2657730D01*
X1508776Y-2659531D01*
X1509695Y-2661334D01*
X1509695Y-2661335D01*
X1518665Y-2670305D01*
X1518665Y-2670305D01*
X1518666Y-2670305D01*
X1529969Y-2676065D01*
X1529970Y-2676065D01*
X1539347Y-2677550D01*
X1539348Y-2677550D01*
X1600652Y-2677550D01*
X1610030Y-2676065D01*
X1621334Y-2670305D01*
X1630305Y-2661334D01*
X1636065Y-2650030D01*
X1636065Y-2650030D01*
X1636065Y-2650030D01*
X1637550Y-2640652D01*
X1637550Y-2640652D01*
X1637550Y-2594348D01*
X1636065Y-2584970D01*
X1630305Y-2573666D01*
X1630305Y-2573665D01*
X1630304Y-2573665D01*
X1621335Y-2564695D01*
X1621334Y-2564695D01*
X1621334Y-2564695D01*
X1613108Y-2560503D01*
X1610030Y-2558935D01*
X1600652Y-2557450D01*
X1539348Y-2557450D01*
X1531683Y-2558664D01*
X1529970Y-2558935D01*
X1518666Y-2564695D01*
X1518666Y-2564695D01*
X1518665Y-2564695D01*
X1509695Y-2573665D01*
X1509695Y-2573666D01*
X1508776Y-2575469D01*
X1503978Y-2580549D01*
X1497196Y-2582228D01*
X1490583Y-2579974D01*
X1488960Y-2578607D01*
X1483802Y-2573449D01*
X1483801Y-2573449D01*
X1471249Y-2566202D01*
X1471249Y-2566202D01*
X1470101Y-2565894D01*
X1457247Y-2562450D01*
X1442752Y-2562450D01*
X1429899Y-2565894D01*
X1428751Y-2566202D01*
X1416199Y-2573449D01*
X1416198Y-2573449D01*
X1405949Y-2583698D01*
X1405949Y-2583699D01*
X1398702Y-2596251D01*
X1398702Y-2596252D01*
X1394950Y-2610253D01*
X1292245Y-2610253D01*
X1301825Y-2600672D01*
X1451852Y-2450645D01*
X1604046Y-2298451D01*
X1608002Y-2291599D01*
X1610050Y-2283956D01*
X1610050Y-2276044D01*
X1610050Y-2201200D01*
X1612018Y-2194496D01*
X1617299Y-2189921D01*
X1622450Y-2188800D01*
X1647550Y-2188800D01*
X1654254Y-2190769D01*
X1658829Y-2196049D01*
X1659950Y-2201200D01*
X1659950Y-2244225D01*
X1661351Y-2251271D01*
X1660999Y-2251341D01*
X1661521Y-2256204D01*
X1661320Y-2256887D01*
X1659950Y-2263775D01*
X1659950Y-2307725D01*
X1661113Y-2313573D01*
X1661113Y-2313573D01*
X1665545Y-2320205D01*
X1672177Y-2324637D01*
X1672177Y-2324637D01*
X1678025Y-2325800D01*
X1678025Y-2325800D01*
X1678025Y-2325800D01*
X1697550Y-2325800D01*
X1704254Y-2327769D01*
X1708829Y-2333049D01*
X1709950Y-2338200D01*
X1709950Y-2408032D01*
X1709691Y-2410004D01*
X1709950Y-2411971D01*
X1709950Y-2413957D01*
X1710254Y-2415093D01*
X1710571Y-2416681D01*
X1710724Y-2417848D01*
X1710725Y-2417849D01*
X1711173Y-2418931D01*
X1711484Y-2419682D01*
X1711998Y-2421599D01*
X1712992Y-2423320D01*
X1713302Y-2424070D01*
X1713302Y-2424070D01*
X1713753Y-2425158D01*
X1714962Y-2426732D01*
X1715954Y-2428451D01*
X1717360Y-2429857D01*
X1717853Y-2430500D01*
X1717854Y-2430501D01*
X1717969Y-2430651D01*
X1718571Y-2431435D01*
X1720145Y-2432643D01*
X1721549Y-2434046D01*
X1723271Y-2435040D01*
X1723914Y-2435534D01*
X1723915Y-2435534D01*
X1784014Y-2481638D01*
X1788135Y-2487280D01*
X1788551Y-2494254D01*
X1785131Y-2500347D01*
X1782666Y-2502215D01*
X1776198Y-2505949D01*
X1776198Y-2505949D01*
X1765949Y-2516198D01*
X1765949Y-2516199D01*
X1758702Y-2528751D01*
X1758702Y-2528752D01*
X1754950Y-2542753D01*
X1754950Y-2557248D01*
X1756709Y-2563811D01*
X1758702Y-2571249D01*
X1765949Y-2583801D01*
X1765949Y-2583801D01*
X1765949Y-2583802D01*
X1776198Y-2594051D01*
X1776199Y-2594051D01*
X1776199Y-2594051D01*
X1788751Y-2601298D01*
X1788751Y-2601298D01*
X1788751Y-2601298D01*
X1802752Y-2605050D01*
X1802753Y-2605050D01*
X1811231Y-2605050D01*
X1817934Y-2607019D01*
X1822510Y-2612299D01*
X1823504Y-2619215D01*
X1821133Y-2624913D01*
X1788060Y-2668798D01*
X1728739Y-2747513D01*
X1723132Y-2751682D01*
X1718836Y-2752450D01*
X1644927Y-2752450D01*
X1638223Y-2750482D01*
X1633879Y-2745680D01*
X1631527Y-2741065D01*
X1630305Y-2738666D01*
X1630305Y-2738666D01*
X1630304Y-2738665D01*
X1621335Y-2729695D01*
X1621334Y-2729695D01*
X1621334Y-2729695D01*
X1613652Y-2725781D01*
X1610030Y-2723935D01*
X1600652Y-2722450D01*
X1539348Y-2722450D01*
X1532010Y-2723612D01*
X1529970Y-2723935D01*
X1518666Y-2729695D01*
X1518666Y-2729695D01*
X1518665Y-2729695D01*
X1509695Y-2738665D01*
X1509695Y-2738666D01*
X1509695Y-2738666D01*
X1508473Y-2741065D01*
X1503935Y-2749970D01*
X1502450Y-2759348D01*
X1502450Y-2805652D01*
X1503409Y-2811707D01*
X1503935Y-2815030D01*
X1509695Y-2826334D01*
X1509695Y-2826334D01*
X1509695Y-2826335D01*
X1518665Y-2835304D01*
X1518665Y-2835305D01*
X1518666Y-2835305D01*
X1529969Y-2841064D01*
X1529970Y-2841065D01*
X1539347Y-2842550D01*
X1539348Y-2842550D01*
X1600652Y-2842550D01*
X1610030Y-2841065D01*
X1621334Y-2835305D01*
X1630305Y-2826334D01*
X1633879Y-2819320D01*
X1638676Y-2814241D01*
X1644927Y-2812550D01*
X1738161Y-2812550D01*
X1740263Y-2812808D01*
X1742101Y-2812550D01*
X1743956Y-2812550D01*
X1745270Y-2812198D01*
X1746752Y-2811896D01*
X1748099Y-2811707D01*
X1749807Y-2810982D01*
X1751599Y-2810502D01*
X1753432Y-2809443D01*
X1755382Y-2808616D01*
X1756844Y-2807474D01*
X1758451Y-2806546D01*
X1759948Y-2805049D01*
X1761617Y-2803745D01*
X1762734Y-2802263D01*
X1764046Y-2800951D01*
X1765104Y-2799118D01*
X1870147Y-2659734D01*
X1875754Y-2655565D01*
X1882725Y-2655089D01*
X1888846Y-2658457D01*
X1892175Y-2664600D01*
X1892450Y-2667197D01*
X1892450Y-2982417D01*
X1890481Y-2989121D01*
X1888818Y-2991185D01*
X1850954Y-3029049D01*
X1850953Y-3029049D01*
X1846998Y-3035900D01*
X1846998Y-3035901D01*
X1846433Y-3038009D01*
X1845012Y-3043311D01*
X1844950Y-3043544D01*
X1844950Y-3177956D01*
X1842981Y-3184660D01*
X1837701Y-3189236D01*
X1837295Y-3189412D01*
X1825240Y-3194406D01*
X1808034Y-3205902D01*
X1793402Y-3220534D01*
X1781906Y-3237740D01*
X1773987Y-3256858D01*
X1773987Y-3256859D01*
X1769950Y-3277153D01*
X1769950Y-3322847D01*
X1773987Y-3343141D01*
X1773987Y-3343142D01*
X1781906Y-3362260D01*
X1793402Y-3379466D01*
X1808034Y-3394097D01*
X1808034Y-3394098D01*
X1825240Y-3405594D01*
X1844358Y-3413513D01*
X1863219Y-3417265D01*
X1864653Y-3417550D01*
X1864653Y-3417550D01*
X1864653Y-3417550D01*
X1885347Y-3417550D01*
X1885347Y-3417550D01*
X1905642Y-3413513D01*
X1924760Y-3405594D01*
X1941965Y-3394098D01*
X1956598Y-3379465D01*
X1968094Y-3362260D01*
X1976013Y-3343142D01*
X1980050Y-3322846D01*
X1980050Y-3277153D01*
X1976013Y-3256858D01*
X1968094Y-3237740D01*
X1956598Y-3220534D01*
X1956597Y-3220534D01*
X1941966Y-3205902D01*
X1924759Y-3194406D01*
X1912705Y-3189412D01*
X1907264Y-3185028D01*
X1905058Y-3178399D01*
X1905050Y-3177956D01*
X1905050Y-3065083D01*
X1907018Y-3058379D01*
X1908682Y-3056315D01*
X1926988Y-3038009D01*
X1946546Y-3018451D01*
X1950502Y-3011599D01*
X1952550Y-3003956D01*
X1952550Y-2626507D01*
X1954518Y-2619803D01*
X1959320Y-2615458D01*
X1970322Y-2609853D01*
X1979853Y-2600322D01*
X1985972Y-2588313D01*
X1986345Y-2585954D01*
X1987550Y-2578349D01*
X1987550Y-2521651D01*
X1985972Y-2511688D01*
X1985972Y-2511688D01*
X1985972Y-2511687D01*
X1979853Y-2499678D01*
X1979853Y-2499678D01*
X1979852Y-2499677D01*
X1970322Y-2490148D01*
X1970322Y-2490147D01*
X1970322Y-2490147D01*
X1958313Y-2484028D01*
X1958312Y-2484028D01*
X1958312Y-2484028D01*
X1948349Y-2482450D01*
X1948349Y-2482450D01*
X1940890Y-2482450D01*
X1934186Y-2480482D01*
X1929611Y-2475201D01*
X1928616Y-2468285D01*
X1931519Y-2461930D01*
X1934690Y-2459311D01*
X1938351Y-2457198D01*
X1943801Y-2454051D01*
X1954051Y-2443802D01*
X1961298Y-2431249D01*
X1965050Y-2417248D01*
X1965050Y-2402753D01*
X1961298Y-2388752D01*
X1954051Y-2376199D01*
X1943801Y-2365949D01*
X1943801Y-2365949D01*
X1943801Y-2365949D01*
X1931249Y-2358702D01*
X1931249Y-2358702D01*
X1930101Y-2358394D01*
X1917247Y-2354950D01*
X1902752Y-2354950D01*
X1889899Y-2358394D01*
X1888751Y-2358702D01*
X1876199Y-2365949D01*
X1876198Y-2365949D01*
X1865949Y-2376198D01*
X1865949Y-2376199D01*
X1858702Y-2388751D01*
X1858702Y-2388752D01*
X1854950Y-2402753D01*
X1854950Y-2417248D01*
X1858702Y-2431249D01*
X1858702Y-2431249D01*
X1860640Y-2434606D01*
X1862287Y-2441396D01*
X1860002Y-2447999D01*
X1854510Y-2452318D01*
X1847554Y-2452982D01*
X1842354Y-2450645D01*
X1806735Y-2423321D01*
X1774903Y-2398901D01*
X1770782Y-2393259D01*
X1770050Y-2389063D01*
X1770050Y-2338200D01*
X1772018Y-2331496D01*
X1777299Y-2326921D01*
X1782450Y-2325800D01*
X1801975Y-2325800D01*
X1801975Y-2325800D01*
X1803457Y-2325505D01*
X1807823Y-2324637D01*
X1807823Y-2324637D01*
X1807823Y-2324637D01*
X1814455Y-2320205D01*
X1818887Y-2313573D01*
X1818887Y-2313573D01*
X1818887Y-2313573D01*
X1820050Y-2307725D01*
X1820050Y-2307725D01*
X1820050Y-2269700D01*
X1820305Y-2268831D01*
X1820176Y-2267935D01*
X1821274Y-2265531D01*
X1822018Y-2262996D01*
X1822702Y-2262403D01*
X1823079Y-2261580D01*
X1825302Y-2260151D01*
X1827299Y-2258421D01*
X1828350Y-2258192D01*
X1828956Y-2257802D01*
X1832450Y-2257300D01*
X1852061Y-2257300D01*
X1858765Y-2259269D01*
X1860829Y-2260932D01*
X1866198Y-2266301D01*
X1866199Y-2266301D01*
X1866199Y-2266301D01*
X1878751Y-2273548D01*
X1878751Y-2273548D01*
X1878751Y-2273548D01*
X1892752Y-2277300D01*
X1892753Y-2277300D01*
X1907247Y-2277300D01*
X1907247Y-2277300D01*
X1921248Y-2273548D01*
X1933801Y-2266301D01*
X1944051Y-2256052D01*
X1951298Y-2243499D01*
X1955050Y-2229498D01*
X1955050Y-2215003D01*
X1951298Y-2201002D01*
X1950556Y-2199715D01*
X1944051Y-2188449D01*
X1944051Y-2188448D01*
X1933802Y-2178199D01*
X1933801Y-2178199D01*
X1921249Y-2170952D01*
X1921249Y-2170952D01*
X1917510Y-2169950D01*
X1907247Y-2167200D01*
X1892752Y-2167200D01*
X1882489Y-2169950D01*
X1878751Y-2170952D01*
X1866199Y-2178199D01*
X1866198Y-2178199D01*
X1860829Y-2183568D01*
X1858137Y-2185038D01*
X1855555Y-2186698D01*
X1854935Y-2186787D01*
X1854697Y-2186917D01*
X1852061Y-2187200D01*
X1832450Y-2187200D01*
X1825746Y-2185232D01*
X1821171Y-2179951D01*
X1820050Y-2174800D01*
X1820050Y-2136775D01*
X1820050Y-2136775D01*
X1818648Y-2129729D01*
X1819001Y-2129659D01*
X1818479Y-2124800D01*
X1818679Y-2124116D01*
X1818985Y-2122579D01*
X1820050Y-2117225D01*
X1820050Y-2073275D01*
X1820050Y-2073275D01*
X1820050Y-2073275D01*
X1818648Y-2066229D01*
X1819001Y-2066159D01*
X1818479Y-2061299D01*
X1818679Y-2060616D01*
X1819649Y-2055740D01*
X1820050Y-2053725D01*
X1820050Y-2009775D01*
X1820050Y-2009775D01*
X1820050Y-2009775D01*
X1818648Y-2002729D01*
X1819001Y-2002659D01*
X1818479Y-1997799D01*
X1818679Y-1997116D01*
X1819557Y-1992701D01*
X1820050Y-1990225D01*
X1820050Y-1946275D01*
X1820050Y-1946275D01*
X1820050Y-1946275D01*
X1818648Y-1939229D01*
X1819001Y-1939159D01*
X1818479Y-1934299D01*
X1818679Y-1933616D01*
X1818941Y-1932300D01*
X1820050Y-1926725D01*
X1820050Y-1882775D01*
X1820050Y-1882775D01*
X1820050Y-1882775D01*
X1818887Y-1876927D01*
X1818887Y-1876927D01*
X1814455Y-1870295D01*
X1807823Y-1865863D01*
X1807823Y-1865863D01*
X1801975Y-1864700D01*
X1801975Y-1864700D01*
X1678025Y-1864700D01*
X1678025Y-1864700D01*
X1672177Y-1865863D01*
X1672177Y-1865863D01*
X1665545Y-1870295D01*
X1664771Y-1871068D01*
X1658639Y-1874417D01*
X1656003Y-1874700D01*
X1613956Y-1874700D01*
X1606044Y-1874700D01*
X1602222Y-1875724D01*
X1598401Y-1876748D01*
X1598400Y-1876748D01*
X1591549Y-1880703D01*
X1591549Y-1880704D01*
X1585954Y-1886299D01*
X1585953Y-1886299D01*
X1581998Y-1893150D01*
X1581998Y-1893151D01*
X1581718Y-1894196D01*
X1580086Y-1900285D01*
X1579950Y-1900794D01*
X1579950Y-1923205D01*
X1579591Y-1924425D01*
X1579698Y-1925694D01*
X1578626Y-1927714D01*
X1577981Y-1929908D01*
X1577020Y-1930742D01*
X1576423Y-1931866D01*
X1574429Y-1932986D01*
X1572701Y-1934484D01*
X1571298Y-1934746D01*
X1570332Y-1935288D01*
X1566815Y-1935583D01*
X1551320Y-1934663D01*
X1544745Y-1932300D01*
X1540490Y-1926758D01*
X1540017Y-1924747D01*
X1539926Y-1924767D01*
X1539765Y-1924030D01*
X1535279Y-1911212D01*
X1535279Y-1911212D01*
X1532504Y-1907452D01*
X1527215Y-1900285D01*
X1516288Y-1892221D01*
X1516288Y-1892221D01*
X1503470Y-1887735D01*
X1500427Y-1887450D01*
X1500427Y-1887450D01*
X1407809Y-1887450D01*
X1401105Y-1885481D01*
X1396530Y-1880201D01*
X1395535Y-1873285D01*
X1398438Y-1866930D01*
X1402179Y-1864002D01*
X1410322Y-1859853D01*
X1419853Y-1850322D01*
X1425972Y-1838313D01*
X1425972Y-1838312D01*
X1427550Y-1828349D01*
X1427550Y-1771651D01*
X1425972Y-1761688D01*
X1425972Y-1761688D01*
X1425972Y-1761687D01*
X1419853Y-1749678D01*
X1419853Y-1749678D01*
X1419852Y-1749677D01*
X1410322Y-1740148D01*
X1410322Y-1740147D01*
X1410322Y-1740147D01*
X1398313Y-1734028D01*
X1398312Y-1734028D01*
X1398312Y-1734028D01*
X1388349Y-1732450D01*
X1388349Y-1732450D01*
X1336651Y-1732450D01*
X1336651Y-1732450D01*
X1326688Y-1734028D01*
X1314678Y-1740147D01*
X1314677Y-1740148D01*
X1305148Y-1749677D01*
X1305147Y-1749678D01*
X1300708Y-1758390D01*
X1295911Y-1763470D01*
X1289129Y-1765149D01*
X1288042Y-1765054D01*
X1287248Y-1764950D01*
X1287248Y-1764950D01*
X1272753Y-1764950D01*
X1259899Y-1768394D01*
X1258751Y-1768702D01*
X1246199Y-1775949D01*
X1246198Y-1775949D01*
X1235949Y-1786198D01*
X1235949Y-1786199D01*
X1228702Y-1798751D01*
X1228702Y-1798751D01*
X1224950Y-1812752D01*
X1224950Y-1827247D01*
X1228380Y-1840049D01*
X1228702Y-1841249D01*
X1235949Y-1853801D01*
X1235949Y-1853801D01*
X1235949Y-1853801D01*
X1246199Y-1864051D01*
X1246199Y-1864051D01*
X1246199Y-1864051D01*
X1258751Y-1871298D01*
X1258751Y-1871298D01*
X1258752Y-1871298D01*
X1272753Y-1875050D01*
X1272753Y-1875050D01*
X1287247Y-1875050D01*
X1287248Y-1875050D01*
X1301249Y-1871298D01*
X1301249Y-1871298D01*
X1301249Y-1871298D01*
X1301249Y-1871298D01*
X1302907Y-1870341D01*
X1312244Y-1864950D01*
X1319034Y-1863303D01*
X1324074Y-1864640D01*
X1326687Y-1865972D01*
X1326688Y-1865972D01*
X1326688Y-1865972D01*
X1326688Y-1865972D01*
X1336651Y-1867550D01*
X1381236Y-1867550D01*
X1387940Y-1869518D01*
X1392515Y-1874799D01*
X1393509Y-1881715D01*
X1390607Y-1888070D01*
X1388656Y-1889885D01*
X1387129Y-1891025D01*
X1383712Y-1892221D01*
X1372785Y-1900285D01*
X1370396Y-1903522D01*
X1368928Y-1904619D01*
X1367301Y-1905223D01*
X1365920Y-1906272D01*
X1364095Y-1906415D01*
X1362378Y-1907053D01*
X1360684Y-1906682D01*
X1358954Y-1906818D01*
X1358300Y-1906661D01*
X1347248Y-1903700D01*
X1332753Y-1903700D01*
X1320239Y-1907053D01*
X1318751Y-1907452D01*
X1306199Y-1914699D01*
X1306198Y-1914699D01*
X1295949Y-1924948D01*
X1295949Y-1924949D01*
X1288702Y-1937501D01*
X1288590Y-1937917D01*
X1284950Y-1951502D01*
X1284950Y-1965997D01*
X1288345Y-1978666D01*
X1288702Y-1979999D01*
X1295949Y-1992551D01*
X1295949Y-1992551D01*
X1295949Y-1992551D01*
X1306199Y-2002801D01*
X1306199Y-2002801D01*
X1306199Y-2002801D01*
X1318751Y-2010048D01*
X1318751Y-2010048D01*
X1318752Y-2010048D01*
X1332753Y-2013800D01*
X1332753Y-2013800D01*
X1347247Y-2013800D01*
X1347248Y-2013800D01*
X1358299Y-2010839D01*
X1365283Y-2011005D01*
X1371069Y-2014921D01*
X1371483Y-2015451D01*
X1372785Y-2017215D01*
X1383712Y-2025279D01*
X1385626Y-2025949D01*
X1396530Y-2029765D01*
X1399573Y-2030050D01*
X1399573Y-2030050D01*
X1500427Y-2030050D01*
X1503470Y-2029765D01*
X1503470Y-2029765D01*
X1509879Y-2027522D01*
X1516288Y-2025279D01*
X1527215Y-2017215D01*
X1535279Y-2006288D01*
X1536428Y-2003006D01*
X1540500Y-1997328D01*
X1546995Y-1994753D01*
X1548866Y-1994723D01*
X1575051Y-1996278D01*
X1581627Y-1998640D01*
X1585881Y-2004182D01*
X1586464Y-2011145D01*
X1585055Y-2014856D01*
X1581998Y-2020151D01*
X1581998Y-2020151D01*
X1581301Y-2022752D01*
X1580444Y-2025949D01*
X1579950Y-2027794D01*
X1579950Y-2063285D01*
X1577981Y-2069988D01*
X1572701Y-2074564D01*
X1570976Y-2075202D01*
X1537962Y-2084694D01*
X1530975Y-2084654D01*
X1527172Y-2082753D01*
X1516289Y-2074721D01*
X1516288Y-2074721D01*
X1503470Y-2070235D01*
X1500427Y-2069950D01*
X1500427Y-2069950D01*
X1399573Y-2069950D01*
X1399573Y-2069950D01*
X1396530Y-2070235D01*
X1396530Y-2070235D01*
X1383712Y-2074721D01*
X1383712Y-2074721D01*
X1372785Y-2082785D01*
X1364721Y-2093712D01*
X1364721Y-2093712D01*
X1360235Y-2106530D01*
X1360235Y-2106530D01*
X1359950Y-2109573D01*
X1359950Y-2172927D01*
X1360235Y-2175970D01*
X1360235Y-2175970D01*
X1364602Y-2188448D01*
X1364721Y-2188788D01*
X1372785Y-2199715D01*
X1383712Y-2207779D01*
X1387985Y-2209274D01*
X1396530Y-2212265D01*
X1399573Y-2212550D01*
X1399573Y-2212550D01*
X1500427Y-2212550D01*
X1503470Y-2212265D01*
X1503470Y-2212265D01*
X1509879Y-2210022D01*
X1516288Y-2207779D01*
X1527215Y-2199715D01*
X1527573Y-2199230D01*
X1533137Y-2195005D01*
X1540103Y-2194459D01*
X1546258Y-2197765D01*
X1549648Y-2203875D01*
X1549950Y-2206593D01*
X1549950Y-2262417D01*
X1547981Y-2269121D01*
X1546318Y-2271185D01*
X1225954Y-2591549D01*
X1225954Y-2591550D01*
X1221998Y-2598400D01*
X1221998Y-2598401D01*
X1220633Y-2603496D01*
X1219950Y-2606044D01*
X200000Y-2606044D01*
X200000Y-1572752D01*
X1224950Y-1572752D01*
X1224950Y-1587247D01*
X1227997Y-1598620D01*
X1228702Y-1601249D01*
X1235949Y-1613801D01*
X1235949Y-1613801D01*
X1235949Y-1613801D01*
X1246199Y-1624051D01*
X1246199Y-1624051D01*
X1246199Y-1624051D01*
X1258751Y-1631298D01*
X1258751Y-1631298D01*
X1258752Y-1631298D01*
X1272753Y-1635050D01*
X1272753Y-1635050D01*
X1287247Y-1635050D01*
X1287248Y-1635050D01*
X1301249Y-1631298D01*
X1302439Y-1630611D01*
X1309229Y-1628964D01*
X1315831Y-1631249D01*
X1317407Y-1632582D01*
X1324677Y-1639852D01*
X1324678Y-1639853D01*
X1324678Y-1639853D01*
X1336687Y-1645972D01*
X1336688Y-1645972D01*
X1336688Y-1645972D01*
X1346651Y-1647550D01*
X1346651Y-1647550D01*
X1398349Y-1647550D01*
X1408312Y-1645972D01*
X1408312Y-1645972D01*
X1408313Y-1645972D01*
X1420322Y-1639853D01*
X1429853Y-1630322D01*
X1435972Y-1618313D01*
X1436317Y-1616133D01*
X1437550Y-1608349D01*
X1437550Y-1551651D01*
X1437416Y-1550803D01*
X1437472Y-1550365D01*
X1437311Y-1549954D01*
X1437916Y-1546931D01*
X1438311Y-1543873D01*
X1438595Y-1543536D01*
X1438682Y-1543103D01*
X1440825Y-1540887D01*
X1442811Y-1538528D01*
X1443232Y-1538398D01*
X1443539Y-1538080D01*
X1446540Y-1537375D01*
X1449486Y-1536464D01*
X1449911Y-1536583D01*
X1450341Y-1536482D01*
X1453247Y-1537510D01*
X1456217Y-1538337D01*
X1456628Y-1538708D01*
X1456927Y-1538814D01*
X1459464Y-1541267D01*
X1460024Y-1541989D01*
X1462574Y-1548494D01*
X1462482Y-1551164D01*
X1462488Y-1551165D01*
X1462478Y-1551296D01*
X1462470Y-1551524D01*
X1462450Y-1551651D01*
X1462450Y-1608349D01*
X1464028Y-1618312D01*
X1464028Y-1618312D01*
X1464028Y-1618313D01*
X1470147Y-1630322D01*
X1470147Y-1630322D01*
X1470148Y-1630322D01*
X1479677Y-1639852D01*
X1479678Y-1639853D01*
X1479678Y-1639853D01*
X1491687Y-1645972D01*
X1491688Y-1645972D01*
X1491688Y-1645972D01*
X1501651Y-1647550D01*
X1549190Y-1647550D01*
X1552034Y-1648385D01*
X1554941Y-1648964D01*
X1555582Y-1649427D01*
X1555894Y-1649518D01*
X1557803Y-1651029D01*
X1566163Y-1659101D01*
X1569618Y-1665173D01*
X1569950Y-1668021D01*
X1569950Y-1773794D01*
X1569950Y-1781706D01*
X1570832Y-1784997D01*
X1571998Y-1789349D01*
X1571998Y-1789349D01*
X1575953Y-1796200D01*
X1575954Y-1796201D01*
X1575954Y-1796201D01*
X1581549Y-1801796D01*
X1581549Y-1801796D01*
X1581549Y-1801796D01*
X1588091Y-1805573D01*
X1588401Y-1805752D01*
X1596044Y-1807800D01*
X1656003Y-1807800D01*
X1662707Y-1809768D01*
X1664771Y-1811432D01*
X1665545Y-1812205D01*
X1672177Y-1816637D01*
X1672177Y-1816637D01*
X1678025Y-1817800D01*
X1678025Y-1817800D01*
X1678025Y-1817800D01*
X1801975Y-1817800D01*
X1801975Y-1817800D01*
X1803811Y-1817435D01*
X1807823Y-1816637D01*
X1807823Y-1816637D01*
X1807823Y-1816637D01*
X1814455Y-1812205D01*
X1818887Y-1805573D01*
X1818887Y-1805573D01*
X1818887Y-1805573D01*
X1820050Y-1799725D01*
X1820050Y-1799725D01*
X1820050Y-1755775D01*
X1820050Y-1755775D01*
X1818648Y-1748729D01*
X1819001Y-1748659D01*
X1818479Y-1743799D01*
X1818679Y-1743116D01*
X1819270Y-1740148D01*
X1820050Y-1736225D01*
X1820050Y-1692275D01*
X1820050Y-1692275D01*
X1820050Y-1692275D01*
X1818887Y-1686427D01*
X1818887Y-1686427D01*
X1814455Y-1679795D01*
X1807823Y-1675363D01*
X1807823Y-1675363D01*
X1801975Y-1674200D01*
X1801975Y-1674200D01*
X1692450Y-1674200D01*
X1685746Y-1672231D01*
X1681171Y-1666951D01*
X1680050Y-1661800D01*
X1680050Y-1382939D01*
X1682018Y-1376235D01*
X1683682Y-1374171D01*
X1684605Y-1373247D01*
X1694051Y-1363802D01*
X1699261Y-1354777D01*
X1704318Y-1349955D01*
X1711179Y-1348633D01*
X1717665Y-1351230D01*
X1720739Y-1354777D01*
X1725949Y-1363802D01*
X1736198Y-1374051D01*
X1736199Y-1374051D01*
X1736199Y-1374051D01*
X1748751Y-1381298D01*
X1748751Y-1381298D01*
X1748751Y-1381298D01*
X1762752Y-1385050D01*
X1762753Y-1385050D01*
X1777247Y-1385050D01*
X1777247Y-1385050D01*
X1791248Y-1381298D01*
X1803801Y-1374051D01*
X1814051Y-1363802D01*
X1821298Y-1351249D01*
X1825050Y-1337248D01*
X1825050Y-1322753D01*
X1821298Y-1308752D01*
X1819616Y-1305838D01*
X1814051Y-1296199D01*
X1814051Y-1296198D01*
X1803802Y-1285949D01*
X1803801Y-1285949D01*
X1791249Y-1278702D01*
X1791249Y-1278702D01*
X1790101Y-1278394D01*
X1777247Y-1274950D01*
X1762752Y-1274950D01*
X1749899Y-1278394D01*
X1748751Y-1278702D01*
X1736199Y-1285949D01*
X1736198Y-1285949D01*
X1725949Y-1296198D01*
X1725949Y-1296199D01*
X1720739Y-1305223D01*
X1715682Y-1310045D01*
X1708821Y-1311367D01*
X1702335Y-1308770D01*
X1699261Y-1305223D01*
X1698093Y-1303200D01*
X1694051Y-1296199D01*
X1683801Y-1285949D01*
X1683801Y-1285949D01*
X1683801Y-1285949D01*
X1671249Y-1278702D01*
X1671249Y-1278702D01*
X1670101Y-1278394D01*
X1657247Y-1274950D01*
X1642752Y-1274950D01*
X1629899Y-1278394D01*
X1628751Y-1278702D01*
X1616199Y-1285949D01*
X1616198Y-1285949D01*
X1605949Y-1296198D01*
X1605949Y-1296199D01*
X1598702Y-1308751D01*
X1598702Y-1308752D01*
X1594950Y-1322753D01*
X1594950Y-1337248D01*
X1598697Y-1351230D01*
X1598702Y-1351249D01*
X1605949Y-1363801D01*
X1605949Y-1363802D01*
X1616318Y-1374171D01*
X1619667Y-1380303D01*
X1619950Y-1382939D01*
X1619950Y-1598282D01*
X1619356Y-1600305D01*
X1619242Y-1602411D01*
X1618391Y-1603590D01*
X1617981Y-1604986D01*
X1616388Y-1606367D01*
X1615154Y-1608077D01*
X1613800Y-1608609D01*
X1612701Y-1609561D01*
X1610614Y-1609861D01*
X1608651Y-1610633D01*
X1607225Y-1610349D01*
X1605785Y-1610556D01*
X1603867Y-1609680D01*
X1601799Y-1609268D01*
X1599789Y-1607817D01*
X1599430Y-1607653D01*
X1598937Y-1607203D01*
X1596337Y-1604692D01*
X1592881Y-1598620D01*
X1592550Y-1595772D01*
X1592550Y-1551651D01*
X1590972Y-1541688D01*
X1590972Y-1541688D01*
X1590972Y-1541687D01*
X1584853Y-1529678D01*
X1584853Y-1529678D01*
X1584852Y-1529677D01*
X1575322Y-1520148D01*
X1575322Y-1520147D01*
X1575322Y-1520147D01*
X1563313Y-1514028D01*
X1563312Y-1514028D01*
X1563312Y-1514028D01*
X1553349Y-1512450D01*
X1553349Y-1512450D01*
X1519245Y-1512450D01*
X1518908Y-1512351D01*
X1518567Y-1512431D01*
X1515579Y-1511374D01*
X1512541Y-1510481D01*
X1512214Y-1510182D01*
X1511981Y-1510100D01*
X1509444Y-1507646D01*
X1505886Y-1503055D01*
X1503335Y-1496551D01*
X1503709Y-1492250D01*
X1505050Y-1487247D01*
X1505050Y-1472752D01*
X1501298Y-1458751D01*
X1494430Y-1446854D01*
X1494051Y-1446199D01*
X1494051Y-1446198D01*
X1483802Y-1435949D01*
X1483801Y-1435949D01*
X1471249Y-1428702D01*
X1471249Y-1428702D01*
X1470101Y-1428394D01*
X1457247Y-1424950D01*
X1442752Y-1424950D01*
X1429899Y-1428394D01*
X1428751Y-1428702D01*
X1416199Y-1435949D01*
X1416198Y-1435949D01*
X1405949Y-1446198D01*
X1405949Y-1446199D01*
X1398702Y-1458751D01*
X1398702Y-1458751D01*
X1394950Y-1472752D01*
X1394950Y-1487247D01*
X1397521Y-1496841D01*
X1397354Y-1503826D01*
X1393438Y-1509612D01*
X1387015Y-1512362D01*
X1385543Y-1512450D01*
X1346651Y-1512450D01*
X1336688Y-1514028D01*
X1324678Y-1520147D01*
X1317407Y-1527418D01*
X1311274Y-1530767D01*
X1304305Y-1530268D01*
X1302439Y-1529389D01*
X1301249Y-1528702D01*
X1301249Y-1528702D01*
X1296459Y-1527418D01*
X1287248Y-1524950D01*
X1272753Y-1524950D01*
X1259899Y-1528394D01*
X1258751Y-1528702D01*
X1246199Y-1535949D01*
X1246198Y-1535949D01*
X1235949Y-1546198D01*
X1235949Y-1546199D01*
X1228702Y-1558751D01*
X1228702Y-1558751D01*
X1224950Y-1572752D01*
X200000Y-1572752D01*
X200000Y-212400D01*
X201968Y-205696D01*
X207249Y-201121D01*
X212400Y-200000D01*
X5787600Y-200000D01*
X5794304Y-201968D01*
G37*
%TD.AperFunction*%
%TD*%
M02*
