%TF.GenerationSoftware,KiCad,Pcbnew,10.0.4*%
%TF.CreationDate,2026-09-24T00:17:31-06:00*%
%TF.ProjectId,section,73656374-696f-46e2-9e6b-696361645f70,rev?*%
%TF.SameCoordinates,Original*%
%TF.FileFunction,Copper,L2,Inr*%
%TF.FilePolarity,Positive*%
%FSLAX45Y45*%
G04 Gerber Fmt 4.5, Leading zero omitted, Abs format (unit mm)*
G04 Created by KiCad (PCBNEW 10.0.4) date 2026-09-24 00:17:31*
%MOMM*%
%LPD*%
G01*
G04 APERTURE LIST*
G04 Aperture macros list*
%AMRoundRect*
0 Rectangle with rounded corners*
0 $1 Rounding radius*
0 $2 $3 $4 $5 $6 $7 $8 $9 X,Y pos of 4 corners*
0 Add a 4 corners polygon primitive as box body*
4,1,4,$2,$3,$4,$5,$6,$7,$8,$9,$2,$3,0*
0 Add four circle primitives for the rounded corners*
1,1,$1+$1,$2,$3*
1,1,$1+$1,$4,$5*
1,1,$1+$1,$6,$7*
1,1,$1+$1,$8,$9*
0 Add four rect primitives between the rounded corners*
20,1,$1+$1,$2,$3,$4,$5,0*
20,1,$1+$1,$4,$5,$6,$7,0*
20,1,$1+$1,$6,$7,$8,$9,0*
20,1,$1+$1,$8,$9,$2,$3,0*%
G04 Aperture macros list end*
%TA.AperFunction,ComponentPad*%
%ADD10RoundRect,0.250000X-0.600000X-0.725000X0.600000X-0.725000X0.600000X0.725000X-0.600000X0.725000X0*%
%TD*%
%TA.AperFunction,ComponentPad*%
%ADD11O,1.700000X1.950000*%
%TD*%
%TA.AperFunction,ComponentPad*%
%ADD12R,1.050000X1.050000*%
%TD*%
%TA.AperFunction,ComponentPad*%
%ADD13C,1.050000*%
%TD*%
%TA.AperFunction,ViaPad*%
%ADD14C,0.700000*%
%TD*%
G04 APERTURE END LIST*
D10*
%TO.N,rtd_force_p*%
%TO.C,J1*%
X1625000Y-3300000D03*
D11*
%TO.N,rtd_sense_p*%
X1875000Y-3300000D03*
%TO.N,rtd_sense_n*%
X2125000Y-3300000D03*
%TO.N,rtd_force_n*%
X2375000Y-3300000D03*
%TD*%
D12*
%TO.N,+3V3*%
%TO.C,J2*%
X4736500Y-946000D03*
D13*
%TO.N,gnd*%
X4863500Y-946000D03*
X4736500Y-1073000D03*
%TO.N,RTD_SCK*%
X4863500Y-1073000D03*
%TO.N,RTD_SDI*%
X4736500Y-1200000D03*
%TO.N,RTD_SDO*%
X4863500Y-1200000D03*
%TO.N,RTD_CS_N*%
X4736500Y-1327000D03*
%TO.N,RTD_DRDY*%
X4863500Y-1327000D03*
%TO.N,RTD_HW_FAULT*%
X4736500Y-1454000D03*
%TO.N,SHARED_REF_2V5*%
X4863500Y-1454000D03*
%TD*%
D14*
%TO.N,+3V3*%
X5350000Y-4532500D03*
X4500000Y-3050000D03*
X1840000Y-3835000D03*
X1450000Y-1480000D03*
X3400000Y-1200000D03*
X5060000Y-3935000D03*
%TO.N,RTD_HW_FAULT*%
X5470000Y-4367500D03*
%TO.N,gnd*%
X4740000Y-3935000D03*
X2150000Y-3835000D03*
X2790000Y-4000000D03*
X1770000Y-1330000D03*
X4150000Y-2800000D03*
X2100000Y-2158750D03*
X1330000Y-2750000D03*
X2400000Y-1777750D03*
X2780000Y-1560000D03*
X1910000Y-2410000D03*
X2440000Y-5232500D03*
X2550000Y-2750000D03*
X3180000Y-3320000D03*
X1280000Y-1820000D03*
X1900000Y-2222250D03*
X4360000Y-4632500D03*
X3840000Y-3032500D03*
X3420000Y-4995000D03*
X3200000Y-2070000D03*
X2840000Y-4635000D03*
X4670000Y-4295000D03*
X4130000Y-3050000D03*
X1750000Y-3490000D03*
X2310000Y-3450000D03*
X1280000Y-1580000D03*
X3640000Y-3200000D03*
X3840000Y-3935000D03*
X3780000Y-4295000D03*
X2840000Y-3735000D03*
X2790000Y-4900000D03*
X2000000Y-4295000D03*
%TO.N,bias*%
X1450000Y-2617500D03*
X1340000Y-1958750D03*
X2550000Y-2617500D03*
%TO.N,reset*%
X4600000Y-4200000D03*
X4600000Y-3682500D03*
%TO.N,window_rtdin_p*%
X3520000Y-3200000D03*
X3300000Y-4995000D03*
X2720000Y-4095000D03*
%TO.N,rtd_sense_p*%
X3180000Y-3200000D03*
X1810000Y-2550000D03*
%TO.N,RTD_SCK*%
X2950000Y-2030000D03*
%TO.N,RTD_SDI*%
X2950000Y-2200000D03*
%TO.N,RTD_SDO*%
X2900000Y-1690000D03*
%TO.N,RTD_DRDY*%
X1650000Y-1330000D03*
%TO.N,SHARED_REF_2V5*%
X1750000Y-4195000D03*
%TO.N,vbias*%
X2420000Y-3817500D03*
X2250000Y-4195000D03*
%TD*%
%TA.AperFunction,Conductor*%
%TO.N,gnd*%
G36*
X5794304Y-201968D02*
G01*
X5798879Y-207249D01*
X5800000Y-212400D01*
X5800000Y-5787600D01*
X5798031Y-5794304D01*
X5792751Y-5798879D01*
X5787600Y-5800000D01*
X212400Y-5800000D01*
X205696Y-5798031D01*
X201121Y-5792751D01*
X200000Y-5787600D01*
X200000Y-4987753D01*
X3244950Y-4987753D01*
X3244950Y-5002248D01*
X3248702Y-5016249D01*
X3248702Y-5016249D01*
X3255949Y-5028801D01*
X3255949Y-5028801D01*
X3255949Y-5028802D01*
X3266198Y-5039051D01*
X3266199Y-5039051D01*
X3266199Y-5039051D01*
X3278751Y-5046298D01*
X3278751Y-5046298D01*
X3278751Y-5046298D01*
X3292752Y-5050050D01*
X3292753Y-5050050D01*
X3307247Y-5050050D01*
X3307247Y-5050050D01*
X3321248Y-5046298D01*
X3333801Y-5039051D01*
X3344051Y-5028802D01*
X3351298Y-5016249D01*
X3355050Y-5002248D01*
X3355050Y-4987753D01*
X3351298Y-4973752D01*
X3344051Y-4961199D01*
X3333801Y-4950949D01*
X3333801Y-4950949D01*
X3333801Y-4950949D01*
X3321249Y-4943702D01*
X3321249Y-4943702D01*
X3320101Y-4943394D01*
X3307247Y-4939950D01*
X3292752Y-4939950D01*
X3279899Y-4943394D01*
X3278751Y-4943702D01*
X3266199Y-4950949D01*
X3266198Y-4950949D01*
X3255949Y-4961198D01*
X3255949Y-4961199D01*
X3248702Y-4973751D01*
X3248702Y-4973752D01*
X3244950Y-4987753D01*
X200000Y-4987753D01*
X200000Y-4525253D01*
X5294950Y-4525253D01*
X5294950Y-4539748D01*
X5298702Y-4553749D01*
X5298702Y-4553749D01*
X5305949Y-4566301D01*
X5305949Y-4566301D01*
X5305949Y-4566302D01*
X5316199Y-4576551D01*
X5316199Y-4576551D01*
X5316199Y-4576551D01*
X5328751Y-4583798D01*
X5328751Y-4583798D01*
X5328752Y-4583798D01*
X5342753Y-4587550D01*
X5342753Y-4587550D01*
X5357247Y-4587550D01*
X5357248Y-4587550D01*
X5371249Y-4583798D01*
X5383802Y-4576551D01*
X5394051Y-4566302D01*
X5401298Y-4553749D01*
X5405050Y-4539748D01*
X5405050Y-4525253D01*
X5401298Y-4511252D01*
X5394051Y-4498699D01*
X5383802Y-4488449D01*
X5383801Y-4488449D01*
X5383801Y-4488449D01*
X5371249Y-4481202D01*
X5371249Y-4481202D01*
X5370101Y-4480894D01*
X5357248Y-4477450D01*
X5342753Y-4477450D01*
X5329899Y-4480894D01*
X5328751Y-4481202D01*
X5316199Y-4488449D01*
X5316198Y-4488449D01*
X5305949Y-4498698D01*
X5305949Y-4498699D01*
X5298702Y-4511251D01*
X5298702Y-4511252D01*
X5294950Y-4525253D01*
X200000Y-4525253D01*
X200000Y-4360253D01*
X5414950Y-4360253D01*
X5414950Y-4374748D01*
X5418702Y-4388749D01*
X5418702Y-4388749D01*
X5425949Y-4401301D01*
X5425949Y-4401301D01*
X5425949Y-4401302D01*
X5436199Y-4411551D01*
X5436199Y-4411551D01*
X5436199Y-4411551D01*
X5448751Y-4418798D01*
X5448751Y-4418798D01*
X5448752Y-4418798D01*
X5462753Y-4422550D01*
X5462753Y-4422550D01*
X5477247Y-4422550D01*
X5477248Y-4422550D01*
X5491249Y-4418798D01*
X5503802Y-4411551D01*
X5514051Y-4401302D01*
X5521298Y-4388749D01*
X5525050Y-4374748D01*
X5525050Y-4360253D01*
X5521298Y-4346252D01*
X5514051Y-4333699D01*
X5503802Y-4323449D01*
X5503801Y-4323449D01*
X5503801Y-4323449D01*
X5491249Y-4316202D01*
X5491249Y-4316202D01*
X5490101Y-4315894D01*
X5477248Y-4312450D01*
X5462753Y-4312450D01*
X5449899Y-4315894D01*
X5448751Y-4316202D01*
X5436199Y-4323449D01*
X5436198Y-4323449D01*
X5425949Y-4333698D01*
X5425949Y-4333699D01*
X5418702Y-4346251D01*
X5418702Y-4346252D01*
X5414950Y-4360253D01*
X200000Y-4360253D01*
X200000Y-4187752D01*
X1694950Y-4187752D01*
X1694950Y-4202248D01*
X1696290Y-4207247D01*
X1698702Y-4216249D01*
X1705949Y-4228801D01*
X1705949Y-4228801D01*
X1705949Y-4228802D01*
X1716198Y-4239051D01*
X1716199Y-4239051D01*
X1716199Y-4239051D01*
X1728751Y-4246298D01*
X1728751Y-4246298D01*
X1728751Y-4246298D01*
X1742752Y-4250050D01*
X1742753Y-4250050D01*
X1757247Y-4250050D01*
X1757247Y-4250050D01*
X1771248Y-4246298D01*
X1783801Y-4239051D01*
X1794051Y-4228802D01*
X1801298Y-4216249D01*
X1805050Y-4202248D01*
X1805050Y-4187752D01*
X2194950Y-4187752D01*
X2194950Y-4202248D01*
X2196290Y-4207247D01*
X2198702Y-4216249D01*
X2205949Y-4228801D01*
X2205949Y-4228801D01*
X2205949Y-4228802D01*
X2216199Y-4239051D01*
X2216199Y-4239051D01*
X2216199Y-4239051D01*
X2228751Y-4246298D01*
X2228751Y-4246298D01*
X2228752Y-4246298D01*
X2242753Y-4250050D01*
X2242753Y-4250050D01*
X2257247Y-4250050D01*
X2257248Y-4250050D01*
X2271249Y-4246298D01*
X2283802Y-4239051D01*
X2294051Y-4228802D01*
X2301298Y-4216249D01*
X2305050Y-4202248D01*
X2305050Y-4192752D01*
X4544950Y-4192752D01*
X4544950Y-4207248D01*
X4548702Y-4221249D01*
X4548702Y-4221249D01*
X4555949Y-4233801D01*
X4555949Y-4233801D01*
X4555949Y-4233802D01*
X4566199Y-4244051D01*
X4566199Y-4244051D01*
X4566199Y-4244051D01*
X4578751Y-4251298D01*
X4578751Y-4251298D01*
X4578752Y-4251298D01*
X4592753Y-4255050D01*
X4592753Y-4255050D01*
X4607247Y-4255050D01*
X4607248Y-4255050D01*
X4621249Y-4251298D01*
X4633802Y-4244051D01*
X4644051Y-4233802D01*
X4651298Y-4221249D01*
X4655050Y-4207248D01*
X4655050Y-4192752D01*
X4651298Y-4178751D01*
X4648412Y-4173751D01*
X4644051Y-4166199D01*
X4644051Y-4166198D01*
X4633802Y-4155949D01*
X4633801Y-4155949D01*
X4621249Y-4148702D01*
X4621249Y-4148702D01*
X4620101Y-4148394D01*
X4607248Y-4144950D01*
X4592753Y-4144950D01*
X4579899Y-4148394D01*
X4578751Y-4148702D01*
X4566199Y-4155949D01*
X4566198Y-4155949D01*
X4555949Y-4166198D01*
X4555949Y-4166199D01*
X4548702Y-4178751D01*
X4548702Y-4178751D01*
X4544950Y-4192752D01*
X2305050Y-4192752D01*
X2305050Y-4187752D01*
X2301298Y-4173751D01*
X2296938Y-4166199D01*
X2294051Y-4161199D01*
X2294051Y-4161198D01*
X2283802Y-4150949D01*
X2283801Y-4150949D01*
X2271249Y-4143702D01*
X2271249Y-4143702D01*
X2270101Y-4143394D01*
X2257248Y-4139950D01*
X2242753Y-4139950D01*
X2229899Y-4143394D01*
X2228751Y-4143702D01*
X2216199Y-4150949D01*
X2216198Y-4150949D01*
X2205949Y-4161198D01*
X2205949Y-4161199D01*
X2198702Y-4173751D01*
X2198702Y-4173751D01*
X2194950Y-4187752D01*
X1805050Y-4187752D01*
X1801298Y-4173751D01*
X1796938Y-4166199D01*
X1794051Y-4161199D01*
X1794051Y-4161198D01*
X1783802Y-4150949D01*
X1783801Y-4150949D01*
X1771249Y-4143702D01*
X1771249Y-4143702D01*
X1770101Y-4143394D01*
X1757247Y-4139950D01*
X1742752Y-4139950D01*
X1729899Y-4143394D01*
X1728751Y-4143702D01*
X1716199Y-4150949D01*
X1716198Y-4150949D01*
X1705949Y-4161198D01*
X1705949Y-4161199D01*
X1698702Y-4173751D01*
X1698702Y-4173751D01*
X1694950Y-4187752D01*
X200000Y-4187752D01*
X200000Y-4087752D01*
X2664950Y-4087752D01*
X2664950Y-4102247D01*
X2668702Y-4116248D01*
X2668702Y-4116249D01*
X2675949Y-4128801D01*
X2675949Y-4128801D01*
X2675949Y-4128801D01*
X2686199Y-4139051D01*
X2686199Y-4139051D01*
X2686199Y-4139051D01*
X2698751Y-4146298D01*
X2698751Y-4146298D01*
X2698752Y-4146298D01*
X2712753Y-4150050D01*
X2712753Y-4150050D01*
X2727247Y-4150050D01*
X2727248Y-4150050D01*
X2741249Y-4146298D01*
X2753802Y-4139051D01*
X2764051Y-4128801D01*
X2771298Y-4116248D01*
X2775050Y-4102247D01*
X2775050Y-4087752D01*
X2771298Y-4073751D01*
X2764051Y-4061198D01*
X2753802Y-4050949D01*
X2753801Y-4050949D01*
X2753801Y-4050949D01*
X2741249Y-4043702D01*
X2741249Y-4043702D01*
X2740101Y-4043394D01*
X2727248Y-4039950D01*
X2712753Y-4039950D01*
X2699899Y-4043394D01*
X2698751Y-4043702D01*
X2686199Y-4050949D01*
X2686198Y-4050949D01*
X2675949Y-4061198D01*
X2675949Y-4061199D01*
X2668702Y-4073751D01*
X2668702Y-4073751D01*
X2664950Y-4087752D01*
X200000Y-4087752D01*
X200000Y-3927752D01*
X5004950Y-3927752D01*
X5004950Y-3942247D01*
X5008702Y-3956248D01*
X5008702Y-3956249D01*
X5015949Y-3968801D01*
X5015949Y-3968801D01*
X5015949Y-3968801D01*
X5026199Y-3979051D01*
X5026199Y-3979051D01*
X5026199Y-3979051D01*
X5038751Y-3986298D01*
X5038751Y-3986298D01*
X5038752Y-3986298D01*
X5052753Y-3990050D01*
X5052753Y-3990050D01*
X5067247Y-3990050D01*
X5067248Y-3990050D01*
X5081249Y-3986298D01*
X5093802Y-3979051D01*
X5104051Y-3968801D01*
X5111298Y-3956248D01*
X5115050Y-3942247D01*
X5115050Y-3927752D01*
X5111298Y-3913751D01*
X5104051Y-3901198D01*
X5093802Y-3890949D01*
X5093801Y-3890949D01*
X5093801Y-3890949D01*
X5081249Y-3883702D01*
X5081249Y-3883702D01*
X5080101Y-3883394D01*
X5067248Y-3879950D01*
X5052753Y-3879950D01*
X5039899Y-3883394D01*
X5038751Y-3883702D01*
X5026199Y-3890949D01*
X5026198Y-3890949D01*
X5015949Y-3901198D01*
X5015949Y-3901199D01*
X5008702Y-3913751D01*
X5008702Y-3913751D01*
X5004950Y-3927752D01*
X200000Y-3927752D01*
X200000Y-3827752D01*
X1784950Y-3827752D01*
X1784950Y-3842247D01*
X1787376Y-3851302D01*
X1788702Y-3856249D01*
X1795949Y-3868801D01*
X1795949Y-3868801D01*
X1795949Y-3868801D01*
X1806198Y-3879051D01*
X1806199Y-3879051D01*
X1806199Y-3879051D01*
X1818751Y-3886298D01*
X1818751Y-3886298D01*
X1818751Y-3886298D01*
X1832752Y-3890050D01*
X1832753Y-3890050D01*
X1847247Y-3890050D01*
X1847247Y-3890050D01*
X1861248Y-3886298D01*
X1873801Y-3879051D01*
X1884051Y-3868801D01*
X1891298Y-3856248D01*
X1895050Y-3842247D01*
X1895050Y-3827752D01*
X1891298Y-3813751D01*
X1889278Y-3810252D01*
X2364950Y-3810252D01*
X2364950Y-3824747D01*
X2365755Y-3827753D01*
X2368702Y-3838749D01*
X2375949Y-3851301D01*
X2375949Y-3851301D01*
X2375949Y-3851301D01*
X2386199Y-3861551D01*
X2386199Y-3861551D01*
X2386199Y-3861551D01*
X2398751Y-3868798D01*
X2398751Y-3868798D01*
X2398752Y-3868798D01*
X2412753Y-3872550D01*
X2412753Y-3872550D01*
X2427247Y-3872550D01*
X2427248Y-3872550D01*
X2441249Y-3868798D01*
X2453802Y-3861551D01*
X2464051Y-3851301D01*
X2471298Y-3838748D01*
X2475050Y-3824747D01*
X2475050Y-3810252D01*
X2471298Y-3796251D01*
X2468237Y-3790949D01*
X2464051Y-3783699D01*
X2464051Y-3783698D01*
X2453802Y-3773449D01*
X2453801Y-3773449D01*
X2441249Y-3766202D01*
X2441249Y-3766202D01*
X2440101Y-3765894D01*
X2427248Y-3762450D01*
X2412753Y-3762450D01*
X2399899Y-3765894D01*
X2398751Y-3766202D01*
X2386199Y-3773449D01*
X2386198Y-3773449D01*
X2375949Y-3783698D01*
X2375949Y-3783699D01*
X2368702Y-3796251D01*
X2368702Y-3796251D01*
X2364950Y-3810252D01*
X1889278Y-3810252D01*
X1884051Y-3801199D01*
X1884051Y-3801198D01*
X1873802Y-3790949D01*
X1873801Y-3790949D01*
X1861249Y-3783702D01*
X1861249Y-3783702D01*
X1860101Y-3783394D01*
X1847247Y-3779950D01*
X1832752Y-3779950D01*
X1819899Y-3783394D01*
X1818751Y-3783702D01*
X1806199Y-3790949D01*
X1806198Y-3790949D01*
X1795949Y-3801198D01*
X1795949Y-3801199D01*
X1788702Y-3813751D01*
X1788702Y-3813751D01*
X1784950Y-3827752D01*
X200000Y-3827752D01*
X200000Y-3675252D01*
X4544950Y-3675252D01*
X4544950Y-3689747D01*
X4548702Y-3703748D01*
X4548702Y-3703749D01*
X4555949Y-3716301D01*
X4555949Y-3716301D01*
X4555949Y-3716301D01*
X4566199Y-3726551D01*
X4566199Y-3726551D01*
X4566199Y-3726551D01*
X4578751Y-3733798D01*
X4578751Y-3733798D01*
X4578752Y-3733798D01*
X4592753Y-3737550D01*
X4592753Y-3737550D01*
X4607247Y-3737550D01*
X4607248Y-3737550D01*
X4621249Y-3733798D01*
X4633802Y-3726551D01*
X4644051Y-3716301D01*
X4651298Y-3703748D01*
X4655050Y-3689747D01*
X4655050Y-3675252D01*
X4651298Y-3661251D01*
X4644051Y-3648698D01*
X4633802Y-3638449D01*
X4633801Y-3638449D01*
X4633801Y-3638449D01*
X4621249Y-3631202D01*
X4621249Y-3631202D01*
X4620101Y-3630894D01*
X4607248Y-3627450D01*
X4592753Y-3627450D01*
X4579899Y-3630894D01*
X4578751Y-3631202D01*
X4566199Y-3638449D01*
X4566198Y-3638449D01*
X4555949Y-3648698D01*
X4555949Y-3648699D01*
X4548702Y-3661251D01*
X4548702Y-3661251D01*
X4544950Y-3675252D01*
X200000Y-3675252D01*
X200000Y-3222073D01*
X1519950Y-3222073D01*
X1519950Y-3377927D01*
X1520235Y-3380970D01*
X1520235Y-3380970D01*
X1524721Y-3393788D01*
X1524721Y-3393788D01*
X1532785Y-3404715D01*
X1543712Y-3412779D01*
X1545809Y-3413513D01*
X1556530Y-3417265D01*
X1559573Y-3417550D01*
X1559573Y-3417550D01*
X1690427Y-3417550D01*
X1693470Y-3417265D01*
X1693470Y-3417265D01*
X1699879Y-3415022D01*
X1706288Y-3412779D01*
X1717215Y-3404715D01*
X1725279Y-3393788D01*
X1727522Y-3387379D01*
X1729765Y-3380970D01*
X1729765Y-3380970D01*
X1730050Y-3377927D01*
X1730050Y-3277153D01*
X1769950Y-3277153D01*
X1769950Y-3322847D01*
X1773987Y-3343141D01*
X1773987Y-3343142D01*
X1781906Y-3362260D01*
X1793402Y-3379466D01*
X1808034Y-3394097D01*
X1808034Y-3394098D01*
X1825240Y-3405594D01*
X1844358Y-3413513D01*
X1863219Y-3417265D01*
X1864653Y-3417550D01*
X1864653Y-3417550D01*
X1864653Y-3417550D01*
X1885347Y-3417550D01*
X1885347Y-3417550D01*
X1905642Y-3413513D01*
X1924760Y-3405594D01*
X1941965Y-3394098D01*
X1956598Y-3379465D01*
X1968094Y-3362260D01*
X1976013Y-3343142D01*
X1980050Y-3322846D01*
X1980050Y-3277153D01*
X1980050Y-3277153D01*
X2019950Y-3277153D01*
X2019950Y-3322847D01*
X2023987Y-3343141D01*
X2023987Y-3343142D01*
X2031906Y-3362260D01*
X2043402Y-3379466D01*
X2058034Y-3394097D01*
X2058034Y-3394098D01*
X2075240Y-3405594D01*
X2094358Y-3413513D01*
X2113219Y-3417265D01*
X2114653Y-3417550D01*
X2114653Y-3417550D01*
X2114654Y-3417550D01*
X2135347Y-3417550D01*
X2135347Y-3417550D01*
X2155642Y-3413513D01*
X2174760Y-3405594D01*
X2191966Y-3394098D01*
X2206598Y-3379465D01*
X2218094Y-3362260D01*
X2226013Y-3343142D01*
X2230050Y-3322846D01*
X2230050Y-3277153D01*
X2230050Y-3277153D01*
X2269950Y-3277153D01*
X2269950Y-3322847D01*
X2273987Y-3343141D01*
X2273987Y-3343142D01*
X2281906Y-3362260D01*
X2293402Y-3379466D01*
X2308034Y-3394097D01*
X2308035Y-3394098D01*
X2325240Y-3405594D01*
X2344358Y-3413513D01*
X2363219Y-3417265D01*
X2364653Y-3417550D01*
X2364653Y-3417550D01*
X2364654Y-3417550D01*
X2385347Y-3417550D01*
X2385347Y-3417550D01*
X2405642Y-3413513D01*
X2424760Y-3405594D01*
X2441966Y-3394098D01*
X2456598Y-3379465D01*
X2468094Y-3362260D01*
X2476013Y-3343142D01*
X2480050Y-3322846D01*
X2480050Y-3277153D01*
X2476013Y-3256858D01*
X2468094Y-3237740D01*
X2456598Y-3220534D01*
X2456598Y-3220534D01*
X2441966Y-3205902D01*
X2439422Y-3204203D01*
X2436499Y-3202250D01*
X2436499Y-3202250D01*
X2424760Y-3194406D01*
X2420768Y-3192752D01*
X3124950Y-3192752D01*
X3124950Y-3207247D01*
X3128107Y-3219030D01*
X3128702Y-3221249D01*
X3135949Y-3233801D01*
X3135949Y-3233801D01*
X3135949Y-3233801D01*
X3146198Y-3244051D01*
X3146199Y-3244051D01*
X3146199Y-3244051D01*
X3158751Y-3251298D01*
X3158751Y-3251298D01*
X3158751Y-3251298D01*
X3172752Y-3255050D01*
X3172753Y-3255050D01*
X3187247Y-3255050D01*
X3187247Y-3255050D01*
X3201248Y-3251298D01*
X3213801Y-3244051D01*
X3224051Y-3233801D01*
X3231298Y-3221248D01*
X3235050Y-3207247D01*
X3235050Y-3192752D01*
X3464950Y-3192752D01*
X3464950Y-3207247D01*
X3468107Y-3219030D01*
X3468702Y-3221249D01*
X3475949Y-3233801D01*
X3475949Y-3233801D01*
X3475949Y-3233801D01*
X3486198Y-3244051D01*
X3486199Y-3244051D01*
X3486199Y-3244051D01*
X3498751Y-3251298D01*
X3498751Y-3251298D01*
X3498751Y-3251298D01*
X3512752Y-3255050D01*
X3512753Y-3255050D01*
X3527247Y-3255050D01*
X3527247Y-3255050D01*
X3541248Y-3251298D01*
X3553801Y-3244051D01*
X3564051Y-3233801D01*
X3571298Y-3221248D01*
X3575050Y-3207247D01*
X3575050Y-3192752D01*
X3571298Y-3178751D01*
X3564051Y-3166198D01*
X3553801Y-3155949D01*
X3553801Y-3155949D01*
X3553801Y-3155949D01*
X3541249Y-3148702D01*
X3541249Y-3148702D01*
X3540101Y-3148394D01*
X3527247Y-3144950D01*
X3512752Y-3144950D01*
X3499899Y-3148394D01*
X3498751Y-3148702D01*
X3486199Y-3155949D01*
X3486198Y-3155949D01*
X3475949Y-3166198D01*
X3475949Y-3166199D01*
X3468702Y-3178751D01*
X3468702Y-3178751D01*
X3464950Y-3192752D01*
X3235050Y-3192752D01*
X3231298Y-3178751D01*
X3224051Y-3166198D01*
X3213801Y-3155949D01*
X3213801Y-3155949D01*
X3213801Y-3155949D01*
X3201249Y-3148702D01*
X3201249Y-3148702D01*
X3200101Y-3148394D01*
X3187247Y-3144950D01*
X3172752Y-3144950D01*
X3159899Y-3148394D01*
X3158751Y-3148702D01*
X3146199Y-3155949D01*
X3146198Y-3155949D01*
X3135949Y-3166198D01*
X3135949Y-3166199D01*
X3128702Y-3178751D01*
X3128702Y-3178751D01*
X3124950Y-3192752D01*
X2420768Y-3192752D01*
X2405642Y-3186487D01*
X2405641Y-3186487D01*
X2385347Y-3182450D01*
X2385347Y-3182450D01*
X2364654Y-3182450D01*
X2364653Y-3182450D01*
X2344359Y-3186487D01*
X2344358Y-3186487D01*
X2325240Y-3194406D01*
X2308034Y-3205902D01*
X2293402Y-3220534D01*
X2281906Y-3237740D01*
X2273987Y-3256858D01*
X2273987Y-3256859D01*
X2269950Y-3277153D01*
X2230050Y-3277153D01*
X2226013Y-3256858D01*
X2218094Y-3237740D01*
X2206598Y-3220534D01*
X2206598Y-3220534D01*
X2191966Y-3205902D01*
X2183363Y-3200154D01*
X2174760Y-3194406D01*
X2170769Y-3192753D01*
X2155642Y-3186487D01*
X2155641Y-3186487D01*
X2135347Y-3182450D01*
X2135347Y-3182450D01*
X2114654Y-3182450D01*
X2114653Y-3182450D01*
X2094359Y-3186487D01*
X2094358Y-3186487D01*
X2075240Y-3194406D01*
X2058034Y-3205902D01*
X2043402Y-3220534D01*
X2031906Y-3237740D01*
X2023987Y-3256858D01*
X2023987Y-3256859D01*
X2019950Y-3277153D01*
X1980050Y-3277153D01*
X1976013Y-3256858D01*
X1968094Y-3237740D01*
X1956598Y-3220534D01*
X1956597Y-3220534D01*
X1941966Y-3205902D01*
X1933363Y-3200154D01*
X1924760Y-3194406D01*
X1920769Y-3192753D01*
X1905642Y-3186487D01*
X1905641Y-3186487D01*
X1885347Y-3182450D01*
X1885346Y-3182450D01*
X1864653Y-3182450D01*
X1864653Y-3182450D01*
X1844359Y-3186487D01*
X1844358Y-3186487D01*
X1825240Y-3194406D01*
X1808034Y-3205902D01*
X1793402Y-3220534D01*
X1781906Y-3237740D01*
X1773987Y-3256858D01*
X1773987Y-3256859D01*
X1769950Y-3277153D01*
X1730050Y-3277153D01*
X1730050Y-3222073D01*
X1729765Y-3219030D01*
X1729765Y-3219030D01*
X1725279Y-3206212D01*
X1725279Y-3206212D01*
X1717215Y-3195285D01*
X1706288Y-3187221D01*
X1706288Y-3187221D01*
X1693470Y-3182735D01*
X1690427Y-3182450D01*
X1690427Y-3182450D01*
X1559573Y-3182450D01*
X1559573Y-3182450D01*
X1556530Y-3182735D01*
X1556530Y-3182735D01*
X1543712Y-3187221D01*
X1543712Y-3187221D01*
X1532785Y-3195285D01*
X1524721Y-3206212D01*
X1524721Y-3206212D01*
X1520235Y-3219030D01*
X1520235Y-3219030D01*
X1519950Y-3222073D01*
X200000Y-3222073D01*
X200000Y-3042752D01*
X4444950Y-3042752D01*
X4444950Y-3057247D01*
X4448702Y-3071248D01*
X4448702Y-3071249D01*
X4455949Y-3083801D01*
X4455949Y-3083801D01*
X4455949Y-3083801D01*
X4466199Y-3094051D01*
X4466199Y-3094051D01*
X4466199Y-3094051D01*
X4478751Y-3101298D01*
X4478751Y-3101298D01*
X4478752Y-3101298D01*
X4492753Y-3105050D01*
X4492753Y-3105050D01*
X4507247Y-3105050D01*
X4507248Y-3105050D01*
X4521249Y-3101298D01*
X4533802Y-3094051D01*
X4544051Y-3083801D01*
X4551298Y-3071248D01*
X4555050Y-3057247D01*
X4555050Y-3042752D01*
X4551298Y-3028751D01*
X4544051Y-3016198D01*
X4533802Y-3005949D01*
X4533801Y-3005949D01*
X4533801Y-3005949D01*
X4521249Y-2998702D01*
X4521249Y-2998702D01*
X4520101Y-2998394D01*
X4507248Y-2994950D01*
X4492753Y-2994950D01*
X4479899Y-2998394D01*
X4478751Y-2998702D01*
X4466199Y-3005949D01*
X4466198Y-3005949D01*
X4455949Y-3016198D01*
X4455949Y-3016199D01*
X4448702Y-3028751D01*
X4448702Y-3028751D01*
X4444950Y-3042752D01*
X200000Y-3042752D01*
X200000Y-2610253D01*
X1394950Y-2610253D01*
X1394950Y-2624748D01*
X1398702Y-2638749D01*
X1398702Y-2638749D01*
X1405949Y-2651301D01*
X1405949Y-2651301D01*
X1405949Y-2651302D01*
X1416198Y-2661551D01*
X1416199Y-2661551D01*
X1416199Y-2661551D01*
X1428751Y-2668798D01*
X1428751Y-2668798D01*
X1428751Y-2668798D01*
X1442752Y-2672550D01*
X1442753Y-2672550D01*
X1457247Y-2672550D01*
X1457247Y-2672550D01*
X1471248Y-2668798D01*
X1483801Y-2661551D01*
X1494051Y-2651302D01*
X1501298Y-2638749D01*
X1505050Y-2624748D01*
X1505050Y-2610253D01*
X2494950Y-2610253D01*
X2494950Y-2624748D01*
X2498702Y-2638749D01*
X2498702Y-2638749D01*
X2505949Y-2651301D01*
X2505949Y-2651301D01*
X2505949Y-2651302D01*
X2516199Y-2661551D01*
X2516199Y-2661551D01*
X2516199Y-2661551D01*
X2528751Y-2668798D01*
X2528751Y-2668798D01*
X2528752Y-2668798D01*
X2542753Y-2672550D01*
X2542753Y-2672550D01*
X2557247Y-2672550D01*
X2557248Y-2672550D01*
X2571249Y-2668798D01*
X2583802Y-2661551D01*
X2594051Y-2651302D01*
X2601298Y-2638749D01*
X2605050Y-2624748D01*
X2605050Y-2610253D01*
X2601298Y-2596252D01*
X2594110Y-2583801D01*
X2594051Y-2583699D01*
X2594051Y-2583698D01*
X2583802Y-2573449D01*
X2583801Y-2573449D01*
X2571249Y-2566202D01*
X2571249Y-2566202D01*
X2570101Y-2565894D01*
X2557248Y-2562450D01*
X2542753Y-2562450D01*
X2529899Y-2565894D01*
X2528751Y-2566202D01*
X2516199Y-2573449D01*
X2516198Y-2573449D01*
X2505949Y-2583698D01*
X2505949Y-2583699D01*
X2498702Y-2596251D01*
X2498702Y-2596252D01*
X2494950Y-2610253D01*
X1505050Y-2610253D01*
X1501298Y-2596252D01*
X1494110Y-2583801D01*
X1494051Y-2583699D01*
X1494051Y-2583698D01*
X1483802Y-2573449D01*
X1483801Y-2573449D01*
X1471249Y-2566202D01*
X1471249Y-2566202D01*
X1470101Y-2565894D01*
X1457247Y-2562450D01*
X1442752Y-2562450D01*
X1429899Y-2565894D01*
X1428751Y-2566202D01*
X1416199Y-2573449D01*
X1416198Y-2573449D01*
X1405949Y-2583698D01*
X1405949Y-2583699D01*
X1398702Y-2596251D01*
X1398702Y-2596252D01*
X1394950Y-2610253D01*
X200000Y-2610253D01*
X200000Y-2542753D01*
X1754950Y-2542753D01*
X1754950Y-2557248D01*
X1757349Y-2566202D01*
X1758702Y-2571249D01*
X1765949Y-2583801D01*
X1765949Y-2583801D01*
X1765949Y-2583802D01*
X1776198Y-2594051D01*
X1776199Y-2594051D01*
X1776199Y-2594051D01*
X1788751Y-2601298D01*
X1788751Y-2601298D01*
X1788751Y-2601298D01*
X1802752Y-2605050D01*
X1802753Y-2605050D01*
X1817247Y-2605050D01*
X1817247Y-2605050D01*
X1831248Y-2601298D01*
X1843801Y-2594051D01*
X1854051Y-2583802D01*
X1861298Y-2571249D01*
X1865050Y-2557248D01*
X1865050Y-2542753D01*
X1861298Y-2528752D01*
X1854051Y-2516199D01*
X1843801Y-2505949D01*
X1843801Y-2505949D01*
X1843801Y-2505949D01*
X1831249Y-2498702D01*
X1831249Y-2498702D01*
X1830101Y-2498394D01*
X1817247Y-2494950D01*
X1802752Y-2494950D01*
X1789899Y-2498394D01*
X1788751Y-2498702D01*
X1776199Y-2505949D01*
X1776198Y-2505949D01*
X1765949Y-2516198D01*
X1765949Y-2516199D01*
X1758702Y-2528751D01*
X1758702Y-2528752D01*
X1754950Y-2542753D01*
X200000Y-2542753D01*
X200000Y-2192753D01*
X2894950Y-2192753D01*
X2894950Y-2207248D01*
X2898702Y-2221249D01*
X2898702Y-2221249D01*
X2905949Y-2233801D01*
X2905949Y-2233801D01*
X2905949Y-2233802D01*
X2916198Y-2244051D01*
X2916199Y-2244051D01*
X2916199Y-2244051D01*
X2928751Y-2251298D01*
X2928751Y-2251298D01*
X2928751Y-2251298D01*
X2942752Y-2255050D01*
X2942753Y-2255050D01*
X2957247Y-2255050D01*
X2957247Y-2255050D01*
X2971248Y-2251298D01*
X2983801Y-2244051D01*
X2994051Y-2233802D01*
X3001298Y-2221249D01*
X3005050Y-2207248D01*
X3005050Y-2192753D01*
X3001298Y-2178752D01*
X2994051Y-2166199D01*
X2983801Y-2155949D01*
X2983801Y-2155949D01*
X2983801Y-2155949D01*
X2971249Y-2148702D01*
X2971249Y-2148702D01*
X2970101Y-2148394D01*
X2957247Y-2144950D01*
X2942752Y-2144950D01*
X2929899Y-2148394D01*
X2928751Y-2148702D01*
X2916199Y-2155949D01*
X2916198Y-2155949D01*
X2905949Y-2166198D01*
X2905949Y-2166199D01*
X2898702Y-2178751D01*
X2898702Y-2178752D01*
X2894950Y-2192753D01*
X200000Y-2192753D01*
X200000Y-2022752D01*
X2894950Y-2022752D01*
X2894950Y-2037247D01*
X2898702Y-2051248D01*
X2898702Y-2051249D01*
X2905949Y-2063801D01*
X2905949Y-2063801D01*
X2905949Y-2063801D01*
X2916198Y-2074051D01*
X2916199Y-2074051D01*
X2916199Y-2074051D01*
X2928751Y-2081298D01*
X2928751Y-2081298D01*
X2928751Y-2081298D01*
X2942752Y-2085050D01*
X2942753Y-2085050D01*
X2957247Y-2085050D01*
X2957247Y-2085050D01*
X2971248Y-2081298D01*
X2983801Y-2074051D01*
X2994051Y-2063801D01*
X3001298Y-2051248D01*
X3005050Y-2037247D01*
X3005050Y-2022752D01*
X3001298Y-2008751D01*
X2997863Y-2002801D01*
X2994051Y-1996199D01*
X2994051Y-1996198D01*
X2983802Y-1985949D01*
X2983801Y-1985949D01*
X2971249Y-1978702D01*
X2971249Y-1978702D01*
X2970101Y-1978394D01*
X2957247Y-1974950D01*
X2942752Y-1974950D01*
X2929899Y-1978394D01*
X2928751Y-1978702D01*
X2916199Y-1985949D01*
X2916198Y-1985949D01*
X2905949Y-1996198D01*
X2905949Y-1996199D01*
X2898702Y-2008751D01*
X2898702Y-2008751D01*
X2894950Y-2022752D01*
X200000Y-2022752D01*
X200000Y-1951502D01*
X1284950Y-1951502D01*
X1284950Y-1965997D01*
X1288354Y-1978702D01*
X1288702Y-1979999D01*
X1295949Y-1992551D01*
X1295949Y-1992551D01*
X1295949Y-1992551D01*
X1306199Y-2002801D01*
X1306199Y-2002801D01*
X1306199Y-2002801D01*
X1318751Y-2010048D01*
X1318751Y-2010048D01*
X1318752Y-2010048D01*
X1332753Y-2013800D01*
X1332753Y-2013800D01*
X1347247Y-2013800D01*
X1347248Y-2013800D01*
X1361249Y-2010048D01*
X1373802Y-2002801D01*
X1384051Y-1992551D01*
X1391298Y-1979998D01*
X1395050Y-1965997D01*
X1395050Y-1951502D01*
X1391298Y-1937501D01*
X1384051Y-1924948D01*
X1373802Y-1914699D01*
X1373801Y-1914699D01*
X1373801Y-1914699D01*
X1361249Y-1907452D01*
X1361249Y-1907452D01*
X1360101Y-1907144D01*
X1347248Y-1903700D01*
X1332753Y-1903700D01*
X1319899Y-1907144D01*
X1318751Y-1907452D01*
X1306199Y-1914699D01*
X1306198Y-1914699D01*
X1295949Y-1924948D01*
X1295949Y-1924949D01*
X1288702Y-1937501D01*
X1288702Y-1937501D01*
X1284950Y-1951502D01*
X200000Y-1951502D01*
X200000Y-1682752D01*
X2844950Y-1682752D01*
X2844950Y-1697247D01*
X2848702Y-1711248D01*
X2848702Y-1711249D01*
X2855949Y-1723801D01*
X2855949Y-1723801D01*
X2855949Y-1723801D01*
X2866198Y-1734051D01*
X2866199Y-1734051D01*
X2866199Y-1734051D01*
X2878751Y-1741298D01*
X2878751Y-1741298D01*
X2878751Y-1741298D01*
X2892752Y-1745050D01*
X2892753Y-1745050D01*
X2907247Y-1745050D01*
X2907247Y-1745050D01*
X2921248Y-1741298D01*
X2933801Y-1734051D01*
X2944051Y-1723801D01*
X2951298Y-1711248D01*
X2955050Y-1697247D01*
X2955050Y-1682752D01*
X2951298Y-1668751D01*
X2944051Y-1656198D01*
X2933801Y-1645949D01*
X2933801Y-1645949D01*
X2933801Y-1645949D01*
X2921249Y-1638702D01*
X2921249Y-1638702D01*
X2920101Y-1638394D01*
X2907247Y-1634950D01*
X2892752Y-1634950D01*
X2879899Y-1638394D01*
X2878751Y-1638702D01*
X2866199Y-1645949D01*
X2866198Y-1645949D01*
X2855949Y-1656198D01*
X2855949Y-1656199D01*
X2848702Y-1668751D01*
X2848702Y-1668751D01*
X2844950Y-1682752D01*
X200000Y-1682752D01*
X200000Y-1472752D01*
X1394950Y-1472752D01*
X1394950Y-1487247D01*
X1395568Y-1489552D01*
X1398702Y-1501249D01*
X1405949Y-1513801D01*
X1405949Y-1513801D01*
X1405949Y-1513801D01*
X1416198Y-1524051D01*
X1416199Y-1524051D01*
X1416199Y-1524051D01*
X1428751Y-1531298D01*
X1428751Y-1531298D01*
X1428751Y-1531298D01*
X1442752Y-1535050D01*
X1442753Y-1535050D01*
X1457247Y-1535050D01*
X1457247Y-1535050D01*
X1471248Y-1531298D01*
X1483801Y-1524051D01*
X1494051Y-1513801D01*
X1501298Y-1501248D01*
X1505050Y-1487247D01*
X1505050Y-1472752D01*
X1501298Y-1458751D01*
X1494430Y-1446854D01*
X1494051Y-1446199D01*
X1494051Y-1446198D01*
X1483802Y-1435949D01*
X1483801Y-1435949D01*
X1471249Y-1428702D01*
X1471249Y-1428702D01*
X1470101Y-1428394D01*
X1457247Y-1424950D01*
X1442752Y-1424950D01*
X1429899Y-1428394D01*
X1428751Y-1428702D01*
X1416199Y-1435949D01*
X1416198Y-1435949D01*
X1405949Y-1446198D01*
X1405949Y-1446199D01*
X1398702Y-1458751D01*
X1398702Y-1458751D01*
X1394950Y-1472752D01*
X200000Y-1472752D01*
X200000Y-1322753D01*
X1594950Y-1322753D01*
X1594950Y-1337248D01*
X1597874Y-1348161D01*
X1598702Y-1351249D01*
X1605949Y-1363801D01*
X1605949Y-1363801D01*
X1605949Y-1363802D01*
X1616198Y-1374051D01*
X1616199Y-1374051D01*
X1616199Y-1374051D01*
X1628751Y-1381298D01*
X1628751Y-1381298D01*
X1628751Y-1381298D01*
X1642752Y-1385050D01*
X1642753Y-1385050D01*
X1657247Y-1385050D01*
X1657247Y-1385050D01*
X1671248Y-1381298D01*
X1683801Y-1374051D01*
X1694051Y-1363802D01*
X1701298Y-1351249D01*
X1705050Y-1337248D01*
X1705050Y-1322753D01*
X1701298Y-1308752D01*
X1699616Y-1305838D01*
X1694051Y-1296199D01*
X1694051Y-1296198D01*
X1683802Y-1285949D01*
X1683801Y-1285949D01*
X1671249Y-1278702D01*
X1671249Y-1278702D01*
X1670101Y-1278394D01*
X1657247Y-1274950D01*
X1642752Y-1274950D01*
X1629899Y-1278394D01*
X1628751Y-1278702D01*
X1616199Y-1285949D01*
X1616198Y-1285949D01*
X1605949Y-1296198D01*
X1605949Y-1296199D01*
X1598702Y-1308751D01*
X1598702Y-1308752D01*
X1594950Y-1322753D01*
X200000Y-1322753D01*
X200000Y-1192753D01*
X3344950Y-1192753D01*
X3344950Y-1207248D01*
X3348678Y-1221161D01*
X3348702Y-1221249D01*
X3355949Y-1233801D01*
X3355949Y-1233801D01*
X3355949Y-1233802D01*
X3366198Y-1244051D01*
X3366199Y-1244051D01*
X3366199Y-1244051D01*
X3378751Y-1251298D01*
X3378751Y-1251298D01*
X3378751Y-1251298D01*
X3392752Y-1255050D01*
X3392753Y-1255050D01*
X3407247Y-1255050D01*
X3407247Y-1255050D01*
X3421248Y-1251298D01*
X3433801Y-1244051D01*
X3444051Y-1233802D01*
X3451298Y-1221249D01*
X3455050Y-1207248D01*
X3455050Y-1207146D01*
X4663950Y-1207146D01*
X4666738Y-1221161D01*
X4666738Y-1221162D01*
X4672207Y-1234365D01*
X4672207Y-1234366D01*
X4680147Y-1246248D01*
X4680147Y-1246248D01*
X4688631Y-1254732D01*
X4691979Y-1260864D01*
X4691481Y-1267833D01*
X4688631Y-1272268D01*
X4680147Y-1280752D01*
X4680147Y-1280752D01*
X4672207Y-1292634D01*
X4672207Y-1292635D01*
X4666738Y-1305838D01*
X4666738Y-1305839D01*
X4663950Y-1319854D01*
X4663950Y-1319855D01*
X4663950Y-1334146D01*
X4663950Y-1334146D01*
X4663950Y-1334146D01*
X4666738Y-1348161D01*
X4666738Y-1348162D01*
X4672207Y-1361365D01*
X4672207Y-1361366D01*
X4680147Y-1373248D01*
X4680147Y-1373248D01*
X4688631Y-1381732D01*
X4691979Y-1387864D01*
X4691481Y-1394833D01*
X4688631Y-1399268D01*
X4680147Y-1407752D01*
X4680147Y-1407752D01*
X4672207Y-1419634D01*
X4672207Y-1419635D01*
X4666738Y-1432838D01*
X4666738Y-1432838D01*
X4663950Y-1446854D01*
X4663950Y-1446854D01*
X4663950Y-1461145D01*
X4663950Y-1461146D01*
X4663950Y-1461146D01*
X4666738Y-1475161D01*
X4666738Y-1475162D01*
X4672207Y-1488365D01*
X4672207Y-1488366D01*
X4680147Y-1500248D01*
X4680147Y-1500248D01*
X4690252Y-1510353D01*
X4690252Y-1510353D01*
X4702134Y-1518292D01*
X4702135Y-1518293D01*
X4702135Y-1518293D01*
X4715338Y-1523762D01*
X4715338Y-1523762D01*
X4715339Y-1523762D01*
X4729354Y-1526550D01*
X4729355Y-1526550D01*
X4743646Y-1526550D01*
X4756211Y-1524051D01*
X4757662Y-1523762D01*
X4770865Y-1518293D01*
X4782748Y-1510353D01*
X4782748Y-1510353D01*
X4791232Y-1501869D01*
X4797364Y-1498521D01*
X4804333Y-1499019D01*
X4808768Y-1501869D01*
X4817252Y-1510353D01*
X4817252Y-1510353D01*
X4829134Y-1518292D01*
X4829135Y-1518293D01*
X4829135Y-1518293D01*
X4842338Y-1523762D01*
X4842338Y-1523762D01*
X4842339Y-1523762D01*
X4856354Y-1526550D01*
X4856355Y-1526550D01*
X4870646Y-1526550D01*
X4883211Y-1524051D01*
X4884662Y-1523762D01*
X4897865Y-1518293D01*
X4909748Y-1510353D01*
X4919853Y-1500248D01*
X4927793Y-1488365D01*
X4933262Y-1475162D01*
X4936050Y-1461145D01*
X4936050Y-1446854D01*
X4936050Y-1446854D01*
X4933262Y-1432838D01*
X4933262Y-1432838D01*
X4933262Y-1432838D01*
X4927793Y-1419635D01*
X4927793Y-1419635D01*
X4927793Y-1419634D01*
X4919853Y-1407752D01*
X4919853Y-1407752D01*
X4911369Y-1399268D01*
X4908021Y-1393136D01*
X4908519Y-1386167D01*
X4911369Y-1381732D01*
X4919853Y-1373248D01*
X4919853Y-1373248D01*
X4927793Y-1361365D01*
X4933262Y-1348162D01*
X4935433Y-1337248D01*
X4936050Y-1334146D01*
X4936050Y-1319854D01*
X4933262Y-1305839D01*
X4933262Y-1305838D01*
X4933262Y-1305838D01*
X4927793Y-1292635D01*
X4927793Y-1292635D01*
X4927793Y-1292634D01*
X4919853Y-1280752D01*
X4919853Y-1280752D01*
X4911369Y-1272268D01*
X4908021Y-1266136D01*
X4908519Y-1259167D01*
X4911369Y-1254732D01*
X4919853Y-1246248D01*
X4919853Y-1246248D01*
X4927793Y-1234365D01*
X4933262Y-1221162D01*
X4936050Y-1207146D01*
X4936050Y-1192855D01*
X4936050Y-1192854D01*
X4933262Y-1178839D01*
X4933262Y-1178838D01*
X4933262Y-1178838D01*
X4927793Y-1165635D01*
X4927793Y-1165635D01*
X4927793Y-1165634D01*
X4919853Y-1153752D01*
X4919853Y-1153752D01*
X4911369Y-1145268D01*
X4908021Y-1139136D01*
X4908519Y-1132167D01*
X4911369Y-1127732D01*
X4919853Y-1119248D01*
X4919853Y-1119248D01*
X4927793Y-1107365D01*
X4933262Y-1094162D01*
X4936050Y-1080146D01*
X4936050Y-1065855D01*
X4936050Y-1065854D01*
X4933262Y-1051839D01*
X4933262Y-1051838D01*
X4933262Y-1051838D01*
X4927793Y-1038635D01*
X4927793Y-1038634D01*
X4927793Y-1038634D01*
X4919853Y-1026752D01*
X4919853Y-1026752D01*
X4909748Y-1016647D01*
X4909748Y-1016647D01*
X4897866Y-1008707D01*
X4897865Y-1008707D01*
X4884662Y-1003238D01*
X4884661Y-1003238D01*
X4870646Y-1000450D01*
X4870646Y-1000450D01*
X4856355Y-1000450D01*
X4856354Y-1000450D01*
X4842339Y-1003238D01*
X4842338Y-1003238D01*
X4829135Y-1008707D01*
X4829134Y-1008707D01*
X4828339Y-1009239D01*
X4821671Y-1011326D01*
X4814933Y-1009478D01*
X4810264Y-1004280D01*
X4809050Y-998928D01*
X4809050Y-891525D01*
X4809050Y-891525D01*
X4807887Y-885677D01*
X4807887Y-885677D01*
X4803455Y-879045D01*
X4796823Y-874613D01*
X4796823Y-874613D01*
X4790975Y-873450D01*
X4790975Y-873450D01*
X4682025Y-873450D01*
X4682025Y-873450D01*
X4676177Y-874613D01*
X4676177Y-874613D01*
X4669545Y-879045D01*
X4665113Y-885677D01*
X4665113Y-885677D01*
X4663950Y-891525D01*
X4663950Y-1000475D01*
X4665113Y-1006323D01*
X4665113Y-1006323D01*
X4669545Y-1012955D01*
X4676177Y-1017387D01*
X4676177Y-1017387D01*
X4682025Y-1018550D01*
X4682025Y-1018550D01*
X4789428Y-1018550D01*
X4796132Y-1020518D01*
X4800708Y-1025799D01*
X4801702Y-1032715D01*
X4799739Y-1037839D01*
X4799207Y-1038634D01*
X4799207Y-1038635D01*
X4793738Y-1051838D01*
X4793738Y-1051839D01*
X4790950Y-1065854D01*
X4790950Y-1065855D01*
X4790950Y-1080146D01*
X4790950Y-1080146D01*
X4790950Y-1080146D01*
X4793738Y-1094161D01*
X4793738Y-1094162D01*
X4799207Y-1107365D01*
X4799207Y-1107366D01*
X4807147Y-1119248D01*
X4807147Y-1119248D01*
X4815631Y-1127732D01*
X4816065Y-1128526D01*
X4816789Y-1129069D01*
X4817713Y-1131545D01*
X4818979Y-1133864D01*
X4818915Y-1134767D01*
X4819231Y-1135615D01*
X4818669Y-1138197D01*
X4818481Y-1140833D01*
X4817899Y-1141739D01*
X4817746Y-1142443D01*
X4815631Y-1145268D01*
X4808768Y-1152131D01*
X4802636Y-1155479D01*
X4795667Y-1154981D01*
X4791232Y-1152131D01*
X4782748Y-1143647D01*
X4782748Y-1143647D01*
X4770866Y-1135707D01*
X4770865Y-1135707D01*
X4757662Y-1130238D01*
X4757661Y-1130238D01*
X4743646Y-1127450D01*
X4743646Y-1127450D01*
X4729355Y-1127450D01*
X4729354Y-1127450D01*
X4715339Y-1130238D01*
X4715338Y-1130238D01*
X4702135Y-1135707D01*
X4702134Y-1135707D01*
X4690252Y-1143647D01*
X4690252Y-1143647D01*
X4680147Y-1153752D01*
X4680147Y-1153752D01*
X4672207Y-1165634D01*
X4672207Y-1165635D01*
X4666738Y-1178838D01*
X4666738Y-1178839D01*
X4663950Y-1192854D01*
X4663950Y-1192855D01*
X4663950Y-1207146D01*
X4663950Y-1207146D01*
X4663950Y-1207146D01*
X3455050Y-1207146D01*
X3455050Y-1192753D01*
X3451298Y-1178752D01*
X3444051Y-1166199D01*
X3433801Y-1155949D01*
X3433801Y-1155949D01*
X3433801Y-1155949D01*
X3421249Y-1148702D01*
X3421249Y-1148702D01*
X3420101Y-1148394D01*
X3407247Y-1144950D01*
X3392752Y-1144950D01*
X3379899Y-1148394D01*
X3378751Y-1148702D01*
X3366199Y-1155949D01*
X3366198Y-1155949D01*
X3355949Y-1166198D01*
X3355949Y-1166199D01*
X3348702Y-1178751D01*
X3348702Y-1178752D01*
X3344950Y-1192753D01*
X200000Y-1192753D01*
X200000Y-212400D01*
X201968Y-205696D01*
X207249Y-201121D01*
X212400Y-200000D01*
X5787600Y-200000D01*
X5794304Y-201968D01*
G37*
%TD.AperFunction*%
%TD*%
M02*
