ISO-10303-21;
HEADER;
FILE_DESCRIPTION(('Open CASCADE Model'),'2;1');
FILE_NAME('Open CASCADE Shape Model','2026-10-04T18:12:21',('Author'),(
    'Open CASCADE'),'Open CASCADE STEP processor 7.8','Open CASCADE 7.8'
  ,'Unknown');
FILE_SCHEMA(('AUTOMOTIVE_DESIGN { 1 0 10303 214 1 1 1 1 }'));
ENDSEC;
DATA;
#1 = APPLICATION_PROTOCOL_DEFINITION('international standard',
  'automotive_design',2000,#2);
#2 = APPLICATION_CONTEXT(
  'core data for automotive mechanical design processes');
#3 = SHAPE_DEFINITION_REPRESENTATION(#4,#10);
#4 = PRODUCT_DEFINITION_SHAPE('','',#5);
#5 = PRODUCT_DEFINITION('design','',#6,#9);
#6 = PRODUCT_DEFINITION_FORMATION('','',#7);
#7 = PRODUCT('Open CASCADE STEP translator 7.8 22',
  'Open CASCADE STEP translator 7.8 22','',(#8));
#8 = PRODUCT_CONTEXT('',#2,'mechanical');
#9 = PRODUCT_DEFINITION_CONTEXT('part definition',#2,'design');
#10 = ADVANCED_BREP_SHAPE_REPRESENTATION('',(#11,#15),#873);
#11 = AXIS2_PLACEMENT_3D('',#12,#13,#14);
#12 = CARTESIAN_POINT('',(0.,0.,0.));
#13 = DIRECTION('',(0.,0.,1.));
#14 = DIRECTION('',(1.,0.,-0.));
#15 = MANIFOLD_SOLID_BREP('',#16);
#16 = CLOSED_SHELL('',(#17,#378,#729,#733,#840,#863,#867));
#17 = ADVANCED_FACE('',(#18),#32,.T.);
#18 = FACE_BOUND('',#19,.F.);
#19 = EDGE_LOOP('',(#20,#50,#77,#78));
#20 = ORIENTED_EDGE('',*,*,#21,.T.);
#21 = EDGE_CURVE('',#22,#24,#26,.T.);
#22 = VERTEX_POINT('',#23);
#23 = CARTESIAN_POINT('',(0.5,-7.979727989493E-17,-19.));
#24 = VERTEX_POINT('',#25);
#25 = CARTESIAN_POINT('',(0.5,0.,-1.2));
#26 = SEAM_CURVE('',#27,(#31,#43),.PCURVE_S1.);
#27 = LINE('',#28,#29);
#28 = CARTESIAN_POINT('',(0.5,0.,-19.));
#29 = VECTOR('',#30,1.);
#30 = DIRECTION('',(0.,0.,1.));
#31 = PCURVE('',#32,#37);
#32 = CYLINDRICAL_SURFACE('',#33,0.5);
#33 = AXIS2_PLACEMENT_3D('',#34,#35,#36);
#34 = CARTESIAN_POINT('',(0.,0.,-19.));
#35 = DIRECTION('',(-0.,-0.,-1.));
#36 = DIRECTION('',(1.,0.,0.));
#37 = DEFINITIONAL_REPRESENTATION('',(#38),#42);
#38 = LINE('',#39,#40);
#39 = CARTESIAN_POINT('',(-0.,0.));
#40 = VECTOR('',#41,1.);
#41 = DIRECTION('',(-0.,-1.));
#42 = ( GEOMETRIC_REPRESENTATION_CONTEXT(2)
PARAMETRIC_REPRESENTATION_CONTEXT() REPRESENTATION_CONTEXT('2D SPACE',''
  ) );
#43 = PCURVE('',#32,#44);
#44 = DEFINITIONAL_REPRESENTATION('',(#45),#49);
#45 = LINE('',#46,#47);
#46 = CARTESIAN_POINT('',(-6.28318530718,0.));
#47 = VECTOR('',#48,1.);
#48 = DIRECTION('',(-0.,-1.));
#49 = ( GEOMETRIC_REPRESENTATION_CONTEXT(2)
PARAMETRIC_REPRESENTATION_CONTEXT() REPRESENTATION_CONTEXT('2D SPACE',''
  ) );
#50 = ORIENTED_EDGE('',*,*,#51,.T.);
#51 = EDGE_CURVE('',#24,#24,#52,.T.);
#52 = SURFACE_CURVE('',#53,(#58,#65),.PCURVE_S1.);
#53 = CIRCLE('',#54,0.5);
#54 = AXIS2_PLACEMENT_3D('',#55,#56,#57);
#55 = CARTESIAN_POINT('',(0.,0.,-1.2));
#56 = DIRECTION('',(0.,0.,1.));
#57 = DIRECTION('',(1.,0.,0.));
#58 = PCURVE('',#32,#59);
#59 = DEFINITIONAL_REPRESENTATION('',(#60),#64);
#60 = LINE('',#61,#62);
#61 = CARTESIAN_POINT('',(-0.,-17.8));
#62 = VECTOR('',#63,1.);
#63 = DIRECTION('',(-1.,0.));
#64 = ( GEOMETRIC_REPRESENTATION_CONTEXT(2)
PARAMETRIC_REPRESENTATION_CONTEXT() REPRESENTATION_CONTEXT('2D SPACE',''
  ) );
#65 = PCURVE('',#66,#71);
#66 = PLANE('',#67);
#67 = AXIS2_PLACEMENT_3D('',#68,#69,#70);
#68 = CARTESIAN_POINT('',(-3.204937810639E-17,4.3687976227E-17,-1.2));
#69 = DIRECTION('',(0.,0.,1.));
#70 = DIRECTION('',(1.,0.,-0.));
#71 = DEFINITIONAL_REPRESENTATION('',(#72),#76);
#72 = CIRCLE('',#73,0.5);
#73 = AXIS2_PLACEMENT_2D('',#74,#75);
#74 = CARTESIAN_POINT('',(3.204937810639E-17,-4.3687976227E-17));
#75 = DIRECTION('',(1.,0.));
#76 = ( GEOMETRIC_REPRESENTATION_CONTEXT(2)
PARAMETRIC_REPRESENTATION_CONTEXT() REPRESENTATION_CONTEXT('2D SPACE',''
  ) );
#77 = ORIENTED_EDGE('',*,*,#21,.F.);
#78 = ORIENTED_EDGE('',*,*,#79,.F.);
#79 = EDGE_CURVE('',#22,#22,#80,.T.);
#80 = SURFACE_CURVE('',#81,(#86,#93),.PCURVE_S1.);
#81 = CIRCLE('',#82,0.5);
#82 = AXIS2_PLACEMENT_3D('',#83,#84,#85);
#83 = CARTESIAN_POINT('',(0.,0.,-19.));
#84 = DIRECTION('',(0.,0.,1.));
#85 = DIRECTION('',(1.,0.,0.));
#86 = PCURVE('',#32,#87);
#87 = DEFINITIONAL_REPRESENTATION('',(#88),#92);
#88 = LINE('',#89,#90);
#89 = CARTESIAN_POINT('',(-0.,0.));
#90 = VECTOR('',#91,1.);
#91 = DIRECTION('',(-1.,0.));
#92 = ( GEOMETRIC_REPRESENTATION_CONTEXT(2)
PARAMETRIC_REPRESENTATION_CONTEXT() REPRESENTATION_CONTEXT('2D SPACE',''
  ) );
#93 = PCURVE('',#94,#319);
#94 = ( BOUNDED_SURFACE() B_SPLINE_SURFACE(6,9,(
    (#95,#96,#97,#98,#99,#100,#101,#102,#103,#104,#105,#106,#107,#108
      ,#109,#110,#111,#112,#113,#114,#115,#116,#117,#118,#119,#120,#121
      ,#122,#123,#124,#125,#126)
    ,(#127,#128,#129,#130,#131,#132,#133,#134,#135,#136,#137,#138,#139
      ,#140,#141,#142,#143,#144,#145,#146,#147,#148,#149,#150,#151,#152
      ,#153,#154,#155,#156,#157,#158)
    ,(#159,#160,#161,#162,#163,#164,#165,#166,#167,#168,#169,#170,#171
      ,#172,#173,#174,#175,#176,#177,#178,#179,#180,#181,#182,#183,#184
      ,#185,#186,#187,#188,#189,#190)
    ,(#191,#192,#193,#194,#195,#196,#197,#198,#199,#200,#201,#202,#203
      ,#204,#205,#206,#207,#208,#209,#210,#211,#212,#213,#214,#215,#216
      ,#217,#218,#219,#220,#221,#222)
    ,(#223,#224,#225,#226,#227,#228,#229,#230,#231,#232,#233,#234,#235
      ,#236,#237,#238,#239,#240,#241,#242,#243,#244,#245,#246,#247,#248
      ,#249,#250,#251,#252,#253,#254)
    ,(#255,#256,#257,#258,#259,#260,#261,#262,#263,#264,#265,#266,#267
      ,#268,#269,#270,#271,#272,#273,#274,#275,#276,#277,#278,#279,#280
      ,#281,#282,#283,#284,#285,#286)
    ,(#287,#288,#289,#290,#291,#292,#293,#294,#295,#296,#297,#298,#299
      ,#300,#301,#302,#303,#304,#305,#306,#307,#308,#309,#310,#311,#312
      ,#313,#314,#315,#316,#317,#318
)),.UNSPECIFIED.,.T.,.F.,.F.) B_SPLINE_SURFACE_WITH_KNOTS((1,6,6,1),(10,
    7,8,7,10),(-6.28318530718,0.,6.28318530718,12.566370614359),(0.,
    3.08058436015,4.735878895875,6.391173431599,9.471757791749),
.UNSPECIFIED.) GEOMETRIC_REPRESENTATION_ITEM() RATIONAL_B_SPLINE_SURFACE
((
    (1.669078461068,1.669078461068,1.669078461068,1.669078461068
      ,1.669078461068,1.669078461068,1.669078461068,1.669078461068
      ,1.669078461068,1.669078461068,1.669078461068,1.669078461068
      ,1.669078461068,1.669078461068,1.669078461068,1.669078461068
      ,1.669078461068,1.669078461068,1.669078461068,1.669078461068
      ,1.669078461068,1.669078461068,1.669078461068,1.669078461068
      ,1.669078461068,1.669078461068,1.669078461068,1.669078461068
      ,1.669078461068,1.669078461068,1.669078461068,1.669078461068)
    ,(1.03672962321,1.03672962321,1.03672962321,1.03672962321
      ,1.03672962321,1.03672962321,1.03672962321,1.03672962321
      ,1.03672962321,1.03672962321,1.03672962321,1.03672962321
      ,1.03672962321,1.03672962321,1.03672962321,1.03672962321
      ,1.03672962321,1.03672962321,1.03672962321,1.03672962321
      ,1.03672962321,1.03672962321,1.03672962321,1.03672962321
      ,1.03672962321,1.03672962321,1.03672962321,1.03672962321
      ,1.03672962321,1.03672962321,1.03672962321,1.03672962321)
    ,(1.038346699848,1.038346699848,1.038346699848,1.038346699848
      ,1.038346699848,1.038346699848,1.038346699848,1.038346699848
      ,1.038346699848,1.038346699848,1.038346699847,1.038346699848
      ,1.038346699847,1.038346699848,1.038346699847,1.038346699848
      ,1.038346699848,1.038346699848,1.038346699847,1.038346699848
      ,1.038346699847,1.038346699848,1.038346699848,1.038346699848
      ,1.038346699848,1.038346699848,1.038346699848,1.038346699848
      ,1.038346699848,1.038346699848,1.038346699848,1.038346699848)
    ,(0.853534330196,0.853534330196,0.853534330196,0.853534330196
      ,0.853534330196,0.853534330196,0.853534330196,0.853534330196
      ,0.853534330196,0.853534330196,0.853534330196,0.853534330196
      ,0.853534330196,0.853534330196,0.853534330196,0.853534330196
      ,0.853534330196,0.853534330196,0.853534330196,0.853534330196
      ,0.853534330196,0.853534330196,0.853534330196,0.853534330196
      ,0.853534330196,0.853534330196,0.853534330196,0.853534330196
      ,0.853534330196,0.853534330196,0.853534330196,0.853534330196)
    ,(1.038346699848,1.038346699848,1.038346699848,1.038346699848
      ,1.038346699848,1.038346699848,1.038346699848,1.038346699848
      ,1.038346699848,1.038346699848,1.038346699847,1.038346699848
      ,1.038346699847,1.038346699848,1.038346699847,1.038346699848
      ,1.038346699848,1.038346699848,1.038346699847,1.038346699848
      ,1.038346699847,1.038346699848,1.038346699848,1.038346699848
      ,1.038346699848,1.038346699848,1.038346699848,1.038346699848
      ,1.038346699848,1.038346699848,1.038346699848,1.038346699848)
    ,(1.03672962321,1.03672962321,1.03672962321,1.03672962321
      ,1.036729623209,1.03672962321,1.03672962321,1.03672962321
      ,1.03672962321,1.03672962321,1.03672962321,1.03672962321
      ,1.03672962321,1.03672962321,1.03672962321,1.03672962321
      ,1.03672962321,1.03672962321,1.03672962321,1.03672962321
      ,1.03672962321,1.03672962321,1.03672962321,1.03672962321
      ,1.03672962321,1.03672962321,1.03672962321,1.03672962321
      ,1.03672962321,1.03672962321,1.03672962321,1.03672962321)
    ,(1.669078461068,1.669078461068,1.669078461068,1.669078461068
      ,1.669078461068,1.669078461068,1.669078461068,1.669078461068
      ,1.669078461068,1.669078461068,1.669078461068,1.669078461068
      ,1.669078461068,1.669078461068,1.669078461068,1.669078461068
      ,1.669078461068,1.669078461068,1.669078461068,1.669078461068
      ,1.669078461068,1.669078461068,1.669078461068,1.669078461068
      ,1.669078461068,1.669078461068,1.669078461068,1.669078461068
      ,1.669078461068,1.669078461068,1.669078461068,1.669078461068
))) REPRESENTATION_ITEM('') SURFACE() );
#95 = CARTESIAN_POINT('',(0.5,-7.979727989493E-17,-19.));
#96 = CARTESIAN_POINT('',(0.830894628433,-1.734723475977E-17,
    -19.40900359709));
#97 = CARTESIAN_POINT('',(1.0692096166,-2.98372437868E-16,-19.8141657133
    ));
#98 = CARTESIAN_POINT('',(1.247035153993,4.232725281383E-16,
    -20.23085755735));
#99 = CARTESIAN_POINT('',(1.303201613864,-8.777700788443E-16,
    -20.62216900002));
#100 = CARTESIAN_POINT('',(1.35459861292,7.840950111415E-16,
    -21.04592355908));
#101 = CARTESIAN_POINT('',(1.255093045255,-6.904199434388E-16,
    -21.39007541796));
#102 = CARTESIAN_POINT('',(1.217809421928,1.630640067418E-16,
    -21.77344256968));
#103 = CARTESIAN_POINT('',(0.985942262656,-2.498001805407E-16,
    -22.27179986282));
#104 = CARTESIAN_POINT('',(0.82799896075,3.122502256758E-17,
    -22.81140476792));
#105 = CARTESIAN_POINT('',(0.491988024764,-5.100087019372E-16,
    -22.84973966344));
#106 = CARTESIAN_POINT('',(1.113855535524,6.626643678231E-16,
    -23.40062943468));
#107 = CARTESIAN_POINT('',(-0.244276207763,-8.708311849404E-16,
    -22.8914456642));
#108 = CARTESIAN_POINT('',(1.338529986561,4.961309141294E-16,
    -23.95575210938));
#109 = CARTESIAN_POINT('',(-0.476838705708,-3.191891195797E-16,
    -23.20031973077));
#110 = CARTESIAN_POINT('',(0.841454973937,-1.006139616067E-16,
    -24.1207398801));
#111 = CARTESIAN_POINT('',(-1.160420857505,1.249000902703E-16,
    -23.47520307198));
#112 = CARTESIAN_POINT('',(0.160537556786,2.498001805407E-16,
    -24.39704946427));
#113 = CARTESIAN_POINT('',(-1.649495576188,-4.093947403305E-16,
    -23.6444677998));
#114 = CARTESIAN_POINT('',(-5.861305830907E-02,7.979727989493E-16,
    -24.71301801914));
#115 = CARTESIAN_POINT('',(-1.405763710537,-5.759281940243E-16,
    -24.20940385239));
#116 = CARTESIAN_POINT('',(-0.769751493238,4.302114220422E-16,
    -24.76706581923));
#117 = CARTESIAN_POINT('',(-1.088129066328,3.816391647149E-17,
    -24.81316206144));
#118 = CARTESIAN_POINT('',(-1.184688078924,-1.387778780781E-17,
    -25.37679591661));
#119 = CARTESIAN_POINT('',(-1.321810161349,3.365363543395E-16,
    -25.89987660196));
#120 = CARTESIAN_POINT('',(-1.281448876158,-7.840950111415E-16,
    -26.29569617447));
#121 = CARTESIAN_POINT('',(-1.289491311592,1.540434446667E-15,
    -26.64545311133));
#122 = CARTESIAN_POINT('',(-1.126874161075,-1.516148318004E-15,
    -27.05286704676));
#123 = CARTESIAN_POINT('',(-0.977942866851,1.294103713079E-15,
    -27.40373465115));
#124 = CARTESIAN_POINT('',(-0.722685715033,-5.134781488891E-16,
    -27.77534721439));
#125 = CARTESIAN_POINT('',(-0.422675168581,2.393918396848E-16,
    -28.13377184374));
#126 = CARTESIAN_POINT('',(-4.311276297937E-02,7.979727989493E-17,
    -28.49813782196));
#127 = CARTESIAN_POINT('',(0.5,0.830771537786,-19.));
#128 = CARTESIAN_POINT('',(0.830894628433,0.833609245665,-19.40900359709
    ));
#129 = CARTESIAN_POINT('',(1.0692096166,0.819144095102,-19.8141657133));
#130 = CARTESIAN_POINT('',(1.247035153993,0.859023252322,-20.23085755735
    ));
#131 = CARTESIAN_POINT('',(1.303201613864,0.781342525747,-20.62216900002
    ));
#132 = CARTESIAN_POINT('',(1.354598612921,0.897028188285,-21.04592355908
    ));
#133 = CARTESIAN_POINT('',(1.255093045255,0.761405080565,-21.39007541796
    ));
#134 = CARTESIAN_POINT('',(1.217809421928,0.886907016279,-21.77344256968
    ));
#135 = CARTESIAN_POINT('',(0.985942262656,0.749705991598,-22.27179986282
    ));
#136 = CARTESIAN_POINT('',(0.82799896075,0.927850697666,-22.81140476792)
  );
#137 = CARTESIAN_POINT('',(0.491988024764,0.284054579636,-22.84973966344
    ));
#138 = CARTESIAN_POINT('',(1.113855535524,2.098743770645,-23.40062943468
    ));
#139 = CARTESIAN_POINT('',(-0.244276207763,-1.143700124008,
    -22.8914456642));
#140 = CARTESIAN_POINT('',(1.338529986561,3.137787109645,-23.95575210938
    ));
#141 = CARTESIAN_POINT('',(-0.476838705708,-1.27008810676,
    -23.20031973077));
#142 = CARTESIAN_POINT('',(0.841454973937,2.333034972145,-24.1207398801)
  );
#143 = CARTESIAN_POINT('',(-1.160420857505,-2.333034972145,
    -23.47520307198));
#144 = CARTESIAN_POINT('',(0.160537556786,1.27008810676,-24.39704946427)
  );
#145 = CARTESIAN_POINT('',(-1.649495576188,-3.137787109645,
    -23.6444677998));
#146 = CARTESIAN_POINT('',(-5.861305830903E-02,1.143700124008,
    -24.71301801914));
#147 = CARTESIAN_POINT('',(-1.405763710537,-2.098743770645,
    -24.20940385239));
#148 = CARTESIAN_POINT('',(-0.769751493238,-0.284054579636,
    -24.76706581923));
#149 = CARTESIAN_POINT('',(-1.088129066328,-0.927850697666,
    -24.81316206144));
#150 = CARTESIAN_POINT('',(-1.184688078924,-0.749705991598,
    -25.37679591661));
#151 = CARTESIAN_POINT('',(-1.321810161349,-0.886907016279,
    -25.89987660196));
#152 = CARTESIAN_POINT('',(-1.281448876157,-0.761405080565,
    -26.29569617447));
#153 = CARTESIAN_POINT('',(-1.289491311592,-0.897028188285,
    -26.64545311133));
#154 = CARTESIAN_POINT('',(-1.126874161075,-0.781342525747,
    -27.05286704676));
#155 = CARTESIAN_POINT('',(-0.977942866851,-0.859023252322,
    -27.40373465115));
#156 = CARTESIAN_POINT('',(-0.722685715033,-0.819144095102,
    -27.77534721439));
#157 = CARTESIAN_POINT('',(-0.422675168581,-0.833609245665,
    -28.13377184374));
#158 = CARTESIAN_POINT('',(-4.311276297937E-02,-0.830771537786,
    -28.49813782196));
#159 = CARTESIAN_POINT('',(-0.527274095274,0.950056191623,-19.));
#160 = CARTESIAN_POINT('',(-0.19865937626,0.953301346059,-19.30741923859
    ));
#161 = CARTESIAN_POINT('',(6.23085998796E-02,0.936759246059,
    -19.60168903449));
#162 = CARTESIAN_POINT('',(0.237147562088,0.982364371548,-19.86819806799
    ));
#163 = CARTESIAN_POINT('',(0.40572220977,0.893530014694,-20.1474682097)
  );
#164 = CARTESIAN_POINT('',(0.460125189336,1.025826169505,-20.38012013425
    ));
#165 = CARTESIAN_POINT('',(0.569819283404,0.870729891701,-20.68590991538
    ));
#166 = CARTESIAN_POINT('',(0.525412804677,1.014251769452,-20.94113661423
    ));
#167 = CARTESIAN_POINT('',(0.52879746116,0.857351012666,-21.41777426317)
  );
#168 = CARTESIAN_POINT('',(0.317698204268,1.061074266662,-21.83670576112
    ));
#169 = CARTESIAN_POINT('',(0.525741782949,0.324839982917,-22.14010963517
    ));
#170 = CARTESIAN_POINT('',(-0.288257191795,2.400087657367,
    -21.90175983629));
#171 = CARTESIAN_POINT('',(0.976217607586,-1.307915997062,
    -22.78031678776));
#172 = CARTESIAN_POINT('',(-0.867816516042,3.588319936259,
    -21.99880856575));
#173 = CARTESIAN_POINT('',(0.866923109894,-1.452451143127,
    -23.13580668517));
#174 = CARTESIAN_POINT('',(-0.70531796239,2.668019087976,-22.50528958239
    ));
#175 = CARTESIAN_POINT('',(1.041682857754,-2.668019087976,
    -23.86625985581));
#176 = CARTESIAN_POINT('',(-0.53336830563,1.452451143127,-23.2342387111)
  );
#177 = CARTESIAN_POINT('',(1.195744715906,-3.588319936259,
    -24.36823061508));
#178 = CARTESIAN_POINT('',(-0.656806280113,1.307915997062,
    -23.58224712871));
#179 = CARTESIAN_POINT('',(0.596088429561,-2.400087657367,
    -24.45493066464));
#180 = CARTESIAN_POINT('',(-0.23282681987,-0.324839982917,
    -24.20943925914));
#181 = CARTESIAN_POINT('',(-4.337847212412E-02,-1.061074266662,
    -24.50465841908));
#182 = CARTESIAN_POINT('',(-0.319210420236,-0.857351012666,
    -24.89825023122));
#183 = CARTESIAN_POINT('',(-0.415739013104,-1.014251769452,
    -25.34881587164));
#184 = CARTESIAN_POINT('',(-0.542025789615,-0.870729891701,
    -25.59091089267));
#185 = CARTESIAN_POINT('',(-0.528783976144,-1.025826169506,
    -25.89078984896));
#186 = CARTESIAN_POINT('',(-0.591668006052,-0.893530014694,
    -26.1406737486));
#187 = CARTESIAN_POINT('',(-0.520918346584,-0.982364371548,
    -26.46259386678));
#188 = CARTESIAN_POINT('',(-0.427734753259,-0.936759246059,
    -26.77664117429));
#189 = CARTESIAN_POINT('',(-0.231827716472,-0.953301346059,
    -27.12019790239));
#190 = CARTESIAN_POINT('',(4.546448618943E-02,-0.950056191623,
    -27.4746896612));
#191 = CARTESIAN_POINT('',(-1.374558460504,2.98372437868E-15,-19.));
#192 = CARTESIAN_POINT('',(-1.047824185681,2.914335439641E-15,
    -19.22363357798));
#193 = CARTESIAN_POINT('',(-0.768172274433,3.17801340799E-15,
    -19.42644060881));
#194 = CARTESIAN_POINT('',(-0.59579660656,2.53963516883E-15,
    -19.56908051344));
#195 = CARTESIAN_POINT('',(-0.334508922996,3.681083216023E-15,
    -19.7559402235));
#196 = CARTESIAN_POINT('',(-0.277626643796,2.300243329145E-15,
    -19.83097279882));
#197 = CARTESIAN_POINT('',(4.613028336179E-03,3.337607967779E-15,
    -20.10512196053));
#198 = CARTESIAN_POINT('',(-4.566830311516E-02,2.949029909161E-15,
    -20.25465982445));
#199 = CARTESIAN_POINT('',(0.151749461279,2.85882428841E-15,
    -20.71338334996));
#200 = CARTESIAN_POINT('',(-0.10319224213,3.226585665317E-15,
    -21.0327847501));
#201 = CARTESIAN_POINT('',(0.553581511129,1.356553758214E-15,
    -21.55481459968));
#202 = CARTESIAN_POINT('',(-1.444704334396,7.004813395994E-15,
    -20.66550869156));
#203 = CARTESIAN_POINT('',(1.982867470912,-3.618633170888E-15,
    -22.68865891381));
#204 = CARTESIAN_POINT('',(-2.687586823242,1.098773849684E-14,
    -20.38474307361));
#205 = CARTESIAN_POINT('',(1.975243062855,-4.465178227164E-15,
    -23.08259703533));
#206 = CARTESIAN_POINT('',(-1.981079252917,8.357897707256E-15,
    -21.17288396021));
#207 = CARTESIAN_POINT('',(2.857953760658,-8.378714388968E-15,
    -24.18879918625));
#208 = CARTESIAN_POINT('',(-1.10569422222,4.624772786954E-15,
    -22.27516520246));
#209 = CARTESIAN_POINT('',(3.542467587538,-1.14526443884E-14,
    -24.96518221772));
#210 = CARTESIAN_POINT('',(-1.150189464361,4.319461455182E-15,
    -22.64959974615));
#211 = CARTESIAN_POINT('',(2.247194037705,-7.667477763817E-15,
    -24.65743847655));
#212 = CARTESIAN_POINT('',(0.21002274009,-9.540979117872E-16,
    -23.74951501091));
#213 = CARTESIAN_POINT('',(0.818320317036,-3.382710778155E-15,
    -24.25020801096));
#214 = CARTESIAN_POINT('',(0.394626025204,-2.529226827974E-15,
    -24.50355101789));
#215 = CARTESIAN_POINT('',(0.331578495656,-3.479855292809E-15,
    -24.89430704753));
#216 = CARTESIAN_POINT('',(6.784223236583E-02,-1.901256929671E-15,
    -25.00961175074));
#217 = CARTESIAN_POINT('',(9.86390600318E-02,-4.499872696684E-15,
    -25.26835189773));
#218 = CARTESIAN_POINT('',(-0.150235861105,-1.52655665886E-15,
    -25.38830675798));
#219 = CARTESIAN_POINT('',(-0.143969553336,-3.969047313035E-15,
    -25.6863513082));
#220 = CARTESIAN_POINT('',(-0.1844624469,-2.53963516883E-15,
    -25.95291942648));
#221 = CARTESIAN_POINT('',(-7.441883888087E-02,-3.105155021998E-15,
    -26.28421327331));
#222 = CARTESIAN_POINT('',(0.118522026218,-2.98372437868E-15,
    -26.63056088465));
#223 = CARTESIAN_POINT('',(-0.527274095274,-0.950056191623,-19.));
#224 = CARTESIAN_POINT('',(-0.19865937626,-0.953301346059,
    -19.30741923859));
#225 = CARTESIAN_POINT('',(6.23085998796E-02,-0.936759246059,
    -19.60168903449));
#226 = CARTESIAN_POINT('',(0.237147562088,-0.982364371548,
    -19.86819806799));
#227 = CARTESIAN_POINT('',(0.40572220977,-0.893530014694,-20.1474682097)
  );
#228 = CARTESIAN_POINT('',(0.460125189336,-1.025826169506,
    -20.38012013425));
#229 = CARTESIAN_POINT('',(0.569819283404,-0.8707298917,-20.68590991538)
  );
#230 = CARTESIAN_POINT('',(0.525412804677,-1.014251769452,
    -20.94113661423));
#231 = CARTESIAN_POINT('',(0.52879746116,-0.857351012666,-21.41777426317
    ));
#232 = CARTESIAN_POINT('',(0.317698204268,-1.061074266662,
    -21.83670576112));
#233 = CARTESIAN_POINT('',(0.525741782949,-0.324839982917,
    -22.14010963517));
#234 = CARTESIAN_POINT('',(-0.288257191795,-2.400087657367,
    -21.90175983629));
#235 = CARTESIAN_POINT('',(0.976217607586,1.307915997062,-22.78031678776
    ));
#236 = CARTESIAN_POINT('',(-0.867816516042,-3.588319936259,
    -21.99880856575));
#237 = CARTESIAN_POINT('',(0.866923109894,1.452451143127,-23.13580668517
    ));
#238 = CARTESIAN_POINT('',(-0.70531796239,-2.668019087976,
    -22.50528958239));
#239 = CARTESIAN_POINT('',(1.041682857754,2.668019087976,-23.86625985581
    ));
#240 = CARTESIAN_POINT('',(-0.53336830563,-1.452451143127,-23.2342387111
    ));
#241 = CARTESIAN_POINT('',(1.195744715906,3.588319936259,-24.36823061508
    ));
#242 = CARTESIAN_POINT('',(-0.656806280113,-1.307915997062,
    -23.58224712871));
#243 = CARTESIAN_POINT('',(0.596088429561,2.400087657367,-24.45493066464
    ));
#244 = CARTESIAN_POINT('',(-0.23282681987,0.324839982917,-24.20943925914
    ));
#245 = CARTESIAN_POINT('',(-4.337847212412E-02,1.061074266662,
    -24.50465841908));
#246 = CARTESIAN_POINT('',(-0.319210420236,0.857351012666,
    -24.89825023122));
#247 = CARTESIAN_POINT('',(-0.415739013104,1.014251769452,
    -25.34881587164));
#248 = CARTESIAN_POINT('',(-0.542025789615,0.870729891701,
    -25.59091089267));
#249 = CARTESIAN_POINT('',(-0.528783976144,1.025826169506,
    -25.89078984896));
#250 = CARTESIAN_POINT('',(-0.591668006052,0.893530014694,-26.1406737486
    ));
#251 = CARTESIAN_POINT('',(-0.520918346584,0.982364371548,
    -26.46259386678));
#252 = CARTESIAN_POINT('',(-0.427734753259,0.936759246059,
    -26.77664117429));
#253 = CARTESIAN_POINT('',(-0.231827716472,0.953301346059,
    -27.12019790239));
#254 = CARTESIAN_POINT('',(4.546448618943E-02,0.950056191623,
    -27.4746896612));
#255 = CARTESIAN_POINT('',(0.5,-0.830771537786,-19.));
#256 = CARTESIAN_POINT('',(0.830894628433,-0.833609245665,
    -19.40900359709));
#257 = CARTESIAN_POINT('',(1.0692096166,-0.819144095102,-19.8141657133)
  );
#258 = CARTESIAN_POINT('',(1.247035153993,-0.859023252322,
    -20.23085755735));
#259 = CARTESIAN_POINT('',(1.303201613864,-0.781342525747,
    -20.62216900002));
#260 = CARTESIAN_POINT('',(1.354598612921,-0.897028188285,
    -21.04592355908));
#261 = CARTESIAN_POINT('',(1.255093045255,-0.761405080565,
    -21.39007541796));
#262 = CARTESIAN_POINT('',(1.217809421928,-0.886907016279,
    -21.77344256968));
#263 = CARTESIAN_POINT('',(0.985942262656,-0.749705991598,
    -22.27179986282));
#264 = CARTESIAN_POINT('',(0.82799896075,-0.927850697666,-22.81140476792
    ));
#265 = CARTESIAN_POINT('',(0.491988024764,-0.284054579636,
    -22.84973966344));
#266 = CARTESIAN_POINT('',(1.113855535524,-2.098743770645,
    -23.40062943468));
#267 = CARTESIAN_POINT('',(-0.244276207763,1.143700124008,-22.8914456642
    ));
#268 = CARTESIAN_POINT('',(1.338529986561,-3.137787109645,
    -23.95575210938));
#269 = CARTESIAN_POINT('',(-0.476838705708,1.27008810676,-23.20031973077
    ));
#270 = CARTESIAN_POINT('',(0.841454973937,-2.333034972145,-24.1207398801
    ));
#271 = CARTESIAN_POINT('',(-1.160420857505,2.333034972145,
    -23.47520307198));
#272 = CARTESIAN_POINT('',(0.160537556786,-1.27008810676,-24.39704946427
    ));
#273 = CARTESIAN_POINT('',(-1.649495576188,3.137787109645,-23.6444677998
    ));
#274 = CARTESIAN_POINT('',(-5.861305830905E-02,-1.143700124008,
    -24.71301801914));
#275 = CARTESIAN_POINT('',(-1.405763710537,2.098743770645,
    -24.20940385239));
#276 = CARTESIAN_POINT('',(-0.769751493238,0.284054579636,
    -24.76706581923));
#277 = CARTESIAN_POINT('',(-1.088129066328,0.927850697666,
    -24.81316206144));
#278 = CARTESIAN_POINT('',(-1.184688078924,0.749705991598,
    -25.37679591661));
#279 = CARTESIAN_POINT('',(-1.321810161349,0.886907016279,
    -25.89987660196));
#280 = CARTESIAN_POINT('',(-1.281448876157,0.761405080565,
    -26.29569617447));
#281 = CARTESIAN_POINT('',(-1.289491311592,0.897028188285,
    -26.64545311133));
#282 = CARTESIAN_POINT('',(-1.126874161075,0.781342525747,
    -27.05286704676));
#283 = CARTESIAN_POINT('',(-0.977942866851,0.859023252322,
    -27.40373465115));
#284 = CARTESIAN_POINT('',(-0.722685715033,0.819144095102,
    -27.77534721439));
#285 = CARTESIAN_POINT('',(-0.422675168581,0.833609245665,
    -28.13377184374));
#286 = CARTESIAN_POINT('',(-4.311276297937E-02,0.830771537786,
    -28.49813782196));
#287 = CARTESIAN_POINT('',(0.5,-7.979727989493E-17,-19.));
#288 = CARTESIAN_POINT('',(0.830894628433,-1.734723475977E-17,
    -19.40900359709));
#289 = CARTESIAN_POINT('',(1.0692096166,-2.98372437868E-16,
    -19.8141657133));
#290 = CARTESIAN_POINT('',(1.247035153993,4.232725281383E-16,
    -20.23085755735));
#291 = CARTESIAN_POINT('',(1.303201613864,-8.777700788443E-16,
    -20.62216900002));
#292 = CARTESIAN_POINT('',(1.35459861292,7.840950111415E-16,
    -21.04592355908));
#293 = CARTESIAN_POINT('',(1.255093045255,-6.904199434388E-16,
    -21.39007541796));
#294 = CARTESIAN_POINT('',(1.217809421928,1.630640067418E-16,
    -21.77344256968));
#295 = CARTESIAN_POINT('',(0.985942262656,-2.498001805407E-16,
    -22.27179986282));
#296 = CARTESIAN_POINT('',(0.82799896075,3.122502256758E-17,
    -22.81140476792));
#297 = CARTESIAN_POINT('',(0.491988024764,-5.100087019372E-16,
    -22.84973966344));
#298 = CARTESIAN_POINT('',(1.113855535524,6.626643678231E-16,
    -23.40062943468));
#299 = CARTESIAN_POINT('',(-0.244276207763,-8.708311849404E-16,
    -22.8914456642));
#300 = CARTESIAN_POINT('',(1.338529986561,4.961309141294E-16,
    -23.95575210938));
#301 = CARTESIAN_POINT('',(-0.476838705708,-3.191891195797E-16,
    -23.20031973077));
#302 = CARTESIAN_POINT('',(0.841454973937,-1.006139616067E-16,
    -24.1207398801));
#303 = CARTESIAN_POINT('',(-1.160420857505,1.249000902703E-16,
    -23.47520307198));
#304 = CARTESIAN_POINT('',(0.160537556786,2.498001805407E-16,
    -24.39704946427));
#305 = CARTESIAN_POINT('',(-1.649495576188,-4.093947403305E-16,
    -23.6444677998));
#306 = CARTESIAN_POINT('',(-5.861305830907E-02,7.979727989493E-16,
    -24.71301801914));
#307 = CARTESIAN_POINT('',(-1.405763710537,-5.759281940243E-16,
    -24.20940385239));
#308 = CARTESIAN_POINT('',(-0.769751493238,4.302114220422E-16,
    -24.76706581923));
#309 = CARTESIAN_POINT('',(-1.088129066328,3.816391647149E-17,
    -24.81316206144));
#310 = CARTESIAN_POINT('',(-1.184688078924,-1.387778780781E-17,
    -25.37679591661));
#311 = CARTESIAN_POINT('',(-1.321810161349,3.365363543395E-16,
    -25.89987660196));
#312 = CARTESIAN_POINT('',(-1.281448876158,-7.840950111415E-16,
    -26.29569617447));
#313 = CARTESIAN_POINT('',(-1.289491311592,1.540434446667E-15,
    -26.64545311133));
#314 = CARTESIAN_POINT('',(-1.126874161075,-1.516148318004E-15,
    -27.05286704676));
#315 = CARTESIAN_POINT('',(-0.977942866851,1.294103713079E-15,
    -27.40373465115));
#316 = CARTESIAN_POINT('',(-0.722685715033,-5.134781488891E-16,
    -27.77534721439));
#317 = CARTESIAN_POINT('',(-0.422675168581,2.393918396848E-16,
    -28.13377184374));
#318 = CARTESIAN_POINT('',(-4.311276297937E-02,7.979727989493E-17,
    -28.49813782196));
#319 = DEFINITIONAL_REPRESENTATION('',(#320),#377);
#320 = B_SPLINE_CURVE_WITH_KNOTS('',10,(#321,#322,#323,#324,#325,#326,
    #327,#328,#329,#330,#331,#332,#333,#334,#335,#336,#337,#338,#339,
    #340,#341,#342,#343,#344,#345,#346,#347,#348,#349,#350,#351,#352,
    #353,#354,#355,#356,#357,#358,#359,#360,#361,#362,#363,#364,#365,
    #366,#367,#368,#369,#370,#371,#372,#373,#374,#375,#376),
  .UNSPECIFIED.,.F.,.F.,(11,9,9,9,9,9,11),(0.,0.785398163397,
    1.570796326795,3.14159265359,4.712388980385,5.497787143782,
    6.28318530718),.UNSPECIFIED.);
#321 = CARTESIAN_POINT('',(5.551115123126E-17,0.));
#322 = CARTESIAN_POINT('',(7.969262624617E-02,0.));
#323 = CARTESIAN_POINT('',(0.159086481023,0.));
#324 = CARTESIAN_POINT('',(0.238202634306,0.));
#325 = CARTESIAN_POINT('',(0.317129477882,0.));
#326 = CARTESIAN_POINT('',(0.395894461278,0.));
#327 = CARTESIAN_POINT('',(0.474511236173,0.));
#328 = CARTESIAN_POINT('',(0.553022972289,0.));
#329 = CARTESIAN_POINT('',(0.631475113571,0.));
#330 = CARTESIAN_POINT('',(0.709863349287,0.));
#331 = CARTESIAN_POINT('',(0.866566811765,0.));
#332 = CARTESIAN_POINT('',(0.944883325628,0.));
#333 = CARTESIAN_POINT('',(1.023180358708,0.));
#334 = CARTESIAN_POINT('',(1.101471629205,0.));
#335 = CARTESIAN_POINT('',(1.179768118672,0.));
#336 = CARTESIAN_POINT('',(1.258077751028,0.));
#337 = CARTESIAN_POINT('',(1.336405468888,0.));
#338 = CARTESIAN_POINT('',(1.414753707176,0.));
#339 = CARTESIAN_POINT('',(1.49312326403,0.));
#340 = CARTESIAN_POINT('',(1.728297178968,0.));
#341 = CARTESIAN_POINT('',(1.885162189058,0.));
#342 = CARTESIAN_POINT('',(2.042136630184,0.));
#343 = CARTESIAN_POINT('',(2.199073065435,0.));
#344 = CARTESIAN_POINT('',(2.356348676941,0.));
#345 = CARTESIAN_POINT('',(2.513111086501,0.));
#346 = CARTESIAN_POINT('',(2.670412663703,0.));
#347 = CARTESIAN_POINT('',(2.827426008719,0.));
#348 = CARTESIAN_POINT('',(2.984514271753,0.));
#349 = CARTESIAN_POINT('',(3.298671035427,0.));
#350 = CARTESIAN_POINT('',(3.45575929846,0.));
#351 = CARTESIAN_POINT('',(3.612772643479,0.));
#352 = CARTESIAN_POINT('',(3.770074220673,0.));
#353 = CARTESIAN_POINT('',(3.926836630244,0.));
#354 = CARTESIAN_POINT('',(4.08411224174,0.));
#355 = CARTESIAN_POINT('',(4.241048676998,0.));
#356 = CARTESIAN_POINT('',(4.39802311812,0.));
#357 = CARTESIAN_POINT('',(4.554888128212,0.));
#358 = CARTESIAN_POINT('',(4.79006204315,0.));
#359 = CARTESIAN_POINT('',(4.868431600004,0.));
#360 = CARTESIAN_POINT('',(4.946779838292,0.));
#361 = CARTESIAN_POINT('',(5.025107556152,0.));
#362 = CARTESIAN_POINT('',(5.103417188508,0.));
#363 = CARTESIAN_POINT('',(5.181713677973,0.));
#364 = CARTESIAN_POINT('',(5.260004948472,0.));
#365 = CARTESIAN_POINT('',(5.338301981551,0.));
#366 = CARTESIAN_POINT('',(5.416618495415,0.));
#367 = CARTESIAN_POINT('',(5.573321957892,0.));
#368 = CARTESIAN_POINT('',(5.651710193609,0.));
#369 = CARTESIAN_POINT('',(5.73016233489,0.));
#370 = CARTESIAN_POINT('',(5.808674071007,0.));
#371 = CARTESIAN_POINT('',(5.887290845901,0.));
#372 = CARTESIAN_POINT('',(5.966055829298,0.));
#373 = CARTESIAN_POINT('',(6.044982672873,0.));
#374 = CARTESIAN_POINT('',(6.124098826156,0.));
#375 = CARTESIAN_POINT('',(6.203492680933,0.));
#376 = CARTESIAN_POINT('',(6.28318530718,0.));
#377 = ( GEOMETRIC_REPRESENTATION_CONTEXT(2)
PARAMETRIC_REPRESENTATION_CONTEXT() REPRESENTATION_CONTEXT('2D SPACE',''
  ) );
#378 = ADVANCED_FACE('',(#379),#94,.F.);
#379 = FACE_BOUND('',#380,.F.);
#380 = EDGE_LOOP('',(#381,#382,#433,#566,#602,#728));
#381 = ORIENTED_EDGE('',*,*,#79,.T.);
#382 = ORIENTED_EDGE('',*,*,#383,.T.);
#383 = EDGE_CURVE('',#22,#384,#386,.T.);
#384 = VERTEX_POINT('',#385);
#385 = CARTESIAN_POINT('',(-0.5,7.590311516681E-17,-28.00393074308));
#386 = SEAM_CURVE('',#387,(#420,#427),.PCURVE_S1.);
#387 = ( BOUNDED_CURVE() B_SPLINE_CURVE(9,(#388,#389,#390,#391,#392,#393
    ,#394,#395,#396,#397,#398,#399,#400,#401,#402,#403,#404,#405,#406,
    #407,#408,#409,#410,#411,#412,#413,#414,#415,#416,#417,#418,#419),
.UNSPECIFIED.,.F.,.F.) B_SPLINE_CURVE_WITH_KNOTS((10,7,8,7,10),(0.,
    3.08058436015,4.735878895875,6.391173431599,9.471757791749),
.UNSPECIFIED.) CURVE() GEOMETRIC_REPRESENTATION_ITEM()
RATIONAL_B_SPLINE_CURVE((1.669078461068,1.669078461068,1.669078461068,
    1.669078461068,1.669078461068,1.669078461068,1.669078461068,
    1.669078461068,1.669078461068,1.669078461068,1.669078461068,
    1.669078461068,1.669078461068,1.669078461068,1.669078461068,
    1.669078461068,1.669078461068,1.669078461068,1.669078461068,
    1.669078461068,1.669078461068,1.669078461068,1.669078461068,
    1.669078461068,1.669078461068,1.669078461068,1.669078461068,
    1.669078461068,1.669078461068,1.669078461068,1.669078461068,
1.669078461068)) REPRESENTATION_ITEM('') );
#388 = CARTESIAN_POINT('',(0.5,-7.979727989493E-17,-19.));
#389 = CARTESIAN_POINT('',(0.830894628433,-1.734723475977E-17,
    -19.40900359709));
#390 = CARTESIAN_POINT('',(1.0692096166,-2.98372437868E-16,
    -19.8141657133));
#391 = CARTESIAN_POINT('',(1.247035153993,4.232725281383E-16,
    -20.23085755735));
#392 = CARTESIAN_POINT('',(1.303201613864,-8.777700788443E-16,
    -20.62216900002));
#393 = CARTESIAN_POINT('',(1.35459861292,7.840950111415E-16,
    -21.04592355908));
#394 = CARTESIAN_POINT('',(1.255093045255,-6.904199434388E-16,
    -21.39007541796));
#395 = CARTESIAN_POINT('',(1.217809421928,1.630640067418E-16,
    -21.77344256968));
#396 = CARTESIAN_POINT('',(0.985942262656,-2.498001805407E-16,
    -22.27179986282));
#397 = CARTESIAN_POINT('',(0.82799896075,3.122502256758E-17,
    -22.81140476792));
#398 = CARTESIAN_POINT('',(0.491988024764,-5.100087019372E-16,
    -22.84973966344));
#399 = CARTESIAN_POINT('',(1.113855535524,6.626643678231E-16,
    -23.40062943468));
#400 = CARTESIAN_POINT('',(-0.244276207763,-8.708311849404E-16,
    -22.8914456642));
#401 = CARTESIAN_POINT('',(1.338529986561,4.961309141294E-16,
    -23.95575210938));
#402 = CARTESIAN_POINT('',(-0.476838705708,-3.191891195797E-16,
    -23.20031973077));
#403 = CARTESIAN_POINT('',(0.841454973937,-1.006139616067E-16,
    -24.1207398801));
#404 = CARTESIAN_POINT('',(-1.160420857505,1.249000902703E-16,
    -23.47520307198));
#405 = CARTESIAN_POINT('',(0.160537556786,2.498001805407E-16,
    -24.39704946427));
#406 = CARTESIAN_POINT('',(-1.649495576188,-4.093947403305E-16,
    -23.6444677998));
#407 = CARTESIAN_POINT('',(-5.861305830907E-02,7.979727989493E-16,
    -24.71301801914));
#408 = CARTESIAN_POINT('',(-1.405763710537,-5.759281940243E-16,
    -24.20940385239));
#409 = CARTESIAN_POINT('',(-0.769751493238,4.302114220422E-16,
    -24.76706581923));
#410 = CARTESIAN_POINT('',(-1.088129066328,3.816391647149E-17,
    -24.81316206144));
#411 = CARTESIAN_POINT('',(-1.184688078924,-1.387778780781E-17,
    -25.37679591661));
#412 = CARTESIAN_POINT('',(-1.321810161349,3.365363543395E-16,
    -25.89987660196));
#413 = CARTESIAN_POINT('',(-1.281448876158,-7.840950111415E-16,
    -26.29569617447));
#414 = CARTESIAN_POINT('',(-1.289491311592,1.540434446667E-15,
    -26.64545311133));
#415 = CARTESIAN_POINT('',(-1.126874161075,-1.516148318004E-15,
    -27.05286704676));
#416 = CARTESIAN_POINT('',(-0.977942866851,1.294103713079E-15,
    -27.40373465115));
#417 = CARTESIAN_POINT('',(-0.722685715033,-5.134781488891E-16,
    -27.77534721439));
#418 = CARTESIAN_POINT('',(-0.422675168581,2.393918396848E-16,
    -28.13377184374));
#419 = CARTESIAN_POINT('',(-4.311276297937E-02,7.979727989493E-17,
    -28.49813782196));
#420 = PCURVE('',#94,#421);
#421 = DEFINITIONAL_REPRESENTATION('',(#422),#426);
#422 = LINE('',#423,#424);
#423 = CARTESIAN_POINT('',(0.,0.));
#424 = VECTOR('',#425,1.);
#425 = DIRECTION('',(0.,1.));
#426 = ( GEOMETRIC_REPRESENTATION_CONTEXT(2)
PARAMETRIC_REPRESENTATION_CONTEXT() REPRESENTATION_CONTEXT('2D SPACE',''
  ) );
#427 = PCURVE('',#94,#428);
#428 = DEFINITIONAL_REPRESENTATION('',(#429),#432);
#429 = B_SPLINE_CURVE_WITH_KNOTS('',1,(#430,#431),.UNSPECIFIED.,.F.,.F.,
  (2,2),(0.,9.471757791749),.PIECEWISE_BEZIER_KNOTS.);
#430 = CARTESIAN_POINT('',(6.28318530718,0.));
#431 = CARTESIAN_POINT('',(6.28318530718,9.471757791749));
#432 = ( GEOMETRIC_REPRESENTATION_CONTEXT(2)
PARAMETRIC_REPRESENTATION_CONTEXT() REPRESENTATION_CONTEXT('2D SPACE',''
  ) );
#433 = ORIENTED_EDGE('',*,*,#434,.T.);
#434 = EDGE_CURVE('',#384,#435,#437,.T.);
#435 = VERTEX_POINT('',#436);
#436 = CARTESIAN_POINT('',(-1.343102179659E-15,0.5,-28.));
#437 = SURFACE_CURVE('',#438,(#477,#519),.PCURVE_S1.);
#438 = B_SPLINE_CURVE_WITH_KNOTS('',7,(#439,#440,#441,#442,#443,#444,
    #445,#446,#447,#448,#449,#450,#451,#452,#453,#454,#455,#456,#457,
    #458,#459,#460,#461,#462,#463,#464,#465,#466,#467,#468,#469,#470,
    #471,#472,#473,#474,#475,#476),.UNSPECIFIED.,.F.,.F.,(8,6,6,6,6,6,8)
  ,(0.,0.465465343835,0.703290426551,0.825915635799,0.949484459264,
    0.986667508179,1.),.UNSPECIFIED.);
#439 = CARTESIAN_POINT('',(-0.5,-2.725330330563E-15,-28.00393074308));
#440 = CARTESIAN_POINT('',(-0.5,5.316183407754E-02,-28.00393074308));
#441 = CARTESIAN_POINT('',(-0.493405810201,0.10647059573,-28.00377835484
    ));
#442 = CARTESIAN_POINT('',(-0.480150529345,0.158794531762,
    -28.00347090926));
#443 = CARTESIAN_POINT('',(-0.460465775305,0.209019134704,
    -28.00303965972));
#444 = CARTESIAN_POINT('',(-0.434829827947,0.25614729021,-28.00254107155
    ));
#445 = CARTESIAN_POINT('',(-0.403902568971,0.299355176478,
    -28.00204286839));
#446 = CARTESIAN_POINT('',(-0.350331645294,0.357751120773,
    -28.00138102693));
#447 = CARTESIAN_POINT('',(-0.331030665501,0.37631175301,-28.00117293959
    ));
#448 = CARTESIAN_POINT('',(-0.310643208355,0.393602449514,
    -28.00098872548));
#449 = CARTESIAN_POINT('',(-0.289272598674,0.40955339994,-28.00083620331
    ));
#450 = CARTESIAN_POINT('',(-0.267024529542,0.424106905885,
    -28.00072279216));
#451 = CARTESIAN_POINT('',(-0.244005034789,0.437215940303,
    -28.00065544503));
#452 = CARTESIAN_POINT('',(-0.208105405648,0.4548375947,-28.00063291907)
  );
#453 = CARTESIAN_POINT('',(-0.195715013021,0.460438381213,
    -28.00063918289));
#454 = CARTESIAN_POINT('',(-0.183161610534,0.465639945766,
    -28.00066030427));
#455 = CARTESIAN_POINT('',(-0.170459462549,0.47043769514,-28.00069711488
    ));
#456 = CARTESIAN_POINT('',(-0.157622770842,0.474827563579,
    -28.00075034756));
#457 = CARTESIAN_POINT('',(-0.1446656746,0.478806012782,-28.00082063639)
  );
#458 = CARTESIAN_POINT('',(-0.118438301791,0.485961476546,-28.0009970732
    ));
#459 = CARTESIAN_POINT('',(-0.105166288367,0.489132059925,
    -28.00110372802));
#460 = CARTESIAN_POINT('',(-9.18013149645E-02,0.491878630626,
    -28.00122706335));
#461 = CARTESIAN_POINT('',(-7.835577799956E-02,0.494198470024,
    -28.0013730916));
#462 = CARTESIAN_POINT('',(-6.484838589042E-02,0.496089310122,
    -28.00152985521));
#463 = CARTESIAN_POINT('',(-5.128817940575E-02,0.497549205381,
    -28.00171237425));
#464 = CARTESIAN_POINT('',(-3.361143397934E-02,0.498885843681,
    -28.00194446384));
#465 = CARTESIAN_POINT('',(-2.952342917805E-02,0.499155490753,
    -28.00200201934));
#466 = CARTESIAN_POINT('',(-2.543595481649E-02,0.499386227872,
    -28.00204813012));
#467 = CARTESIAN_POINT('',(-2.13454082554E-02,0.499577868841,
    -28.00209176262));
#468 = CARTESIAN_POINT('',(-1.725385281977E-02,0.499729986598,
    -28.00214119817));
#469 = CARTESIAN_POINT('',(-1.317806497697E-02,0.499842475459,
    -28.00217906524));
#470 = CARTESIAN_POINT('',(-7.717340628162E-03,0.499942517222,
    -28.00212242186));
#471 = CARTESIAN_POINT('',(-5.947458401065E-03,0.499967442939,
    -28.00205873143));
#472 = CARTESIAN_POINT('',(-4.936279029878E-03,0.499979239355,
    -28.00211034754));
#473 = CARTESIAN_POINT('',(-3.770098673075E-03,0.499990515861,
    -28.00194280614));
#474 = CARTESIAN_POINT('',(-1.920880693654E-03,0.500001403439,
    -28.00179057183));
#475 = CARTESIAN_POINT('',(-1.60140502486E-04,0.5,-28.00185031123));
#476 = CARTESIAN_POINT('',(-2.585875957806E-12,0.5,-28.00000000003));
#477 = PCURVE('',#94,#478);
#478 = DEFINITIONAL_REPRESENTATION('',(#479),#518);
#479 = B_SPLINE_CURVE_WITH_KNOTS('',7,(#480,#481,#482,#483,#484,#485,
    #486,#487,#488,#489,#490,#491,#492,#493,#494,#495,#496,#497,#498,
    #499,#500,#501,#502,#503,#504,#505,#506,#507,#508,#509,#510,#511,
    #512,#513,#514,#515,#516,#517),.UNSPECIFIED.,.F.,.F.,(8,6,6,6,6,6,8)
  ,(0.,0.465465343835,0.703290426551,0.825915635799,0.949484459264,
    0.986667508179,1.),.UNSPECIFIED.);
#480 = CARTESIAN_POINT('',(6.28318530718,9.00600140233));
#481 = CARTESIAN_POINT('',(6.175293071727,9.00600140233));
#482 = CARTESIAN_POINT('',(6.067693323059,9.011902004295));
#483 = CARTESIAN_POINT('',(5.960543277512,9.023759873459));
#484 = CARTESIAN_POINT('',(5.853934436805,9.041436451312));
#485 = CARTESIAN_POINT('',(5.747926734549,9.06462271589));
#486 = CARTESIAN_POINT('',(5.642573257682,9.092850973413));
#487 = CARTESIAN_POINT('',(5.484471899366,9.142172161852));
#488 = CARTESIAN_POINT('',(5.431185491151,9.160006202821));
#489 = CARTESIAN_POINT('',(5.378077132768,9.178915615582));
#490 = CARTESIAN_POINT('',(5.325144460837,9.198811942609));
#491 = CARTESIAN_POINT('',(5.272382565853,9.219600088394));
#492 = CARTESIAN_POINT('',(5.21978462402,9.241179950402));
#493 = CARTESIAN_POINT('',(5.140302812364,9.274929725304));
#494 = CARTESIAN_POINT('',(5.113304465627,9.286594415615));
#495 = CARTESIAN_POINT('',(5.086346357372,9.29842790137));
#496 = CARTESIAN_POINT('',(5.059427238902,9.310415802292));
#497 = CARTESIAN_POINT('',(5.032545744326,9.322543577406));
#498 = CARTESIAN_POINT('',(5.005700390556,9.334796525044));
#499 = CARTESIAN_POINT('',(4.951872451961,9.359618177235));
#500 = CARTESIAN_POINT('',(4.924890658736,9.372188727858));
#501 = CARTESIAN_POINT('',(4.897940390612,9.384855486288));
#502 = CARTESIAN_POINT('',(4.871026279145,9.397605568668));
#503 = CARTESIAN_POINT('',(4.844132837947,9.410418629094));
#504 = CARTESIAN_POINT('',(4.817274912175,9.423285769871));
#505 = CARTESIAN_POINT('',(4.782335341609,9.440059339461));
#506 = CARTESIAN_POINT('',(4.774267897587,9.443938840334));
#507 = CARTESIAN_POINT('',(4.766185407439,9.447816923916));
#508 = CARTESIAN_POINT('',(4.758096281963,9.451697699325));
#509 = CARTESIAN_POINT('',(4.750018993865,9.455579851864));
#510 = CARTESIAN_POINT('',(4.741954356125,9.459446037598));
#511 = CARTESIAN_POINT('',(4.730954669326,9.46461705758));
#512 = CARTESIAN_POINT('',(4.72730727119,9.466289071877));
#513 = CARTESIAN_POINT('',(4.725383279605,9.46725225462));
#514 = CARTESIAN_POINT('',(4.722750246582,9.468343637807));
#515 = CARTESIAN_POINT('',(4.718783337659,9.470083264105));
#516 = CARTESIAN_POINT('',(4.715378501148,9.471757791727));
#517 = CARTESIAN_POINT('',(4.71167107149,9.471757791749));
#518 = ( GEOMETRIC_REPRESENTATION_CONTEXT(2)
PARAMETRIC_REPRESENTATION_CONTEXT() REPRESENTATION_CONTEXT('2D SPACE',''
  ) );
#519 = PCURVE('',#520,#525);
#520 = CYLINDRICAL_SURFACE('',#521,0.5);
#521 = AXIS2_PLACEMENT_3D('',#522,#523,#524);
#522 = CARTESIAN_POINT('',(0.,0.,-49.));
#523 = DIRECTION('',(-0.,-0.,-1.));
#524 = DIRECTION('',(1.,0.,0.));
#525 = DEFINITIONAL_REPRESENTATION('',(#526),#565);
#526 = B_SPLINE_CURVE_WITH_KNOTS('',7,(#527,#528,#529,#530,#531,#532,
    #533,#534,#535,#536,#537,#538,#539,#540,#541,#542,#543,#544,#545,
    #546,#547,#548,#549,#550,#551,#552,#553,#554,#555,#556,#557,#558,
    #559,#560,#561,#562,#563,#564),.UNSPECIFIED.,.F.,.F.,(8,6,6,6,6,6,8)
  ,(0.,0.465465343835,0.703290426551,0.825915635799,0.949484459264,
    0.986667508179,1.),.UNSPECIFIED.);
#527 = CARTESIAN_POINT('',(-3.14159265359,-20.99606925692));
#528 = CARTESIAN_POINT('',(-3.035268985435,-20.99606925692));
#529 = CARTESIAN_POINT('',(-2.928651548305,-20.99622164515));
#530 = CARTESIAN_POINT('',(-2.822040216426,-20.99652909073));
#531 = CARTESIAN_POINT('',(-2.715652754073,-20.99696034027));
#532 = CARTESIAN_POINT('',(-2.609651037428,-20.99745892844));
#533 = CARTESIAN_POINT('',(-2.504157404606,-20.9979571316));
#534 = CARTESIAN_POINT('',(-2.345665383687,-20.99861897306));
#535 = CARTESIAN_POINT('',(-2.292215874298,-20.9988270604));
#536 = CARTESIAN_POINT('',(-2.238917096022,-20.99901127451));
#537 = CARTESIAN_POINT('',(-2.185767186264,-20.99916379668));
#538 = CARTESIAN_POINT('',(-2.132758293562,-20.99927720783));
#539 = CARTESIAN_POINT('',(-2.079876941661,-20.99934455496));
#540 = CARTESIAN_POINT('',(-1.999894291638,-20.99936708092));
#541 = CARTESIAN_POINT('',(-1.972713113228,-20.99936081711));
#542 = CARTESIAN_POINT('',(-1.945558190761,-20.99933969572));
#543 = CARTESIAN_POINT('',(-1.918426597911,-20.99930288511));
#544 = CARTESIAN_POINT('',(-1.89131514964,-20.99924965243));
#545 = CARTESIAN_POINT('',(-1.864220402193,-20.9991793636));
#546 = CARTESIAN_POINT('',(-1.809848507021,-20.9990029268));
#547 = CARTESIAN_POINT('',(-1.782571390075,-20.99889627197));
#548 = CARTESIAN_POINT('',(-1.755304957743,-20.99877293664));
#549 = CARTESIAN_POINT('',(-1.728041354613,-20.99862690839));
#550 = CARTESIAN_POINT('',(-1.700785257263,-20.99847014478));
#551 = CARTESIAN_POINT('',(-1.673521895232,-20.99828762574));
#552 = CARTESIAN_POINT('',(-1.63806747769,-20.99805553615));
#553 = CARTESIAN_POINT('',(-1.629874062514,-20.99799798065));
#554 = CARTESIAN_POINT('',(-1.621686714558,-20.99795186987));
#555 = CARTESIAN_POINT('',(-1.61349733023,-20.99790823737));
#556 = CARTESIAN_POINT('',(-1.605309150015,-20.99785880182));
#557 = CARTESIAN_POINT('',(-1.597154830145,-20.99782093475));
#558 = CARTESIAN_POINT('',(-1.586231548812,-20.99787757813));
#559 = CARTESIAN_POINT('',(-1.582691453293,-20.99794126856));
#560 = CARTESIAN_POINT('',(-1.58066895083,-20.99788965245));
#561 = CARTESIAN_POINT('',(-1.578336538526,-20.99805719385));
#562 = CARTESIAN_POINT('',(-1.574638080424,-20.99820942816));
#563 = CARTESIAN_POINT('',(-1.5711166078,-20.99814968876));
#564 = CARTESIAN_POINT('',(-1.5707963268,-20.99999999997));
#565 = ( GEOMETRIC_REPRESENTATION_CONTEXT(2)
PARAMETRIC_REPRESENTATION_CONTEXT() REPRESENTATION_CONTEXT('2D SPACE',''
  ) );
#566 = ORIENTED_EDGE('',*,*,#567,.F.);
#567 = EDGE_CURVE('',#568,#435,#570,.T.);
#568 = VERTEX_POINT('',#569);
#569 = CARTESIAN_POINT('',(-3.657324378205E-16,-0.5,-28.));
#570 = SURFACE_CURVE('',#571,(#579,#586),.PCURVE_S1.);
#571 = ( BOUNDED_CURVE() B_SPLINE_CURVE(6,(#572,#573,#574,#575,#576,#577
,#578),.UNSPECIFIED.,.T.,.F.) B_SPLINE_CURVE_WITH_KNOTS((1,6,6,1),(
    -6.28318530718,0.,6.28318530718,12.566370614359),.UNSPECIFIED.)
CURVE() GEOMETRIC_REPRESENTATION_ITEM() RATIONAL_B_SPLINE_CURVE((
    1.669078461068,1.03672962321,1.038346699848,0.853534330196,
1.038346699848,1.03672962321,1.669078461068)) REPRESENTATION_ITEM('') );
#572 = CARTESIAN_POINT('',(-4.311276297937E-02,7.979727989493E-17,
    -28.49813782196));
#573 = CARTESIAN_POINT('',(-4.311276297937E-02,-0.830771537786,
    -28.49813782196));
#574 = CARTESIAN_POINT('',(4.546448618943E-02,-0.950056191623,
    -27.4746896612));
#575 = CARTESIAN_POINT('',(0.118522026218,-2.98372437868E-15,
    -26.63056088465));
#576 = CARTESIAN_POINT('',(4.546448618943E-02,0.950056191623,
    -27.4746896612));
#577 = CARTESIAN_POINT('',(-4.311276297937E-02,0.830771537786,
    -28.49813782196));
#578 = CARTESIAN_POINT('',(-4.311276297937E-02,7.979727989493E-17,
    -28.49813782196));
#579 = PCURVE('',#94,#580);
#580 = DEFINITIONAL_REPRESENTATION('',(#581),#585);
#581 = LINE('',#582,#583);
#582 = CARTESIAN_POINT('',(0.,9.471757791749));
#583 = VECTOR('',#584,1.);
#584 = DIRECTION('',(1.,0.));
#585 = ( GEOMETRIC_REPRESENTATION_CONTEXT(2)
PARAMETRIC_REPRESENTATION_CONTEXT() REPRESENTATION_CONTEXT('2D SPACE',''
  ) );
#586 = PCURVE('',#587,#592);
#587 = PLANE('',#588);
#588 = AXIS2_PLACEMENT_3D('',#589,#590,#591);
#589 = CARTESIAN_POINT('',(-6.830063375432E-06,2.286824526805E-16,
    -28.0000789166));
#590 = DIRECTION('',(-0.996275643922,2.884919371359E-15,
    8.622552595875E-02));
#591 = DIRECTION('',(-8.622552595875E-02,-1.066362046037E-32,
    -0.996275643922));
#592 = DEFINITIONAL_REPRESENTATION('',(#593),#601);
#593 = ( BOUNDED_CURVE() B_SPLINE_CURVE(6,(#594,#595,#596,#597,#598,#599
,#600),.UNSPECIFIED.,.T.,.F.) B_SPLINE_CURVE_WITH_KNOTS((1,6,6,1),(
    -6.28318530718,0.,6.28318530718,12.566370614359),.UNSPECIFIED.)
CURVE() GEOMETRIC_REPRESENTATION_ITEM() RATIONAL_B_SPLINE_CURVE((
    1.669078461068,1.03672962321,1.038346699848,0.853534330196,
1.038346699848,1.03672962321,1.669078461068)) REPRESENTATION_ITEM('') );
#594 = CARTESIAN_POINT('',(0.499920788383,1.488851727856E-16));
#595 = CARTESIAN_POINT('',(0.499920788383,0.830771537786));
#596 = CARTESIAN_POINT('',(-0.527353306892,0.950056191623));
#597 = CARTESIAN_POINT('',(-1.374637672122,3.212406831361E-15));
#598 = CARTESIAN_POINT('',(-0.527353306892,-0.950056191623));
#599 = CARTESIAN_POINT('',(0.499920788383,-0.830771537786));
#600 = CARTESIAN_POINT('',(0.499920788383,1.488851727856E-16));
#601 = ( GEOMETRIC_REPRESENTATION_CONTEXT(2)
PARAMETRIC_REPRESENTATION_CONTEXT() REPRESENTATION_CONTEXT('2D SPACE',''
  ) );
#602 = ORIENTED_EDGE('',*,*,#603,.F.);
#603 = EDGE_CURVE('',#384,#568,#604,.T.);
#604 = SURFACE_CURVE('',#605,(#644,#686),.PCURVE_S1.);
#605 = B_SPLINE_CURVE_WITH_KNOTS('',7,(#606,#607,#608,#609,#610,#611,
    #612,#613,#614,#615,#616,#617,#618,#619,#620,#621,#622,#623,#624,
    #625,#626,#627,#628,#629,#630,#631,#632,#633,#634,#635,#636,#637,
    #638,#639,#640,#641,#642,#643),.UNSPECIFIED.,.F.,.F.,(8,6,6,6,6,6,8)
  ,(0.,0.463265298459,0.704994076145,0.827551988728,0.950998210264,
    0.988150975794,1.),.UNSPECIFIED.);
#606 = CARTESIAN_POINT('',(-0.5,1.110223024625E-16,-28.00393074308));
#607 = CARTESIAN_POINT('',(-0.5,-5.297275536696E-02,-28.00393074308));
#608 = CARTESIAN_POINT('',(-0.493452629123,-0.106091270208,
    -28.00377943282));
#609 = CARTESIAN_POINT('',(-0.480291771937,-0.158236001933,
    -28.00347419098));
#610 = CARTESIAN_POINT('',(-0.46074542878,-0.208304288783,
    -28.00304578939));
#611 = CARTESIAN_POINT('',(-0.435285017808,-0.255308718438,
    -28.0025499218));
#612 = CARTESIAN_POINT('',(-0.404561601899,-0.298432258068,
    -28.00205350619));
#613 = CARTESIAN_POINT('',(-0.350944922178,-0.357185487071,
    -28.00138734831));
#614 = CARTESIAN_POINT('',(-0.331329724438,-0.376105101159,
    -28.00117492243));
#615 = CARTESIAN_POINT('',(-0.310587560544,-0.39371075256,
    -28.00098708172));
#616 = CARTESIAN_POINT('',(-0.288827300188,-0.409928767381,
    -28.00083207053));
#617 = CARTESIAN_POINT('',(-0.266160362783,-0.424698461004,
    -28.00071770549));
#618 = CARTESIAN_POINT('',(-0.242698510849,-0.437970565722,
    -28.00065130187));
#619 = CARTESIAN_POINT('',(-0.206309039524,-0.455655419387,
    -28.00063366702));
#620 = CARTESIAN_POINT('',(-0.193890359439,-0.461210050213,
    -28.00064176757));
#621 = CARTESIAN_POINT('',(-0.181309949435,-0.466364471956,
    -28.00066483326));
#622 = CARTESIAN_POINT('',(-0.168582094372,-0.471114130565,
    -28.00070369262));
#623 = CARTESIAN_POINT('',(-0.155721017683,-0.475454996834,
    -28.00075907105));
#624 = CARTESIAN_POINT('',(-0.142740881369,-0.479383566403,
    -28.00083159084));
#625 = CARTESIAN_POINT('',(-0.11647584888,-0.486435617711,
    -28.00101260509));
#626 = CARTESIAN_POINT('',(-0.103189301803,-0.489553029966,
    -28.00112166887));
#627 = CARTESIAN_POINT('',(-8.98114509311E-02,-0.492245982137,
    -28.00124698216));
#628 = CARTESIAN_POINT('',(-7.635411850814E-02,-0.494511784971,
    -28.00139618931));
#629 = CARTESIAN_POINT('',(-6.283719424961E-02,-0.496348209483,
    -28.00155402195));
#630 = CARTESIAN_POINT('',(-4.926820705773E-02,-0.497753333177,
    -28.00173975747));
#631 = CARTESIAN_POINT('',(-3.158317421326E-02,-0.499018363328,
    -28.00197075408));
#632 = CARTESIAN_POINT('',(-2.749531273774E-02,-0.49927117256,
    -28.00203208024));
#633 = CARTESIAN_POINT('',(-2.341112787606E-02,-0.4994852412,
    -28.00207140357));
#634 = CARTESIAN_POINT('',(-1.932222948896E-02,-0.49966031455,
    -28.00210722067));
#635 = CARTESIAN_POINT('',(-1.522893837064E-02,-0.499795724539,
    -28.0021588284));
#636 = CARTESIAN_POINT('',(-1.115769239209E-02,-0.499891331705,
    -28.00219873704));
#637 = CARTESIAN_POINT('',(-5.909365204525E-03,-0.499966689208,
    -28.00207521484));
#638 = CARTESIAN_POINT('',(-4.605076818506E-03,-0.499979695522,
    -28.00203322065));
#639 = CARTESIAN_POINT('',(-3.803186872771E-03,-0.499987994864,
    -28.00197952976));
#640 = CARTESIAN_POINT('',(-2.802717448817E-03,-0.499995407814,
    -28.00185039572));
#641 = CARTESIAN_POINT('',(-1.353916144458E-03,-0.500000700092,
    -28.00173772897));
#642 = CARTESIAN_POINT('',(-1.32737067556E-04,-0.5,-28.00153368377));
#643 = CARTESIAN_POINT('',(-2.284838984679E-12,-0.5,-28.00000000002));
#644 = PCURVE('',#94,#645);
#645 = DEFINITIONAL_REPRESENTATION('',(#646),#685);
#646 = B_SPLINE_CURVE_WITH_KNOTS('',7,(#647,#648,#649,#650,#651,#652,
    #653,#654,#655,#656,#657,#658,#659,#660,#661,#662,#663,#664,#665,
    #666,#667,#668,#669,#670,#671,#672,#673,#674,#675,#676,#677,#678,
    #679,#680,#681,#682,#683,#684),.UNSPECIFIED.,.F.,.F.,(8,6,6,6,6,6,8)
  ,(0.,0.463265298459,0.704994076145,0.827551988728,0.950998210264,
    0.988150975794,1.),.UNSPECIFIED.);
#647 = CARTESIAN_POINT('',(0.,9.00600140233));
#648 = CARTESIAN_POINT('',(0.107508499167,9.00600140233));
#649 = CARTESIAN_POINT('',(0.214726340777,9.011860098403));
#650 = CARTESIAN_POINT('',(0.32149831914,9.023633537457));
#651 = CARTESIAN_POINT('',(0.427733784554,9.041185335882));
#652 = CARTESIAN_POINT('',(0.533373118789,9.064211013393));
#653 = CARTESIAN_POINT('',(0.638363440306,9.092249508991));
#654 = CARTESIAN_POINT('',(0.797056207096,9.141604875876));
#655 = CARTESIAN_POINT('',(0.851285363466,9.159727374803));
#656 = CARTESIAN_POINT('',(0.905330067268,9.17896512074));
#657 = CARTESIAN_POINT('',(0.959192792576,9.199224954743));
#658 = CARTESIAN_POINT('',(1.01287874163,9.220406593512));
#659 = CARTESIAN_POINT('',(1.066395157906,9.242404408899));
#660 = CARTESIAN_POINT('',(1.146802182119,9.276620673837));
#661 = CARTESIAN_POINT('',(1.173812423928,9.288313918764));
#662 = CARTESIAN_POINT('',(1.200782503495,9.300174677831));
#663 = CARTESIAN_POINT('',(1.227713679751,9.312188527972));
#664 = CARTESIAN_POINT('',(1.254607331667,9.324340887412));
#665 = CARTESIAN_POINT('',(1.281464958255,9.33661701566));
#666 = CARTESIAN_POINT('',(1.335305815591,9.361476778768));
#667 = CARTESIAN_POINT('',(1.362288206509,9.374062174417));
#668 = CARTESIAN_POINT('',(1.389239785363,9.386742005884));
#669 = CARTESIAN_POINT('',(1.416154073776,9.399504062128));
#670 = CARTESIAN_POINT('',(1.443050268492,9.41232661091));
#671 = CARTESIAN_POINT('',(1.469908742126,9.425202543299));
#672 = CARTESIAN_POINT('',(1.504856652996,9.441983964503));
#673 = CARTESIAN_POINT('',(1.512914825437,9.445863643452));
#674 = CARTESIAN_POINT('',(1.521001412184,9.449738051252));
#675 = CARTESIAN_POINT('',(1.529100093976,9.45361661108));
#676 = CARTESIAN_POINT('',(1.53717568474,9.45750055744));
#677 = CARTESIAN_POINT('',(1.545226631174,9.46136256687));
#678 = CARTESIAN_POINT('',(1.555924292246,9.466326773457));
#679 = CARTESIAN_POINT('',(1.558603022216,9.467559341616));
#680 = CARTESIAN_POINT('',(1.560301873928,9.468315331982));
#681 = CARTESIAN_POINT('',(1.562534128606,9.469252889021));
#682 = CARTESIAN_POINT('',(1.565630199613,9.470616495006));
#683 = CARTESIAN_POINT('',(1.568441225808,9.471757791733));
#684 = CARTESIAN_POINT('',(1.571514235696,9.471757791749));
#685 = ( GEOMETRIC_REPRESENTATION_CONTEXT(2)
PARAMETRIC_REPRESENTATION_CONTEXT() REPRESENTATION_CONTEXT('2D SPACE',''
  ) );
#686 = PCURVE('',#520,#687);
#687 = DEFINITIONAL_REPRESENTATION('',(#688),#727);
#688 = B_SPLINE_CURVE_WITH_KNOTS('',7,(#689,#690,#691,#692,#693,#694,
    #695,#696,#697,#698,#699,#700,#701,#702,#703,#704,#705,#706,#707,
    #708,#709,#710,#711,#712,#713,#714,#715,#716,#717,#718,#719,#720,
    #721,#722,#723,#724,#725,#726),.UNSPECIFIED.,.F.,.F.,(8,6,6,6,6,6,8)
  ,(0.,0.463265298459,0.704994076145,0.827551988728,0.950998210264,
    0.988150975794,1.),.UNSPECIFIED.);
#689 = CARTESIAN_POINT('',(-3.14159265359,-20.99606925692));
#690 = CARTESIAN_POINT('',(-3.247538164324,-20.99606925692));
#691 = CARTESIAN_POINT('',(-3.353775111616,-20.99622056717));
#692 = CARTESIAN_POINT('',(-3.460007149824,-20.99652580901));
#693 = CARTESIAN_POINT('',(-3.566018641487,-20.9969542106));
#694 = CARTESIAN_POINT('',(-3.67164894509,-20.99745007819));
#695 = CARTESIAN_POINT('',(-3.776776333105,-20.99794649381));
#696 = CARTESIAN_POINT('',(-3.93585732207,-20.99861265168));
#697 = CARTESIAN_POINT('',(-3.990251820792,-20.99882507756));
#698 = CARTESIAN_POINT('',(-4.044490128126,-20.99901291827));
#699 = CARTESIAN_POINT('',(-4.098574153056,-20.99916792946));
#700 = CARTESIAN_POINT('',(-4.15251222336,-20.9992822945));
#701 = CARTESIAN_POINT('',(-4.206318687064,-20.99934869812));
#702 = CARTESIAN_POINT('',(-4.287237107032,-20.99936633297));
#703 = CARTESIAN_POINT('',(-4.314432007173,-20.99935823242));
#704 = CARTESIAN_POINT('',(-4.341600918666,-20.99933516673));
#705 = CARTESIAN_POINT('',(-4.368746799893,-20.99929630737));
#706 = CARTESIAN_POINT('',(-4.395872863275,-20.99924092894));
#707 = CARTESIAN_POINT('',(-4.422982575266,-20.99916840915));
#708 = CARTESIAN_POINT('',(-4.477373139128,-20.9989873949));
#709 = CARTESIAN_POINT('',(-4.504654037688,-20.99887833112));
#710 = CARTESIAN_POINT('',(-4.531924319513,-20.99875301784));
#711 = CARTESIAN_POINT('',(-4.559193013725,-20.99860381068));
#712 = CARTESIAN_POINT('',(-4.586453108086,-20.99844597804));
#713 = CARTESIAN_POINT('',(-4.613722425169,-20.99826024252));
#714 = CARTESIAN_POINT('',(-4.649182864421,-20.99802924591));
#715 = CARTESIAN_POINT('',(-4.657373856009,-20.99796791976));
#716 = CARTESIAN_POINT('',(-4.665552812576,-20.99792859642));
#717 = CARTESIAN_POINT('',(-4.673737414531,-20.99789277932));
#718 = CARTESIAN_POINT('',(-4.681927898924,-20.99784117159));
#719 = CARTESIAN_POINT('',(-4.690072282015,-20.99780126295));
#720 = CARTESIAN_POINT('',(-4.700570018346,-20.99792478515));
#721 = CARTESIAN_POINT('',(-4.703178719718,-20.99796677934));
#722 = CARTESIAN_POINT('',(-4.704782575633,-20.99802047023));
#723 = CARTESIAN_POINT('',(-4.70678354724,-20.99814960427));
#724 = CARTESIAN_POINT('',(-4.709681149387,-20.99826227102));
#725 = CARTESIAN_POINT('',(-4.71212350625,-20.99846631622));
#726 = CARTESIAN_POINT('',(-4.71238898038,-20.99999999997));
#727 = ( GEOMETRIC_REPRESENTATION_CONTEXT(2)
PARAMETRIC_REPRESENTATION_CONTEXT() REPRESENTATION_CONTEXT('2D SPACE',''
  ) );
#728 = ORIENTED_EDGE('',*,*,#383,.F.);
#729 = ADVANCED_FACE('',(#730),#66,.T.);
#730 = FACE_BOUND('',#731,.T.);
#731 = EDGE_LOOP('',(#732));
#732 = ORIENTED_EDGE('',*,*,#51,.T.);
#733 = ADVANCED_FACE('',(#734),#520,.T.);
#734 = FACE_BOUND('',#735,.F.);
#735 = EDGE_LOOP('',(#736,#765,#788,#815,#816,#817,#839));
#736 = ORIENTED_EDGE('',*,*,#737,.F.);
#737 = EDGE_CURVE('',#738,#738,#740,.T.);
#738 = VERTEX_POINT('',#739);
#739 = CARTESIAN_POINT('',(0.5,0.,-49.));
#740 = SURFACE_CURVE('',#741,(#746,#753),.PCURVE_S1.);
#741 = CIRCLE('',#742,0.5);
#742 = AXIS2_PLACEMENT_3D('',#743,#744,#745);
#743 = CARTESIAN_POINT('',(0.,0.,-49.));
#744 = DIRECTION('',(0.,0.,1.));
#745 = DIRECTION('',(1.,0.,0.));
#746 = PCURVE('',#520,#747);
#747 = DEFINITIONAL_REPRESENTATION('',(#748),#752);
#748 = LINE('',#749,#750);
#749 = CARTESIAN_POINT('',(-0.,0.));
#750 = VECTOR('',#751,1.);
#751 = DIRECTION('',(-1.,0.));
#752 = ( GEOMETRIC_REPRESENTATION_CONTEXT(2)
PARAMETRIC_REPRESENTATION_CONTEXT() REPRESENTATION_CONTEXT('2D SPACE',''
  ) );
#753 = PCURVE('',#754,#759);
#754 = PLANE('',#755);
#755 = AXIS2_PLACEMENT_3D('',#756,#757,#758);
#756 = CARTESIAN_POINT('',(-3.204937810639E-17,4.3687976227E-17,-49.));
#757 = DIRECTION('',(0.,0.,1.));
#758 = DIRECTION('',(1.,0.,-0.));
#759 = DEFINITIONAL_REPRESENTATION('',(#760),#764);
#760 = CIRCLE('',#761,0.5);
#761 = AXIS2_PLACEMENT_2D('',#762,#763);
#762 = CARTESIAN_POINT('',(3.204937810639E-17,-4.3687976227E-17));
#763 = DIRECTION('',(1.,0.));
#764 = ( GEOMETRIC_REPRESENTATION_CONTEXT(2)
PARAMETRIC_REPRESENTATION_CONTEXT() REPRESENTATION_CONTEXT('2D SPACE',''
  ) );
#765 = ORIENTED_EDGE('',*,*,#766,.T.);
#766 = EDGE_CURVE('',#738,#767,#769,.T.);
#767 = VERTEX_POINT('',#768);
#768 = CARTESIAN_POINT('',(0.5,0.,-28.));
#769 = SEAM_CURVE('',#770,(#774,#781),.PCURVE_S1.);
#770 = LINE('',#771,#772);
#771 = CARTESIAN_POINT('',(0.5,0.,-49.));
#772 = VECTOR('',#773,1.);
#773 = DIRECTION('',(0.,0.,1.));
#774 = PCURVE('',#520,#775);
#775 = DEFINITIONAL_REPRESENTATION('',(#776),#780);
#776 = LINE('',#777,#778);
#777 = CARTESIAN_POINT('',(-6.28318530718,0.));
#778 = VECTOR('',#779,1.);
#779 = DIRECTION('',(-0.,-1.));
#780 = ( GEOMETRIC_REPRESENTATION_CONTEXT(2)
PARAMETRIC_REPRESENTATION_CONTEXT() REPRESENTATION_CONTEXT('2D SPACE',''
  ) );
#781 = PCURVE('',#520,#782);
#782 = DEFINITIONAL_REPRESENTATION('',(#783),#787);
#783 = LINE('',#784,#785);
#784 = CARTESIAN_POINT('',(-0.,0.));
#785 = VECTOR('',#786,1.);
#786 = DIRECTION('',(-0.,-1.));
#787 = ( GEOMETRIC_REPRESENTATION_CONTEXT(2)
PARAMETRIC_REPRESENTATION_CONTEXT() REPRESENTATION_CONTEXT('2D SPACE',''
  ) );
#788 = ORIENTED_EDGE('',*,*,#789,.T.);
#789 = EDGE_CURVE('',#767,#435,#790,.T.);
#790 = SURFACE_CURVE('',#791,(#796,#803),.PCURVE_S1.);
#791 = CIRCLE('',#792,0.5);
#792 = AXIS2_PLACEMENT_3D('',#793,#794,#795);
#793 = CARTESIAN_POINT('',(0.,0.,-28.));
#794 = DIRECTION('',(0.,0.,1.));
#795 = DIRECTION('',(1.,0.,0.));
#796 = PCURVE('',#520,#797);
#797 = DEFINITIONAL_REPRESENTATION('',(#798),#802);
#798 = LINE('',#799,#800);
#799 = CARTESIAN_POINT('',(-0.,-21.));
#800 = VECTOR('',#801,1.);
#801 = DIRECTION('',(-1.,0.));
#802 = ( GEOMETRIC_REPRESENTATION_CONTEXT(2)
PARAMETRIC_REPRESENTATION_CONTEXT() REPRESENTATION_CONTEXT('2D SPACE',''
  ) );
#803 = PCURVE('',#804,#809);
#804 = PLANE('',#805);
#805 = AXIS2_PLACEMENT_3D('',#806,#807,#808);
#806 = CARTESIAN_POINT('',(-3.204937810639E-17,4.3687976227E-17,-28.));
#807 = DIRECTION('',(0.,0.,1.));
#808 = DIRECTION('',(1.,0.,-0.));
#809 = DEFINITIONAL_REPRESENTATION('',(#810),#814);
#810 = CIRCLE('',#811,0.5);
#811 = AXIS2_PLACEMENT_2D('',#812,#813);
#812 = CARTESIAN_POINT('',(3.204937810639E-17,-4.3687976227E-17));
#813 = DIRECTION('',(1.,0.));
#814 = ( GEOMETRIC_REPRESENTATION_CONTEXT(2)
PARAMETRIC_REPRESENTATION_CONTEXT() REPRESENTATION_CONTEXT('2D SPACE',''
  ) );
#815 = ORIENTED_EDGE('',*,*,#434,.F.);
#816 = ORIENTED_EDGE('',*,*,#603,.T.);
#817 = ORIENTED_EDGE('',*,*,#818,.T.);
#818 = EDGE_CURVE('',#568,#767,#819,.T.);
#819 = SURFACE_CURVE('',#820,(#825,#832),.PCURVE_S1.);
#820 = CIRCLE('',#821,0.5);
#821 = AXIS2_PLACEMENT_3D('',#822,#823,#824);
#822 = CARTESIAN_POINT('',(0.,0.,-28.));
#823 = DIRECTION('',(0.,0.,1.));
#824 = DIRECTION('',(1.,0.,0.));
#825 = PCURVE('',#520,#826);
#826 = DEFINITIONAL_REPRESENTATION('',(#827),#831);
#827 = LINE('',#828,#829);
#828 = CARTESIAN_POINT('',(-0.,-21.));
#829 = VECTOR('',#830,1.);
#830 = DIRECTION('',(-1.,0.));
#831 = ( GEOMETRIC_REPRESENTATION_CONTEXT(2)
PARAMETRIC_REPRESENTATION_CONTEXT() REPRESENTATION_CONTEXT('2D SPACE',''
  ) );
#832 = PCURVE('',#804,#833);
#833 = DEFINITIONAL_REPRESENTATION('',(#834),#838);
#834 = CIRCLE('',#835,0.5);
#835 = AXIS2_PLACEMENT_2D('',#836,#837);
#836 = CARTESIAN_POINT('',(3.204937810639E-17,-4.3687976227E-17));
#837 = DIRECTION('',(1.,0.));
#838 = ( GEOMETRIC_REPRESENTATION_CONTEXT(2)
PARAMETRIC_REPRESENTATION_CONTEXT() REPRESENTATION_CONTEXT('2D SPACE',''
  ) );
#839 = ORIENTED_EDGE('',*,*,#766,.F.);
#840 = ADVANCED_FACE('',(#841),#587,.F.);
#841 = FACE_BOUND('',#842,.F.);
#842 = EDGE_LOOP('',(#843,#862));
#843 = ORIENTED_EDGE('',*,*,#844,.F.);
#844 = EDGE_CURVE('',#568,#435,#845,.T.);
#845 = SURFACE_CURVE('',#846,(#850,#856),.PCURVE_S1.);
#846 = LINE('',#847,#848);
#847 = CARTESIAN_POINT('',(8.261075507011E-16,1.361753255328E-16,-28.));
#848 = VECTOR('',#849,1.);
#849 = DIRECTION('',(2.895704004166E-15,1.,-0.));
#850 = PCURVE('',#587,#851);
#851 = DEFINITIONAL_REPRESENTATION('',(#852),#855);
#852 = B_SPLINE_CURVE_WITH_KNOTS('',1,(#853,#854),.UNSPECIFIED.,.F.,.F.,
  (2,2),(-0.5,0.5),.PIECEWISE_BEZIER_KNOTS.);
#853 = CARTESIAN_POINT('',(-7.921161744472E-05,0.5));
#854 = CARTESIAN_POINT('',(-7.921161744497E-05,-0.5));
#855 = ( GEOMETRIC_REPRESENTATION_CONTEXT(2)
PARAMETRIC_REPRESENTATION_CONTEXT() REPRESENTATION_CONTEXT('2D SPACE',''
  ) );
#856 = PCURVE('',#804,#857);
#857 = DEFINITIONAL_REPRESENTATION('',(#858),#861);
#858 = B_SPLINE_CURVE_WITH_KNOTS('',1,(#859,#860),.UNSPECIFIED.,.F.,.F.,
  (2,2),(-0.5,0.5),.PIECEWISE_BEZIER_KNOTS.);
#859 = CARTESIAN_POINT('',(-5.896950732754E-16,-0.5));
#860 = CARTESIAN_POINT('',(2.30600893089E-15,0.5));
#861 = ( GEOMETRIC_REPRESENTATION_CONTEXT(2)
PARAMETRIC_REPRESENTATION_CONTEXT() REPRESENTATION_CONTEXT('2D SPACE',''
  ) );
#862 = ORIENTED_EDGE('',*,*,#567,.T.);
#863 = ADVANCED_FACE('',(#864),#754,.F.);
#864 = FACE_BOUND('',#865,.F.);
#865 = EDGE_LOOP('',(#866));
#866 = ORIENTED_EDGE('',*,*,#737,.T.);
#867 = ADVANCED_FACE('',(#868),#804,.T.);
#868 = FACE_BOUND('',#869,.T.);
#869 = EDGE_LOOP('',(#870,#871,#872));
#870 = ORIENTED_EDGE('',*,*,#818,.T.);
#871 = ORIENTED_EDGE('',*,*,#789,.T.);
#872 = ORIENTED_EDGE('',*,*,#844,.F.);
#873 = ( GEOMETRIC_REPRESENTATION_CONTEXT(3)
GLOBAL_UNCERTAINTY_ASSIGNED_CONTEXT((#877)) GLOBAL_UNIT_ASSIGNED_CONTEXT
((#874,#875,#876)) REPRESENTATION_CONTEXT('Context #1',
  '3D Context with UNIT and UNCERTAINTY') );
#874 = ( LENGTH_UNIT() NAMED_UNIT(*) SI_UNIT(.MILLI.,.METRE.) );
#875 = ( NAMED_UNIT(*) PLANE_ANGLE_UNIT() SI_UNIT($,.RADIAN.) );
#876 = ( NAMED_UNIT(*) SI_UNIT($,.STERADIAN.) SOLID_ANGLE_UNIT() );
#877 = UNCERTAINTY_MEASURE_WITH_UNIT(LENGTH_MEASURE(5.E-06),#874,
  'distance_accuracy_value','confusion accuracy');
#878 = PRODUCT_RELATED_PRODUCT_CATEGORY('part',$,(#7));
ENDSEC;
END-ISO-10303-21;
