<?xml version="1.0" encoding="UTF-8"?>
<svg xmlns="http://www.w3.org/2000/svg" viewBox="-43.0 -338.0 985.0 676.0" width="985.0" height="676.0">
<defs>
<marker id="arrowhead" markerWidth="10" markerHeight="7" refX="10" refY="3.5" orient="auto" markerUnits="userSpaceOnUse">
<polygon points="0 0, 10 3.5, 0 7" fill="#4a4a4a"/>
</marker>
</defs>
<rect x="-43.0" y="-338.0" width="985.0" height="676.0" fill="#fafafa" rx="4"/>
<path d="M537.7,-160.0 Q559.5,-160.0 559.5,256.0 Q559.5,256.0 581.3,256.0" fill="none" stroke="#4a4a4a" stroke-width="1.2" marker-end="url(#arrowhead)"/>
<path d="M527.5,-96.0 Q569.0,-96.0 569.0,64.0 Q569.0,64.0 610.6,64.0" fill="none" stroke="#4a4a4a" stroke-width="1.2" marker-end="url(#arrowhead)"/>
<path d="M531.5,-32.0 Q571.0,-32.0 571.0,64.0 Q571.0,64.0 610.6,64.0" fill="none" stroke="#4a4a4a" stroke-width="1.2" marker-end="url(#arrowhead)"/>
<path d="M222.7,-32.0 Q256.4,-32.0 256.4,32.0 Q256.4,32.0 290.2,32.0" fill="none" stroke="#4a4a4a" stroke-width="1.2" marker-end="url(#arrowhead)"/>
<path d="M513.8,32.0 Q561.7,32.0 561.7,192.0 Q561.7,192.0 609.6,192.0" fill="none" stroke="#4a4a4a" stroke-width="1.2" marker-end="url(#arrowhead)"/>
<path d="M212.3,32.0 Q251.2,32.0 251.2,32.0 Q251.2,32.0 290.2,32.0" fill="none" stroke="#4a4a4a" stroke-width="1.2" marker-end="url(#arrowhead)"/>
<path d="M524.6,96.0 Q552.9,96.0 552.9,256.0 Q552.9,256.0 581.3,256.0" fill="none" stroke="#4a4a4a" stroke-width="1.2" marker-end="url(#arrowhead)"/>
<path d="M506.1,160.0 Q534.2,160.0 534.2,128.0 Q534.2,128.0 562.2,128.0" fill="none" stroke="#4a4a4a" stroke-width="1.2" marker-end="url(#arrowhead)"/>
<rect x="594.1" y="-278.0" width="255.8" height="44.0" rx="6" ry="6" fill="#555555" stroke="#333" stroke-width="1"/>
<text x="722.0" y="-242.0" text-anchor="middle" font-family="sans-serif" font-size="12px" fill="#ffffff" opacity="0.85">1,288 LoC</text>
<text x="722.0" y="-251.3" text-anchor="middle" font-family="sans-serif" font-size="14px" font-weight="bold" fill="#ffffff">firmware</text>
<rect x="266.3" y="-182.0" width="271.4" height="44.0" rx="6" ry="6" fill="#DEA584" stroke="#333" stroke-width="1"/>
<text x="402.0" y="-146.0" text-anchor="middle" font-family="sans-serif" font-size="12px" fill="#2d1e0f" opacity="0.85">3,147 LoC</text>
<text x="402.0" y="-155.3" text-anchor="middle" font-family="sans-serif" font-size="14px" font-weight="bold" fill="#2d1e0f">temper-constraint-compiler</text>
<rect x="276.5" y="-118.0" width="251.1" height="44.0" rx="6" ry="6" fill="#DEA584" stroke="#333" stroke-width="1"/>
<text x="402.0" y="-82.0" text-anchor="middle" font-family="sans-serif" font-size="12px" fill="#2d1e0f" opacity="0.85">985 LoC</text>
<text x="402.0" y="-91.4" text-anchor="middle" font-family="sans-serif" font-size="14px" font-weight="bold" fill="#2d1e0f">temper-constraints</text>
<rect x="272.5" y="-54.0" width="259.0" height="44.0" rx="6" ry="6" fill="#DEA584" stroke="#333" stroke-width="1"/>
<text x="402.0" y="-18.0" text-anchor="middle" font-family="sans-serif" font-size="12px" fill="#2d1e0f" opacity="0.85">1,549 LoC</text>
<text x="402.0" y="-27.3" text-anchor="middle" font-family="sans-serif" font-size="14px" font-weight="bold" fill="#2d1e0f">temper-design-bundle</text>
<rect x="580.2" y="-214.0" width="283.7" height="44.0" rx="6" ry="6" fill="#DEA584" stroke="#333" stroke-width="1"/>
<text x="722.0" y="-178.0" text-anchor="middle" font-family="sans-serif" font-size="12px" fill="#2d1e0f" opacity="0.85">6,309 LoC</text>
<text x="722.0" y="-187.3" text-anchor="middle" font-family="sans-serif" font-size="14px" font-weight="bold" fill="#2d1e0f">temper-drc-rs</text>
<rect x="609.2" y="-150.0" width="225.6" height="44.0" rx="6" ry="6" fill="#DEA584" stroke="#333" stroke-width="1"/>
<text x="722.0" y="-114.0" text-anchor="middle" font-family="sans-serif" font-size="11px" fill="#2d1e0f" opacity="0.85">230 LoC</text>
<text x="722.0" y="-123.8" text-anchor="middle" font-family="sans-serif" font-size="13px" font-weight="bold" fill="#2d1e0f">temper-dsn</text>
<rect x="-58.7" y="-54.0" width="281.4" height="44.0" rx="6" ry="6" fill="#DEA584" stroke="#333" stroke-width="1"/>
<text x="82.0" y="-18.0" text-anchor="middle" font-family="sans-serif" font-size="12px" fill="#2d1e0f" opacity="0.85">5,549 LoC</text>
<text x="82.0" y="-27.3" text-anchor="middle" font-family="sans-serif" font-size="14px" font-weight="bold" fill="#2d1e0f">temper-geometry</text>
<rect x="595.3" y="-86.0" width="253.3" height="44.0" rx="6" ry="6" fill="#DEA584" stroke="#333" stroke-width="1"/>
<text x="722.0" y="-50.0" text-anchor="middle" font-family="sans-serif" font-size="12px" fill="#2d1e0f" opacity="0.85">1,120 LoC</text>
<text x="722.0" y="-59.3" text-anchor="middle" font-family="sans-serif" font-size="14px" font-weight="bold" fill="#2d1e0f">temper-io-types</text>
<rect x="609.1" y="-22.0" width="225.9" height="44.0" rx="6" ry="6" fill="#DEA584" stroke="#333" stroke-width="1"/>
<text x="722.0" y="14.0" text-anchor="middle" font-family="sans-serif" font-size="11px" fill="#2d1e0f" opacity="0.85">234 LoC</text>
<text x="722.0" y="4.2" text-anchor="middle" font-family="sans-serif" font-size="13px" font-weight="bold" fill="#2d1e0f">temper-ipc</text>
<rect x="610.6" y="42.0" width="222.9" height="44.0" rx="6" ry="6" fill="#DEA584" stroke="#333" stroke-width="1"/>
<text x="722.0" y="78.0" text-anchor="middle" font-family="sans-serif" font-size="10px" fill="#2d1e0f" opacity="0.85">197 LoC</text>
<text x="722.0" y="68.1" text-anchor="middle" font-family="sans-serif" font-size="12px" font-weight="bold" fill="#2d1e0f">temper-pcl-ir</text>
<rect x="562.2" y="106.0" width="319.6" height="44.0" rx="6" ry="6" fill="#306998" stroke="#333" stroke-width="1"/>
<text x="722.0" y="142.0" text-anchor="middle" font-family="sans-serif" font-size="12px" fill="#ffffff" opacity="0.85">48,741 LoC</text>
<text x="722.0" y="132.7" text-anchor="middle" font-family="sans-serif" font-size="14px" font-weight="bold" fill="#ffffff">temper-placer</text>
<rect x="290.2" y="10.0" width="223.6" height="44.0" rx="6" ry="6" fill="#DEA584" stroke="#333" stroke-width="1"/>
<text x="402.0" y="46.0" text-anchor="middle" font-family="sans-serif" font-size="10px" fill="#2d1e0f" opacity="0.85">206 LoC</text>
<text x="402.0" y="36.1" text-anchor="middle" font-family="sans-serif" font-size="12px" font-weight="bold" fill="#2d1e0f">temper-py-bridge</text>
<rect x="609.6" y="170.0" width="224.9" height="44.0" rx="6" ry="6" fill="#DEA584" stroke="#333" stroke-width="1"/>
<text x="722.0" y="206.0" text-anchor="middle" font-family="sans-serif" font-size="10px" fill="#2d1e0f" opacity="0.85">221 LoC</text>
<text x="722.0" y="196.2" text-anchor="middle" font-family="sans-serif" font-size="12px" font-weight="bold" fill="#2d1e0f">temper-py-bridge-derive</text>
<rect x="-48.3" y="10.0" width="260.6" height="44.0" rx="6" ry="6" fill="#DEA584" stroke="#333" stroke-width="1"/>
<text x="82.0" y="46.0" text-anchor="middle" font-family="sans-serif" font-size="12px" fill="#2d1e0f" opacity="0.85">1,696 LoC</text>
<text x="82.0" y="36.7" text-anchor="middle" font-family="sans-serif" font-size="14px" font-weight="bold" fill="#2d1e0f">temper-quality-oracle</text>
<rect x="279.4" y="74.0" width="245.2" height="44.0" rx="6" ry="6" fill="#DEA584" stroke="#333" stroke-width="1"/>
<text x="402.0" y="110.0" text-anchor="middle" font-family="sans-serif" font-size="12px" fill="#2d1e0f" opacity="0.85">706 LoC</text>
<text x="402.0" y="100.5" text-anchor="middle" font-family="sans-serif" font-size="14px" font-weight="bold" fill="#2d1e0f">temper-rust-router</text>
<rect x="581.3" y="234.0" width="281.5" height="44.0" rx="6" ry="6" fill="#DEA584" stroke="#333" stroke-width="1"/>
<text x="722.0" y="270.0" text-anchor="middle" font-family="sans-serif" font-size="12px" fill="#2d1e0f" opacity="0.85">5,581 LoC</text>
<text x="722.0" y="260.7" text-anchor="middle" font-family="sans-serif" font-size="14px" font-weight="bold" fill="#2d1e0f">temper-rust-router-core</text>
<rect x="297.9" y="138.0" width="208.2" height="44.0" rx="6" ry="6" fill="#306998" stroke="#333" stroke-width="1"/>
<text x="402.0" y="174.0" text-anchor="middle" font-family="sans-serif" font-size="10px" fill="#ffffff" opacity="0.85">85 LoC</text>
<text x="402.0" y="163.9" text-anchor="middle" font-family="sans-serif" font-size="12px" font-weight="bold" fill="#ffffff">temper-workflow</text>
</svg>
