<?xml version="1.0" encoding="UTF-8"?>
<svg xmlns="http://www.w3.org/2000/svg" viewBox="-43.0 -370.0 985.0 740.0" width="985.0" height="740.0">
<defs>
<marker id="arrowhead" markerWidth="10" markerHeight="7" refX="10" refY="3.5" orient="auto" markerUnits="userSpaceOnUse">
<polygon points="0 0, 10 3.5, 0 7" fill="#4a4a4a"/>
</marker>
</defs>
<rect x="-43.0" y="-370.0" width="985.0" height="740.0" fill="#fafafa" rx="4"/>
<path d="M537.7,-224.0 Q559.6,-224.0 559.6,288.0 Q559.6,288.0 581.6,288.0" fill="none" stroke="#4a4a4a" stroke-width="1.2" marker-end="url(#arrowhead)"/>
<path d="M527.5,-160.0 Q569.0,-160.0 569.0,96.0 Q569.0,96.0 610.6,96.0" fill="none" stroke="#4a4a4a" stroke-width="1.2" marker-end="url(#arrowhead)"/>
<path d="M531.5,-96.0 Q571.0,-96.0 571.0,96.0 Q571.0,96.0 610.6,96.0" fill="none" stroke="#4a4a4a" stroke-width="1.2" marker-end="url(#arrowhead)"/>
<path d="M503.4,-32.0 Q557.7,-32.0 557.7,-160.0 Q557.7,-160.0 612.0,-160.0" fill="none" stroke="#4a4a4a" stroke-width="1.2" marker-end="url(#arrowhead)"/>
<path d="M222.1,-32.0 Q413.5,-32.0 413.5,-96.0 Q413.5,-96.0 604.9,-96.0" fill="none" stroke="#4a4a4a" stroke-width="1.2" marker-end="url(#arrowhead)"/>
<path d="M222.1,-32.0 Q256.1,-32.0 256.1,96.0 Q256.1,96.0 290.2,96.0" fill="none" stroke="#4a4a4a" stroke-width="1.2" marker-end="url(#arrowhead)"/>
<path d="M506.0,32.0 Q559.5,32.0 559.5,32.0 Q559.5,32.0 613.0,32.0" fill="none" stroke="#4a4a4a" stroke-width="1.2" marker-end="url(#arrowhead)"/>
<path d="M513.8,96.0 Q561.7,96.0 561.7,224.0 Q561.7,224.0 609.6,224.0" fill="none" stroke="#4a4a4a" stroke-width="1.2" marker-end="url(#arrowhead)"/>
<path d="M212.3,32.0 Q251.2,32.0 251.2,96.0 Q251.2,96.0 290.2,96.0" fill="none" stroke="#4a4a4a" stroke-width="1.2" marker-end="url(#arrowhead)"/>
<path d="M524.3,160.0 Q552.9,160.0 552.9,288.0 Q552.9,288.0 581.6,288.0" fill="none" stroke="#4a4a4a" stroke-width="1.2" marker-end="url(#arrowhead)"/>
<path d="M506.1,224.0 Q534.3,224.0 534.3,160.0 Q534.3,160.0 562.6,160.0" fill="none" stroke="#4a4a4a" stroke-width="1.2" marker-end="url(#arrowhead)"/>
<rect x="594.1" y="-310.0" width="255.8" height="44.0" rx="6" ry="6" fill="#555555" stroke="#333" stroke-width="1"/>
<text x="722.0" y="-274.0" text-anchor="middle" font-family="sans-serif" font-size="12px" fill="#ffffff" opacity="0.85">1,288 LoC</text>
<text x="722.0" y="-283.3" text-anchor="middle" font-family="sans-serif" font-size="14px" font-weight="bold" fill="#ffffff">firmware</text>
<rect x="266.3" y="-246.0" width="271.4" height="44.0" rx="6" ry="6" fill="#DEA584" stroke="#333" stroke-width="1"/>
<text x="402.0" y="-210.0" text-anchor="middle" font-family="sans-serif" font-size="12px" fill="#2d1e0f" opacity="0.85">3,144 LoC</text>
<text x="402.0" y="-219.3" text-anchor="middle" font-family="sans-serif" font-size="14px" font-weight="bold" fill="#2d1e0f">temper-constraint-compiler</text>
<rect x="276.5" y="-182.0" width="251.1" height="44.0" rx="6" ry="6" fill="#DEA584" stroke="#333" stroke-width="1"/>
<text x="402.0" y="-146.0" text-anchor="middle" font-family="sans-serif" font-size="12px" fill="#2d1e0f" opacity="0.85">985 LoC</text>
<text x="402.0" y="-155.4" text-anchor="middle" font-family="sans-serif" font-size="14px" font-weight="bold" fill="#2d1e0f">temper-constraints</text>
<rect x="272.5" y="-118.0" width="259.0" height="44.0" rx="6" ry="6" fill="#DEA584" stroke="#333" stroke-width="1"/>
<text x="402.0" y="-82.0" text-anchor="middle" font-family="sans-serif" font-size="12px" fill="#2d1e0f" opacity="0.85">1,549 LoC</text>
<text x="402.0" y="-91.3" text-anchor="middle" font-family="sans-serif" font-size="14px" font-weight="bold" fill="#2d1e0f">temper-design-bundle</text>
<rect x="581.9" y="-246.0" width="280.1" height="44.0" rx="6" ry="6" fill="#DEA584" stroke="#333" stroke-width="1"/>
<text x="722.0" y="-210.0" text-anchor="middle" font-family="sans-serif" font-size="12px" fill="#2d1e0f" opacity="0.85">5,161 LoC</text>
<text x="722.0" y="-219.3" text-anchor="middle" font-family="sans-serif" font-size="14px" font-weight="bold" fill="#2d1e0f">temper-drc-rs</text>
<rect x="300.6" y="-54.0" width="202.8" height="44.0" rx="6" ry="6" fill="#DEA584" stroke="#333" stroke-width="1"/>
<text x="402.0" y="-18.0" text-anchor="middle" font-family="sans-serif" font-size="9px" fill="#2d1e0f" opacity="0.85">62 LoC</text>
<text x="402.0" y="-28.2" text-anchor="middle" font-family="sans-serif" font-size="11px" font-weight="bold" fill="#2d1e0f">temper-dsn</text>
<rect x="612.0" y="-182.0" width="220.0" height="44.0" rx="6" ry="6" fill="#DEA584" stroke="#333" stroke-width="1"/>
<text x="722.0" y="-146.0" text-anchor="middle" font-family="sans-serif" font-size="10px" fill="#2d1e0f" opacity="0.85">167 LoC</text>
<text x="722.0" y="-155.9" text-anchor="middle" font-family="sans-serif" font-size="12px" font-weight="bold" fill="#2d1e0f">temper-dsn-core</text>
<rect x="-58.1" y="-54.0" width="280.2" height="44.0" rx="6" ry="6" fill="#DEA584" stroke="#333" stroke-width="1"/>
<text x="82.0" y="-18.0" text-anchor="middle" font-family="sans-serif" font-size="12px" fill="#2d1e0f" opacity="0.85">5,173 LoC</text>
<text x="82.0" y="-27.3" text-anchor="middle" font-family="sans-serif" font-size="14px" font-weight="bold" fill="#2d1e0f">temper-geometry</text>
<rect x="604.9" y="-118.0" width="234.1" height="44.0" rx="6" ry="6" fill="#DEA584" stroke="#333" stroke-width="1"/>
<text x="722.0" y="-82.0" text-anchor="middle" font-family="sans-serif" font-size="11px" fill="#2d1e0f" opacity="0.85">375 LoC</text>
<text x="722.0" y="-91.7" text-anchor="middle" font-family="sans-serif" font-size="13px" font-weight="bold" fill="#2d1e0f">temper-geometry-core</text>
<rect x="597.3" y="-54.0" width="249.5" height="44.0" rx="6" ry="6" fill="#DEA584" stroke="#333" stroke-width="1"/>
<text x="722.0" y="-18.0" text-anchor="middle" font-family="sans-serif" font-size="12px" fill="#2d1e0f" opacity="0.85">899 LoC</text>
<text x="722.0" y="-27.4" text-anchor="middle" font-family="sans-serif" font-size="14px" font-weight="bold" fill="#2d1e0f">temper-io-types</text>
<rect x="298.0" y="10.0" width="208.0" height="44.0" rx="6" ry="6" fill="#DEA584" stroke="#333" stroke-width="1"/>
<text x="402.0" y="46.0" text-anchor="middle" font-family="sans-serif" font-size="10px" fill="#2d1e0f" opacity="0.85">84 LoC</text>
<text x="402.0" y="35.9" text-anchor="middle" font-family="sans-serif" font-size="12px" font-weight="bold" fill="#2d1e0f">temper-ipc</text>
<rect x="613.0" y="10.0" width="218.0" height="44.0" rx="6" ry="6" fill="#DEA584" stroke="#333" stroke-width="1"/>
<text x="722.0" y="46.0" text-anchor="middle" font-family="sans-serif" font-size="10px" fill="#2d1e0f" opacity="0.85">149 LoC</text>
<text x="722.0" y="36.0" text-anchor="middle" font-family="sans-serif" font-size="12px" font-weight="bold" fill="#2d1e0f">temper-ipc-core</text>
<rect x="610.6" y="74.0" width="222.9" height="44.0" rx="6" ry="6" fill="#DEA584" stroke="#333" stroke-width="1"/>
<text x="722.0" y="110.0" text-anchor="middle" font-family="sans-serif" font-size="10px" fill="#2d1e0f" opacity="0.85">197 LoC</text>
<text x="722.0" y="100.1" text-anchor="middle" font-family="sans-serif" font-size="12px" font-weight="bold" fill="#2d1e0f">temper-pcl-ir</text>
<rect x="562.6" y="138.0" width="318.9" height="44.0" rx="6" ry="6" fill="#306998" stroke="#333" stroke-width="1"/>
<text x="722.0" y="174.0" text-anchor="middle" font-family="sans-serif" font-size="12px" fill="#ffffff" opacity="0.85">46,868 LoC</text>
<text x="722.0" y="164.7" text-anchor="middle" font-family="sans-serif" font-size="14px" font-weight="bold" fill="#ffffff">temper-placer</text>
<rect x="290.2" y="74.0" width="223.6" height="44.0" rx="6" ry="6" fill="#DEA584" stroke="#333" stroke-width="1"/>
<text x="402.0" y="110.0" text-anchor="middle" font-family="sans-serif" font-size="10px" fill="#2d1e0f" opacity="0.85">206 LoC</text>
<text x="402.0" y="100.1" text-anchor="middle" font-family="sans-serif" font-size="12px" font-weight="bold" fill="#2d1e0f">temper-py-bridge</text>
<rect x="609.6" y="202.0" width="224.9" height="44.0" rx="6" ry="6" fill="#DEA584" stroke="#333" stroke-width="1"/>
<text x="722.0" y="238.0" text-anchor="middle" font-family="sans-serif" font-size="10px" fill="#2d1e0f" opacity="0.85">221 LoC</text>
<text x="722.0" y="228.2" text-anchor="middle" font-family="sans-serif" font-size="12px" font-weight="bold" fill="#2d1e0f">temper-py-bridge-derive</text>
<rect x="-48.3" y="10.0" width="260.6" height="44.0" rx="6" ry="6" fill="#DEA584" stroke="#333" stroke-width="1"/>
<text x="82.0" y="46.0" text-anchor="middle" font-family="sans-serif" font-size="12px" fill="#2d1e0f" opacity="0.85">1,695 LoC</text>
<text x="82.0" y="36.7" text-anchor="middle" font-family="sans-serif" font-size="14px" font-weight="bold" fill="#2d1e0f">temper-quality-oracle</text>
<rect x="279.7" y="138.0" width="244.6" height="44.0" rx="6" ry="6" fill="#DEA584" stroke="#333" stroke-width="1"/>
<text x="402.0" y="174.0" text-anchor="middle" font-family="sans-serif" font-size="12px" fill="#2d1e0f" opacity="0.85">681 LoC</text>
<text x="402.0" y="164.5" text-anchor="middle" font-family="sans-serif" font-size="14px" font-weight="bold" fill="#2d1e0f">temper-rust-router</text>
<rect x="581.6" y="266.0" width="280.9" height="44.0" rx="6" ry="6" fill="#DEA584" stroke="#333" stroke-width="1"/>
<text x="722.0" y="302.0" text-anchor="middle" font-family="sans-serif" font-size="12px" fill="#2d1e0f" opacity="0.85">5,382 LoC</text>
<text x="722.0" y="292.7" text-anchor="middle" font-family="sans-serif" font-size="14px" font-weight="bold" fill="#2d1e0f">temper-rust-router-core</text>
<rect x="297.9" y="202.0" width="208.2" height="44.0" rx="6" ry="6" fill="#306998" stroke="#333" stroke-width="1"/>
<text x="402.0" y="238.0" text-anchor="middle" font-family="sans-serif" font-size="10px" fill="#ffffff" opacity="0.85">85 LoC</text>
<text x="402.0" y="227.9" text-anchor="middle" font-family="sans-serif" font-size="12px" font-weight="bold" fill="#ffffff">temper-workflow</text>
</svg>
