%FSTAX23Y23*%
%MOIN*%
%SFA1B1*%

%IPPOS*%
%ADD10C,0.004330*%
%ADD11R,0.037400X0.035430*%
%ADD12R,0.035430X0.037400*%
%ADD13R,0.102360X0.035430*%
%ADD14R,0.285430X0.393700*%
%ADD15R,0.045280X0.057090*%
%ADD16R,0.057090X0.045280*%
%ADD17R,0.037400X0.039370*%
%ADD18R,0.078740X0.024800*%
%ADD19R,0.059050X0.059050*%
%ADD20C,0.010000*%
%ADD21C,0.118110*%
%ADD22C,0.078740*%
%ADD23C,0.060000*%
%ADD24C,0.050000*%
%LNtea2209-1*%
%LPD*%
G54D10*
X01865Y00024D02*
D01*
X01864Y00024*
X01862Y00023*
X01861Y00023*
X01096Y00405D02*
Y00721D01*
X011Y00405D02*
Y00721D01*
X01053Y00405D02*
Y00721D01*
X01057Y00405D02*
Y00721D01*
X01108Y00405D02*
Y00721D01*
X01112Y00405D02*
Y00721D01*
X01104Y00405D02*
Y00721D01*
X01029Y00405D02*
Y00721D01*
X01023D02*
X01125D01*
X01025Y00405D02*
Y00721D01*
X01037Y00405D02*
Y00721D01*
X01049Y00405D02*
Y00721D01*
X01033Y00405D02*
Y00721D01*
X00868Y00428D02*
X01125D01*
X00868Y00412D02*
X01125D01*
X00868Y00436D02*
X01125D01*
X00868Y00432D02*
X01125D01*
X01045Y00405D02*
Y00721D01*
X00868Y00408D02*
X01125D01*
X01041Y00405D02*
Y00721D01*
X00865Y00444D02*
X01125D01*
X00867Y0044D02*
X01125D01*
X00859Y00448D02*
X01125D01*
X00868Y0042D02*
X01125D01*
X00868Y00416D02*
X01125D01*
X00868Y00424D02*
X01125D01*
X00856Y00448D02*
Y0077D01*
X0086Y00448D02*
Y0077D01*
X00848Y00448D02*
Y0077D01*
X00852Y00448D02*
Y0077D01*
X00868Y00437D02*
Y0077D01*
X0101Y00405D02*
Y0077D01*
X00864Y00445D02*
Y0077D01*
X00828Y00448D02*
Y0077D01*
X00832Y00448D02*
Y0077D01*
X00825Y00448D02*
Y0077D01*
X0084Y00448D02*
Y0077D01*
X00844Y00448D02*
Y0077D01*
X00836Y00448D02*
Y0077D01*
X01015Y00725D02*
X01019Y00722D01*
X01023Y00721*
X01012Y00729D02*
X01015Y00725D01*
X01017Y00405D02*
Y00723D01*
X01021Y00405D02*
Y00722D01*
X01014Y00405D02*
Y00726D01*
X01011Y00734D02*
Y00769D01*
Y00734D02*
X01012Y00729D01*
X00856Y00448D02*
X0086Y00447D01*
X00864Y00445D02*
X00867Y00441D01*
X00868Y00436*
X0086Y00447D02*
X00864Y00445D01*
X00994Y00405D02*
Y0077D01*
X00998Y00405D02*
Y0077D01*
X00986Y00405D02*
Y0077D01*
X0099Y00405D02*
Y0077D01*
X01006Y00405D02*
Y0077D01*
X01061Y00405D02*
Y00721D01*
X01002Y00405D02*
Y0077D01*
X00966Y00405D02*
Y0077D01*
X0097Y00405D02*
Y0077D01*
X00962Y00405D02*
Y0077D01*
X00978Y00405D02*
Y0077D01*
X00982Y00405D02*
Y0077D01*
X00974Y00405D02*
Y0077D01*
X01092Y00405D02*
Y00721D01*
X01116Y00405D02*
Y00721D01*
X01084Y00405D02*
Y00721D01*
X01088Y00405D02*
Y00721D01*
X01124Y00405D02*
Y00721D01*
X01125Y00405D02*
Y00721D01*
X0112Y00405D02*
Y00721D01*
X01069Y00405D02*
Y00721D01*
X0089Y00405D02*
X01125D01*
X01065D02*
Y00721D01*
X01077Y00405D02*
Y00721D01*
X0108Y00405D02*
Y00721D01*
X01073Y00405D02*
Y00721D01*
X00943Y00405D02*
Y0077D01*
X00947Y00405D02*
Y0077D01*
X00935Y00405D02*
Y0077D01*
X00939Y00405D02*
Y0077D01*
X00954Y00405D02*
Y0077D01*
X00958Y00405D02*
Y0077D01*
X00951Y00405D02*
Y0077D01*
X00915Y00405D02*
Y0077D01*
X00919Y00405D02*
Y0077D01*
X00911Y00405D02*
Y0077D01*
X00927Y00405D02*
Y0077D01*
X00931Y00405D02*
Y0077D01*
X00923Y00405D02*
Y0077D01*
X00891Y00405D02*
Y0077D01*
X00895Y00405D02*
Y0077D01*
X00888Y00405D02*
Y0077D01*
X00903Y00405D02*
Y0077D01*
X00907Y00405D02*
Y0077D01*
X00899Y00405D02*
Y0077D01*
X00872Y00405D02*
Y0077D01*
X00868Y00405D02*
X0089D01*
X00868D02*
Y00436D01*
X0088Y00405D02*
Y0077D01*
X00884Y00405D02*
Y0077D01*
X00876Y00405D02*
Y0077D01*
X00755Y00688D02*
X01125D01*
X00755Y00684D02*
X01125D01*
X00755Y00696D02*
X01125D01*
X00755Y00692D02*
X01125D01*
X00755Y00676D02*
X01125D01*
X00755Y00672D02*
X01125D01*
X00755Y0068D02*
X01125D01*
X00755Y00715D02*
X01125D01*
X00755Y00711D02*
X01125D01*
X00755Y00719D02*
X01125D01*
X00755Y00704D02*
X01125D01*
X00755Y007D02*
X01125D01*
X00755Y00708D02*
X01125D01*
X00755Y00597D02*
X01125D01*
X00755Y00593D02*
X01125D01*
X00755Y00605D02*
X01125D01*
X00755Y00601D02*
X01125D01*
X00755Y00578D02*
X01125D01*
X00755Y00574D02*
X01125D01*
X00755Y00589D02*
X01125D01*
X00755Y00664D02*
X01125D01*
X00755Y0066D02*
X01125D01*
X00755Y00668D02*
X01125D01*
X00755Y00652D02*
X01125D01*
X00755Y00648D02*
X01125D01*
X00755Y00656D02*
X01125D01*
X00755Y00739D02*
X01011D01*
X00755Y00735D02*
X01011D01*
X00755Y00747D02*
X01011D01*
X00755Y00743D02*
X01011D01*
X00755Y00727D02*
X01013D01*
X00755Y00723D02*
X01017D01*
X00755Y00731D02*
X01011D01*
X00755Y0077D02*
X01011D01*
X00755Y00767D02*
X01011D01*
X00755Y00763D02*
X01011D01*
X00755Y00755D02*
X01011D01*
X00755Y00751D02*
X01011D01*
X00755Y00759D02*
X01011D01*
X00755Y00617D02*
X01125D01*
X00755Y00613D02*
X01125D01*
X00755Y00621D02*
X01125D01*
X00755Y00585D02*
X01125D01*
X00755Y00582D02*
X01125D01*
X00755Y00609D02*
X01125D01*
X00755Y00641D02*
X01125D01*
X00755Y00637D02*
X01125D01*
X00755Y00645D02*
X01125D01*
X00755Y00629D02*
X01125D01*
X00755Y00625D02*
X01125D01*
X00755Y00633D02*
X01125D01*
X00755Y00538D02*
X01125D01*
X00755Y00534D02*
X01125D01*
X00755Y00546D02*
X01125D01*
X00755Y00542D02*
X01125D01*
X00755Y00526D02*
X01125D01*
X00755Y00522D02*
X01125D01*
X00755Y0053D02*
X01125D01*
X00755Y00566D02*
X01125D01*
X00755Y00562D02*
X01125D01*
X00755Y0057D02*
X01125D01*
X00755Y00554D02*
X01125D01*
X00755Y0055D02*
X01125D01*
X00755Y00558D02*
X01125D01*
X00755Y00491D02*
X01125D01*
X00755Y00487D02*
X01125D01*
X00755Y00495D02*
X01125D01*
X00755Y00479D02*
X01125D01*
X00755Y00475D02*
X01125D01*
X00755Y00483D02*
X01125D01*
X00755Y00515D02*
X01125D01*
X00755Y00511D02*
X01125D01*
X00755Y00519D02*
X01125D01*
X00755Y00503D02*
X01125D01*
X00755Y00499D02*
X01125D01*
X00755Y00507D02*
X01125D01*
X00805Y00448D02*
Y0077D01*
X00809Y00448D02*
Y0077D01*
X00797Y00448D02*
Y0077D01*
X00801Y00448D02*
Y0077D01*
X00817Y00448D02*
Y0077D01*
X00821Y00448D02*
Y0077D01*
X00813Y00448D02*
Y0077D01*
X00758Y00448D02*
Y0077D01*
X00762Y00448D02*
Y0077D01*
X00755Y00448D02*
Y0077D01*
X00789Y00448D02*
Y0077D01*
X00793Y00448D02*
Y0077D01*
X00765Y00448D02*
Y0077D01*
X00773Y00448D02*
Y0077D01*
X00755Y00471D02*
X01125D01*
X00769Y00448D02*
Y0077D01*
X00781Y00448D02*
Y0077D01*
X00785Y00448D02*
Y0077D01*
X00777Y00448D02*
Y0077D01*
X00755Y00463D02*
X01125D01*
X00755Y0046D02*
X01125D01*
X00755Y00467D02*
X01125D01*
X00755Y00456D02*
X01125D01*
X00755Y00452D02*
X01125D01*
X00755Y00448D02*
X00856D01*
X00425Y01373D02*
X0056D01*
X00425Y01369D02*
X0056D01*
X00425Y01377D02*
X0056D01*
X00425Y01361D02*
X0056D01*
X00425Y01341D02*
X0056D01*
X00425Y01365D02*
X0056D01*
X00425Y01397D02*
X0056D01*
X00425Y01393D02*
X0056D01*
X00425Y014D02*
X0056D01*
X00425Y01385D02*
X0056D01*
X00425Y01381D02*
X0056D01*
X00425Y01389D02*
X0056D01*
X00425Y01231D02*
X00568D01*
X0056Y0124D02*
X00645Y01155D01*
X00425Y01227D02*
X00572D01*
X00645Y00375D02*
Y01155D01*
X00612Y0022D02*
Y01187D01*
X00425Y01223D02*
X00576D01*
X00425Y01337D02*
X0056D01*
Y0124D02*
Y014D01*
X00425Y01334D02*
X0056D01*
X00425Y01235D02*
X00564D01*
X00425Y01239D02*
X0056D01*
X00425Y01196D02*
X00603D01*
X00425Y01192D02*
X00607D01*
X00425Y012D02*
X00599D01*
X00425Y01184D02*
X00615D01*
X00425Y0118D02*
X00619D01*
X00425Y01188D02*
X00611D01*
X00425Y01215D02*
X00584D01*
X00425Y01211D02*
X00588D01*
X00425Y01219D02*
X0058D01*
X00425Y01204D02*
X00595D01*
X00425Y01208D02*
X00591D01*
X00425Y01156D02*
X00643D01*
X00425Y01152D02*
X00645D01*
X00425Y01148D02*
X00645D01*
X00425Y01141D02*
X00645D01*
X00425Y01137D02*
X00645D01*
X00425Y01145D02*
X00645D01*
X00425Y01172D02*
X00627D01*
X00425Y01168D02*
X00631D01*
X00425Y01176D02*
X00623D01*
X00425Y0116D02*
X00639D01*
X00425Y01164D02*
X00635D01*
X00537Y01054D02*
X00645D01*
X00537Y0105D02*
X00645D01*
X00537Y01058D02*
X00645D01*
X00537Y01042D02*
X00645D01*
X00537Y01038D02*
X00645D01*
X00537Y01046D02*
X00645D01*
X00425Y01097D02*
X00645D01*
X00425Y01089D02*
X00645D01*
X00425Y01101D02*
X00645D01*
X00533Y01066D02*
X00645D01*
X00536Y01062D02*
X00645D01*
X00425Y01085D02*
X00645D01*
X00537Y01026D02*
X00645D01*
Y00375D02*
X00695Y00325D01*
X00537Y0103D02*
X00645D01*
X00875Y00325D02*
X00905Y00295D01*
X00746Y0022D02*
Y00325D01*
X00695D02*
X00875D01*
X00537Y01034D02*
X00645D01*
X00537Y01022D02*
X00645D01*
X00536Y01019D02*
X00645D01*
X00535Y01015D02*
X00645D01*
X0053Y01011D02*
X00645D01*
X00425Y01109D02*
X00645D01*
X00425Y01105D02*
X00645D01*
X00425Y01113D02*
X00645D01*
X00425Y01082D02*
X00645D01*
X00425Y01078D02*
X00645D01*
X00425Y01093D02*
X00645D01*
X00425Y01129D02*
X00645D01*
X00425Y01125D02*
X00645D01*
X00425Y01133D02*
X00645D01*
X00425Y01117D02*
X00645D01*
X00425Y01121D02*
X00645D01*
X00425Y00987D02*
X00645D01*
X00425Y00983D02*
X00645D01*
X00425Y00995D02*
X00645D01*
X00425Y00975D02*
X00645D01*
X00425Y00971D02*
X00645D01*
X00425Y00979D02*
X00645D01*
X00425Y01074D02*
X00645D01*
X00425Y0107D02*
X00645D01*
X00425Y01007D02*
X00645D01*
X00425Y00999D02*
X00645D01*
X00425Y01003D02*
X00645D01*
X00474Y01069D02*
Y014D01*
X00478Y01069D02*
Y014D01*
X0047Y01069D02*
Y014D01*
X00486Y01069D02*
Y014D01*
X0049Y01069D02*
Y014D01*
X00482Y01069D02*
Y014D01*
X00451Y01069D02*
Y014D01*
X00454Y01069D02*
Y014D01*
X00447Y01069D02*
Y014D01*
X00462Y01069D02*
Y014D01*
X00466Y01069D02*
Y014D01*
X00458Y01069D02*
Y014D01*
X00517Y01069D02*
Y014D01*
X00521Y01069D02*
Y014D01*
X00514Y01069D02*
Y014D01*
X00529Y01068D02*
Y014D01*
X00533Y01066D02*
Y014D01*
X00525Y01069D02*
Y014D01*
X00498Y01069D02*
Y014D01*
X00502Y01069D02*
Y014D01*
X00494Y01069D02*
Y014D01*
X0051Y01069D02*
Y014D01*
X00506Y01069D02*
Y014D01*
X00425Y01353D02*
X0056D01*
X00425Y01349D02*
X0056D01*
X00425Y01357D02*
X0056D01*
X00425Y0133D02*
X0056D01*
X00425Y01326D02*
X0056D01*
X00425Y01345D02*
X0056D01*
X00425Y01322D02*
X0056D01*
X00425Y01318D02*
X0056D01*
X00425Y01314D02*
X0056D01*
X00425Y01306D02*
X0056D01*
X00425Y0131D02*
X0056D01*
X00425Y01302D02*
X0056D01*
X00443Y01069D02*
Y014D01*
X00425Y01298D02*
X0056D01*
X00425Y0129D02*
X0056D01*
X00425Y01286D02*
X0056D01*
X00425Y01294D02*
X0056D01*
X00427Y01069D02*
Y014D01*
X00431Y01069D02*
Y014D01*
X00425Y01069D02*
Y014D01*
X00439Y01069D02*
Y014D01*
X00435Y01069D02*
Y014D01*
X00533Y01066D02*
X00536Y01062D01*
X00537Y01057*
X00529Y01068D02*
X00533Y01066D01*
X00537Y01021D02*
Y01057D01*
X00536Y01017D02*
X00537Y01021D01*
X00533Y01013D02*
X00536Y01017D01*
X00525Y01069D02*
X00529Y01068D01*
Y0101D02*
X00533Y01013D01*
X00525Y01009D02*
X00529Y0101D01*
X00502Y00935D02*
Y01009D01*
X00506Y00935D02*
Y01009D01*
X00454Y00935D02*
Y01009D01*
X00482Y00935D02*
Y01009D01*
X00486Y00935D02*
Y01009D01*
X00478Y00935D02*
Y01009D01*
X00494Y00935D02*
Y01009D01*
X00498Y00935D02*
Y01009D01*
X0049Y00935D02*
Y01009D01*
X00462Y00935D02*
Y01009D01*
X00466Y00935D02*
Y01009D01*
X00458Y00935D02*
Y01009D01*
X00474Y00935D02*
Y01009D01*
X0047Y00935D02*
Y01009D01*
X00425Y01259D02*
X0056D01*
X00425Y01255D02*
X0056D01*
X00425Y01263D02*
X0056D01*
X00425Y01247D02*
X0056D01*
X00425Y01243D02*
X0056D01*
X00425Y01251D02*
X0056D01*
X00425Y01278D02*
X0056D01*
X00425Y01274D02*
X0056D01*
X00425Y01282D02*
X0056D01*
X00425Y01267D02*
X0056D01*
X00425Y01271D02*
X0056D01*
X00425Y01069D02*
X00525D01*
X00451Y00935D02*
Y01009D01*
X00425D02*
X00525D01*
X00443Y00935D02*
Y01009D01*
X00447Y00935D02*
Y01009D01*
X00425Y00935D02*
X0051D01*
X00427D02*
Y01009D01*
X00431Y00935D02*
Y01009D01*
X00425Y0097D02*
Y01009D01*
X00439Y00935D02*
Y01009D01*
X00435Y00935D02*
Y01009D01*
X00891Y00023D02*
Y00308D01*
X00895Y00023D02*
Y00304D01*
X00884Y00023D02*
Y00315D01*
X00905Y00295D02*
Y0003D01*
X00903Y00028D02*
Y00296D01*
X00899Y00024D02*
Y003D01*
X00825Y00029D02*
Y00325D01*
X00828Y00026D02*
Y00325D01*
X00821Y00033D02*
Y00325D01*
X00876Y00023D02*
Y00323D01*
X0088Y00023D02*
Y00319D01*
X00872Y00023D02*
Y00325D01*
X00856Y00023D02*
Y00325D01*
X0086Y00023D02*
Y00325D01*
X00852Y00023D02*
Y00325D01*
X00868Y00023D02*
Y00325D01*
X00888Y00023D02*
Y00311D01*
X00864Y00023D02*
Y00325D01*
X00836Y00023D02*
Y00325D01*
X0084Y00023D02*
Y00325D01*
X00832Y00023D02*
Y00325D01*
X00848Y00023D02*
Y00325D01*
X00844Y00023D02*
Y00325D01*
X00757Y00215D02*
X00905D01*
X0076Y00211D02*
X00905D01*
X00755Y00219D02*
X00905D01*
X00765Y00204D02*
X00905D01*
X00768Y002D02*
X00905D01*
X00762Y00208D02*
X00905D01*
X00773Y00191D02*
Y00325D01*
X00777Y00185D02*
Y00325D01*
X0077Y00196D02*
X00905D01*
X00776Y00188D02*
X00905D01*
X00773Y00192D02*
X00905D01*
X00801Y00053D02*
Y00325D01*
X00805Y00049D02*
Y00325D01*
X00797Y00057D02*
Y00325D01*
X00813Y00041D02*
Y00325D01*
X00817Y00037D02*
Y00325D01*
X00809Y00045D02*
Y00325D01*
X00789Y00065D02*
Y00325D01*
X00793Y00061D02*
Y00325D01*
X00781Y00179D02*
Y00325D01*
X00785Y00069D02*
Y00325D01*
X00755Y0022D02*
X00785Y00175D01*
Y00145D02*
X00905D01*
X00785Y00141D02*
X00905D01*
X00785Y00148D02*
X00905D01*
X00785Y00133D02*
X00905D01*
X00788Y00066D02*
X00905D01*
X00785Y00137D02*
X00905D01*
X00785Y00172D02*
X00905D01*
X00785Y00168D02*
X00905D01*
X00785Y0007D02*
Y00175D01*
Y00125D02*
X00905D01*
X00792Y00062D02*
X00905D01*
X00785Y00129D02*
X00905D01*
X008Y00054D02*
X00905D01*
X00804Y0005D02*
X00905D01*
X00796Y00058D02*
X00905D01*
X00812Y00042D02*
X00905D01*
X00816Y00038D02*
X00905D01*
X00808Y00046D02*
X00905D01*
X00824Y0003D02*
X00905D01*
X00898Y00023D02*
X00905Y0003D01*
X0082Y00034D02*
X00905D01*
X00831Y00023D02*
X00898D01*
X00828Y00026D02*
X00901D01*
X00785Y00152D02*
X00905D01*
X00785Y00121D02*
X00905D01*
X00785Y00156D02*
X00905D01*
X00785Y00113D02*
X00905D01*
X00785Y00109D02*
X00905D01*
X00785Y00117D02*
X00905D01*
X00781Y0018D02*
X00905D01*
X00783Y00176D02*
X00905D01*
X00778Y00184D02*
X00905D01*
X00785Y0016D02*
X00905D01*
X00785Y00164D02*
X00905D01*
X00785Y00101D02*
X00905D01*
X00785Y00097D02*
X00905D01*
X00785Y00105D02*
X00905D01*
X00785Y00089D02*
X00905D01*
X00785Y00085D02*
X00905D01*
X00785Y00093D02*
X00905D01*
X00785Y00078D02*
X00905D01*
X00785Y00074D02*
X00905D01*
X00785Y00082D02*
X00905D01*
X00785Y0007D02*
X00831Y00023D01*
X00785Y0007D02*
X00905D01*
X0058Y0022D02*
Y01219D01*
X00584Y0022D02*
Y01215D01*
X00577Y0022D02*
Y01223D01*
X00592Y0022D02*
Y01207D01*
X00596Y0022D02*
Y01203D01*
X00588Y0022D02*
Y01211D01*
X00557Y0022D02*
Y014D01*
X00561Y0022D02*
Y01238D01*
X00553Y0022D02*
Y014D01*
X00569Y0022D02*
Y0123D01*
X00573Y0022D02*
Y01226D01*
X00565Y0022D02*
Y01234D01*
X00628Y0022D02*
Y01171D01*
X00632Y0022D02*
Y01167D01*
X00624Y0022D02*
Y01175D01*
X00639Y0022D02*
Y0116D01*
X00643Y0022D02*
Y01156D01*
X00636Y0022D02*
Y01163D01*
X00604Y0022D02*
Y01195D01*
X00608Y0022D02*
Y01191D01*
X006Y0022D02*
Y01199D01*
X0062Y0022D02*
Y01179D01*
X00616Y0022D02*
Y01183D01*
X00541Y0022D02*
Y014D01*
X00545Y0022D02*
Y014D01*
X00537Y0022D02*
Y014D01*
X00533Y0022D02*
Y01013D01*
X00549Y0022D02*
Y014D01*
X00529Y0022D02*
Y0101D01*
X00525Y0022D02*
Y01009D01*
X00521Y00217D02*
Y01009D01*
X00517Y00213D02*
Y01009D01*
X00514Y00208D02*
Y01009D01*
X0051Y00204D02*
Y01009D01*
X0049Y00023D02*
Y00935D01*
X00494Y00023D02*
Y00935D01*
X00486Y00023D02*
Y00935D01*
X00506Y002D02*
Y00935D01*
X00502Y00023D02*
Y00935D01*
X00498Y00023D02*
Y00935D01*
X00478Y00023D02*
Y00935D01*
X00482Y00023D02*
Y00935D01*
X00474Y00023D02*
Y00935D01*
X0047Y00023D02*
Y00935D01*
X00427Y00023D02*
Y00935D01*
X00706Y0022D02*
Y00325D01*
X0071Y0022D02*
Y00325D01*
X00702Y0022D02*
Y00325D01*
X00718Y0022D02*
Y00325D01*
X00722Y0022D02*
Y00325D01*
X00714Y0022D02*
Y00325D01*
X00687Y0022D02*
Y00332D01*
X00691Y0022D02*
Y00328D01*
X00683Y0022D02*
Y00336D01*
X00699Y0022D02*
Y00325D01*
X00695Y0022D02*
Y00325D01*
X00754Y0022D02*
Y00325D01*
X00758Y00215D02*
Y00325D01*
X0075Y0022D02*
Y00325D01*
X00765Y00203D02*
Y00325D01*
X00769Y00197D02*
Y00325D01*
X00762Y00209D02*
Y00325D01*
X0073Y0022D02*
Y00325D01*
X00734Y0022D02*
Y00325D01*
X00726Y0022D02*
Y00325D01*
X00742Y0022D02*
Y00325D01*
X00738Y0022D02*
Y00325D01*
X00667Y0022D02*
Y00352D01*
X00671Y0022D02*
Y00348D01*
X00663Y0022D02*
Y00356D01*
X00675Y0022D02*
Y00344D01*
X00679Y0022D02*
Y0034D01*
X00524Y0022D02*
X00755D01*
X00651D02*
Y00368D01*
X00655Y0022D02*
Y00364D01*
X00647Y0022D02*
Y00372D01*
X00659Y0022D02*
Y0036D01*
X00502Y00197D02*
X00524Y0022D01*
X00454Y00023D02*
Y00935D01*
X00458Y00023D02*
Y00935D01*
X00451Y00023D02*
Y00935D01*
X00466Y00023D02*
Y00935D01*
X00502Y00197D02*
Y00023D01*
X00462D02*
Y00935D01*
X00435Y00023D02*
Y00935D01*
X00439Y00023D02*
Y00935D01*
X00431Y00023D02*
Y00935D01*
X00447Y00023D02*
Y00935D01*
X00443Y00023D02*
Y00935D01*
X00403Y00948D02*
X00645D01*
X00399Y00944D02*
X00645D01*
X00395Y0094D02*
X00645D01*
X00391Y00936D02*
X00645D01*
X00023Y00932D02*
X00645D01*
X00023Y00928D02*
X00645D01*
X00425Y00991D02*
X00645D01*
X00422Y00967D02*
X00645D01*
X00418Y00963D02*
X00645D01*
X00415Y00959D02*
X00645D01*
X00411Y00956D02*
X00645D01*
X00407Y00952D02*
X00645D01*
X00023Y009D02*
X00645D01*
X00023Y00897D02*
X00645D01*
X00023Y00904D02*
X00645D01*
X00023Y00889D02*
X00645D01*
X00023Y00885D02*
X00645D01*
X00023Y00893D02*
X00645D01*
X00023Y0092D02*
X00645D01*
X00023Y00916D02*
X00645D01*
X00023Y00924D02*
X00645D01*
X00023Y00908D02*
X00645D01*
X00023Y00912D02*
X00645D01*
X00023Y00857D02*
X00645D01*
X00023Y00853D02*
X00645D01*
X00023Y00861D02*
X00645D01*
X00023Y00845D02*
X00645D01*
X00023Y00841D02*
X00645D01*
X00023Y00849D02*
X00645D01*
X00023Y00877D02*
X00645D01*
X00023Y00873D02*
X00645D01*
X00023Y00881D02*
X00645D01*
X00023Y00865D02*
X00645D01*
X00023Y00869D02*
X00645D01*
X00023Y00814D02*
X00645D01*
X00023Y0081D02*
X00645D01*
X00023Y00818D02*
X00645D01*
X00023Y00802D02*
X00645D01*
X00023Y00798D02*
X00645D01*
X00023Y00806D02*
X00645D01*
X00023Y00834D02*
X00645D01*
X00023Y0083D02*
X00645D01*
X00023Y00837D02*
X00645D01*
X00023Y00822D02*
X00645D01*
X00023Y00826D02*
X00645D01*
X00023Y0068D02*
X00645D01*
X00023Y00676D02*
X00645D01*
X00023Y00684D02*
X00645D01*
X00023Y00369D02*
X0065D01*
X00023Y00365D02*
X00654D01*
X00023Y00373D02*
X00646D01*
X00023Y00704D02*
X00645D01*
X00023Y007D02*
X00645D01*
X00023Y00708D02*
X00645D01*
X00023Y00692D02*
X00645D01*
X00023Y00688D02*
X00645D01*
X00023Y00696D02*
X00645D01*
X00023Y00337D02*
X00682D01*
X00023Y00334D02*
X00685D01*
X00023Y00341D02*
X00678D01*
X00023Y00326D02*
X00693D01*
X00023Y00322D02*
X00877D01*
X00023Y0033D02*
X00689D01*
X00023Y00357D02*
X00662D01*
X00023Y00353D02*
X00666D01*
X00023Y00361D02*
X00658D01*
X00023Y00345D02*
X00674D01*
X00023Y00349D02*
X0067D01*
X00023Y00771D02*
X00645D01*
X00023Y00767D02*
X00645D01*
X00023Y00774D02*
X00645D01*
X00023Y00759D02*
X00645D01*
X00023Y00755D02*
X00645D01*
X00023Y00763D02*
X00645D01*
X00023Y0079D02*
X00645D01*
X00023Y00786D02*
X00645D01*
X00023Y00794D02*
X00645D01*
X00023Y00778D02*
X00645D01*
X00023Y00782D02*
X00645D01*
X00023Y00727D02*
X00645D01*
X00023Y00723D02*
X00645D01*
X00023Y00731D02*
X00645D01*
X00023Y00715D02*
X00645D01*
X00023Y00711D02*
X00645D01*
X00023Y00719D02*
X00645D01*
X00023Y00747D02*
X00645D01*
X00023Y00743D02*
X00645D01*
X00023Y00751D02*
X00645D01*
X00023Y00735D02*
X00645D01*
X00023Y00739D02*
X00645D01*
X00419Y00935D02*
Y00964D01*
X00423Y00935D02*
Y00968D01*
X0039Y00935D02*
X00425Y0097D01*
X00411Y00935D02*
Y00956D01*
X00415Y00935D02*
Y0096D01*
X004Y00935D02*
X0051D01*
X00403D02*
Y00948D01*
X00407Y00935D02*
Y00952D01*
X00399Y00935D02*
Y00944D01*
X0039Y00935D02*
X004D01*
X00395D02*
Y0094D01*
X00023Y00935D02*
X004D01*
X00023Y00652D02*
X00645D01*
X00023Y00648D02*
X00645D01*
X00023Y00656D02*
X00645D01*
X00023Y00641D02*
X00645D01*
X00023Y00637D02*
X00645D01*
X00023Y00645D02*
X00645D01*
X004Y00935D02*
X00425D01*
X00023Y00672D02*
X00645D01*
X00023Y00668D02*
X00645D01*
X00023Y0066D02*
X00645D01*
X00023Y00664D02*
X00645D01*
X00023Y00609D02*
X00645D01*
X00023Y00605D02*
X00645D01*
X00023Y00613D02*
X00645D01*
X00023Y00597D02*
X00645D01*
X00023Y00593D02*
X00645D01*
X00023Y00601D02*
X00645D01*
X00023Y00629D02*
X00645D01*
X00023Y00625D02*
X00645D01*
X00023Y00633D02*
X00645D01*
X00023Y00617D02*
X00645D01*
X00023Y00621D02*
X00645D01*
X00023Y00566D02*
X00645D01*
X00023Y00562D02*
X00645D01*
X00023Y0057D02*
X00645D01*
X00023Y00554D02*
X00645D01*
X00023Y0055D02*
X00645D01*
X00023Y00558D02*
X00645D01*
X00023Y00585D02*
X00645D01*
X00023Y00582D02*
X00645D01*
X00023Y00589D02*
X00645D01*
X00023Y00574D02*
X00645D01*
X00023Y00578D02*
X00645D01*
X00023Y00436D02*
X00645D01*
X00023Y00432D02*
X00645D01*
X00023Y0044D02*
X00645D01*
X00023Y00424D02*
X00645D01*
X00023Y0042D02*
X00645D01*
X00023Y00428D02*
X00645D01*
X00023Y00456D02*
X00645D01*
X00023Y00452D02*
X00645D01*
X00023Y0046D02*
X00645D01*
X00023Y00444D02*
X00645D01*
X00023Y00448D02*
X00645D01*
X00023Y00393D02*
X00645D01*
X00023Y00389D02*
X00645D01*
X00023Y00397D02*
X00645D01*
X00023Y00381D02*
X00645D01*
X00023Y00377D02*
X00645D01*
X00023Y00385D02*
X00645D01*
X00023Y00412D02*
X00645D01*
X00023Y00408D02*
X00645D01*
X00023Y00416D02*
X00645D01*
X00023Y004D02*
X00645D01*
X00023Y00404D02*
X00645D01*
X00023Y00522D02*
X00645D01*
X00023Y00519D02*
X00645D01*
X00023Y00526D02*
X00645D01*
X00023Y00511D02*
X00645D01*
X00023Y00507D02*
X00645D01*
X00023Y00515D02*
X00645D01*
X00023Y00542D02*
X00645D01*
X00023Y00538D02*
X00645D01*
X00023Y00546D02*
X00645D01*
X00023Y0053D02*
X00645D01*
X00023Y00534D02*
X00645D01*
X00023Y00479D02*
X00645D01*
X00023Y00475D02*
X00645D01*
X00023Y00483D02*
X00645D01*
X00023Y00467D02*
X00645D01*
X00023Y00463D02*
X00645D01*
X00023Y00471D02*
X00645D01*
X00023Y00499D02*
X00645D01*
X00023Y00495D02*
X00645D01*
X00023Y00503D02*
X00645D01*
X00023Y00487D02*
X00645D01*
X00023Y00491D02*
X00645D01*
X00023Y00302D02*
X00897D01*
X00023Y00298D02*
X00901D01*
X00023Y00306D02*
X00893D01*
X00023Y0029D02*
X00905D01*
X00023Y00286D02*
X00905D01*
X00023Y00294D02*
X00905D01*
X00403Y00023D02*
Y00935D01*
X00407Y00023D02*
Y00935D01*
X00399Y00023D02*
Y00935D01*
X00023Y00314D02*
X00885D01*
X00023Y0031D02*
X00889D01*
X00023Y00318D02*
X00881D01*
X00395Y00023D02*
Y00935D01*
X00411Y00023D02*
Y00935D01*
X00391Y00023D02*
Y00935D01*
X00419Y00023D02*
Y00935D01*
X00423Y00023D02*
Y00935D01*
X00415Y00023D02*
Y00935D01*
X00376Y00023D02*
Y00935D01*
X0038Y00023D02*
Y00935D01*
X00372Y00023D02*
Y00935D01*
X00388Y00023D02*
Y00935D01*
X00384Y00023D02*
Y00935D01*
X00023Y00259D02*
X00905D01*
X00023Y00255D02*
X00905D01*
X00023Y00263D02*
X00905D01*
X00023Y00247D02*
X00905D01*
X00023Y00243D02*
X00905D01*
X00023Y00251D02*
X00905D01*
X00023Y00278D02*
X00905D01*
X00023Y00274D02*
X00905D01*
X00023Y00282D02*
X00905D01*
X00023Y00267D02*
X00905D01*
X00023Y00271D02*
X00905D01*
X00023Y00235D02*
X00905D01*
X00023Y00231D02*
X00905D01*
X00023Y00239D02*
X00905D01*
X00023Y00223D02*
X00905D01*
X00023Y00219D02*
X00524D01*
X00023Y00227D02*
X00905D01*
X00023Y00211D02*
X00516D01*
X00023Y00208D02*
X00513D01*
X00023Y00215D02*
X0052D01*
X00023Y002D02*
X00505D01*
X00023Y00204D02*
X00509D01*
X00023Y00082D02*
X00502D01*
X00023Y00078D02*
X00502D01*
X00023Y00085D02*
X00502D01*
X00023Y0007D02*
X00502D01*
X00023Y00066D02*
X00502D01*
X00023Y00074D02*
X00502D01*
X00023Y00105D02*
X00502D01*
X00023Y00101D02*
X00502D01*
X00023Y00109D02*
X00502D01*
X00023Y00093D02*
X00502D01*
X00023Y00089D02*
X00502D01*
X00023Y00097D02*
X00502D01*
X00023Y00038D02*
X00502D01*
X00023Y00034D02*
X00502D01*
X00023Y00042D02*
X00502D01*
X00023Y00026D02*
X00502D01*
X00023Y00023D02*
X00502D01*
X00023Y0003D02*
X00502D01*
X00023Y00058D02*
X00502D01*
X00023Y00054D02*
X00502D01*
X00023Y00062D02*
X00502D01*
X00023Y00046D02*
X00502D01*
X00023Y0005D02*
X00502D01*
X00023Y00172D02*
X00502D01*
X00023Y00168D02*
X00502D01*
X00023Y00176D02*
X00502D01*
X00023Y0016D02*
X00502D01*
X00023Y00156D02*
X00502D01*
X00023Y00164D02*
X00502D01*
X00023Y00192D02*
X00502D01*
X00023Y00188D02*
X00502D01*
X00023Y00196D02*
X00502D01*
X00023Y0018D02*
X00502D01*
X00023Y00184D02*
X00502D01*
X00023Y00129D02*
X00502D01*
X00023Y00125D02*
X00502D01*
X00023Y00133D02*
X00502D01*
X00023Y00117D02*
X00502D01*
X00023Y00113D02*
X00502D01*
X00023Y00121D02*
X00502D01*
X00023Y00148D02*
X00502D01*
X00023Y00145D02*
X00502D01*
X00023Y00152D02*
X00502D01*
X00023Y00137D02*
X00502D01*
X00023Y00141D02*
X00502D01*
X00136Y00023D02*
Y00935D01*
X00139Y00023D02*
Y00935D01*
X00132Y00023D02*
Y00935D01*
X00147Y00023D02*
Y00935D01*
X00151Y00023D02*
Y00935D01*
X00143Y00023D02*
Y00935D01*
X00112Y00023D02*
Y00935D01*
X00116Y00023D02*
Y00935D01*
X00108Y00023D02*
Y00935D01*
X00124Y00023D02*
Y00935D01*
X00128Y00023D02*
Y00935D01*
X0012Y00023D02*
Y00935D01*
X00179Y00023D02*
Y00935D01*
X00183Y00023D02*
Y00935D01*
X00175Y00023D02*
Y00935D01*
X00191Y00023D02*
Y00935D01*
X00195Y00023D02*
Y00935D01*
X00187Y00023D02*
Y00935D01*
X00159Y00023D02*
Y00935D01*
X00163Y00023D02*
Y00935D01*
X00155Y00023D02*
Y00935D01*
X00171Y00023D02*
Y00935D01*
X00167Y00023D02*
Y00935D01*
X00045Y00023D02*
Y00935D01*
X00049Y00023D02*
Y00935D01*
X00041Y00023D02*
Y00935D01*
X00057Y00023D02*
Y00935D01*
X00061Y00023D02*
Y00935D01*
X00053Y00023D02*
Y00935D01*
X00025Y00023D02*
Y00935D01*
X00029Y00023D02*
Y00935D01*
X00023Y00023D02*
Y00935D01*
X00037Y00023D02*
Y00935D01*
X00033Y00023D02*
Y00935D01*
X00088Y00023D02*
Y00935D01*
X00092Y00023D02*
Y00935D01*
X00084Y00023D02*
Y00935D01*
X001Y00023D02*
Y00935D01*
X00104Y00023D02*
Y00935D01*
X00096Y00023D02*
Y00935D01*
X00069Y00023D02*
Y00935D01*
X00073Y00023D02*
Y00935D01*
X00065Y00023D02*
Y00935D01*
X0008Y00023D02*
Y00935D01*
X00077Y00023D02*
Y00935D01*
X00309Y00023D02*
Y00935D01*
X00313Y00023D02*
Y00935D01*
X00305Y00023D02*
Y00935D01*
X00321Y00023D02*
Y00935D01*
X00325Y00023D02*
Y00935D01*
X00317Y00023D02*
Y00935D01*
X00289Y00023D02*
Y00935D01*
X00293Y00023D02*
Y00935D01*
X00285Y00023D02*
Y00935D01*
X00301Y00023D02*
Y00935D01*
X00297Y00023D02*
Y00935D01*
X00352Y00023D02*
Y00935D01*
X00356Y00023D02*
Y00935D01*
X00348Y00023D02*
Y00935D01*
X00364Y00023D02*
Y00935D01*
X00368Y00023D02*
Y00935D01*
X0036Y00023D02*
Y00935D01*
X00332Y00023D02*
Y00935D01*
X00336Y00023D02*
Y00935D01*
X00328Y00023D02*
Y00935D01*
X00344Y00023D02*
Y00935D01*
X0034Y00023D02*
Y00935D01*
X00222Y00023D02*
Y00935D01*
X00226Y00023D02*
Y00935D01*
X00218Y00023D02*
Y00935D01*
X00234Y00023D02*
Y00935D01*
X00238Y00023D02*
Y00935D01*
X0023Y00023D02*
Y00935D01*
X00202Y00023D02*
Y00935D01*
X00206Y00023D02*
Y00935D01*
X00199Y00023D02*
Y00935D01*
X00214Y00023D02*
Y00935D01*
X0021Y00023D02*
Y00935D01*
X00265Y00023D02*
Y00935D01*
X00269Y00023D02*
Y00935D01*
X00262Y00023D02*
Y00935D01*
X00277Y00023D02*
Y00935D01*
X00281Y00023D02*
Y00935D01*
X00273Y00023D02*
Y00935D01*
X00246Y00023D02*
Y00935D01*
X0025Y00023D02*
Y00935D01*
X00242Y00023D02*
Y00935D01*
X00258Y00023D02*
Y00935D01*
X00254Y00023D02*
Y00935D01*
X00023Y01349D02*
X00315D01*
X00023Y01353D02*
X00315D01*
X00023Y01204D02*
X00315D01*
X00023Y01208D02*
X00315D01*
X00023Y01369D02*
X00315D01*
X00023Y01373D02*
X00315D01*
X00023Y01357D02*
X00315D01*
X00023Y01365D02*
X00315D01*
X00023Y01361D02*
X00315D01*
X00023Y01176D02*
X00315D01*
X00023Y0118D02*
X00315D01*
X00023Y01164D02*
X00315D01*
X00023Y01172D02*
X00315D01*
X00023Y01168D02*
X00315D01*
X00023Y01196D02*
X00315D01*
X00023Y012D02*
X00315D01*
X00023Y01184D02*
X00315D01*
X00023Y01192D02*
X00315D01*
X00023Y01188D02*
X00315D01*
X00023Y01448D02*
X00315D01*
X00023Y01452D02*
X00315D01*
X00023Y01416D02*
X00315D01*
X00023Y01428D02*
X00315D01*
X00023Y01424D02*
X00315D01*
X00023Y01467D02*
X00315D01*
X00023Y01471D02*
X00315D01*
X00023Y01456D02*
X00315D01*
X00023Y01463D02*
X00315D01*
X00023Y01459D02*
X00315D01*
X00023Y01389D02*
X00315D01*
X00023Y01393D02*
X00315D01*
X00023Y01377D02*
X00315D01*
X00023Y01385D02*
X00315D01*
X00023Y01381D02*
X00315D01*
X00023Y01408D02*
X00315D01*
X00023Y01412D02*
X00315D01*
X00023Y01397D02*
X00315D01*
X00023Y01404D02*
X00315D01*
X00023Y014D02*
X00315D01*
X00023Y01058D02*
X00315D01*
X00023Y01062D02*
X00315D01*
X00023Y0105D02*
X00315D01*
X00023Y01054D02*
X00315D01*
X00023Y01078D02*
X00315D01*
X00023Y01082D02*
X00315D01*
X00023Y01066D02*
X00315D01*
X00023Y01074D02*
X00315D01*
X00023Y0107D02*
X00315D01*
X00023Y01022D02*
X00315D01*
X00023Y01026D02*
X00315D01*
X00023Y01015D02*
X00315D01*
X00023Y01019D02*
X00315D01*
X00023Y01015D02*
X00315D01*
X00023Y01042D02*
X00315D01*
X00023Y01046D02*
X00315D01*
X00023Y0103D02*
X00315D01*
X00023Y01038D02*
X00315D01*
X00023Y01034D02*
X00315D01*
X00023Y01137D02*
X00315D01*
X00023Y01141D02*
X00315D01*
X00023Y01125D02*
X00315D01*
X00023Y01133D02*
X00315D01*
X00023Y01129D02*
X00315D01*
X00023Y01156D02*
X00315D01*
X00023Y0116D02*
X00315D01*
X00023Y01145D02*
X00315D01*
X00023Y01152D02*
X00315D01*
X00023Y01148D02*
X00315D01*
X00023Y01097D02*
X00315D01*
X00023Y01101D02*
X00315D01*
X00023Y01085D02*
X00315D01*
X00023Y01093D02*
X00315D01*
X00023Y01089D02*
X00315D01*
X00023Y01117D02*
X00315D01*
X00023Y01121D02*
X00315D01*
X00023Y01105D02*
X00315D01*
X00023Y01113D02*
X00315D01*
X00023Y01109D02*
X00315D01*
X00116Y01015D02*
Y01865D01*
X00112Y01015D02*
Y01865D01*
X00124Y01015D02*
Y01865D01*
X0012Y01015D02*
Y01865D01*
X00096Y01015D02*
Y01865D01*
X00045Y01015D02*
Y01865D01*
X00108Y01015D02*
Y01865D01*
X001Y01015D02*
Y01865D01*
X00104Y01015D02*
Y01865D01*
X00151Y01015D02*
Y01865D01*
X00147Y01015D02*
Y01865D01*
X00163Y01015D02*
Y01865D01*
X00155Y01015D02*
Y01865D01*
X00159Y01015D02*
Y01865D01*
X00132Y01015D02*
Y01865D01*
X00128Y01015D02*
Y01865D01*
X00143Y01015D02*
Y01865D01*
X00136Y01015D02*
Y01865D01*
X00139Y01015D02*
Y01865D01*
X00049Y01015D02*
Y01865D01*
X00041Y01015D02*
Y01865D01*
X00061Y01015D02*
Y01865D01*
X00053Y01015D02*
Y01865D01*
X00057Y01015D02*
Y01865D01*
X00025Y01015D02*
Y01865D01*
X00023Y01015D02*
Y01865D01*
X00037Y01015D02*
Y01865D01*
X00029Y01015D02*
Y01865D01*
X00033Y01015D02*
Y01865D01*
X00023Y01475D02*
X00315D01*
X00023Y01479D02*
X00315D01*
X00092Y01015D02*
Y01865D01*
X00084Y01015D02*
Y01865D01*
X00088Y01015D02*
Y01865D01*
X00069Y01015D02*
Y01865D01*
X00065Y01015D02*
Y01865D01*
X0008Y01015D02*
Y01865D01*
X00073Y01015D02*
Y01865D01*
X00077Y01015D02*
Y01865D01*
X00269Y01015D02*
Y01865D01*
X00265Y01015D02*
Y01865D01*
X00277Y01015D02*
Y01865D01*
X00273Y01015D02*
Y01865D01*
X0025Y01015D02*
Y01865D01*
X00246Y01015D02*
Y01865D01*
X00262Y01015D02*
Y01865D01*
X00254Y01015D02*
Y01865D01*
X00258Y01015D02*
Y01865D01*
X00305Y01015D02*
Y01865D01*
X00301Y01015D02*
Y01865D01*
X00315Y01015D02*
Y0148D01*
X00309Y01015D02*
Y01865D01*
X00313Y01015D02*
Y01865D01*
X00285Y01015D02*
Y01865D01*
X00281Y01015D02*
Y01865D01*
X00297Y01015D02*
Y01865D01*
X00289Y01015D02*
Y01865D01*
X00293Y01015D02*
Y01865D01*
X00191Y01015D02*
Y01865D01*
X00187Y01015D02*
Y01865D01*
X00202Y01015D02*
Y01865D01*
X00195Y01015D02*
Y01865D01*
X00199Y01015D02*
Y01865D01*
X00171Y01015D02*
Y01865D01*
X00167Y01015D02*
Y01865D01*
X00183Y01015D02*
Y01865D01*
X00175Y01015D02*
Y01865D01*
X00179Y01015D02*
Y01865D01*
X0023Y01015D02*
Y01865D01*
X00226Y01015D02*
Y01865D01*
X00242Y01015D02*
Y01865D01*
X00234Y01015D02*
Y01865D01*
X00238Y01015D02*
Y01865D01*
X0021Y01015D02*
Y01865D01*
X00206Y01015D02*
Y01865D01*
X00222Y01015D02*
Y01865D01*
X00214Y01015D02*
Y01865D01*
X00218Y01015D02*
Y01865D01*
X01175Y00054D02*
X01865D01*
X01175Y00058D02*
X01865D01*
X01175Y0005D02*
X01201Y00023D01*
X01175Y0005D02*
X01865D01*
X01175Y0005D02*
Y0014D01*
Y00074D02*
X01865D01*
X01175Y00062D02*
X01865D01*
X01175Y0007D02*
X01865D01*
X01175Y00066D02*
X01865D01*
X01175Y00089D02*
X01865D01*
X01175Y00093D02*
X01865D01*
X01175Y00078D02*
X01865D01*
X01175Y00085D02*
X01865D01*
X01175Y00082D02*
X01865D01*
X01175Y00125D02*
X01865D01*
X01175Y00129D02*
X01865D01*
X01175Y00113D02*
X01865D01*
X01175Y00121D02*
X01865D01*
X01175Y00117D02*
X01865D01*
X00023Y01259D02*
X00315D01*
X00023Y01263D02*
X00315D01*
X00023Y01247D02*
X00315D01*
X00023Y01255D02*
X00315D01*
X00023Y01251D02*
X00315D01*
X00023Y01278D02*
X00315D01*
X00023Y01282D02*
X00315D01*
X00023Y01267D02*
X00315D01*
X00023Y01274D02*
X00315D01*
X00023Y01271D02*
X00315D01*
X00023Y01219D02*
X00315D01*
X00023Y01223D02*
X00315D01*
X01175Y00137D02*
X01865D01*
X00023Y01215D02*
X00315D01*
X00023Y01211D02*
X00315D01*
X00023Y01239D02*
X00315D01*
X00023Y01243D02*
X00315D01*
X00023Y01227D02*
X00315D01*
X00023Y01235D02*
X00315D01*
X00023Y01231D02*
X00315D01*
X01218Y00023D02*
Y00155D01*
X01214Y00023D02*
Y00155D01*
X01226Y00023D02*
Y00155D01*
X01222Y00023D02*
Y00155D01*
X01199Y00025D02*
Y00155D01*
X01195Y00029D02*
Y00155D01*
X0121Y00023D02*
Y00155D01*
X01202Y00023D02*
Y00155D01*
X01206Y00023D02*
Y00155D01*
X01198Y00026D02*
X01865D01*
X01194Y0003D02*
X01865D01*
X01238Y00023D02*
Y00155D01*
X01234Y00023D02*
Y00155D01*
X01201Y00023D02*
X01861D01*
X01242D02*
Y00155D01*
X0123Y00023D02*
Y00155D01*
X01254Y00023D02*
Y00155D01*
X01246Y00023D02*
Y00155D01*
X0125Y00023D02*
Y00155D01*
X01178Y00046D02*
X01865D01*
X01175Y00049D02*
Y0014D01*
X0119Y00034D02*
X01865D01*
X01179Y00045D02*
Y00144D01*
X01186Y00038D02*
X01865D01*
X01183Y00041D02*
Y00148D01*
X01175Y0014D02*
X0119Y00155D01*
X01191Y00033D02*
Y00155D01*
X01187Y00037D02*
Y00152D01*
X0119Y00155D02*
X0147D01*
X01175Y00105D02*
X01865D01*
X01175Y00109D02*
X01865D01*
X01182Y00042D02*
X01865D01*
X01175Y00101D02*
X01865D01*
X01175Y00097D02*
X01865D01*
X01175Y00133D02*
X01865D01*
X01176Y00141D02*
X01865D01*
X0118Y00145D02*
X01865D01*
X01187Y00152D02*
X01865D01*
X01183Y00148D02*
X01865D01*
X00023Y01334D02*
X00315D01*
X00023Y01337D02*
X00315D01*
X00023Y01326D02*
X00315D01*
X00023Y0133D02*
X00315D01*
X00023Y01432D02*
X00315D01*
X00023Y01436D02*
X00315D01*
X00023Y01341D02*
X00315D01*
X00023Y0142D02*
X00315D01*
X00023Y01345D02*
X00315D01*
X00023Y01298D02*
X00315D01*
X00023Y01302D02*
X00315D01*
X00023Y01286D02*
X00315D01*
X00023Y01294D02*
X00315D01*
X00023Y0129D02*
X00315D01*
X00023Y01318D02*
X00315D01*
X00023Y01322D02*
X00315D01*
X00023Y01306D02*
X00315D01*
X00023Y01314D02*
X00315D01*
X00023Y0131D02*
X00315D01*
X00023Y01487D02*
X00322D01*
X00023Y01491D02*
X00326D01*
X00023Y0144D02*
X00315D01*
X00023Y01444D02*
X00315D01*
X00023Y01483D02*
X00318D01*
X00023Y01507D02*
X00342D01*
X00023Y01511D02*
X00346D01*
X00023Y01495D02*
X0033D01*
X00023Y01499D02*
X00334D01*
X00023Y01503D02*
X00338D01*
X00023Y01526D02*
X00361D01*
X00023Y0153D02*
X00365D01*
X00023Y01515D02*
X0035D01*
X00023Y01519D02*
X00354D01*
X00023Y01522D02*
X00357D01*
X00023Y01546D02*
X00381D01*
X00023Y0155D02*
X00385D01*
X00023Y01534D02*
X00369D01*
X00023Y01538D02*
X00373D01*
X00023Y01542D02*
X00377D01*
X00336Y01501D02*
Y01865D01*
X0034Y01505D02*
Y01865D01*
X00344Y01509D02*
Y01865D01*
X00348Y01513D02*
Y01865D01*
X00352Y01517D02*
Y01865D01*
X00317Y01482D02*
Y01865D01*
X00321Y01486D02*
Y01865D01*
X00325Y0149D02*
Y01865D01*
X00328Y01493D02*
Y01865D01*
X00332Y01497D02*
Y01865D01*
X00315Y0148D02*
X00555Y0172D01*
X00376Y01541D02*
Y01865D01*
X0038Y01545D02*
Y01865D01*
X00384Y01549D02*
Y01865D01*
X00388Y01553D02*
Y01865D01*
X00356Y01521D02*
Y01865D01*
X0036Y01525D02*
Y01865D01*
X00364Y01529D02*
Y01865D01*
X00368Y01533D02*
Y01865D01*
X00372Y01537D02*
Y01865D01*
X00023Y01566D02*
X00401D01*
X00023Y0157D02*
X00405D01*
X00023Y01554D02*
X00389D01*
X00023Y01558D02*
X00393D01*
X00023Y01562D02*
X00397D01*
X00391Y01556D02*
Y01865D01*
X00395Y0156D02*
Y01865D01*
X00399Y01564D02*
Y01865D01*
X00403Y01568D02*
Y01865D01*
X00407Y01572D02*
Y01865D01*
X00023Y01585D02*
X0042D01*
X00023Y01589D02*
X00424D01*
X00023Y01574D02*
X00409D01*
X00023Y01578D02*
X00413D01*
X00023Y01582D02*
X00417D01*
X00411Y01576D02*
Y01865D01*
X00415Y0158D02*
Y01865D01*
X00419Y01584D02*
Y01865D01*
X00423Y01588D02*
Y01865D01*
X00427Y01592D02*
Y01865D01*
X00023Y01601D02*
X00436D01*
X00023Y01605D02*
X0044D01*
X00023Y01593D02*
X00428D01*
X00023Y01597D02*
X00432D01*
X00431Y01596D02*
Y01865D01*
X00023Y01609D02*
X00444D01*
X00435Y016D02*
Y01865D01*
X00439Y01604D02*
Y01865D01*
X00443Y01608D02*
Y01865D01*
X00023Y01625D02*
X0046D01*
X00023Y01629D02*
X00464D01*
X00023Y01613D02*
X00448D01*
X00023Y01617D02*
X00452D01*
X00023Y01621D02*
X00456D01*
X00023Y01633D02*
X00468D01*
X00023Y01637D02*
X00472D01*
X00447Y01612D02*
Y01865D01*
X00451Y01616D02*
Y01865D01*
X00023Y01641D02*
X00476D01*
X00023Y01656D02*
X00491D01*
X00023Y0166D02*
X00495D01*
X00023Y01645D02*
X0048D01*
X00023Y01648D02*
X00483D01*
X00023Y01652D02*
X00487D01*
X00023Y01676D02*
X00511D01*
X00023Y0168D02*
X00515D01*
X00023Y01664D02*
X00499D01*
X00023Y01668D02*
X00503D01*
X00023Y01672D02*
X00507D01*
X00023Y01696D02*
X00531D01*
X00023Y017D02*
X00535D01*
X00023Y01684D02*
X00519D01*
X00023Y01688D02*
X00523D01*
X00023Y01692D02*
X00527D01*
X00023Y01715D02*
X0055D01*
X00023Y01719D02*
X00554D01*
X00023Y01704D02*
X00539D01*
X00023Y01708D02*
X00543D01*
X00023Y01711D02*
X00546D01*
X00474Y01639D02*
Y01865D01*
X00478Y01643D02*
Y01865D01*
X00482Y01647D02*
Y01865D01*
X00486Y01651D02*
Y01865D01*
X00454Y01619D02*
Y01865D01*
X00458Y01623D02*
Y01865D01*
X00462Y01627D02*
Y01865D01*
X00466Y01631D02*
Y01865D01*
X0047Y01635D02*
Y01865D01*
X0051Y01675D02*
Y01865D01*
X00514Y01679D02*
Y01865D01*
X00517Y01682D02*
Y01865D01*
X00521Y01686D02*
Y01865D01*
X00525Y0169D02*
Y01865D01*
X0049Y01655D02*
Y01865D01*
X00494Y01659D02*
Y01865D01*
X00498Y01663D02*
Y01865D01*
X00502Y01667D02*
Y01865D01*
X00506Y01671D02*
Y01865D01*
X00549Y01714D02*
Y01865D01*
X00553Y01718D02*
Y01865D01*
X00565Y0172D02*
Y01865D01*
X00557Y0172D02*
Y01865D01*
X00561Y0172D02*
Y01865D01*
X00529Y01694D02*
Y01865D01*
X00533Y01698D02*
Y01865D01*
X00537Y01702D02*
Y01865D01*
X00541Y01706D02*
Y01865D01*
X00545Y0171D02*
Y01865D01*
X00592Y0172D02*
Y01865D01*
X00588Y0172D02*
Y01865D01*
X00604Y0172D02*
Y01865D01*
X00596Y0172D02*
Y01865D01*
X006Y0172D02*
Y01865D01*
X00573Y0172D02*
Y01865D01*
X00569Y0172D02*
Y01865D01*
X00584Y0172D02*
Y01865D01*
X00577Y0172D02*
Y01865D01*
X0058Y0172D02*
Y01865D01*
X00632Y0172D02*
Y01865D01*
X00628Y0172D02*
Y01865D01*
X00639Y0172D02*
Y01865D01*
X00636Y0172D02*
Y01865D01*
X00612Y0172D02*
Y01865D01*
X00608Y0172D02*
Y01865D01*
X00624Y0172D02*
Y01865D01*
X00616Y0172D02*
Y01865D01*
X0062Y0172D02*
Y01865D01*
X00667Y0172D02*
Y01865D01*
X00663Y0172D02*
Y01865D01*
X00679Y0172D02*
Y01865D01*
X00671Y0172D02*
Y01865D01*
X00675Y0172D02*
Y01865D01*
X00647Y0172D02*
Y01865D01*
X00643Y0172D02*
Y01865D01*
X00659Y0172D02*
Y01865D01*
X00651Y0172D02*
Y01865D01*
X00655Y0172D02*
Y01865D01*
X00706Y0172D02*
Y01865D01*
X00702Y0172D02*
Y01865D01*
X00718Y0172D02*
Y01865D01*
X0071Y0172D02*
Y01865D01*
X00714Y0172D02*
Y01865D01*
X00687Y0172D02*
Y01865D01*
X00683Y0172D02*
Y01865D01*
X00699Y0172D02*
Y01865D01*
X00691Y0172D02*
Y01865D01*
X00695Y0172D02*
Y01865D01*
X00746Y0172D02*
Y01865D01*
X00742Y0172D02*
Y01865D01*
X00758Y0172D02*
Y01865D01*
X0075Y0172D02*
Y01865D01*
X00754Y0172D02*
Y01865D01*
X00726Y0172D02*
Y01865D01*
X00722Y0172D02*
Y01865D01*
X00738Y0172D02*
Y01865D01*
X0073Y0172D02*
Y01865D01*
X00734Y0172D02*
Y01865D01*
X00785Y0172D02*
Y01865D01*
X00781Y0172D02*
Y01865D01*
X00793Y0172D02*
Y01865D01*
X00789Y0172D02*
Y01865D01*
X00765Y0172D02*
Y01865D01*
X00762Y0172D02*
Y01865D01*
X00777Y0172D02*
Y01865D01*
X00769Y0172D02*
Y01865D01*
X00773Y0172D02*
Y01865D01*
X00821Y0172D02*
Y01865D01*
X00817Y0172D02*
Y01865D01*
X00832Y0172D02*
Y01865D01*
X00825Y0172D02*
Y01865D01*
X00828Y0172D02*
Y01865D01*
X00801Y0172D02*
Y01865D01*
X00797Y0172D02*
Y01865D01*
X00813Y0172D02*
Y01865D01*
X00805Y0172D02*
Y01865D01*
X00809Y0172D02*
Y01865D01*
X0086Y0172D02*
Y01865D01*
X00856Y0172D02*
Y01865D01*
X00872Y0172D02*
Y01865D01*
X00864Y0172D02*
Y01865D01*
X00868Y0172D02*
Y01865D01*
X0084Y0172D02*
Y01865D01*
X00836Y0172D02*
Y01865D01*
X00852Y0172D02*
Y01865D01*
X00844Y0172D02*
Y01865D01*
X00848Y0172D02*
Y01865D01*
X00899Y0172D02*
Y01865D01*
X00895Y0172D02*
Y01865D01*
X00911Y0172D02*
Y01865D01*
X00903Y0172D02*
Y01865D01*
X00907Y0172D02*
Y01865D01*
X00876Y0172D02*
Y01865D01*
X0088Y0172D02*
Y01865D01*
X00891Y0172D02*
Y01865D01*
X00884Y0172D02*
Y01865D01*
X00888Y0172D02*
Y01865D01*
X00023Y01723D02*
X01865D01*
X00023Y01727D02*
X01865D01*
X00983Y0172D02*
X01048Y0161D01*
X00555Y0172D02*
X00983D01*
X00023Y01743D02*
X01865D01*
X00023Y01747D02*
X01865D01*
X00023Y01731D02*
X01865D01*
X00023Y01739D02*
X01865D01*
X00023Y01735D02*
X01865D01*
X00023Y01763D02*
X01865D01*
X00023Y01767D02*
X01865D01*
X00023Y01751D02*
X01865D01*
X00023Y01759D02*
X01865D01*
X00023Y01755D02*
X01865D01*
X00023Y01782D02*
X01865D01*
X00023Y01786D02*
X01865D01*
X00023Y01771D02*
X01865D01*
X00023Y01778D02*
X01865D01*
X00023Y01774D02*
X01865D01*
X00023Y01841D02*
X01865D01*
X00023Y01845D02*
X01865D01*
X00023Y0183D02*
X01865D01*
X00023Y01837D02*
X01865D01*
X00023Y01834D02*
X01865D01*
X00023Y01861D02*
X01865D01*
X00023Y01865D02*
X01865D01*
X00023Y01849D02*
X01865D01*
X00023Y01857D02*
X01865D01*
X00023Y01853D02*
X01865D01*
X00023Y01802D02*
X01865D01*
X00023Y01806D02*
X01865D01*
X00023Y0179D02*
X01865D01*
X00023Y01798D02*
X01865D01*
X00023Y01794D02*
X01865D01*
X00023Y01822D02*
X01865D01*
X00023Y01826D02*
X01865D01*
X00023Y0181D02*
X01865D01*
X00023Y01818D02*
X01865D01*
X00023Y01814D02*
X01865D01*
X01042Y01621D02*
X01865D01*
X01039Y01625D02*
X01865D01*
X01165Y0161D02*
X0141D01*
X01048D02*
X01165D01*
X01025Y01648D02*
Y01865D01*
X01021Y01655D02*
Y01865D01*
X01037Y01628D02*
Y01865D01*
X01029Y01642D02*
Y01865D01*
X01033Y01635D02*
Y01865D01*
X01035Y01633D02*
X01865D01*
X01032Y01637D02*
X01865D01*
X01046Y01613D02*
X01865D01*
X01037Y01629D02*
X01865D01*
X01044Y01617D02*
X01865D01*
X01023Y01652D02*
X01865D01*
X01021Y01656D02*
X01865D01*
X0103Y01641D02*
X01865D01*
X01025Y01648D02*
X01865D01*
X01028Y01645D02*
X01865D01*
X01011Y01672D02*
X01865D01*
X01009Y01676D02*
X01865D01*
X01018Y0166D02*
X01865D01*
X01014Y01668D02*
X01865D01*
X01016Y01664D02*
X01865D01*
X01007Y0168D02*
X01865D01*
X01006Y01682D02*
Y01865D01*
X01017Y01662D02*
Y01865D01*
X0101Y01675D02*
Y01865D01*
X01014Y01668D02*
Y01865D01*
X00997Y01696D02*
X01865D01*
X00995Y017D02*
X01865D01*
X01004Y01684D02*
X01865D01*
X01Y01692D02*
X01865D01*
X01002Y01688D02*
X01865D01*
X00986Y01715D02*
X01865D01*
X00983Y01719D02*
X01865D01*
X00993Y01704D02*
X01865D01*
X00988Y01711D02*
X01865D01*
X0099Y01708D02*
X01865D01*
X01049Y0161D02*
Y01865D01*
X01045Y01615D02*
Y01865D01*
X01057Y0161D02*
Y01865D01*
X01053Y0161D02*
Y01865D01*
X00994Y01701D02*
Y01865D01*
X0099Y01708D02*
Y01865D01*
X01041Y01622D02*
Y01865D01*
X00998Y01695D02*
Y01865D01*
X01002Y01688D02*
Y01865D01*
X01084Y0161D02*
Y01865D01*
X0108Y0161D02*
Y01865D01*
X01096Y0161D02*
Y01865D01*
X01088Y0161D02*
Y01865D01*
X01092Y0161D02*
Y01865D01*
X01065Y0161D02*
Y01865D01*
X01061Y0161D02*
Y01865D01*
X01077Y0161D02*
Y01865D01*
X01069Y0161D02*
Y01865D01*
X01073Y0161D02*
Y01865D01*
X00939Y0172D02*
Y01865D01*
X00935Y0172D02*
Y01865D01*
X00951Y0172D02*
Y01865D01*
X00943Y0172D02*
Y01865D01*
X00947Y0172D02*
Y01865D01*
X00919Y0172D02*
Y01865D01*
X00915Y0172D02*
Y01865D01*
X00931Y0172D02*
Y01865D01*
X00923Y0172D02*
Y01865D01*
X00927Y0172D02*
Y01865D01*
X00974Y0172D02*
Y01865D01*
X00023D02*
X01865D01*
X00986Y01715D02*
Y01865D01*
X00978Y0172D02*
Y01865D01*
X00982Y0172D02*
Y01865D01*
X00958Y0172D02*
Y01865D01*
X00954Y0172D02*
Y01865D01*
X0097Y0172D02*
Y01865D01*
X00962Y0172D02*
Y01865D01*
X00966Y0172D02*
Y01865D01*
X01124Y0161D02*
Y01865D01*
X0112Y0161D02*
Y01865D01*
X01206Y0161D02*
Y01865D01*
X01128Y0161D02*
Y01865D01*
X01132Y0161D02*
Y01865D01*
X01104Y0161D02*
Y01865D01*
X011Y0161D02*
Y01865D01*
X01116Y0161D02*
Y01865D01*
X01108Y0161D02*
Y01865D01*
X01112Y0161D02*
Y01865D01*
X01242Y0161D02*
Y01865D01*
X01238Y0161D02*
Y01865D01*
X01254Y0161D02*
Y01865D01*
X01246Y0161D02*
Y01865D01*
X0125Y0161D02*
Y01865D01*
X01214Y0161D02*
Y01865D01*
X0121Y0161D02*
Y01865D01*
X01234Y0161D02*
Y01865D01*
X01218Y0161D02*
Y01865D01*
X01222Y0161D02*
Y01865D01*
X01159Y0161D02*
Y01865D01*
X01155Y0161D02*
Y01865D01*
X01171Y0161D02*
Y01865D01*
X01163Y0161D02*
Y01865D01*
X01167Y0161D02*
Y01865D01*
X01139Y0161D02*
Y01865D01*
X01136Y0161D02*
Y01865D01*
X01151Y0161D02*
Y01865D01*
X01143Y0161D02*
Y01865D01*
X01147Y0161D02*
Y01865D01*
X01199Y0161D02*
Y01865D01*
X01195Y0161D02*
Y01865D01*
X0123Y0161D02*
Y01865D01*
X01202Y0161D02*
Y01865D01*
X01226Y0161D02*
Y01865D01*
X01179Y0161D02*
Y01865D01*
X01175Y0161D02*
Y01865D01*
X01191Y0161D02*
Y01865D01*
X01183Y0161D02*
Y01865D01*
X01187Y0161D02*
Y01865D01*
X0136Y00023D02*
Y00155D01*
X01356Y00023D02*
Y00155D01*
X01368Y00023D02*
Y00155D01*
X01364Y00023D02*
Y00155D01*
X0134Y00023D02*
Y00155D01*
X01336Y00023D02*
Y00155D01*
X01352Y00023D02*
Y00155D01*
X01344Y00023D02*
Y00155D01*
X01348Y00023D02*
Y00155D01*
X01395Y00023D02*
Y00155D01*
X01391Y00023D02*
Y00155D01*
X01407Y00023D02*
Y00155D01*
X01399Y00023D02*
Y00155D01*
X01403Y00023D02*
Y00155D01*
X01376Y00023D02*
Y00155D01*
X01372Y00023D02*
Y00155D01*
X01388Y00023D02*
Y00155D01*
X0138Y00023D02*
Y00155D01*
X01384Y00023D02*
Y00155D01*
X01281Y00023D02*
Y00155D01*
X01277Y00023D02*
Y00155D01*
X01293Y00023D02*
Y00155D01*
X01285Y00023D02*
Y00155D01*
X01289Y00023D02*
Y00155D01*
X01262Y00023D02*
Y00155D01*
X01258Y00023D02*
Y00155D01*
X01273Y00023D02*
Y00155D01*
X01265Y00023D02*
Y00155D01*
X01269Y00023D02*
Y00155D01*
X01321Y00023D02*
Y00155D01*
X01317Y00023D02*
Y00155D01*
X01332Y00023D02*
Y00155D01*
X01325Y00023D02*
Y00155D01*
X01328Y00023D02*
Y00155D01*
X01301Y00023D02*
Y00155D01*
X01297Y00023D02*
Y00155D01*
X01313Y00023D02*
Y00155D01*
X01305Y00023D02*
Y00155D01*
X01309Y00023D02*
Y00155D01*
X01494Y00023D02*
Y00179D01*
X0149Y00023D02*
Y00175D01*
X01502Y00023D02*
Y00187D01*
X01498Y00023D02*
Y00183D01*
X0151Y00023D02*
Y00195D01*
X01506Y00023D02*
Y00191D01*
X01521Y00023D02*
Y00206D01*
X01514Y00023D02*
Y00199D01*
X01517Y00023D02*
Y00202D01*
X01529Y00023D02*
Y00214D01*
X01525Y00023D02*
Y0021D01*
X01541Y00023D02*
Y00226D01*
X01533Y00023D02*
Y00218D01*
X01537Y00023D02*
Y00222D01*
X01549Y00023D02*
Y00234D01*
X01545Y00023D02*
Y0023D01*
X01561Y00023D02*
Y00246D01*
X01553Y00023D02*
Y00238D01*
X01557Y00023D02*
Y00242D01*
X01435Y00023D02*
Y00155D01*
X01431Y00023D02*
Y00155D01*
X01447Y00023D02*
Y00155D01*
X01439Y00023D02*
Y00155D01*
X01443Y00023D02*
Y00155D01*
X01415Y00023D02*
Y00155D01*
X01411Y00023D02*
Y00155D01*
X01427Y00023D02*
Y00155D01*
X01419Y00023D02*
Y00155D01*
X01423Y00023D02*
Y00155D01*
X01454Y00023D02*
Y00155D01*
X01451Y00023D02*
Y00155D01*
X01466Y00023D02*
Y00155D01*
X01458Y00023D02*
Y00155D01*
X01462Y00023D02*
Y00155D01*
X01474Y00023D02*
Y00159D01*
X0147Y00023D02*
Y00155D01*
X01486Y00023D02*
Y00171D01*
X01478Y00023D02*
Y00163D01*
X01482Y00023D02*
Y00167D01*
X01569Y00023D02*
Y00254D01*
X01565Y00023D02*
Y0025D01*
X01577Y00023D02*
Y00262D01*
X01573Y00023D02*
Y00258D01*
X01584Y00023D02*
Y00269D01*
X0158Y00023D02*
Y00265D01*
X01596Y00023D02*
Y00281D01*
X01588Y00023D02*
Y00273D01*
X01592Y00023D02*
Y00277D01*
X01604Y00023D02*
Y00289D01*
X016Y00023D02*
Y00285D01*
X01616Y00023D02*
Y00301D01*
X01608Y00023D02*
Y00293D01*
X01612Y00023D02*
Y00297D01*
X01624Y00023D02*
Y00309D01*
X0162Y00023D02*
Y00305D01*
X01636Y00023D02*
Y01865D01*
X01628Y00023D02*
Y01865D01*
X01632Y00023D02*
Y01865D01*
X0147Y00155D02*
X01625Y0031D01*
Y00845D02*
Y0031D01*
X01647Y00023D02*
Y01865D01*
X01639Y00023D02*
Y01865D01*
X01643Y00023D02*
Y01865D01*
X01655Y00023D02*
Y01865D01*
X01651Y00023D02*
Y01865D01*
X01667Y00023D02*
Y01865D01*
X01659Y00023D02*
Y01865D01*
X01663Y00023D02*
Y01865D01*
X01695Y00023D02*
Y01865D01*
X01691Y00023D02*
Y01865D01*
X01706Y00023D02*
Y01865D01*
X01699Y00023D02*
Y01865D01*
X01702Y00023D02*
Y01865D01*
X01675Y00023D02*
Y01865D01*
X01671Y00023D02*
Y01865D01*
X01687Y00023D02*
Y01865D01*
X01679Y00023D02*
Y01865D01*
X01683Y00023D02*
Y01865D01*
X01813Y00023D02*
Y01865D01*
X01809Y00023D02*
Y01865D01*
X01821Y00023D02*
Y01865D01*
X01817Y00023D02*
Y01865D01*
X01793Y00023D02*
Y01865D01*
X01789Y00023D02*
Y01865D01*
X01805Y00023D02*
Y01865D01*
X01797Y00023D02*
Y01865D01*
X01801Y00023D02*
Y01865D01*
X01848Y00023D02*
Y01865D01*
X01844Y00023D02*
Y01865D01*
X0186Y00023D02*
Y01865D01*
X01852Y00023D02*
Y01865D01*
X01856Y00023D02*
Y01865D01*
X01828Y00023D02*
Y01865D01*
X01825Y00023D02*
Y01865D01*
X0184Y00023D02*
Y01865D01*
X01832Y00023D02*
Y01865D01*
X01836Y00023D02*
Y01865D01*
X01734Y00023D02*
Y01865D01*
X0173Y00023D02*
Y01865D01*
X01746Y00023D02*
Y01865D01*
X01738Y00023D02*
Y01865D01*
X01742Y00023D02*
Y01865D01*
X01714Y00023D02*
Y01865D01*
X0171Y00023D02*
Y01865D01*
X01726Y00023D02*
Y01865D01*
X01718Y00023D02*
Y01865D01*
X01722Y00023D02*
Y01865D01*
X01773Y00023D02*
Y01865D01*
X01769Y00023D02*
Y01865D01*
X01785Y00023D02*
Y01865D01*
X01777Y00023D02*
Y01865D01*
X01781Y00023D02*
Y01865D01*
X01754Y00023D02*
Y01865D01*
X0175Y00023D02*
Y01865D01*
X01765Y00023D02*
Y01865D01*
X01758Y00023D02*
Y01865D01*
X01762Y00023D02*
Y01865D01*
X01511Y00196D02*
X01865D01*
X01515Y002D02*
X01865D01*
X01519Y00204D02*
X01865D01*
X01523Y00208D02*
X01865D01*
X01526Y00211D02*
X01865D01*
X0153Y00215D02*
X01865D01*
X01534Y00219D02*
X01865D01*
X01542Y00227D02*
X01865D01*
X01538Y00223D02*
X01865D01*
X01471Y00156D02*
X01865D01*
X01475Y0016D02*
X01865D01*
X01479Y00164D02*
X01865D01*
X01487Y00172D02*
X01865D01*
X01483Y00168D02*
X01865D01*
X01491Y00176D02*
X01865D01*
X01495Y0018D02*
X01865D01*
X01499Y00184D02*
X01865D01*
X01507Y00192D02*
X01865D01*
X01503Y00188D02*
X01865D01*
X01586Y00271D02*
X01865D01*
X01589Y00274D02*
X01865D01*
X01593Y00278D02*
X01865D01*
X01601Y00286D02*
X01865D01*
X01597Y00282D02*
X01865D01*
X01605Y0029D02*
X01865D01*
X01609Y00294D02*
X01865D01*
X01613Y00298D02*
X01865D01*
X01621Y00306D02*
X01865D01*
X01617Y00302D02*
X01865D01*
X01546Y00231D02*
X01865D01*
X0155Y00235D02*
X01865D01*
X01554Y00239D02*
X01865D01*
X01562Y00247D02*
X01865D01*
X01558Y00243D02*
X01865D01*
X01566Y00251D02*
X01865D01*
X0157Y00255D02*
X01865D01*
X01574Y00259D02*
X01865D01*
X01582Y00267D02*
X01865D01*
X01578Y00263D02*
X01865D01*
X01625Y00353D02*
X01865D01*
X01625Y00357D02*
X01865D01*
X01625Y00345D02*
X01865D01*
X01625Y00349D02*
X01865D01*
X01625Y00373D02*
X01865D01*
X01625Y00377D02*
X01865D01*
X01625Y00361D02*
X01865D01*
X01625Y00369D02*
X01865D01*
X01625Y00365D02*
X01865D01*
X01625Y00318D02*
X01865D01*
X01625Y00322D02*
X01865D01*
X01625Y00314D02*
X01865D01*
X01625Y0031D02*
X01865D01*
X01625Y00337D02*
X01865D01*
X01625Y00341D02*
X01865D01*
X01625Y00326D02*
X01865D01*
X01625Y00334D02*
X01865D01*
X01625Y0033D02*
X01865D01*
X01625Y00432D02*
X01865D01*
X01625Y00436D02*
X01865D01*
X01625Y0042D02*
X01865D01*
X01625Y00428D02*
X01865D01*
X01625Y00424D02*
X01865D01*
X01625Y00452D02*
X01865D01*
X01625Y00456D02*
X01865D01*
X01625Y0044D02*
X01865D01*
X01625Y00448D02*
X01865D01*
X01625Y00444D02*
X01865D01*
X01625Y00393D02*
X01865D01*
X01625Y00397D02*
X01865D01*
X01625Y00381D02*
X01865D01*
X01625Y00389D02*
X01865D01*
X01625Y00385D02*
X01865D01*
X01625Y00412D02*
X01865D01*
X01625Y00416D02*
X01865D01*
X01625Y004D02*
X01865D01*
X01625Y00408D02*
X01865D01*
X01625Y00404D02*
X01865D01*
X01625Y00534D02*
X01865D01*
X01625Y00538D02*
X01865D01*
X01625Y00526D02*
X01865D01*
X01625Y0053D02*
X01865D01*
X01625Y00554D02*
X01865D01*
X01625Y00558D02*
X01865D01*
X01625Y00542D02*
X01865D01*
X01625Y0055D02*
X01865D01*
X01625Y00546D02*
X01865D01*
X01625Y00471D02*
X01865D01*
X01625Y00475D02*
X01865D01*
X01625Y0046D02*
X01865D01*
X01625Y00467D02*
X01865D01*
X01625Y00463D02*
X01865D01*
X01625Y00511D02*
X01865D01*
X01625Y00522D02*
X01865D01*
X01625Y00479D02*
X01865D01*
X01625Y00487D02*
X01865D01*
X01625Y00483D02*
X01865D01*
X01625Y00735D02*
X01865D01*
X01625Y00739D02*
X01865D01*
X01625Y00723D02*
X01865D01*
X01625Y00731D02*
X01865D01*
X01625Y00727D02*
X01865D01*
X01625Y00755D02*
X01865D01*
X01625Y00759D02*
X01865D01*
X01625Y00743D02*
X01865D01*
X01625Y00751D02*
X01865D01*
X01625Y00747D02*
X01865D01*
X01625Y00574D02*
X01865D01*
X01625Y00578D02*
X01865D01*
X01625Y00562D02*
X01865D01*
X01625Y0057D02*
X01865D01*
X01625Y00566D02*
X01865D01*
X01625Y00715D02*
X01865D01*
X01625Y00719D02*
X01865D01*
X01625Y00582D02*
X01865D01*
X01625Y00711D02*
X01865D01*
X01625Y00585D02*
X01865D01*
X01625Y00503D02*
X01865D01*
X01625Y00507D02*
X01865D01*
X01625Y00491D02*
X01865D01*
X01625Y00499D02*
X01865D01*
X01625Y00495D02*
X01865D01*
X01625Y00515D02*
X01865D01*
X01625Y00519D02*
X01865D01*
X01864Y00024D02*
Y01865D01*
X01625Y00589D02*
X01865D01*
Y00024D02*
Y01865D01*
X01625Y00605D02*
X01865D01*
X01625Y00609D02*
X01865D01*
X01625Y00593D02*
X01865D01*
X01625Y00601D02*
X01865D01*
X01625Y00597D02*
X01865D01*
X01625Y00625D02*
X01865D01*
X01625Y00629D02*
X01865D01*
X01625Y00613D02*
X01865D01*
X01625Y00621D02*
X01865D01*
X01625Y00617D02*
X01865D01*
X01625Y00684D02*
X01865D01*
X01625Y00688D02*
X01865D01*
X01625Y00672D02*
X01865D01*
X01625Y0068D02*
X01865D01*
X01625Y00676D02*
X01865D01*
X01625Y00704D02*
X01865D01*
X01625Y00708D02*
X01865D01*
X01625Y00692D02*
X01865D01*
X01625Y007D02*
X01865D01*
X01625Y00696D02*
X01865D01*
X01625Y00645D02*
X01865D01*
X01625Y00648D02*
X01865D01*
X01625Y00633D02*
X01865D01*
X01625Y00641D02*
X01865D01*
X01625Y00637D02*
X01865D01*
X01625Y00664D02*
X01865D01*
X01625Y00668D02*
X01865D01*
X01625Y00652D02*
X01865D01*
X01625Y0066D02*
X01865D01*
X01625Y00656D02*
X01865D01*
X01555Y00959D02*
X01865D01*
X01555Y00963D02*
X01865D01*
X01555Y00915D02*
X01625Y00845D01*
X01555Y00956D02*
X01865D01*
X01555Y00991D02*
X01865D01*
X01555Y00995D02*
X01865D01*
X01555Y00967D02*
X01865D01*
X01555Y00987D02*
X01865D01*
X01555Y00971D02*
X01865D01*
X01555Y01011D02*
X01865D01*
X01555Y01015D02*
X01865D01*
X01555Y00999D02*
X01865D01*
X01555Y01007D02*
X01865D01*
X01555Y01003D02*
X01865D01*
X01555Y0103D02*
X01865D01*
X01555Y01034D02*
X01865D01*
X01555Y01019D02*
X01865D01*
X01555Y01026D02*
X01865D01*
X01555Y01022D02*
X01865D01*
X01376Y0161D02*
Y01865D01*
X01372Y0161D02*
Y01865D01*
X01388Y0161D02*
Y01865D01*
X0138Y0161D02*
Y01865D01*
X01384Y0161D02*
Y01865D01*
X01356Y0161D02*
Y01865D01*
X01352Y0161D02*
Y01865D01*
X01368Y0161D02*
Y01865D01*
X0136Y0161D02*
Y01865D01*
X01364Y0161D02*
Y01865D01*
X0141Y0161D02*
X01555Y01465D01*
X01423Y01596D02*
Y01865D01*
X01555Y01038D02*
X01865D01*
X01555Y01046D02*
X01865D01*
X01555Y01042D02*
X01865D01*
X01419Y016D02*
Y01865D01*
X01391Y0161D02*
Y01865D01*
X01439Y0158D02*
Y01865D01*
X01427Y01592D02*
Y01865D01*
X01435Y01584D02*
Y01865D01*
X01625Y00818D02*
X01865D01*
X01625Y00826D02*
X01865D01*
X01625Y0081D02*
X01865D01*
X01625Y00814D02*
X01865D01*
X0162Y00849D02*
X01865D01*
X01555Y00915D02*
Y01465D01*
X01625Y0083D02*
X01865D01*
X01624Y00845D02*
X01865D01*
X01625Y00834D02*
X01865D01*
X01555Y00979D02*
X01865D01*
X01555Y00983D02*
X01865D01*
X01625Y00822D02*
X01865D01*
X01555Y00975D02*
X01865D01*
X01616Y00853D02*
X01865D01*
X01555Y01062D02*
X01865D01*
X01555Y01066D02*
X01865D01*
X01555Y0105D02*
X01865D01*
X01555Y01058D02*
X01865D01*
X01555Y01054D02*
X01865D01*
X01555Y01121D02*
X01865D01*
X01555Y01125D02*
X01865D01*
X01555Y01109D02*
X01865D01*
X01555Y01117D02*
X01865D01*
X01555Y01113D02*
X01865D01*
X01555Y01141D02*
X01865D01*
X01555Y01145D02*
X01865D01*
X01555Y01129D02*
X01865D01*
X01555Y01137D02*
X01865D01*
X01555Y01133D02*
X01865D01*
X01555Y01082D02*
X01865D01*
X01555Y01085D02*
X01865D01*
X01555Y0107D02*
X01865D01*
X01555Y01078D02*
X01865D01*
X01555Y01074D02*
X01865D01*
X01555Y01101D02*
X01865D01*
X01555Y01105D02*
X01865D01*
X01555Y01089D02*
X01865D01*
X01555Y01097D02*
X01865D01*
X01555Y01093D02*
X01865D01*
X01403Y0161D02*
Y01865D01*
X01399Y0161D02*
Y01865D01*
X01411Y01608D02*
Y01865D01*
X01407Y0161D02*
Y01865D01*
X0134Y0161D02*
Y01865D01*
X01336Y0161D02*
Y01865D01*
X01395Y0161D02*
Y01865D01*
X01344Y0161D02*
Y01865D01*
X01348Y0161D02*
Y01865D01*
X01458Y01561D02*
Y01865D01*
X01454Y01565D02*
Y01865D01*
X0147Y01549D02*
Y01865D01*
X01462Y01557D02*
Y01865D01*
X01466Y01553D02*
Y01865D01*
X01431Y01588D02*
Y01865D01*
X01415Y01604D02*
Y01865D01*
X01451Y01568D02*
Y01865D01*
X01443Y01576D02*
Y01865D01*
X01447Y01572D02*
Y01865D01*
X01281Y0161D02*
Y01865D01*
X01277Y0161D02*
Y01865D01*
X01293Y0161D02*
Y01865D01*
X01285Y0161D02*
Y01865D01*
X01289Y0161D02*
Y01865D01*
X01262Y0161D02*
Y01865D01*
X01258Y0161D02*
Y01865D01*
X01273Y0161D02*
Y01865D01*
X01265Y0161D02*
Y01865D01*
X01269Y0161D02*
Y01865D01*
X01321Y0161D02*
Y01865D01*
X01317Y0161D02*
Y01865D01*
X01332Y0161D02*
Y01865D01*
X01325Y0161D02*
Y01865D01*
X01328Y0161D02*
Y01865D01*
X01301Y0161D02*
Y01865D01*
X01297Y0161D02*
Y01865D01*
X01313Y0161D02*
Y01865D01*
X01305Y0161D02*
Y01865D01*
X01309Y0161D02*
Y01865D01*
X01577Y00893D02*
Y01865D01*
X01573Y00896D02*
Y01865D01*
X01584Y00885D02*
Y01865D01*
X0158Y00889D02*
Y01865D01*
X01557Y00912D02*
Y01865D01*
X01553Y01466D02*
Y01865D01*
X01569Y009D02*
Y01865D01*
X01561Y00908D02*
Y01865D01*
X01565Y00904D02*
Y01865D01*
X01612Y00857D02*
Y01865D01*
X01608Y00861D02*
Y01865D01*
X01624Y00845D02*
Y01865D01*
X01616Y00853D02*
Y01865D01*
X0162Y00849D02*
Y01865D01*
X01592Y00877D02*
Y01865D01*
X01588Y00881D02*
Y01865D01*
X01604Y00865D02*
Y01865D01*
X01596Y00873D02*
Y01865D01*
X016Y00869D02*
Y01865D01*
X01498Y01521D02*
Y01865D01*
X01494Y01525D02*
Y01865D01*
X0151Y01509D02*
Y01865D01*
X01502Y01517D02*
Y01865D01*
X01506Y01513D02*
Y01865D01*
X01478Y01541D02*
Y01865D01*
X01474Y01545D02*
Y01865D01*
X0149Y01529D02*
Y01865D01*
X01482Y01537D02*
Y01865D01*
X01486Y01533D02*
Y01865D01*
X01537Y01482D02*
Y01865D01*
X01533Y01486D02*
Y01865D01*
X01549Y0147D02*
Y01865D01*
X01541Y01478D02*
Y01865D01*
X01545Y01474D02*
Y01865D01*
X01517Y01502D02*
Y01865D01*
X01514Y01505D02*
Y01865D01*
X01529Y0149D02*
Y01865D01*
X01521Y01498D02*
Y01865D01*
X01525Y01494D02*
Y01865D01*
X01555Y01196D02*
X01865D01*
X01555Y012D02*
X01865D01*
X01555Y01188D02*
X01865D01*
X01555Y01192D02*
X01865D01*
X01555Y01215D02*
X01865D01*
X01555Y01219D02*
X01865D01*
X01555Y01204D02*
X01865D01*
X01555Y01211D02*
X01865D01*
X01555Y01208D02*
X01865D01*
X01555Y0116D02*
X01865D01*
X01555Y01164D02*
X01865D01*
X01555Y01148D02*
X01865D01*
X01555Y01156D02*
X01865D01*
X01555Y01152D02*
X01865D01*
X01555Y0118D02*
X01865D01*
X01555Y01184D02*
X01865D01*
X01555Y01168D02*
X01865D01*
X01555Y01176D02*
X01865D01*
X01555Y01172D02*
X01865D01*
X01555Y01274D02*
X01865D01*
X01555Y01278D02*
X01865D01*
X01555Y01263D02*
X01865D01*
X01555Y01271D02*
X01865D01*
X01555Y01267D02*
X01865D01*
X01555Y01294D02*
X01865D01*
X01555Y01298D02*
X01865D01*
X01555Y01282D02*
X01865D01*
X01555Y0129D02*
X01865D01*
X01555Y01286D02*
X01865D01*
X01555Y01235D02*
X01865D01*
X01555Y01239D02*
X01865D01*
X01555Y01223D02*
X01865D01*
X01555Y01231D02*
X01865D01*
X01555Y01227D02*
X01865D01*
X01555Y01255D02*
X01865D01*
X01555Y01259D02*
X01865D01*
X01555Y01243D02*
X01865D01*
X01555Y01251D02*
X01865D01*
X01555Y01247D02*
X01865D01*
X01625Y00837D02*
X01865D01*
X01625Y00841D02*
X01865D01*
X01625Y00802D02*
X01865D01*
X01625Y00806D02*
X01865D01*
X016Y00869D02*
X01865D01*
X01596Y00873D02*
X01865D01*
X01612Y00857D02*
X01865D01*
X01604Y00865D02*
X01865D01*
X01608Y00861D02*
X01865D01*
X01625Y00774D02*
X01865D01*
X01625Y00778D02*
X01865D01*
X01625Y00763D02*
X01865D01*
X01625Y00771D02*
X01865D01*
X01625Y00767D02*
X01865D01*
X01625Y00794D02*
X01865D01*
X01625Y00798D02*
X01865D01*
X01625Y00782D02*
X01865D01*
X01625Y0079D02*
X01865D01*
X01625Y00786D02*
X01865D01*
X01555Y00928D02*
X01865D01*
X01555Y00932D02*
X01865D01*
X01555Y00916D02*
X01865D01*
X01555Y00924D02*
X01865D01*
X01555Y0092D02*
X01865D01*
X01555Y00948D02*
X01865D01*
X01555Y00952D02*
X01865D01*
X01555Y00936D02*
X01865D01*
X01555Y00944D02*
X01865D01*
X01555Y0094D02*
X01865D01*
X0158Y00889D02*
X01865D01*
X01576Y00893D02*
X01865D01*
X01592Y00877D02*
X01865D01*
X01584Y00885D02*
X01865D01*
X01588Y00881D02*
X01865D01*
X01561Y00908D02*
X01865D01*
X01557Y00912D02*
X01865D01*
X01573Y00897D02*
X01865D01*
X01565Y00904D02*
X01865D01*
X01569Y009D02*
X01865D01*
X01512Y01507D02*
X01865D01*
X01508Y01511D02*
X01865D01*
X0152Y01499D02*
X01865D01*
X01516Y01503D02*
X01865D01*
X01493Y01526D02*
X01865D01*
X01489Y0153D02*
X01865D01*
X01504Y01515D02*
X01865D01*
X01497Y01522D02*
X01865D01*
X015Y01519D02*
X01865D01*
X01548Y01471D02*
X01865D01*
X01544Y01475D02*
X01865D01*
X01555Y01459D02*
X01865D01*
X01552Y01467D02*
X01865D01*
X01555Y01463D02*
X01865D01*
X01528Y01491D02*
X01865D01*
X01524Y01495D02*
X01865D01*
X0154Y01479D02*
X01865D01*
X01532Y01487D02*
X01865D01*
X01536Y01483D02*
X01865D01*
X01434Y01585D02*
X01865D01*
X0143Y01589D02*
X01865D01*
X01445Y01574D02*
X01865D01*
X01437Y01582D02*
X01865D01*
X01441Y01578D02*
X01865D01*
X01414Y01605D02*
X01865D01*
X0141Y01609D02*
X01865D01*
X01426Y01593D02*
X01865D01*
X01418Y01601D02*
X01865D01*
X01422Y01597D02*
X01865D01*
X01473Y01546D02*
X01865D01*
X01469Y0155D02*
X01865D01*
X01485Y01534D02*
X01865D01*
X01477Y01542D02*
X01865D01*
X01481Y01538D02*
X01865D01*
X01453Y01566D02*
X01865D01*
X01449Y0157D02*
X01865D01*
X01465Y01554D02*
X01865D01*
X01457Y01562D02*
X01865D01*
X01461Y01558D02*
X01865D01*
X01555Y01353D02*
X01865D01*
X01555Y01357D02*
X01865D01*
X01555Y01341D02*
X01865D01*
X01555Y01349D02*
X01865D01*
X01555Y01345D02*
X01865D01*
X01555Y01373D02*
X01865D01*
X01555Y01377D02*
X01865D01*
X01555Y01361D02*
X01865D01*
X01555Y01369D02*
X01865D01*
X01555Y01365D02*
X01865D01*
X01555Y01314D02*
X01865D01*
X01555Y01318D02*
X01865D01*
X01555Y01302D02*
X01865D01*
X01555Y0131D02*
X01865D01*
X01555Y01306D02*
X01865D01*
X01555Y01334D02*
X01865D01*
X01555Y01337D02*
X01865D01*
X01555Y01322D02*
X01865D01*
X01555Y0133D02*
X01865D01*
X01555Y01326D02*
X01865D01*
X01555Y01432D02*
X01865D01*
X01555Y01436D02*
X01865D01*
X01555Y0142D02*
X01865D01*
X01555Y01428D02*
X01865D01*
X01555Y01424D02*
X01865D01*
X01555Y01452D02*
X01865D01*
X01555Y01456D02*
X01865D01*
X01555Y0144D02*
X01865D01*
X01555Y01448D02*
X01865D01*
X01555Y01444D02*
X01865D01*
X01555Y01393D02*
X01865D01*
X01555Y01397D02*
X01865D01*
X01555Y01381D02*
X01865D01*
X01555Y01389D02*
X01865D01*
X01555Y01385D02*
X01865D01*
X01555Y01412D02*
X01865D01*
X01555Y01416D02*
X01865D01*
X01555Y014D02*
X01865D01*
X01555Y01408D02*
X01865D01*
X01555Y01404D02*
X01865D01*
X00985Y0004D02*
X01001Y00023D01*
X00985Y00046D02*
X01103D01*
X00985Y00042D02*
X01103D01*
X00985Y00054D02*
X01103D01*
X00985Y0005D02*
X01103D01*
X00985Y00062D02*
X01103D01*
X00985Y00058D02*
X01103D01*
X00985Y00117D02*
X01103D01*
X00985Y00113D02*
X01103D01*
X00985Y00125D02*
X01103D01*
X00985Y00121D02*
X01103D01*
X00985Y0007D02*
X01103D01*
X00985Y00066D02*
X01103D01*
X00985Y00109D02*
X01103D01*
X00985Y00105D02*
X01103D01*
X01001Y00023D02*
X01098D01*
X00998Y00026D02*
X01101D01*
X01098Y00023D02*
X01103Y00028D01*
X0099Y00034D02*
X01103D01*
X00994Y0003D02*
X01103D01*
X00986Y00038D02*
X01103D01*
Y00028D02*
Y00183D01*
X00985Y00093D02*
X01103D01*
X00985Y00089D02*
X01103D01*
X00985Y00101D02*
X01103D01*
X00985Y00097D02*
X01103D01*
X00985Y00078D02*
X01103D01*
X00985Y00074D02*
X01103D01*
X00985Y00085D02*
X01103D01*
X00985Y00082D02*
X01103D01*
X01021Y00023D02*
Y00325D01*
X01014Y00023D02*
Y00325D01*
X01017Y00023D02*
Y00325D01*
X01033Y00023D02*
Y00325D01*
X01037Y00023D02*
Y00325D01*
X01025Y00023D02*
Y00325D01*
X01029Y00023D02*
Y00325D01*
X00985Y00299D02*
Y0004D01*
X00986Y00038D02*
Y00301D01*
X0099Y00034D02*
Y00304D01*
X00994Y0003D02*
Y00308D01*
X00998Y00026D02*
Y00312D01*
X01002Y00023D02*
Y00316D01*
X01006Y00023D02*
Y0032D01*
X0101Y00023D02*
Y00324D01*
X01049Y00023D02*
Y00325D01*
X01053Y00023D02*
Y00325D01*
X01041Y00023D02*
Y00325D01*
X01045Y00023D02*
Y00325D01*
X01065Y00023D02*
Y00325D01*
X01069Y00023D02*
Y00325D01*
X01057Y00023D02*
Y00325D01*
X01061Y00023D02*
Y00325D01*
X0108Y00023D02*
Y00325D01*
X01084Y00023D02*
Y00325D01*
X01073Y00023D02*
Y00325D01*
X01077Y00023D02*
Y00325D01*
X01096Y00023D02*
Y00325D01*
X011Y00025D02*
Y00325D01*
X01088Y00023D02*
Y00325D01*
X01092Y00023D02*
Y00325D01*
X00985Y00145D02*
X01103D01*
X00985Y00152D02*
X01103D01*
X00985Y00148D02*
X01103D01*
X00985Y00133D02*
X01103D01*
X00985Y00129D02*
X01103D01*
X00985Y00141D02*
X01103D01*
X00985Y00137D02*
X01103D01*
X00985Y0016D02*
X01103D01*
X00985Y00156D02*
X01103D01*
X00985Y00168D02*
X01103D01*
X00985Y00164D02*
X01103D01*
X00985Y00176D02*
X01103D01*
X00985Y00172D02*
X01103D01*
X00985Y00184D02*
X01104D01*
X00985Y0018D02*
X01103D01*
X00985Y00192D02*
X01112D01*
X00985Y00188D02*
X01108D01*
X00985Y00196D02*
X01116D01*
X01104Y00184D02*
Y00325D01*
X00985Y00204D02*
X01124D01*
X00985Y002D02*
X0112D01*
X01103Y00183D02*
X01155Y00235D01*
X01124Y00204D02*
Y00325D01*
X00985Y00211D02*
X01131D01*
X00985Y00208D02*
X01128D01*
X00985Y00219D02*
X01139D01*
X00985Y00215D02*
X01135D01*
X00985Y00227D02*
X01147D01*
X00985Y00223D02*
X01143D01*
X00985Y00231D02*
X01151D01*
X01155Y00235D02*
X01405D01*
X01116Y00196D02*
Y00325D01*
X01108Y00188D02*
Y00325D01*
X01112Y00192D02*
Y00325D01*
X01132Y00212D02*
Y00325D01*
X01136Y00216D02*
Y00325D01*
X0112Y002D02*
Y00325D01*
X01128Y00208D02*
Y00325D01*
X01147Y00227D02*
Y00325D01*
X01151Y00231D02*
Y00325D01*
X01139Y00219D02*
Y00325D01*
X01143Y00223D02*
Y00325D01*
X01163Y00235D02*
Y00325D01*
X01167Y00235D02*
Y00325D01*
X01155Y00235D02*
Y00325D01*
X01159Y00235D02*
Y00325D01*
X01206Y00235D02*
Y00356D01*
X0121Y00235D02*
Y0036D01*
X01214Y00235D02*
Y00364D01*
X01218Y00235D02*
Y00368D01*
X01222Y00235D02*
Y00372D01*
X01226Y00235D02*
Y00376D01*
X0123Y00235D02*
Y0038D01*
X01234Y00235D02*
Y00384D01*
X01171Y00235D02*
Y00325D01*
X01175Y00235D02*
Y00325D01*
X01179Y00235D02*
Y00329D01*
X01183Y00235D02*
Y00333D01*
X01187Y00235D02*
Y00337D01*
X01191Y00235D02*
Y00341D01*
X01195Y00235D02*
Y00345D01*
X01202Y00235D02*
Y00352D01*
X00985Y00235D02*
X01405D01*
X00985Y00243D02*
X01413D01*
X00985Y00239D02*
X01409D01*
X00985Y00251D02*
X01421D01*
X00985Y00247D02*
X01417D01*
X00985Y00259D02*
X01429D01*
X00985Y00255D02*
X01425D01*
X00985Y00267D02*
X01437D01*
X00985Y00263D02*
X01433D01*
X00985Y00274D02*
X01444D01*
X00985Y00271D02*
X01441D01*
X00985Y00282D02*
X01452D01*
X00985Y00278D02*
X01448D01*
X00985Y0029D02*
X0146D01*
X00985Y00286D02*
X01456D01*
X00985Y00294D02*
X01464D01*
X00985Y00299D02*
X0101Y00325D01*
X00985Y00298D02*
X01468D01*
X00987Y00302D02*
X01472D01*
X00991Y00306D02*
X01476D01*
X00995Y0031D02*
X0148D01*
X00999Y00314D02*
X01484D01*
X01003Y00318D02*
X01488D01*
X01007Y00322D02*
X01492D01*
X0101Y00325D02*
X01175D01*
X01176Y00326D02*
X01496D01*
X0118Y0033D02*
X015D01*
X01184Y00334D02*
X01504D01*
X01187Y00337D02*
X01507D01*
X01191Y00341D02*
X01511D01*
X01195Y00345D02*
X01515D01*
X01175Y00325D02*
X01235Y00385D01*
X01199Y00235D02*
Y00349D01*
X01199Y00349D02*
X01519D01*
X01203Y00353D02*
X01523D01*
X01207Y00357D02*
X01527D01*
X01211Y00361D02*
X01531D01*
X01231Y00381D02*
X01535D01*
X01235Y00385D02*
X01535D01*
X01235Y00397D02*
X01535D01*
X01235Y00389D02*
X01535D01*
X01215Y00365D02*
X01535D01*
X01219Y00369D02*
X01535D01*
X01223Y00373D02*
X01535D01*
X01227Y00377D02*
X01535D01*
X01235Y00404D02*
X01535D01*
X01235Y004D02*
X01535D01*
X01235Y00385D02*
Y00785D01*
Y00408D02*
X01535D01*
X01235Y00416D02*
X01535D01*
X01235Y00412D02*
X01535D01*
X01235Y00424D02*
X01535D01*
X01235Y0042D02*
X01535D01*
X01235Y00448D02*
X01535D01*
X01235Y00444D02*
X01535D01*
X01235Y00785D02*
X01325Y00875D01*
X01235Y00452D02*
X01535D01*
X01235Y00432D02*
X01535D01*
X01235Y00428D02*
X01535D01*
X01235Y0044D02*
X01535D01*
X01235Y00436D02*
X01535D01*
X01235Y00621D02*
X01535D01*
X01235Y00629D02*
X01535D01*
X01235Y00625D02*
X01535D01*
X01235Y00609D02*
X01535D01*
X01235Y00605D02*
X01535D01*
X01235Y00617D02*
X01535D01*
X01235Y00613D02*
X01535D01*
X01235Y00652D02*
X01535D01*
X01235Y00648D02*
X01535D01*
X01235Y0066D02*
X01535D01*
X01235Y00656D02*
X01535D01*
X01235Y00637D02*
X01535D01*
X01235Y00633D02*
X01535D01*
X01235Y00645D02*
X01535D01*
X01235Y00641D02*
X01535D01*
X01235Y00471D02*
X01535D01*
X01235Y00467D02*
X01535D01*
X01235Y00479D02*
X01535D01*
X01235Y00475D02*
X01535D01*
X01235Y00456D02*
X01535D01*
X01235Y00393D02*
X01535D01*
X01235Y00463D02*
X01535D01*
X01235Y0046D02*
X01535D01*
X01235Y0053D02*
X01535D01*
X01235Y00526D02*
X01535D01*
X01235Y00546D02*
X01535D01*
X01235Y00534D02*
X01535D01*
X01235Y00487D02*
X01535D01*
X01235Y00483D02*
X01535D01*
X01235Y00495D02*
X01535D01*
X01235Y00491D02*
X01535D01*
X01235Y00743D02*
X01535D01*
X01235Y00751D02*
X01535D01*
X01235Y00747D02*
X01535D01*
X01235Y00731D02*
X01535D01*
X01235Y00727D02*
X01535D01*
X01235Y00739D02*
X01535D01*
X01235Y00735D02*
X01535D01*
X01235Y00774D02*
X01535D01*
X01235Y00771D02*
X01535D01*
X01235Y00782D02*
X01535D01*
X01235Y00778D02*
X01535D01*
X01235Y00759D02*
X01535D01*
X01235Y00755D02*
X01535D01*
X01235Y00767D02*
X01535D01*
X01235Y00763D02*
X01535D01*
X01235Y00684D02*
X01535D01*
X01235Y0068D02*
X01535D01*
X01235Y00692D02*
X01535D01*
X01235Y00688D02*
X01535D01*
X01235Y00668D02*
X01535D01*
X01235Y00664D02*
X01535D01*
X01235Y00676D02*
X01535D01*
X01235Y00672D02*
X01535D01*
X01235Y00715D02*
X01535D01*
X01235Y00711D02*
X01535D01*
X01235Y00723D02*
X01535D01*
X01235Y00719D02*
X01535D01*
X01235Y007D02*
X01535D01*
X01235Y00696D02*
X01535D01*
X01235Y00708D02*
X01535D01*
X01235Y00704D02*
X01535D01*
X01269Y00235D02*
Y00819D01*
X01273Y00235D02*
Y00823D01*
X01277Y00235D02*
Y00827D01*
X01281Y00235D02*
Y00831D01*
X01285Y00235D02*
Y00835D01*
X01289Y00235D02*
Y00839D01*
X01293Y00235D02*
Y00843D01*
X01238Y00235D02*
Y00788D01*
X01242Y00235D02*
Y00792D01*
X01246Y00235D02*
Y00796D01*
X0125Y00235D02*
Y008D01*
X01254Y00235D02*
Y00804D01*
X01258Y00235D02*
Y00808D01*
X01262Y00235D02*
Y00812D01*
X01265Y00235D02*
Y00815D01*
X01297Y00235D02*
Y00847D01*
X01301Y00235D02*
Y00851D01*
X01305Y00235D02*
Y00855D01*
X01309Y00235D02*
Y00859D01*
X01313Y00235D02*
Y00863D01*
X01317Y00235D02*
Y00867D01*
X01321Y00235D02*
Y00871D01*
X01443Y00273D02*
Y0134D01*
X01458Y00288D02*
Y0134D01*
X01431Y00261D02*
Y0134D01*
X01435Y00265D02*
Y0134D01*
X01311Y00861D02*
X01468D01*
X01466Y00296D02*
Y00863D01*
X01462Y00292D02*
Y0134D01*
X01465D02*
Y00865D01*
X01364Y00235D02*
Y0134D01*
X01356Y00235D02*
Y0134D01*
X0136Y00235D02*
Y0134D01*
X01376Y00235D02*
Y0134D01*
X0138Y00235D02*
Y0134D01*
X01368Y00235D02*
Y0134D01*
X01372Y00235D02*
Y0134D01*
X01332Y00235D02*
Y0134D01*
X01336Y00235D02*
Y0134D01*
X01325Y00235D02*
Y0134D01*
X01328Y00235D02*
Y0134D01*
X01348Y00235D02*
Y0134D01*
X01352Y00235D02*
Y0134D01*
X0134Y00235D02*
Y0134D01*
X01344Y00235D02*
Y0134D01*
X01391Y00235D02*
Y0134D01*
X01395Y00235D02*
Y0134D01*
X01384Y00235D02*
Y0134D01*
X01388Y00235D02*
Y0134D01*
X01407Y00237D02*
Y0134D01*
X01411Y00241D02*
Y0134D01*
X01399Y00235D02*
Y0134D01*
X01403Y00235D02*
Y0134D01*
X01423Y00253D02*
Y0134D01*
X01427Y00257D02*
Y0134D01*
X01415Y00245D02*
Y0134D01*
X01419Y00249D02*
Y0134D01*
X01451Y00281D02*
Y0134D01*
X01454Y00284D02*
Y0134D01*
X01439Y00269D02*
Y0134D01*
X01447Y00277D02*
Y0134D01*
X01235Y00515D02*
X01535D01*
X01235Y00522D02*
X01535D01*
X01235Y00519D02*
X01535D01*
X01235Y00503D02*
X01535D01*
X01235Y00499D02*
X01535D01*
X01235Y00511D02*
X01535D01*
X01235Y00507D02*
X01535D01*
X01235Y00562D02*
X01535D01*
X01235Y00558D02*
X01535D01*
X01235Y0057D02*
X01535D01*
X01235Y00566D02*
X01535D01*
X01235Y00542D02*
X01535D01*
X01235Y00538D02*
X01535D01*
X01235Y00554D02*
X01535D01*
X01235Y0055D02*
X01535D01*
X01405Y00235D02*
X01535Y00365D01*
Y00795*
X01529Y00359D02*
Y008D01*
X01533Y00363D02*
Y00796D01*
X01235Y00578D02*
X01535D01*
X01235Y00574D02*
X01535D01*
X01235Y00585D02*
X01535D01*
X01235Y00582D02*
X01535D01*
X01236Y00786D02*
X01535D01*
X0124Y0079D02*
X01535D01*
X01244Y00794D02*
X01535D01*
X01248Y00798D02*
X01531D01*
X01235Y00593D02*
X01535D01*
X01235Y00589D02*
X01535D01*
X01235Y00601D02*
X01535D01*
X01235Y00597D02*
X01535D01*
X01268Y00818D02*
X01511D01*
X01272Y00822D02*
X01507D01*
X01276Y00826D02*
X01503D01*
X01252Y00802D02*
X01527D01*
X01256Y00806D02*
X01523D01*
X0126Y0081D02*
X01519D01*
X01264Y00814D02*
X01515D01*
X01295Y00845D02*
X01484D01*
X01299Y00849D02*
X0148D01*
X01303Y00853D02*
X01476D01*
X01307Y00857D02*
X01472D01*
X0128Y0083D02*
X01499D01*
X01284Y00834D02*
X01495D01*
X01287Y00837D02*
X01492D01*
X01291Y00841D02*
X01488D01*
X01478Y00308D02*
Y00851D01*
X01482Y00312D02*
Y00847D01*
X0147Y003D02*
Y00859D01*
X01474Y00304D02*
Y00855D01*
X01494Y00324D02*
Y00835D01*
X01498Y00328D02*
Y00831D01*
X01486Y00316D02*
Y00843D01*
X0149Y0032D02*
Y00839D01*
X0151Y0034D02*
Y00819D01*
X01514Y00344D02*
Y00815D01*
X01502Y00332D02*
Y00827D01*
X01506Y00336D02*
Y00823D01*
X01521Y00351D02*
Y00808D01*
X01525Y00355D02*
Y00804D01*
X01465Y00865D02*
X01535Y00795D01*
X01517Y00347D02*
Y00812D01*
X01325Y01062D02*
X01465D01*
X01325Y0107D02*
X01465D01*
X01325Y01066D02*
X01465D01*
X01325Y0105D02*
X01465D01*
X01325Y01046D02*
X01465D01*
X01325Y01058D02*
X01465D01*
X01325Y01054D02*
X01465D01*
X01325Y01093D02*
X01465D01*
X01325Y01089D02*
X01465D01*
X01325Y01223D02*
X01465D01*
X01325Y01097D02*
X01465D01*
X01325Y01078D02*
X01465D01*
X01325Y01074D02*
X01465D01*
X01325Y01085D02*
X01465D01*
X01325Y01082D02*
X01465D01*
X01325Y01003D02*
X01465D01*
X01325Y01011D02*
X01465D01*
X01325Y01007D02*
X01465D01*
X01325Y00991D02*
X01465D01*
X01325Y00987D02*
X01465D01*
X01325Y00999D02*
X01465D01*
X01325Y00995D02*
X01465D01*
X01325Y01034D02*
X01465D01*
X01325Y0103D02*
X01465D01*
X01325Y01042D02*
X01465D01*
X01325Y01038D02*
X01465D01*
X01325Y01019D02*
X01465D01*
X01325Y01015D02*
X01465D01*
X01325Y01026D02*
X01465D01*
X01325Y01022D02*
X01465D01*
X01325Y0129D02*
X01465D01*
X01325Y0134D02*
Y00875D01*
Y01294D02*
X01465D01*
X01325Y01302D02*
X01465D01*
X01325Y01298D02*
X01465D01*
X01325Y0131D02*
X01465D01*
X01325Y01306D02*
X01465D01*
X01325Y01334D02*
X01465D01*
X01325Y0133D02*
X01465D01*
X01325Y0134D02*
X01465D01*
X01325Y01337D02*
X01465D01*
X01325Y01318D02*
X01465D01*
X01325Y01314D02*
X01465D01*
X01325Y01326D02*
X01465D01*
X01325Y01322D02*
X01465D01*
X01325Y01247D02*
X01465D01*
X01325Y01243D02*
X01465D01*
X01325Y01255D02*
X01465D01*
X01325Y01251D02*
X01465D01*
X01325Y01231D02*
X01465D01*
X01325Y01227D02*
X01465D01*
X01325Y01239D02*
X01465D01*
X01325Y01235D02*
X01465D01*
X01325Y01278D02*
X01465D01*
X01325Y01274D02*
X01465D01*
X01325Y01286D02*
X01465D01*
X01325Y01282D02*
X01465D01*
X01325Y01263D02*
X01465D01*
X01325Y01259D02*
X01465D01*
X01325Y01271D02*
X01465D01*
X01325Y01267D02*
X01465D01*
X01325Y00881D02*
X01465D01*
X01325Y00889D02*
X01465D01*
X01325Y00885D02*
X01465D01*
X01315Y00865D02*
X01465D01*
X01319Y00869D02*
X01465D01*
X01323Y00873D02*
X01465D01*
X01325Y00877D02*
X01465D01*
X01325Y00912D02*
X01465D01*
X01325Y00908D02*
X01465D01*
X01325Y0092D02*
X01465D01*
X01325Y00916D02*
X01465D01*
X01325Y00897D02*
X01465D01*
X01325Y00893D02*
X01465D01*
X01325Y00904D02*
X01465D01*
X01325Y009D02*
X01465D01*
X01325Y00944D02*
X01465D01*
X01325Y0094D02*
X01465D01*
X01325Y00952D02*
X01465D01*
X01325Y00948D02*
X01465D01*
X01325Y00928D02*
X01465D01*
X01325Y00924D02*
X01465D01*
X01325Y00936D02*
X01465D01*
X01325Y00932D02*
X01465D01*
X01325Y00975D02*
X01465D01*
X01325Y00971D02*
X01465D01*
X01325Y00983D02*
X01465D01*
X01325Y00979D02*
X01465D01*
X01325Y00959D02*
X01465D01*
X01325Y00956D02*
X01465D01*
X01325Y00967D02*
X01465D01*
X01325Y00963D02*
X01465D01*
X01325Y0118D02*
X01465D01*
X01325Y01188D02*
X01465D01*
X01325Y01184D02*
X01465D01*
X01325Y01168D02*
X01465D01*
X01325Y01164D02*
X01465D01*
X01325Y01176D02*
X01465D01*
X01325Y01172D02*
X01465D01*
X01325Y01211D02*
X01465D01*
X01325Y01208D02*
X01465D01*
X01325Y01219D02*
X01465D01*
X01325Y01215D02*
X01465D01*
X01325Y01196D02*
X01465D01*
X01325Y01192D02*
X01465D01*
X01325Y01204D02*
X01465D01*
X01325Y012D02*
X01465D01*
X01325Y01121D02*
X01465D01*
X01325Y01117D02*
X01465D01*
X01325Y01129D02*
X01465D01*
X01325Y01125D02*
X01465D01*
X01325Y01105D02*
X01465D01*
X01325Y01101D02*
X01465D01*
X01325Y01113D02*
X01465D01*
X01325Y01109D02*
X01465D01*
X01325Y01152D02*
X01465D01*
X01325Y01148D02*
X01465D01*
X01325Y0116D02*
X01465D01*
X01325Y01156D02*
X01465D01*
X01325Y01137D02*
X01465D01*
X01325Y01133D02*
X01465D01*
X01325Y01145D02*
X01465D01*
X01325Y01141D02*
X01465D01*
G54D11*
X0109Y01063D03*
Y01126D03*
X0075Y01113D03*
Y01176D03*
X00765Y00848D03*
Y00911D03*
G54D12*
X00918Y011D03*
X00981D03*
X00866Y01115D03*
X00803D03*
X00918Y01045D03*
X00981D03*
X01063Y0119D03*
X01126D03*
X01146Y00845D03*
X01083D03*
X01308Y01469D03*
X01371D03*
X00488Y01515D03*
X00551D03*
G54D13*
X01075Y00704D03*
Y00421D03*
Y00468D03*
Y00515D03*
Y00562D03*
Y0061D03*
Y00657D03*
Y00751D03*
X00805Y00466D03*
Y00749D03*
Y00702D03*
Y00655D03*
Y00607D03*
Y0056D03*
Y00513D03*
Y00418D03*
X01411Y01323D03*
Y01039D03*
Y01086D03*
Y01134D03*
Y01181D03*
Y01228D03*
Y01275D03*
Y0137D03*
X00473Y01086D03*
Y0137D03*
Y01323D03*
Y01275D03*
Y01228D03*
Y01181D03*
Y01134D03*
Y01039D03*
G54D14*
X01378Y00586D03*
X00501Y00584D03*
X01714Y01205D03*
X0017D03*
G54D15*
X00919Y01175D03*
X0099D03*
G54D16*
X0074Y01309D03*
Y0138D03*
G54D17*
X0118Y01418D03*
Y01481D03*
X00755Y01548D03*
Y01611D03*
G54D18*
X01075Y0162D03*
Y0127D03*
X00855D03*
Y0162D03*
X00854Y01369D03*
X01075Y01569D03*
Y01519D03*
Y01469D03*
Y01419D03*
Y01369D03*
Y01319D03*
X00855D03*
X00854Y01419D03*
Y01469D03*
Y01519D03*
Y01569D03*
G54D19*
X00911Y0096D03*
X01088D03*
G54D20*
X0093Y01111D02*
Y01305D01*
X00885Y01111D02*
X0093D01*
X00739Y0132D02*
X00915D01*
X00803Y00607D02*
X01072D01*
X00855Y0086D02*
Y01118D01*
X00803Y00686D02*
Y00733D01*
Y00639D02*
Y00686D01*
Y00607D02*
Y00639D01*
Y00544D02*
Y00607D01*
Y00497D02*
Y00544D01*
X00735Y0161D02*
X0077D01*
X00498Y01091D02*
Y01139D01*
Y01328D02*
Y01375D01*
Y01323D02*
Y01328D01*
Y01186D02*
Y01323D01*
X0041Y00504D02*
X0062Y00295D01*
X00498Y01139D02*
Y01186D01*
X0041Y00504D02*
Y0068D01*
X01381Y01183D02*
Y01277D01*
Y01325D01*
Y01136D02*
Y01183D01*
Y01088D02*
Y01136D01*
Y00574D02*
Y01086D01*
Y01088*
X01175Y0142D02*
X0126Y01335D01*
X01065Y0142D02*
X01175D01*
X01684Y01207D02*
X01755Y01277D01*
X01684Y00244D02*
Y01207D01*
X00918Y0105D02*
X0093D01*
X01075Y0162D02*
X01157D01*
X0107D02*
X01075D01*
X01303Y01474D02*
X01304Y01475D01*
X01065Y01525D02*
X01255D01*
X01164Y01469D02*
X0118Y01485D01*
X01075Y01469D02*
X01164D01*
X01065D02*
X01075D01*
X00758Y01125D02*
X00768Y01115D01*
X00854Y01519D02*
X00909D01*
X00849D02*
X00854D01*
X00734Y01385D02*
X00749Y0137D01*
X00725D02*
Y01385D01*
X00746Y01176D02*
Y01223D01*
X00845Y00095D02*
Y00219D01*
X00839Y00225D02*
X00845Y00219D01*
X00769Y00295D02*
X00839Y00225D01*
X00578Y01091D02*
X0059Y0108D01*
X00498Y01091D02*
X00578D01*
X0062Y00295D02*
X00769D01*
X0059Y0086D02*
Y0108D01*
X00498Y01139D02*
D01*
Y01186D02*
D01*
D01*
Y01328D02*
D01*
Y01375D02*
Y01375D01*
X0041Y0068D02*
X0059Y0086D01*
X00803Y00686D02*
D01*
Y00639D02*
D01*
Y00544D02*
D01*
Y00497D02*
D01*
X01072Y00592D02*
X01075Y00595D01*
X01381Y01277D02*
D01*
Y01183D02*
D01*
Y01136D02*
D01*
Y01088D02*
D01*
X0124Y00095D02*
X0153Y0009D01*
X01684Y00244*
Y01207D02*
Y01625D01*
X01605Y01705D02*
X01684Y01625D01*
X01045Y00095D02*
Y00224D01*
X01044Y00225D02*
X01045Y00224D01*
X01044Y00225D02*
X01105D01*
X01378Y00498*
Y00571*
X01381Y00574*
X00195Y0121D02*
Y0149D01*
X005Y01795*
X0162*
X01755Y0166*
Y01277D02*
Y0166D01*
X00991Y0114D02*
D01*
X01075Y00515D02*
Y00562D01*
Y0061D02*
Y00657D01*
X00803Y01252D02*
X00825Y01274D01*
X00915Y0132D02*
X0093Y01305D01*
X00725Y01385D02*
X00734D01*
X00749Y0137D02*
X00844D01*
X00846Y01616D02*
X0085Y0162D01*
X01157D02*
X01242Y01705D01*
X01605*
X01075Y00751D02*
Y00835D01*
X0126Y01335D02*
X01371D01*
X01381Y01325*
X00695Y01425D02*
X00844D01*
X00848Y01568D02*
X00849Y01569D01*
X00551Y01515D02*
X00555D01*
X00572Y01532*
X00695Y01655*
X00909Y01519D02*
X00925Y01535D01*
X00695Y01655D02*
X00909D01*
X00925Y01639*
Y01535D02*
Y01639D01*
X00805Y00466D02*
Y00513D01*
Y00466D02*
D01*
X00748Y00421D02*
X00785D01*
X00739Y0132D02*
X00739Y01319D01*
X00715Y0138D02*
X00725Y0137D01*
X0069Y01355D02*
X00715Y0138D01*
Y01085D02*
Y01226D01*
X00498Y01375D02*
X0051D01*
X0054Y0137D02*
Y0138D01*
X00776Y01616D02*
X00846D01*
X0077Y0161D02*
X00776Y01616D01*
X0054Y0138D02*
X00695Y01535D01*
Y0157*
X00735Y0161*
X01105Y01075D02*
X0116D01*
Y00985D02*
X0117D01*
X004Y0105D02*
Y01435D01*
Y0105D02*
X00405Y01044D01*
X004Y01435D02*
X00484Y01519D01*
X00405Y01044D02*
X00498D01*
X01375Y01378D02*
X01381Y01372D01*
X01255Y01525D02*
X01304Y01475D01*
X01375Y01378D02*
Y01469D01*
X01075Y00421D02*
Y00468D01*
Y00657D02*
Y00689D01*
Y00595D02*
Y0061D01*
Y00562D02*
Y00595D01*
Y00468D02*
Y00515D01*
X0091Y00745D02*
Y00805D01*
X01084Y01274D02*
X01099D01*
X00765Y00921D02*
Y01035D01*
X00715Y01085D02*
X00765Y01035D01*
X00735Y00435D02*
X00748Y00421D01*
X00735Y00435D02*
Y00818D01*
X00765Y00848*
X00855Y0086D02*
X0091Y00805D01*
X0069Y0128D02*
Y01355D01*
Y0128D02*
X00746Y01223D01*
X00768Y01115D02*
X00803D01*
Y01252*
X00991Y0119D02*
X01053D01*
X00991D02*
D01*
X00745Y01544D02*
X00754D01*
X00778Y01568D02*
X00848D01*
X00754Y01544D02*
X00778Y01568D01*
X00977Y0119D02*
X00991D01*
Y0114D02*
Y0119D01*
Y01055D02*
Y0114D01*
X0067Y01271D02*
X00715Y01226D01*
X0067Y01271D02*
Y014D01*
X00695Y01425*
X0115Y0084D02*
Y0085D01*
X01065Y01315D02*
X0114D01*
X01225Y0123*
X0115Y0085D02*
X01225Y00925D01*
Y0123*
X0109Y01127D02*
X01125Y01162D01*
X01099Y01274D02*
X01125Y01248D01*
Y01162D02*
Y01248D01*
X01103Y00985D02*
X0117D01*
X00918Y00965D02*
Y0105D01*
G54D21*
X00845Y00095D03*
X0124D03*
X01045D03*
X0065D03*
G54D22*
X01044Y00225D03*
X00839D03*
G54D23*
X0116Y01075D03*
Y00985D03*
G54D24*
X0091Y00745D03*
X00975D03*
Y00685D03*
X0091D03*
X00975Y00555D03*
X0091D03*
X00975Y0043D03*
X0091D03*
Y0049D03*
X00975D03*
X0091Y0062D03*
X00975D03*
M02*