%FSTAX23Y23*%
%MOIN*%
%SFA1B1*%

%IPPOS*%
%ADD28R,0.045400X0.043430*%
%ADD29R,0.043430X0.045400*%
%ADD30R,0.110360X0.043430*%
%ADD31R,0.293430X0.401700*%
%ADD32R,0.053280X0.065090*%
%ADD33R,0.065090X0.053280*%
%ADD34R,0.045400X0.047370*%
%ADD35R,0.086740X0.032800*%
%ADD36R,0.067060X0.067060*%
%ADD37C,0.126110*%
%ADD38C,0.086740*%
%ADD39C,0.068000*%
%LNtea2209-1*%
%LPD*%
G54D28*
X0109Y01063D03*
Y01126D03*
X0075Y01113D03*
Y01176D03*
X00765Y00848D03*
Y00911D03*
G54D29*
X00918Y011D03*
X00981D03*
X00866Y01115D03*
X00803D03*
X00918Y01045D03*
X00981D03*
X01063Y0119D03*
X01126D03*
X01146Y00845D03*
X01083D03*
X01308Y01469D03*
X01371D03*
X00488Y01515D03*
X00551D03*
G54D30*
X01075Y00704D03*
Y00421D03*
Y00468D03*
Y00515D03*
Y00562D03*
Y0061D03*
Y00657D03*
Y00751D03*
X00805Y00466D03*
Y00749D03*
Y00702D03*
Y00655D03*
Y00607D03*
Y0056D03*
Y00513D03*
Y00418D03*
X01411Y01323D03*
Y01039D03*
Y01086D03*
Y01134D03*
Y01181D03*
Y01228D03*
Y01275D03*
Y0137D03*
X00473Y01086D03*
Y0137D03*
Y01323D03*
Y01275D03*
Y01228D03*
Y01181D03*
Y01134D03*
Y01039D03*
G54D31*
X01378Y00586D03*
X00501Y00584D03*
X01714Y01205D03*
X0017D03*
G54D32*
X00919Y01175D03*
X0099D03*
G54D33*
X0074Y01309D03*
Y0138D03*
G54D34*
X0118Y01418D03*
Y01481D03*
X00755Y01548D03*
Y01611D03*
G54D35*
X01075Y0162D03*
Y0127D03*
X00855D03*
Y0162D03*
X00854Y01369D03*
X01075Y01569D03*
Y01519D03*
Y01469D03*
Y01419D03*
Y01369D03*
Y01319D03*
X00855D03*
X00854Y01419D03*
Y01469D03*
Y01519D03*
Y01569D03*
G54D36*
X00911Y0096D03*
X01088D03*
G54D37*
X00845Y00095D03*
X0124D03*
X01045D03*
X0065D03*
G54D38*
X01044Y00225D03*
X00839D03*
G54D39*
X0116Y01075D03*
Y00985D03*
M02*