#VRML V2.0 utf8
# Dimensioned assembly envelope; see README.md.
Transform { translation 7.38188976 -3.99606299 9.54724409 children [
  Shape { appearance Appearance { material Material { diffuseColor 0.17 0.25 0.43 } }
          geometry Box { size 16.53543307 12.99212598 18.70078740 } }
] }
Transform { translation 0.00000000 0.00000000 0.13779528 rotation 1 0 0 1.57079633 children [
  Shape { appearance Appearance { material Material { diffuseColor 0.72 0.72 0.73 } }
          geometry Cylinder { radius 0.23622047 height 0.27559055 } }
] }
Transform { translation 0.00000000 -7.99212598 0.13779528 rotation 1 0 0 1.57079633 children [
  Shape { appearance Appearance { material Material { diffuseColor 0.72 0.72 0.73 } }
          geometry Cylinder { radius 0.23622047 height 0.27559055 } }
] }
Transform { translation 14.76377953 0.00000000 0.13779528 rotation 1 0 0 1.57079633 children [
  Shape { appearance Appearance { material Material { diffuseColor 0.72 0.72 0.73 } }
          geometry Cylinder { radius 0.23622047 height 0.27559055 } }
] }
Transform { translation 14.76377953 -7.99212598 0.13779528 rotation 1 0 0 1.57079633 children [
  Shape { appearance Appearance { material Material { diffuseColor 0.72 0.72 0.73 } }
          geometry Cylinder { radius 0.23622047 height 0.27559055 } }
] }
