M48
; DRILL file KiCad 10.0.4 date 2026-09-24T00:18:08
; FORMAT={-:-/ absolute / metric / decimal}
; #@! TF.CreationDate,2026-09-24T00:18:08-06:00
; #@! TF.GenerationSoftware,Kicad,Pcbnew,10.0.4
; #@! TF.FileFunction,MixedPlating,1,2
FMAT,2
METRIC
; #@! TA.AperFunction,Plated,PTH,ViaDrill
T1C0.300
; #@! TA.AperFunction,Plated,PTH,ComponentDrill
T2C0.950
; #@! TA.AperFunction,Plated,PTH,ComponentDrill
T3C1.000
%
G90
G05
T1
X13.0Y-8.0
X13.0Y-13.225
X13.0Y-26.0
X13.0Y-31.225
X21.5Y-12.175
X21.5Y-30.175
X27.0Y-8.0
X27.0Y-26.0
X33.0Y-12.0
X33.0Y-30.0
X42.5Y-9.225
X42.5Y-10.775
X42.5Y-27.225
X42.5Y-28.775
X52.0Y-12.0
X52.0Y-30.0
X55.0Y-19.0
X55.0Y-35.0
X58.0Y-11.05
X58.0Y-29.05
X58.0Y-35.0
X60.0Y-22.0
X60.5Y-13.225
X60.5Y-14.775
X60.5Y-31.225
X60.5Y-32.775
X63.0Y-19.0
X63.0Y-25.0
X64.0Y-20.0
X64.0Y-36.0
X65.5Y-22.175
X66.0Y-17.825
X70.0Y-8.0
X70.0Y-26.0
X72.0Y-14.0
X72.0Y-32.0
X72.8Y-11.05
X72.8Y-29.05
X81.5Y-9.225
X81.5Y-10.775
X81.5Y-27.225
X81.5Y-28.775
X93.0Y-29.5
X93.0Y-32.0
T2
X91.0Y-6.0
X91.0Y-8.5
X91.0Y-11.0
X91.0Y-13.5
X91.0Y-16.0
X91.0Y-18.5
T3
X6.0Y-10.0
X6.0Y-12.5
X6.0Y-28.0
X6.0Y-30.5
M30
