%TF.GenerationSoftware,KiCad,Pcbnew,10.0.4*%
%TF.CreationDate,2026-09-24T00:17:52-06:00*%
%TF.ProjectId,section,73656374-696f-46e2-9e6b-696361645f70,rev?*%
%TF.SameCoordinates,Original*%
%TF.FileFunction,Copper,L2,Bot*%
%TF.FilePolarity,Positive*%
%FSLAX45Y45*%
G04 Gerber Fmt 4.5, Leading zero omitted, Abs format (unit mm)*
G04 Created by KiCad (PCBNEW 10.0.4) date 2026-09-24 00:17:52*
%MOMM*%
%LPD*%
G01*
G04 APERTURE LIST*
G04 Aperture macros list*
%AMRoundRect*
0 Rectangle with rounded corners*
0 $1 Rounding radius*
0 $2 $3 $4 $5 $6 $7 $8 $9 X,Y pos of 4 corners*
0 Add a 4 corners polygon primitive as box body*
4,1,4,$2,$3,$4,$5,$6,$7,$8,$9,$2,$3,0*
0 Add four circle primitives for the rounded corners*
1,1,$1+$1,$2,$3*
1,1,$1+$1,$4,$5*
1,1,$1+$1,$6,$7*
1,1,$1+$1,$8,$9*
0 Add four rect primitives between the rounded corners*
20,1,$1+$1,$2,$3,$4,$5,0*
20,1,$1+$1,$4,$5,$6,$7,0*
20,1,$1+$1,$6,$7,$8,$9,0*
20,1,$1+$1,$8,$9,$2,$3,0*%
G04 Aperture macros list end*
%TA.AperFunction,ComponentPad*%
%ADD10RoundRect,0.250000X-0.750000X0.600000X-0.750000X-0.600000X0.750000X-0.600000X0.750000X0.600000X0*%
%TD*%
%TA.AperFunction,ComponentPad*%
%ADD11O,2.000000X1.700000*%
%TD*%
%TA.AperFunction,ComponentPad*%
%ADD12RoundRect,0.250000X-0.725000X0.600000X-0.725000X-0.600000X0.725000X-0.600000X0.725000X0.600000X0*%
%TD*%
%TA.AperFunction,ComponentPad*%
%ADD13O,1.950000X1.700000*%
%TD*%
%TA.AperFunction,ViaPad*%
%ADD14C,0.600000*%
%TD*%
%TA.AperFunction,Conductor*%
%ADD15C,0.300000*%
%TD*%
%TA.AperFunction,Conductor*%
%ADD16C,0.400000*%
%TD*%
%TA.AperFunction,Conductor*%
%ADD17C,0.250000*%
%TD*%
G04 APERTURE END LIST*
D10*
%TO.P,J2,1*%
%TO.N,COIL_SENSE*%
X600000Y-2800000D03*
D11*
%TO.P,J2,2*%
%TO.N,gnd*%
X600000Y-3050000D03*
%TD*%
D10*
%TO.P,J1,1*%
%TO.N,HS_SENSE*%
X600000Y-1000000D03*
D11*
%TO.P,J1,2*%
%TO.N,gnd*%
X600000Y-1250000D03*
%TD*%
D12*
%TO.P,J3,1*%
%TO.N,+3V3*%
X9100000Y-600000D03*
D13*
%TO.P,J3,2*%
%TO.N,gnd*%
X9100000Y-850000D03*
%TO.P,J3,3*%
%TO.N,HS_FAULT*%
X9100000Y-1100000D03*
%TO.P,J3,4*%
%TO.N,COIL_FAULT*%
X9100000Y-1350000D03*
%TO.P,J3,5*%
%TO.N,HS_SENSE*%
X9100000Y-1600000D03*
%TO.P,J3,6*%
%TO.N,COIL_SENSE*%
X9100000Y-1850000D03*
%TD*%
D14*
%TO.N,+3V3*%
X1300000Y-800000D03*
X1300000Y-2600000D03*
X8150000Y-1077500D03*
X4250000Y-1077500D03*
X6050000Y-3277500D03*
X6600000Y-1782500D03*
X5800000Y-2905000D03*
X2700000Y-2600000D03*
X2700000Y-800000D03*
X6050000Y-1477500D03*
X4250000Y-2877500D03*
X5800000Y-1105000D03*
X8150000Y-2877500D03*
%TO.N,gnd*%
X7200000Y-3200000D03*
X6050000Y-1322500D03*
X6550000Y-2217500D03*
X1300000Y-3122500D03*
X6050000Y-3122500D03*
X5200000Y-3000000D03*
X4250000Y-2722500D03*
X8150000Y-922500D03*
X4250000Y-922500D03*
X2150000Y-3017500D03*
X8150000Y-2722500D03*
X1300000Y-1322500D03*
X5200000Y-1200000D03*
X2150000Y-1217500D03*
X3300000Y-3000000D03*
X3300000Y-1200000D03*
X7200000Y-1400000D03*
%TO.N,HS_SENSE*%
X6300000Y-1900000D03*
X5500000Y-1900000D03*
%TO.N,COIL_SENSE*%
X9300000Y-2950000D03*
X5800000Y-3500000D03*
X9300000Y-3200000D03*
X5500000Y-3500000D03*
%TO.N,OPEN_REF*%
X6400000Y-3600000D03*
X6400000Y-2000000D03*
%TO.N,COIL_HOT*%
X6000000Y-2200000D03*
X6300000Y-2500000D03*
X7280000Y-2905000D03*
X7000000Y-2600000D03*
%TO.N,HS_HOT*%
X7000000Y-800000D03*
X7280000Y-1105000D03*
%TD*%
%TO.N,+3V3*%
D15*
X4250000Y-2877500D02*
X4700000Y-2877500D01*
X4250000Y-1077500D02*
X4700000Y-1077500D01*
X8150000Y-1077500D02*
X8300000Y-1077500D01*
X2700000Y-2600000D02*
X4700000Y-2600000D01*
X8150000Y-2877500D02*
X8300000Y-2877500D01*
X6050000Y-3277500D02*
X4700000Y-3277500D01*
D16*
X8300000Y-600000D02*
X8300000Y-2877500D01*
D15*
X1300000Y-800000D02*
X4700000Y-800000D01*
D16*
X8300000Y-200000D02*
X4700000Y-200000D01*
D15*
X5800000Y-2905000D02*
X6050000Y-3277500D01*
X6050000Y-1477500D02*
X4700000Y-1477500D01*
D16*
X9100000Y-600000D02*
X8300000Y-600000D01*
X4700000Y-200000D02*
X4700000Y-3300000D01*
D15*
X1300000Y-2600000D02*
X4700000Y-2600000D01*
X5800000Y-1105000D02*
X6050000Y-1477500D01*
X2700000Y-800000D02*
X4700000Y-800000D01*
X6600000Y-1782500D02*
X8300000Y-1782500D01*
D16*
X8300000Y-600000D02*
X8300000Y-200000D01*
%TO.N,HS_SENSE*%
D17*
X5500000Y-1900000D02*
X6300000Y-1900000D01*
%TO.N,COIL_SENSE*%
X9300000Y-3200000D02*
X9300000Y-2950000D01*
X5500000Y-3500000D02*
X5800000Y-3500000D01*
%TO.N,OPEN_REF*%
X6400000Y-2000000D02*
X6400000Y-3600000D01*
%TO.N,COIL_HOT*%
X6000000Y-2200000D02*
X6000000Y-2500000D01*
X7000000Y-2600000D02*
X7000000Y-2905000D01*
X7000000Y-2905000D02*
X7280000Y-2905000D01*
X6000000Y-2500000D02*
X6300000Y-2500000D01*
%TO.N,HS_HOT*%
X7000000Y-800000D02*
X7000000Y-1105000D01*
X7000000Y-1105000D02*
X7280000Y-1105000D01*
%TD*%
%TA.AperFunction,Conductor*%
%TO.N,gnd*%
G36*
X4644254Y-201968D02*
G01*
X4648829Y-207249D01*
X4649950Y-212400D01*
X4649950Y-742550D01*
X4647982Y-749254D01*
X4642701Y-753829D01*
X4637550Y-754950D01*
X2744993Y-754950D01*
X2738289Y-752981D01*
X2737444Y-752387D01*
X2736871Y-751947D01*
X2723179Y-744043D01*
X2723179Y-744042D01*
X2723178Y-744042D01*
X2707906Y-739950D01*
X2692094Y-739950D01*
X2676822Y-744042D01*
X2676821Y-744043D01*
X2663129Y-751947D01*
X2662556Y-752387D01*
X2656039Y-754907D01*
X2655007Y-754950D01*
X1344993Y-754950D01*
X1338289Y-752981D01*
X1337444Y-752387D01*
X1336871Y-751947D01*
X1323179Y-744043D01*
X1323179Y-744042D01*
X1323178Y-744042D01*
X1307906Y-739950D01*
X1292094Y-739950D01*
X1276822Y-744042D01*
X1276821Y-744043D01*
X1263129Y-751947D01*
X1263128Y-751948D01*
X1251948Y-763128D01*
X1251948Y-763129D01*
X1244043Y-776821D01*
X1244042Y-776822D01*
X1239950Y-792094D01*
X1239950Y-807906D01*
X1244042Y-823178D01*
X1244043Y-823179D01*
X1251948Y-836871D01*
X1251948Y-836871D01*
X1251948Y-836872D01*
X1263128Y-848052D01*
X1263129Y-848052D01*
X1263129Y-848052D01*
X1270484Y-852299D01*
X1276822Y-855958D01*
X1292094Y-860050D01*
X1292095Y-860050D01*
X1307906Y-860050D01*
X1307906Y-860050D01*
X1323178Y-855958D01*
X1336872Y-848052D01*
X1336872Y-848051D01*
X1337444Y-847612D01*
X1343961Y-845093D01*
X1344993Y-845050D01*
X2655007Y-845050D01*
X2661711Y-847018D01*
X2662556Y-847612D01*
X2663128Y-848052D01*
X2663128Y-848052D01*
X2663129Y-848052D01*
X2663129Y-848052D01*
X2670484Y-852299D01*
X2676822Y-855958D01*
X2692094Y-860050D01*
X2692095Y-860050D01*
X2707906Y-860050D01*
X2707906Y-860050D01*
X2723178Y-855958D01*
X2736872Y-848052D01*
X2736872Y-848051D01*
X2737444Y-847612D01*
X2743961Y-845093D01*
X2744993Y-845050D01*
X4637550Y-845050D01*
X4644254Y-847018D01*
X4648829Y-852299D01*
X4649950Y-857450D01*
X4649950Y-1020050D01*
X4647982Y-1026754D01*
X4642701Y-1031329D01*
X4637550Y-1032450D01*
X4294993Y-1032450D01*
X4288289Y-1030481D01*
X4287444Y-1029887D01*
X4286871Y-1029447D01*
X4273179Y-1021543D01*
X4273179Y-1021542D01*
X4273178Y-1021542D01*
X4257906Y-1017450D01*
X4242094Y-1017450D01*
X4226822Y-1021542D01*
X4226821Y-1021543D01*
X4213129Y-1029447D01*
X4213128Y-1029448D01*
X4201948Y-1040628D01*
X4201948Y-1040629D01*
X4194043Y-1054321D01*
X4194042Y-1054322D01*
X4189950Y-1069594D01*
X4189950Y-1085406D01*
X4193082Y-1097094D01*
X4194042Y-1100678D01*
X4194043Y-1100679D01*
X4201948Y-1114371D01*
X4201948Y-1114371D01*
X4201948Y-1114372D01*
X4213128Y-1125552D01*
X4213129Y-1125552D01*
X4213129Y-1125552D01*
X4222784Y-1131127D01*
X4226822Y-1133458D01*
X4242094Y-1137550D01*
X4242095Y-1137550D01*
X4257906Y-1137550D01*
X4257906Y-1137550D01*
X4273178Y-1133458D01*
X4286872Y-1125552D01*
X4286872Y-1125551D01*
X4287444Y-1125113D01*
X4293961Y-1122593D01*
X4294993Y-1122550D01*
X4637550Y-1122550D01*
X4644254Y-1124519D01*
X4648829Y-1129799D01*
X4649950Y-1134950D01*
X4649950Y-2542550D01*
X4647982Y-2549254D01*
X4642701Y-2553829D01*
X4637550Y-2554950D01*
X2744993Y-2554950D01*
X2738289Y-2552982D01*
X2737444Y-2552388D01*
X2736871Y-2551948D01*
X2723179Y-2544043D01*
X2723179Y-2544042D01*
X2723178Y-2544042D01*
X2707906Y-2539950D01*
X2692094Y-2539950D01*
X2676822Y-2544042D01*
X2676821Y-2544043D01*
X2663129Y-2551948D01*
X2662556Y-2552388D01*
X2656039Y-2554907D01*
X2655007Y-2554950D01*
X1344993Y-2554950D01*
X1338289Y-2552982D01*
X1337444Y-2552388D01*
X1336871Y-2551948D01*
X1323179Y-2544043D01*
X1323179Y-2544042D01*
X1323178Y-2544042D01*
X1307906Y-2539950D01*
X1292094Y-2539950D01*
X1276822Y-2544042D01*
X1276821Y-2544043D01*
X1263129Y-2551948D01*
X1263128Y-2551948D01*
X1251948Y-2563128D01*
X1251948Y-2563129D01*
X1244043Y-2576821D01*
X1244042Y-2576822D01*
X1239950Y-2592094D01*
X1239950Y-2607906D01*
X1244042Y-2623178D01*
X1244043Y-2623179D01*
X1251948Y-2636871D01*
X1251948Y-2636871D01*
X1251948Y-2636872D01*
X1263128Y-2648052D01*
X1263129Y-2648052D01*
X1263129Y-2648052D01*
X1270484Y-2652299D01*
X1276822Y-2655958D01*
X1292094Y-2660050D01*
X1292095Y-2660050D01*
X1307906Y-2660050D01*
X1307906Y-2660050D01*
X1323178Y-2655958D01*
X1336872Y-2648052D01*
X1336872Y-2648051D01*
X1337444Y-2647613D01*
X1343961Y-2645093D01*
X1344993Y-2645050D01*
X2655007Y-2645050D01*
X2661711Y-2647019D01*
X2662556Y-2647613D01*
X2663128Y-2648052D01*
X2663128Y-2648052D01*
X2663129Y-2648052D01*
X2663129Y-2648052D01*
X2670484Y-2652299D01*
X2676822Y-2655958D01*
X2692094Y-2660050D01*
X2692095Y-2660050D01*
X2707906Y-2660050D01*
X2707906Y-2660050D01*
X2723178Y-2655958D01*
X2736872Y-2648052D01*
X2736872Y-2648051D01*
X2737444Y-2647613D01*
X2743961Y-2645093D01*
X2744993Y-2645050D01*
X4637550Y-2645050D01*
X4644254Y-2647019D01*
X4648829Y-2652299D01*
X4649950Y-2657450D01*
X4649950Y-2820050D01*
X4647982Y-2826754D01*
X4642701Y-2831329D01*
X4637550Y-2832450D01*
X4294993Y-2832450D01*
X4288289Y-2830481D01*
X4287444Y-2829887D01*
X4286871Y-2829447D01*
X4273179Y-2821543D01*
X4273179Y-2821542D01*
X4273178Y-2821542D01*
X4257906Y-2817450D01*
X4242094Y-2817450D01*
X4226822Y-2821542D01*
X4226821Y-2821543D01*
X4213129Y-2829447D01*
X4213128Y-2829448D01*
X4201948Y-2840628D01*
X4201948Y-2840629D01*
X4194043Y-2854321D01*
X4194042Y-2854322D01*
X4189950Y-2869594D01*
X4189950Y-2885406D01*
X4193082Y-2897094D01*
X4194042Y-2900678D01*
X4194043Y-2900679D01*
X4201948Y-2914371D01*
X4201948Y-2914371D01*
X4201948Y-2914372D01*
X4213128Y-2925552D01*
X4213129Y-2925552D01*
X4213129Y-2925552D01*
X4222784Y-2931126D01*
X4226822Y-2933458D01*
X4242094Y-2937550D01*
X4242095Y-2937550D01*
X4257906Y-2937550D01*
X4257906Y-2937550D01*
X4273178Y-2933458D01*
X4286872Y-2925552D01*
X4286872Y-2925551D01*
X4287444Y-2925112D01*
X4293961Y-2922593D01*
X4294993Y-2922550D01*
X4637550Y-2922550D01*
X4644254Y-2924518D01*
X4648829Y-2929799D01*
X4649950Y-2934950D01*
X4649950Y-3306589D01*
X4653361Y-3319319D01*
X4656022Y-3323928D01*
X4659950Y-3330731D01*
X4669269Y-3340050D01*
X4680681Y-3346639D01*
X4693411Y-3350050D01*
X4693411Y-3350050D01*
X4706589Y-3350050D01*
X4706589Y-3350050D01*
X4719319Y-3346639D01*
X4730731Y-3340050D01*
X4740050Y-3330731D01*
X4741194Y-3328750D01*
X4746251Y-3323928D01*
X4751933Y-3322550D01*
X6005007Y-3322550D01*
X6011711Y-3324518D01*
X6012556Y-3325112D01*
X6013128Y-3325552D01*
X6013128Y-3325552D01*
X6013129Y-3325552D01*
X6013129Y-3325552D01*
X6022100Y-3330731D01*
X6026822Y-3333458D01*
X6042094Y-3337550D01*
X6042094Y-3337550D01*
X6057905Y-3337550D01*
X6057906Y-3337550D01*
X6073178Y-3333458D01*
X6086872Y-3325552D01*
X6098052Y-3314372D01*
X6105958Y-3300678D01*
X6110050Y-3285406D01*
X6110050Y-3269594D01*
X6105958Y-3254322D01*
X6102338Y-3248052D01*
X6098052Y-3240629D01*
X6098052Y-3240628D01*
X6086872Y-3229448D01*
X6086871Y-3229447D01*
X6073179Y-3221543D01*
X6073178Y-3221542D01*
X6069773Y-3220630D01*
X6063807Y-3216993D01*
X6062687Y-3215562D01*
X5862154Y-2916769D01*
X5860052Y-2910105D01*
X5860050Y-2909859D01*
X5860050Y-2897094D01*
X5860050Y-2897094D01*
X5855958Y-2881822D01*
X5850955Y-2873156D01*
X5848052Y-2868129D01*
X5848052Y-2868128D01*
X5836872Y-2856948D01*
X5836871Y-2856947D01*
X5823179Y-2849043D01*
X5823179Y-2849042D01*
X5823178Y-2849042D01*
X5807906Y-2844950D01*
X5792094Y-2844950D01*
X5776822Y-2849042D01*
X5776821Y-2849043D01*
X5763129Y-2856947D01*
X5763128Y-2856948D01*
X5751948Y-2868128D01*
X5751947Y-2868129D01*
X5744043Y-2881821D01*
X5744042Y-2881822D01*
X5739950Y-2897094D01*
X5739950Y-2912906D01*
X5743679Y-2926822D01*
X5744042Y-2928178D01*
X5744043Y-2928179D01*
X5751947Y-2941871D01*
X5751948Y-2941871D01*
X5751948Y-2941872D01*
X5763128Y-2953052D01*
X5763129Y-2953052D01*
X5763129Y-2953052D01*
X5776821Y-2960958D01*
X5776821Y-2960958D01*
X5777735Y-2961202D01*
X5780226Y-2961870D01*
X5786192Y-2965506D01*
X5787313Y-2966937D01*
X5917730Y-3161258D01*
X5952550Y-3213140D01*
X5954651Y-3219803D01*
X5952817Y-3226545D01*
X5947628Y-3231225D01*
X5942254Y-3232450D01*
X4762450Y-3232450D01*
X4755746Y-3230481D01*
X4751171Y-3225201D01*
X4750050Y-3220050D01*
X4750050Y-1892094D01*
X5439950Y-1892094D01*
X5439950Y-1907906D01*
X5444042Y-1923178D01*
X5444043Y-1923179D01*
X5451948Y-1936871D01*
X5451948Y-1936871D01*
X5451948Y-1936872D01*
X5463128Y-1948052D01*
X5463129Y-1948052D01*
X5463129Y-1948052D01*
X5469877Y-1951948D01*
X5476822Y-1955958D01*
X5492094Y-1960050D01*
X5492095Y-1960050D01*
X5507906Y-1960050D01*
X5507906Y-1960050D01*
X5523178Y-1955958D01*
X5536872Y-1948052D01*
X5538742Y-1946182D01*
X5544874Y-1942833D01*
X5547510Y-1942550D01*
X6252490Y-1942550D01*
X6259194Y-1944518D01*
X6261258Y-1946182D01*
X6263128Y-1948052D01*
X6263129Y-1948052D01*
X6263129Y-1948052D01*
X6269876Y-1951948D01*
X6276822Y-1955958D01*
X6292094Y-1960050D01*
X6292094Y-1960050D01*
X6307905Y-1960050D01*
X6307906Y-1960050D01*
X6323178Y-1955958D01*
X6332465Y-1950596D01*
X6339255Y-1948949D01*
X6345858Y-1951234D01*
X6350177Y-1956726D01*
X6350841Y-1963681D01*
X6349404Y-1967534D01*
X6344042Y-1976821D01*
X6344042Y-1976822D01*
X6339950Y-1992094D01*
X6339950Y-2007906D01*
X6344042Y-2023178D01*
X6344043Y-2023179D01*
X6351947Y-2036871D01*
X6351948Y-2036872D01*
X6353818Y-2038742D01*
X6357167Y-2044874D01*
X6357450Y-2047510D01*
X6357450Y-2442594D01*
X6355481Y-2449298D01*
X6350201Y-2453873D01*
X6343285Y-2454867D01*
X6337501Y-2452431D01*
X6336871Y-2451948D01*
X6323179Y-2444043D01*
X6323179Y-2444042D01*
X6323178Y-2444042D01*
X6307906Y-2439950D01*
X6292094Y-2439950D01*
X6276822Y-2444042D01*
X6276821Y-2444043D01*
X6263129Y-2451948D01*
X6263128Y-2451948D01*
X6261258Y-2453818D01*
X6255126Y-2457167D01*
X6252490Y-2457450D01*
X6054950Y-2457450D01*
X6048246Y-2455482D01*
X6043671Y-2450201D01*
X6042550Y-2445050D01*
X6042550Y-2247510D01*
X6044518Y-2240806D01*
X6046182Y-2238742D01*
X6048052Y-2236872D01*
X6055958Y-2223178D01*
X6060050Y-2207906D01*
X6060050Y-2192094D01*
X6055958Y-2176822D01*
X6055957Y-2176821D01*
X6048052Y-2163129D01*
X6048052Y-2163128D01*
X6036872Y-2151948D01*
X6036871Y-2151948D01*
X6023179Y-2144043D01*
X6023179Y-2144042D01*
X6023178Y-2144042D01*
X6007906Y-2139950D01*
X5992094Y-2139950D01*
X5976822Y-2144042D01*
X5976821Y-2144043D01*
X5963129Y-2151948D01*
X5963128Y-2151948D01*
X5951948Y-2163128D01*
X5951947Y-2163129D01*
X5944043Y-2176821D01*
X5944042Y-2176822D01*
X5939950Y-2192094D01*
X5939950Y-2207906D01*
X5944042Y-2223178D01*
X5944043Y-2223179D01*
X5951947Y-2236871D01*
X5951948Y-2236872D01*
X5953818Y-2238742D01*
X5957167Y-2244874D01*
X5957450Y-2247510D01*
X5957450Y-2494398D01*
X5957450Y-2505602D01*
X5960350Y-2516424D01*
X5965951Y-2526126D01*
X5973874Y-2534049D01*
X5983576Y-2539650D01*
X5994398Y-2542550D01*
X6252490Y-2542550D01*
X6259194Y-2544519D01*
X6261258Y-2546182D01*
X6263128Y-2548052D01*
X6263129Y-2548052D01*
X6263129Y-2548052D01*
X6271667Y-2552982D01*
X6276822Y-2555958D01*
X6292094Y-2560050D01*
X6292094Y-2560050D01*
X6307905Y-2560050D01*
X6307906Y-2560050D01*
X6323178Y-2555958D01*
X6331187Y-2551334D01*
X6336871Y-2548052D01*
X6336871Y-2548052D01*
X6336872Y-2548052D01*
X6336872Y-2548052D01*
X6337501Y-2547569D01*
X6344018Y-2545049D01*
X6350862Y-2546453D01*
X6355861Y-2551334D01*
X6357450Y-2557406D01*
X6357450Y-3552490D01*
X6355481Y-3559194D01*
X6353818Y-3561258D01*
X6351948Y-3563128D01*
X6351947Y-3563129D01*
X6344043Y-3576821D01*
X6344042Y-3576822D01*
X6339950Y-3592094D01*
X6339950Y-3607906D01*
X6344042Y-3623178D01*
X6344043Y-3623179D01*
X6351947Y-3636871D01*
X6351948Y-3636871D01*
X6351948Y-3636872D01*
X6363128Y-3648052D01*
X6363129Y-3648052D01*
X6363129Y-3648052D01*
X6376821Y-3655957D01*
X6376822Y-3655958D01*
X6392094Y-3660050D01*
X6392094Y-3660050D01*
X6407905Y-3660050D01*
X6407906Y-3660050D01*
X6423178Y-3655958D01*
X6436872Y-3648052D01*
X6448052Y-3636872D01*
X6455958Y-3623178D01*
X6460050Y-3607906D01*
X6460050Y-3592094D01*
X6455958Y-3576822D01*
X6455957Y-3576821D01*
X6448052Y-3563129D01*
X6448052Y-3563128D01*
X6446182Y-3561258D01*
X6442833Y-3555126D01*
X6442550Y-3552490D01*
X6442550Y-2592094D01*
X6939950Y-2592094D01*
X6939950Y-2607906D01*
X6944042Y-2623178D01*
X6944043Y-2623179D01*
X6951947Y-2636871D01*
X6951948Y-2636872D01*
X6953818Y-2638742D01*
X6957167Y-2644874D01*
X6957450Y-2647510D01*
X6957450Y-2899398D01*
X6957450Y-2910602D01*
X6960350Y-2921424D01*
X6965951Y-2931126D01*
X6973874Y-2939048D01*
X6983576Y-2944650D01*
X6994398Y-2947550D01*
X7232490Y-2947550D01*
X7239194Y-2949518D01*
X7241258Y-2951182D01*
X7243128Y-2953052D01*
X7243129Y-2953052D01*
X7243129Y-2953052D01*
X7251535Y-2957906D01*
X7256822Y-2960958D01*
X7272094Y-2965050D01*
X7272094Y-2965050D01*
X7287905Y-2965050D01*
X7287906Y-2965050D01*
X7303178Y-2960958D01*
X7316872Y-2953052D01*
X7327829Y-2942094D01*
X9239950Y-2942094D01*
X9239950Y-2957906D01*
X9244042Y-2973178D01*
X9244043Y-2973179D01*
X9251948Y-2986871D01*
X9251948Y-2986872D01*
X9253818Y-2988742D01*
X9257167Y-2994874D01*
X9257450Y-2997510D01*
X9257450Y-3152490D01*
X9255482Y-3159194D01*
X9253818Y-3161258D01*
X9251948Y-3163128D01*
X9251948Y-3163129D01*
X9244043Y-3176821D01*
X9244042Y-3176822D01*
X9239950Y-3192094D01*
X9239950Y-3207906D01*
X9243204Y-3220050D01*
X9244042Y-3223178D01*
X9244043Y-3223179D01*
X9251948Y-3236871D01*
X9251948Y-3236871D01*
X9251948Y-3236872D01*
X9263128Y-3248052D01*
X9263129Y-3248052D01*
X9263129Y-3248052D01*
X9276821Y-3255957D01*
X9276822Y-3255958D01*
X9292094Y-3260050D01*
X9292095Y-3260050D01*
X9307906Y-3260050D01*
X9307906Y-3260050D01*
X9323178Y-3255958D01*
X9336872Y-3248052D01*
X9348052Y-3236872D01*
X9355958Y-3223178D01*
X9360050Y-3207906D01*
X9360050Y-3192094D01*
X9355958Y-3176822D01*
X9355957Y-3176821D01*
X9348052Y-3163129D01*
X9348052Y-3163128D01*
X9346182Y-3161258D01*
X9342833Y-3155126D01*
X9342550Y-3152490D01*
X9342550Y-2997510D01*
X9344519Y-2990806D01*
X9346182Y-2988742D01*
X9348052Y-2986872D01*
X9355958Y-2973178D01*
X9360050Y-2957906D01*
X9360050Y-2942094D01*
X9355958Y-2926822D01*
X9354102Y-2923606D01*
X9348052Y-2913129D01*
X9348052Y-2913128D01*
X9336872Y-2901948D01*
X9336871Y-2901947D01*
X9323179Y-2894043D01*
X9323179Y-2894042D01*
X9323178Y-2894042D01*
X9307906Y-2889950D01*
X9292094Y-2889950D01*
X9276822Y-2894042D01*
X9276821Y-2894043D01*
X9263129Y-2901947D01*
X9263128Y-2901948D01*
X9251948Y-2913128D01*
X9251948Y-2913129D01*
X9244043Y-2926821D01*
X9244042Y-2926822D01*
X9239950Y-2942094D01*
X7327829Y-2942094D01*
X7328052Y-2941872D01*
X7335958Y-2928178D01*
X7340050Y-2912906D01*
X7340050Y-2897094D01*
X7335958Y-2881822D01*
X7330955Y-2873156D01*
X7328052Y-2868129D01*
X7328052Y-2868128D01*
X7316872Y-2856948D01*
X7316871Y-2856947D01*
X7303179Y-2849043D01*
X7303179Y-2849042D01*
X7303178Y-2849042D01*
X7287906Y-2844950D01*
X7272094Y-2844950D01*
X7256822Y-2849042D01*
X7256821Y-2849043D01*
X7243129Y-2856947D01*
X7243128Y-2856948D01*
X7241258Y-2858818D01*
X7235126Y-2862167D01*
X7232490Y-2862450D01*
X7054950Y-2862450D01*
X7048246Y-2860481D01*
X7043671Y-2855201D01*
X7042550Y-2850050D01*
X7042550Y-2647510D01*
X7044518Y-2640806D01*
X7046182Y-2638742D01*
X7048052Y-2636872D01*
X7055958Y-2623178D01*
X7060050Y-2607906D01*
X7060050Y-2592094D01*
X7055958Y-2576822D01*
X7055957Y-2576821D01*
X7048052Y-2563129D01*
X7048052Y-2563128D01*
X7036872Y-2551948D01*
X7036871Y-2551948D01*
X7023179Y-2544043D01*
X7023179Y-2544042D01*
X7023178Y-2544042D01*
X7007906Y-2539950D01*
X6992094Y-2539950D01*
X6976822Y-2544042D01*
X6976821Y-2544043D01*
X6963129Y-2551948D01*
X6963128Y-2551948D01*
X6951948Y-2563128D01*
X6951947Y-2563129D01*
X6944043Y-2576821D01*
X6944042Y-2576822D01*
X6939950Y-2592094D01*
X6442550Y-2592094D01*
X6442550Y-2047510D01*
X6444518Y-2040806D01*
X6446182Y-2038742D01*
X6448052Y-2036872D01*
X6455958Y-2023178D01*
X6460050Y-2007906D01*
X6460050Y-1992094D01*
X6455958Y-1976822D01*
X6455957Y-1976821D01*
X6448052Y-1963129D01*
X6448052Y-1963128D01*
X6436872Y-1951948D01*
X6436871Y-1951947D01*
X6423179Y-1944043D01*
X6423179Y-1944042D01*
X6423178Y-1944042D01*
X6407906Y-1939950D01*
X6392094Y-1939950D01*
X6376822Y-1944042D01*
X6376821Y-1944042D01*
X6367534Y-1949404D01*
X6360744Y-1951051D01*
X6354142Y-1948766D01*
X6349823Y-1943274D01*
X6349159Y-1936318D01*
X6350596Y-1932465D01*
X6355958Y-1923178D01*
X6360050Y-1907906D01*
X6360050Y-1892094D01*
X6355958Y-1876822D01*
X6355957Y-1876821D01*
X6348052Y-1863129D01*
X6348052Y-1863128D01*
X6336872Y-1851948D01*
X6336871Y-1851947D01*
X6323179Y-1844043D01*
X6323179Y-1844042D01*
X6323178Y-1844042D01*
X6307906Y-1839950D01*
X6292094Y-1839950D01*
X6276822Y-1844042D01*
X6276821Y-1844043D01*
X6263129Y-1851947D01*
X6263128Y-1851948D01*
X6261258Y-1853818D01*
X6255126Y-1857167D01*
X6252490Y-1857450D01*
X5547510Y-1857450D01*
X5540806Y-1855481D01*
X5538742Y-1853818D01*
X5536872Y-1851948D01*
X5536871Y-1851947D01*
X5523179Y-1844043D01*
X5523179Y-1844042D01*
X5523178Y-1844042D01*
X5507906Y-1839950D01*
X5492094Y-1839950D01*
X5476822Y-1844042D01*
X5476821Y-1844043D01*
X5463129Y-1851947D01*
X5463128Y-1851948D01*
X5451948Y-1863128D01*
X5451948Y-1863129D01*
X5444043Y-1876821D01*
X5444042Y-1876822D01*
X5439950Y-1892094D01*
X4750050Y-1892094D01*
X4750050Y-1534950D01*
X4752019Y-1528246D01*
X4757299Y-1523671D01*
X4762450Y-1522550D01*
X6005007Y-1522550D01*
X6011711Y-1524518D01*
X6012556Y-1525112D01*
X6013128Y-1525552D01*
X6013128Y-1525552D01*
X6013129Y-1525552D01*
X6013129Y-1525552D01*
X6026821Y-1533457D01*
X6026822Y-1533458D01*
X6042094Y-1537550D01*
X6042094Y-1537550D01*
X6057905Y-1537550D01*
X6057906Y-1537550D01*
X6073178Y-1533458D01*
X6086872Y-1525552D01*
X6098052Y-1514372D01*
X6105958Y-1500678D01*
X6110050Y-1485406D01*
X6110050Y-1469594D01*
X6105958Y-1454322D01*
X6102538Y-1448399D01*
X6098052Y-1440629D01*
X6098052Y-1440628D01*
X6086872Y-1429448D01*
X6086871Y-1429447D01*
X6073179Y-1421543D01*
X6073178Y-1421542D01*
X6069773Y-1420630D01*
X6063807Y-1416993D01*
X6062687Y-1415562D01*
X5862154Y-1116769D01*
X5860052Y-1110105D01*
X5860050Y-1109859D01*
X5860050Y-1097095D01*
X5860050Y-1097094D01*
X5855958Y-1081822D01*
X5850955Y-1073156D01*
X5848052Y-1068129D01*
X5848052Y-1068128D01*
X5836872Y-1056948D01*
X5836871Y-1056948D01*
X5823179Y-1049043D01*
X5823179Y-1049042D01*
X5823178Y-1049042D01*
X5807906Y-1044950D01*
X5792094Y-1044950D01*
X5776822Y-1049042D01*
X5776821Y-1049043D01*
X5763129Y-1056948D01*
X5763128Y-1056948D01*
X5751948Y-1068128D01*
X5751947Y-1068129D01*
X5744043Y-1081821D01*
X5744042Y-1081822D01*
X5739950Y-1097094D01*
X5739950Y-1112906D01*
X5743711Y-1126941D01*
X5744042Y-1128178D01*
X5744043Y-1128179D01*
X5751947Y-1141871D01*
X5751948Y-1141871D01*
X5751948Y-1141872D01*
X5763128Y-1153052D01*
X5763129Y-1153052D01*
X5763129Y-1153052D01*
X5776821Y-1160958D01*
X5776821Y-1160958D01*
X5777735Y-1161203D01*
X5780226Y-1161870D01*
X5786192Y-1165506D01*
X5787313Y-1166937D01*
X5928255Y-1376941D01*
X5952550Y-1413140D01*
X5954651Y-1419803D01*
X5952817Y-1426545D01*
X5947628Y-1431225D01*
X5942254Y-1432450D01*
X4762450Y-1432450D01*
X4755746Y-1430481D01*
X4751171Y-1425201D01*
X4750050Y-1420050D01*
X4750050Y-792094D01*
X6939950Y-792094D01*
X6939950Y-807906D01*
X6944042Y-823178D01*
X6944043Y-823179D01*
X6951947Y-836871D01*
X6951948Y-836872D01*
X6953818Y-838742D01*
X6957167Y-844874D01*
X6957450Y-847510D01*
X6957450Y-1099398D01*
X6957450Y-1110602D01*
X6960350Y-1121424D01*
X6965951Y-1131126D01*
X6973874Y-1139049D01*
X6983576Y-1144650D01*
X6994398Y-1147550D01*
X7232490Y-1147550D01*
X7239194Y-1149519D01*
X7241258Y-1151182D01*
X7243128Y-1153052D01*
X7243129Y-1153052D01*
X7243129Y-1153052D01*
X7255681Y-1160299D01*
X7256822Y-1160958D01*
X7272094Y-1165050D01*
X7272094Y-1165050D01*
X7287905Y-1165050D01*
X7287906Y-1165050D01*
X7303178Y-1160958D01*
X7316872Y-1153052D01*
X7328052Y-1141872D01*
X7335958Y-1128178D01*
X7340050Y-1112906D01*
X7340050Y-1097094D01*
X7335958Y-1081822D01*
X7330955Y-1073156D01*
X7328052Y-1068129D01*
X7328052Y-1068128D01*
X7316872Y-1056948D01*
X7316871Y-1056948D01*
X7303179Y-1049043D01*
X7303179Y-1049042D01*
X7303178Y-1049042D01*
X7287906Y-1044950D01*
X7272094Y-1044950D01*
X7256822Y-1049042D01*
X7256821Y-1049043D01*
X7243129Y-1056948D01*
X7243128Y-1056948D01*
X7241258Y-1058818D01*
X7235126Y-1062167D01*
X7232490Y-1062450D01*
X7054950Y-1062450D01*
X7048246Y-1060482D01*
X7043671Y-1055201D01*
X7042550Y-1050050D01*
X7042550Y-847510D01*
X7044518Y-840806D01*
X7046182Y-838742D01*
X7048052Y-836872D01*
X7055958Y-823178D01*
X7060050Y-807906D01*
X7060050Y-792094D01*
X7055958Y-776822D01*
X7055957Y-776821D01*
X7048052Y-763129D01*
X7048052Y-763128D01*
X7036872Y-751948D01*
X7036871Y-751947D01*
X7023179Y-744043D01*
X7023179Y-744042D01*
X7023178Y-744042D01*
X7007906Y-739950D01*
X6992094Y-739950D01*
X6976822Y-744042D01*
X6976821Y-744043D01*
X6963129Y-751947D01*
X6963128Y-751948D01*
X6951948Y-763128D01*
X6951947Y-763129D01*
X6944043Y-776821D01*
X6944042Y-776822D01*
X6939950Y-792094D01*
X4750050Y-792094D01*
X4750050Y-262450D01*
X4752019Y-255746D01*
X4757299Y-251171D01*
X4762450Y-250050D01*
X8237550Y-250050D01*
X8244254Y-252018D01*
X8248829Y-257299D01*
X8249950Y-262450D01*
X8249950Y-1020050D01*
X8247981Y-1026754D01*
X8242701Y-1031329D01*
X8237550Y-1032450D01*
X8194993Y-1032450D01*
X8188289Y-1030481D01*
X8187444Y-1029887D01*
X8186871Y-1029447D01*
X8173179Y-1021543D01*
X8173179Y-1021542D01*
X8173178Y-1021542D01*
X8157906Y-1017450D01*
X8142094Y-1017450D01*
X8126822Y-1021542D01*
X8126821Y-1021543D01*
X8113129Y-1029447D01*
X8113128Y-1029448D01*
X8101948Y-1040628D01*
X8101947Y-1040629D01*
X8094043Y-1054321D01*
X8094042Y-1054322D01*
X8089950Y-1069594D01*
X8089950Y-1085406D01*
X8093082Y-1097094D01*
X8094042Y-1100678D01*
X8094043Y-1100679D01*
X8101947Y-1114371D01*
X8101948Y-1114371D01*
X8101948Y-1114372D01*
X8113128Y-1125552D01*
X8113129Y-1125552D01*
X8113129Y-1125552D01*
X8122784Y-1131127D01*
X8126822Y-1133458D01*
X8142094Y-1137550D01*
X8142094Y-1137550D01*
X8157905Y-1137550D01*
X8157906Y-1137550D01*
X8173178Y-1133458D01*
X8186872Y-1125552D01*
X8186872Y-1125551D01*
X8187444Y-1125113D01*
X8193961Y-1122593D01*
X8194993Y-1122550D01*
X8237550Y-1122550D01*
X8244254Y-1124519D01*
X8248829Y-1129799D01*
X8249950Y-1134950D01*
X8249950Y-1725050D01*
X8247981Y-1731754D01*
X8242701Y-1736329D01*
X8237550Y-1737450D01*
X6644993Y-1737450D01*
X6638289Y-1735481D01*
X6637444Y-1734887D01*
X6636871Y-1734447D01*
X6623179Y-1726543D01*
X6623179Y-1726542D01*
X6623178Y-1726542D01*
X6607906Y-1722450D01*
X6592094Y-1722450D01*
X6576822Y-1726542D01*
X6576821Y-1726543D01*
X6563129Y-1734447D01*
X6563128Y-1734448D01*
X6551948Y-1745628D01*
X6551947Y-1745629D01*
X6544043Y-1759321D01*
X6544042Y-1759322D01*
X6539950Y-1774594D01*
X6539950Y-1790406D01*
X6544042Y-1805678D01*
X6544043Y-1805679D01*
X6551947Y-1819371D01*
X6551948Y-1819371D01*
X6551948Y-1819372D01*
X6563128Y-1830552D01*
X6563129Y-1830552D01*
X6563129Y-1830552D01*
X6570484Y-1834799D01*
X6576822Y-1838458D01*
X6592094Y-1842550D01*
X6592094Y-1842550D01*
X6607905Y-1842550D01*
X6607906Y-1842550D01*
X6623178Y-1838458D01*
X6636872Y-1830552D01*
X6636872Y-1830551D01*
X6637444Y-1830112D01*
X6643961Y-1827593D01*
X6644993Y-1827550D01*
X8237550Y-1827550D01*
X8244254Y-1829518D01*
X8248829Y-1834799D01*
X8249950Y-1839950D01*
X8249950Y-2820050D01*
X8247981Y-2826754D01*
X8242701Y-2831329D01*
X8237550Y-2832450D01*
X8194993Y-2832450D01*
X8188289Y-2830481D01*
X8187444Y-2829887D01*
X8186871Y-2829447D01*
X8173179Y-2821543D01*
X8173179Y-2821542D01*
X8173178Y-2821542D01*
X8157906Y-2817450D01*
X8142094Y-2817450D01*
X8126822Y-2821542D01*
X8126821Y-2821543D01*
X8113129Y-2829447D01*
X8113128Y-2829448D01*
X8101948Y-2840628D01*
X8101947Y-2840629D01*
X8094043Y-2854321D01*
X8094042Y-2854322D01*
X8089950Y-2869594D01*
X8089950Y-2885406D01*
X8093082Y-2897094D01*
X8094042Y-2900678D01*
X8094043Y-2900679D01*
X8101947Y-2914371D01*
X8101948Y-2914371D01*
X8101948Y-2914372D01*
X8113128Y-2925552D01*
X8113129Y-2925552D01*
X8113129Y-2925552D01*
X8122784Y-2931126D01*
X8126822Y-2933458D01*
X8142094Y-2937550D01*
X8142094Y-2937550D01*
X8157905Y-2937550D01*
X8157906Y-2937550D01*
X8173178Y-2933458D01*
X8186872Y-2925552D01*
X8187349Y-2925075D01*
X8188619Y-2924313D01*
X8191339Y-2923606D01*
X8193961Y-2922593D01*
X8194993Y-2922550D01*
X8274606Y-2922550D01*
X8279875Y-2923962D01*
X8279930Y-2923828D01*
X8280681Y-2924139D01*
X8280681Y-2924139D01*
X8293411Y-2927550D01*
X8293411Y-2927550D01*
X8306589Y-2927550D01*
X8306589Y-2927550D01*
X8319319Y-2924139D01*
X8330731Y-2917550D01*
X8340050Y-2908231D01*
X8346639Y-2896819D01*
X8350050Y-2884089D01*
X8350050Y-1090945D01*
X8972450Y-1090945D01*
X8972450Y-1109055D01*
X8975283Y-1126941D01*
X8980879Y-1144164D01*
X8980879Y-1144164D01*
X8989101Y-1160300D01*
X8999744Y-1174949D01*
X8999745Y-1174950D01*
X9012550Y-1187755D01*
X9012551Y-1187756D01*
X9025329Y-1197040D01*
X9027201Y-1198400D01*
X9037748Y-1203774D01*
X9043336Y-1206621D01*
X9043336Y-1206621D01*
X9051948Y-1209419D01*
X9060559Y-1212217D01*
X9063029Y-1212608D01*
X9063941Y-1212753D01*
X9070254Y-1215746D01*
X9073947Y-1221677D01*
X9073847Y-1228663D01*
X9069986Y-1234486D01*
X9063941Y-1237247D01*
X9060559Y-1237783D01*
X9043336Y-1243379D01*
X9043336Y-1243379D01*
X9027200Y-1251601D01*
X9012551Y-1262244D01*
X9012550Y-1262245D01*
X8999745Y-1275050D01*
X8999744Y-1275051D01*
X8989101Y-1289700D01*
X8980879Y-1305836D01*
X8980879Y-1305836D01*
X8975283Y-1323059D01*
X8972450Y-1340945D01*
X8972450Y-1359055D01*
X8975283Y-1376941D01*
X8980879Y-1394164D01*
X8980879Y-1394164D01*
X8989101Y-1410300D01*
X8999744Y-1424949D01*
X8999745Y-1424950D01*
X9012550Y-1437755D01*
X9012551Y-1437756D01*
X9016505Y-1440629D01*
X9027201Y-1448400D01*
X9037748Y-1453774D01*
X9043336Y-1456621D01*
X9043336Y-1456621D01*
X9051948Y-1459419D01*
X9060559Y-1462217D01*
X9063029Y-1462608D01*
X9063941Y-1462753D01*
X9070254Y-1465746D01*
X9073947Y-1471677D01*
X9073847Y-1478663D01*
X9069986Y-1484486D01*
X9063941Y-1487247D01*
X9060559Y-1487783D01*
X9043336Y-1493379D01*
X9043336Y-1493379D01*
X9027200Y-1501601D01*
X9012551Y-1512244D01*
X9012550Y-1512244D01*
X8999745Y-1525050D01*
X8999744Y-1525050D01*
X8989101Y-1539700D01*
X8980879Y-1555836D01*
X8980879Y-1555836D01*
X8975283Y-1573059D01*
X8972450Y-1590945D01*
X8972450Y-1609055D01*
X8975283Y-1626941D01*
X8980879Y-1644164D01*
X8980879Y-1644164D01*
X8989101Y-1660300D01*
X8999744Y-1674949D01*
X8999745Y-1674950D01*
X9012550Y-1687755D01*
X9012551Y-1687756D01*
X9025329Y-1697040D01*
X9027201Y-1698400D01*
X9037748Y-1703774D01*
X9043336Y-1706621D01*
X9043336Y-1706621D01*
X9051948Y-1709419D01*
X9060559Y-1712217D01*
X9063029Y-1712608D01*
X9063941Y-1712753D01*
X9070254Y-1715746D01*
X9073947Y-1721677D01*
X9073847Y-1728663D01*
X9069986Y-1734486D01*
X9063941Y-1737247D01*
X9060559Y-1737783D01*
X9043336Y-1743379D01*
X9043336Y-1743379D01*
X9027200Y-1751601D01*
X9012551Y-1762244D01*
X9012550Y-1762244D01*
X8999745Y-1775050D01*
X8999744Y-1775050D01*
X8989101Y-1789700D01*
X8980879Y-1805836D01*
X8980879Y-1805836D01*
X8975283Y-1823059D01*
X8972450Y-1840945D01*
X8972450Y-1859055D01*
X8975283Y-1876941D01*
X8980879Y-1894164D01*
X8980879Y-1894164D01*
X8986466Y-1905130D01*
X8987881Y-1907906D01*
X8989101Y-1910300D01*
X8999744Y-1924949D01*
X8999745Y-1924950D01*
X9012550Y-1937755D01*
X9012551Y-1937756D01*
X9021859Y-1944518D01*
X9027201Y-1948400D01*
X9034165Y-1951948D01*
X9043336Y-1956621D01*
X9043336Y-1956621D01*
X9051948Y-1959419D01*
X9060559Y-1962217D01*
X9068843Y-1963529D01*
X9078445Y-1965050D01*
X9078445Y-1965050D01*
X9121555Y-1965050D01*
X9130226Y-1963676D01*
X9139441Y-1962217D01*
X9156664Y-1956621D01*
X9172799Y-1948400D01*
X9187450Y-1937755D01*
X9200255Y-1924950D01*
X9210900Y-1910299D01*
X9219121Y-1894164D01*
X9224717Y-1876941D01*
X9226905Y-1863128D01*
X9227550Y-1859055D01*
X9227550Y-1840945D01*
X9225428Y-1827550D01*
X9224717Y-1823059D01*
X9219121Y-1805836D01*
X9219121Y-1805836D01*
X9216274Y-1800248D01*
X9210900Y-1789701D01*
X9209540Y-1787829D01*
X9200256Y-1775050D01*
X9200255Y-1775050D01*
X9187450Y-1762244D01*
X9187449Y-1762244D01*
X9172800Y-1751601D01*
X9172800Y-1751600D01*
X9172799Y-1751600D01*
X9167630Y-1748966D01*
X9156664Y-1743379D01*
X9156664Y-1743379D01*
X9139441Y-1737783D01*
X9136059Y-1737247D01*
X9129746Y-1734254D01*
X9126053Y-1728323D01*
X9126153Y-1721337D01*
X9130014Y-1715514D01*
X9136059Y-1712753D01*
X9136839Y-1712629D01*
X9139441Y-1712217D01*
X9156664Y-1706621D01*
X9172799Y-1698400D01*
X9187450Y-1687755D01*
X9200255Y-1674950D01*
X9210900Y-1660299D01*
X9219121Y-1644164D01*
X9224717Y-1626941D01*
X9226177Y-1617726D01*
X9227550Y-1609055D01*
X9227550Y-1590945D01*
X9225902Y-1580540D01*
X9224717Y-1573059D01*
X9219121Y-1555836D01*
X9219121Y-1555836D01*
X9216274Y-1550248D01*
X9210900Y-1539701D01*
X9200620Y-1525552D01*
X9200256Y-1525050D01*
X9200255Y-1525050D01*
X9187450Y-1512244D01*
X9187449Y-1512244D01*
X9172800Y-1501601D01*
X9172800Y-1501600D01*
X9172799Y-1501600D01*
X9167630Y-1498966D01*
X9156664Y-1493379D01*
X9156664Y-1493379D01*
X9139441Y-1487783D01*
X9136059Y-1487247D01*
X9129746Y-1484254D01*
X9126053Y-1478323D01*
X9126153Y-1471337D01*
X9130014Y-1465514D01*
X9136059Y-1462753D01*
X9136839Y-1462629D01*
X9139441Y-1462217D01*
X9156664Y-1456621D01*
X9172799Y-1448400D01*
X9187450Y-1437755D01*
X9200255Y-1424950D01*
X9210900Y-1410299D01*
X9219121Y-1394164D01*
X9224717Y-1376941D01*
X9226177Y-1367726D01*
X9227550Y-1359055D01*
X9227550Y-1340945D01*
X9225902Y-1330540D01*
X9224717Y-1323059D01*
X9219121Y-1305836D01*
X9219121Y-1305836D01*
X9216274Y-1300248D01*
X9210900Y-1289701D01*
X9209540Y-1287829D01*
X9200256Y-1275051D01*
X9200255Y-1275050D01*
X9187450Y-1262245D01*
X9187449Y-1262244D01*
X9172800Y-1251601D01*
X9172800Y-1251601D01*
X9172799Y-1251600D01*
X9167630Y-1248966D01*
X9156664Y-1243379D01*
X9156664Y-1243379D01*
X9139441Y-1237783D01*
X9136059Y-1237247D01*
X9129746Y-1234254D01*
X9126053Y-1228323D01*
X9126153Y-1221337D01*
X9130014Y-1215514D01*
X9136059Y-1212753D01*
X9136839Y-1212629D01*
X9139441Y-1212217D01*
X9156664Y-1206621D01*
X9172799Y-1198400D01*
X9187450Y-1187755D01*
X9200255Y-1174950D01*
X9210900Y-1160299D01*
X9219121Y-1144164D01*
X9224717Y-1126941D01*
X9226328Y-1116769D01*
X9227550Y-1109055D01*
X9227550Y-1090945D01*
X9225902Y-1080540D01*
X9224717Y-1073059D01*
X9219121Y-1055836D01*
X9219121Y-1055836D01*
X9211372Y-1040628D01*
X9210900Y-1039701D01*
X9203451Y-1029448D01*
X9200256Y-1025050D01*
X9200255Y-1025050D01*
X9187450Y-1012244D01*
X9187449Y-1012244D01*
X9172800Y-1001601D01*
X9172800Y-1001600D01*
X9172799Y-1001600D01*
X9167630Y-998966D01*
X9156664Y-993379D01*
X9156664Y-993379D01*
X9139441Y-987783D01*
X9121555Y-984950D01*
X9121555Y-984950D01*
X9078445Y-984950D01*
X9078445Y-984950D01*
X9060559Y-987783D01*
X9043336Y-993379D01*
X9043336Y-993379D01*
X9027200Y-1001601D01*
X9012551Y-1012244D01*
X9012550Y-1012244D01*
X8999745Y-1025050D01*
X8999744Y-1025050D01*
X8989101Y-1039700D01*
X8980879Y-1055836D01*
X8980879Y-1055836D01*
X8975283Y-1073059D01*
X8972450Y-1090945D01*
X8350050Y-1090945D01*
X8350050Y-662450D01*
X8352018Y-655746D01*
X8357299Y-651171D01*
X8362450Y-650050D01*
X8960050Y-650050D01*
X8966754Y-652019D01*
X8971329Y-657299D01*
X8972450Y-662450D01*
X8972450Y-664310D01*
X8973013Y-668995D01*
X8973512Y-673156D01*
X8979064Y-687234D01*
X8988208Y-699292D01*
X9000266Y-708436D01*
X9000266Y-708436D01*
X9000266Y-708436D01*
X9014344Y-713988D01*
X9023190Y-715050D01*
X9023190Y-715050D01*
X9176810Y-715050D01*
X9176810Y-715050D01*
X9185656Y-713988D01*
X9199734Y-708436D01*
X9211792Y-699292D01*
X9220936Y-687234D01*
X9226488Y-673156D01*
X9227550Y-664310D01*
X9227550Y-535690D01*
X9226488Y-526844D01*
X9220936Y-512766D01*
X9220936Y-512766D01*
X9220936Y-512766D01*
X9211792Y-500708D01*
X9199734Y-491564D01*
X9185656Y-486012D01*
X9181093Y-485464D01*
X9176810Y-484950D01*
X9023190Y-484950D01*
X9019285Y-485419D01*
X9014344Y-486012D01*
X9000266Y-491564D01*
X8988208Y-500708D01*
X8979064Y-512766D01*
X8973512Y-526844D01*
X8972919Y-531785D01*
X8972450Y-535690D01*
X8972450Y-535690D01*
X8972450Y-537550D01*
X8970482Y-544254D01*
X8965201Y-548829D01*
X8960050Y-549950D01*
X8362450Y-549950D01*
X8355746Y-547982D01*
X8351171Y-542701D01*
X8350050Y-537550D01*
X8350050Y-212400D01*
X8352018Y-205696D01*
X8357299Y-201121D01*
X8362450Y-200000D01*
X9787600Y-200000D01*
X9794304Y-201968D01*
X9798879Y-207249D01*
X9800000Y-212400D01*
X9800000Y-4287600D01*
X9798032Y-4294304D01*
X9792751Y-4298879D01*
X9787600Y-4300000D01*
X212400Y-4300000D01*
X205696Y-4298032D01*
X201121Y-4292751D01*
X200000Y-4287600D01*
X200000Y-3492094D01*
X5439950Y-3492094D01*
X5439950Y-3507906D01*
X5444042Y-3523178D01*
X5444043Y-3523179D01*
X5451948Y-3536871D01*
X5451948Y-3536871D01*
X5451948Y-3536872D01*
X5463128Y-3548052D01*
X5463129Y-3548052D01*
X5463129Y-3548052D01*
X5475381Y-3555126D01*
X5476822Y-3555958D01*
X5492094Y-3560050D01*
X5492095Y-3560050D01*
X5507906Y-3560050D01*
X5507906Y-3560050D01*
X5523178Y-3555958D01*
X5536872Y-3548052D01*
X5538742Y-3546182D01*
X5544874Y-3542833D01*
X5547510Y-3542550D01*
X5752490Y-3542550D01*
X5759194Y-3544518D01*
X5761258Y-3546182D01*
X5763128Y-3548052D01*
X5763129Y-3548052D01*
X5763129Y-3548052D01*
X5775381Y-3555126D01*
X5776822Y-3555958D01*
X5792094Y-3560050D01*
X5792094Y-3560050D01*
X5807905Y-3560050D01*
X5807906Y-3560050D01*
X5823178Y-3555958D01*
X5836872Y-3548052D01*
X5848052Y-3536872D01*
X5855958Y-3523178D01*
X5860050Y-3507906D01*
X5860050Y-3492094D01*
X5855958Y-3476822D01*
X5855957Y-3476821D01*
X5848052Y-3463129D01*
X5848052Y-3463128D01*
X5836872Y-3451948D01*
X5836871Y-3451947D01*
X5823179Y-3444043D01*
X5823179Y-3444042D01*
X5823178Y-3444042D01*
X5807906Y-3439950D01*
X5792094Y-3439950D01*
X5776822Y-3444042D01*
X5776821Y-3444043D01*
X5763129Y-3451947D01*
X5763128Y-3451948D01*
X5761258Y-3453818D01*
X5755126Y-3457167D01*
X5752490Y-3457450D01*
X5547510Y-3457450D01*
X5540806Y-3455481D01*
X5538742Y-3453818D01*
X5536872Y-3451948D01*
X5536871Y-3451947D01*
X5523179Y-3444043D01*
X5523179Y-3444042D01*
X5523178Y-3444042D01*
X5507906Y-3439950D01*
X5492094Y-3439950D01*
X5476822Y-3444042D01*
X5476821Y-3444043D01*
X5463129Y-3451947D01*
X5463128Y-3451948D01*
X5451948Y-3463128D01*
X5451948Y-3463129D01*
X5444043Y-3476821D01*
X5444042Y-3476822D01*
X5439950Y-3492094D01*
X200000Y-3492094D01*
X200000Y-2735690D01*
X469950Y-2735690D01*
X469950Y-2864310D01*
X470408Y-2868128D01*
X471012Y-2873156D01*
X476564Y-2887234D01*
X485708Y-2899292D01*
X497766Y-2908436D01*
X497766Y-2908436D01*
X497766Y-2908436D01*
X511844Y-2913988D01*
X520690Y-2915050D01*
X520690Y-2915050D01*
X679310Y-2915050D01*
X679310Y-2915050D01*
X688156Y-2913988D01*
X702234Y-2908436D01*
X714292Y-2899292D01*
X723436Y-2887234D01*
X728988Y-2873156D01*
X730050Y-2864310D01*
X730050Y-2735690D01*
X728988Y-2726844D01*
X723436Y-2712766D01*
X723436Y-2712766D01*
X723436Y-2712766D01*
X714292Y-2700708D01*
X702234Y-2691564D01*
X688156Y-2686012D01*
X683593Y-2685464D01*
X679310Y-2684950D01*
X520690Y-2684950D01*
X516785Y-2685419D01*
X511844Y-2686012D01*
X497766Y-2691564D01*
X485708Y-2700708D01*
X476564Y-2712766D01*
X471012Y-2726844D01*
X470419Y-2731785D01*
X469950Y-2735690D01*
X200000Y-2735690D01*
X200000Y-935690D01*
X469950Y-935690D01*
X469950Y-1064310D01*
X470408Y-1068128D01*
X471012Y-1073156D01*
X476564Y-1087234D01*
X485708Y-1099292D01*
X497766Y-1108436D01*
X497766Y-1108436D01*
X497766Y-1108436D01*
X511844Y-1113988D01*
X520690Y-1115050D01*
X520690Y-1115050D01*
X679310Y-1115050D01*
X679310Y-1115050D01*
X688156Y-1113988D01*
X702234Y-1108436D01*
X714292Y-1099292D01*
X723436Y-1087234D01*
X728988Y-1073156D01*
X730050Y-1064310D01*
X730050Y-935690D01*
X728988Y-926844D01*
X723436Y-912766D01*
X723436Y-912766D01*
X723436Y-912766D01*
X714292Y-900708D01*
X702234Y-891564D01*
X688156Y-886012D01*
X683593Y-885464D01*
X679310Y-884950D01*
X520690Y-884950D01*
X516785Y-885419D01*
X511844Y-886012D01*
X497766Y-891564D01*
X485708Y-900708D01*
X476564Y-912766D01*
X471012Y-926844D01*
X470419Y-931785D01*
X469950Y-935690D01*
X200000Y-935690D01*
X200000Y-212400D01*
X201968Y-205696D01*
X207249Y-201121D01*
X212400Y-200000D01*
X4637550Y-200000D01*
X4644254Y-201968D01*
G37*
%TD.AperFunction*%
%TD*%
M02*
