%TF.GenerationSoftware,KiCad,Pcbnew,10.0.4*%
%TF.CreationDate,2026-09-24T00:17:52-06:00*%
%TF.ProjectId,section,73656374-696f-46e2-9e6b-696361645f70,rev?*%
%TF.SameCoordinates,Original*%
%TF.FileFunction,AssemblyDrawing,Top*%
%FSLAX45Y45*%
G04 Gerber Fmt 4.5, Leading zero omitted, Abs format (unit mm)*
G04 Created by KiCad (PCBNEW 10.0.4) date 2026-09-24 00:17:52*
%MOMM*%
%LPD*%
G01*
G04 APERTURE LIST*
%ADD10C,0.060000*%
%ADD11C,0.110000*%
%ADD12C,0.150000*%
%ADD13C,0.100000*%
G04 APERTURE END LIST*
D10*
X4114383Y-2806667D02*
X4116288Y-2808571D01*
X4116288Y-2808571D02*
X4118193Y-2814286D01*
X4118193Y-2814286D02*
X4118193Y-2818095D01*
X4118193Y-2818095D02*
X4116288Y-2823809D01*
X4116288Y-2823809D02*
X4112478Y-2827619D01*
X4112478Y-2827619D02*
X4108669Y-2829524D01*
X4108669Y-2829524D02*
X4101050Y-2831428D01*
X4101050Y-2831428D02*
X4095336Y-2831428D01*
X4095336Y-2831428D02*
X4087716Y-2829524D01*
X4087716Y-2829524D02*
X4083907Y-2827619D01*
X4083907Y-2827619D02*
X4080097Y-2823809D01*
X4080097Y-2823809D02*
X4078193Y-2818095D01*
X4078193Y-2818095D02*
X4078193Y-2814286D01*
X4078193Y-2814286D02*
X4080097Y-2808571D01*
X4080097Y-2808571D02*
X4082002Y-2806667D01*
X4091526Y-2772381D02*
X4118193Y-2772381D01*
X4076288Y-2781905D02*
X4104859Y-2791429D01*
X4104859Y-2791429D02*
X4104859Y-2766667D01*
X5914383Y-1406667D02*
X5916288Y-1408571D01*
X5916288Y-1408571D02*
X5918193Y-1414286D01*
X5918193Y-1414286D02*
X5918193Y-1418095D01*
X5918193Y-1418095D02*
X5916288Y-1423809D01*
X5916288Y-1423809D02*
X5912478Y-1427619D01*
X5912478Y-1427619D02*
X5908669Y-1429524D01*
X5908669Y-1429524D02*
X5901050Y-1431428D01*
X5901050Y-1431428D02*
X5895336Y-1431428D01*
X5895336Y-1431428D02*
X5887716Y-1429524D01*
X5887716Y-1429524D02*
X5883907Y-1427619D01*
X5883907Y-1427619D02*
X5880097Y-1423809D01*
X5880097Y-1423809D02*
X5878193Y-1418095D01*
X5878193Y-1418095D02*
X5878193Y-1414286D01*
X5878193Y-1414286D02*
X5880097Y-1408571D01*
X5880097Y-1408571D02*
X5882002Y-1406667D01*
X5878193Y-1370476D02*
X5878193Y-1389524D01*
X5878193Y-1389524D02*
X5897240Y-1391429D01*
X5897240Y-1391429D02*
X5895336Y-1389524D01*
X5895336Y-1389524D02*
X5893431Y-1385714D01*
X5893431Y-1385714D02*
X5893431Y-1376190D01*
X5893431Y-1376190D02*
X5895336Y-1372381D01*
X5895336Y-1372381D02*
X5897240Y-1370476D01*
X5897240Y-1370476D02*
X5901050Y-1368571D01*
X5901050Y-1368571D02*
X5910574Y-1368571D01*
X5910574Y-1368571D02*
X5914383Y-1370476D01*
X5914383Y-1370476D02*
X5916288Y-1372381D01*
X5916288Y-1372381D02*
X5918193Y-1376190D01*
X5918193Y-1376190D02*
X5918193Y-1385714D01*
X5918193Y-1385714D02*
X5916288Y-1389524D01*
X5916288Y-1389524D02*
X5914383Y-1391429D01*
X4114383Y-1006667D02*
X4116288Y-1008571D01*
X4116288Y-1008571D02*
X4118193Y-1014286D01*
X4118193Y-1014286D02*
X4118193Y-1018095D01*
X4118193Y-1018095D02*
X4116288Y-1023809D01*
X4116288Y-1023809D02*
X4112478Y-1027619D01*
X4112478Y-1027619D02*
X4108669Y-1029524D01*
X4108669Y-1029524D02*
X4101050Y-1031428D01*
X4101050Y-1031428D02*
X4095336Y-1031428D01*
X4095336Y-1031428D02*
X4087716Y-1029524D01*
X4087716Y-1029524D02*
X4083907Y-1027619D01*
X4083907Y-1027619D02*
X4080097Y-1023809D01*
X4080097Y-1023809D02*
X4078193Y-1018095D01*
X4078193Y-1018095D02*
X4078193Y-1014286D01*
X4078193Y-1014286D02*
X4080097Y-1008571D01*
X4080097Y-1008571D02*
X4082002Y-1006667D01*
X4082002Y-991428D02*
X4080097Y-989524D01*
X4080097Y-989524D02*
X4078193Y-985714D01*
X4078193Y-985714D02*
X4078193Y-976190D01*
X4078193Y-976190D02*
X4080097Y-972381D01*
X4080097Y-972381D02*
X4082002Y-970476D01*
X4082002Y-970476D02*
X4085812Y-968571D01*
X4085812Y-968571D02*
X4089621Y-968571D01*
X4089621Y-968571D02*
X4095336Y-970476D01*
X4095336Y-970476D02*
X4118193Y-993333D01*
X4118193Y-993333D02*
X4118193Y-968571D01*
X2718193Y-2406667D02*
X2699145Y-2420000D01*
X2718193Y-2429524D02*
X2678193Y-2429524D01*
X2678193Y-2429524D02*
X2678193Y-2414286D01*
X2678193Y-2414286D02*
X2680098Y-2410476D01*
X2680098Y-2410476D02*
X2682002Y-2408571D01*
X2682002Y-2408571D02*
X2685812Y-2406667D01*
X2685812Y-2406667D02*
X2691526Y-2406667D01*
X2691526Y-2406667D02*
X2695336Y-2408571D01*
X2695336Y-2408571D02*
X2697240Y-2410476D01*
X2697240Y-2410476D02*
X2699145Y-2414286D01*
X2699145Y-2414286D02*
X2699145Y-2429524D01*
X2678193Y-2372381D02*
X2678193Y-2380000D01*
X2678193Y-2380000D02*
X2680098Y-2383810D01*
X2680098Y-2383810D02*
X2682002Y-2385714D01*
X2682002Y-2385714D02*
X2687717Y-2389524D01*
X2687717Y-2389524D02*
X2695336Y-2391429D01*
X2695336Y-2391429D02*
X2710574Y-2391429D01*
X2710574Y-2391429D02*
X2714383Y-2389524D01*
X2714383Y-2389524D02*
X2716288Y-2387619D01*
X2716288Y-2387619D02*
X2718193Y-2383810D01*
X2718193Y-2383810D02*
X2718193Y-2376190D01*
X2718193Y-2376190D02*
X2716288Y-2372381D01*
X2716288Y-2372381D02*
X2714383Y-2370476D01*
X2714383Y-2370476D02*
X2710574Y-2368571D01*
X2710574Y-2368571D02*
X2701050Y-2368571D01*
X2701050Y-2368571D02*
X2697240Y-2370476D01*
X2697240Y-2370476D02*
X2695336Y-2372381D01*
X2695336Y-2372381D02*
X2693431Y-2376190D01*
X2693431Y-2376190D02*
X2693431Y-2383810D01*
X2693431Y-2383810D02*
X2695336Y-2387619D01*
X2695336Y-2387619D02*
X2697240Y-2389524D01*
X2697240Y-2389524D02*
X2701050Y-2391429D01*
X8014383Y-1006667D02*
X8016288Y-1008571D01*
X8016288Y-1008571D02*
X8018193Y-1014286D01*
X8018193Y-1014286D02*
X8018193Y-1018095D01*
X8018193Y-1018095D02*
X8016288Y-1023809D01*
X8016288Y-1023809D02*
X8012478Y-1027619D01*
X8012478Y-1027619D02*
X8008669Y-1029524D01*
X8008669Y-1029524D02*
X8001050Y-1031428D01*
X8001050Y-1031428D02*
X7995336Y-1031428D01*
X7995336Y-1031428D02*
X7987716Y-1029524D01*
X7987716Y-1029524D02*
X7983907Y-1027619D01*
X7983907Y-1027619D02*
X7980097Y-1023809D01*
X7980097Y-1023809D02*
X7978193Y-1018095D01*
X7978193Y-1018095D02*
X7978193Y-1014286D01*
X7978193Y-1014286D02*
X7980097Y-1008571D01*
X7980097Y-1008571D02*
X7982002Y-1006667D01*
X7978193Y-993333D02*
X7978193Y-966667D01*
X7978193Y-966667D02*
X8018193Y-983809D01*
X8014383Y-2806667D02*
X8016288Y-2808571D01*
X8016288Y-2808571D02*
X8018193Y-2814286D01*
X8018193Y-2814286D02*
X8018193Y-2818095D01*
X8018193Y-2818095D02*
X8016288Y-2823809D01*
X8016288Y-2823809D02*
X8012478Y-2827619D01*
X8012478Y-2827619D02*
X8008669Y-2829524D01*
X8008669Y-2829524D02*
X8001050Y-2831428D01*
X8001050Y-2831428D02*
X7995336Y-2831428D01*
X7995336Y-2831428D02*
X7987716Y-2829524D01*
X7987716Y-2829524D02*
X7983907Y-2827619D01*
X7983907Y-2827619D02*
X7980097Y-2823809D01*
X7980097Y-2823809D02*
X7978193Y-2818095D01*
X7978193Y-2818095D02*
X7978193Y-2814286D01*
X7978193Y-2814286D02*
X7980097Y-2808571D01*
X7980097Y-2808571D02*
X7982002Y-2806667D01*
X7995336Y-2783810D02*
X7993431Y-2787619D01*
X7993431Y-2787619D02*
X7991526Y-2789524D01*
X7991526Y-2789524D02*
X7987716Y-2791429D01*
X7987716Y-2791429D02*
X7985812Y-2791429D01*
X7985812Y-2791429D02*
X7982002Y-2789524D01*
X7982002Y-2789524D02*
X7980097Y-2787619D01*
X7980097Y-2787619D02*
X7978193Y-2783810D01*
X7978193Y-2783810D02*
X7978193Y-2776190D01*
X7978193Y-2776190D02*
X7980097Y-2772381D01*
X7980097Y-2772381D02*
X7982002Y-2770476D01*
X7982002Y-2770476D02*
X7985812Y-2768571D01*
X7985812Y-2768571D02*
X7987716Y-2768571D01*
X7987716Y-2768571D02*
X7991526Y-2770476D01*
X7991526Y-2770476D02*
X7993431Y-2772381D01*
X7993431Y-2772381D02*
X7995336Y-2776190D01*
X7995336Y-2776190D02*
X7995336Y-2783810D01*
X7995336Y-2783810D02*
X7997240Y-2787619D01*
X7997240Y-2787619D02*
X7999145Y-2789524D01*
X7999145Y-2789524D02*
X8002955Y-2791429D01*
X8002955Y-2791429D02*
X8010574Y-2791429D01*
X8010574Y-2791429D02*
X8014383Y-2789524D01*
X8014383Y-2789524D02*
X8016288Y-2787619D01*
X8016288Y-2787619D02*
X8018193Y-2783810D01*
X8018193Y-2783810D02*
X8018193Y-2776190D01*
X8018193Y-2776190D02*
X8016288Y-2772381D01*
X8016288Y-2772381D02*
X8014383Y-2770476D01*
X8014383Y-2770476D02*
X8010574Y-2768571D01*
X8010574Y-2768571D02*
X8002955Y-2768571D01*
X8002955Y-2768571D02*
X7999145Y-2770476D01*
X7999145Y-2770476D02*
X7997240Y-2772381D01*
X7997240Y-2772381D02*
X7995336Y-2776190D01*
X2718193Y-606667D02*
X2699145Y-620000D01*
X2718193Y-629524D02*
X2678193Y-629524D01*
X2678193Y-629524D02*
X2678193Y-614286D01*
X2678193Y-614286D02*
X2680098Y-610476D01*
X2680098Y-610476D02*
X2682002Y-608571D01*
X2682002Y-608571D02*
X2685812Y-606667D01*
X2685812Y-606667D02*
X2691526Y-606667D01*
X2691526Y-606667D02*
X2695336Y-608571D01*
X2695336Y-608571D02*
X2697240Y-610476D01*
X2697240Y-610476D02*
X2699145Y-614286D01*
X2699145Y-614286D02*
X2699145Y-629524D01*
X2682002Y-591429D02*
X2680098Y-589524D01*
X2680098Y-589524D02*
X2678193Y-585714D01*
X2678193Y-585714D02*
X2678193Y-576190D01*
X2678193Y-576190D02*
X2680098Y-572381D01*
X2680098Y-572381D02*
X2682002Y-570476D01*
X2682002Y-570476D02*
X2685812Y-568571D01*
X2685812Y-568571D02*
X2689621Y-568571D01*
X2689621Y-568571D02*
X2695336Y-570476D01*
X2695336Y-570476D02*
X2718193Y-593333D01*
X2718193Y-593333D02*
X2718193Y-568571D01*
X2318193Y-1306667D02*
X2299145Y-1320000D01*
X2318193Y-1329524D02*
X2278193Y-1329524D01*
X2278193Y-1329524D02*
X2278193Y-1314286D01*
X2278193Y-1314286D02*
X2280098Y-1310476D01*
X2280098Y-1310476D02*
X2282002Y-1308571D01*
X2282002Y-1308571D02*
X2285812Y-1306667D01*
X2285812Y-1306667D02*
X2291526Y-1306667D01*
X2291526Y-1306667D02*
X2295336Y-1308571D01*
X2295336Y-1308571D02*
X2297240Y-1310476D01*
X2297240Y-1310476D02*
X2299145Y-1314286D01*
X2299145Y-1314286D02*
X2299145Y-1329524D01*
X2278193Y-1293333D02*
X2278193Y-1268571D01*
X2278193Y-1268571D02*
X2293431Y-1281905D01*
X2293431Y-1281905D02*
X2293431Y-1276190D01*
X2293431Y-1276190D02*
X2295336Y-1272381D01*
X2295336Y-1272381D02*
X2297240Y-1270476D01*
X2297240Y-1270476D02*
X2301050Y-1268571D01*
X2301050Y-1268571D02*
X2310574Y-1268571D01*
X2310574Y-1268571D02*
X2314383Y-1270476D01*
X2314383Y-1270476D02*
X2316288Y-1272381D01*
X2316288Y-1272381D02*
X2318193Y-1276190D01*
X2318193Y-1276190D02*
X2318193Y-1287619D01*
X2318193Y-1287619D02*
X2316288Y-1291429D01*
X2316288Y-1291429D02*
X2314383Y-1293333D01*
X1514383Y-1406667D02*
X1516288Y-1408571D01*
X1516288Y-1408571D02*
X1518193Y-1414286D01*
X1518193Y-1414286D02*
X1518193Y-1418095D01*
X1518193Y-1418095D02*
X1516288Y-1423809D01*
X1516288Y-1423809D02*
X1512478Y-1427619D01*
X1512478Y-1427619D02*
X1508669Y-1429524D01*
X1508669Y-1429524D02*
X1501050Y-1431428D01*
X1501050Y-1431428D02*
X1495336Y-1431428D01*
X1495336Y-1431428D02*
X1487716Y-1429524D01*
X1487716Y-1429524D02*
X1483907Y-1427619D01*
X1483907Y-1427619D02*
X1480097Y-1423809D01*
X1480097Y-1423809D02*
X1478193Y-1418095D01*
X1478193Y-1418095D02*
X1478193Y-1414286D01*
X1478193Y-1414286D02*
X1480097Y-1408571D01*
X1480097Y-1408571D02*
X1482002Y-1406667D01*
X1518193Y-1368571D02*
X1518193Y-1391429D01*
X1518193Y-1380000D02*
X1478193Y-1380000D01*
X1478193Y-1380000D02*
X1483907Y-1383810D01*
X1483907Y-1383810D02*
X1487716Y-1387619D01*
X1487716Y-1387619D02*
X1489621Y-1391429D01*
X2318193Y-3106667D02*
X2299145Y-3120000D01*
X2318193Y-3129524D02*
X2278193Y-3129524D01*
X2278193Y-3129524D02*
X2278193Y-3114286D01*
X2278193Y-3114286D02*
X2280098Y-3110476D01*
X2280098Y-3110476D02*
X2282002Y-3108571D01*
X2282002Y-3108571D02*
X2285812Y-3106667D01*
X2285812Y-3106667D02*
X2291526Y-3106667D01*
X2291526Y-3106667D02*
X2295336Y-3108571D01*
X2295336Y-3108571D02*
X2297240Y-3110476D01*
X2297240Y-3110476D02*
X2299145Y-3114286D01*
X2299145Y-3114286D02*
X2299145Y-3129524D01*
X2278193Y-3093333D02*
X2278193Y-3066667D01*
X2278193Y-3066667D02*
X2318193Y-3083809D01*
X1514383Y-3206667D02*
X1516288Y-3208571D01*
X1516288Y-3208571D02*
X1518193Y-3214286D01*
X1518193Y-3214286D02*
X1518193Y-3218095D01*
X1518193Y-3218095D02*
X1516288Y-3223809D01*
X1516288Y-3223809D02*
X1512478Y-3227619D01*
X1512478Y-3227619D02*
X1508669Y-3229524D01*
X1508669Y-3229524D02*
X1501050Y-3231428D01*
X1501050Y-3231428D02*
X1495336Y-3231428D01*
X1495336Y-3231428D02*
X1487716Y-3229524D01*
X1487716Y-3229524D02*
X1483907Y-3227619D01*
X1483907Y-3227619D02*
X1480097Y-3223809D01*
X1480097Y-3223809D02*
X1478193Y-3218095D01*
X1478193Y-3218095D02*
X1478193Y-3214286D01*
X1478193Y-3214286D02*
X1480097Y-3208571D01*
X1480097Y-3208571D02*
X1482002Y-3206667D01*
X1478193Y-3193333D02*
X1478193Y-3168571D01*
X1478193Y-3168571D02*
X1493431Y-3181905D01*
X1493431Y-3181905D02*
X1493431Y-3176190D01*
X1493431Y-3176190D02*
X1495336Y-3172381D01*
X1495336Y-3172381D02*
X1497240Y-3170476D01*
X1497240Y-3170476D02*
X1501050Y-3168571D01*
X1501050Y-3168571D02*
X1510574Y-3168571D01*
X1510574Y-3168571D02*
X1514383Y-3170476D01*
X1514383Y-3170476D02*
X1516288Y-3172381D01*
X1516288Y-3172381D02*
X1518193Y-3176190D01*
X1518193Y-3176190D02*
X1518193Y-3187619D01*
X1518193Y-3187619D02*
X1516288Y-3191428D01*
X1516288Y-3191428D02*
X1514383Y-3193333D01*
D11*
X5460737Y-1254857D02*
X5519022Y-1254857D01*
X5519022Y-1254857D02*
X5525879Y-1251429D01*
X5525879Y-1251429D02*
X5529308Y-1248000D01*
X5529308Y-1248000D02*
X5532737Y-1241143D01*
X5532737Y-1241143D02*
X5532737Y-1227429D01*
X5532737Y-1227429D02*
X5529308Y-1220571D01*
X5529308Y-1220571D02*
X5525879Y-1217143D01*
X5525879Y-1217143D02*
X5519022Y-1213714D01*
X5519022Y-1213714D02*
X5460737Y-1213714D01*
X5460737Y-1186286D02*
X5460737Y-1141714D01*
X5460737Y-1141714D02*
X5488165Y-1165714D01*
X5488165Y-1165714D02*
X5488165Y-1155429D01*
X5488165Y-1155429D02*
X5491594Y-1148571D01*
X5491594Y-1148571D02*
X5495022Y-1145143D01*
X5495022Y-1145143D02*
X5501879Y-1141714D01*
X5501879Y-1141714D02*
X5519022Y-1141714D01*
X5519022Y-1141714D02*
X5525879Y-1145143D01*
X5525879Y-1145143D02*
X5529308Y-1148571D01*
X5529308Y-1148571D02*
X5532737Y-1155429D01*
X5532737Y-1155429D02*
X5532737Y-1176000D01*
X5532737Y-1176000D02*
X5529308Y-1182857D01*
X5529308Y-1182857D02*
X5525879Y-1186286D01*
X5460737Y-3054857D02*
X5519022Y-3054857D01*
X5519022Y-3054857D02*
X5525879Y-3051428D01*
X5525879Y-3051428D02*
X5529308Y-3048000D01*
X5529308Y-3048000D02*
X5532737Y-3041143D01*
X5532737Y-3041143D02*
X5532737Y-3027428D01*
X5532737Y-3027428D02*
X5529308Y-3020571D01*
X5529308Y-3020571D02*
X5525879Y-3017143D01*
X5525879Y-3017143D02*
X5519022Y-3013714D01*
X5519022Y-3013714D02*
X5460737Y-3013714D01*
X5484737Y-2948571D02*
X5532737Y-2948571D01*
X5457308Y-2965714D02*
X5508737Y-2982857D01*
X5508737Y-2982857D02*
X5508737Y-2938286D01*
X3560736Y-3054857D02*
X3619022Y-3054857D01*
X3619022Y-3054857D02*
X3625879Y-3051428D01*
X3625879Y-3051428D02*
X3629308Y-3048000D01*
X3629308Y-3048000D02*
X3632736Y-3041143D01*
X3632736Y-3041143D02*
X3632736Y-3027428D01*
X3632736Y-3027428D02*
X3629308Y-3020571D01*
X3629308Y-3020571D02*
X3625879Y-3017143D01*
X3625879Y-3017143D02*
X3619022Y-3013714D01*
X3619022Y-3013714D02*
X3560736Y-3013714D01*
X3567594Y-2982857D02*
X3564165Y-2979428D01*
X3564165Y-2979428D02*
X3560736Y-2972571D01*
X3560736Y-2972571D02*
X3560736Y-2955428D01*
X3560736Y-2955428D02*
X3564165Y-2948571D01*
X3564165Y-2948571D02*
X3567594Y-2945143D01*
X3567594Y-2945143D02*
X3574451Y-2941714D01*
X3574451Y-2941714D02*
X3581308Y-2941714D01*
X3581308Y-2941714D02*
X3591594Y-2945143D01*
X3591594Y-2945143D02*
X3632736Y-2986286D01*
X3632736Y-2986286D02*
X3632736Y-2941714D01*
X7460736Y-3054857D02*
X7519022Y-3054857D01*
X7519022Y-3054857D02*
X7525879Y-3051428D01*
X7525879Y-3051428D02*
X7529308Y-3048000D01*
X7529308Y-3048000D02*
X7532736Y-3041143D01*
X7532736Y-3041143D02*
X7532736Y-3027428D01*
X7532736Y-3027428D02*
X7529308Y-3020571D01*
X7529308Y-3020571D02*
X7525879Y-3017143D01*
X7525879Y-3017143D02*
X7519022Y-3013714D01*
X7519022Y-3013714D02*
X7460736Y-3013714D01*
X7460736Y-2948571D02*
X7460736Y-2962286D01*
X7460736Y-2962286D02*
X7464165Y-2969143D01*
X7464165Y-2969143D02*
X7467594Y-2972571D01*
X7467594Y-2972571D02*
X7477879Y-2979428D01*
X7477879Y-2979428D02*
X7491594Y-2982857D01*
X7491594Y-2982857D02*
X7519022Y-2982857D01*
X7519022Y-2982857D02*
X7525879Y-2979428D01*
X7525879Y-2979428D02*
X7529308Y-2976000D01*
X7529308Y-2976000D02*
X7532736Y-2969143D01*
X7532736Y-2969143D02*
X7532736Y-2955428D01*
X7532736Y-2955428D02*
X7529308Y-2948571D01*
X7529308Y-2948571D02*
X7525879Y-2945143D01*
X7525879Y-2945143D02*
X7519022Y-2941714D01*
X7519022Y-2941714D02*
X7501879Y-2941714D01*
X7501879Y-2941714D02*
X7495022Y-2945143D01*
X7495022Y-2945143D02*
X7491594Y-2948571D01*
X7491594Y-2948571D02*
X7488165Y-2955428D01*
X7488165Y-2955428D02*
X7488165Y-2969143D01*
X7488165Y-2969143D02*
X7491594Y-2976000D01*
X7491594Y-2976000D02*
X7495022Y-2979428D01*
X7495022Y-2979428D02*
X7501879Y-2982857D01*
D12*
X275482Y-2958333D02*
X346910Y-2958333D01*
X346910Y-2958333D02*
X361196Y-2963095D01*
X361196Y-2963095D02*
X370720Y-2972619D01*
X370720Y-2972619D02*
X375482Y-2986905D01*
X375482Y-2986905D02*
X375482Y-2996428D01*
X285006Y-2915476D02*
X280244Y-2910714D01*
X280244Y-2910714D02*
X275482Y-2901190D01*
X275482Y-2901190D02*
X275482Y-2877381D01*
X275482Y-2877381D02*
X280244Y-2867857D01*
X280244Y-2867857D02*
X285006Y-2863095D01*
X285006Y-2863095D02*
X294530Y-2858333D01*
X294530Y-2858333D02*
X304053Y-2858333D01*
X304053Y-2858333D02*
X318339Y-2863095D01*
X318339Y-2863095D02*
X375482Y-2920238D01*
X375482Y-2920238D02*
X375482Y-2858333D01*
D11*
X7460736Y-1254857D02*
X7519022Y-1254857D01*
X7519022Y-1254857D02*
X7525879Y-1251429D01*
X7525879Y-1251429D02*
X7529308Y-1248000D01*
X7529308Y-1248000D02*
X7532736Y-1241143D01*
X7532736Y-1241143D02*
X7532736Y-1227429D01*
X7532736Y-1227429D02*
X7529308Y-1220571D01*
X7529308Y-1220571D02*
X7525879Y-1217143D01*
X7525879Y-1217143D02*
X7519022Y-1213714D01*
X7519022Y-1213714D02*
X7460736Y-1213714D01*
X7460736Y-1145143D02*
X7460736Y-1179429D01*
X7460736Y-1179429D02*
X7495022Y-1182857D01*
X7495022Y-1182857D02*
X7491594Y-1179429D01*
X7491594Y-1179429D02*
X7488165Y-1172571D01*
X7488165Y-1172571D02*
X7488165Y-1155429D01*
X7488165Y-1155429D02*
X7491594Y-1148571D01*
X7491594Y-1148571D02*
X7495022Y-1145143D01*
X7495022Y-1145143D02*
X7501879Y-1141714D01*
X7501879Y-1141714D02*
X7519022Y-1141714D01*
X7519022Y-1141714D02*
X7525879Y-1145143D01*
X7525879Y-1145143D02*
X7529308Y-1148571D01*
X7529308Y-1148571D02*
X7532736Y-1155429D01*
X7532736Y-1155429D02*
X7532736Y-1172571D01*
X7532736Y-1172571D02*
X7529308Y-1179429D01*
X7529308Y-1179429D02*
X7525879Y-1182857D01*
D10*
X3193333Y-618193D02*
X3180000Y-599145D01*
X3170476Y-618193D02*
X3170476Y-578193D01*
X3170476Y-578193D02*
X3185714Y-578193D01*
X3185714Y-578193D02*
X3189524Y-580098D01*
X3189524Y-580098D02*
X3191428Y-582002D01*
X3191428Y-582002D02*
X3193333Y-585812D01*
X3193333Y-585812D02*
X3193333Y-591526D01*
X3193333Y-591526D02*
X3191428Y-595336D01*
X3191428Y-595336D02*
X3189524Y-597240D01*
X3189524Y-597240D02*
X3185714Y-599145D01*
X3185714Y-599145D02*
X3170476Y-599145D01*
X3227619Y-591526D02*
X3227619Y-618193D01*
X3218095Y-576288D02*
X3208571Y-604859D01*
X3208571Y-604859D02*
X3233333Y-604859D01*
X1493333Y-2618193D02*
X1480000Y-2599145D01*
X1470476Y-2618193D02*
X1470476Y-2578193D01*
X1470476Y-2578193D02*
X1485714Y-2578193D01*
X1485714Y-2578193D02*
X1489524Y-2580098D01*
X1489524Y-2580098D02*
X1491428Y-2582002D01*
X1491428Y-2582002D02*
X1493333Y-2585812D01*
X1493333Y-2585812D02*
X1493333Y-2591526D01*
X1493333Y-2591526D02*
X1491428Y-2595336D01*
X1491428Y-2595336D02*
X1489524Y-2597240D01*
X1489524Y-2597240D02*
X1485714Y-2599145D01*
X1485714Y-2599145D02*
X1470476Y-2599145D01*
X1529524Y-2578193D02*
X1510476Y-2578193D01*
X1510476Y-2578193D02*
X1508571Y-2597240D01*
X1508571Y-2597240D02*
X1510476Y-2595336D01*
X1510476Y-2595336D02*
X1514286Y-2593431D01*
X1514286Y-2593431D02*
X1523809Y-2593431D01*
X1523809Y-2593431D02*
X1527619Y-2595336D01*
X1527619Y-2595336D02*
X1529524Y-2597240D01*
X1529524Y-2597240D02*
X1531428Y-2601050D01*
X1531428Y-2601050D02*
X1531428Y-2610574D01*
X1531428Y-2610574D02*
X1529524Y-2614383D01*
X1529524Y-2614383D02*
X1527619Y-2616288D01*
X1527619Y-2616288D02*
X1523809Y-2618193D01*
X1523809Y-2618193D02*
X1514286Y-2618193D01*
X1514286Y-2618193D02*
X1510476Y-2616288D01*
X1510476Y-2616288D02*
X1508571Y-2614383D01*
X6418193Y-2325714D02*
X6399145Y-2339048D01*
X6418193Y-2348571D02*
X6378193Y-2348571D01*
X6378193Y-2348571D02*
X6378193Y-2333333D01*
X6378193Y-2333333D02*
X6380097Y-2329524D01*
X6380097Y-2329524D02*
X6382002Y-2327619D01*
X6382002Y-2327619D02*
X6385812Y-2325714D01*
X6385812Y-2325714D02*
X6391526Y-2325714D01*
X6391526Y-2325714D02*
X6395336Y-2327619D01*
X6395336Y-2327619D02*
X6397240Y-2329524D01*
X6397240Y-2329524D02*
X6399145Y-2333333D01*
X6399145Y-2333333D02*
X6399145Y-2348571D01*
X6418193Y-2287619D02*
X6418193Y-2310476D01*
X6418193Y-2299048D02*
X6378193Y-2299048D01*
X6378193Y-2299048D02*
X6383907Y-2302857D01*
X6383907Y-2302857D02*
X6387716Y-2306667D01*
X6387716Y-2306667D02*
X6389621Y-2310476D01*
X6378193Y-2262857D02*
X6378193Y-2259048D01*
X6378193Y-2259048D02*
X6380097Y-2255238D01*
X6380097Y-2255238D02*
X6382002Y-2253333D01*
X6382002Y-2253333D02*
X6385812Y-2251429D01*
X6385812Y-2251429D02*
X6393431Y-2249524D01*
X6393431Y-2249524D02*
X6402955Y-2249524D01*
X6402955Y-2249524D02*
X6410574Y-2251429D01*
X6410574Y-2251429D02*
X6414383Y-2253333D01*
X6414383Y-2253333D02*
X6416288Y-2255238D01*
X6416288Y-2255238D02*
X6418193Y-2259048D01*
X6418193Y-2259048D02*
X6418193Y-2262857D01*
X6418193Y-2262857D02*
X6416288Y-2266667D01*
X6416288Y-2266667D02*
X6414383Y-2268571D01*
X6414383Y-2268571D02*
X6410574Y-2270476D01*
X6410574Y-2270476D02*
X6402955Y-2272381D01*
X6402955Y-2272381D02*
X6393431Y-2272381D01*
X6393431Y-2272381D02*
X6385812Y-2270476D01*
X6385812Y-2270476D02*
X6382002Y-2268571D01*
X6382002Y-2268571D02*
X6380097Y-2266667D01*
X6380097Y-2266667D02*
X6378193Y-2262857D01*
D11*
X3560736Y-1254857D02*
X3619022Y-1254857D01*
X3619022Y-1254857D02*
X3625879Y-1251429D01*
X3625879Y-1251429D02*
X3629308Y-1248000D01*
X3629308Y-1248000D02*
X3632736Y-1241143D01*
X3632736Y-1241143D02*
X3632736Y-1227429D01*
X3632736Y-1227429D02*
X3629308Y-1220571D01*
X3629308Y-1220571D02*
X3625879Y-1217143D01*
X3625879Y-1217143D02*
X3619022Y-1213714D01*
X3619022Y-1213714D02*
X3560736Y-1213714D01*
X3632736Y-1141714D02*
X3632736Y-1182857D01*
X3632736Y-1162286D02*
X3560736Y-1162286D01*
X3560736Y-1162286D02*
X3571022Y-1169143D01*
X3571022Y-1169143D02*
X3577879Y-1176000D01*
X3577879Y-1176000D02*
X3581308Y-1182857D01*
D10*
X1493333Y-818193D02*
X1480000Y-799145D01*
X1470476Y-818193D02*
X1470476Y-778193D01*
X1470476Y-778193D02*
X1485714Y-778193D01*
X1485714Y-778193D02*
X1489524Y-780097D01*
X1489524Y-780097D02*
X1491428Y-782002D01*
X1491428Y-782002D02*
X1493333Y-785812D01*
X1493333Y-785812D02*
X1493333Y-791526D01*
X1493333Y-791526D02*
X1491428Y-795336D01*
X1491428Y-795336D02*
X1489524Y-797240D01*
X1489524Y-797240D02*
X1485714Y-799145D01*
X1485714Y-799145D02*
X1470476Y-799145D01*
X1531428Y-818193D02*
X1508571Y-818193D01*
X1520000Y-818193D02*
X1520000Y-778193D01*
X1520000Y-778193D02*
X1516190Y-783907D01*
X1516190Y-783907D02*
X1512381Y-787716D01*
X1512381Y-787716D02*
X1508571Y-789621D01*
X5914383Y-3206667D02*
X5916288Y-3208571D01*
X5916288Y-3208571D02*
X5918193Y-3214286D01*
X5918193Y-3214286D02*
X5918193Y-3218095D01*
X5918193Y-3218095D02*
X5916288Y-3223809D01*
X5916288Y-3223809D02*
X5912478Y-3227619D01*
X5912478Y-3227619D02*
X5908669Y-3229524D01*
X5908669Y-3229524D02*
X5901050Y-3231428D01*
X5901050Y-3231428D02*
X5895336Y-3231428D01*
X5895336Y-3231428D02*
X5887716Y-3229524D01*
X5887716Y-3229524D02*
X5883907Y-3227619D01*
X5883907Y-3227619D02*
X5880097Y-3223809D01*
X5880097Y-3223809D02*
X5878193Y-3218095D01*
X5878193Y-3218095D02*
X5878193Y-3214286D01*
X5878193Y-3214286D02*
X5880097Y-3208571D01*
X5880097Y-3208571D02*
X5882002Y-3206667D01*
X5878193Y-3172381D02*
X5878193Y-3180000D01*
X5878193Y-3180000D02*
X5880097Y-3183809D01*
X5880097Y-3183809D02*
X5882002Y-3185714D01*
X5882002Y-3185714D02*
X5887716Y-3189524D01*
X5887716Y-3189524D02*
X5895336Y-3191428D01*
X5895336Y-3191428D02*
X5910574Y-3191428D01*
X5910574Y-3191428D02*
X5914383Y-3189524D01*
X5914383Y-3189524D02*
X5916288Y-3187619D01*
X5916288Y-3187619D02*
X5918193Y-3183809D01*
X5918193Y-3183809D02*
X5918193Y-3176190D01*
X5918193Y-3176190D02*
X5916288Y-3172381D01*
X5916288Y-3172381D02*
X5914383Y-3170476D01*
X5914383Y-3170476D02*
X5910574Y-3168571D01*
X5910574Y-3168571D02*
X5901050Y-3168571D01*
X5901050Y-3168571D02*
X5897240Y-3170476D01*
X5897240Y-3170476D02*
X5895336Y-3172381D01*
X5895336Y-3172381D02*
X5893431Y-3176190D01*
X5893431Y-3176190D02*
X5893431Y-3183809D01*
X5893431Y-3183809D02*
X5895336Y-3187619D01*
X5895336Y-3187619D02*
X5897240Y-3189524D01*
X5897240Y-3189524D02*
X5901050Y-3191428D01*
D12*
X275482Y-1158333D02*
X346910Y-1158333D01*
X346910Y-1158333D02*
X361196Y-1163095D01*
X361196Y-1163095D02*
X370720Y-1172619D01*
X370720Y-1172619D02*
X375482Y-1186905D01*
X375482Y-1186905D02*
X375482Y-1196429D01*
X375482Y-1058333D02*
X375482Y-1115476D01*
X375482Y-1086905D02*
X275482Y-1086905D01*
X275482Y-1086905D02*
X289768Y-1096429D01*
X289768Y-1096429D02*
X299291Y-1105952D01*
X299291Y-1105952D02*
X304053Y-1115476D01*
X8775482Y-1258333D02*
X8846910Y-1258333D01*
X8846910Y-1258333D02*
X8861196Y-1263095D01*
X8861196Y-1263095D02*
X8870720Y-1272619D01*
X8870720Y-1272619D02*
X8875482Y-1286905D01*
X8875482Y-1286905D02*
X8875482Y-1296429D01*
X8775482Y-1220238D02*
X8775482Y-1158333D01*
X8775482Y-1158333D02*
X8813577Y-1191667D01*
X8813577Y-1191667D02*
X8813577Y-1177381D01*
X8813577Y-1177381D02*
X8818339Y-1167857D01*
X8818339Y-1167857D02*
X8823101Y-1163095D01*
X8823101Y-1163095D02*
X8832625Y-1158333D01*
X8832625Y-1158333D02*
X8856434Y-1158333D01*
X8856434Y-1158333D02*
X8865958Y-1163095D01*
X8865958Y-1163095D02*
X8870720Y-1167857D01*
X8870720Y-1167857D02*
X8875482Y-1177381D01*
X8875482Y-1177381D02*
X8875482Y-1205952D01*
X8875482Y-1205952D02*
X8870720Y-1215476D01*
X8870720Y-1215476D02*
X8865958Y-1220238D01*
D10*
X6418193Y-1706667D02*
X6399145Y-1720000D01*
X6418193Y-1729524D02*
X6378193Y-1729524D01*
X6378193Y-1729524D02*
X6378193Y-1714286D01*
X6378193Y-1714286D02*
X6380097Y-1710476D01*
X6380097Y-1710476D02*
X6382002Y-1708571D01*
X6382002Y-1708571D02*
X6385812Y-1706667D01*
X6385812Y-1706667D02*
X6391526Y-1706667D01*
X6391526Y-1706667D02*
X6395336Y-1708571D01*
X6395336Y-1708571D02*
X6397240Y-1710476D01*
X6397240Y-1710476D02*
X6399145Y-1714286D01*
X6399145Y-1714286D02*
X6399145Y-1729524D01*
X6418193Y-1687619D02*
X6418193Y-1680000D01*
X6418193Y-1680000D02*
X6416288Y-1676190D01*
X6416288Y-1676190D02*
X6414383Y-1674286D01*
X6414383Y-1674286D02*
X6408669Y-1670476D01*
X6408669Y-1670476D02*
X6401050Y-1668571D01*
X6401050Y-1668571D02*
X6385812Y-1668571D01*
X6385812Y-1668571D02*
X6382002Y-1670476D01*
X6382002Y-1670476D02*
X6380097Y-1672381D01*
X6380097Y-1672381D02*
X6378193Y-1676190D01*
X6378193Y-1676190D02*
X6378193Y-1683809D01*
X6378193Y-1683809D02*
X6380097Y-1687619D01*
X6380097Y-1687619D02*
X6382002Y-1689524D01*
X6382002Y-1689524D02*
X6385812Y-1691428D01*
X6385812Y-1691428D02*
X6395336Y-1691428D01*
X6395336Y-1691428D02*
X6399145Y-1689524D01*
X6399145Y-1689524D02*
X6401050Y-1687619D01*
X6401050Y-1687619D02*
X6402955Y-1683809D01*
X6402955Y-1683809D02*
X6402955Y-1676190D01*
X6402955Y-1676190D02*
X6401050Y-1672381D01*
X6401050Y-1672381D02*
X6399145Y-1670476D01*
X6399145Y-1670476D02*
X6395336Y-1668571D01*
X3193333Y-2418193D02*
X3180000Y-2399145D01*
X3170476Y-2418193D02*
X3170476Y-2378193D01*
X3170476Y-2378193D02*
X3185714Y-2378193D01*
X3185714Y-2378193D02*
X3189524Y-2380098D01*
X3189524Y-2380098D02*
X3191428Y-2382002D01*
X3191428Y-2382002D02*
X3193333Y-2385812D01*
X3193333Y-2385812D02*
X3193333Y-2391526D01*
X3193333Y-2391526D02*
X3191428Y-2395336D01*
X3191428Y-2395336D02*
X3189524Y-2397240D01*
X3189524Y-2397240D02*
X3185714Y-2399145D01*
X3185714Y-2399145D02*
X3170476Y-2399145D01*
X3216190Y-2395336D02*
X3212381Y-2393431D01*
X3212381Y-2393431D02*
X3210476Y-2391526D01*
X3210476Y-2391526D02*
X3208571Y-2387717D01*
X3208571Y-2387717D02*
X3208571Y-2385812D01*
X3208571Y-2385812D02*
X3210476Y-2382002D01*
X3210476Y-2382002D02*
X3212381Y-2380098D01*
X3212381Y-2380098D02*
X3216190Y-2378193D01*
X3216190Y-2378193D02*
X3223809Y-2378193D01*
X3223809Y-2378193D02*
X3227619Y-2380098D01*
X3227619Y-2380098D02*
X3229524Y-2382002D01*
X3229524Y-2382002D02*
X3231428Y-2385812D01*
X3231428Y-2385812D02*
X3231428Y-2387717D01*
X3231428Y-2387717D02*
X3229524Y-2391526D01*
X3229524Y-2391526D02*
X3227619Y-2393431D01*
X3227619Y-2393431D02*
X3223809Y-2395336D01*
X3223809Y-2395336D02*
X3216190Y-2395336D01*
X3216190Y-2395336D02*
X3212381Y-2397240D01*
X3212381Y-2397240D02*
X3210476Y-2399145D01*
X3210476Y-2399145D02*
X3208571Y-2402955D01*
X3208571Y-2402955D02*
X3208571Y-2410574D01*
X3208571Y-2410574D02*
X3210476Y-2414383D01*
X3210476Y-2414383D02*
X3212381Y-2416288D01*
X3212381Y-2416288D02*
X3216190Y-2418193D01*
X3216190Y-2418193D02*
X3223809Y-2418193D01*
X3223809Y-2418193D02*
X3227619Y-2416288D01*
X3227619Y-2416288D02*
X3229524Y-2414383D01*
X3229524Y-2414383D02*
X3231428Y-2410574D01*
X3231428Y-2410574D02*
X3231428Y-2402955D01*
X3231428Y-2402955D02*
X3229524Y-2399145D01*
X3229524Y-2399145D02*
X3227619Y-2397240D01*
X3227619Y-2397240D02*
X3223809Y-2395336D01*
%TO.C,C4*%
D13*
X4060000Y-2720000D02*
X4140000Y-2720000D01*
X4140000Y-2880000D01*
X4060000Y-2880000D01*
X4060000Y-2720000D01*
%TO.C,C5*%
X5860000Y-1320000D02*
X5940000Y-1320000D01*
X5940000Y-1480000D01*
X5860000Y-1480000D01*
X5860000Y-1320000D01*
%TO.C,C2*%
X4060000Y-920000D02*
X4140000Y-920000D01*
X4140000Y-1080000D01*
X4060000Y-1080000D01*
X4060000Y-920000D01*
%TO.C,R6*%
X2658750Y-2320000D02*
X2741250Y-2320000D01*
X2741250Y-2480000D01*
X2658750Y-2480000D01*
X2658750Y-2320000D01*
%TO.C,C7*%
X7960000Y-920000D02*
X8040000Y-920000D01*
X8040000Y-1080000D01*
X7960000Y-1080000D01*
X7960000Y-920000D01*
%TO.C,C8*%
X7960000Y-2720000D02*
X8040000Y-2720000D01*
X8040000Y-2880000D01*
X7960000Y-2880000D01*
X7960000Y-2720000D01*
%TO.C,R2*%
X2658750Y-520000D02*
X2741250Y-520000D01*
X2741250Y-680000D01*
X2658750Y-680000D01*
X2658750Y-520000D01*
%TO.C,R3*%
X2258750Y-1220000D02*
X2341250Y-1220000D01*
X2341250Y-1380000D01*
X2258750Y-1380000D01*
X2258750Y-1220000D01*
%TO.C,C1*%
X1460000Y-1320000D02*
X1540000Y-1320000D01*
X1540000Y-1480000D01*
X1460000Y-1480000D01*
X1460000Y-1320000D01*
%TO.C,R7*%
X2258750Y-3020000D02*
X2341250Y-3020000D01*
X2341250Y-3180000D01*
X2258750Y-3180000D01*
X2258750Y-3020000D01*
%TO.C,C3*%
X1460000Y-3120000D02*
X1540000Y-3120000D01*
X1540000Y-3280000D01*
X1460000Y-3280000D01*
X1460000Y-3120000D01*
%TO.C,U3*%
X5460000Y-1055000D02*
X5580000Y-1055000D01*
X5580000Y-1345000D01*
X5420000Y-1345000D01*
X5420000Y-1095000D01*
X5460000Y-1055000D01*
%TO.C,U4*%
X5460000Y-2855000D02*
X5580000Y-2855000D01*
X5580000Y-3145000D01*
X5420000Y-3145000D01*
X5420000Y-2895000D01*
X5460000Y-2855000D01*
%TO.C,U2*%
X3560000Y-2855000D02*
X3680000Y-2855000D01*
X3680000Y-3145000D01*
X3520000Y-3145000D01*
X3520000Y-2895000D01*
X3560000Y-2855000D01*
%TO.C,U6*%
X7460000Y-2855000D02*
X7580000Y-2855000D01*
X7580000Y-3145000D01*
X7420000Y-3145000D01*
X7420000Y-2895000D01*
X7460000Y-2855000D01*
%TO.C,J2*%
X735000Y-2800000D02*
X835000Y-2862500D01*
X835000Y-2737500D02*
X735000Y-2800000D01*
X260000Y-2555000D02*
X835000Y-2555000D01*
X835000Y-3295000D01*
X260000Y-3295000D01*
X260000Y-2555000D01*
%TO.C,U5*%
X7460000Y-1055000D02*
X7580000Y-1055000D01*
X7580000Y-1345000D01*
X7420000Y-1345000D01*
X7420000Y-1095000D01*
X7460000Y-1055000D01*
%TO.C,R4*%
X3120000Y-558750D02*
X3280000Y-558750D01*
X3280000Y-641250D01*
X3120000Y-641250D01*
X3120000Y-558750D01*
%TO.C,R5*%
X1420000Y-2558750D02*
X1580000Y-2558750D01*
X1580000Y-2641250D01*
X1420000Y-2641250D01*
X1420000Y-2558750D01*
%TO.C,R10*%
X6358750Y-2220000D02*
X6441250Y-2220000D01*
X6441250Y-2380000D01*
X6358750Y-2380000D01*
X6358750Y-2220000D01*
%TO.C,U1*%
X3560000Y-1055000D02*
X3680000Y-1055000D01*
X3680000Y-1345000D01*
X3520000Y-1345000D01*
X3520000Y-1095000D01*
X3560000Y-1055000D01*
%TO.C,R1*%
X1420000Y-758750D02*
X1580000Y-758750D01*
X1580000Y-841250D01*
X1420000Y-841250D01*
X1420000Y-758750D01*
%TO.C,C6*%
X5860000Y-3120000D02*
X5940000Y-3120000D01*
X5940000Y-3280000D01*
X5860000Y-3280000D01*
X5860000Y-3120000D01*
%TO.C,J1*%
X735000Y-1000000D02*
X835000Y-1062500D01*
X835000Y-937500D02*
X735000Y-1000000D01*
X260000Y-755000D02*
X835000Y-755000D01*
X835000Y-1495000D01*
X260000Y-1495000D01*
X260000Y-755000D01*
%TO.C,J3*%
X9235000Y-600000D02*
X9335000Y-662500D01*
X9335000Y-537500D02*
X9235000Y-600000D01*
X8760000Y-355000D02*
X9335000Y-355000D01*
X9335000Y-2095000D01*
X8760000Y-2095000D01*
X8760000Y-355000D01*
%TO.C,R9*%
X6358750Y-1620000D02*
X6441250Y-1620000D01*
X6441250Y-1780000D01*
X6358750Y-1780000D01*
X6358750Y-1620000D01*
%TO.C,R8*%
X3120000Y-2358750D02*
X3280000Y-2358750D01*
X3280000Y-2441250D01*
X3120000Y-2441250D01*
X3120000Y-2358750D01*
%TD*%
M02*
