%TF.GenerationSoftware,KiCad,Pcbnew,10.0.4*%
%TF.CreationDate,2026-09-24T00:17:52-06:00*%
%TF.ProjectId,section,73656374-696f-46e2-9e6b-696361645f70,rev?*%
%TF.SameCoordinates,Original*%
%TF.FileFunction,Soldermask,Top*%
%TF.FilePolarity,Negative*%
%FSLAX45Y45*%
G04 Gerber Fmt 4.5, Leading zero omitted, Abs format (unit mm)*
G04 Created by KiCad (PCBNEW 10.0.4) date 2026-09-24 00:17:52*
%MOMM*%
%LPD*%
G01*
G04 APERTURE LIST*
G04 Aperture macros list*
%AMRoundRect*
0 Rectangle with rounded corners*
0 $1 Rounding radius*
0 $2 $3 $4 $5 $6 $7 $8 $9 X,Y pos of 4 corners*
0 Add a 4 corners polygon primitive as box body*
4,1,4,$2,$3,$4,$5,$6,$7,$8,$9,$2,$3,0*
0 Add four circle primitives for the rounded corners*
1,1,$1+$1,$2,$3*
1,1,$1+$1,$4,$5*
1,1,$1+$1,$6,$7*
1,1,$1+$1,$8,$9*
0 Add four rect primitives between the rounded corners*
20,1,$1+$1,$2,$3,$4,$5,0*
20,1,$1+$1,$4,$5,$6,$7,0*
20,1,$1+$1,$6,$7,$8,$9,0*
20,1,$1+$1,$8,$9,$2,$3,0*%
G04 Aperture macros list end*
%ADD10RoundRect,0.225000X0.250000X-0.225000X0.250000X0.225000X-0.250000X0.225000X-0.250000X-0.225000X0*%
%ADD11RoundRect,0.200000X0.275000X-0.200000X0.275000X0.200000X-0.275000X0.200000X-0.275000X-0.200000X0*%
%ADD12RoundRect,0.150000X-0.512500X-0.150000X0.512500X-0.150000X0.512500X0.150000X-0.512500X0.150000X0*%
%ADD13RoundRect,0.250000X-0.750000X0.600000X-0.750000X-0.600000X0.750000X-0.600000X0.750000X0.600000X0*%
%ADD14O,2.000000X1.700000*%
%ADD15RoundRect,0.200000X-0.200000X-0.275000X0.200000X-0.275000X0.200000X0.275000X-0.200000X0.275000X0*%
%ADD16RoundRect,0.250000X-0.725000X0.600000X-0.725000X-0.600000X0.725000X-0.600000X0.725000X0.600000X0*%
%ADD17O,1.950000X1.700000*%
G04 APERTURE END LIST*
D10*
%TO.C,C4*%
X4100000Y-2877500D03*
X4100000Y-2722500D03*
%TD*%
%TO.C,C5*%
X5900000Y-1477500D03*
X5900000Y-1322500D03*
%TD*%
%TO.C,C2*%
X4100000Y-1077500D03*
X4100000Y-922500D03*
%TD*%
D11*
%TO.C,R6*%
X2700000Y-2482500D03*
X2700000Y-2317500D03*
%TD*%
D10*
%TO.C,C7*%
X8000000Y-1077500D03*
X8000000Y-922500D03*
%TD*%
%TO.C,C8*%
X8000000Y-2877500D03*
X8000000Y-2722500D03*
%TD*%
D11*
%TO.C,R2*%
X2700000Y-682500D03*
X2700000Y-517500D03*
%TD*%
%TO.C,R3*%
X2300000Y-1382500D03*
X2300000Y-1217500D03*
%TD*%
D10*
%TO.C,C1*%
X1500000Y-1477500D03*
X1500000Y-1322500D03*
%TD*%
D11*
%TO.C,R7*%
X2300000Y-3182500D03*
X2300000Y-3017500D03*
%TD*%
D10*
%TO.C,C3*%
X1500000Y-3277500D03*
X1500000Y-3122500D03*
%TD*%
D12*
%TO.C,U3*%
X5386250Y-1105000D03*
X5386250Y-1200000D03*
X5386250Y-1295000D03*
X5613750Y-1295000D03*
X5613750Y-1105000D03*
%TD*%
%TO.C,U4*%
X5386250Y-2905000D03*
X5386250Y-3000000D03*
X5386250Y-3095000D03*
X5613750Y-3095000D03*
X5613750Y-2905000D03*
%TD*%
%TO.C,U2*%
X3486250Y-2905000D03*
X3486250Y-3000000D03*
X3486250Y-3095000D03*
X3713750Y-3095000D03*
X3713750Y-2905000D03*
%TD*%
%TO.C,U6*%
X7386250Y-2905000D03*
X7386250Y-3000000D03*
X7386250Y-3095000D03*
X7613750Y-3095000D03*
X7613750Y-2905000D03*
%TD*%
D13*
%TO.C,J2*%
X600000Y-2800000D03*
D14*
X600000Y-3050000D03*
%TD*%
D12*
%TO.C,U5*%
X7386250Y-1105000D03*
X7386250Y-1200000D03*
X7386250Y-1295000D03*
X7613750Y-1295000D03*
X7613750Y-1105000D03*
%TD*%
D15*
%TO.C,R4*%
X3117500Y-600000D03*
X3282500Y-600000D03*
%TD*%
%TO.C,R5*%
X1417500Y-2600000D03*
X1582500Y-2600000D03*
%TD*%
D11*
%TO.C,R10*%
X6400000Y-2382500D03*
X6400000Y-2217500D03*
%TD*%
D12*
%TO.C,U1*%
X3486250Y-1105000D03*
X3486250Y-1200000D03*
X3486250Y-1295000D03*
X3713750Y-1295000D03*
X3713750Y-1105000D03*
%TD*%
D15*
%TO.C,R1*%
X1417500Y-800000D03*
X1582500Y-800000D03*
%TD*%
D10*
%TO.C,C6*%
X5900000Y-3277500D03*
X5900000Y-3122500D03*
%TD*%
D13*
%TO.C,J1*%
X600000Y-1000000D03*
D14*
X600000Y-1250000D03*
%TD*%
D16*
%TO.C,J3*%
X9100000Y-600000D03*
D17*
X9100000Y-850000D03*
X9100000Y-1100000D03*
X9100000Y-1350000D03*
X9100000Y-1600000D03*
X9100000Y-1850000D03*
%TD*%
D11*
%TO.C,R9*%
X6400000Y-1782500D03*
X6400000Y-1617500D03*
%TD*%
D15*
%TO.C,R8*%
X3117500Y-2400000D03*
X3282500Y-2400000D03*
%TD*%
M02*
