%TF.GenerationSoftware,KiCad,Pcbnew,10.0.4*%
%TF.CreationDate,2026-09-24T00:17:52-06:00*%
%TF.ProjectId,section,73656374-696f-46e2-9e6b-696361645f70,rev?*%
%TF.SameCoordinates,Original*%
%TF.FileFunction,Legend,Top*%
%TF.FilePolarity,Positive*%
%FSLAX45Y45*%
G04 Gerber Fmt 4.5, Leading zero omitted, Abs format (unit mm)*
G04 Created by KiCad (PCBNEW 10.0.4) date 2026-09-24 00:17:52*
%MOMM*%
%LPD*%
G01*
G04 APERTURE LIST*
G04 Aperture macros list*
%AMRoundRect*
0 Rectangle with rounded corners*
0 $1 Rounding radius*
0 $2 $3 $4 $5 $6 $7 $8 $9 X,Y pos of 4 corners*
0 Add a 4 corners polygon primitive as box body*
4,1,4,$2,$3,$4,$5,$6,$7,$8,$9,$2,$3,0*
0 Add four circle primitives for the rounded corners*
1,1,$1+$1,$2,$3*
1,1,$1+$1,$4,$5*
1,1,$1+$1,$6,$7*
1,1,$1+$1,$8,$9*
0 Add four rect primitives between the rounded corners*
20,1,$1+$1,$2,$3,$4,$5,0*
20,1,$1+$1,$4,$5,$6,$7,0*
20,1,$1+$1,$6,$7,$8,$9,0*
20,1,$1+$1,$8,$9,$2,$3,0*%
G04 Aperture macros list end*
%ADD10C,0.120000*%
%ADD11RoundRect,0.225000X0.250000X-0.225000X0.250000X0.225000X-0.250000X0.225000X-0.250000X-0.225000X0*%
%ADD12RoundRect,0.200000X0.275000X-0.200000X0.275000X0.200000X-0.275000X0.200000X-0.275000X-0.200000X0*%
%ADD13RoundRect,0.150000X-0.512500X-0.150000X0.512500X-0.150000X0.512500X0.150000X-0.512500X0.150000X0*%
%ADD14RoundRect,0.250000X-0.750000X0.600000X-0.750000X-0.600000X0.750000X-0.600000X0.750000X0.600000X0*%
%ADD15O,2.000000X1.700000*%
%ADD16RoundRect,0.200000X-0.200000X-0.275000X0.200000X-0.275000X0.200000X0.275000X-0.200000X0.275000X0*%
%ADD17RoundRect,0.250000X-0.725000X0.600000X-0.725000X-0.600000X0.725000X-0.600000X0.725000X0.600000X0*%
%ADD18O,1.950000X1.700000*%
G04 APERTURE END LIST*
D10*
X996190Y-2036385D02*
X996190Y-1956385D01*
X996190Y-1994481D02*
X1041905Y-1994481D01*
X1041905Y-2036385D02*
X1041905Y-1956385D01*
X1076190Y-2032576D02*
X1087619Y-2036385D01*
X1087619Y-2036385D02*
X1106667Y-2036385D01*
X1106667Y-2036385D02*
X1114286Y-2032576D01*
X1114286Y-2032576D02*
X1118095Y-2028766D01*
X1118095Y-2028766D02*
X1121905Y-2021147D01*
X1121905Y-2021147D02*
X1121905Y-2013528D01*
X1121905Y-2013528D02*
X1118095Y-2005909D01*
X1118095Y-2005909D02*
X1114286Y-2002100D01*
X1114286Y-2002100D02*
X1106667Y-1998290D01*
X1106667Y-1998290D02*
X1091429Y-1994481D01*
X1091429Y-1994481D02*
X1083810Y-1990671D01*
X1083810Y-1990671D02*
X1080000Y-1986862D01*
X1080000Y-1986862D02*
X1076190Y-1979243D01*
X1076190Y-1979243D02*
X1076190Y-1971624D01*
X1076190Y-1971624D02*
X1080000Y-1964004D01*
X1080000Y-1964004D02*
X1083810Y-1960195D01*
X1083810Y-1960195D02*
X1091429Y-1956385D01*
X1091429Y-1956385D02*
X1110476Y-1956385D01*
X1110476Y-1956385D02*
X1121905Y-1960195D01*
X1217143Y-2036385D02*
X1217143Y-1956385D01*
X1217143Y-1956385D02*
X1262857Y-2036385D01*
X1262857Y-2036385D02*
X1262857Y-1956385D01*
X1289524Y-1956385D02*
X1335238Y-1956385D01*
X1312381Y-2036385D02*
X1312381Y-1956385D01*
X1407619Y-2028766D02*
X1403809Y-2032576D01*
X1403809Y-2032576D02*
X1392381Y-2036385D01*
X1392381Y-2036385D02*
X1384762Y-2036385D01*
X1384762Y-2036385D02*
X1373333Y-2032576D01*
X1373333Y-2032576D02*
X1365714Y-2024957D01*
X1365714Y-2024957D02*
X1361905Y-2017338D01*
X1361905Y-2017338D02*
X1358095Y-2002100D01*
X1358095Y-2002100D02*
X1358095Y-1990671D01*
X1358095Y-1990671D02*
X1361905Y-1975433D01*
X1361905Y-1975433D02*
X1365714Y-1967814D01*
X1365714Y-1967814D02*
X1373333Y-1960195D01*
X1373333Y-1960195D02*
X1384762Y-1956385D01*
X1384762Y-1956385D02*
X1392381Y-1956385D01*
X1392381Y-1956385D02*
X1403809Y-1960195D01*
X1403809Y-1960195D02*
X1407619Y-1964004D01*
X988571Y-3828766D02*
X984762Y-3832576D01*
X984762Y-3832576D02*
X973333Y-3836385D01*
X973333Y-3836385D02*
X965714Y-3836385D01*
X965714Y-3836385D02*
X954286Y-3832576D01*
X954286Y-3832576D02*
X946667Y-3824957D01*
X946667Y-3824957D02*
X942857Y-3817338D01*
X942857Y-3817338D02*
X939048Y-3802100D01*
X939048Y-3802100D02*
X939048Y-3790671D01*
X939048Y-3790671D02*
X942857Y-3775433D01*
X942857Y-3775433D02*
X946667Y-3767814D01*
X946667Y-3767814D02*
X954286Y-3760195D01*
X954286Y-3760195D02*
X965714Y-3756385D01*
X965714Y-3756385D02*
X973333Y-3756385D01*
X973333Y-3756385D02*
X984762Y-3760195D01*
X984762Y-3760195D02*
X988571Y-3764004D01*
X1038095Y-3756385D02*
X1053333Y-3756385D01*
X1053333Y-3756385D02*
X1060952Y-3760195D01*
X1060952Y-3760195D02*
X1068572Y-3767814D01*
X1068572Y-3767814D02*
X1072381Y-3783052D01*
X1072381Y-3783052D02*
X1072381Y-3809719D01*
X1072381Y-3809719D02*
X1068572Y-3824957D01*
X1068572Y-3824957D02*
X1060952Y-3832576D01*
X1060952Y-3832576D02*
X1053333Y-3836385D01*
X1053333Y-3836385D02*
X1038095Y-3836385D01*
X1038095Y-3836385D02*
X1030476Y-3832576D01*
X1030476Y-3832576D02*
X1022857Y-3824957D01*
X1022857Y-3824957D02*
X1019048Y-3809719D01*
X1019048Y-3809719D02*
X1019048Y-3783052D01*
X1019048Y-3783052D02*
X1022857Y-3767814D01*
X1022857Y-3767814D02*
X1030476Y-3760195D01*
X1030476Y-3760195D02*
X1038095Y-3756385D01*
X1106667Y-3836385D02*
X1106667Y-3756385D01*
X1182857Y-3836385D02*
X1144762Y-3836385D01*
X1144762Y-3836385D02*
X1144762Y-3756385D01*
X1270476Y-3836385D02*
X1270476Y-3756385D01*
X1270476Y-3756385D02*
X1316191Y-3836385D01*
X1316191Y-3836385D02*
X1316191Y-3756385D01*
X1342857Y-3756385D02*
X1388571Y-3756385D01*
X1365714Y-3836385D02*
X1365714Y-3756385D01*
X1460952Y-3828766D02*
X1457143Y-3832576D01*
X1457143Y-3832576D02*
X1445714Y-3836385D01*
X1445714Y-3836385D02*
X1438095Y-3836385D01*
X1438095Y-3836385D02*
X1426667Y-3832576D01*
X1426667Y-3832576D02*
X1419048Y-3824957D01*
X1419048Y-3824957D02*
X1415238Y-3817338D01*
X1415238Y-3817338D02*
X1411428Y-3802100D01*
X1411428Y-3802100D02*
X1411428Y-3790671D01*
X1411428Y-3790671D02*
X1415238Y-3775433D01*
X1415238Y-3775433D02*
X1419048Y-3767814D01*
X1419048Y-3767814D02*
X1426667Y-3760195D01*
X1426667Y-3760195D02*
X1438095Y-3756385D01*
X1438095Y-3756385D02*
X1445714Y-3756385D01*
X1445714Y-3756385D02*
X1457143Y-3760195D01*
X1457143Y-3760195D02*
X1460952Y-3764004D01*
X8250952Y-556386D02*
X8300476Y-556386D01*
X8300476Y-556386D02*
X8273809Y-586862D01*
X8273809Y-586862D02*
X8285238Y-586862D01*
X8285238Y-586862D02*
X8292857Y-590671D01*
X8292857Y-590671D02*
X8296667Y-594481D01*
X8296667Y-594481D02*
X8300476Y-602100D01*
X8300476Y-602100D02*
X8300476Y-621147D01*
X8300476Y-621147D02*
X8296667Y-628766D01*
X8296667Y-628766D02*
X8292857Y-632576D01*
X8292857Y-632576D02*
X8285238Y-636386D01*
X8285238Y-636386D02*
X8262381Y-636386D01*
X8262381Y-636386D02*
X8254762Y-632576D01*
X8254762Y-632576D02*
X8250952Y-628766D01*
X8323333Y-556386D02*
X8350000Y-636386D01*
X8350000Y-636386D02*
X8376667Y-556386D01*
X8395714Y-556386D02*
X8445238Y-556386D01*
X8445238Y-556386D02*
X8418571Y-586862D01*
X8418571Y-586862D02*
X8430000Y-586862D01*
X8430000Y-586862D02*
X8437619Y-590671D01*
X8437619Y-590671D02*
X8441429Y-594481D01*
X8441429Y-594481D02*
X8445238Y-602100D01*
X8445238Y-602100D02*
X8445238Y-621147D01*
X8445238Y-621147D02*
X8441429Y-628766D01*
X8441429Y-628766D02*
X8437619Y-632576D01*
X8437619Y-632576D02*
X8430000Y-636386D01*
X8430000Y-636386D02*
X8407143Y-636386D01*
X8407143Y-636386D02*
X8399524Y-632576D01*
X8399524Y-632576D02*
X8395714Y-628766D01*
X8289048Y-810195D02*
X8281429Y-806385D01*
X8281429Y-806385D02*
X8270000Y-806385D01*
X8270000Y-806385D02*
X8258571Y-810195D01*
X8258571Y-810195D02*
X8250952Y-817814D01*
X8250952Y-817814D02*
X8247143Y-825433D01*
X8247143Y-825433D02*
X8243333Y-840671D01*
X8243333Y-840671D02*
X8243333Y-852100D01*
X8243333Y-852100D02*
X8247143Y-867338D01*
X8247143Y-867338D02*
X8250952Y-874957D01*
X8250952Y-874957D02*
X8258571Y-882576D01*
X8258571Y-882576D02*
X8270000Y-886385D01*
X8270000Y-886385D02*
X8277619Y-886385D01*
X8277619Y-886385D02*
X8289048Y-882576D01*
X8289048Y-882576D02*
X8292857Y-878766D01*
X8292857Y-878766D02*
X8292857Y-852100D01*
X8292857Y-852100D02*
X8277619Y-852100D01*
X8327143Y-886385D02*
X8327143Y-806385D01*
X8327143Y-806385D02*
X8372857Y-886385D01*
X8372857Y-886385D02*
X8372857Y-806385D01*
X8410952Y-886385D02*
X8410952Y-806385D01*
X8410952Y-806385D02*
X8430000Y-806385D01*
X8430000Y-806385D02*
X8441429Y-810195D01*
X8441429Y-810195D02*
X8449048Y-817814D01*
X8449048Y-817814D02*
X8452857Y-825433D01*
X8452857Y-825433D02*
X8456667Y-840671D01*
X8456667Y-840671D02*
X8456667Y-852100D01*
X8456667Y-852100D02*
X8452857Y-867338D01*
X8452857Y-867338D02*
X8449048Y-874957D01*
X8449048Y-874957D02*
X8441429Y-882576D01*
X8441429Y-882576D02*
X8430000Y-886385D01*
X8430000Y-886385D02*
X8410952Y-886385D01*
X8085238Y-1136386D02*
X8085238Y-1056386D01*
X8085238Y-1094481D02*
X8130952Y-1094481D01*
X8130952Y-1136386D02*
X8130952Y-1056386D01*
X8165238Y-1132576D02*
X8176667Y-1136386D01*
X8176667Y-1136386D02*
X8195714Y-1136386D01*
X8195714Y-1136386D02*
X8203333Y-1132576D01*
X8203333Y-1132576D02*
X8207143Y-1128766D01*
X8207143Y-1128766D02*
X8210952Y-1121147D01*
X8210952Y-1121147D02*
X8210952Y-1113528D01*
X8210952Y-1113528D02*
X8207143Y-1105909D01*
X8207143Y-1105909D02*
X8203333Y-1102100D01*
X8203333Y-1102100D02*
X8195714Y-1098290D01*
X8195714Y-1098290D02*
X8180476Y-1094481D01*
X8180476Y-1094481D02*
X8172857Y-1090671D01*
X8172857Y-1090671D02*
X8169048Y-1086862D01*
X8169048Y-1086862D02*
X8165238Y-1079243D01*
X8165238Y-1079243D02*
X8165238Y-1071624D01*
X8165238Y-1071624D02*
X8169048Y-1064005D01*
X8169048Y-1064005D02*
X8172857Y-1060195D01*
X8172857Y-1060195D02*
X8180476Y-1056386D01*
X8180476Y-1056386D02*
X8199524Y-1056386D01*
X8199524Y-1056386D02*
X8210952Y-1060195D01*
X8332857Y-1094481D02*
X8306190Y-1094481D01*
X8306190Y-1136386D02*
X8306190Y-1056386D01*
X8306190Y-1056386D02*
X8344286Y-1056386D01*
X8370952Y-1113528D02*
X8409048Y-1113528D01*
X8363333Y-1136386D02*
X8390000Y-1056386D01*
X8390000Y-1056386D02*
X8416667Y-1136386D01*
X8443333Y-1056386D02*
X8443333Y-1121147D01*
X8443333Y-1121147D02*
X8447143Y-1128766D01*
X8447143Y-1128766D02*
X8450952Y-1132576D01*
X8450952Y-1132576D02*
X8458571Y-1136386D01*
X8458571Y-1136386D02*
X8473810Y-1136386D01*
X8473810Y-1136386D02*
X8481429Y-1132576D01*
X8481429Y-1132576D02*
X8485238Y-1128766D01*
X8485238Y-1128766D02*
X8489048Y-1121147D01*
X8489048Y-1121147D02*
X8489048Y-1056386D01*
X8565238Y-1136386D02*
X8527143Y-1136386D01*
X8527143Y-1136386D02*
X8527143Y-1056386D01*
X8580476Y-1056386D02*
X8626190Y-1056386D01*
X8603333Y-1136386D02*
X8603333Y-1056386D01*
X8077619Y-1378766D02*
X8073809Y-1382576D01*
X8073809Y-1382576D02*
X8062381Y-1386386D01*
X8062381Y-1386386D02*
X8054762Y-1386386D01*
X8054762Y-1386386D02*
X8043333Y-1382576D01*
X8043333Y-1382576D02*
X8035714Y-1374957D01*
X8035714Y-1374957D02*
X8031905Y-1367338D01*
X8031905Y-1367338D02*
X8028095Y-1352100D01*
X8028095Y-1352100D02*
X8028095Y-1340671D01*
X8028095Y-1340671D02*
X8031905Y-1325433D01*
X8031905Y-1325433D02*
X8035714Y-1317814D01*
X8035714Y-1317814D02*
X8043333Y-1310195D01*
X8043333Y-1310195D02*
X8054762Y-1306386D01*
X8054762Y-1306386D02*
X8062381Y-1306386D01*
X8062381Y-1306386D02*
X8073809Y-1310195D01*
X8073809Y-1310195D02*
X8077619Y-1314005D01*
X8127143Y-1306386D02*
X8142381Y-1306386D01*
X8142381Y-1306386D02*
X8150000Y-1310195D01*
X8150000Y-1310195D02*
X8157619Y-1317814D01*
X8157619Y-1317814D02*
X8161429Y-1333052D01*
X8161429Y-1333052D02*
X8161429Y-1359719D01*
X8161429Y-1359719D02*
X8157619Y-1374957D01*
X8157619Y-1374957D02*
X8150000Y-1382576D01*
X8150000Y-1382576D02*
X8142381Y-1386386D01*
X8142381Y-1386386D02*
X8127143Y-1386386D01*
X8127143Y-1386386D02*
X8119524Y-1382576D01*
X8119524Y-1382576D02*
X8111905Y-1374957D01*
X8111905Y-1374957D02*
X8108095Y-1359719D01*
X8108095Y-1359719D02*
X8108095Y-1333052D01*
X8108095Y-1333052D02*
X8111905Y-1317814D01*
X8111905Y-1317814D02*
X8119524Y-1310195D01*
X8119524Y-1310195D02*
X8127143Y-1306386D01*
X8195714Y-1386386D02*
X8195714Y-1306386D01*
X8271905Y-1386386D02*
X8233809Y-1386386D01*
X8233809Y-1386386D02*
X8233809Y-1306386D01*
X8386190Y-1344481D02*
X8359524Y-1344481D01*
X8359524Y-1386386D02*
X8359524Y-1306386D01*
X8359524Y-1306386D02*
X8397619Y-1306386D01*
X8424286Y-1363528D02*
X8462381Y-1363528D01*
X8416667Y-1386386D02*
X8443333Y-1306386D01*
X8443333Y-1306386D02*
X8470000Y-1386386D01*
X8496667Y-1306386D02*
X8496667Y-1371147D01*
X8496667Y-1371147D02*
X8500476Y-1378766D01*
X8500476Y-1378766D02*
X8504286Y-1382576D01*
X8504286Y-1382576D02*
X8511905Y-1386386D01*
X8511905Y-1386386D02*
X8527143Y-1386386D01*
X8527143Y-1386386D02*
X8534762Y-1382576D01*
X8534762Y-1382576D02*
X8538571Y-1378766D01*
X8538571Y-1378766D02*
X8542381Y-1371147D01*
X8542381Y-1371147D02*
X8542381Y-1306386D01*
X8618571Y-1386386D02*
X8580476Y-1386386D01*
X8580476Y-1386386D02*
X8580476Y-1306386D01*
X8633809Y-1306386D02*
X8679524Y-1306386D01*
X8656667Y-1386386D02*
X8656667Y-1306386D01*
X8129048Y-1636385D02*
X8129048Y-1556385D01*
X8129048Y-1594481D02*
X8174762Y-1594481D01*
X8174762Y-1636385D02*
X8174762Y-1556385D01*
X8209047Y-1632576D02*
X8220476Y-1636385D01*
X8220476Y-1636385D02*
X8239524Y-1636385D01*
X8239524Y-1636385D02*
X8247143Y-1632576D01*
X8247143Y-1632576D02*
X8250952Y-1628766D01*
X8250952Y-1628766D02*
X8254762Y-1621147D01*
X8254762Y-1621147D02*
X8254762Y-1613528D01*
X8254762Y-1613528D02*
X8250952Y-1605909D01*
X8250952Y-1605909D02*
X8247143Y-1602100D01*
X8247143Y-1602100D02*
X8239524Y-1598290D01*
X8239524Y-1598290D02*
X8224286Y-1594481D01*
X8224286Y-1594481D02*
X8216667Y-1590671D01*
X8216667Y-1590671D02*
X8212857Y-1586862D01*
X8212857Y-1586862D02*
X8209047Y-1579243D01*
X8209047Y-1579243D02*
X8209047Y-1571624D01*
X8209047Y-1571624D02*
X8212857Y-1564004D01*
X8212857Y-1564004D02*
X8216667Y-1560195D01*
X8216667Y-1560195D02*
X8224286Y-1556385D01*
X8224286Y-1556385D02*
X8243333Y-1556385D01*
X8243333Y-1556385D02*
X8254762Y-1560195D01*
X8350000Y-1636385D02*
X8350000Y-1556385D01*
X8350000Y-1556385D02*
X8376667Y-1613528D01*
X8376667Y-1613528D02*
X8403333Y-1556385D01*
X8403333Y-1556385D02*
X8403333Y-1636385D01*
X8456667Y-1556385D02*
X8471905Y-1556385D01*
X8471905Y-1556385D02*
X8479524Y-1560195D01*
X8479524Y-1560195D02*
X8487143Y-1567814D01*
X8487143Y-1567814D02*
X8490952Y-1583052D01*
X8490952Y-1583052D02*
X8490952Y-1609719D01*
X8490952Y-1609719D02*
X8487143Y-1624957D01*
X8487143Y-1624957D02*
X8479524Y-1632576D01*
X8479524Y-1632576D02*
X8471905Y-1636385D01*
X8471905Y-1636385D02*
X8456667Y-1636385D01*
X8456667Y-1636385D02*
X8449048Y-1632576D01*
X8449048Y-1632576D02*
X8441429Y-1624957D01*
X8441429Y-1624957D02*
X8437619Y-1609719D01*
X8437619Y-1609719D02*
X8437619Y-1583052D01*
X8437619Y-1583052D02*
X8441429Y-1567814D01*
X8441429Y-1567814D02*
X8449048Y-1560195D01*
X8449048Y-1560195D02*
X8456667Y-1556385D01*
X8525238Y-1636385D02*
X8525238Y-1556385D01*
X8525238Y-1556385D02*
X8570952Y-1636385D01*
X8570952Y-1636385D02*
X8570952Y-1556385D01*
X8121429Y-1878766D02*
X8117619Y-1882576D01*
X8117619Y-1882576D02*
X8106190Y-1886385D01*
X8106190Y-1886385D02*
X8098571Y-1886385D01*
X8098571Y-1886385D02*
X8087143Y-1882576D01*
X8087143Y-1882576D02*
X8079524Y-1874957D01*
X8079524Y-1874957D02*
X8075714Y-1867338D01*
X8075714Y-1867338D02*
X8071905Y-1852100D01*
X8071905Y-1852100D02*
X8071905Y-1840671D01*
X8071905Y-1840671D02*
X8075714Y-1825433D01*
X8075714Y-1825433D02*
X8079524Y-1817814D01*
X8079524Y-1817814D02*
X8087143Y-1810195D01*
X8087143Y-1810195D02*
X8098571Y-1806385D01*
X8098571Y-1806385D02*
X8106190Y-1806385D01*
X8106190Y-1806385D02*
X8117619Y-1810195D01*
X8117619Y-1810195D02*
X8121429Y-1814004D01*
X8170952Y-1806385D02*
X8186190Y-1806385D01*
X8186190Y-1806385D02*
X8193809Y-1810195D01*
X8193809Y-1810195D02*
X8201429Y-1817814D01*
X8201429Y-1817814D02*
X8205238Y-1833052D01*
X8205238Y-1833052D02*
X8205238Y-1859719D01*
X8205238Y-1859719D02*
X8201429Y-1874957D01*
X8201429Y-1874957D02*
X8193809Y-1882576D01*
X8193809Y-1882576D02*
X8186190Y-1886385D01*
X8186190Y-1886385D02*
X8170952Y-1886385D01*
X8170952Y-1886385D02*
X8163333Y-1882576D01*
X8163333Y-1882576D02*
X8155714Y-1874957D01*
X8155714Y-1874957D02*
X8151905Y-1859719D01*
X8151905Y-1859719D02*
X8151905Y-1833052D01*
X8151905Y-1833052D02*
X8155714Y-1817814D01*
X8155714Y-1817814D02*
X8163333Y-1810195D01*
X8163333Y-1810195D02*
X8170952Y-1806385D01*
X8239524Y-1886385D02*
X8239524Y-1806385D01*
X8315714Y-1886385D02*
X8277619Y-1886385D01*
X8277619Y-1886385D02*
X8277619Y-1806385D01*
X8403333Y-1886385D02*
X8403333Y-1806385D01*
X8403333Y-1806385D02*
X8430000Y-1863528D01*
X8430000Y-1863528D02*
X8456667Y-1806385D01*
X8456667Y-1806385D02*
X8456667Y-1886385D01*
X8510000Y-1806385D02*
X8525238Y-1806385D01*
X8525238Y-1806385D02*
X8532857Y-1810195D01*
X8532857Y-1810195D02*
X8540476Y-1817814D01*
X8540476Y-1817814D02*
X8544286Y-1833052D01*
X8544286Y-1833052D02*
X8544286Y-1859719D01*
X8544286Y-1859719D02*
X8540476Y-1874957D01*
X8540476Y-1874957D02*
X8532857Y-1882576D01*
X8532857Y-1882576D02*
X8525238Y-1886385D01*
X8525238Y-1886385D02*
X8510000Y-1886385D01*
X8510000Y-1886385D02*
X8502381Y-1882576D01*
X8502381Y-1882576D02*
X8494762Y-1874957D01*
X8494762Y-1874957D02*
X8490952Y-1859719D01*
X8490952Y-1859719D02*
X8490952Y-1833052D01*
X8490952Y-1833052D02*
X8494762Y-1817814D01*
X8494762Y-1817814D02*
X8502381Y-1810195D01*
X8502381Y-1810195D02*
X8510000Y-1806385D01*
X8578571Y-1886385D02*
X8578571Y-1806385D01*
X8578571Y-1806385D02*
X8624286Y-1886385D01*
X8624286Y-1886385D02*
X8624286Y-1806385D01*
X3965476Y-4140264D02*
X4028333Y-4140264D01*
X3996905Y-4250264D02*
X3996905Y-4140264D01*
X4065000Y-4250264D02*
X4065000Y-4140264D01*
X4065000Y-4192645D02*
X4127857Y-4192645D01*
X4127857Y-4250264D02*
X4127857Y-4140264D01*
X4180238Y-4192645D02*
X4216905Y-4192645D01*
X4232619Y-4250264D02*
X4180238Y-4250264D01*
X4180238Y-4250264D02*
X4180238Y-4140264D01*
X4180238Y-4140264D02*
X4232619Y-4140264D01*
X4342619Y-4250264D02*
X4305952Y-4197883D01*
X4279762Y-4250264D02*
X4279762Y-4140264D01*
X4279762Y-4140264D02*
X4321667Y-4140264D01*
X4321667Y-4140264D02*
X4332143Y-4145502D01*
X4332143Y-4145502D02*
X4337381Y-4150740D01*
X4337381Y-4150740D02*
X4342619Y-4161216D01*
X4342619Y-4161216D02*
X4342619Y-4176931D01*
X4342619Y-4176931D02*
X4337381Y-4187407D01*
X4337381Y-4187407D02*
X4332143Y-4192645D01*
X4332143Y-4192645D02*
X4321667Y-4197883D01*
X4321667Y-4197883D02*
X4279762Y-4197883D01*
X4389762Y-4250264D02*
X4389762Y-4140264D01*
X4389762Y-4140264D02*
X4426429Y-4218836D01*
X4426429Y-4218836D02*
X4463095Y-4140264D01*
X4463095Y-4140264D02*
X4463095Y-4250264D01*
X4510238Y-4218836D02*
X4562619Y-4218836D01*
X4499762Y-4250264D02*
X4536429Y-4140264D01*
X4536429Y-4140264D02*
X4573095Y-4250264D01*
X4662143Y-4250264D02*
X4609762Y-4250264D01*
X4609762Y-4250264D02*
X4609762Y-4140264D01*
X4777381Y-4245026D02*
X4793095Y-4250264D01*
X4793095Y-4250264D02*
X4819286Y-4250264D01*
X4819286Y-4250264D02*
X4829762Y-4245026D01*
X4829762Y-4245026D02*
X4835000Y-4239788D01*
X4835000Y-4239788D02*
X4840238Y-4229312D01*
X4840238Y-4229312D02*
X4840238Y-4218836D01*
X4840238Y-4218836D02*
X4835000Y-4208359D01*
X4835000Y-4208359D02*
X4829762Y-4203121D01*
X4829762Y-4203121D02*
X4819286Y-4197883D01*
X4819286Y-4197883D02*
X4798333Y-4192645D01*
X4798333Y-4192645D02*
X4787857Y-4187407D01*
X4787857Y-4187407D02*
X4782619Y-4182169D01*
X4782619Y-4182169D02*
X4777381Y-4171693D01*
X4777381Y-4171693D02*
X4777381Y-4161216D01*
X4777381Y-4161216D02*
X4782619Y-4150740D01*
X4782619Y-4150740D02*
X4787857Y-4145502D01*
X4787857Y-4145502D02*
X4798333Y-4140264D01*
X4798333Y-4140264D02*
X4824524Y-4140264D01*
X4824524Y-4140264D02*
X4840238Y-4145502D01*
X4887381Y-4192645D02*
X4924048Y-4192645D01*
X4939762Y-4250264D02*
X4887381Y-4250264D01*
X4887381Y-4250264D02*
X4887381Y-4140264D01*
X4887381Y-4140264D02*
X4939762Y-4140264D01*
X4986905Y-4250264D02*
X4986905Y-4140264D01*
X4986905Y-4140264D02*
X5049762Y-4250264D01*
X5049762Y-4250264D02*
X5049762Y-4140264D01*
X5096905Y-4245026D02*
X5112619Y-4250264D01*
X5112619Y-4250264D02*
X5138810Y-4250264D01*
X5138810Y-4250264D02*
X5149286Y-4245026D01*
X5149286Y-4245026D02*
X5154524Y-4239788D01*
X5154524Y-4239788D02*
X5159762Y-4229312D01*
X5159762Y-4229312D02*
X5159762Y-4218836D01*
X5159762Y-4218836D02*
X5154524Y-4208359D01*
X5154524Y-4208359D02*
X5149286Y-4203121D01*
X5149286Y-4203121D02*
X5138810Y-4197883D01*
X5138810Y-4197883D02*
X5117857Y-4192645D01*
X5117857Y-4192645D02*
X5107381Y-4187407D01*
X5107381Y-4187407D02*
X5102143Y-4182169D01*
X5102143Y-4182169D02*
X5096905Y-4171693D01*
X5096905Y-4171693D02*
X5096905Y-4161216D01*
X5096905Y-4161216D02*
X5102143Y-4150740D01*
X5102143Y-4150740D02*
X5107381Y-4145502D01*
X5107381Y-4145502D02*
X5117857Y-4140264D01*
X5117857Y-4140264D02*
X5144048Y-4140264D01*
X5144048Y-4140264D02*
X5159762Y-4145502D01*
X5206905Y-4192645D02*
X5243571Y-4192645D01*
X5259286Y-4250264D02*
X5206905Y-4250264D01*
X5206905Y-4250264D02*
X5206905Y-4140264D01*
X5206905Y-4140264D02*
X5259286Y-4140264D01*
X5468810Y-4135026D02*
X5374524Y-4276455D01*
X5652143Y-4250264D02*
X5615476Y-4197883D01*
X5589286Y-4250264D02*
X5589286Y-4140264D01*
X5589286Y-4140264D02*
X5631190Y-4140264D01*
X5631190Y-4140264D02*
X5641667Y-4145502D01*
X5641667Y-4145502D02*
X5646905Y-4150740D01*
X5646905Y-4150740D02*
X5652143Y-4161216D01*
X5652143Y-4161216D02*
X5652143Y-4176931D01*
X5652143Y-4176931D02*
X5646905Y-4187407D01*
X5646905Y-4187407D02*
X5641667Y-4192645D01*
X5641667Y-4192645D02*
X5631190Y-4197883D01*
X5631190Y-4197883D02*
X5589286Y-4197883D01*
X5741190Y-4245026D02*
X5730714Y-4250264D01*
X5730714Y-4250264D02*
X5709762Y-4250264D01*
X5709762Y-4250264D02*
X5699286Y-4245026D01*
X5699286Y-4245026D02*
X5694047Y-4234550D01*
X5694047Y-4234550D02*
X5694047Y-4192645D01*
X5694047Y-4192645D02*
X5699286Y-4182169D01*
X5699286Y-4182169D02*
X5709762Y-4176931D01*
X5709762Y-4176931D02*
X5730714Y-4176931D01*
X5730714Y-4176931D02*
X5741190Y-4182169D01*
X5741190Y-4182169D02*
X5746428Y-4192645D01*
X5746428Y-4192645D02*
X5746428Y-4203121D01*
X5746428Y-4203121D02*
X5694047Y-4213597D01*
X5783095Y-4176931D02*
X5809286Y-4250264D01*
X5809286Y-4250264D02*
X5835476Y-4176931D01*
X5997857Y-4192645D02*
X6013571Y-4197883D01*
X6013571Y-4197883D02*
X6018809Y-4203121D01*
X6018809Y-4203121D02*
X6024047Y-4213597D01*
X6024047Y-4213597D02*
X6024047Y-4229312D01*
X6024047Y-4229312D02*
X6018809Y-4239788D01*
X6018809Y-4239788D02*
X6013571Y-4245026D01*
X6013571Y-4245026D02*
X6003095Y-4250264D01*
X6003095Y-4250264D02*
X5961190Y-4250264D01*
X5961190Y-4250264D02*
X5961190Y-4140264D01*
X5961190Y-4140264D02*
X5997857Y-4140264D01*
X5997857Y-4140264D02*
X6008333Y-4145502D01*
X6008333Y-4145502D02*
X6013571Y-4150740D01*
X6013571Y-4150740D02*
X6018809Y-4161216D01*
X6018809Y-4161216D02*
X6018809Y-4171693D01*
X6018809Y-4171693D02*
X6013571Y-4182169D01*
X6013571Y-4182169D02*
X6008333Y-4187407D01*
X6008333Y-4187407D02*
X5997857Y-4192645D01*
X5997857Y-4192645D02*
X5961190Y-4192645D01*
X4085000Y-2532440D02*
X4080714Y-2536726D01*
X4080714Y-2536726D02*
X4067857Y-2541012D01*
X4067857Y-2541012D02*
X4059286Y-2541012D01*
X4059286Y-2541012D02*
X4046429Y-2536726D01*
X4046429Y-2536726D02*
X4037857Y-2528155D01*
X4037857Y-2528155D02*
X4033571Y-2519583D01*
X4033571Y-2519583D02*
X4029286Y-2502440D01*
X4029286Y-2502440D02*
X4029286Y-2489583D01*
X4029286Y-2489583D02*
X4033571Y-2472440D01*
X4033571Y-2472440D02*
X4037857Y-2463869D01*
X4037857Y-2463869D02*
X4046429Y-2455297D01*
X4046429Y-2455297D02*
X4059286Y-2451012D01*
X4059286Y-2451012D02*
X4067857Y-2451012D01*
X4067857Y-2451012D02*
X4080714Y-2455297D01*
X4080714Y-2455297D02*
X4085000Y-2459583D01*
X4162143Y-2481012D02*
X4162143Y-2541012D01*
X4140714Y-2446726D02*
X4119286Y-2511012D01*
X4119286Y-2511012D02*
X4175000Y-2511012D01*
X5985000Y-1782440D02*
X5980714Y-1786726D01*
X5980714Y-1786726D02*
X5967857Y-1791012D01*
X5967857Y-1791012D02*
X5959286Y-1791012D01*
X5959286Y-1791012D02*
X5946429Y-1786726D01*
X5946429Y-1786726D02*
X5937857Y-1778154D01*
X5937857Y-1778154D02*
X5933571Y-1769583D01*
X5933571Y-1769583D02*
X5929286Y-1752440D01*
X5929286Y-1752440D02*
X5929286Y-1739583D01*
X5929286Y-1739583D02*
X5933571Y-1722440D01*
X5933571Y-1722440D02*
X5937857Y-1713869D01*
X5937857Y-1713869D02*
X5946429Y-1705297D01*
X5946429Y-1705297D02*
X5959286Y-1701012D01*
X5959286Y-1701012D02*
X5967857Y-1701012D01*
X5967857Y-1701012D02*
X5980714Y-1705297D01*
X5980714Y-1705297D02*
X5985000Y-1709583D01*
X6066429Y-1701012D02*
X6023571Y-1701012D01*
X6023571Y-1701012D02*
X6019286Y-1743869D01*
X6019286Y-1743869D02*
X6023571Y-1739583D01*
X6023571Y-1739583D02*
X6032143Y-1735297D01*
X6032143Y-1735297D02*
X6053571Y-1735297D01*
X6053571Y-1735297D02*
X6062143Y-1739583D01*
X6062143Y-1739583D02*
X6066429Y-1743869D01*
X6066429Y-1743869D02*
X6070714Y-1752440D01*
X6070714Y-1752440D02*
X6070714Y-1773869D01*
X6070714Y-1773869D02*
X6066429Y-1782440D01*
X6066429Y-1782440D02*
X6062143Y-1786726D01*
X6062143Y-1786726D02*
X6053571Y-1791012D01*
X6053571Y-1791012D02*
X6032143Y-1791012D01*
X6032143Y-1791012D02*
X6023571Y-1786726D01*
X6023571Y-1786726D02*
X6019286Y-1782440D01*
X4085000Y-732440D02*
X4080714Y-736726D01*
X4080714Y-736726D02*
X4067857Y-741012D01*
X4067857Y-741012D02*
X4059286Y-741012D01*
X4059286Y-741012D02*
X4046429Y-736726D01*
X4046429Y-736726D02*
X4037857Y-728154D01*
X4037857Y-728154D02*
X4033571Y-719583D01*
X4033571Y-719583D02*
X4029286Y-702440D01*
X4029286Y-702440D02*
X4029286Y-689583D01*
X4029286Y-689583D02*
X4033571Y-672440D01*
X4033571Y-672440D02*
X4037857Y-663869D01*
X4037857Y-663869D02*
X4046429Y-655297D01*
X4046429Y-655297D02*
X4059286Y-651012D01*
X4059286Y-651012D02*
X4067857Y-651012D01*
X4067857Y-651012D02*
X4080714Y-655297D01*
X4080714Y-655297D02*
X4085000Y-659583D01*
X4119286Y-659583D02*
X4123571Y-655297D01*
X4123571Y-655297D02*
X4132143Y-651012D01*
X4132143Y-651012D02*
X4153571Y-651012D01*
X4153571Y-651012D02*
X4162143Y-655297D01*
X4162143Y-655297D02*
X4166429Y-659583D01*
X4166429Y-659583D02*
X4170714Y-668155D01*
X4170714Y-668155D02*
X4170714Y-676726D01*
X4170714Y-676726D02*
X4166429Y-689583D01*
X4166429Y-689583D02*
X4115000Y-741012D01*
X4115000Y-741012D02*
X4170714Y-741012D01*
X2685000Y-2841012D02*
X2655000Y-2798154D01*
X2633571Y-2841012D02*
X2633571Y-2751012D01*
X2633571Y-2751012D02*
X2667857Y-2751012D01*
X2667857Y-2751012D02*
X2676429Y-2755297D01*
X2676429Y-2755297D02*
X2680714Y-2759583D01*
X2680714Y-2759583D02*
X2685000Y-2768155D01*
X2685000Y-2768155D02*
X2685000Y-2781012D01*
X2685000Y-2781012D02*
X2680714Y-2789583D01*
X2680714Y-2789583D02*
X2676429Y-2793869D01*
X2676429Y-2793869D02*
X2667857Y-2798154D01*
X2667857Y-2798154D02*
X2633571Y-2798154D01*
X2762143Y-2751012D02*
X2745000Y-2751012D01*
X2745000Y-2751012D02*
X2736429Y-2755297D01*
X2736429Y-2755297D02*
X2732143Y-2759583D01*
X2732143Y-2759583D02*
X2723571Y-2772440D01*
X2723571Y-2772440D02*
X2719286Y-2789583D01*
X2719286Y-2789583D02*
X2719286Y-2823869D01*
X2719286Y-2823869D02*
X2723571Y-2832440D01*
X2723571Y-2832440D02*
X2727857Y-2836726D01*
X2727857Y-2836726D02*
X2736429Y-2841012D01*
X2736429Y-2841012D02*
X2753571Y-2841012D01*
X2753571Y-2841012D02*
X2762143Y-2836726D01*
X2762143Y-2836726D02*
X2766429Y-2832440D01*
X2766429Y-2832440D02*
X2770714Y-2823869D01*
X2770714Y-2823869D02*
X2770714Y-2802440D01*
X2770714Y-2802440D02*
X2766429Y-2793869D01*
X2766429Y-2793869D02*
X2762143Y-2789583D01*
X2762143Y-2789583D02*
X2753571Y-2785297D01*
X2753571Y-2785297D02*
X2736429Y-2785297D01*
X2736429Y-2785297D02*
X2727857Y-2789583D01*
X2727857Y-2789583D02*
X2723571Y-2793869D01*
X2723571Y-2793869D02*
X2719286Y-2802440D01*
X7985000Y-732440D02*
X7980714Y-736726D01*
X7980714Y-736726D02*
X7967857Y-741012D01*
X7967857Y-741012D02*
X7959286Y-741012D01*
X7959286Y-741012D02*
X7946429Y-736726D01*
X7946429Y-736726D02*
X7937857Y-728154D01*
X7937857Y-728154D02*
X7933571Y-719583D01*
X7933571Y-719583D02*
X7929286Y-702440D01*
X7929286Y-702440D02*
X7929286Y-689583D01*
X7929286Y-689583D02*
X7933571Y-672440D01*
X7933571Y-672440D02*
X7937857Y-663869D01*
X7937857Y-663869D02*
X7946429Y-655297D01*
X7946429Y-655297D02*
X7959286Y-651012D01*
X7959286Y-651012D02*
X7967857Y-651012D01*
X7967857Y-651012D02*
X7980714Y-655297D01*
X7980714Y-655297D02*
X7985000Y-659583D01*
X8015000Y-651012D02*
X8075000Y-651012D01*
X8075000Y-651012D02*
X8036429Y-741012D01*
X7985000Y-2532440D02*
X7980714Y-2536726D01*
X7980714Y-2536726D02*
X7967857Y-2541012D01*
X7967857Y-2541012D02*
X7959286Y-2541012D01*
X7959286Y-2541012D02*
X7946429Y-2536726D01*
X7946429Y-2536726D02*
X7937857Y-2528155D01*
X7937857Y-2528155D02*
X7933571Y-2519583D01*
X7933571Y-2519583D02*
X7929286Y-2502440D01*
X7929286Y-2502440D02*
X7929286Y-2489583D01*
X7929286Y-2489583D02*
X7933571Y-2472440D01*
X7933571Y-2472440D02*
X7937857Y-2463869D01*
X7937857Y-2463869D02*
X7946429Y-2455297D01*
X7946429Y-2455297D02*
X7959286Y-2451012D01*
X7959286Y-2451012D02*
X7967857Y-2451012D01*
X7967857Y-2451012D02*
X7980714Y-2455297D01*
X7980714Y-2455297D02*
X7985000Y-2459583D01*
X8036429Y-2489583D02*
X8027857Y-2485297D01*
X8027857Y-2485297D02*
X8023571Y-2481012D01*
X8023571Y-2481012D02*
X8019286Y-2472440D01*
X8019286Y-2472440D02*
X8019286Y-2468155D01*
X8019286Y-2468155D02*
X8023571Y-2459583D01*
X8023571Y-2459583D02*
X8027857Y-2455297D01*
X8027857Y-2455297D02*
X8036429Y-2451012D01*
X8036429Y-2451012D02*
X8053571Y-2451012D01*
X8053571Y-2451012D02*
X8062143Y-2455297D01*
X8062143Y-2455297D02*
X8066429Y-2459583D01*
X8066429Y-2459583D02*
X8070714Y-2468155D01*
X8070714Y-2468155D02*
X8070714Y-2472440D01*
X8070714Y-2472440D02*
X8066429Y-2481012D01*
X8066429Y-2481012D02*
X8062143Y-2485297D01*
X8062143Y-2485297D02*
X8053571Y-2489583D01*
X8053571Y-2489583D02*
X8036429Y-2489583D01*
X8036429Y-2489583D02*
X8027857Y-2493869D01*
X8027857Y-2493869D02*
X8023571Y-2498155D01*
X8023571Y-2498155D02*
X8019286Y-2506726D01*
X8019286Y-2506726D02*
X8019286Y-2523869D01*
X8019286Y-2523869D02*
X8023571Y-2532440D01*
X8023571Y-2532440D02*
X8027857Y-2536726D01*
X8027857Y-2536726D02*
X8036429Y-2541012D01*
X8036429Y-2541012D02*
X8053571Y-2541012D01*
X8053571Y-2541012D02*
X8062143Y-2536726D01*
X8062143Y-2536726D02*
X8066429Y-2532440D01*
X8066429Y-2532440D02*
X8070714Y-2523869D01*
X8070714Y-2523869D02*
X8070714Y-2506726D01*
X8070714Y-2506726D02*
X8066429Y-2498155D01*
X8066429Y-2498155D02*
X8062143Y-2493869D01*
X8062143Y-2493869D02*
X8053571Y-2489583D01*
X2685000Y-1041012D02*
X2655000Y-998154D01*
X2633571Y-1041012D02*
X2633571Y-951012D01*
X2633571Y-951012D02*
X2667857Y-951012D01*
X2667857Y-951012D02*
X2676429Y-955297D01*
X2676429Y-955297D02*
X2680714Y-959583D01*
X2680714Y-959583D02*
X2685000Y-968154D01*
X2685000Y-968154D02*
X2685000Y-981012D01*
X2685000Y-981012D02*
X2680714Y-989583D01*
X2680714Y-989583D02*
X2676429Y-993869D01*
X2676429Y-993869D02*
X2667857Y-998154D01*
X2667857Y-998154D02*
X2633571Y-998154D01*
X2719286Y-959583D02*
X2723571Y-955297D01*
X2723571Y-955297D02*
X2732143Y-951012D01*
X2732143Y-951012D02*
X2753571Y-951012D01*
X2753571Y-951012D02*
X2762143Y-955297D01*
X2762143Y-955297D02*
X2766429Y-959583D01*
X2766429Y-959583D02*
X2770714Y-968154D01*
X2770714Y-968154D02*
X2770714Y-976726D01*
X2770714Y-976726D02*
X2766429Y-989583D01*
X2766429Y-989583D02*
X2715000Y-1041012D01*
X2715000Y-1041012D02*
X2770714Y-1041012D01*
X2285000Y-1691012D02*
X2255000Y-1648154D01*
X2233571Y-1691012D02*
X2233571Y-1601012D01*
X2233571Y-1601012D02*
X2267857Y-1601012D01*
X2267857Y-1601012D02*
X2276429Y-1605297D01*
X2276429Y-1605297D02*
X2280714Y-1609583D01*
X2280714Y-1609583D02*
X2285000Y-1618154D01*
X2285000Y-1618154D02*
X2285000Y-1631012D01*
X2285000Y-1631012D02*
X2280714Y-1639583D01*
X2280714Y-1639583D02*
X2276429Y-1643869D01*
X2276429Y-1643869D02*
X2267857Y-1648154D01*
X2267857Y-1648154D02*
X2233571Y-1648154D01*
X2315000Y-1601012D02*
X2370714Y-1601012D01*
X2370714Y-1601012D02*
X2340714Y-1635297D01*
X2340714Y-1635297D02*
X2353571Y-1635297D01*
X2353571Y-1635297D02*
X2362143Y-1639583D01*
X2362143Y-1639583D02*
X2366429Y-1643869D01*
X2366429Y-1643869D02*
X2370714Y-1652440D01*
X2370714Y-1652440D02*
X2370714Y-1673869D01*
X2370714Y-1673869D02*
X2366429Y-1682440D01*
X2366429Y-1682440D02*
X2362143Y-1686726D01*
X2362143Y-1686726D02*
X2353571Y-1691012D01*
X2353571Y-1691012D02*
X2327857Y-1691012D01*
X2327857Y-1691012D02*
X2319286Y-1686726D01*
X2319286Y-1686726D02*
X2315000Y-1682440D01*
X1485000Y-1832440D02*
X1480714Y-1836726D01*
X1480714Y-1836726D02*
X1467857Y-1841012D01*
X1467857Y-1841012D02*
X1459286Y-1841012D01*
X1459286Y-1841012D02*
X1446429Y-1836726D01*
X1446429Y-1836726D02*
X1437857Y-1828154D01*
X1437857Y-1828154D02*
X1433571Y-1819583D01*
X1433571Y-1819583D02*
X1429286Y-1802440D01*
X1429286Y-1802440D02*
X1429286Y-1789583D01*
X1429286Y-1789583D02*
X1433571Y-1772440D01*
X1433571Y-1772440D02*
X1437857Y-1763869D01*
X1437857Y-1763869D02*
X1446429Y-1755297D01*
X1446429Y-1755297D02*
X1459286Y-1751012D01*
X1459286Y-1751012D02*
X1467857Y-1751012D01*
X1467857Y-1751012D02*
X1480714Y-1755297D01*
X1480714Y-1755297D02*
X1485000Y-1759583D01*
X1570714Y-1841012D02*
X1519286Y-1841012D01*
X1545000Y-1841012D02*
X1545000Y-1751012D01*
X1545000Y-1751012D02*
X1536429Y-1763869D01*
X1536429Y-1763869D02*
X1527857Y-1772440D01*
X1527857Y-1772440D02*
X1519286Y-1776726D01*
X2285000Y-3491012D02*
X2255000Y-3448154D01*
X2233571Y-3491012D02*
X2233571Y-3401012D01*
X2233571Y-3401012D02*
X2267857Y-3401012D01*
X2267857Y-3401012D02*
X2276429Y-3405297D01*
X2276429Y-3405297D02*
X2280714Y-3409583D01*
X2280714Y-3409583D02*
X2285000Y-3418154D01*
X2285000Y-3418154D02*
X2285000Y-3431012D01*
X2285000Y-3431012D02*
X2280714Y-3439583D01*
X2280714Y-3439583D02*
X2276429Y-3443869D01*
X2276429Y-3443869D02*
X2267857Y-3448154D01*
X2267857Y-3448154D02*
X2233571Y-3448154D01*
X2315000Y-3401012D02*
X2375000Y-3401012D01*
X2375000Y-3401012D02*
X2336429Y-3491012D01*
X1485000Y-3632440D02*
X1480714Y-3636726D01*
X1480714Y-3636726D02*
X1467857Y-3641012D01*
X1467857Y-3641012D02*
X1459286Y-3641012D01*
X1459286Y-3641012D02*
X1446429Y-3636726D01*
X1446429Y-3636726D02*
X1437857Y-3628154D01*
X1437857Y-3628154D02*
X1433571Y-3619583D01*
X1433571Y-3619583D02*
X1429286Y-3602440D01*
X1429286Y-3602440D02*
X1429286Y-3589583D01*
X1429286Y-3589583D02*
X1433571Y-3572440D01*
X1433571Y-3572440D02*
X1437857Y-3563869D01*
X1437857Y-3563869D02*
X1446429Y-3555297D01*
X1446429Y-3555297D02*
X1459286Y-3551012D01*
X1459286Y-3551012D02*
X1467857Y-3551012D01*
X1467857Y-3551012D02*
X1480714Y-3555297D01*
X1480714Y-3555297D02*
X1485000Y-3559583D01*
X1515000Y-3551012D02*
X1570714Y-3551012D01*
X1570714Y-3551012D02*
X1540714Y-3585297D01*
X1540714Y-3585297D02*
X1553571Y-3585297D01*
X1553571Y-3585297D02*
X1562143Y-3589583D01*
X1562143Y-3589583D02*
X1566429Y-3593869D01*
X1566429Y-3593869D02*
X1570714Y-3602440D01*
X1570714Y-3602440D02*
X1570714Y-3623869D01*
X1570714Y-3623869D02*
X1566429Y-3632440D01*
X1566429Y-3632440D02*
X1562143Y-3636726D01*
X1562143Y-3636726D02*
X1553571Y-3641012D01*
X1553571Y-3641012D02*
X1527857Y-3641012D01*
X1527857Y-3641012D02*
X1519286Y-3636726D01*
X1519286Y-3636726D02*
X1515000Y-3632440D01*
X5431429Y-1551012D02*
X5431429Y-1623869D01*
X5431429Y-1623869D02*
X5435714Y-1632440D01*
X5435714Y-1632440D02*
X5440000Y-1636726D01*
X5440000Y-1636726D02*
X5448571Y-1641012D01*
X5448571Y-1641012D02*
X5465714Y-1641012D01*
X5465714Y-1641012D02*
X5474286Y-1636726D01*
X5474286Y-1636726D02*
X5478571Y-1632440D01*
X5478571Y-1632440D02*
X5482857Y-1623869D01*
X5482857Y-1623869D02*
X5482857Y-1551012D01*
X5517143Y-1551012D02*
X5572857Y-1551012D01*
X5572857Y-1551012D02*
X5542857Y-1585297D01*
X5542857Y-1585297D02*
X5555714Y-1585297D01*
X5555714Y-1585297D02*
X5564286Y-1589583D01*
X5564286Y-1589583D02*
X5568571Y-1593869D01*
X5568571Y-1593869D02*
X5572857Y-1602440D01*
X5572857Y-1602440D02*
X5572857Y-1623869D01*
X5572857Y-1623869D02*
X5568571Y-1632440D01*
X5568571Y-1632440D02*
X5564286Y-1636726D01*
X5564286Y-1636726D02*
X5555714Y-1641012D01*
X5555714Y-1641012D02*
X5530000Y-1641012D01*
X5530000Y-1641012D02*
X5521429Y-1636726D01*
X5521429Y-1636726D02*
X5517143Y-1632440D01*
X5431429Y-3351012D02*
X5431429Y-3423869D01*
X5431429Y-3423869D02*
X5435714Y-3432440D01*
X5435714Y-3432440D02*
X5440000Y-3436726D01*
X5440000Y-3436726D02*
X5448571Y-3441012D01*
X5448571Y-3441012D02*
X5465714Y-3441012D01*
X5465714Y-3441012D02*
X5474286Y-3436726D01*
X5474286Y-3436726D02*
X5478571Y-3432440D01*
X5478571Y-3432440D02*
X5482857Y-3423869D01*
X5482857Y-3423869D02*
X5482857Y-3351012D01*
X5564286Y-3381012D02*
X5564286Y-3441012D01*
X5542857Y-3346726D02*
X5521429Y-3411012D01*
X5521429Y-3411012D02*
X5577143Y-3411012D01*
X3531428Y-3351012D02*
X3531428Y-3423869D01*
X3531428Y-3423869D02*
X3535714Y-3432440D01*
X3535714Y-3432440D02*
X3540000Y-3436726D01*
X3540000Y-3436726D02*
X3548571Y-3441012D01*
X3548571Y-3441012D02*
X3565714Y-3441012D01*
X3565714Y-3441012D02*
X3574286Y-3436726D01*
X3574286Y-3436726D02*
X3578571Y-3432440D01*
X3578571Y-3432440D02*
X3582857Y-3423869D01*
X3582857Y-3423869D02*
X3582857Y-3351012D01*
X3621428Y-3359583D02*
X3625714Y-3355297D01*
X3625714Y-3355297D02*
X3634286Y-3351012D01*
X3634286Y-3351012D02*
X3655714Y-3351012D01*
X3655714Y-3351012D02*
X3664286Y-3355297D01*
X3664286Y-3355297D02*
X3668571Y-3359583D01*
X3668571Y-3359583D02*
X3672857Y-3368154D01*
X3672857Y-3368154D02*
X3672857Y-3376726D01*
X3672857Y-3376726D02*
X3668571Y-3389583D01*
X3668571Y-3389583D02*
X3617143Y-3441012D01*
X3617143Y-3441012D02*
X3672857Y-3441012D01*
X7431428Y-3351012D02*
X7431428Y-3423869D01*
X7431428Y-3423869D02*
X7435714Y-3432440D01*
X7435714Y-3432440D02*
X7440000Y-3436726D01*
X7440000Y-3436726D02*
X7448571Y-3441012D01*
X7448571Y-3441012D02*
X7465714Y-3441012D01*
X7465714Y-3441012D02*
X7474286Y-3436726D01*
X7474286Y-3436726D02*
X7478571Y-3432440D01*
X7478571Y-3432440D02*
X7482857Y-3423869D01*
X7482857Y-3423869D02*
X7482857Y-3351012D01*
X7564286Y-3351012D02*
X7547143Y-3351012D01*
X7547143Y-3351012D02*
X7538571Y-3355297D01*
X7538571Y-3355297D02*
X7534286Y-3359583D01*
X7534286Y-3359583D02*
X7525714Y-3372440D01*
X7525714Y-3372440D02*
X7521428Y-3389583D01*
X7521428Y-3389583D02*
X7521428Y-3423869D01*
X7521428Y-3423869D02*
X7525714Y-3432440D01*
X7525714Y-3432440D02*
X7530000Y-3436726D01*
X7530000Y-3436726D02*
X7538571Y-3441012D01*
X7538571Y-3441012D02*
X7555714Y-3441012D01*
X7555714Y-3441012D02*
X7564286Y-3436726D01*
X7564286Y-3436726D02*
X7568571Y-3432440D01*
X7568571Y-3432440D02*
X7572857Y-3423869D01*
X7572857Y-3423869D02*
X7572857Y-3402440D01*
X7572857Y-3402440D02*
X7568571Y-3393869D01*
X7568571Y-3393869D02*
X7564286Y-3389583D01*
X7564286Y-3389583D02*
X7555714Y-3385297D01*
X7555714Y-3385297D02*
X7538571Y-3385297D01*
X7538571Y-3385297D02*
X7530000Y-3389583D01*
X7530000Y-3389583D02*
X7525714Y-3393869D01*
X7525714Y-3393869D02*
X7521428Y-3402440D01*
X570000Y-3451012D02*
X570000Y-3515297D01*
X570000Y-3515297D02*
X565714Y-3528154D01*
X565714Y-3528154D02*
X557143Y-3536726D01*
X557143Y-3536726D02*
X544286Y-3541012D01*
X544286Y-3541012D02*
X535714Y-3541012D01*
X608571Y-3459583D02*
X612857Y-3455297D01*
X612857Y-3455297D02*
X621429Y-3451012D01*
X621429Y-3451012D02*
X642857Y-3451012D01*
X642857Y-3451012D02*
X651429Y-3455297D01*
X651429Y-3455297D02*
X655714Y-3459583D01*
X655714Y-3459583D02*
X660000Y-3468154D01*
X660000Y-3468154D02*
X660000Y-3476726D01*
X660000Y-3476726D02*
X655714Y-3489583D01*
X655714Y-3489583D02*
X604286Y-3541012D01*
X604286Y-3541012D02*
X660000Y-3541012D01*
X7431428Y-1551012D02*
X7431428Y-1623869D01*
X7431428Y-1623869D02*
X7435714Y-1632440D01*
X7435714Y-1632440D02*
X7440000Y-1636726D01*
X7440000Y-1636726D02*
X7448571Y-1641012D01*
X7448571Y-1641012D02*
X7465714Y-1641012D01*
X7465714Y-1641012D02*
X7474286Y-1636726D01*
X7474286Y-1636726D02*
X7478571Y-1632440D01*
X7478571Y-1632440D02*
X7482857Y-1623869D01*
X7482857Y-1623869D02*
X7482857Y-1551012D01*
X7568571Y-1551012D02*
X7525714Y-1551012D01*
X7525714Y-1551012D02*
X7521428Y-1593869D01*
X7521428Y-1593869D02*
X7525714Y-1589583D01*
X7525714Y-1589583D02*
X7534286Y-1585297D01*
X7534286Y-1585297D02*
X7555714Y-1585297D01*
X7555714Y-1585297D02*
X7564286Y-1589583D01*
X7564286Y-1589583D02*
X7568571Y-1593869D01*
X7568571Y-1593869D02*
X7572857Y-1602440D01*
X7572857Y-1602440D02*
X7572857Y-1623869D01*
X7572857Y-1623869D02*
X7568571Y-1632440D01*
X7568571Y-1632440D02*
X7564286Y-1636726D01*
X7564286Y-1636726D02*
X7555714Y-1641012D01*
X7555714Y-1641012D02*
X7534286Y-1641012D01*
X7534286Y-1641012D02*
X7525714Y-1636726D01*
X7525714Y-1636726D02*
X7521428Y-1632440D01*
X3185000Y-341012D02*
X3155000Y-298155D01*
X3133571Y-341012D02*
X3133571Y-251012D01*
X3133571Y-251012D02*
X3167857Y-251012D01*
X3167857Y-251012D02*
X3176429Y-255297D01*
X3176429Y-255297D02*
X3180714Y-259583D01*
X3180714Y-259583D02*
X3185000Y-268155D01*
X3185000Y-268155D02*
X3185000Y-281012D01*
X3185000Y-281012D02*
X3180714Y-289583D01*
X3180714Y-289583D02*
X3176429Y-293869D01*
X3176429Y-293869D02*
X3167857Y-298155D01*
X3167857Y-298155D02*
X3133571Y-298155D01*
X3262143Y-281012D02*
X3262143Y-341012D01*
X3240714Y-246726D02*
X3219286Y-311012D01*
X3219286Y-311012D02*
X3275000Y-311012D01*
X1485000Y-2341012D02*
X1455000Y-2298155D01*
X1433571Y-2341012D02*
X1433571Y-2251012D01*
X1433571Y-2251012D02*
X1467857Y-2251012D01*
X1467857Y-2251012D02*
X1476429Y-2255297D01*
X1476429Y-2255297D02*
X1480714Y-2259583D01*
X1480714Y-2259583D02*
X1485000Y-2268155D01*
X1485000Y-2268155D02*
X1485000Y-2281012D01*
X1485000Y-2281012D02*
X1480714Y-2289583D01*
X1480714Y-2289583D02*
X1476429Y-2293869D01*
X1476429Y-2293869D02*
X1467857Y-2298155D01*
X1467857Y-2298155D02*
X1433571Y-2298155D01*
X1566429Y-2251012D02*
X1523571Y-2251012D01*
X1523571Y-2251012D02*
X1519286Y-2293869D01*
X1519286Y-2293869D02*
X1523571Y-2289583D01*
X1523571Y-2289583D02*
X1532143Y-2285297D01*
X1532143Y-2285297D02*
X1553571Y-2285297D01*
X1553571Y-2285297D02*
X1562143Y-2289583D01*
X1562143Y-2289583D02*
X1566429Y-2293869D01*
X1566429Y-2293869D02*
X1570714Y-2302440D01*
X1570714Y-2302440D02*
X1570714Y-2323869D01*
X1570714Y-2323869D02*
X1566429Y-2332440D01*
X1566429Y-2332440D02*
X1562143Y-2336726D01*
X1562143Y-2336726D02*
X1553571Y-2341012D01*
X1553571Y-2341012D02*
X1532143Y-2341012D01*
X1532143Y-2341012D02*
X1523571Y-2336726D01*
X1523571Y-2336726D02*
X1519286Y-2332440D01*
X6642143Y-2441012D02*
X6612143Y-2398155D01*
X6590714Y-2441012D02*
X6590714Y-2351012D01*
X6590714Y-2351012D02*
X6625000Y-2351012D01*
X6625000Y-2351012D02*
X6633571Y-2355297D01*
X6633571Y-2355297D02*
X6637857Y-2359583D01*
X6637857Y-2359583D02*
X6642143Y-2368155D01*
X6642143Y-2368155D02*
X6642143Y-2381012D01*
X6642143Y-2381012D02*
X6637857Y-2389583D01*
X6637857Y-2389583D02*
X6633571Y-2393869D01*
X6633571Y-2393869D02*
X6625000Y-2398155D01*
X6625000Y-2398155D02*
X6590714Y-2398155D01*
X6727857Y-2441012D02*
X6676428Y-2441012D01*
X6702143Y-2441012D02*
X6702143Y-2351012D01*
X6702143Y-2351012D02*
X6693571Y-2363869D01*
X6693571Y-2363869D02*
X6685000Y-2372440D01*
X6685000Y-2372440D02*
X6676428Y-2376726D01*
X6783571Y-2351012D02*
X6792143Y-2351012D01*
X6792143Y-2351012D02*
X6800714Y-2355297D01*
X6800714Y-2355297D02*
X6805000Y-2359583D01*
X6805000Y-2359583D02*
X6809286Y-2368155D01*
X6809286Y-2368155D02*
X6813571Y-2385297D01*
X6813571Y-2385297D02*
X6813571Y-2406726D01*
X6813571Y-2406726D02*
X6809286Y-2423869D01*
X6809286Y-2423869D02*
X6805000Y-2432440D01*
X6805000Y-2432440D02*
X6800714Y-2436726D01*
X6800714Y-2436726D02*
X6792143Y-2441012D01*
X6792143Y-2441012D02*
X6783571Y-2441012D01*
X6783571Y-2441012D02*
X6775000Y-2436726D01*
X6775000Y-2436726D02*
X6770714Y-2432440D01*
X6770714Y-2432440D02*
X6766428Y-2423869D01*
X6766428Y-2423869D02*
X6762143Y-2406726D01*
X6762143Y-2406726D02*
X6762143Y-2385297D01*
X6762143Y-2385297D02*
X6766428Y-2368155D01*
X6766428Y-2368155D02*
X6770714Y-2359583D01*
X6770714Y-2359583D02*
X6775000Y-2355297D01*
X6775000Y-2355297D02*
X6783571Y-2351012D01*
X3531428Y-1551012D02*
X3531428Y-1623869D01*
X3531428Y-1623869D02*
X3535714Y-1632440D01*
X3535714Y-1632440D02*
X3540000Y-1636726D01*
X3540000Y-1636726D02*
X3548571Y-1641012D01*
X3548571Y-1641012D02*
X3565714Y-1641012D01*
X3565714Y-1641012D02*
X3574286Y-1636726D01*
X3574286Y-1636726D02*
X3578571Y-1632440D01*
X3578571Y-1632440D02*
X3582857Y-1623869D01*
X3582857Y-1623869D02*
X3582857Y-1551012D01*
X3672857Y-1641012D02*
X3621428Y-1641012D01*
X3647143Y-1641012D02*
X3647143Y-1551012D01*
X3647143Y-1551012D02*
X3638571Y-1563869D01*
X3638571Y-1563869D02*
X3630000Y-1572440D01*
X3630000Y-1572440D02*
X3621428Y-1576726D01*
X1485000Y-541012D02*
X1455000Y-498154D01*
X1433571Y-541012D02*
X1433571Y-451012D01*
X1433571Y-451012D02*
X1467857Y-451012D01*
X1467857Y-451012D02*
X1476429Y-455297D01*
X1476429Y-455297D02*
X1480714Y-459583D01*
X1480714Y-459583D02*
X1485000Y-468154D01*
X1485000Y-468154D02*
X1485000Y-481012D01*
X1485000Y-481012D02*
X1480714Y-489583D01*
X1480714Y-489583D02*
X1476429Y-493869D01*
X1476429Y-493869D02*
X1467857Y-498154D01*
X1467857Y-498154D02*
X1433571Y-498154D01*
X1570714Y-541012D02*
X1519286Y-541012D01*
X1545000Y-541012D02*
X1545000Y-451012D01*
X1545000Y-451012D02*
X1536429Y-463869D01*
X1536429Y-463869D02*
X1527857Y-472440D01*
X1527857Y-472440D02*
X1519286Y-476726D01*
X5985000Y-3582440D02*
X5980714Y-3586726D01*
X5980714Y-3586726D02*
X5967857Y-3591012D01*
X5967857Y-3591012D02*
X5959286Y-3591012D01*
X5959286Y-3591012D02*
X5946429Y-3586726D01*
X5946429Y-3586726D02*
X5937857Y-3578154D01*
X5937857Y-3578154D02*
X5933571Y-3569583D01*
X5933571Y-3569583D02*
X5929286Y-3552440D01*
X5929286Y-3552440D02*
X5929286Y-3539583D01*
X5929286Y-3539583D02*
X5933571Y-3522440D01*
X5933571Y-3522440D02*
X5937857Y-3513869D01*
X5937857Y-3513869D02*
X5946429Y-3505297D01*
X5946429Y-3505297D02*
X5959286Y-3501012D01*
X5959286Y-3501012D02*
X5967857Y-3501012D01*
X5967857Y-3501012D02*
X5980714Y-3505297D01*
X5980714Y-3505297D02*
X5985000Y-3509583D01*
X6062143Y-3501012D02*
X6045000Y-3501012D01*
X6045000Y-3501012D02*
X6036429Y-3505297D01*
X6036429Y-3505297D02*
X6032143Y-3509583D01*
X6032143Y-3509583D02*
X6023571Y-3522440D01*
X6023571Y-3522440D02*
X6019286Y-3539583D01*
X6019286Y-3539583D02*
X6019286Y-3573869D01*
X6019286Y-3573869D02*
X6023571Y-3582440D01*
X6023571Y-3582440D02*
X6027857Y-3586726D01*
X6027857Y-3586726D02*
X6036429Y-3591012D01*
X6036429Y-3591012D02*
X6053571Y-3591012D01*
X6053571Y-3591012D02*
X6062143Y-3586726D01*
X6062143Y-3586726D02*
X6066429Y-3582440D01*
X6066429Y-3582440D02*
X6070714Y-3573869D01*
X6070714Y-3573869D02*
X6070714Y-3552440D01*
X6070714Y-3552440D02*
X6066429Y-3543869D01*
X6066429Y-3543869D02*
X6062143Y-3539583D01*
X6062143Y-3539583D02*
X6053571Y-3535297D01*
X6053571Y-3535297D02*
X6036429Y-3535297D01*
X6036429Y-3535297D02*
X6027857Y-3539583D01*
X6027857Y-3539583D02*
X6023571Y-3543869D01*
X6023571Y-3543869D02*
X6019286Y-3552440D01*
X570000Y-1651012D02*
X570000Y-1715297D01*
X570000Y-1715297D02*
X565714Y-1728154D01*
X565714Y-1728154D02*
X557143Y-1736726D01*
X557143Y-1736726D02*
X544286Y-1741012D01*
X544286Y-1741012D02*
X535714Y-1741012D01*
X660000Y-1741012D02*
X608571Y-1741012D01*
X634286Y-1741012D02*
X634286Y-1651012D01*
X634286Y-1651012D02*
X625714Y-1663869D01*
X625714Y-1663869D02*
X617143Y-1672440D01*
X617143Y-1672440D02*
X608571Y-1676726D01*
X9070000Y-2251012D02*
X9070000Y-2315297D01*
X9070000Y-2315297D02*
X9065714Y-2328155D01*
X9065714Y-2328155D02*
X9057143Y-2336726D01*
X9057143Y-2336726D02*
X9044286Y-2341012D01*
X9044286Y-2341012D02*
X9035714Y-2341012D01*
X9104286Y-2251012D02*
X9160000Y-2251012D01*
X9160000Y-2251012D02*
X9130000Y-2285297D01*
X9130000Y-2285297D02*
X9142857Y-2285297D01*
X9142857Y-2285297D02*
X9151429Y-2289583D01*
X9151429Y-2289583D02*
X9155714Y-2293869D01*
X9155714Y-2293869D02*
X9160000Y-2302440D01*
X9160000Y-2302440D02*
X9160000Y-2323869D01*
X9160000Y-2323869D02*
X9155714Y-2332440D01*
X9155714Y-2332440D02*
X9151429Y-2336726D01*
X9151429Y-2336726D02*
X9142857Y-2341012D01*
X9142857Y-2341012D02*
X9117143Y-2341012D01*
X9117143Y-2341012D02*
X9108571Y-2336726D01*
X9108571Y-2336726D02*
X9104286Y-2332440D01*
X6685000Y-1641012D02*
X6655000Y-1598154D01*
X6633571Y-1641012D02*
X6633571Y-1551012D01*
X6633571Y-1551012D02*
X6667857Y-1551012D01*
X6667857Y-1551012D02*
X6676429Y-1555297D01*
X6676429Y-1555297D02*
X6680714Y-1559583D01*
X6680714Y-1559583D02*
X6685000Y-1568154D01*
X6685000Y-1568154D02*
X6685000Y-1581012D01*
X6685000Y-1581012D02*
X6680714Y-1589583D01*
X6680714Y-1589583D02*
X6676429Y-1593869D01*
X6676429Y-1593869D02*
X6667857Y-1598154D01*
X6667857Y-1598154D02*
X6633571Y-1598154D01*
X6727857Y-1641012D02*
X6745000Y-1641012D01*
X6745000Y-1641012D02*
X6753571Y-1636726D01*
X6753571Y-1636726D02*
X6757857Y-1632440D01*
X6757857Y-1632440D02*
X6766429Y-1619583D01*
X6766429Y-1619583D02*
X6770714Y-1602440D01*
X6770714Y-1602440D02*
X6770714Y-1568154D01*
X6770714Y-1568154D02*
X6766429Y-1559583D01*
X6766429Y-1559583D02*
X6762143Y-1555297D01*
X6762143Y-1555297D02*
X6753571Y-1551012D01*
X6753571Y-1551012D02*
X6736429Y-1551012D01*
X6736429Y-1551012D02*
X6727857Y-1555297D01*
X6727857Y-1555297D02*
X6723571Y-1559583D01*
X6723571Y-1559583D02*
X6719286Y-1568154D01*
X6719286Y-1568154D02*
X6719286Y-1589583D01*
X6719286Y-1589583D02*
X6723571Y-1598154D01*
X6723571Y-1598154D02*
X6727857Y-1602440D01*
X6727857Y-1602440D02*
X6736429Y-1606726D01*
X6736429Y-1606726D02*
X6753571Y-1606726D01*
X6753571Y-1606726D02*
X6762143Y-1602440D01*
X6762143Y-1602440D02*
X6766429Y-1598154D01*
X6766429Y-1598154D02*
X6770714Y-1589583D01*
X3185000Y-2141012D02*
X3155000Y-2098155D01*
X3133571Y-2141012D02*
X3133571Y-2051012D01*
X3133571Y-2051012D02*
X3167857Y-2051012D01*
X3167857Y-2051012D02*
X3176429Y-2055297D01*
X3176429Y-2055297D02*
X3180714Y-2059583D01*
X3180714Y-2059583D02*
X3185000Y-2068154D01*
X3185000Y-2068154D02*
X3185000Y-2081012D01*
X3185000Y-2081012D02*
X3180714Y-2089583D01*
X3180714Y-2089583D02*
X3176429Y-2093869D01*
X3176429Y-2093869D02*
X3167857Y-2098155D01*
X3167857Y-2098155D02*
X3133571Y-2098155D01*
X3236429Y-2089583D02*
X3227857Y-2085297D01*
X3227857Y-2085297D02*
X3223571Y-2081012D01*
X3223571Y-2081012D02*
X3219286Y-2072440D01*
X3219286Y-2072440D02*
X3219286Y-2068154D01*
X3219286Y-2068154D02*
X3223571Y-2059583D01*
X3223571Y-2059583D02*
X3227857Y-2055297D01*
X3227857Y-2055297D02*
X3236429Y-2051012D01*
X3236429Y-2051012D02*
X3253571Y-2051012D01*
X3253571Y-2051012D02*
X3262143Y-2055297D01*
X3262143Y-2055297D02*
X3266429Y-2059583D01*
X3266429Y-2059583D02*
X3270714Y-2068154D01*
X3270714Y-2068154D02*
X3270714Y-2072440D01*
X3270714Y-2072440D02*
X3266429Y-2081012D01*
X3266429Y-2081012D02*
X3262143Y-2085297D01*
X3262143Y-2085297D02*
X3253571Y-2089583D01*
X3253571Y-2089583D02*
X3236429Y-2089583D01*
X3236429Y-2089583D02*
X3227857Y-2093869D01*
X3227857Y-2093869D02*
X3223571Y-2098155D01*
X3223571Y-2098155D02*
X3219286Y-2106726D01*
X3219286Y-2106726D02*
X3219286Y-2123869D01*
X3219286Y-2123869D02*
X3223571Y-2132440D01*
X3223571Y-2132440D02*
X3227857Y-2136726D01*
X3227857Y-2136726D02*
X3236429Y-2141012D01*
X3236429Y-2141012D02*
X3253571Y-2141012D01*
X3253571Y-2141012D02*
X3262143Y-2136726D01*
X3262143Y-2136726D02*
X3266429Y-2132440D01*
X3266429Y-2132440D02*
X3270714Y-2123869D01*
X3270714Y-2123869D02*
X3270714Y-2106726D01*
X3270714Y-2106726D02*
X3266429Y-2098155D01*
X3266429Y-2098155D02*
X3262143Y-2093869D01*
X3262143Y-2093869D02*
X3253571Y-2089583D01*
%TO.C,C4*%
X4049000Y-2814058D02*
X4049000Y-2785942D01*
X4151000Y-2814058D02*
X4151000Y-2785942D01*
%TO.C,C5*%
X5849000Y-1414058D02*
X5849000Y-1385942D01*
X5951000Y-1414058D02*
X5951000Y-1385942D01*
%TO.C,C2*%
X4049000Y-1014058D02*
X4049000Y-985942D01*
X4151000Y-1014058D02*
X4151000Y-985942D01*
%TO.C,R6*%
X2647750Y-2423726D02*
X2647750Y-2376274D01*
X2752250Y-2423726D02*
X2752250Y-2376274D01*
%TO.C,C7*%
X7949000Y-1014058D02*
X7949000Y-985942D01*
X8051000Y-1014058D02*
X8051000Y-985942D01*
%TO.C,C8*%
X7949000Y-2814058D02*
X7949000Y-2785942D01*
X8051000Y-2814058D02*
X8051000Y-2785942D01*
%TO.C,R2*%
X2647750Y-623726D02*
X2647750Y-576274D01*
X2752250Y-623726D02*
X2752250Y-576274D01*
%TO.C,R3*%
X2247750Y-1323726D02*
X2247750Y-1276274D01*
X2352250Y-1323726D02*
X2352250Y-1276274D01*
%TO.C,C1*%
X1449000Y-1414058D02*
X1449000Y-1385942D01*
X1551000Y-1414058D02*
X1551000Y-1385942D01*
%TO.C,R7*%
X2247750Y-3123726D02*
X2247750Y-3076274D01*
X2352250Y-3123726D02*
X2352250Y-3076274D01*
%TO.C,C3*%
X1449000Y-3214058D02*
X1449000Y-3185942D01*
X1551000Y-3214058D02*
X1551000Y-3185942D01*
%TO.C,U3*%
X5409000Y-1044000D02*
X5591000Y-1044000D01*
X5409000Y-1049000D02*
X5409000Y-1044000D01*
X5409000Y-1356000D02*
X5409000Y-1351000D01*
X5591000Y-1044000D02*
X5591000Y-1049000D01*
X5591000Y-1161000D02*
X5591000Y-1239000D01*
X5591000Y-1351000D02*
X5591000Y-1356000D01*
X5591000Y-1356000D02*
X5409000Y-1356000D01*
X5355000Y-1049000D02*
X5331000Y-1016000D01*
X5379000Y-1016000D01*
X5355000Y-1049000D01*
G36*
X5355000Y-1049000D02*
G01*
X5331000Y-1016000D01*
X5379000Y-1016000D01*
X5355000Y-1049000D01*
G37*
%TO.C,U4*%
X5409000Y-2844000D02*
X5591000Y-2844000D01*
X5409000Y-2849000D02*
X5409000Y-2844000D01*
X5409000Y-3156000D02*
X5409000Y-3151000D01*
X5591000Y-2844000D02*
X5591000Y-2849000D01*
X5591000Y-2961000D02*
X5591000Y-3039000D01*
X5591000Y-3151000D02*
X5591000Y-3156000D01*
X5591000Y-3156000D02*
X5409000Y-3156000D01*
X5355000Y-2849000D02*
X5331000Y-2816000D01*
X5379000Y-2816000D01*
X5355000Y-2849000D01*
G36*
X5355000Y-2849000D02*
G01*
X5331000Y-2816000D01*
X5379000Y-2816000D01*
X5355000Y-2849000D01*
G37*
%TO.C,U2*%
X3509000Y-2844000D02*
X3691000Y-2844000D01*
X3509000Y-2849000D02*
X3509000Y-2844000D01*
X3509000Y-3156000D02*
X3509000Y-3151000D01*
X3691000Y-2844000D02*
X3691000Y-2849000D01*
X3691000Y-2961000D02*
X3691000Y-3039000D01*
X3691000Y-3151000D02*
X3691000Y-3156000D01*
X3691000Y-3156000D02*
X3509000Y-3156000D01*
X3455000Y-2849000D02*
X3431000Y-2816000D01*
X3479000Y-2816000D01*
X3455000Y-2849000D01*
G36*
X3455000Y-2849000D02*
G01*
X3431000Y-2816000D01*
X3479000Y-2816000D01*
X3455000Y-2849000D01*
G37*
%TO.C,U6*%
X7409000Y-2844000D02*
X7591000Y-2844000D01*
X7409000Y-2849000D02*
X7409000Y-2844000D01*
X7409000Y-3156000D02*
X7409000Y-3151000D01*
X7591000Y-2844000D02*
X7591000Y-2849000D01*
X7591000Y-2961000D02*
X7591000Y-3039000D01*
X7591000Y-3151000D02*
X7591000Y-3156000D01*
X7591000Y-3156000D02*
X7409000Y-3156000D01*
X7355000Y-2849000D02*
X7331000Y-2816000D01*
X7379000Y-2816000D01*
X7355000Y-2849000D01*
G36*
X7355000Y-2849000D02*
G01*
X7331000Y-2816000D01*
X7379000Y-2816000D01*
X7355000Y-2849000D01*
G37*
%TO.C,J2*%
X325000Y-2620000D02*
X325000Y-2925000D01*
X325000Y-3230000D02*
X325000Y-2925000D01*
X620000Y-2545000D02*
X620000Y-2620000D01*
X620000Y-2620000D02*
X325000Y-2620000D01*
X620000Y-3230000D02*
X325000Y-3230000D01*
X620000Y-3305000D02*
X620000Y-3230000D01*
X875000Y-2515000D02*
X750000Y-2515000D01*
X875000Y-2640000D02*
X875000Y-2515000D01*
X770000Y-2545000D02*
X845000Y-2545000D01*
X845000Y-2725000D01*
X770000Y-2725000D01*
X770000Y-2545000D01*
X770000Y-2875000D02*
X845000Y-2875000D01*
X845000Y-2975000D01*
X770000Y-2975000D01*
X770000Y-2875000D01*
X770000Y-3125000D02*
X845000Y-3125000D01*
X845000Y-3305000D01*
X770000Y-3305000D01*
X770000Y-3125000D01*
X249000Y-2544000D02*
X846000Y-2544000D01*
X846000Y-3306000D01*
X249000Y-3306000D01*
X249000Y-2544000D01*
%TO.C,U5*%
X7409000Y-1044000D02*
X7591000Y-1044000D01*
X7409000Y-1049000D02*
X7409000Y-1044000D01*
X7409000Y-1356000D02*
X7409000Y-1351000D01*
X7591000Y-1044000D02*
X7591000Y-1049000D01*
X7591000Y-1161000D02*
X7591000Y-1239000D01*
X7591000Y-1351000D02*
X7591000Y-1356000D01*
X7591000Y-1356000D02*
X7409000Y-1356000D01*
X7355000Y-1049000D02*
X7331000Y-1016000D01*
X7379000Y-1016000D01*
X7355000Y-1049000D01*
G36*
X7355000Y-1049000D02*
G01*
X7331000Y-1016000D01*
X7379000Y-1016000D01*
X7355000Y-1049000D01*
G37*
%TO.C,R4*%
X3176274Y-547750D02*
X3223726Y-547750D01*
X3176274Y-652250D02*
X3223726Y-652250D01*
%TO.C,R5*%
X1476274Y-2547750D02*
X1523726Y-2547750D01*
X1476274Y-2652250D02*
X1523726Y-2652250D01*
%TO.C,R10*%
X6347750Y-2323726D02*
X6347750Y-2276274D01*
X6452250Y-2323726D02*
X6452250Y-2276274D01*
%TO.C,U1*%
X3509000Y-1044000D02*
X3691000Y-1044000D01*
X3509000Y-1049000D02*
X3509000Y-1044000D01*
X3509000Y-1356000D02*
X3509000Y-1351000D01*
X3691000Y-1044000D02*
X3691000Y-1049000D01*
X3691000Y-1161000D02*
X3691000Y-1239000D01*
X3691000Y-1351000D02*
X3691000Y-1356000D01*
X3691000Y-1356000D02*
X3509000Y-1356000D01*
X3455000Y-1049000D02*
X3431000Y-1016000D01*
X3479000Y-1016000D01*
X3455000Y-1049000D01*
G36*
X3455000Y-1049000D02*
G01*
X3431000Y-1016000D01*
X3479000Y-1016000D01*
X3455000Y-1049000D01*
G37*
%TO.C,R1*%
X1476274Y-747750D02*
X1523726Y-747750D01*
X1476274Y-852250D02*
X1523726Y-852250D01*
%TO.C,C6*%
X5849000Y-3214058D02*
X5849000Y-3185942D01*
X5951000Y-3214058D02*
X5951000Y-3185942D01*
%TO.C,J1*%
X325000Y-820000D02*
X325000Y-1125000D01*
X325000Y-1430000D02*
X325000Y-1125000D01*
X620000Y-745000D02*
X620000Y-820000D01*
X620000Y-820000D02*
X325000Y-820000D01*
X620000Y-1430000D02*
X325000Y-1430000D01*
X620000Y-1505000D02*
X620000Y-1430000D01*
X875000Y-715000D02*
X750000Y-715000D01*
X875000Y-840000D02*
X875000Y-715000D01*
X770000Y-745000D02*
X845000Y-745000D01*
X845000Y-925000D01*
X770000Y-925000D01*
X770000Y-745000D01*
X770000Y-1075000D02*
X845000Y-1075000D01*
X845000Y-1175000D01*
X770000Y-1175000D01*
X770000Y-1075000D01*
X770000Y-1325000D02*
X845000Y-1325000D01*
X845000Y-1505000D01*
X770000Y-1505000D01*
X770000Y-1325000D01*
X249000Y-744000D02*
X846000Y-744000D01*
X846000Y-1506000D01*
X249000Y-1506000D01*
X249000Y-744000D01*
%TO.C,J3*%
X8825000Y-420000D02*
X8825000Y-1225000D01*
X8825000Y-2030000D02*
X8825000Y-1225000D01*
X9120000Y-345000D02*
X9120000Y-420000D01*
X9120000Y-420000D02*
X8825000Y-420000D01*
X9120000Y-2030000D02*
X8825000Y-2030000D01*
X9120000Y-2105000D02*
X9120000Y-2030000D01*
X9375000Y-315000D02*
X9250000Y-315000D01*
X9375000Y-440000D02*
X9375000Y-315000D01*
X9270000Y-345000D02*
X9345000Y-345000D01*
X9345000Y-525000D01*
X9270000Y-525000D01*
X9270000Y-345000D01*
X9270000Y-675000D02*
X9345000Y-675000D01*
X9345000Y-1775000D01*
X9270000Y-1775000D01*
X9270000Y-675000D01*
X9270000Y-1925000D02*
X9345000Y-1925000D01*
X9345000Y-2105000D01*
X9270000Y-2105000D01*
X9270000Y-1925000D01*
X8749000Y-344000D02*
X9346000Y-344000D01*
X9346000Y-2106000D01*
X8749000Y-2106000D01*
X8749000Y-344000D01*
%TO.C,R9*%
X6347750Y-1723726D02*
X6347750Y-1676274D01*
X6452250Y-1723726D02*
X6452250Y-1676274D01*
%TO.C,R8*%
X3176274Y-2347750D02*
X3223726Y-2347750D01*
X3176274Y-2452250D02*
X3223726Y-2452250D01*
%TD*%
%LPC*%
D11*
%TO.C,C4*%
X4100000Y-2877500D03*
X4100000Y-2722500D03*
%TD*%
%TO.C,C5*%
X5900000Y-1477500D03*
X5900000Y-1322500D03*
%TD*%
%TO.C,C2*%
X4100000Y-1077500D03*
X4100000Y-922500D03*
%TD*%
D12*
%TO.C,R6*%
X2700000Y-2482500D03*
X2700000Y-2317500D03*
%TD*%
D11*
%TO.C,C7*%
X8000000Y-1077500D03*
X8000000Y-922500D03*
%TD*%
%TO.C,C8*%
X8000000Y-2877500D03*
X8000000Y-2722500D03*
%TD*%
D12*
%TO.C,R2*%
X2700000Y-682500D03*
X2700000Y-517500D03*
%TD*%
%TO.C,R3*%
X2300000Y-1382500D03*
X2300000Y-1217500D03*
%TD*%
D11*
%TO.C,C1*%
X1500000Y-1477500D03*
X1500000Y-1322500D03*
%TD*%
D12*
%TO.C,R7*%
X2300000Y-3182500D03*
X2300000Y-3017500D03*
%TD*%
D11*
%TO.C,C3*%
X1500000Y-3277500D03*
X1500000Y-3122500D03*
%TD*%
D13*
%TO.C,U3*%
X5386250Y-1105000D03*
X5386250Y-1200000D03*
X5386250Y-1295000D03*
X5613750Y-1295000D03*
X5613750Y-1105000D03*
%TD*%
%TO.C,U4*%
X5386250Y-2905000D03*
X5386250Y-3000000D03*
X5386250Y-3095000D03*
X5613750Y-3095000D03*
X5613750Y-2905000D03*
%TD*%
%TO.C,U2*%
X3486250Y-2905000D03*
X3486250Y-3000000D03*
X3486250Y-3095000D03*
X3713750Y-3095000D03*
X3713750Y-2905000D03*
%TD*%
%TO.C,U6*%
X7386250Y-2905000D03*
X7386250Y-3000000D03*
X7386250Y-3095000D03*
X7613750Y-3095000D03*
X7613750Y-2905000D03*
%TD*%
D14*
%TO.C,J2*%
X600000Y-2800000D03*
D15*
X600000Y-3050000D03*
%TD*%
D13*
%TO.C,U5*%
X7386250Y-1105000D03*
X7386250Y-1200000D03*
X7386250Y-1295000D03*
X7613750Y-1295000D03*
X7613750Y-1105000D03*
%TD*%
D16*
%TO.C,R4*%
X3117500Y-600000D03*
X3282500Y-600000D03*
%TD*%
%TO.C,R5*%
X1417500Y-2600000D03*
X1582500Y-2600000D03*
%TD*%
D12*
%TO.C,R10*%
X6400000Y-2382500D03*
X6400000Y-2217500D03*
%TD*%
D13*
%TO.C,U1*%
X3486250Y-1105000D03*
X3486250Y-1200000D03*
X3486250Y-1295000D03*
X3713750Y-1295000D03*
X3713750Y-1105000D03*
%TD*%
D16*
%TO.C,R1*%
X1417500Y-800000D03*
X1582500Y-800000D03*
%TD*%
D11*
%TO.C,C6*%
X5900000Y-3277500D03*
X5900000Y-3122500D03*
%TD*%
D14*
%TO.C,J1*%
X600000Y-1000000D03*
D15*
X600000Y-1250000D03*
%TD*%
D17*
%TO.C,J3*%
X9100000Y-600000D03*
D18*
X9100000Y-850000D03*
X9100000Y-1100000D03*
X9100000Y-1350000D03*
X9100000Y-1600000D03*
X9100000Y-1850000D03*
%TD*%
D12*
%TO.C,R9*%
X6400000Y-1782500D03*
X6400000Y-1617500D03*
%TD*%
D16*
%TO.C,R8*%
X3117500Y-2400000D03*
X3282500Y-2400000D03*
%TD*%
%LPD*%
M02*
