%TF.GenerationSoftware,KiCad,Pcbnew,10.0.6*%
%TF.CreationDate,2026-09-10T12:55:02-06:00*%
%TF.ProjectId,buck-reva,6275636b-2d72-4657-9661-2e6b69636164,rev?*%
%TF.SameCoordinates,Original*%
%TF.FileFunction,Copper,L2,Bot*%
%TF.FilePolarity,Positive*%
%FSLAX46Y46*%
G04 Gerber Fmt 4.6, Leading zero omitted, Abs format (unit mm)*
G04 Created by KiCad (PCBNEW 10.0.6) date 2026-09-10 12:55:02*
%MOMM*%
%LPD*%
G01*
G04 APERTURE LIST*
G04 Aperture macros list*
%AMRoundRect*
0 Rectangle with rounded corners*
0 $1 Rounding radius*
0 $2 $3 $4 $5 $6 $7 $8 $9 X,Y pos of 4 corners*
0 Add a 4 corners polygon primitive as box body*
4,1,4,$2,$3,$4,$5,$6,$7,$8,$9,$2,$3,0*
0 Add four circle primitives for the rounded corners*
1,1,$1+$1,$2,$3*
1,1,$1+$1,$4,$5*
1,1,$1+$1,$6,$7*
1,1,$1+$1,$8,$9*
0 Add four rect primitives between the rounded corners*
20,1,$1+$1,$2,$3,$4,$5,0*
20,1,$1+$1,$4,$5,$6,$7,0*
20,1,$1+$1,$6,$7,$8,$9,0*
20,1,$1+$1,$8,$9,$2,$3,0*%
G04 Aperture macros list end*
%TA.AperFunction,ComponentPad*%
%ADD10RoundRect,0.700000X-0.700000X0.700000X-0.700000X-0.700000X0.700000X-0.700000X0.700000X0.700000X0*%
%TD*%
%TA.AperFunction,ComponentPad*%
%ADD11C,2.800000*%
%TD*%
%TA.AperFunction,ComponentPad*%
%ADD12RoundRect,0.700000X-0.700000X-0.700000X0.700000X-0.700000X0.700000X0.700000X-0.700000X0.700000X0*%
%TD*%
%TA.AperFunction,ViaPad*%
%ADD13C,0.800000*%
%TD*%
%TA.AperFunction,Conductor*%
%ADD14C,0.600000*%
%TD*%
G04 APERTURE END LIST*
D10*
%TO.P,J1,1*%
%TO.N,+15V*%
X5500000Y-18000000D03*
D11*
%TO.P,J1,2*%
%TO.N,gnd*%
X5500000Y-23080000D03*
%TD*%
D12*
%TO.P,J2,1*%
%TO.N,+3V3*%
X33000000Y-34000000D03*
D11*
%TO.P,J2,2*%
%TO.N,gnd*%
X38080000Y-34000000D03*
%TD*%
D13*
%TO.N,+15V*%
X17600000Y-20000000D03*
X20000000Y-17475000D03*
%TO.N,gnd*%
X21137500Y-20950000D03*
X43475000Y-16000000D03*
X42775000Y-20000000D03*
X20000000Y-14525000D03*
X43475000Y-24000000D03*
X13175000Y-21000000D03*
%TO.N,+3V3*%
X13175000Y-17000000D03*
X40525000Y-16000000D03*
%TD*%
%TO.N,+15V*%
D14*
X20000000Y-17475000D02*
X17600000Y-17475000D01*
X17600000Y-17475000D02*
X17600000Y-20000000D01*
%TO.N,gnd*%
X44500000Y-28000000D02*
X23000000Y-28000000D01*
X20000000Y-14525000D02*
X23000000Y-14525000D01*
X10000000Y-28000000D02*
X23000000Y-28000000D01*
X6000000Y-21000000D02*
X6000000Y-28000000D01*
X5500000Y-23080000D02*
X6000000Y-23080000D01*
X13175000Y-21000000D02*
X13175000Y-25000000D01*
X38080000Y-34000000D02*
X38080000Y-28000000D01*
X42775000Y-20000000D02*
X44500000Y-20000000D01*
X6000000Y-28000000D02*
X10000000Y-28000000D01*
X23000000Y-14525000D02*
X23000000Y-20950000D01*
X43475000Y-16000000D02*
X44500000Y-16000000D01*
X23000000Y-28000000D02*
X23000000Y-20950000D01*
X13175000Y-25000000D02*
X23000000Y-25000000D01*
X44500000Y-16000000D02*
X44500000Y-28000000D01*
X43475000Y-24000000D02*
X44500000Y-24000000D01*
X6000000Y-23080000D02*
X6000000Y-21000000D01*
X23000000Y-20950000D02*
X21137500Y-20950000D01*
%TO.N,+3V3*%
X39000000Y-10000000D02*
X39000000Y-16000000D01*
X13175000Y-17000000D02*
X12000000Y-17000000D01*
X12000000Y-10000000D02*
X39000000Y-10000000D01*
X39000000Y-16000000D02*
X40525000Y-16000000D01*
X12000000Y-17000000D02*
X12000000Y-10000000D01*
%TD*%
M02*
