%TF.GenerationSoftware,KiCad,Pcbnew,10.0.6*%
%TF.CreationDate,2026-09-10T12:55:02-06:00*%
%TF.ProjectId,buck-reva,6275636b-2d72-4657-9661-2e6b69636164,rev?*%
%TF.SameCoordinates,Original*%
%TF.FileFunction,Copper,L1,Top*%
%TF.FilePolarity,Positive*%
%FSLAX46Y46*%
G04 Gerber Fmt 4.6, Leading zero omitted, Abs format (unit mm)*
G04 Created by KiCad (PCBNEW 10.0.6) date 2026-09-10 12:55:02*
%MOMM*%
%LPD*%
G01*
G04 APERTURE LIST*
G04 Aperture macros list*
%AMRoundRect*
0 Rectangle with rounded corners*
0 $1 Rounding radius*
0 $2 $3 $4 $5 $6 $7 $8 $9 X,Y pos of 4 corners*
0 Add a 4 corners polygon primitive as box body*
4,1,4,$2,$3,$4,$5,$6,$7,$8,$9,$2,$3,0*
0 Add four circle primitives for the rounded corners*
1,1,$1+$1,$2,$3*
1,1,$1+$1,$4,$5*
1,1,$1+$1,$6,$7*
1,1,$1+$1,$8,$9*
0 Add four rect primitives between the rounded corners*
20,1,$1+$1,$2,$3,$4,$5,0*
20,1,$1+$1,$4,$5,$6,$7,0*
20,1,$1+$1,$6,$7,$8,$9,0*
20,1,$1+$1,$8,$9,$2,$3,0*%
G04 Aperture macros list end*
%TA.AperFunction,SMDPad,CuDef*%
%ADD10RoundRect,0.250000X1.100000X-0.325000X1.100000X0.325000X-1.100000X0.325000X-1.100000X-0.325000X0*%
%TD*%
%TA.AperFunction,SMDPad,CuDef*%
%ADD11RoundRect,0.450000X-0.450000X-0.450000X0.450000X-0.450000X0.450000X0.450000X-0.450000X0.450000X0*%
%TD*%
%TA.AperFunction,SMDPad,CuDef*%
%ADD12RoundRect,0.225000X-0.225000X-0.250000X0.225000X-0.250000X0.225000X0.250000X-0.225000X0.250000X0*%
%TD*%
%TA.AperFunction,ComponentPad*%
%ADD13RoundRect,0.700000X-0.700000X0.700000X-0.700000X-0.700000X0.700000X-0.700000X0.700000X0.700000X0*%
%TD*%
%TA.AperFunction,ComponentPad*%
%ADD14C,2.800000*%
%TD*%
%TA.AperFunction,SMDPad,CuDef*%
%ADD15RoundRect,0.200000X-0.200000X-0.275000X0.200000X-0.275000X0.200000X0.275000X-0.200000X0.275000X0*%
%TD*%
%TA.AperFunction,SMDPad,CuDef*%
%ADD16RoundRect,0.150000X0.512500X0.150000X-0.512500X0.150000X-0.512500X-0.150000X0.512500X-0.150000X0*%
%TD*%
%TA.AperFunction,ComponentPad*%
%ADD17RoundRect,0.700000X-0.700000X-0.700000X0.700000X-0.700000X0.700000X0.700000X-0.700000X0.700000X0*%
%TD*%
%TA.AperFunction,SMDPad,CuDef*%
%ADD18R,3.100000X5.000000*%
%TD*%
%TA.AperFunction,SMDPad,CuDef*%
%ADD19RoundRect,0.250000X-0.325000X-1.100000X0.325000X-1.100000X0.325000X1.100000X-0.325000X1.100000X0*%
%TD*%
%TA.AperFunction,SMDPad,CuDef*%
%ADD20RoundRect,0.200000X0.200000X0.275000X-0.200000X0.275000X-0.200000X-0.275000X0.200000X-0.275000X0*%
%TD*%
%TA.AperFunction,ViaPad*%
%ADD21C,0.800000*%
%TD*%
%TA.AperFunction,Conductor*%
%ADD22C,0.600000*%
%TD*%
%TA.AperFunction,Conductor*%
%ADD23C,0.300000*%
%TD*%
G04 APERTURE END LIST*
D10*
%TO.P,C9,1*%
%TO.N,+15V*%
X20000000Y-17475000D03*
%TO.P,C9,2*%
%TO.N,gnd*%
X20000000Y-14525000D03*
%TD*%
D11*
%TO.P,TP1,1*%
%TO.N,+15V*%
X17000000Y-10000000D03*
%TD*%
D12*
%TO.P,C13,1*%
%TO.N,+3V3*%
X41225000Y-20000000D03*
%TO.P,C13,2*%
%TO.N,gnd*%
X42775000Y-20000000D03*
%TD*%
D13*
%TO.P,J1,1*%
%TO.N,+15V*%
X5500000Y-18000000D03*
D14*
%TO.P,J1,2*%
%TO.N,gnd*%
X5500000Y-23080000D03*
%TD*%
D15*
%TO.P,R16,1*%
%TO.N,+3V3*%
X13175000Y-17000000D03*
%TO.P,R16,2*%
%TO.N,fb*%
X14825000Y-17000000D03*
%TD*%
D16*
%TO.P,U3,1*%
%TO.N,gnd*%
X21137500Y-20950000D03*
%TO.P,U3,2*%
%TO.N,sw*%
X21137500Y-20000000D03*
%TO.P,U3,3*%
%TO.N,+15V*%
X21137500Y-19050000D03*
%TO.P,U3,4*%
%TO.N,fb*%
X18862500Y-19050000D03*
%TO.P,U3,5*%
%TO.N,+15V*%
X18862500Y-20000000D03*
%TO.P,U3,6*%
%TO.N,boot*%
X18862500Y-20950000D03*
%TD*%
D12*
%TO.P,C10,1*%
%TO.N,boot*%
X19225000Y-24000000D03*
%TO.P,C10,2*%
%TO.N,sw*%
X20775000Y-24000000D03*
%TD*%
D11*
%TO.P,TP2,1*%
%TO.N,gnd*%
X20000000Y-10000000D03*
%TD*%
%TO.P,TP3,1*%
%TO.N,+3V3*%
X40525000Y-12000000D03*
%TD*%
D17*
%TO.P,J2,1*%
%TO.N,+3V3*%
X33000000Y-34000000D03*
D14*
%TO.P,J2,2*%
%TO.N,gnd*%
X38080000Y-34000000D03*
%TD*%
D18*
%TO.P,L2,1*%
%TO.N,sw*%
X25450000Y-20000000D03*
%TO.P,L2,2*%
%TO.N,+3V3*%
X36550000Y-20000000D03*
%TD*%
D19*
%TO.P,C12,1*%
%TO.N,+3V3*%
X40525000Y-24000000D03*
%TO.P,C12,2*%
%TO.N,gnd*%
X43475000Y-24000000D03*
%TD*%
%TO.P,C11,1*%
%TO.N,+3V3*%
X40525000Y-16000000D03*
%TO.P,C11,2*%
%TO.N,gnd*%
X43475000Y-16000000D03*
%TD*%
D20*
%TO.P,R17,1*%
%TO.N,fb*%
X14825000Y-21000000D03*
%TO.P,R17,2*%
%TO.N,gnd*%
X13175000Y-21000000D03*
%TD*%
D11*
%TO.P,TP4,1*%
%TO.N,gnd*%
X43500000Y-12000000D03*
%TD*%
D21*
%TO.N,+15V*%
X17600000Y-20000000D03*
X20000000Y-17475000D03*
%TO.N,gnd*%
X21137500Y-20950000D03*
X43475000Y-16000000D03*
X42775000Y-20000000D03*
X20000000Y-14525000D03*
X43475000Y-24000000D03*
X13175000Y-21000000D03*
%TO.N,+3V3*%
X13175000Y-17000000D03*
X40525000Y-16000000D03*
%TD*%
%TO.N,+15V*%
D22*
X16000000Y-12000000D02*
X18000000Y-12000000D01*
X18000000Y-12000000D02*
X18000000Y-17475000D01*
X18000000Y-17475000D02*
X20000000Y-17475000D01*
X10000000Y-18000000D02*
X16000000Y-12000000D01*
X18862500Y-20000000D02*
X17600000Y-20000000D01*
X5500000Y-18000000D02*
X10000000Y-18000000D01*
X22500000Y-17475000D02*
X22500000Y-19050000D01*
X22500000Y-19050000D02*
X21137500Y-19050000D01*
D23*
X17000000Y-10000000D02*
X17000000Y-12000000D01*
D22*
X20000000Y-17475000D02*
X22500000Y-17475000D01*
%TO.N,gnd*%
D23*
X20000000Y-10000000D02*
X20000000Y-14525000D01*
X43500000Y-12000000D02*
X43475000Y-16000000D01*
%TO.N,+3V3*%
D22*
X33000000Y-34000000D02*
X33000000Y-30000000D01*
D23*
X40525000Y-12000000D02*
X40525000Y-16000000D01*
D22*
X39000000Y-16000000D02*
X39000000Y-24000000D01*
X39000000Y-24000000D02*
X40525000Y-24000000D01*
X33000000Y-30000000D02*
X41000000Y-30000000D01*
X36000000Y-20000000D02*
X39000000Y-20000000D01*
X39000000Y-20000000D02*
X41225000Y-20000000D01*
X41000000Y-20000000D02*
X41225000Y-20000000D01*
X40525000Y-16000000D02*
X39000000Y-16000000D01*
X41000000Y-30000000D02*
X41000000Y-20000000D01*
%TO.N,fb*%
D23*
X16000000Y-18050000D02*
X16000000Y-17000000D01*
X16000000Y-18050000D02*
X16000000Y-21000000D01*
X16000000Y-17000000D02*
X14825000Y-17000000D01*
X17000000Y-19050000D02*
X16000000Y-18050000D01*
X18862500Y-19050000D02*
X17000000Y-19050000D01*
X16000000Y-21000000D02*
X14825000Y-21000000D01*
%TO.N,sw*%
D22*
X22000000Y-24000000D02*
X23800000Y-22200000D01*
X23800000Y-22200000D02*
X23800000Y-20000000D01*
X21137500Y-20000000D02*
X26000000Y-20000000D01*
X20775000Y-24000000D02*
X22000000Y-24000000D01*
%TO.N,boot*%
D23*
X18000000Y-22500000D02*
X19225000Y-24000000D01*
X18862500Y-20950000D02*
X18000000Y-22500000D01*
%TD*%
M02*
