%TF.GenerationSoftware,KiCad,Pcbnew,10.0.4*%
%TF.CreationDate,2026-09-28T10:04:29-06:00*%
%TF.ProjectId,section,73656374-696f-46e2-9e6b-696361645f70,rev?*%
%TF.SameCoordinates,Original*%
%TF.FileFunction,Soldermask,Bot*%
%TF.FilePolarity,Negative*%
%FSLAX46Y46*%
G04 Gerber Fmt 4.6, Leading zero omitted, Abs format (unit mm)*
G04 Created by KiCad (PCBNEW 10.0.4) date 2026-09-28 10:04:29*
%MOMM*%
%LPD*%
G01*
G04 APERTURE LIST*
G04 Aperture macros list*
%AMRoundRect*
0 Rectangle with rounded corners*
0 $1 Rounding radius*
0 $2 $3 $4 $5 $6 $7 $8 $9 X,Y pos of 4 corners*
0 Add a 4 corners polygon primitive as box body*
4,1,4,$2,$3,$4,$5,$6,$7,$8,$9,$2,$3,0*
0 Add four circle primitives for the rounded corners*
1,1,$1+$1,$2,$3*
1,1,$1+$1,$4,$5*
1,1,$1+$1,$6,$7*
1,1,$1+$1,$8,$9*
0 Add four rect primitives between the rounded corners*
20,1,$1+$1,$2,$3,$4,$5,0*
20,1,$1+$1,$4,$5,$6,$7,0*
20,1,$1+$1,$6,$7,$8,$9,0*
20,1,$1+$1,$8,$9,$2,$3,0*%
G04 Aperture macros list end*
%ADD10R,3.000000X3.000000*%
%ADD11C,3.000000*%
%ADD12RoundRect,0.249999X0.850001X0.850001X-0.850001X0.850001X-0.850001X-0.850001X0.850001X-0.850001X0*%
%ADD13C,2.200000*%
%ADD14R,2.500000X4.500000*%
%ADD15O,2.500000X4.500000*%
%ADD16R,3.200000X3.200000*%
%ADD17C,3.200000*%
%ADD18RoundRect,0.250000X-1.050000X1.050000X-1.050000X-1.050000X1.050000X-1.050000X1.050000X1.050000X0*%
%ADD19C,2.600000*%
%ADD20C,1.020000*%
%ADD21RoundRect,0.266667X-0.533333X-0.533333X0.533333X-0.533333X0.533333X0.533333X-0.533333X0.533333X0*%
%ADD22C,1.600000*%
%ADD23C,2.400000*%
%ADD24R,4.000000X4.000000*%
%ADD25O,4.000000X4.000000*%
%ADD26RoundRect,0.250001X1.099999X-1.099999X1.099999X1.099999X-1.099999X1.099999X-1.099999X-1.099999X0*%
%ADD27C,2.700000*%
%ADD28C,4.300000*%
%ADD29C,1.500000*%
%ADD30RoundRect,0.750000X-0.750000X-0.750000X0.750000X-0.750000X0.750000X0.750000X-0.750000X0.750000X0*%
%ADD31R,2.400000X2.400000*%
%ADD32C,4.000000*%
%ADD33C,2.800000*%
G04 APERTURE END LIST*
D10*
%TO.C,PS2*%
X5000000Y-84000000D03*
D11*
X5000000Y-94750000D03*
X43500000Y-94750000D03*
X43500000Y-86750000D03*
%TD*%
D12*
%TO.C,D1*%
X131500000Y-40000000D03*
D13*
X121340000Y-40000000D03*
%TD*%
D14*
%TO.C,Q5*%
X92550000Y-4215000D03*
D15*
X98000000Y-4215000D03*
X103450000Y-4215000D03*
%TD*%
D16*
%TO.C,C21*%
X234250000Y-97000000D03*
D17*
X191750000Y-97000000D03*
%TD*%
D18*
%TO.C,J1*%
X6700000Y-150455000D03*
D19*
X6700000Y-155535000D03*
%TD*%
D20*
%TO.C,J4*%
X109500000Y-68020000D03*
X136500000Y-68020000D03*
D21*
X112500000Y-64080000D03*
D22*
X115500000Y-64080000D03*
X118500000Y-64080000D03*
X121500000Y-64080000D03*
X124500000Y-64080000D03*
X127500000Y-64080000D03*
X130500000Y-64080000D03*
X133500000Y-64080000D03*
X112500000Y-67080000D03*
X115500000Y-67080000D03*
X118500000Y-67080000D03*
X121500000Y-67080000D03*
X124500000Y-67080000D03*
X127500000Y-67080000D03*
X130500000Y-67080000D03*
X133500000Y-67080000D03*
%TD*%
D23*
%TO.C,C39*%
X164600000Y-22000000D03*
X149600000Y-22000000D03*
%TD*%
%TO.C,C40*%
X109000000Y-22000000D03*
X124000000Y-22000000D03*
%TD*%
D24*
%TO.C,BR1*%
X16300000Y-4600000D03*
D25*
X26300000Y-4600000D03*
X33800000Y-4600000D03*
X41300000Y-4600000D03*
%TD*%
D26*
%TO.C,J3*%
X36450000Y-105280000D03*
D27*
X36450000Y-101320000D03*
%TD*%
D28*
%TO.C,J2*%
X231000000Y-70500000D03*
D17*
X228065000Y-67565000D03*
X228065000Y-73435000D03*
X233935000Y-67565000D03*
X233935000Y-73435000D03*
%TD*%
D29*
%TO.C,C3*%
X138500000Y-93000000D03*
X138500000Y-83000000D03*
%TD*%
D28*
%TO.C,J7*%
X13000000Y-17500000D03*
D17*
X10065000Y-14565000D03*
X10065000Y-20435000D03*
X15935000Y-14565000D03*
X15935000Y-20435000D03*
%TD*%
D10*
%TO.C,PS1*%
X76000000Y-116000000D03*
D11*
X96800000Y-116000000D03*
X96800000Y-71000000D03*
X88800000Y-71000000D03*
%TD*%
D10*
%TO.C,C23*%
X212500000Y-53250000D03*
D11*
X212500000Y-10750000D03*
%TD*%
D30*
%TO.C,F1*%
X19150000Y-153000000D03*
X26750000Y-153000000D03*
D11*
X46250000Y-153000000D03*
X53850000Y-153000000D03*
%TD*%
D28*
%TO.C,J10*%
X47000000Y-30500000D03*
D17*
X44065000Y-27565000D03*
X44065000Y-33435000D03*
X49935000Y-27565000D03*
X49935000Y-33435000D03*
%TD*%
%TO.C,D3*%
X58000000Y-64950000D03*
X58000000Y-44950000D03*
%TD*%
D23*
%TO.C,C1*%
X52750000Y-127500000D03*
X75250000Y-127500000D03*
%TD*%
D29*
%TO.C,C4*%
X145500000Y-93000000D03*
X145500000Y-83000000D03*
%TD*%
D19*
%TO.C,J6*%
X110600000Y-79500000D03*
X125840000Y-79500000D03*
%TD*%
D31*
%TO.C,RV1*%
X64451000Y-147000000D03*
D23*
X71951000Y-147000000D03*
%TD*%
%TO.C,C2*%
X30000000Y-34850000D03*
X30000000Y-12350000D03*
%TD*%
D24*
%TO.C,L1*%
X29000000Y-135500000D03*
D32*
X19000000Y-135500000D03*
X19000000Y-110500000D03*
X29000000Y-110500000D03*
%TD*%
D28*
%TO.C,J8*%
X13000000Y-30500000D03*
D17*
X10065000Y-27565000D03*
X10065000Y-33435000D03*
X15935000Y-27565000D03*
X15935000Y-33435000D03*
%TD*%
D28*
%TO.C,J9*%
X47000000Y-17500000D03*
D17*
X44065000Y-14565000D03*
X44065000Y-20435000D03*
X49935000Y-14565000D03*
X49935000Y-20435000D03*
%TD*%
D33*
%TO.C,C6*%
X174350000Y-50750000D03*
X194650000Y-50750000D03*
X174350000Y-13250000D03*
X194650000Y-13250000D03*
%TD*%
D16*
%TO.C,C22*%
X234250000Y-125500000D03*
D17*
X191750000Y-125500000D03*
%TD*%
D14*
%TO.C,Q3*%
X132550000Y-4215000D03*
D15*
X138000000Y-4215000D03*
X143450000Y-4215000D03*
%TD*%
D33*
%TO.C,C5*%
X13000000Y-43950000D03*
X13000000Y-64250000D03*
X50500000Y-43950000D03*
X50500000Y-64250000D03*
%TD*%
D14*
%TO.C,Q6*%
X110550000Y-4215000D03*
D15*
X116000000Y-4215000D03*
X121450000Y-4215000D03*
%TD*%
D23*
%TO.C,C38*%
X144000000Y-22000000D03*
X129000000Y-22000000D03*
%TD*%
D12*
%TO.C,D2*%
X98580000Y-34000000D03*
D13*
X88420000Y-34000000D03*
%TD*%
D14*
%TO.C,Q2*%
X150550000Y-4215000D03*
D15*
X156000000Y-4215000D03*
X161450000Y-4215000D03*
%TD*%
D23*
%TO.C,C41*%
X88400000Y-22000000D03*
X103400000Y-22000000D03*
%TD*%
D28*
%TO.C,J5*%
X225000000Y-151000000D03*
D17*
X222065000Y-148065000D03*
X222065000Y-153935000D03*
X227935000Y-148065000D03*
X227935000Y-153935000D03*
%TD*%
M02*
