%TF.GenerationSoftware,KiCad,Pcbnew,10.0.4*%
%TF.CreationDate,2026-09-28T10:04:29-06:00*%
%TF.ProjectId,section,73656374-696f-46e2-9e6b-696361645f70,rev?*%
%TF.SameCoordinates,Original*%
%TF.FileFunction,Paste,Top*%
%TF.FilePolarity,Positive*%
%FSLAX46Y46*%
G04 Gerber Fmt 4.6, Leading zero omitted, Abs format (unit mm)*
G04 Created by KiCad (PCBNEW 10.0.4) date 2026-09-28 10:04:29*
%MOMM*%
%LPD*%
G01*
G04 APERTURE LIST*
G04 Aperture macros list*
%AMRoundRect*
0 Rectangle with rounded corners*
0 $1 Rounding radius*
0 $2 $3 $4 $5 $6 $7 $8 $9 X,Y pos of 4 corners*
0 Add a 4 corners polygon primitive as box body*
4,1,4,$2,$3,$4,$5,$6,$7,$8,$9,$2,$3,0*
0 Add four circle primitives for the rounded corners*
1,1,$1+$1,$2,$3*
1,1,$1+$1,$4,$5*
1,1,$1+$1,$6,$7*
1,1,$1+$1,$8,$9*
0 Add four rect primitives between the rounded corners*
20,1,$1+$1,$2,$3,$4,$5,0*
20,1,$1+$1,$4,$5,$6,$7,0*
20,1,$1+$1,$6,$7,$8,$9,0*
20,1,$1+$1,$8,$9,$2,$3,0*%
%AMFreePoly0*
4,1,9,3.862500,-0.866500,0.737500,-0.866500,0.737500,-0.450000,-0.737500,-0.450000,-0.737500,0.450000,0.737500,0.450000,0.737500,0.866500,3.862500,0.866500,3.862500,-0.866500,3.862500,-0.866500,$1*%
G04 Aperture macros list end*
%ADD10RoundRect,0.200000X-0.200000X-0.275000X0.200000X-0.275000X0.200000X0.275000X-0.200000X0.275000X0*%
%ADD11RoundRect,0.225000X0.250000X-0.225000X0.250000X0.225000X-0.250000X0.225000X-0.250000X-0.225000X0*%
%ADD12RoundRect,0.225000X0.225000X-0.425000X0.225000X0.425000X-0.225000X0.425000X-0.225000X-0.425000X0*%
%ADD13FreePoly0,90.000000*%
%ADD14RoundRect,0.225000X-0.225000X-0.250000X0.225000X-0.250000X0.225000X0.250000X-0.225000X0.250000X0*%
%ADD15RoundRect,0.150000X0.150000X-0.675000X0.150000X0.675000X-0.150000X0.675000X-0.150000X-0.675000X0*%
%ADD16RoundRect,0.250000X-0.625000X0.312500X-0.625000X-0.312500X0.625000X-0.312500X0.625000X0.312500X0*%
%ADD17RoundRect,0.250000X-0.325000X-1.100000X0.325000X-1.100000X0.325000X1.100000X-0.325000X1.100000X0*%
%ADD18RoundRect,0.200000X0.275000X-0.200000X0.275000X0.200000X-0.275000X0.200000X-0.275000X-0.200000X0*%
%ADD19RoundRect,0.250000X1.100000X-0.325000X1.100000X0.325000X-1.100000X0.325000X-1.100000X-0.325000X0*%
%ADD20RoundRect,0.250000X-0.325000X-0.650000X0.325000X-0.650000X0.325000X0.650000X-0.325000X0.650000X0*%
%ADD21RoundRect,0.250000X0.625000X-0.312500X0.625000X0.312500X-0.625000X0.312500X-0.625000X-0.312500X0*%
%ADD22RoundRect,0.200000X0.200000X0.275000X-0.200000X0.275000X-0.200000X-0.275000X0.200000X-0.275000X0*%
%ADD23RoundRect,0.150000X-0.512500X-0.150000X0.512500X-0.150000X0.512500X0.150000X-0.512500X0.150000X0*%
%ADD24RoundRect,0.150000X-0.150000X0.675000X-0.150000X-0.675000X0.150000X-0.675000X0.150000X0.675000X0*%
%ADD25RoundRect,0.243600X-0.771400X0.901400X-0.771400X-0.901400X0.771400X-0.901400X0.771400X0.901400X0*%
%ADD26RoundRect,0.091200X-0.288800X0.608800X-0.288800X-0.608800X0.288800X-0.608800X0.288800X0.608800X0*%
%ADD27RoundRect,0.190000X-0.190000X0.510000X-0.190000X-0.510000X0.190000X-0.510000X0.190000X0.510000X0*%
%ADD28RoundRect,0.150000X-0.587500X-0.150000X0.587500X-0.150000X0.587500X0.150000X-0.587500X0.150000X0*%
%ADD29RoundRect,0.150000X-0.750000X-0.150000X0.750000X-0.150000X0.750000X0.150000X-0.750000X0.150000X0*%
%ADD30C,3.100000*%
%ADD31RoundRect,0.200000X-0.275000X0.200000X-0.275000X-0.200000X0.275000X-0.200000X0.275000X0.200000X0*%
%ADD32RoundRect,0.250000X-0.300000X-0.300000X0.300000X-0.300000X0.300000X0.300000X-0.300000X0.300000X0*%
%ADD33RoundRect,0.250000X-0.650000X0.325000X-0.650000X-0.325000X0.650000X-0.325000X0.650000X0.325000X0*%
%ADD34RoundRect,0.250000X-0.312500X-0.625000X0.312500X-0.625000X0.312500X0.625000X-0.312500X0.625000X0*%
%ADD35RoundRect,0.250000X0.312500X0.625000X-0.312500X0.625000X-0.312500X-0.625000X0.312500X-0.625000X0*%
%ADD36R,9.000000X4.800000*%
%ADD37R,4.600000X3.000000*%
G04 APERTURE END LIST*
D10*
%TO.C,R15*%
X105675000Y-59500000D03*
X107325000Y-59500000D03*
%TD*%
D11*
%TO.C,C33*%
X64000000Y-99775000D03*
X64000000Y-98225000D03*
%TD*%
D10*
%TO.C,R31*%
X81175000Y-22000000D03*
X82825000Y-22000000D03*
%TD*%
D12*
%TO.C,U3*%
X60500000Y-19650000D03*
D13*
X62000000Y-19562500D03*
D12*
X63500000Y-19650000D03*
%TD*%
D14*
%TO.C,C37*%
X82225000Y-56500000D03*
X83775000Y-56500000D03*
%TD*%
D15*
%TO.C,U2*%
X99555000Y-50875000D03*
X100825000Y-50875000D03*
X102095000Y-50875000D03*
X103365000Y-50875000D03*
X104635000Y-50875000D03*
X105905000Y-50875000D03*
X107175000Y-50875000D03*
X108445000Y-50875000D03*
X108445000Y-41125000D03*
X107175000Y-41125000D03*
X105905000Y-41125000D03*
X102095000Y-41125000D03*
X100825000Y-41125000D03*
X99555000Y-41125000D03*
%TD*%
D16*
%TO.C,R39*%
X177000000Y-69037500D03*
X177000000Y-71962500D03*
%TD*%
D17*
%TO.C,C9*%
X154025000Y-35600000D03*
X156975000Y-35600000D03*
%TD*%
D11*
%TO.C,C11*%
X141400000Y-39575000D03*
X141400000Y-38025000D03*
%TD*%
D18*
%TO.C,R33*%
X75500000Y-19825000D03*
X75500000Y-18175000D03*
%TD*%
D19*
%TO.C,C24*%
X66500000Y-19475000D03*
X66500000Y-16525000D03*
%TD*%
D20*
%TO.C,C13*%
X139255000Y-9700000D03*
X142205000Y-9700000D03*
%TD*%
D21*
%TO.C,R20*%
X110550000Y-14062500D03*
X110550000Y-11137500D03*
%TD*%
D10*
%TO.C,R6*%
X149675000Y-56500000D03*
X151325000Y-56500000D03*
%TD*%
D22*
%TO.C,R46*%
X161825000Y-72950000D03*
X160175000Y-72950000D03*
%TD*%
D10*
%TO.C,R38*%
X102675000Y-79000000D03*
X104325000Y-79000000D03*
%TD*%
D20*
%TO.C,C12*%
X157255000Y-9700000D03*
X160205000Y-9700000D03*
%TD*%
D14*
%TO.C,C15*%
X110725000Y-39600000D03*
X112275000Y-39600000D03*
%TD*%
D23*
%TO.C,U11*%
X164862500Y-71050000D03*
X164862500Y-72000000D03*
X164862500Y-72950000D03*
X167137500Y-72950000D03*
X167137500Y-71050000D03*
%TD*%
D14*
%TO.C,C45*%
X167125000Y-69400000D03*
X168675000Y-69400000D03*
%TD*%
D21*
%TO.C,R4*%
X63500000Y-49962500D03*
X63500000Y-47037500D03*
%TD*%
D10*
%TO.C,R14*%
X105675000Y-56500000D03*
X107325000Y-56500000D03*
%TD*%
D14*
%TO.C,C14*%
X95725000Y-56500000D03*
X97275000Y-56500000D03*
%TD*%
D10*
%TO.C,R16*%
X109675000Y-56500000D03*
X111325000Y-56500000D03*
%TD*%
D14*
%TO.C,C44*%
X167125000Y-75400000D03*
X168675000Y-75400000D03*
%TD*%
D24*
%TO.C,U9*%
X87445000Y-41125000D03*
X86175000Y-41125000D03*
X84905000Y-41125000D03*
X83635000Y-41125000D03*
X82365000Y-41125000D03*
X81095000Y-41125000D03*
X79825000Y-41125000D03*
X78555000Y-41125000D03*
X78555000Y-50875000D03*
X79825000Y-50875000D03*
X81095000Y-50875000D03*
X82365000Y-50875000D03*
X83635000Y-50875000D03*
X84905000Y-50875000D03*
X86175000Y-50875000D03*
X87445000Y-50875000D03*
%TD*%
D18*
%TO.C,R21*%
X107750000Y-12925000D03*
X107750000Y-11275000D03*
%TD*%
D15*
%TO.C,U1*%
X143555000Y-50875000D03*
X144825000Y-50875000D03*
X146095000Y-50875000D03*
X147365000Y-50875000D03*
X148635000Y-50875000D03*
X149905000Y-50875000D03*
X151175000Y-50875000D03*
X152445000Y-50875000D03*
X152445000Y-41125000D03*
X151175000Y-41125000D03*
X149905000Y-41125000D03*
X146095000Y-41125000D03*
X144825000Y-41125000D03*
X143555000Y-41125000D03*
%TD*%
D18*
%TO.C,R36*%
X58000000Y-99825000D03*
X58000000Y-98175000D03*
%TD*%
D25*
%TO.C,R5*%
X127135000Y-9615000D03*
D26*
X125230000Y-9170000D03*
D27*
X127770000Y-16030000D03*
D25*
X125865000Y-15585000D03*
%TD*%
D23*
%TO.C,U12*%
X164862500Y-83050000D03*
X164862500Y-84000000D03*
X164862500Y-84950000D03*
X167137500Y-84950000D03*
X167137500Y-83050000D03*
%TD*%
D28*
%TO.C,Q4*%
X100562500Y-56050000D03*
X100562500Y-57950000D03*
X102437500Y-57000000D03*
%TD*%
D14*
%TO.C,C35*%
X74025000Y-34800000D03*
X75575000Y-34800000D03*
%TD*%
D16*
%TO.C,R29*%
X52000000Y-88637500D03*
X52000000Y-91562500D03*
%TD*%
D21*
%TO.C,R12*%
X132550000Y-14062500D03*
X132550000Y-11137500D03*
%TD*%
D29*
%TO.C,U4*%
X60175000Y-82095000D03*
X60175000Y-83365000D03*
X60175000Y-84635000D03*
X60175000Y-85905000D03*
X70825000Y-85905000D03*
X70825000Y-84635000D03*
X70825000Y-83365000D03*
X70825000Y-82095000D03*
%TD*%
D30*
%TO.C,J2*%
X228065000Y-67565000D03*
X228065000Y-73435000D03*
X233935000Y-67565000D03*
X233935000Y-73435000D03*
%TD*%
D28*
%TO.C,Q1*%
X144562500Y-56050000D03*
X144562500Y-57950000D03*
X146437500Y-57000000D03*
%TD*%
D16*
%TO.C,R28*%
X52000000Y-83937500D03*
X52000000Y-86862500D03*
%TD*%
D30*
%TO.C,J7*%
X10065000Y-14565000D03*
X10065000Y-20435000D03*
X15935000Y-14565000D03*
X15935000Y-20435000D03*
%TD*%
D23*
%TO.C,U7*%
X60862500Y-94050000D03*
X60862500Y-95000000D03*
X60862500Y-95950000D03*
X63137500Y-95950000D03*
X63137500Y-94050000D03*
%TD*%
D18*
%TO.C,R11*%
X147750000Y-12925000D03*
X147750000Y-11275000D03*
%TD*%
D31*
%TO.C,R41*%
X177500000Y-79175000D03*
X177500000Y-80825000D03*
%TD*%
D18*
%TO.C,R19*%
X89750000Y-12925000D03*
X89750000Y-11275000D03*
%TD*%
D22*
%TO.C,R47*%
X161825000Y-85800000D03*
X160175000Y-85800000D03*
%TD*%
D14*
%TO.C,C7*%
X139725000Y-56500000D03*
X141275000Y-56500000D03*
%TD*%
D10*
%TO.C,R8*%
X153675000Y-56500000D03*
X155325000Y-56500000D03*
%TD*%
D21*
%TO.C,R18*%
X92550000Y-14062500D03*
X92550000Y-11137500D03*
%TD*%
D11*
%TO.C,C29*%
X70000000Y-77775000D03*
X70000000Y-76225000D03*
%TD*%
D22*
%TO.C,R43*%
X170525000Y-77350000D03*
X168875000Y-77350000D03*
%TD*%
D10*
%TO.C,R7*%
X149675000Y-59500000D03*
X151325000Y-59500000D03*
%TD*%
D23*
%TO.C,U8*%
X73662500Y-37850000D03*
X73662500Y-38800000D03*
X73662500Y-39750000D03*
X75937500Y-39750000D03*
X75937500Y-37850000D03*
%TD*%
D18*
%TO.C,R40*%
X174500000Y-80825000D03*
X174500000Y-79175000D03*
%TD*%
D30*
%TO.C,J10*%
X44065000Y-27565000D03*
X44065000Y-33435000D03*
X49935000Y-27565000D03*
X49935000Y-33435000D03*
%TD*%
D23*
%TO.C,U6*%
X70862500Y-18050000D03*
X70862500Y-19000000D03*
X70862500Y-19950000D03*
X73137500Y-19950000D03*
X73137500Y-18050000D03*
%TD*%
D11*
%TO.C,C47*%
X102200000Y-71275000D03*
X102200000Y-69725000D03*
%TD*%
D14*
%TO.C,C46*%
X167125000Y-81400000D03*
X168675000Y-81400000D03*
%TD*%
%TO.C,C32*%
X71225000Y-23000000D03*
X72775000Y-23000000D03*
%TD*%
D32*
%TO.C,D5*%
X164600000Y-67000000D03*
X167400000Y-67000000D03*
%TD*%
D23*
%TO.C,U13*%
X104462500Y-69550000D03*
X104462500Y-70500000D03*
X104462500Y-71450000D03*
X106737500Y-71450000D03*
X106737500Y-70500000D03*
X106737500Y-69550000D03*
%TD*%
D10*
%TO.C,R45*%
X160175000Y-74450000D03*
X161825000Y-74450000D03*
%TD*%
D18*
%TO.C,R32*%
X75500000Y-24325000D03*
X75500000Y-22675000D03*
%TD*%
D14*
%TO.C,C8*%
X154725000Y-39600000D03*
X156275000Y-39600000D03*
%TD*%
D21*
%TO.C,R3*%
X63500000Y-62962500D03*
X63500000Y-60037500D03*
%TD*%
D17*
%TO.C,C16*%
X110025000Y-35600000D03*
X112975000Y-35600000D03*
%TD*%
D14*
%TO.C,C25*%
X61225000Y-13500000D03*
X62775000Y-13500000D03*
%TD*%
D18*
%TO.C,R34*%
X78000000Y-24325000D03*
X78000000Y-22675000D03*
%TD*%
%TO.C,R13*%
X129750000Y-12925000D03*
X129750000Y-11275000D03*
%TD*%
%TO.C,R35*%
X80500000Y-26325000D03*
X80500000Y-24675000D03*
%TD*%
D30*
%TO.C,J8*%
X10065000Y-27565000D03*
X10065000Y-33435000D03*
X15935000Y-27565000D03*
X15935000Y-33435000D03*
%TD*%
D17*
%TO.C,C10*%
X136525000Y-39300000D03*
X139475000Y-39300000D03*
%TD*%
D32*
%TO.C,D4*%
X164600000Y-64000000D03*
X167400000Y-64000000D03*
%TD*%
D28*
%TO.C,U5*%
X81062500Y-17550000D03*
X81062500Y-19450000D03*
X82937500Y-18500000D03*
%TD*%
D20*
%TO.C,C19*%
X99255000Y-9700000D03*
X102205000Y-9700000D03*
%TD*%
D33*
%TO.C,C42*%
X174500000Y-69025000D03*
X174500000Y-71975000D03*
%TD*%
D30*
%TO.C,J9*%
X44065000Y-14565000D03*
X44065000Y-20435000D03*
X49935000Y-14565000D03*
X49935000Y-20435000D03*
%TD*%
D14*
%TO.C,C36*%
X82225000Y-37500000D03*
X83775000Y-37500000D03*
%TD*%
D34*
%TO.C,R24*%
X202537500Y-145000000D03*
X205462500Y-145000000D03*
%TD*%
D20*
%TO.C,C20*%
X117255000Y-9700000D03*
X120205000Y-9700000D03*
%TD*%
D11*
%TO.C,C30*%
X78000000Y-19775000D03*
X78000000Y-18225000D03*
%TD*%
%TO.C,C27*%
X57000000Y-92775000D03*
X57000000Y-91225000D03*
%TD*%
D34*
%TO.C,R22*%
X188537500Y-145000000D03*
X191462500Y-145000000D03*
%TD*%
D19*
%TO.C,C26*%
X57500000Y-19475000D03*
X57500000Y-16525000D03*
%TD*%
D14*
%TO.C,C34*%
X65725000Y-95000000D03*
X67275000Y-95000000D03*
%TD*%
D16*
%TO.C,R2*%
X82000000Y-127737500D03*
X82000000Y-130662500D03*
%TD*%
D23*
%TO.C,U10*%
X164862500Y-77050000D03*
X164862500Y-78000000D03*
X164862500Y-78950000D03*
X167137500Y-78950000D03*
X167137500Y-77050000D03*
%TD*%
D16*
%TO.C,R26*%
X52000000Y-74537500D03*
X52000000Y-77462500D03*
%TD*%
D11*
%TO.C,C28*%
X57000000Y-82775000D03*
X57000000Y-81225000D03*
%TD*%
D16*
%TO.C,R27*%
X52000000Y-79237500D03*
X52000000Y-82162500D03*
%TD*%
D18*
%TO.C,R37*%
X61000000Y-99825000D03*
X61000000Y-98175000D03*
%TD*%
D35*
%TO.C,R42*%
X172462500Y-65500000D03*
X169537500Y-65500000D03*
%TD*%
D17*
%TO.C,C17*%
X92525000Y-39300000D03*
X95475000Y-39300000D03*
%TD*%
D11*
%TO.C,C18*%
X97400000Y-39575000D03*
X97400000Y-38025000D03*
%TD*%
D18*
%TO.C,R30*%
X57000000Y-88825000D03*
X57000000Y-87175000D03*
%TD*%
D16*
%TO.C,R1*%
X82000000Y-122537500D03*
X82000000Y-125462500D03*
%TD*%
D21*
%TO.C,R10*%
X150550000Y-14062500D03*
X150550000Y-11137500D03*
%TD*%
D20*
%TO.C,C43*%
X174525000Y-84000000D03*
X177475000Y-84000000D03*
%TD*%
D36*
%TO.C,T1*%
X206550000Y-76080000D03*
X206550000Y-64920000D03*
D37*
X181250000Y-63620000D03*
X181250000Y-77380000D03*
%TD*%
D10*
%TO.C,R17*%
X109675000Y-59500000D03*
X111325000Y-59500000D03*
%TD*%
%TO.C,R44*%
X168875000Y-78950000D03*
X170525000Y-78950000D03*
%TD*%
D11*
%TO.C,C31*%
X83000000Y-26275000D03*
X83000000Y-24725000D03*
%TD*%
D10*
%TO.C,R9*%
X153675000Y-59500000D03*
X155325000Y-59500000D03*
%TD*%
D34*
%TO.C,R23*%
X195537500Y-145000000D03*
X198462500Y-145000000D03*
%TD*%
%TO.C,R25*%
X208837500Y-145000000D03*
X211762500Y-145000000D03*
%TD*%
D30*
%TO.C,J5*%
X222065000Y-148065000D03*
X222065000Y-153935000D03*
X227935000Y-148065000D03*
X227935000Y-153935000D03*
%TD*%
M02*
