M48
; DRILL file KiCad 10.0.4 date 2026-09-28T10:04:30
; FORMAT={-:-/ absolute / metric / decimal}
; #@! TF.CreationDate,2026-09-28T10:04:30-06:00
; #@! TF.GenerationSoftware,Kicad,Pcbnew,10.0.4
; #@! TF.FileFunction,Plated,1,4,PTH
FMAT,2
METRIC
; #@! TA.AperFunction,Plated,PTH,ViaDrill
T1C0.300
; #@! TA.AperFunction,Plated,PTH,ViaDrill
T2C0.800
; #@! TA.AperFunction,Plated,PTH,ComponentDrill
T3C0.900
; #@! TA.AperFunction,Plated,PTH,ComponentDrill
T4C1.020
; #@! TA.AperFunction,Plated,PTH,ComponentDrill
T5C1.100
; #@! TA.AperFunction,Plated,PTH,ComponentDrill
T6C1.200
; #@! TA.AperFunction,Plated,PTH,ComponentDrill
T7C1.300
; #@! TA.AperFunction,Plated,PTH,ComponentDrill
T8C1.400
; #@! TA.AperFunction,Plated,PTH,ComponentDrill
T9C1.500
; #@! TA.AperFunction,Plated,PTH,ComponentDrill
T10C1.600
; #@! TA.AperFunction,Plated,PTH,ComponentDrill
T11C1.700
; #@! TA.AperFunction,Plated,PTH,ComponentDrill
T12C1.800
; #@! TA.AperFunction,Plated,PTH,ComponentDrill
T13C1.850
; #@! TA.AperFunction,Plated,PTH,ComponentDrill
T14C2.000
; #@! TA.AperFunction,Plated,PTH,ComponentDrill
T15C2.500
%
G90
G05
T1
X46.0Y-42.0
X53.0Y-41.2
X53.5Y-96.0
X55.6Y-91.9
X56.4Y-99.8
X58.2Y-85.3
X58.3Y-92.3
X58.4Y-80.4
X58.4Y-89.6
X58.6Y-83.4
X58.6Y-87.2
X59.0Y-21.8
X59.3Y-95.0
X59.5Y-90.8
X60.175Y-80.6
X61.0Y-72.0
X61.225Y-11.5
X62.0Y-21.8
X62.5Y-98.2
X63.137Y-96.9
X63.4Y-92.8
X67.3Y-96.6
X68.5Y-17.0
X68.5Y-21.5
X68.8Y-23.5
X68.8Y-25.5
X70.0Y-22.3
X70.0Y-79.6
X71.0Y-16.0
X72.0Y-76.225
X72.5Y-36.0
X72.5Y-38.8
X73.0Y-29.0
X73.0Y-82.095
X73.0Y-85.905
X73.5Y-41.7
X73.6Y-25.0
X74.0Y-15.9
X74.5Y-20.8
X75.5Y-27.0
X76.8Y-15.9
X76.8Y-18.0
X78.0Y-21.3
X78.5Y-37.8
X78.555Y-53.0
X79.0Y-31.0
X79.5Y-27.0
X79.825Y-39.1
X80.5Y-23.0
X81.0Y-39.0
X81.15Y-20.6
X82.225Y-36.0
X82.225Y-54.6
X82.825Y-20.5
X83.0Y-53.2
X83.775Y-58.4
X84.4Y-26.3
X84.905Y-53.0
X85.7Y-39.0
X87.445Y-53.0
X87.7Y-37.0
X88.3Y-10.6
X95.725Y-54.6
X96.5Y-35.5
X97.275Y-58.4
X99.555Y-53.0
X100.825Y-54.3
X101.8Y-60.3
X102.095Y-33.0
X102.095Y-53.3
X102.2Y-68.4
X102.2Y-72.6
X102.44Y-58.9
X103.365Y-53.3
X103.8Y-72.7
X104.325Y-81.0
X104.46Y-68.2
X104.635Y-53.5
X105.905Y-52.4
X106.1Y-34.0
X106.1Y-39.6
X106.5Y-58.0
X107.325Y-61.2
X107.6Y-10.2
X108.4Y-69.4
X108.4Y-71.0
X108.445Y-52.9
X109.5Y-39.6
X109.675Y-55.1
X109.675Y-58.0
X111.325Y-61.2
X113.0Y-33.4
X113.0Y-56.5
X114.9Y-17.8
X114.9Y-35.0
X119.6Y-20.5
X122.3Y-72.5
X123.3Y-71.5
X126.0Y-73.5
X128.5Y-19.8
X129.0Y-74.5
X134.8Y-17.5
X136.0Y-18.6
X139.725Y-54.6
X141.275Y-58.4
X143.2Y-63.6
X144.825Y-54.4
X145.8Y-60.3
X146.095Y-53.3
X146.44Y-58.9
X147.365Y-53.3
X148.635Y-53.5
X149.905Y-52.4
X150.45Y-39.5
X150.5Y-58.0
X151.325Y-61.2
X151.8Y-38.8
X152.445Y-52.9
X153.2Y-38.6
X153.675Y-55.1
X153.675Y-58.0
X154.725Y-40.5
X155.325Y-61.2
X157.0Y-56.5
X159.1Y-72.95
X159.1Y-74.45
X163.2Y-64.0
X163.2Y-85.8
X163.35Y-72.0
X163.35Y-78.0
X163.35Y-84.0
X164.86Y-80.15
X165.85Y-69.4
X165.85Y-75.4
X165.85Y-81.4
X168.75Y-67.6
X169.75Y-69.4
X169.75Y-75.4
X169.75Y-81.4
X171.0Y-74.0
X171.6Y-77.35
X171.6Y-78.95
X174.5Y-82.0
X177.5Y-82.0
X177.9Y-84.0
X213.2Y-151.5
T2
X58.5Y-2.5
X58.5Y-4.5
X58.5Y-6.5
X67.2Y-32.2
X67.2Y-34.0
X68.5Y-47.0
X68.5Y-48.8
X68.5Y-53.0
X68.5Y-54.8
X68.5Y-56.6
X68.5Y-58.4
X81.5Y-2.5
X81.5Y-4.5
X81.5Y-6.5
X83.5Y-28.6
X83.5Y-30.4
X85.3Y-29.5
X90.0Y-28.6
X90.0Y-30.4
X91.5Y-29.5
X122.6Y-18.2
X124.4Y-18.2
X126.2Y-18.6
X126.9Y-4.3
X128.4Y-4.3
X129.9Y-4.3
X198.5Y-72.0
X201.5Y-22.0
X217.0Y-88.5
X217.0Y-91.0
X219.5Y-89.5
T3
X138.5Y-83.0
X138.5Y-93.0
X145.5Y-83.0
X145.5Y-93.0
T4
X112.5Y-64.08
X112.5Y-67.08
X115.5Y-64.08
X115.5Y-67.08
X118.5Y-64.08
X118.5Y-67.08
X121.5Y-64.08
X121.5Y-67.08
X124.5Y-64.08
X124.5Y-67.08
X127.5Y-64.08
X127.5Y-67.08
X130.5Y-64.08
X130.5Y-67.08
X133.5Y-64.08
X133.5Y-67.08
T5
X88.42Y-34.0
X98.58Y-34.0
X121.34Y-40.0
X131.5Y-40.0
T6
X30.0Y-12.35
X30.0Y-34.85
X52.75Y-127.5
X64.451Y-147.0
X71.951Y-147.0
X75.25Y-127.5
X88.4Y-22.0
X103.4Y-22.0
X109.0Y-22.0
X124.0Y-22.0
X129.0Y-22.0
X144.0Y-22.0
X149.6Y-22.0
X164.6Y-22.0
T7
X6.7Y-150.455
X6.7Y-155.535
T8
X110.6Y-79.5
X125.84Y-79.5
X212.5Y-10.75
X212.5Y-53.25
T9
X5.0Y-84.0
X5.0Y-94.75
X43.5Y-86.75
X43.5Y-94.75
X76.0Y-116.0
X88.8Y-71.0
X92.55Y-4.215
X96.8Y-71.0
X96.8Y-116.0
X98.0Y-4.215
X103.45Y-4.215
X110.55Y-4.215
X116.0Y-4.215
X121.45Y-4.215
X132.55Y-4.215
X138.0Y-4.215
X143.45Y-4.215
X150.55Y-4.215
X156.0Y-4.215
X161.45Y-4.215
T10
X16.3Y-4.6
X26.3Y-4.6
X33.8Y-4.6
X41.3Y-4.6
X58.0Y-44.95
X58.0Y-64.95
X191.75Y-97.0
X191.75Y-125.5
X234.25Y-97.0
X234.25Y-125.5
T11
X36.45Y-101.32
X36.45Y-105.28
T12
X13.0Y-43.95
X13.0Y-64.25
X50.5Y-43.95
X50.5Y-64.25
X174.35Y-13.25
X174.35Y-50.75
X194.65Y-13.25
X194.65Y-50.75
T13
X10.065Y-14.565
X10.065Y-20.435
X10.065Y-27.565
X10.065Y-33.435
X15.935Y-14.565
X15.935Y-20.435
X15.935Y-27.565
X15.935Y-33.435
X44.065Y-14.565
X44.065Y-20.435
X44.065Y-27.565
X44.065Y-33.435
X49.935Y-14.565
X49.935Y-20.435
X49.935Y-27.565
X49.935Y-33.435
X222.065Y-148.065
X222.065Y-153.935
X227.935Y-148.065
X227.935Y-153.935
X228.065Y-67.565
X228.065Y-73.435
X233.935Y-67.565
X233.935Y-73.435
T14
X19.15Y-153.0
X26.75Y-153.0
X46.25Y-153.0
X53.85Y-153.0
T15
X19.0Y-110.5
X19.0Y-135.5
X29.0Y-110.5
X29.0Y-135.5
M30
