%TF.GenerationSoftware,KiCad,Pcbnew,10.0.4*%
%TF.CreationDate,2026-09-28T10:04:30-06:00*%
%TF.ProjectId,section,73656374-696f-46e2-9e6b-696361645f70,rev?*%
%TF.SameCoordinates,Original*%
%TF.FileFunction,Drillmap*%
%TF.FilePolarity,Positive*%
%FSLAX45Y45*%
G04 Gerber Fmt 4.5, Leading zero omitted, Abs format (unit mm)*
G04 Created by KiCad (PCBNEW 10.0.4) date 2026-09-28 10:04:30*
%MOMM*%
%LPD*%
G01*
G04 APERTURE LIST*
%ADD10C,0.100000*%
%ADD11C,0.200000*%
%ADD12C,0.102000*%
%ADD13C,0.430000*%
G04 APERTURE END LIST*
D10*
X0Y0D02*
X24000000Y0D01*
X24000000Y-16000000D01*
X0Y-16000000D01*
X0Y0D01*
D11*
D12*
X10899000Y-6751000D02*
X11001000Y-6853000D01*
X11001000Y-6751000D02*
X10899000Y-6853000D01*
X13599000Y-6751000D02*
X13701000Y-6853000D01*
X13701000Y-6751000D02*
X13599000Y-6853000D01*
D13*
X1515000Y-1750000D02*
G75*
G02*
X1085000Y-1750000I-215000J0D01*
G01*
X1085000Y-1750000D02*
G75*
G02*
X1515000Y-1750000I215000J0D01*
G01*
X1515000Y-3050000D02*
G75*
G02*
X1085000Y-3050000I-215000J0D01*
G01*
X1085000Y-3050000D02*
G75*
G02*
X1515000Y-3050000I215000J0D01*
G01*
X4915000Y-1750000D02*
G75*
G02*
X4485000Y-1750000I-215000J0D01*
G01*
X4485000Y-1750000D02*
G75*
G02*
X4915000Y-1750000I215000J0D01*
G01*
X4915000Y-3050000D02*
G75*
G02*
X4485000Y-3050000I-215000J0D01*
G01*
X4485000Y-3050000D02*
G75*
G02*
X4915000Y-3050000I215000J0D01*
G01*
X22715000Y-15100000D02*
G75*
G02*
X22285000Y-15100000I-215000J0D01*
G01*
X22285000Y-15100000D02*
G75*
G02*
X22715000Y-15100000I215000J0D01*
G01*
X23315000Y-7050000D02*
G75*
G02*
X22885000Y-7050000I-215000J0D01*
G01*
X22885000Y-7050000D02*
G75*
G02*
X23315000Y-7050000I215000J0D01*
G01*
D11*
X255777Y-16316484D02*
X255777Y-16116484D01*
X255777Y-16116484D02*
X303396Y-16116484D01*
X303396Y-16116484D02*
X331967Y-16126008D01*
X331967Y-16126008D02*
X351015Y-16145055D01*
X351015Y-16145055D02*
X360539Y-16164103D01*
X360539Y-16164103D02*
X370062Y-16202198D01*
X370062Y-16202198D02*
X370062Y-16230769D01*
X370062Y-16230769D02*
X360539Y-16268865D01*
X360539Y-16268865D02*
X351015Y-16287912D01*
X351015Y-16287912D02*
X331967Y-16306960D01*
X331967Y-16306960D02*
X303396Y-16316484D01*
X303396Y-16316484D02*
X255777Y-16316484D01*
X455777Y-16316484D02*
X455777Y-16183150D01*
X455777Y-16221246D02*
X465301Y-16202198D01*
X465301Y-16202198D02*
X474824Y-16192674D01*
X474824Y-16192674D02*
X493872Y-16183150D01*
X493872Y-16183150D02*
X512920Y-16183150D01*
X579586Y-16316484D02*
X579586Y-16183150D01*
X579586Y-16116484D02*
X570063Y-16126008D01*
X570063Y-16126008D02*
X579586Y-16135531D01*
X579586Y-16135531D02*
X589110Y-16126008D01*
X589110Y-16126008D02*
X579586Y-16116484D01*
X579586Y-16116484D02*
X579586Y-16135531D01*
X703396Y-16316484D02*
X684348Y-16306960D01*
X684348Y-16306960D02*
X674824Y-16287912D01*
X674824Y-16287912D02*
X674824Y-16116484D01*
X808158Y-16316484D02*
X789110Y-16306960D01*
X789110Y-16306960D02*
X779586Y-16287912D01*
X779586Y-16287912D02*
X779586Y-16116484D01*
X1036729Y-16316484D02*
X1036729Y-16116484D01*
X1036729Y-16116484D02*
X1103396Y-16259341D01*
X1103396Y-16259341D02*
X1170063Y-16116484D01*
X1170063Y-16116484D02*
X1170063Y-16316484D01*
X1351015Y-16316484D02*
X1351015Y-16211722D01*
X1351015Y-16211722D02*
X1341491Y-16192674D01*
X1341491Y-16192674D02*
X1322444Y-16183150D01*
X1322444Y-16183150D02*
X1284348Y-16183150D01*
X1284348Y-16183150D02*
X1265301Y-16192674D01*
X1351015Y-16306960D02*
X1331967Y-16316484D01*
X1331967Y-16316484D02*
X1284348Y-16316484D01*
X1284348Y-16316484D02*
X1265301Y-16306960D01*
X1265301Y-16306960D02*
X1255777Y-16287912D01*
X1255777Y-16287912D02*
X1255777Y-16268865D01*
X1255777Y-16268865D02*
X1265301Y-16249817D01*
X1265301Y-16249817D02*
X1284348Y-16240293D01*
X1284348Y-16240293D02*
X1331967Y-16240293D01*
X1331967Y-16240293D02*
X1351015Y-16230769D01*
X1446253Y-16183150D02*
X1446253Y-16383150D01*
X1446253Y-16192674D02*
X1465301Y-16183150D01*
X1465301Y-16183150D02*
X1503396Y-16183150D01*
X1503396Y-16183150D02*
X1522443Y-16192674D01*
X1522443Y-16192674D02*
X1531967Y-16202198D01*
X1531967Y-16202198D02*
X1541491Y-16221246D01*
X1541491Y-16221246D02*
X1541491Y-16278388D01*
X1541491Y-16278388D02*
X1531967Y-16297436D01*
X1531967Y-16297436D02*
X1522443Y-16306960D01*
X1522443Y-16306960D02*
X1503396Y-16316484D01*
X1503396Y-16316484D02*
X1465301Y-16316484D01*
X1465301Y-16316484D02*
X1446253Y-16306960D01*
X1627205Y-16297436D02*
X1636729Y-16306960D01*
X1636729Y-16306960D02*
X1627205Y-16316484D01*
X1627205Y-16316484D02*
X1617682Y-16306960D01*
X1617682Y-16306960D02*
X1627205Y-16297436D01*
X1627205Y-16297436D02*
X1627205Y-16316484D01*
X1627205Y-16192674D02*
X1636729Y-16202198D01*
X1636729Y-16202198D02*
X1627205Y-16211722D01*
X1627205Y-16211722D02*
X1617682Y-16202198D01*
X1617682Y-16202198D02*
X1627205Y-16192674D01*
X1627205Y-16192674D02*
X1627205Y-16211722D01*
D12*
X-107000Y-16594000D02*
X-5000Y-16696000D01*
X-5000Y-16594000D02*
X-107000Y-16696000D01*
D11*
X360539Y-16736484D02*
X246253Y-16736484D01*
X303396Y-16736484D02*
X303396Y-16536484D01*
X303396Y-16536484D02*
X284348Y-16565055D01*
X284348Y-16565055D02*
X265301Y-16584103D01*
X265301Y-16584103D02*
X246253Y-16593627D01*
X446253Y-16717436D02*
X455777Y-16726960D01*
X455777Y-16726960D02*
X446253Y-16736484D01*
X446253Y-16736484D02*
X436729Y-16726960D01*
X436729Y-16726960D02*
X446253Y-16717436D01*
X446253Y-16717436D02*
X446253Y-16736484D01*
X579586Y-16536484D02*
X598634Y-16536484D01*
X598634Y-16536484D02*
X617682Y-16546008D01*
X617682Y-16546008D02*
X627205Y-16555531D01*
X627205Y-16555531D02*
X636729Y-16574579D01*
X636729Y-16574579D02*
X646253Y-16612674D01*
X646253Y-16612674D02*
X646253Y-16660293D01*
X646253Y-16660293D02*
X636729Y-16698388D01*
X636729Y-16698388D02*
X627205Y-16717436D01*
X627205Y-16717436D02*
X617682Y-16726960D01*
X617682Y-16726960D02*
X598634Y-16736484D01*
X598634Y-16736484D02*
X579586Y-16736484D01*
X579586Y-16736484D02*
X560539Y-16726960D01*
X560539Y-16726960D02*
X551015Y-16717436D01*
X551015Y-16717436D02*
X541491Y-16698388D01*
X541491Y-16698388D02*
X531967Y-16660293D01*
X531967Y-16660293D02*
X531967Y-16612674D01*
X531967Y-16612674D02*
X541491Y-16574579D01*
X541491Y-16574579D02*
X551015Y-16555531D01*
X551015Y-16555531D02*
X560539Y-16546008D01*
X560539Y-16546008D02*
X579586Y-16536484D01*
X722443Y-16555531D02*
X731967Y-16546008D01*
X731967Y-16546008D02*
X751015Y-16536484D01*
X751015Y-16536484D02*
X798634Y-16536484D01*
X798634Y-16536484D02*
X817682Y-16546008D01*
X817682Y-16546008D02*
X827205Y-16555531D01*
X827205Y-16555531D02*
X836729Y-16574579D01*
X836729Y-16574579D02*
X836729Y-16593627D01*
X836729Y-16593627D02*
X827205Y-16622198D01*
X827205Y-16622198D02*
X712920Y-16736484D01*
X712920Y-16736484D02*
X836729Y-16736484D01*
X960539Y-16536484D02*
X979586Y-16536484D01*
X979586Y-16536484D02*
X998634Y-16546008D01*
X998634Y-16546008D02*
X1008158Y-16555531D01*
X1008158Y-16555531D02*
X1017682Y-16574579D01*
X1017682Y-16574579D02*
X1027205Y-16612674D01*
X1027205Y-16612674D02*
X1027205Y-16660293D01*
X1027205Y-16660293D02*
X1017682Y-16698388D01*
X1017682Y-16698388D02*
X1008158Y-16717436D01*
X1008158Y-16717436D02*
X998634Y-16726960D01*
X998634Y-16726960D02*
X979586Y-16736484D01*
X979586Y-16736484D02*
X960539Y-16736484D01*
X960539Y-16736484D02*
X941491Y-16726960D01*
X941491Y-16726960D02*
X931967Y-16717436D01*
X931967Y-16717436D02*
X922443Y-16698388D01*
X922443Y-16698388D02*
X912920Y-16660293D01*
X912920Y-16660293D02*
X912920Y-16612674D01*
X912920Y-16612674D02*
X922443Y-16574579D01*
X922443Y-16574579D02*
X931967Y-16555531D01*
X931967Y-16555531D02*
X941491Y-16546008D01*
X941491Y-16546008D02*
X960539Y-16536484D01*
X1112920Y-16736484D02*
X1112920Y-16603150D01*
X1112920Y-16622198D02*
X1122444Y-16612674D01*
X1122444Y-16612674D02*
X1141491Y-16603150D01*
X1141491Y-16603150D02*
X1170063Y-16603150D01*
X1170063Y-16603150D02*
X1189110Y-16612674D01*
X1189110Y-16612674D02*
X1198634Y-16631722D01*
X1198634Y-16631722D02*
X1198634Y-16736484D01*
X1198634Y-16631722D02*
X1208158Y-16612674D01*
X1208158Y-16612674D02*
X1227205Y-16603150D01*
X1227205Y-16603150D02*
X1255777Y-16603150D01*
X1255777Y-16603150D02*
X1274825Y-16612674D01*
X1274825Y-16612674D02*
X1284348Y-16631722D01*
X1284348Y-16631722D02*
X1284348Y-16736484D01*
X1379586Y-16736484D02*
X1379586Y-16603150D01*
X1379586Y-16622198D02*
X1389110Y-16612674D01*
X1389110Y-16612674D02*
X1408158Y-16603150D01*
X1408158Y-16603150D02*
X1436729Y-16603150D01*
X1436729Y-16603150D02*
X1455777Y-16612674D01*
X1455777Y-16612674D02*
X1465301Y-16631722D01*
X1465301Y-16631722D02*
X1465301Y-16736484D01*
X1465301Y-16631722D02*
X1474824Y-16612674D01*
X1474824Y-16612674D02*
X1493872Y-16603150D01*
X1493872Y-16603150D02*
X1522443Y-16603150D01*
X1522443Y-16603150D02*
X1541491Y-16612674D01*
X1541491Y-16612674D02*
X1551015Y-16631722D01*
X1551015Y-16631722D02*
X1551015Y-16736484D01*
X1941491Y-16526960D02*
X1770063Y-16784103D01*
X2198634Y-16536484D02*
X2217682Y-16536484D01*
X2217682Y-16536484D02*
X2236729Y-16546008D01*
X2236729Y-16546008D02*
X2246253Y-16555531D01*
X2246253Y-16555531D02*
X2255777Y-16574579D01*
X2255777Y-16574579D02*
X2265301Y-16612674D01*
X2265301Y-16612674D02*
X2265301Y-16660293D01*
X2265301Y-16660293D02*
X2255777Y-16698388D01*
X2255777Y-16698388D02*
X2246253Y-16717436D01*
X2246253Y-16717436D02*
X2236729Y-16726960D01*
X2236729Y-16726960D02*
X2217682Y-16736484D01*
X2217682Y-16736484D02*
X2198634Y-16736484D01*
X2198634Y-16736484D02*
X2179587Y-16726960D01*
X2179587Y-16726960D02*
X2170063Y-16717436D01*
X2170063Y-16717436D02*
X2160539Y-16698388D01*
X2160539Y-16698388D02*
X2151015Y-16660293D01*
X2151015Y-16660293D02*
X2151015Y-16612674D01*
X2151015Y-16612674D02*
X2160539Y-16574579D01*
X2160539Y-16574579D02*
X2170063Y-16555531D01*
X2170063Y-16555531D02*
X2179587Y-16546008D01*
X2179587Y-16546008D02*
X2198634Y-16536484D01*
X2351015Y-16717436D02*
X2360539Y-16726960D01*
X2360539Y-16726960D02*
X2351015Y-16736484D01*
X2351015Y-16736484D02*
X2341491Y-16726960D01*
X2341491Y-16726960D02*
X2351015Y-16717436D01*
X2351015Y-16717436D02*
X2351015Y-16736484D01*
X2484348Y-16536484D02*
X2503396Y-16536484D01*
X2503396Y-16536484D02*
X2522444Y-16546008D01*
X2522444Y-16546008D02*
X2531968Y-16555531D01*
X2531968Y-16555531D02*
X2541491Y-16574579D01*
X2541491Y-16574579D02*
X2551015Y-16612674D01*
X2551015Y-16612674D02*
X2551015Y-16660293D01*
X2551015Y-16660293D02*
X2541491Y-16698388D01*
X2541491Y-16698388D02*
X2531968Y-16717436D01*
X2531968Y-16717436D02*
X2522444Y-16726960D01*
X2522444Y-16726960D02*
X2503396Y-16736484D01*
X2503396Y-16736484D02*
X2484348Y-16736484D01*
X2484348Y-16736484D02*
X2465301Y-16726960D01*
X2465301Y-16726960D02*
X2455777Y-16717436D01*
X2455777Y-16717436D02*
X2446253Y-16698388D01*
X2446253Y-16698388D02*
X2436729Y-16660293D01*
X2436729Y-16660293D02*
X2436729Y-16612674D01*
X2436729Y-16612674D02*
X2446253Y-16574579D01*
X2446253Y-16574579D02*
X2455777Y-16555531D01*
X2455777Y-16555531D02*
X2465301Y-16546008D01*
X2465301Y-16546008D02*
X2484348Y-16536484D01*
X2722444Y-16603150D02*
X2722444Y-16736484D01*
X2674825Y-16526960D02*
X2627206Y-16669817D01*
X2627206Y-16669817D02*
X2751015Y-16669817D01*
X2865301Y-16536484D02*
X2884348Y-16536484D01*
X2884348Y-16536484D02*
X2903396Y-16546008D01*
X2903396Y-16546008D02*
X2912920Y-16555531D01*
X2912920Y-16555531D02*
X2922444Y-16574579D01*
X2922444Y-16574579D02*
X2931967Y-16612674D01*
X2931967Y-16612674D02*
X2931967Y-16660293D01*
X2931967Y-16660293D02*
X2922444Y-16698388D01*
X2922444Y-16698388D02*
X2912920Y-16717436D01*
X2912920Y-16717436D02*
X2903396Y-16726960D01*
X2903396Y-16726960D02*
X2884348Y-16736484D01*
X2884348Y-16736484D02*
X2865301Y-16736484D01*
X2865301Y-16736484D02*
X2846253Y-16726960D01*
X2846253Y-16726960D02*
X2836729Y-16717436D01*
X2836729Y-16717436D02*
X2827206Y-16698388D01*
X2827206Y-16698388D02*
X2817682Y-16660293D01*
X2817682Y-16660293D02*
X2817682Y-16612674D01*
X2817682Y-16612674D02*
X2827206Y-16574579D01*
X2827206Y-16574579D02*
X2836729Y-16555531D01*
X2836729Y-16555531D02*
X2846253Y-16546008D01*
X2846253Y-16546008D02*
X2865301Y-16536484D01*
X3008158Y-16555531D02*
X3017682Y-16546008D01*
X3017682Y-16546008D02*
X3036729Y-16536484D01*
X3036729Y-16536484D02*
X3084348Y-16536484D01*
X3084348Y-16536484D02*
X3103396Y-16546008D01*
X3103396Y-16546008D02*
X3112920Y-16555531D01*
X3112920Y-16555531D02*
X3122444Y-16574579D01*
X3122444Y-16574579D02*
X3122444Y-16593627D01*
X3122444Y-16593627D02*
X3112920Y-16622198D01*
X3112920Y-16622198D02*
X2998634Y-16736484D01*
X2998634Y-16736484D02*
X3122444Y-16736484D01*
X3198634Y-16536484D02*
X3198634Y-16574579D01*
X3274825Y-16536484D02*
X3274825Y-16574579D01*
X3570063Y-16812674D02*
X3560539Y-16803150D01*
X3560539Y-16803150D02*
X3541491Y-16774579D01*
X3541491Y-16774579D02*
X3531968Y-16755531D01*
X3531968Y-16755531D02*
X3522444Y-16726960D01*
X3522444Y-16726960D02*
X3512920Y-16679341D01*
X3512920Y-16679341D02*
X3512920Y-16641246D01*
X3512920Y-16641246D02*
X3522444Y-16593627D01*
X3522444Y-16593627D02*
X3531968Y-16565055D01*
X3531968Y-16565055D02*
X3541491Y-16546008D01*
X3541491Y-16546008D02*
X3560539Y-16517436D01*
X3560539Y-16517436D02*
X3570063Y-16507912D01*
X3636729Y-16555531D02*
X3646253Y-16546008D01*
X3646253Y-16546008D02*
X3665301Y-16536484D01*
X3665301Y-16536484D02*
X3712920Y-16536484D01*
X3712920Y-16536484D02*
X3731968Y-16546008D01*
X3731968Y-16546008D02*
X3741491Y-16555531D01*
X3741491Y-16555531D02*
X3751015Y-16574579D01*
X3751015Y-16574579D02*
X3751015Y-16593627D01*
X3751015Y-16593627D02*
X3741491Y-16622198D01*
X3741491Y-16622198D02*
X3627206Y-16736484D01*
X3627206Y-16736484D02*
X3751015Y-16736484D01*
X3989110Y-16736484D02*
X3989110Y-16536484D01*
X4074825Y-16736484D02*
X4074825Y-16631722D01*
X4074825Y-16631722D02*
X4065301Y-16612674D01*
X4065301Y-16612674D02*
X4046253Y-16603150D01*
X4046253Y-16603150D02*
X4017682Y-16603150D01*
X4017682Y-16603150D02*
X3998634Y-16612674D01*
X3998634Y-16612674D02*
X3989110Y-16622198D01*
X4198634Y-16736484D02*
X4179587Y-16726960D01*
X4179587Y-16726960D02*
X4170063Y-16717436D01*
X4170063Y-16717436D02*
X4160539Y-16698388D01*
X4160539Y-16698388D02*
X4160539Y-16641246D01*
X4160539Y-16641246D02*
X4170063Y-16622198D01*
X4170063Y-16622198D02*
X4179587Y-16612674D01*
X4179587Y-16612674D02*
X4198634Y-16603150D01*
X4198634Y-16603150D02*
X4227206Y-16603150D01*
X4227206Y-16603150D02*
X4246253Y-16612674D01*
X4246253Y-16612674D02*
X4255777Y-16622198D01*
X4255777Y-16622198D02*
X4265301Y-16641246D01*
X4265301Y-16641246D02*
X4265301Y-16698388D01*
X4265301Y-16698388D02*
X4255777Y-16717436D01*
X4255777Y-16717436D02*
X4246253Y-16726960D01*
X4246253Y-16726960D02*
X4227206Y-16736484D01*
X4227206Y-16736484D02*
X4198634Y-16736484D01*
X4379587Y-16736484D02*
X4360539Y-16726960D01*
X4360539Y-16726960D02*
X4351015Y-16707912D01*
X4351015Y-16707912D02*
X4351015Y-16536484D01*
X4531968Y-16726960D02*
X4512920Y-16736484D01*
X4512920Y-16736484D02*
X4474825Y-16736484D01*
X4474825Y-16736484D02*
X4455777Y-16726960D01*
X4455777Y-16726960D02*
X4446253Y-16707912D01*
X4446253Y-16707912D02*
X4446253Y-16631722D01*
X4446253Y-16631722D02*
X4455777Y-16612674D01*
X4455777Y-16612674D02*
X4474825Y-16603150D01*
X4474825Y-16603150D02*
X4512920Y-16603150D01*
X4512920Y-16603150D02*
X4531968Y-16612674D01*
X4531968Y-16612674D02*
X4541492Y-16631722D01*
X4541492Y-16631722D02*
X4541492Y-16650769D01*
X4541492Y-16650769D02*
X4446253Y-16669817D01*
X4617682Y-16726960D02*
X4636730Y-16736484D01*
X4636730Y-16736484D02*
X4674825Y-16736484D01*
X4674825Y-16736484D02*
X4693873Y-16726960D01*
X4693873Y-16726960D02*
X4703396Y-16707912D01*
X4703396Y-16707912D02*
X4703396Y-16698388D01*
X4703396Y-16698388D02*
X4693873Y-16679341D01*
X4693873Y-16679341D02*
X4674825Y-16669817D01*
X4674825Y-16669817D02*
X4646253Y-16669817D01*
X4646253Y-16669817D02*
X4627206Y-16660293D01*
X4627206Y-16660293D02*
X4617682Y-16641246D01*
X4617682Y-16641246D02*
X4617682Y-16631722D01*
X4617682Y-16631722D02*
X4627206Y-16612674D01*
X4627206Y-16612674D02*
X4646253Y-16603150D01*
X4646253Y-16603150D02*
X4674825Y-16603150D01*
X4674825Y-16603150D02*
X4693873Y-16612674D01*
X4770063Y-16812674D02*
X4779587Y-16803150D01*
X4779587Y-16803150D02*
X4798634Y-16774579D01*
X4798634Y-16774579D02*
X4808158Y-16755531D01*
X4808158Y-16755531D02*
X4817682Y-16726960D01*
X4817682Y-16726960D02*
X4827206Y-16679341D01*
X4827206Y-16679341D02*
X4827206Y-16641246D01*
X4827206Y-16641246D02*
X4817682Y-16593627D01*
X4817682Y-16593627D02*
X4808158Y-16565055D01*
X4808158Y-16565055D02*
X4798634Y-16546008D01*
X4798634Y-16546008D02*
X4779587Y-16517436D01*
X4779587Y-16517436D02*
X4770063Y-16507912D01*
X5131968Y-16812674D02*
X5122444Y-16803150D01*
X5122444Y-16803150D02*
X5103396Y-16774579D01*
X5103396Y-16774579D02*
X5093873Y-16755531D01*
X5093873Y-16755531D02*
X5084349Y-16726960D01*
X5084349Y-16726960D02*
X5074825Y-16679341D01*
X5074825Y-16679341D02*
X5074825Y-16641246D01*
X5074825Y-16641246D02*
X5084349Y-16593627D01*
X5084349Y-16593627D02*
X5093873Y-16565055D01*
X5093873Y-16565055D02*
X5103396Y-16546008D01*
X5103396Y-16546008D02*
X5122444Y-16517436D01*
X5122444Y-16517436D02*
X5131968Y-16507912D01*
X5208158Y-16603150D02*
X5208158Y-16736484D01*
X5208158Y-16622198D02*
X5217682Y-16612674D01*
X5217682Y-16612674D02*
X5236730Y-16603150D01*
X5236730Y-16603150D02*
X5265301Y-16603150D01*
X5265301Y-16603150D02*
X5284349Y-16612674D01*
X5284349Y-16612674D02*
X5293873Y-16631722D01*
X5293873Y-16631722D02*
X5293873Y-16736484D01*
X5417682Y-16736484D02*
X5398634Y-16726960D01*
X5398634Y-16726960D02*
X5389111Y-16717436D01*
X5389111Y-16717436D02*
X5379587Y-16698388D01*
X5379587Y-16698388D02*
X5379587Y-16641246D01*
X5379587Y-16641246D02*
X5389111Y-16622198D01*
X5389111Y-16622198D02*
X5398634Y-16612674D01*
X5398634Y-16612674D02*
X5417682Y-16603150D01*
X5417682Y-16603150D02*
X5446254Y-16603150D01*
X5446254Y-16603150D02*
X5465301Y-16612674D01*
X5465301Y-16612674D02*
X5474825Y-16622198D01*
X5474825Y-16622198D02*
X5484349Y-16641246D01*
X5484349Y-16641246D02*
X5484349Y-16698388D01*
X5484349Y-16698388D02*
X5474825Y-16717436D01*
X5474825Y-16717436D02*
X5465301Y-16726960D01*
X5465301Y-16726960D02*
X5446254Y-16736484D01*
X5446254Y-16736484D02*
X5417682Y-16736484D01*
X5541492Y-16603150D02*
X5617682Y-16603150D01*
X5570063Y-16536484D02*
X5570063Y-16707912D01*
X5570063Y-16707912D02*
X5579587Y-16726960D01*
X5579587Y-16726960D02*
X5598634Y-16736484D01*
X5598634Y-16736484D02*
X5617682Y-16736484D01*
X5836730Y-16603150D02*
X5836730Y-16803150D01*
X5836730Y-16612674D02*
X5855777Y-16603150D01*
X5855777Y-16603150D02*
X5893873Y-16603150D01*
X5893873Y-16603150D02*
X5912920Y-16612674D01*
X5912920Y-16612674D02*
X5922444Y-16622198D01*
X5922444Y-16622198D02*
X5931968Y-16641246D01*
X5931968Y-16641246D02*
X5931968Y-16698388D01*
X5931968Y-16698388D02*
X5922444Y-16717436D01*
X5922444Y-16717436D02*
X5912920Y-16726960D01*
X5912920Y-16726960D02*
X5893873Y-16736484D01*
X5893873Y-16736484D02*
X5855777Y-16736484D01*
X5855777Y-16736484D02*
X5836730Y-16726960D01*
X6046253Y-16736484D02*
X6027206Y-16726960D01*
X6027206Y-16726960D02*
X6017682Y-16707912D01*
X6017682Y-16707912D02*
X6017682Y-16536484D01*
X6208158Y-16736484D02*
X6208158Y-16631722D01*
X6208158Y-16631722D02*
X6198634Y-16612674D01*
X6198634Y-16612674D02*
X6179587Y-16603150D01*
X6179587Y-16603150D02*
X6141492Y-16603150D01*
X6141492Y-16603150D02*
X6122444Y-16612674D01*
X6208158Y-16726960D02*
X6189111Y-16736484D01*
X6189111Y-16736484D02*
X6141492Y-16736484D01*
X6141492Y-16736484D02*
X6122444Y-16726960D01*
X6122444Y-16726960D02*
X6112920Y-16707912D01*
X6112920Y-16707912D02*
X6112920Y-16688865D01*
X6112920Y-16688865D02*
X6122444Y-16669817D01*
X6122444Y-16669817D02*
X6141492Y-16660293D01*
X6141492Y-16660293D02*
X6189111Y-16660293D01*
X6189111Y-16660293D02*
X6208158Y-16650769D01*
X6274825Y-16603150D02*
X6351015Y-16603150D01*
X6303396Y-16536484D02*
X6303396Y-16707912D01*
X6303396Y-16707912D02*
X6312920Y-16726960D01*
X6312920Y-16726960D02*
X6331968Y-16736484D01*
X6331968Y-16736484D02*
X6351015Y-16736484D01*
X6493873Y-16726960D02*
X6474825Y-16736484D01*
X6474825Y-16736484D02*
X6436730Y-16736484D01*
X6436730Y-16736484D02*
X6417682Y-16726960D01*
X6417682Y-16726960D02*
X6408158Y-16707912D01*
X6408158Y-16707912D02*
X6408158Y-16631722D01*
X6408158Y-16631722D02*
X6417682Y-16612674D01*
X6417682Y-16612674D02*
X6436730Y-16603150D01*
X6436730Y-16603150D02*
X6474825Y-16603150D01*
X6474825Y-16603150D02*
X6493873Y-16612674D01*
X6493873Y-16612674D02*
X6503396Y-16631722D01*
X6503396Y-16631722D02*
X6503396Y-16650769D01*
X6503396Y-16650769D02*
X6408158Y-16669817D01*
X6674825Y-16736484D02*
X6674825Y-16536484D01*
X6674825Y-16726960D02*
X6655777Y-16736484D01*
X6655777Y-16736484D02*
X6617682Y-16736484D01*
X6617682Y-16736484D02*
X6598634Y-16726960D01*
X6598634Y-16726960D02*
X6589111Y-16717436D01*
X6589111Y-16717436D02*
X6579587Y-16698388D01*
X6579587Y-16698388D02*
X6579587Y-16641246D01*
X6579587Y-16641246D02*
X6589111Y-16622198D01*
X6589111Y-16622198D02*
X6598634Y-16612674D01*
X6598634Y-16612674D02*
X6617682Y-16603150D01*
X6617682Y-16603150D02*
X6655777Y-16603150D01*
X6655777Y-16603150D02*
X6674825Y-16612674D01*
X6751015Y-16812674D02*
X6760539Y-16803150D01*
X6760539Y-16803150D02*
X6779587Y-16774579D01*
X6779587Y-16774579D02*
X6789111Y-16755531D01*
X6789111Y-16755531D02*
X6798634Y-16726960D01*
X6798634Y-16726960D02*
X6808158Y-16679341D01*
X6808158Y-16679341D02*
X6808158Y-16641246D01*
X6808158Y-16641246D02*
X6798634Y-16593627D01*
X6798634Y-16593627D02*
X6789111Y-16565055D01*
X6789111Y-16565055D02*
X6779587Y-16546008D01*
X6779587Y-16546008D02*
X6760539Y-16517436D01*
X6760539Y-16517436D02*
X6751015Y-16507912D01*
X-5000Y-16909000D02*
G75*
G02*
X-205000Y-16909000I-100000J0D01*
G01*
X-205000Y-16909000D02*
G75*
G02*
X-5000Y-16909000I100000J0D01*
G01*
X341491Y-16867150D02*
X341491Y-17000484D01*
X293872Y-16790960D02*
X246253Y-16933817D01*
X246253Y-16933817D02*
X370062Y-16933817D01*
X446253Y-16981436D02*
X455777Y-16990960D01*
X455777Y-16990960D02*
X446253Y-17000484D01*
X446253Y-17000484D02*
X436729Y-16990960D01*
X436729Y-16990960D02*
X446253Y-16981436D01*
X446253Y-16981436D02*
X446253Y-17000484D01*
X522443Y-16800484D02*
X646253Y-16800484D01*
X646253Y-16800484D02*
X579586Y-16876674D01*
X579586Y-16876674D02*
X608158Y-16876674D01*
X608158Y-16876674D02*
X627205Y-16886198D01*
X627205Y-16886198D02*
X636729Y-16895722D01*
X636729Y-16895722D02*
X646253Y-16914770D01*
X646253Y-16914770D02*
X646253Y-16962389D01*
X646253Y-16962389D02*
X636729Y-16981436D01*
X636729Y-16981436D02*
X627205Y-16990960D01*
X627205Y-16990960D02*
X608158Y-17000484D01*
X608158Y-17000484D02*
X551015Y-17000484D01*
X551015Y-17000484D02*
X531967Y-16990960D01*
X531967Y-16990960D02*
X522443Y-16981436D01*
X770062Y-16800484D02*
X789110Y-16800484D01*
X789110Y-16800484D02*
X808158Y-16810008D01*
X808158Y-16810008D02*
X817682Y-16819531D01*
X817682Y-16819531D02*
X827205Y-16838579D01*
X827205Y-16838579D02*
X836729Y-16876674D01*
X836729Y-16876674D02*
X836729Y-16924293D01*
X836729Y-16924293D02*
X827205Y-16962389D01*
X827205Y-16962389D02*
X817682Y-16981436D01*
X817682Y-16981436D02*
X808158Y-16990960D01*
X808158Y-16990960D02*
X789110Y-17000484D01*
X789110Y-17000484D02*
X770062Y-17000484D01*
X770062Y-17000484D02*
X751015Y-16990960D01*
X751015Y-16990960D02*
X741491Y-16981436D01*
X741491Y-16981436D02*
X731967Y-16962389D01*
X731967Y-16962389D02*
X722443Y-16924293D01*
X722443Y-16924293D02*
X722443Y-16876674D01*
X722443Y-16876674D02*
X731967Y-16838579D01*
X731967Y-16838579D02*
X741491Y-16819531D01*
X741491Y-16819531D02*
X751015Y-16810008D01*
X751015Y-16810008D02*
X770062Y-16800484D01*
X960539Y-16800484D02*
X979586Y-16800484D01*
X979586Y-16800484D02*
X998634Y-16810008D01*
X998634Y-16810008D02*
X1008158Y-16819531D01*
X1008158Y-16819531D02*
X1017682Y-16838579D01*
X1017682Y-16838579D02*
X1027205Y-16876674D01*
X1027205Y-16876674D02*
X1027205Y-16924293D01*
X1027205Y-16924293D02*
X1017682Y-16962389D01*
X1017682Y-16962389D02*
X1008158Y-16981436D01*
X1008158Y-16981436D02*
X998634Y-16990960D01*
X998634Y-16990960D02*
X979586Y-17000484D01*
X979586Y-17000484D02*
X960539Y-17000484D01*
X960539Y-17000484D02*
X941491Y-16990960D01*
X941491Y-16990960D02*
X931967Y-16981436D01*
X931967Y-16981436D02*
X922443Y-16962389D01*
X922443Y-16962389D02*
X912920Y-16924293D01*
X912920Y-16924293D02*
X912920Y-16876674D01*
X912920Y-16876674D02*
X922443Y-16838579D01*
X922443Y-16838579D02*
X931967Y-16819531D01*
X931967Y-16819531D02*
X941491Y-16810008D01*
X941491Y-16810008D02*
X960539Y-16800484D01*
X1112920Y-17000484D02*
X1112920Y-16867150D01*
X1112920Y-16886198D02*
X1122444Y-16876674D01*
X1122444Y-16876674D02*
X1141491Y-16867150D01*
X1141491Y-16867150D02*
X1170063Y-16867150D01*
X1170063Y-16867150D02*
X1189110Y-16876674D01*
X1189110Y-16876674D02*
X1198634Y-16895722D01*
X1198634Y-16895722D02*
X1198634Y-17000484D01*
X1198634Y-16895722D02*
X1208158Y-16876674D01*
X1208158Y-16876674D02*
X1227205Y-16867150D01*
X1227205Y-16867150D02*
X1255777Y-16867150D01*
X1255777Y-16867150D02*
X1274825Y-16876674D01*
X1274825Y-16876674D02*
X1284348Y-16895722D01*
X1284348Y-16895722D02*
X1284348Y-17000484D01*
X1379586Y-17000484D02*
X1379586Y-16867150D01*
X1379586Y-16886198D02*
X1389110Y-16876674D01*
X1389110Y-16876674D02*
X1408158Y-16867150D01*
X1408158Y-16867150D02*
X1436729Y-16867150D01*
X1436729Y-16867150D02*
X1455777Y-16876674D01*
X1455777Y-16876674D02*
X1465301Y-16895722D01*
X1465301Y-16895722D02*
X1465301Y-17000484D01*
X1465301Y-16895722D02*
X1474824Y-16876674D01*
X1474824Y-16876674D02*
X1493872Y-16867150D01*
X1493872Y-16867150D02*
X1522443Y-16867150D01*
X1522443Y-16867150D02*
X1541491Y-16876674D01*
X1541491Y-16876674D02*
X1551015Y-16895722D01*
X1551015Y-16895722D02*
X1551015Y-17000484D01*
X1941491Y-16790960D02*
X1770063Y-17048103D01*
X2198634Y-16800484D02*
X2217682Y-16800484D01*
X2217682Y-16800484D02*
X2236729Y-16810008D01*
X2236729Y-16810008D02*
X2246253Y-16819531D01*
X2246253Y-16819531D02*
X2255777Y-16838579D01*
X2255777Y-16838579D02*
X2265301Y-16876674D01*
X2265301Y-16876674D02*
X2265301Y-16924293D01*
X2265301Y-16924293D02*
X2255777Y-16962389D01*
X2255777Y-16962389D02*
X2246253Y-16981436D01*
X2246253Y-16981436D02*
X2236729Y-16990960D01*
X2236729Y-16990960D02*
X2217682Y-17000484D01*
X2217682Y-17000484D02*
X2198634Y-17000484D01*
X2198634Y-17000484D02*
X2179587Y-16990960D01*
X2179587Y-16990960D02*
X2170063Y-16981436D01*
X2170063Y-16981436D02*
X2160539Y-16962389D01*
X2160539Y-16962389D02*
X2151015Y-16924293D01*
X2151015Y-16924293D02*
X2151015Y-16876674D01*
X2151015Y-16876674D02*
X2160539Y-16838579D01*
X2160539Y-16838579D02*
X2170063Y-16819531D01*
X2170063Y-16819531D02*
X2179587Y-16810008D01*
X2179587Y-16810008D02*
X2198634Y-16800484D01*
X2351015Y-16981436D02*
X2360539Y-16990960D01*
X2360539Y-16990960D02*
X2351015Y-17000484D01*
X2351015Y-17000484D02*
X2341491Y-16990960D01*
X2341491Y-16990960D02*
X2351015Y-16981436D01*
X2351015Y-16981436D02*
X2351015Y-17000484D01*
X2551015Y-17000484D02*
X2436729Y-17000484D01*
X2493872Y-17000484D02*
X2493872Y-16800484D01*
X2493872Y-16800484D02*
X2474825Y-16829055D01*
X2474825Y-16829055D02*
X2455777Y-16848103D01*
X2455777Y-16848103D02*
X2436729Y-16857627D01*
X2722444Y-16800484D02*
X2684348Y-16800484D01*
X2684348Y-16800484D02*
X2665301Y-16810008D01*
X2665301Y-16810008D02*
X2655777Y-16819531D01*
X2655777Y-16819531D02*
X2636729Y-16848103D01*
X2636729Y-16848103D02*
X2627206Y-16886198D01*
X2627206Y-16886198D02*
X2627206Y-16962389D01*
X2627206Y-16962389D02*
X2636729Y-16981436D01*
X2636729Y-16981436D02*
X2646253Y-16990960D01*
X2646253Y-16990960D02*
X2665301Y-17000484D01*
X2665301Y-17000484D02*
X2703396Y-17000484D01*
X2703396Y-17000484D02*
X2722444Y-16990960D01*
X2722444Y-16990960D02*
X2731968Y-16981436D01*
X2731968Y-16981436D02*
X2741491Y-16962389D01*
X2741491Y-16962389D02*
X2741491Y-16914770D01*
X2741491Y-16914770D02*
X2731968Y-16895722D01*
X2731968Y-16895722D02*
X2722444Y-16886198D01*
X2722444Y-16886198D02*
X2703396Y-16876674D01*
X2703396Y-16876674D02*
X2665301Y-16876674D01*
X2665301Y-16876674D02*
X2646253Y-16886198D01*
X2646253Y-16886198D02*
X2636729Y-16895722D01*
X2636729Y-16895722D02*
X2627206Y-16914770D01*
X2836729Y-17000484D02*
X2874825Y-17000484D01*
X2874825Y-17000484D02*
X2893872Y-16990960D01*
X2893872Y-16990960D02*
X2903396Y-16981436D01*
X2903396Y-16981436D02*
X2922444Y-16952865D01*
X2922444Y-16952865D02*
X2931967Y-16914770D01*
X2931967Y-16914770D02*
X2931967Y-16838579D01*
X2931967Y-16838579D02*
X2922444Y-16819531D01*
X2922444Y-16819531D02*
X2912920Y-16810008D01*
X2912920Y-16810008D02*
X2893872Y-16800484D01*
X2893872Y-16800484D02*
X2855777Y-16800484D01*
X2855777Y-16800484D02*
X2836729Y-16810008D01*
X2836729Y-16810008D02*
X2827206Y-16819531D01*
X2827206Y-16819531D02*
X2817682Y-16838579D01*
X2817682Y-16838579D02*
X2817682Y-16886198D01*
X2817682Y-16886198D02*
X2827206Y-16905246D01*
X2827206Y-16905246D02*
X2836729Y-16914770D01*
X2836729Y-16914770D02*
X2855777Y-16924293D01*
X2855777Y-16924293D02*
X2893872Y-16924293D01*
X2893872Y-16924293D02*
X2912920Y-16914770D01*
X2912920Y-16914770D02*
X2922444Y-16905246D01*
X2922444Y-16905246D02*
X2931967Y-16886198D01*
X2998634Y-16800484D02*
X3122444Y-16800484D01*
X3122444Y-16800484D02*
X3055777Y-16876674D01*
X3055777Y-16876674D02*
X3084348Y-16876674D01*
X3084348Y-16876674D02*
X3103396Y-16886198D01*
X3103396Y-16886198D02*
X3112920Y-16895722D01*
X3112920Y-16895722D02*
X3122444Y-16914770D01*
X3122444Y-16914770D02*
X3122444Y-16962389D01*
X3122444Y-16962389D02*
X3112920Y-16981436D01*
X3112920Y-16981436D02*
X3103396Y-16990960D01*
X3103396Y-16990960D02*
X3084348Y-17000484D01*
X3084348Y-17000484D02*
X3027206Y-17000484D01*
X3027206Y-17000484D02*
X3008158Y-16990960D01*
X3008158Y-16990960D02*
X2998634Y-16981436D01*
X3198634Y-16800484D02*
X3198634Y-16838579D01*
X3274825Y-16800484D02*
X3274825Y-16838579D01*
X3570063Y-17076674D02*
X3560539Y-17067150D01*
X3560539Y-17067150D02*
X3541491Y-17038579D01*
X3541491Y-17038579D02*
X3531968Y-17019531D01*
X3531968Y-17019531D02*
X3522444Y-16990960D01*
X3522444Y-16990960D02*
X3512920Y-16943341D01*
X3512920Y-16943341D02*
X3512920Y-16905246D01*
X3512920Y-16905246D02*
X3522444Y-16857627D01*
X3522444Y-16857627D02*
X3531968Y-16829055D01*
X3531968Y-16829055D02*
X3541491Y-16810008D01*
X3541491Y-16810008D02*
X3560539Y-16781436D01*
X3560539Y-16781436D02*
X3570063Y-16771912D01*
X3731968Y-16800484D02*
X3693872Y-16800484D01*
X3693872Y-16800484D02*
X3674825Y-16810008D01*
X3674825Y-16810008D02*
X3665301Y-16819531D01*
X3665301Y-16819531D02*
X3646253Y-16848103D01*
X3646253Y-16848103D02*
X3636729Y-16886198D01*
X3636729Y-16886198D02*
X3636729Y-16962389D01*
X3636729Y-16962389D02*
X3646253Y-16981436D01*
X3646253Y-16981436D02*
X3655777Y-16990960D01*
X3655777Y-16990960D02*
X3674825Y-17000484D01*
X3674825Y-17000484D02*
X3712920Y-17000484D01*
X3712920Y-17000484D02*
X3731968Y-16990960D01*
X3731968Y-16990960D02*
X3741491Y-16981436D01*
X3741491Y-16981436D02*
X3751015Y-16962389D01*
X3751015Y-16962389D02*
X3751015Y-16914770D01*
X3751015Y-16914770D02*
X3741491Y-16895722D01*
X3741491Y-16895722D02*
X3731968Y-16886198D01*
X3731968Y-16886198D02*
X3712920Y-16876674D01*
X3712920Y-16876674D02*
X3674825Y-16876674D01*
X3674825Y-16876674D02*
X3655777Y-16886198D01*
X3655777Y-16886198D02*
X3646253Y-16895722D01*
X3646253Y-16895722D02*
X3636729Y-16914770D01*
X3989110Y-17000484D02*
X3989110Y-16800484D01*
X4074825Y-17000484D02*
X4074825Y-16895722D01*
X4074825Y-16895722D02*
X4065301Y-16876674D01*
X4065301Y-16876674D02*
X4046253Y-16867150D01*
X4046253Y-16867150D02*
X4017682Y-16867150D01*
X4017682Y-16867150D02*
X3998634Y-16876674D01*
X3998634Y-16876674D02*
X3989110Y-16886198D01*
X4198634Y-17000484D02*
X4179587Y-16990960D01*
X4179587Y-16990960D02*
X4170063Y-16981436D01*
X4170063Y-16981436D02*
X4160539Y-16962389D01*
X4160539Y-16962389D02*
X4160539Y-16905246D01*
X4160539Y-16905246D02*
X4170063Y-16886198D01*
X4170063Y-16886198D02*
X4179587Y-16876674D01*
X4179587Y-16876674D02*
X4198634Y-16867150D01*
X4198634Y-16867150D02*
X4227206Y-16867150D01*
X4227206Y-16867150D02*
X4246253Y-16876674D01*
X4246253Y-16876674D02*
X4255777Y-16886198D01*
X4255777Y-16886198D02*
X4265301Y-16905246D01*
X4265301Y-16905246D02*
X4265301Y-16962389D01*
X4265301Y-16962389D02*
X4255777Y-16981436D01*
X4255777Y-16981436D02*
X4246253Y-16990960D01*
X4246253Y-16990960D02*
X4227206Y-17000484D01*
X4227206Y-17000484D02*
X4198634Y-17000484D01*
X4379587Y-17000484D02*
X4360539Y-16990960D01*
X4360539Y-16990960D02*
X4351015Y-16971912D01*
X4351015Y-16971912D02*
X4351015Y-16800484D01*
X4531968Y-16990960D02*
X4512920Y-17000484D01*
X4512920Y-17000484D02*
X4474825Y-17000484D01*
X4474825Y-17000484D02*
X4455777Y-16990960D01*
X4455777Y-16990960D02*
X4446253Y-16971912D01*
X4446253Y-16971912D02*
X4446253Y-16895722D01*
X4446253Y-16895722D02*
X4455777Y-16876674D01*
X4455777Y-16876674D02*
X4474825Y-16867150D01*
X4474825Y-16867150D02*
X4512920Y-16867150D01*
X4512920Y-16867150D02*
X4531968Y-16876674D01*
X4531968Y-16876674D02*
X4541492Y-16895722D01*
X4541492Y-16895722D02*
X4541492Y-16914770D01*
X4541492Y-16914770D02*
X4446253Y-16933817D01*
X4617682Y-16990960D02*
X4636730Y-17000484D01*
X4636730Y-17000484D02*
X4674825Y-17000484D01*
X4674825Y-17000484D02*
X4693873Y-16990960D01*
X4693873Y-16990960D02*
X4703396Y-16971912D01*
X4703396Y-16971912D02*
X4703396Y-16962389D01*
X4703396Y-16962389D02*
X4693873Y-16943341D01*
X4693873Y-16943341D02*
X4674825Y-16933817D01*
X4674825Y-16933817D02*
X4646253Y-16933817D01*
X4646253Y-16933817D02*
X4627206Y-16924293D01*
X4627206Y-16924293D02*
X4617682Y-16905246D01*
X4617682Y-16905246D02*
X4617682Y-16895722D01*
X4617682Y-16895722D02*
X4627206Y-16876674D01*
X4627206Y-16876674D02*
X4646253Y-16867150D01*
X4646253Y-16867150D02*
X4674825Y-16867150D01*
X4674825Y-16867150D02*
X4693873Y-16876674D01*
X4770063Y-17076674D02*
X4779587Y-17067150D01*
X4779587Y-17067150D02*
X4798634Y-17038579D01*
X4798634Y-17038579D02*
X4808158Y-17019531D01*
X4808158Y-17019531D02*
X4817682Y-16990960D01*
X4817682Y-16990960D02*
X4827206Y-16943341D01*
X4827206Y-16943341D02*
X4827206Y-16905246D01*
X4827206Y-16905246D02*
X4817682Y-16857627D01*
X4817682Y-16857627D02*
X4808158Y-16829055D01*
X4808158Y-16829055D02*
X4798634Y-16810008D01*
X4798634Y-16810008D02*
X4779587Y-16781436D01*
X4779587Y-16781436D02*
X4770063Y-16771912D01*
X5131968Y-17076674D02*
X5122444Y-17067150D01*
X5122444Y-17067150D02*
X5103396Y-17038579D01*
X5103396Y-17038579D02*
X5093873Y-17019531D01*
X5093873Y-17019531D02*
X5084349Y-16990960D01*
X5084349Y-16990960D02*
X5074825Y-16943341D01*
X5074825Y-16943341D02*
X5074825Y-16905246D01*
X5074825Y-16905246D02*
X5084349Y-16857627D01*
X5084349Y-16857627D02*
X5093873Y-16829055D01*
X5093873Y-16829055D02*
X5103396Y-16810008D01*
X5103396Y-16810008D02*
X5122444Y-16781436D01*
X5122444Y-16781436D02*
X5131968Y-16771912D01*
X5208158Y-16867150D02*
X5208158Y-17000484D01*
X5208158Y-16886198D02*
X5217682Y-16876674D01*
X5217682Y-16876674D02*
X5236730Y-16867150D01*
X5236730Y-16867150D02*
X5265301Y-16867150D01*
X5265301Y-16867150D02*
X5284349Y-16876674D01*
X5284349Y-16876674D02*
X5293873Y-16895722D01*
X5293873Y-16895722D02*
X5293873Y-17000484D01*
X5417682Y-17000484D02*
X5398634Y-16990960D01*
X5398634Y-16990960D02*
X5389111Y-16981436D01*
X5389111Y-16981436D02*
X5379587Y-16962389D01*
X5379587Y-16962389D02*
X5379587Y-16905246D01*
X5379587Y-16905246D02*
X5389111Y-16886198D01*
X5389111Y-16886198D02*
X5398634Y-16876674D01*
X5398634Y-16876674D02*
X5417682Y-16867150D01*
X5417682Y-16867150D02*
X5446254Y-16867150D01*
X5446254Y-16867150D02*
X5465301Y-16876674D01*
X5465301Y-16876674D02*
X5474825Y-16886198D01*
X5474825Y-16886198D02*
X5484349Y-16905246D01*
X5484349Y-16905246D02*
X5484349Y-16962389D01*
X5484349Y-16962389D02*
X5474825Y-16981436D01*
X5474825Y-16981436D02*
X5465301Y-16990960D01*
X5465301Y-16990960D02*
X5446254Y-17000484D01*
X5446254Y-17000484D02*
X5417682Y-17000484D01*
X5541492Y-16867150D02*
X5617682Y-16867150D01*
X5570063Y-16800484D02*
X5570063Y-16971912D01*
X5570063Y-16971912D02*
X5579587Y-16990960D01*
X5579587Y-16990960D02*
X5598634Y-17000484D01*
X5598634Y-17000484D02*
X5617682Y-17000484D01*
X5836730Y-16867150D02*
X5836730Y-17067150D01*
X5836730Y-16876674D02*
X5855777Y-16867150D01*
X5855777Y-16867150D02*
X5893873Y-16867150D01*
X5893873Y-16867150D02*
X5912920Y-16876674D01*
X5912920Y-16876674D02*
X5922444Y-16886198D01*
X5922444Y-16886198D02*
X5931968Y-16905246D01*
X5931968Y-16905246D02*
X5931968Y-16962389D01*
X5931968Y-16962389D02*
X5922444Y-16981436D01*
X5922444Y-16981436D02*
X5912920Y-16990960D01*
X5912920Y-16990960D02*
X5893873Y-17000484D01*
X5893873Y-17000484D02*
X5855777Y-17000484D01*
X5855777Y-17000484D02*
X5836730Y-16990960D01*
X6046253Y-17000484D02*
X6027206Y-16990960D01*
X6027206Y-16990960D02*
X6017682Y-16971912D01*
X6017682Y-16971912D02*
X6017682Y-16800484D01*
X6208158Y-17000484D02*
X6208158Y-16895722D01*
X6208158Y-16895722D02*
X6198634Y-16876674D01*
X6198634Y-16876674D02*
X6179587Y-16867150D01*
X6179587Y-16867150D02*
X6141492Y-16867150D01*
X6141492Y-16867150D02*
X6122444Y-16876674D01*
X6208158Y-16990960D02*
X6189111Y-17000484D01*
X6189111Y-17000484D02*
X6141492Y-17000484D01*
X6141492Y-17000484D02*
X6122444Y-16990960D01*
X6122444Y-16990960D02*
X6112920Y-16971912D01*
X6112920Y-16971912D02*
X6112920Y-16952865D01*
X6112920Y-16952865D02*
X6122444Y-16933817D01*
X6122444Y-16933817D02*
X6141492Y-16924293D01*
X6141492Y-16924293D02*
X6189111Y-16924293D01*
X6189111Y-16924293D02*
X6208158Y-16914770D01*
X6274825Y-16867150D02*
X6351015Y-16867150D01*
X6303396Y-16800484D02*
X6303396Y-16971912D01*
X6303396Y-16971912D02*
X6312920Y-16990960D01*
X6312920Y-16990960D02*
X6331968Y-17000484D01*
X6331968Y-17000484D02*
X6351015Y-17000484D01*
X6493873Y-16990960D02*
X6474825Y-17000484D01*
X6474825Y-17000484D02*
X6436730Y-17000484D01*
X6436730Y-17000484D02*
X6417682Y-16990960D01*
X6417682Y-16990960D02*
X6408158Y-16971912D01*
X6408158Y-16971912D02*
X6408158Y-16895722D01*
X6408158Y-16895722D02*
X6417682Y-16876674D01*
X6417682Y-16876674D02*
X6436730Y-16867150D01*
X6436730Y-16867150D02*
X6474825Y-16867150D01*
X6474825Y-16867150D02*
X6493873Y-16876674D01*
X6493873Y-16876674D02*
X6503396Y-16895722D01*
X6503396Y-16895722D02*
X6503396Y-16914770D01*
X6503396Y-16914770D02*
X6408158Y-16933817D01*
X6674825Y-17000484D02*
X6674825Y-16800484D01*
X6674825Y-16990960D02*
X6655777Y-17000484D01*
X6655777Y-17000484D02*
X6617682Y-17000484D01*
X6617682Y-17000484D02*
X6598634Y-16990960D01*
X6598634Y-16990960D02*
X6589111Y-16981436D01*
X6589111Y-16981436D02*
X6579587Y-16962389D01*
X6579587Y-16962389D02*
X6579587Y-16905246D01*
X6579587Y-16905246D02*
X6589111Y-16886198D01*
X6589111Y-16886198D02*
X6598634Y-16876674D01*
X6598634Y-16876674D02*
X6617682Y-16867150D01*
X6617682Y-16867150D02*
X6655777Y-16867150D01*
X6655777Y-16867150D02*
X6674825Y-16876674D01*
X6751015Y-17076674D02*
X6760539Y-17067150D01*
X6760539Y-17067150D02*
X6779587Y-17038579D01*
X6779587Y-17038579D02*
X6789111Y-17019531D01*
X6789111Y-17019531D02*
X6798634Y-16990960D01*
X6798634Y-16990960D02*
X6808158Y-16943341D01*
X6808158Y-16943341D02*
X6808158Y-16905246D01*
X6808158Y-16905246D02*
X6798634Y-16857627D01*
X6798634Y-16857627D02*
X6789111Y-16829055D01*
X6789111Y-16829055D02*
X6779587Y-16810008D01*
X6779587Y-16810008D02*
X6760539Y-16781436D01*
X6760539Y-16781436D02*
X6751015Y-16771912D01*
M02*
