%TF.GenerationSoftware,KiCad,Pcbnew,10.0.4*%
%TF.CreationDate,2026-09-28T10:04:29-06:00*%
%TF.ProjectId,section,73656374-696f-46e2-9e6b-696361645f70,rev?*%
%TF.SameCoordinates,Original*%
%TF.FileFunction,Copper,L1,Top*%
%TF.FilePolarity,Positive*%
%FSLAX46Y46*%
G04 Gerber Fmt 4.6, Leading zero omitted, Abs format (unit mm)*
G04 Created by KiCad (PCBNEW 10.0.4) date 2026-09-28 10:04:29*
%MOMM*%
%LPD*%
G01*
G04 APERTURE LIST*
G04 Aperture macros list*
%AMRoundRect*
0 Rectangle with rounded corners*
0 $1 Rounding radius*
0 $2 $3 $4 $5 $6 $7 $8 $9 X,Y pos of 4 corners*
0 Add a 4 corners polygon primitive as box body*
4,1,4,$2,$3,$4,$5,$6,$7,$8,$9,$2,$3,0*
0 Add four circle primitives for the rounded corners*
1,1,$1+$1,$2,$3*
1,1,$1+$1,$4,$5*
1,1,$1+$1,$6,$7*
1,1,$1+$1,$8,$9*
0 Add four rect primitives between the rounded corners*
20,1,$1+$1,$2,$3,$4,$5,0*
20,1,$1+$1,$4,$5,$6,$7,0*
20,1,$1+$1,$6,$7,$8,$9,0*
20,1,$1+$1,$8,$9,$2,$3,0*%
%AMFreePoly0*
4,1,9,3.862500,-0.866500,0.737500,-0.866500,0.737500,-0.450000,-0.737500,-0.450000,-0.737500,0.450000,0.737500,0.450000,0.737500,0.866500,3.862500,0.866500,3.862500,-0.866500,3.862500,-0.866500,$1*%
G04 Aperture macros list end*
%TA.AperFunction,SMDPad,CuDef*%
%ADD10RoundRect,0.200000X-0.200000X-0.275000X0.200000X-0.275000X0.200000X0.275000X-0.200000X0.275000X0*%
%TD*%
%TA.AperFunction,SMDPad,CuDef*%
%ADD11RoundRect,0.225000X0.250000X-0.225000X0.250000X0.225000X-0.250000X0.225000X-0.250000X-0.225000X0*%
%TD*%
%TA.AperFunction,SMDPad,CuDef*%
%ADD12RoundRect,0.225000X0.225000X-0.425000X0.225000X0.425000X-0.225000X0.425000X-0.225000X-0.425000X0*%
%TD*%
%TA.AperFunction,SMDPad,CuDef*%
%ADD13FreePoly0,90.000000*%
%TD*%
%TA.AperFunction,ComponentPad*%
%ADD14R,3.000000X3.000000*%
%TD*%
%TA.AperFunction,ComponentPad*%
%ADD15C,3.000000*%
%TD*%
%TA.AperFunction,SMDPad,CuDef*%
%ADD16RoundRect,0.225000X-0.225000X-0.250000X0.225000X-0.250000X0.225000X0.250000X-0.225000X0.250000X0*%
%TD*%
%TA.AperFunction,SMDPad,CuDef*%
%ADD17RoundRect,0.150000X0.150000X-0.675000X0.150000X0.675000X-0.150000X0.675000X-0.150000X-0.675000X0*%
%TD*%
%TA.AperFunction,SMDPad,CuDef*%
%ADD18RoundRect,0.250000X-0.625000X0.312500X-0.625000X-0.312500X0.625000X-0.312500X0.625000X0.312500X0*%
%TD*%
%TA.AperFunction,SMDPad,CuDef*%
%ADD19RoundRect,0.250000X-0.325000X-1.100000X0.325000X-1.100000X0.325000X1.100000X-0.325000X1.100000X0*%
%TD*%
%TA.AperFunction,ComponentPad*%
%ADD20RoundRect,0.249999X0.850001X0.850001X-0.850001X0.850001X-0.850001X-0.850001X0.850001X-0.850001X0*%
%TD*%
%TA.AperFunction,ComponentPad*%
%ADD21C,2.200000*%
%TD*%
%TA.AperFunction,ComponentPad*%
%ADD22R,2.500000X4.500000*%
%TD*%
%TA.AperFunction,ComponentPad*%
%ADD23O,2.500000X4.500000*%
%TD*%
%TA.AperFunction,ComponentPad*%
%ADD24R,3.200000X3.200000*%
%TD*%
%TA.AperFunction,ComponentPad*%
%ADD25C,3.200000*%
%TD*%
%TA.AperFunction,SMDPad,CuDef*%
%ADD26RoundRect,0.200000X0.275000X-0.200000X0.275000X0.200000X-0.275000X0.200000X-0.275000X-0.200000X0*%
%TD*%
%TA.AperFunction,SMDPad,CuDef*%
%ADD27RoundRect,0.250000X1.100000X-0.325000X1.100000X0.325000X-1.100000X0.325000X-1.100000X-0.325000X0*%
%TD*%
%TA.AperFunction,SMDPad,CuDef*%
%ADD28RoundRect,0.250000X-0.325000X-0.650000X0.325000X-0.650000X0.325000X0.650000X-0.325000X0.650000X0*%
%TD*%
%TA.AperFunction,SMDPad,CuDef*%
%ADD29RoundRect,0.250000X0.625000X-0.312500X0.625000X0.312500X-0.625000X0.312500X-0.625000X-0.312500X0*%
%TD*%
%TA.AperFunction,SMDPad,CuDef*%
%ADD30RoundRect,0.200000X0.200000X0.275000X-0.200000X0.275000X-0.200000X-0.275000X0.200000X-0.275000X0*%
%TD*%
%TA.AperFunction,ComponentPad*%
%ADD31RoundRect,0.250000X-1.050000X1.050000X-1.050000X-1.050000X1.050000X-1.050000X1.050000X1.050000X0*%
%TD*%
%TA.AperFunction,ComponentPad*%
%ADD32C,2.600000*%
%TD*%
%TA.AperFunction,ComponentPad*%
%ADD33RoundRect,0.266667X-0.533333X-0.533333X0.533333X-0.533333X0.533333X0.533333X-0.533333X0.533333X0*%
%TD*%
%TA.AperFunction,ComponentPad*%
%ADD34C,1.600000*%
%TD*%
%TA.AperFunction,SMDPad,CuDef*%
%ADD35RoundRect,0.150000X-0.512500X-0.150000X0.512500X-0.150000X0.512500X0.150000X-0.512500X0.150000X0*%
%TD*%
%TA.AperFunction,ComponentPad*%
%ADD36C,2.400000*%
%TD*%
%TA.AperFunction,SMDPad,CuDef*%
%ADD37RoundRect,0.150000X-0.150000X0.675000X-0.150000X-0.675000X0.150000X-0.675000X0.150000X0.675000X0*%
%TD*%
%TA.AperFunction,SMDPad,CuDef*%
%ADD38RoundRect,0.243600X-0.771400X0.901400X-0.771400X-0.901400X0.771400X-0.901400X0.771400X0.901400X0*%
%TD*%
%TA.AperFunction,SMDPad,CuDef*%
%ADD39RoundRect,0.091200X-0.288800X0.608800X-0.288800X-0.608800X0.288800X-0.608800X0.288800X0.608800X0*%
%TD*%
%TA.AperFunction,SMDPad,CuDef*%
%ADD40RoundRect,0.190000X-0.190000X0.510000X-0.190000X-0.510000X0.190000X-0.510000X0.190000X0.510000X0*%
%TD*%
%TA.AperFunction,SMDPad,CuDef*%
%ADD41RoundRect,0.150000X-0.587500X-0.150000X0.587500X-0.150000X0.587500X0.150000X-0.587500X0.150000X0*%
%TD*%
%TA.AperFunction,ComponentPad*%
%ADD42R,4.000000X4.000000*%
%TD*%
%TA.AperFunction,ComponentPad*%
%ADD43O,4.000000X4.000000*%
%TD*%
%TA.AperFunction,ComponentPad*%
%ADD44RoundRect,0.250001X1.099999X-1.099999X1.099999X1.099999X-1.099999X1.099999X-1.099999X-1.099999X0*%
%TD*%
%TA.AperFunction,ComponentPad*%
%ADD45C,2.700000*%
%TD*%
%TA.AperFunction,SMDPad,CuDef*%
%ADD46RoundRect,0.150000X-0.750000X-0.150000X0.750000X-0.150000X0.750000X0.150000X-0.750000X0.150000X0*%
%TD*%
%TA.AperFunction,ComponentPad*%
%ADD47C,1.500000*%
%TD*%
%TA.AperFunction,SMDPad,CuDef*%
%ADD48RoundRect,0.200000X-0.275000X0.200000X-0.275000X-0.200000X0.275000X-0.200000X0.275000X0.200000X0*%
%TD*%
%TA.AperFunction,ComponentPad*%
%ADD49RoundRect,0.750000X-0.750000X-0.750000X0.750000X-0.750000X0.750000X0.750000X-0.750000X0.750000X0*%
%TD*%
%TA.AperFunction,SMDPad,CuDef*%
%ADD50RoundRect,0.250000X-0.300000X-0.300000X0.300000X-0.300000X0.300000X0.300000X-0.300000X0.300000X0*%
%TD*%
%TA.AperFunction,ComponentPad*%
%ADD51R,2.400000X2.400000*%
%TD*%
%TA.AperFunction,ComponentPad*%
%ADD52C,4.000000*%
%TD*%
%TA.AperFunction,SMDPad,CuDef*%
%ADD53RoundRect,0.250000X-0.650000X0.325000X-0.650000X-0.325000X0.650000X-0.325000X0.650000X0.325000X0*%
%TD*%
%TA.AperFunction,SMDPad,CuDef*%
%ADD54RoundRect,0.250000X-0.312500X-0.625000X0.312500X-0.625000X0.312500X0.625000X-0.312500X0.625000X0*%
%TD*%
%TA.AperFunction,ComponentPad*%
%ADD55C,2.800000*%
%TD*%
%TA.AperFunction,SMDPad,CuDef*%
%ADD56RoundRect,0.250000X0.312500X0.625000X-0.312500X0.625000X-0.312500X-0.625000X0.312500X-0.625000X0*%
%TD*%
%TA.AperFunction,SMDPad,CuDef*%
%ADD57R,9.000000X4.800000*%
%TD*%
%TA.AperFunction,SMDPad,CuDef*%
%ADD58R,4.600000X3.000000*%
%TD*%
%TA.AperFunction,ViaPad*%
%ADD59C,0.850000*%
%TD*%
%TA.AperFunction,ViaPad*%
%ADD60C,1.600000*%
%TD*%
%TA.AperFunction,Conductor*%
%ADD61C,0.300000*%
%TD*%
%TA.AperFunction,Conductor*%
%ADD62C,0.400000*%
%TD*%
%TA.AperFunction,Conductor*%
%ADD63C,0.600000*%
%TD*%
%TA.AperFunction,Conductor*%
%ADD64C,0.800000*%
%TD*%
%TA.AperFunction,Conductor*%
%ADD65C,0.500000*%
%TD*%
%TA.AperFunction,Conductor*%
%ADD66C,1.000000*%
%TD*%
%TA.AperFunction,Conductor*%
%ADD67C,4.000000*%
%TD*%
%TA.AperFunction,Conductor*%
%ADD68C,3.000000*%
%TD*%
%TA.AperFunction,Conductor*%
%ADD69C,2.400000*%
%TD*%
%TA.AperFunction,Conductor*%
%ADD70C,2.000000*%
%TD*%
%TA.AperFunction,Conductor*%
%ADD71C,5.000000*%
%TD*%
%TA.AperFunction,Conductor*%
%ADD72C,1.500000*%
%TD*%
G04 APERTURE END LIST*
D10*
%TO.P,R15,1*%
%TO.N,leg_b-permit_gate*%
X105675000Y-59500000D03*
%TO.P,R15,2*%
%TO.N,selv_gnd*%
X107325000Y-59500000D03*
%TD*%
D11*
%TO.P,C33,1*%
%TO.N,ovp_thresh*%
X64000000Y-99775000D03*
%TO.P,C33,2*%
%TO.N,leg_ret*%
X64000000Y-98225000D03*
%TD*%
D10*
%TO.P,R31,1*%
%TO.N,hot5*%
X81175000Y-22000000D03*
%TO.P,R31,2*%
%TO.N,ref25*%
X82825000Y-22000000D03*
%TD*%
D12*
%TO.P,U3,1*%
%TO.N,hot5*%
X60500000Y-19650000D03*
D13*
%TO.P,U3,2*%
%TO.N,leg_ret*%
X62000000Y-19562500D03*
D12*
%TO.P,U3,3*%
%TO.N,v15_ls*%
X63500000Y-19650000D03*
%TD*%
D14*
%TO.P,PS2,1*%
%TO.N,n_filt*%
X5000000Y-84000000D03*
D15*
%TO.P,PS2,2*%
%TO.N,tco_l*%
X5000000Y-94750000D03*
%TO.P,PS2,3*%
%TO.N,leg_ret*%
X43500000Y-94750000D03*
%TO.P,PS2,4*%
%TO.N,v15_ls*%
X43500000Y-86750000D03*
%TD*%
D16*
%TO.P,C37,1*%
%TO.N,v3v3*%
X82225000Y-56500000D03*
%TO.P,C37,2*%
%TO.N,selv_gnd*%
X83775000Y-56500000D03*
%TD*%
D17*
%TO.P,U2,1*%
%TO.N,pwm_hb*%
X99555000Y-50875000D03*
%TO.P,U2,2*%
%TO.N,pwm_lb*%
X100825000Y-50875000D03*
%TO.P,U2,3*%
%TO.N,v3v3*%
X102095000Y-50875000D03*
%TO.P,U2,4*%
%TO.N,selv_gnd*%
X103365000Y-50875000D03*
%TO.P,U2,5*%
%TO.N,leg_b-dis*%
X104635000Y-50875000D03*
%TO.P,U2,6*%
%TO.N,leg_b.driver-dt*%
X105905000Y-50875000D03*
%TO.P,U2,7*%
%TO.N,leg_b.driver-nc_7*%
X107175000Y-50875000D03*
%TO.P,U2,8*%
%TO.N,v3v3*%
X108445000Y-50875000D03*
%TO.P,U2,9*%
%TO.N,leg_ret*%
X108445000Y-41125000D03*
%TO.P,U2,10*%
%TO.N,leg_b-out_l*%
X107175000Y-41125000D03*
%TO.P,U2,11*%
%TO.N,v15_ls*%
X105905000Y-41125000D03*
%TO.P,U2,14*%
%TO.N,sw_b*%
X102095000Y-41125000D03*
%TO.P,U2,15*%
%TO.N,leg_b-out_h*%
X100825000Y-41125000D03*
%TO.P,U2,16*%
%TO.N,leg_b-boot*%
X99555000Y-41125000D03*
%TD*%
D18*
%TO.P,R39,1*%
%TO.N,ct_s1*%
X177000000Y-69037500D03*
%TO.P,R39,2*%
%TO.N,ct_s2*%
X177000000Y-71962500D03*
%TD*%
D19*
%TO.P,C9,1*%
%TO.N,v15_ls*%
X154025000Y-35600000D03*
%TO.P,C9,2*%
%TO.N,leg_ret*%
X156975000Y-35600000D03*
%TD*%
D11*
%TO.P,C11,1*%
%TO.N,leg_a-boot*%
X141400000Y-39575000D03*
%TO.P,C11,2*%
%TO.N,sw_a*%
X141400000Y-38025000D03*
%TD*%
D20*
%TO.P,D1,1*%
%TO.N,leg_a-boot*%
X131500000Y-40000000D03*
D21*
%TO.P,D1,2*%
%TO.N,v15_ls*%
X121340000Y-40000000D03*
%TD*%
D22*
%TO.P,Q5,1*%
%TO.N,leg_b-gate_h*%
X92550000Y-4215000D03*
D23*
%TO.P,Q5,2*%
%TO.N,bus_p*%
X98000000Y-4215000D03*
%TO.P,Q5,3*%
%TO.N,sw_b*%
X103450000Y-4215000D03*
%TD*%
D24*
%TO.P,C21,1*%
%TO.N,res_a*%
X234250000Y-97000000D03*
D25*
%TO.P,C21,2*%
%TO.N,sw_b*%
X191750000Y-97000000D03*
%TD*%
D26*
%TO.P,R33,1*%
%TO.N,ocp_node*%
X75500000Y-19825000D03*
%TO.P,R33,2*%
%TO.N,ocp_kelvin_n*%
X75500000Y-18175000D03*
%TD*%
D27*
%TO.P,C24,1*%
%TO.N,v15_ls*%
X66500000Y-19475000D03*
%TO.P,C24,2*%
%TO.N,leg_ret*%
X66500000Y-16525000D03*
%TD*%
D28*
%TO.P,C13,1*%
%TO.N,sw_a*%
X139255000Y-9700000D03*
%TO.P,C13,2*%
%TO.N,leg_ret*%
X142205000Y-9700000D03*
%TD*%
D29*
%TO.P,R20,1*%
%TO.N,leg_b-out_l*%
X110550000Y-14062500D03*
%TO.P,R20,2*%
%TO.N,leg_b-gate_l*%
X110550000Y-11137500D03*
%TD*%
D10*
%TO.P,R6,1*%
%TO.N,permit*%
X149675000Y-56500000D03*
%TO.P,R6,2*%
%TO.N,leg_a-permit_gate*%
X151325000Y-56500000D03*
%TD*%
D30*
%TO.P,R46,1*%
%TO.N,ct_ref_lo*%
X161825000Y-72950000D03*
%TO.P,R46,2*%
%TO.N,selv_gnd*%
X160175000Y-72950000D03*
%TD*%
D31*
%TO.P,J1,1*%
%TO.N,ac_l_in*%
X6700000Y-150455000D03*
D32*
%TO.P,J1,2*%
%TO.N,ac_n_in*%
X6700000Y-155535000D03*
%TD*%
D10*
%TO.P,R38,1*%
%TO.N,pe*%
X102675000Y-79000000D03*
%TO.P,R38,2*%
%TO.N,selv_gnd*%
X104325000Y-79000000D03*
%TD*%
D33*
%TO.P,J4,1*%
%TO.N,v15_selv*%
X112500000Y-64080000D03*
D34*
%TO.P,J4,2*%
%TO.N,selv_gnd*%
X115500000Y-64080000D03*
%TO.P,J4,3*%
%TO.N,v3v3*%
X118500000Y-64080000D03*
%TO.P,J4,4*%
%TO.N,selv_gnd*%
X121500000Y-64080000D03*
%TO.P,J4,5*%
%TO.N,pwm_ha*%
X124500000Y-64080000D03*
%TO.P,J4,6*%
%TO.N,pwm_la*%
X127500000Y-64080000D03*
%TO.P,J4,7*%
%TO.N,pwm_hb*%
X130500000Y-64080000D03*
%TO.P,J4,8*%
%TO.N,pwm_lb*%
X133500000Y-64080000D03*
%TO.P,J4,9*%
%TO.N,permit*%
X112500000Y-67080000D03*
%TO.P,J4,10*%
%TO.N,bus_fault*%
X115500000Y-67080000D03*
%TO.P,J4,11*%
%TO.N,vbus_p*%
X118500000Y-67080000D03*
%TO.P,J4,12*%
%TO.N,vbus_n*%
X121500000Y-67080000D03*
%TO.P,J4,13*%
%TO.N,ct_zc*%
X124500000Y-67080000D03*
%TO.P,J4,14*%
%TO.N,ct_mon*%
X127500000Y-67080000D03*
%TO.P,J4,15*%
%TO.N,selv_gnd*%
X130500000Y-67080000D03*
%TO.P,J4,16*%
X133500000Y-67080000D03*
%TD*%
D28*
%TO.P,C12,1*%
%TO.N,bus_p*%
X157255000Y-9700000D03*
%TO.P,C12,2*%
%TO.N,sw_a*%
X160205000Y-9700000D03*
%TD*%
D16*
%TO.P,C15,1*%
%TO.N,v15_ls*%
X110725000Y-39600000D03*
%TO.P,C15,2*%
%TO.N,leg_ret*%
X112275000Y-39600000D03*
%TD*%
D35*
%TO.P,U11,1*%
%TO.N,ct_oc_neg*%
X164862500Y-71050000D03*
%TO.P,U11,2*%
%TO.N,selv_gnd*%
X164862500Y-72000000D03*
%TO.P,U11,3*%
%TO.N,ct_ref_lo*%
X164862500Y-72950000D03*
%TO.P,U11,4*%
%TO.N,ct_sense_mon*%
X167137500Y-72950000D03*
%TO.P,U11,5*%
%TO.N,v3v3*%
X167137500Y-71050000D03*
%TD*%
D16*
%TO.P,C45,1*%
%TO.N,v3v3*%
X167125000Y-69400000D03*
%TO.P,C45,2*%
%TO.N,selv_gnd*%
X168675000Y-69400000D03*
%TD*%
D29*
%TO.P,R4,1*%
%TO.N,busbleed_mid*%
X63500000Y-49962500D03*
%TO.P,R4,2*%
%TO.N,hv_ret*%
X63500000Y-47037500D03*
%TD*%
D10*
%TO.P,R14,1*%
%TO.N,permit*%
X105675000Y-56500000D03*
%TO.P,R14,2*%
%TO.N,leg_b-permit_gate*%
X107325000Y-56500000D03*
%TD*%
D16*
%TO.P,C14,1*%
%TO.N,v3v3*%
X95725000Y-56500000D03*
%TO.P,C14,2*%
%TO.N,selv_gnd*%
X97275000Y-56500000D03*
%TD*%
D10*
%TO.P,R16,1*%
%TO.N,leg_b-dis*%
X109675000Y-56500000D03*
%TO.P,R16,2*%
%TO.N,v3v3*%
X111325000Y-56500000D03*
%TD*%
D16*
%TO.P,C44,1*%
%TO.N,v3v3*%
X167125000Y-75400000D03*
%TO.P,C44,2*%
%TO.N,selv_gnd*%
X168675000Y-75400000D03*
%TD*%
D36*
%TO.P,C39,1*%
%TO.N,bus_p*%
X164600000Y-22000000D03*
%TO.P,C39,2*%
%TO.N,hv_ret*%
X149600000Y-22000000D03*
%TD*%
D37*
%TO.P,U9,1*%
%TO.N,leg_ret*%
X87445000Y-41125000D03*
%TO.P,U9,2*%
%TO.N,nc2*%
X86175000Y-41125000D03*
%TO.P,U9,3*%
%TO.N,hot5*%
X84905000Y-41125000D03*
%TO.P,U9,4*%
%TO.N,bus_fault_hot*%
X83635000Y-41125000D03*
%TO.P,U9,5*%
%TO.N,nc5*%
X82365000Y-41125000D03*
%TO.P,U9,6*%
%TO.N,nc6*%
X81095000Y-41125000D03*
%TO.P,U9,7*%
%TO.N,leg_ret*%
X79825000Y-41125000D03*
%TO.P,U9,8*%
%TO.N,nc8*%
X78555000Y-41125000D03*
%TO.P,U9,9*%
%TO.N,selv_gnd*%
X78555000Y-50875000D03*
%TO.P,U9,10*%
%TO.N,nc10*%
X79825000Y-50875000D03*
%TO.P,U9,11*%
%TO.N,nc11*%
X81095000Y-50875000D03*
%TO.P,U9,12*%
%TO.N,nc12*%
X82365000Y-50875000D03*
%TO.P,U9,13*%
%TO.N,bus_fault_iso*%
X83635000Y-50875000D03*
%TO.P,U9,14*%
%TO.N,v3v3*%
X84905000Y-50875000D03*
%TO.P,U9,15*%
%TO.N,nc15*%
X86175000Y-50875000D03*
%TO.P,U9,16*%
%TO.N,selv_gnd*%
X87445000Y-50875000D03*
%TD*%
D26*
%TO.P,R21,1*%
%TO.N,leg_b-gate_l*%
X107750000Y-12925000D03*
%TO.P,R21,2*%
%TO.N,leg_ret*%
X107750000Y-11275000D03*
%TD*%
D17*
%TO.P,U1,1*%
%TO.N,pwm_ha*%
X143555000Y-50875000D03*
%TO.P,U1,2*%
%TO.N,pwm_la*%
X144825000Y-50875000D03*
%TO.P,U1,3*%
%TO.N,v3v3*%
X146095000Y-50875000D03*
%TO.P,U1,4*%
%TO.N,selv_gnd*%
X147365000Y-50875000D03*
%TO.P,U1,5*%
%TO.N,leg_a-dis*%
X148635000Y-50875000D03*
%TO.P,U1,6*%
%TO.N,leg_a.driver-dt*%
X149905000Y-50875000D03*
%TO.P,U1,7*%
%TO.N,leg_a.driver-nc_7*%
X151175000Y-50875000D03*
%TO.P,U1,8*%
%TO.N,v3v3*%
X152445000Y-50875000D03*
%TO.P,U1,9*%
%TO.N,leg_ret*%
X152445000Y-41125000D03*
%TO.P,U1,10*%
%TO.N,leg_a-out_l*%
X151175000Y-41125000D03*
%TO.P,U1,11*%
%TO.N,v15_ls*%
X149905000Y-41125000D03*
%TO.P,U1,14*%
%TO.N,sw_a*%
X146095000Y-41125000D03*
%TO.P,U1,15*%
%TO.N,leg_a-out_h*%
X144825000Y-41125000D03*
%TO.P,U1,16*%
%TO.N,leg_a-boot*%
X143555000Y-41125000D03*
%TD*%
D26*
%TO.P,R36,1*%
%TO.N,ref25*%
X58000000Y-99825000D03*
%TO.P,R36,2*%
%TO.N,ovp_thresh*%
X58000000Y-98175000D03*
%TD*%
D38*
%TO.P,R5,1*%
%TO.N,leg_ret*%
X127135000Y-9615000D03*
D39*
%TO.P,R5,2*%
X125230000Y-9170000D03*
D40*
%TO.P,R5,3*%
%TO.N,ocp_kelvin_n*%
X127770000Y-16030000D03*
D38*
%TO.P,R5,4*%
%TO.N,hv_ret*%
X125865000Y-15585000D03*
%TD*%
D35*
%TO.P,U12,1*%
%TO.N,ct_zc*%
X164862500Y-83050000D03*
%TO.P,U12,2*%
%TO.N,selv_gnd*%
X164862500Y-84000000D03*
%TO.P,U12,3*%
%TO.N,ct_sense_mon*%
X164862500Y-84950000D03*
%TO.P,U12,4*%
%TO.N,ct_s2*%
X167137500Y-84950000D03*
%TO.P,U12,5*%
%TO.N,v3v3*%
X167137500Y-83050000D03*
%TD*%
D36*
%TO.P,C40,1*%
%TO.N,bus_p*%
X109000000Y-22000000D03*
%TO.P,C40,2*%
%TO.N,hv_ret*%
X124000000Y-22000000D03*
%TD*%
D41*
%TO.P,Q4,1*%
%TO.N,leg_b-permit_gate*%
X100562500Y-56050000D03*
%TO.P,Q4,2*%
%TO.N,selv_gnd*%
X100562500Y-57950000D03*
%TO.P,Q4,3*%
%TO.N,leg_b-dis*%
X102437500Y-57000000D03*
%TD*%
D42*
%TO.P,BR1,1*%
%TO.N,rect_p*%
X16300000Y-4600000D03*
D43*
%TO.P,BR1,2*%
%TO.N,l_filt*%
X26300000Y-4600000D03*
%TO.P,BR1,3*%
%TO.N,n_filt*%
X33800000Y-4600000D03*
%TO.P,BR1,4*%
%TO.N,rect_n*%
X41300000Y-4600000D03*
%TD*%
D16*
%TO.P,C35,1*%
%TO.N,hot5*%
X74025000Y-34800000D03*
%TO.P,C35,2*%
%TO.N,leg_ret*%
X75575000Y-34800000D03*
%TD*%
D18*
%TO.P,R29,1*%
%TO.N,vdiv_3*%
X52000000Y-88637500D03*
%TO.P,R29,2*%
%TO.N,vsense_in*%
X52000000Y-91562500D03*
%TD*%
D29*
%TO.P,R12,1*%
%TO.N,leg_a-out_l*%
X132550000Y-14062500D03*
%TO.P,R12,2*%
%TO.N,leg_a-gate_l*%
X132550000Y-11137500D03*
%TD*%
D44*
%TO.P,J3,1*%
%TO.N,l_filt*%
X36450000Y-105280000D03*
D45*
%TO.P,J3,2*%
%TO.N,tco_l*%
X36450000Y-101320000D03*
%TD*%
D46*
%TO.P,U4,1*%
%TO.N,hot5*%
X60175000Y-82095000D03*
%TO.P,U4,2*%
%TO.N,vsense_in*%
X60175000Y-83365000D03*
%TO.P,U4,3*%
%TO.N,leg_ret*%
X60175000Y-84635000D03*
%TO.P,U4,4*%
X60175000Y-85905000D03*
%TO.P,U4,5*%
%TO.N,selv_gnd*%
X70825000Y-85905000D03*
%TO.P,U4,6*%
%TO.N,vbus_n*%
X70825000Y-84635000D03*
%TO.P,U4,7*%
%TO.N,vbus_p*%
X70825000Y-83365000D03*
%TO.P,U4,8*%
%TO.N,v3v3*%
X70825000Y-82095000D03*
%TD*%
D25*
%TO.P,J2,1*%
%TO.N,coil_feed*%
X228065000Y-67565000D03*
X228065000Y-73435000D03*
X233935000Y-67565000D03*
X233935000Y-73435000D03*
%TD*%
D41*
%TO.P,Q1,1*%
%TO.N,leg_a-permit_gate*%
X144562500Y-56050000D03*
%TO.P,Q1,2*%
%TO.N,selv_gnd*%
X144562500Y-57950000D03*
%TO.P,Q1,3*%
%TO.N,leg_a-dis*%
X146437500Y-57000000D03*
%TD*%
D18*
%TO.P,R28,1*%
%TO.N,vdiv_2*%
X52000000Y-83937500D03*
%TO.P,R28,2*%
%TO.N,vdiv_3*%
X52000000Y-86862500D03*
%TD*%
D47*
%TO.P,C3,1*%
%TO.N,l_filt*%
X138500000Y-93000000D03*
%TO.P,C3,2*%
%TO.N,pe*%
X138500000Y-83000000D03*
%TD*%
D25*
%TO.P,J7,1*%
%TO.N,rect_p*%
X10065000Y-14565000D03*
X10065000Y-20435000D03*
X15935000Y-14565000D03*
X15935000Y-20435000D03*
%TD*%
D14*
%TO.P,PS1,1*%
%TO.N,l_filt*%
X76000000Y-116000000D03*
D15*
%TO.P,PS1,2*%
%TO.N,n_filt*%
X96800000Y-116000000D03*
%TO.P,PS1,3*%
%TO.N,selv_gnd*%
X96800000Y-71000000D03*
%TO.P,PS1,4*%
%TO.N,v15_selv*%
X88800000Y-71000000D03*
%TD*%
D35*
%TO.P,U7,1*%
%TO.N,ovp_ok_hot*%
X60862500Y-94050000D03*
%TO.P,U7,2*%
%TO.N,leg_ret*%
X60862500Y-95000000D03*
%TO.P,U7,3*%
%TO.N,ovp_thresh*%
X60862500Y-95950000D03*
%TO.P,U7,4*%
%TO.N,vsense_in*%
X63137500Y-95950000D03*
%TO.P,U7,5*%
%TO.N,hot5*%
X63137500Y-94050000D03*
%TD*%
D26*
%TO.P,R11,1*%
%TO.N,leg_a-gate_h*%
X147750000Y-12925000D03*
%TO.P,R11,2*%
%TO.N,sw_a*%
X147750000Y-11275000D03*
%TD*%
D48*
%TO.P,R41,1*%
%TO.N,ct_s2*%
X177500000Y-79175000D03*
%TO.P,R41,2*%
%TO.N,selv_gnd*%
X177500000Y-80825000D03*
%TD*%
D26*
%TO.P,R19,1*%
%TO.N,leg_b-gate_h*%
X89750000Y-12925000D03*
%TO.P,R19,2*%
%TO.N,sw_b*%
X89750000Y-11275000D03*
%TD*%
D30*
%TO.P,R47,1*%
%TO.N,ct_sense_mon*%
X161825000Y-85800000D03*
%TO.P,R47,2*%
%TO.N,ct_mon*%
X160175000Y-85800000D03*
%TD*%
D16*
%TO.P,C7,1*%
%TO.N,v3v3*%
X139725000Y-56500000D03*
%TO.P,C7,2*%
%TO.N,selv_gnd*%
X141275000Y-56500000D03*
%TD*%
D10*
%TO.P,R8,1*%
%TO.N,leg_a-dis*%
X153675000Y-56500000D03*
%TO.P,R8,2*%
%TO.N,v3v3*%
X155325000Y-56500000D03*
%TD*%
D29*
%TO.P,R18,1*%
%TO.N,leg_b-out_h*%
X92550000Y-14062500D03*
%TO.P,R18,2*%
%TO.N,leg_b-gate_h*%
X92550000Y-11137500D03*
%TD*%
D11*
%TO.P,C29,1*%
%TO.N,v3v3*%
X70000000Y-77775000D03*
%TO.P,C29,2*%
%TO.N,selv_gnd*%
X70000000Y-76225000D03*
%TD*%
D14*
%TO.P,C23,1*%
%TO.N,res_a*%
X212500000Y-53250000D03*
D15*
%TO.P,C23,2*%
%TO.N,sw_b*%
X212500000Y-10750000D03*
%TD*%
D30*
%TO.P,R43,1*%
%TO.N,v3v3*%
X170525000Y-77350000D03*
%TO.P,R43,2*%
%TO.N,ct_ref_hi*%
X168875000Y-77350000D03*
%TD*%
D49*
%TO.P,F1,1*%
%TO.N,ac_l_in*%
X19150000Y-153000000D03*
X26750000Y-153000000D03*
D15*
%TO.P,F1,2*%
%TO.N,l_f*%
X46250000Y-153000000D03*
X53850000Y-153000000D03*
%TD*%
D10*
%TO.P,R7,1*%
%TO.N,leg_a-permit_gate*%
X149675000Y-59500000D03*
%TO.P,R7,2*%
%TO.N,selv_gnd*%
X151325000Y-59500000D03*
%TD*%
D35*
%TO.P,U8,1*%
%TO.N,ocp_ok_hot*%
X73662500Y-37850000D03*
%TO.P,U8,2*%
%TO.N,ovp_ok_hot*%
X73662500Y-38800000D03*
%TO.P,U8,3*%
%TO.N,leg_ret*%
X73662500Y-39750000D03*
%TO.P,U8,4*%
%TO.N,bus_fault_hot*%
X75937500Y-39750000D03*
%TO.P,U8,5*%
%TO.N,hot5*%
X75937500Y-37850000D03*
%TD*%
D26*
%TO.P,R40,1*%
%TO.N,v3v3*%
X174500000Y-80825000D03*
%TO.P,R40,2*%
%TO.N,ct_s2*%
X174500000Y-79175000D03*
%TD*%
D25*
%TO.P,J10,1*%
%TO.N,hv_ret*%
X44065000Y-27565000D03*
X44065000Y-33435000D03*
X49935000Y-27565000D03*
X49935000Y-33435000D03*
%TD*%
D35*
%TO.P,U6,1*%
%TO.N,ocp_ok_hot*%
X70862500Y-18050000D03*
%TO.P,U6,2*%
%TO.N,leg_ret*%
X70862500Y-19000000D03*
%TO.P,U6,3*%
%TO.N,ocp_node*%
X70862500Y-19950000D03*
%TO.P,U6,4*%
%TO.N,ocp_thresh*%
X73137500Y-19950000D03*
%TO.P,U6,5*%
%TO.N,hot5*%
X73137500Y-18050000D03*
%TD*%
D11*
%TO.P,C47,1*%
%TO.N,v3v3*%
X102200000Y-71275000D03*
%TO.P,C47,2*%
%TO.N,selv_gnd*%
X102200000Y-69725000D03*
%TD*%
D16*
%TO.P,C46,1*%
%TO.N,v3v3*%
X167125000Y-81400000D03*
%TO.P,C46,2*%
%TO.N,selv_gnd*%
X168675000Y-81400000D03*
%TD*%
%TO.P,C32,1*%
%TO.N,hot5*%
X71225000Y-23000000D03*
%TO.P,C32,2*%
%TO.N,leg_ret*%
X72775000Y-23000000D03*
%TD*%
D50*
%TO.P,D5,1*%
%TO.N,ct_sense_mon*%
X164600000Y-67000000D03*
%TO.P,D5,2*%
%TO.N,selv_gnd*%
X167400000Y-67000000D03*
%TD*%
D35*
%TO.P,U13,1*%
%TO.N,bus_fault_iso*%
X104462500Y-69550000D03*
%TO.P,U13,2*%
%TO.N,selv_gnd*%
X104462500Y-70500000D03*
%TO.P,U13,3*%
%TO.N,ct_oc_pos*%
X104462500Y-71450000D03*
%TO.P,U13,4*%
%TO.N,bus_fault*%
X106737500Y-71450000D03*
%TO.P,U13,5*%
%TO.N,v3v3*%
X106737500Y-70500000D03*
%TO.P,U13,6*%
%TO.N,ct_oc_neg*%
X106737500Y-69550000D03*
%TD*%
D25*
%TO.P,D3,1*%
%TO.N,bus_p*%
X58000000Y-64950000D03*
%TO.P,D3,2*%
%TO.N,hv_ret*%
X58000000Y-44950000D03*
%TD*%
D10*
%TO.P,R45,1*%
%TO.N,v3v3*%
X160175000Y-74450000D03*
%TO.P,R45,2*%
%TO.N,ct_ref_lo*%
X161825000Y-74450000D03*
%TD*%
D26*
%TO.P,R32,1*%
%TO.N,ref25*%
X75500000Y-24325000D03*
%TO.P,R32,2*%
%TO.N,ocp_node*%
X75500000Y-22675000D03*
%TD*%
D16*
%TO.P,C8,1*%
%TO.N,v15_ls*%
X154725000Y-39600000D03*
%TO.P,C8,2*%
%TO.N,leg_ret*%
X156275000Y-39600000D03*
%TD*%
D36*
%TO.P,C1,1*%
%TO.N,l_f*%
X52750000Y-127500000D03*
%TO.P,C1,2*%
%TO.N,ac_n_in*%
X75250000Y-127500000D03*
%TD*%
D29*
%TO.P,R3,1*%
%TO.N,bus_p*%
X63500000Y-62962500D03*
%TO.P,R3,2*%
%TO.N,busbleed_mid*%
X63500000Y-60037500D03*
%TD*%
D19*
%TO.P,C16,1*%
%TO.N,v15_ls*%
X110025000Y-35600000D03*
%TO.P,C16,2*%
%TO.N,leg_ret*%
X112975000Y-35600000D03*
%TD*%
D16*
%TO.P,C25,1*%
%TO.N,v15_ls*%
X61225000Y-13500000D03*
%TO.P,C25,2*%
%TO.N,leg_ret*%
X62775000Y-13500000D03*
%TD*%
D26*
%TO.P,R34,1*%
%TO.N,ref25*%
X78000000Y-24325000D03*
%TO.P,R34,2*%
%TO.N,ocp_thresh*%
X78000000Y-22675000D03*
%TD*%
%TO.P,R13,1*%
%TO.N,leg_a-gate_l*%
X129750000Y-12925000D03*
%TO.P,R13,2*%
%TO.N,leg_ret*%
X129750000Y-11275000D03*
%TD*%
D47*
%TO.P,C4,1*%
%TO.N,n_filt*%
X145500000Y-93000000D03*
%TO.P,C4,2*%
%TO.N,pe*%
X145500000Y-83000000D03*
%TD*%
D32*
%TO.P,J6,1*%
%TO.N,pe*%
X110600000Y-79500000D03*
%TO.P,J6,2*%
X125840000Y-79500000D03*
%TD*%
D51*
%TO.P,RV1,1*%
%TO.N,l_f*%
X64451000Y-147000000D03*
D36*
%TO.P,RV1,2*%
%TO.N,ac_n_in*%
X71951000Y-147000000D03*
%TD*%
D26*
%TO.P,R35,1*%
%TO.N,ocp_thresh*%
X80500000Y-26325000D03*
%TO.P,R35,2*%
%TO.N,leg_ret*%
X80500000Y-24675000D03*
%TD*%
D36*
%TO.P,C2,1*%
%TO.N,l_filt*%
X30000000Y-34850000D03*
%TO.P,C2,2*%
%TO.N,n_filt*%
X30000000Y-12350000D03*
%TD*%
D42*
%TO.P,L1,1*%
%TO.N,l_f*%
X29000000Y-135500000D03*
D52*
%TO.P,L1,2*%
%TO.N,ac_n_in*%
X19000000Y-135500000D03*
%TO.P,L1,3*%
%TO.N,n_filt*%
X19000000Y-110500000D03*
%TO.P,L1,4*%
%TO.N,l_filt*%
X29000000Y-110500000D03*
%TD*%
D25*
%TO.P,J8,1*%
%TO.N,bus_p*%
X10065000Y-27565000D03*
X10065000Y-33435000D03*
X15935000Y-27565000D03*
X15935000Y-33435000D03*
%TD*%
D19*
%TO.P,C10,1*%
%TO.N,leg_a-boot*%
X136525000Y-39300000D03*
%TO.P,C10,2*%
%TO.N,sw_a*%
X139475000Y-39300000D03*
%TD*%
D50*
%TO.P,D4,1*%
%TO.N,v3v3*%
X164600000Y-64000000D03*
%TO.P,D4,2*%
%TO.N,ct_sense_mon*%
X167400000Y-64000000D03*
%TD*%
D41*
%TO.P,U5,1*%
%TO.N,ref25*%
X81062500Y-17550000D03*
%TO.P,U5,2*%
%TO.N,leg_ret*%
X81062500Y-19450000D03*
%TO.P,U5,3*%
%TO.N,nc*%
X82937500Y-18500000D03*
%TD*%
D28*
%TO.P,C19,1*%
%TO.N,bus_p*%
X99255000Y-9700000D03*
%TO.P,C19,2*%
%TO.N,sw_b*%
X102205000Y-9700000D03*
%TD*%
D53*
%TO.P,C42,1*%
%TO.N,ct_s1*%
X174500000Y-69025000D03*
%TO.P,C42,2*%
%TO.N,ct_s2*%
X174500000Y-71975000D03*
%TD*%
D25*
%TO.P,J9,1*%
%TO.N,rect_n*%
X44065000Y-14565000D03*
X44065000Y-20435000D03*
X49935000Y-14565000D03*
X49935000Y-20435000D03*
%TD*%
D16*
%TO.P,C36,1*%
%TO.N,hot5*%
X82225000Y-37500000D03*
%TO.P,C36,2*%
%TO.N,leg_ret*%
X83775000Y-37500000D03*
%TD*%
D54*
%TO.P,R24,1*%
%TO.N,crbleed_2*%
X202537500Y-145000000D03*
%TO.P,R24,2*%
%TO.N,crbleed_3*%
X205462500Y-145000000D03*
%TD*%
D28*
%TO.P,C20,1*%
%TO.N,sw_b*%
X117255000Y-9700000D03*
%TO.P,C20,2*%
%TO.N,leg_ret*%
X120205000Y-9700000D03*
%TD*%
D55*
%TO.P,C6,1*%
%TO.N,bus_p*%
X174350000Y-50750000D03*
%TO.P,C6,2*%
X194650000Y-50750000D03*
%TO.P,C6,3*%
%TO.N,hv_ret*%
X174350000Y-13250000D03*
%TO.P,C6,4*%
X194650000Y-13250000D03*
%TD*%
D24*
%TO.P,C22,1*%
%TO.N,res_a*%
X234250000Y-125500000D03*
D25*
%TO.P,C22,2*%
%TO.N,sw_b*%
X191750000Y-125500000D03*
%TD*%
D11*
%TO.P,C30,1*%
%TO.N,ocp_node*%
X78000000Y-19775000D03*
%TO.P,C30,2*%
%TO.N,leg_ret*%
X78000000Y-18225000D03*
%TD*%
%TO.P,C27,1*%
%TO.N,vsense_in*%
X57000000Y-92775000D03*
%TO.P,C27,2*%
%TO.N,leg_ret*%
X57000000Y-91225000D03*
%TD*%
D54*
%TO.P,R22,1*%
%TO.N,res_a*%
X188537500Y-145000000D03*
%TO.P,R22,2*%
%TO.N,crbleed_1*%
X191462500Y-145000000D03*
%TD*%
D27*
%TO.P,C26,1*%
%TO.N,hot5*%
X57500000Y-19475000D03*
%TO.P,C26,2*%
%TO.N,leg_ret*%
X57500000Y-16525000D03*
%TD*%
D16*
%TO.P,C34,1*%
%TO.N,hot5*%
X65725000Y-95000000D03*
%TO.P,C34,2*%
%TO.N,leg_ret*%
X67275000Y-95000000D03*
%TD*%
D18*
%TO.P,R2,1*%
%TO.N,xbleed_mid*%
X82000000Y-127737500D03*
%TO.P,R2,2*%
%TO.N,ac_n_in*%
X82000000Y-130662500D03*
%TD*%
D22*
%TO.P,Q3,1*%
%TO.N,leg_a-gate_l*%
X132550000Y-4215000D03*
D23*
%TO.P,Q3,2*%
%TO.N,sw_a*%
X138000000Y-4215000D03*
%TO.P,Q3,3*%
%TO.N,leg_ret*%
X143450000Y-4215000D03*
%TD*%
D55*
%TO.P,C5,1*%
%TO.N,bus_p*%
X13000000Y-43950000D03*
%TO.P,C5,2*%
X13000000Y-64250000D03*
%TO.P,C5,3*%
%TO.N,hv_ret*%
X50500000Y-43950000D03*
%TO.P,C5,4*%
X50500000Y-64250000D03*
%TD*%
D22*
%TO.P,Q6,1*%
%TO.N,leg_b-gate_l*%
X110550000Y-4215000D03*
D23*
%TO.P,Q6,2*%
%TO.N,sw_b*%
X116000000Y-4215000D03*
%TO.P,Q6,3*%
%TO.N,leg_ret*%
X121450000Y-4215000D03*
%TD*%
D35*
%TO.P,U10,1*%
%TO.N,ct_oc_pos*%
X164862500Y-77050000D03*
%TO.P,U10,2*%
%TO.N,selv_gnd*%
X164862500Y-78000000D03*
%TO.P,U10,3*%
%TO.N,ct_sense_mon*%
X164862500Y-78950000D03*
%TO.P,U10,4*%
%TO.N,ct_ref_hi*%
X167137500Y-78950000D03*
%TO.P,U10,5*%
%TO.N,v3v3*%
X167137500Y-77050000D03*
%TD*%
D18*
%TO.P,R26,1*%
%TO.N,bus_p*%
X52000000Y-74537500D03*
%TO.P,R26,2*%
%TO.N,vdiv_1*%
X52000000Y-77462500D03*
%TD*%
D11*
%TO.P,C28,1*%
%TO.N,hot5*%
X57000000Y-82775000D03*
%TO.P,C28,2*%
%TO.N,leg_ret*%
X57000000Y-81225000D03*
%TD*%
D36*
%TO.P,C38,1*%
%TO.N,bus_p*%
X144000000Y-22000000D03*
%TO.P,C38,2*%
%TO.N,hv_ret*%
X129000000Y-22000000D03*
%TD*%
D18*
%TO.P,R27,1*%
%TO.N,vdiv_1*%
X52000000Y-79237500D03*
%TO.P,R27,2*%
%TO.N,vdiv_2*%
X52000000Y-82162500D03*
%TD*%
D20*
%TO.P,D2,1*%
%TO.N,leg_b-boot*%
X98580000Y-34000000D03*
D21*
%TO.P,D2,2*%
%TO.N,v15_ls*%
X88420000Y-34000000D03*
%TD*%
D26*
%TO.P,R37,1*%
%TO.N,ovp_thresh*%
X61000000Y-99825000D03*
%TO.P,R37,2*%
%TO.N,leg_ret*%
X61000000Y-98175000D03*
%TD*%
D22*
%TO.P,Q2,1*%
%TO.N,leg_a-gate_h*%
X150550000Y-4215000D03*
D23*
%TO.P,Q2,2*%
%TO.N,bus_p*%
X156000000Y-4215000D03*
%TO.P,Q2,3*%
%TO.N,sw_a*%
X161450000Y-4215000D03*
%TD*%
D56*
%TO.P,R42,1*%
%TO.N,ct_s1*%
X172462500Y-65500000D03*
%TO.P,R42,2*%
%TO.N,ct_sense_mon*%
X169537500Y-65500000D03*
%TD*%
D36*
%TO.P,C41,1*%
%TO.N,bus_p*%
X88400000Y-22000000D03*
%TO.P,C41,2*%
%TO.N,hv_ret*%
X103400000Y-22000000D03*
%TD*%
D19*
%TO.P,C17,1*%
%TO.N,leg_b-boot*%
X92525000Y-39300000D03*
%TO.P,C17,2*%
%TO.N,sw_b*%
X95475000Y-39300000D03*
%TD*%
D11*
%TO.P,C18,1*%
%TO.N,leg_b-boot*%
X97400000Y-39575000D03*
%TO.P,C18,2*%
%TO.N,sw_b*%
X97400000Y-38025000D03*
%TD*%
D26*
%TO.P,R30,1*%
%TO.N,vsense_in*%
X57000000Y-88825000D03*
%TO.P,R30,2*%
%TO.N,leg_ret*%
X57000000Y-87175000D03*
%TD*%
D18*
%TO.P,R1,1*%
%TO.N,l_f*%
X82000000Y-122537500D03*
%TO.P,R1,2*%
%TO.N,xbleed_mid*%
X82000000Y-125462500D03*
%TD*%
D29*
%TO.P,R10,1*%
%TO.N,leg_a-out_h*%
X150550000Y-14062500D03*
%TO.P,R10,2*%
%TO.N,leg_a-gate_h*%
X150550000Y-11137500D03*
%TD*%
D28*
%TO.P,C43,1*%
%TO.N,ct_s2*%
X174525000Y-84000000D03*
%TO.P,C43,2*%
%TO.N,selv_gnd*%
X177475000Y-84000000D03*
%TD*%
D57*
%TO.P,T1,1*%
%TO.N,sw_a*%
X206550000Y-76080000D03*
%TO.P,T1,2*%
%TO.N,coil_feed*%
X206550000Y-64920000D03*
D58*
%TO.P,T1,3*%
%TO.N,ct_s1*%
X181250000Y-63620000D03*
%TO.P,T1,4*%
%TO.N,ct_s2*%
X181250000Y-77380000D03*
%TD*%
D10*
%TO.P,R17,1*%
%TO.N,leg_b.driver-dt*%
X109675000Y-59500000D03*
%TO.P,R17,2*%
%TO.N,selv_gnd*%
X111325000Y-59500000D03*
%TD*%
%TO.P,R44,1*%
%TO.N,ct_ref_hi*%
X168875000Y-78950000D03*
%TO.P,R44,2*%
%TO.N,selv_gnd*%
X170525000Y-78950000D03*
%TD*%
D11*
%TO.P,C31,1*%
%TO.N,ocp_thresh*%
X83000000Y-26275000D03*
%TO.P,C31,2*%
%TO.N,leg_ret*%
X83000000Y-24725000D03*
%TD*%
D10*
%TO.P,R9,1*%
%TO.N,leg_a.driver-dt*%
X153675000Y-59500000D03*
%TO.P,R9,2*%
%TO.N,selv_gnd*%
X155325000Y-59500000D03*
%TD*%
D54*
%TO.P,R23,1*%
%TO.N,crbleed_1*%
X195537500Y-145000000D03*
%TO.P,R23,2*%
%TO.N,crbleed_2*%
X198462500Y-145000000D03*
%TD*%
%TO.P,R25,1*%
%TO.N,crbleed_3*%
X208837500Y-145000000D03*
%TO.P,R25,2*%
%TO.N,sw_b*%
X211762500Y-145000000D03*
%TD*%
D25*
%TO.P,J5,1*%
%TO.N,res_a*%
X222065000Y-148065000D03*
X222065000Y-153935000D03*
X227935000Y-148065000D03*
X227935000Y-153935000D03*
%TD*%
D59*
%TO.N,selv_gnd*%
X97275000Y-58400000D03*
X101800000Y-60300000D03*
X141275000Y-58400000D03*
X72000000Y-76225000D03*
X163350000Y-78000000D03*
X145800000Y-60300000D03*
X163350000Y-84000000D03*
X104325000Y-81000000D03*
X102200000Y-68400000D03*
X111325000Y-61200000D03*
X169750000Y-75400000D03*
X147365000Y-53300000D03*
X107325000Y-61200000D03*
X78555000Y-53000000D03*
X103365000Y-53300000D03*
X168750000Y-67600000D03*
X177900000Y-84000000D03*
X151325000Y-61200000D03*
X73000000Y-85905000D03*
X171600000Y-78950000D03*
X83775000Y-58400000D03*
X87445000Y-53000000D03*
X155325000Y-61200000D03*
X163350000Y-72000000D03*
X177500000Y-82000000D03*
X159100000Y-72950000D03*
X169750000Y-81400000D03*
X169750000Y-69400000D03*
%TO.N,leg_ret*%
X107600000Y-10200000D03*
X73600000Y-25000000D03*
X114900000Y-35000000D03*
D60*
X126900000Y-4300000D03*
D59*
X58400000Y-80400000D03*
X119600000Y-20500000D03*
X62000000Y-21800000D03*
X114900000Y-17800000D03*
D60*
X129900000Y-4300000D03*
D59*
X58200000Y-85300000D03*
X55600000Y-91900000D03*
X79000000Y-31000000D03*
X136000000Y-18600000D03*
X87700000Y-37000000D03*
X113000000Y-33400000D03*
X59300000Y-95000000D03*
X67300000Y-96600000D03*
X68500000Y-17000000D03*
X153200000Y-38600000D03*
X81150000Y-20600000D03*
X79825000Y-39100000D03*
X62500000Y-98200000D03*
X73500000Y-41700000D03*
X58600000Y-87200000D03*
D60*
X128400000Y-4300000D03*
D59*
X84400000Y-26300000D03*
%TO.N,hot5*%
X59000000Y-21800000D03*
X80500000Y-23000000D03*
X63400000Y-92800000D03*
X70000000Y-22300000D03*
X74000000Y-15900000D03*
X85700000Y-39000000D03*
X73000000Y-29000000D03*
X61000000Y-72000000D03*
X82225000Y-36000000D03*
X60175000Y-80600000D03*
%TO.N,ref25*%
X53000000Y-41200000D03*
X75500000Y-27000000D03*
X79500000Y-27000000D03*
X82825000Y-20500000D03*
X56400000Y-99800000D03*
%TO.N,v15_ls*%
X154725000Y-40500000D03*
X106100000Y-39600000D03*
X106100000Y-34000000D03*
X150450000Y-39500000D03*
X109500000Y-39600000D03*
X68500000Y-21500000D03*
X61225000Y-11500000D03*
%TO.N,v3v3*%
X159100000Y-74450000D03*
X102200000Y-72600000D03*
X174500000Y-82000000D03*
X113000000Y-56500000D03*
X102095000Y-53300000D03*
X171600000Y-77350000D03*
X95725000Y-54600000D03*
X165850000Y-81400000D03*
X157000000Y-56500000D03*
X108445000Y-52900000D03*
X82225000Y-54600000D03*
X163200000Y-64000000D03*
X70000000Y-79600000D03*
X108400000Y-71000000D03*
X146095000Y-53300000D03*
X165850000Y-75400000D03*
X73000000Y-82095000D03*
X152445000Y-52900000D03*
X139725000Y-54600000D03*
X165850000Y-69400000D03*
X84905000Y-53000000D03*
%TO.N,pwm_hb*%
X99555000Y-53000000D03*
%TO.N,pwm_lb*%
X100825000Y-54300000D03*
%TO.N,leg_b-dis*%
X109675000Y-55100000D03*
X102440000Y-58900000D03*
X104634999Y-53500000D03*
%TO.N,leg_b.driver-dt*%
X105905000Y-52400000D03*
X109675000Y-58000000D03*
%TO.N,sw_b*%
X213200000Y-151500000D03*
X88300000Y-10600000D03*
X96500000Y-35500000D03*
X102095000Y-33000000D03*
D60*
%TO.N,sw_a*%
X198500000Y-72000000D03*
X201500000Y-22000000D03*
%TO.N,bus_p*%
X58500000Y-2500000D03*
X68500000Y-48800000D03*
X67200000Y-34000000D03*
X67200000Y-32200000D03*
X68500000Y-54800000D03*
X81500000Y-4500000D03*
X68500000Y-47000000D03*
X68500000Y-56600000D03*
X68500000Y-58400000D03*
X58500000Y-6500000D03*
X81500000Y-6500000D03*
X81500000Y-2500000D03*
X58500000Y-4500000D03*
X68500000Y-53000000D03*
%TO.N,res_a*%
X219500000Y-89500000D03*
X217000000Y-88500000D03*
X217000000Y-91000000D03*
D59*
%TO.N,ocp_kelvin_n*%
X76800000Y-18000000D03*
X128500000Y-19800000D03*
X76800000Y-15900000D03*
%TO.N,permit*%
X150500000Y-58000000D03*
X106500000Y-58000000D03*
%TO.N,pwm_la*%
X144825000Y-54400000D03*
X143200000Y-63600000D03*
%TO.N,ct_zc*%
X126000000Y-73500000D03*
%TO.N,ct_mon*%
X129000000Y-74500000D03*
%TO.N,ct_oc_neg*%
X123300000Y-71500000D03*
X108400000Y-69400000D03*
%TO.N,ct_sense_mon*%
X171000000Y-74000000D03*
X163200000Y-85800000D03*
X164860000Y-80150000D03*
D60*
%TO.N,hv_ret*%
X91500000Y-29500000D03*
X83500000Y-28600000D03*
X90000000Y-28600000D03*
X124400000Y-18200000D03*
X122600000Y-18200000D03*
X126200000Y-18600000D03*
X85300000Y-29500000D03*
X83500000Y-30400000D03*
X90000000Y-30400000D03*
D59*
%TO.N,bus_fault_hot*%
X81000000Y-39000000D03*
X78500000Y-37800000D03*
%TO.N,bus_fault_iso*%
X104460000Y-68200000D03*
X83000000Y-53200000D03*
%TO.N,leg_a-dis*%
X148635000Y-53500000D03*
X153675000Y-55100000D03*
X146440000Y-58900000D03*
%TO.N,leg_a.driver-dt*%
X149905000Y-52400000D03*
X153675000Y-58000000D03*
%TO.N,leg_a-out_l*%
X134800000Y-17500000D03*
X151800000Y-38800000D03*
%TO.N,vsense_in*%
X58400000Y-89600000D03*
X58600000Y-83400000D03*
X58300000Y-92300000D03*
X63137500Y-96900000D03*
%TO.N,ovp_ok_hot*%
X72500000Y-38800000D03*
X59500000Y-90800000D03*
X53500000Y-96000000D03*
X46000000Y-42000000D03*
%TO.N,ocp_ok_hot*%
X68800000Y-23500000D03*
X68800000Y-25500000D03*
X71000000Y-16000000D03*
X72500000Y-36000000D03*
%TO.N,ocp_thresh*%
X78000000Y-21300000D03*
X74500000Y-20800000D03*
%TO.N,ct_oc_pos*%
X103800000Y-72700000D03*
X122300000Y-72500000D03*
%TD*%
%TO.N,leg_b-permit_gate*%
D61*
X101199999Y-55300000D02*
X107324999Y-55300000D01*
X104000000Y-55300000D02*
X104000000Y-59500000D01*
X104000000Y-59500000D02*
X105675000Y-59500000D01*
X100562500Y-56050000D02*
X101199999Y-55300000D01*
X107324999Y-55300000D02*
X107325000Y-56500000D01*
%TO.N,selv_gnd*%
D62*
X167400000Y-67000000D02*
X168750000Y-67600000D01*
X111325000Y-59500000D02*
X111325000Y-61200000D01*
X155325000Y-59500000D02*
X155325000Y-61200000D01*
X97275000Y-56500000D02*
X97275000Y-58400000D01*
X141275000Y-56500000D02*
X141275000Y-58400000D01*
X70825000Y-85905000D02*
X73000000Y-85905000D01*
X100562500Y-57950000D02*
X101800000Y-60300000D01*
X164862500Y-72000000D02*
X163350000Y-72000000D01*
X164862500Y-78000000D02*
X163350000Y-78000000D01*
X104325000Y-79000000D02*
X104325000Y-81000000D01*
X102200000Y-69725000D02*
X102200000Y-68400000D01*
X70000000Y-76225000D02*
X72000000Y-76225000D01*
X87445000Y-50875000D02*
X87445000Y-53000000D01*
X103365000Y-50875000D02*
X103365000Y-53300000D01*
D61*
X104462500Y-70500000D02*
X103400000Y-70500000D01*
D62*
X177500000Y-80825000D02*
X177500000Y-82000000D01*
X168675000Y-81400000D02*
X169750000Y-81400000D01*
X168675000Y-75400000D02*
X169750000Y-75400000D01*
X151325000Y-59500000D02*
X151325000Y-61200000D01*
X177475000Y-84000000D02*
X177900000Y-84000000D01*
X83775000Y-56500000D02*
X83775000Y-58400000D01*
D61*
X103400000Y-70500000D02*
X102200000Y-69725000D01*
D62*
X144562500Y-57950000D02*
X145800000Y-60300000D01*
X147365000Y-50875000D02*
X147365000Y-53300000D01*
X170525000Y-78950000D02*
X171600000Y-78950000D01*
X168675000Y-69400000D02*
X169750000Y-69400000D01*
X164862500Y-84000000D02*
X163350000Y-84000000D01*
X160175000Y-72950000D02*
X159100000Y-72950000D01*
X78555000Y-50875000D02*
X78555000Y-53000000D01*
X107325000Y-59500000D02*
X107325000Y-61200000D01*
%TO.N,ovp_thresh*%
D61*
X61000000Y-99825000D02*
X64000000Y-99775000D01*
X60862500Y-95950000D02*
X58000000Y-98175000D01*
X58000000Y-98175000D02*
X59000000Y-98200000D01*
X59000000Y-98200000D02*
X61000000Y-99825000D01*
%TO.N,leg_ret*%
X112975000Y-35600000D02*
X113000000Y-33400000D01*
X125230000Y-9170000D02*
X121500000Y-12400000D01*
X57500000Y-14500000D02*
X62775000Y-14500000D01*
X68500000Y-17000000D02*
X68300000Y-19000000D01*
X60862500Y-95000000D02*
X59300000Y-95000000D01*
X64000000Y-98225000D02*
X62500000Y-98200000D01*
X66500000Y-14500000D02*
X66500000Y-16524999D01*
X57500000Y-16524999D02*
X57500000Y-14500000D01*
X57000000Y-87175000D02*
X58600000Y-87200000D01*
X62775000Y-14500000D02*
X62775000Y-13500000D01*
X62775000Y-13500000D02*
X64000000Y-14500000D01*
X79825000Y-41125000D02*
X79825000Y-39100000D01*
X156275000Y-39600000D02*
X156275000Y-41600000D01*
X59000000Y-16000000D02*
X57500000Y-16524999D01*
X112275000Y-38550000D02*
X114900000Y-38550000D01*
D63*
X114900000Y-38550000D02*
X114900000Y-17800000D01*
D61*
X57000000Y-81225000D02*
X58400000Y-80400000D01*
X73500000Y-41700000D02*
X73662500Y-39750000D01*
X156275000Y-41600000D02*
X153200000Y-41600000D01*
X83775000Y-37500000D02*
X86000000Y-37000000D01*
X61000000Y-98175000D02*
X62500000Y-98200000D01*
X60175000Y-85905000D02*
X58200000Y-85300000D01*
X156975000Y-35600000D02*
X156275000Y-39600000D01*
X87700000Y-37000000D02*
X87445000Y-41125000D01*
X81062500Y-19450000D02*
X81150000Y-20600000D01*
D64*
X142205000Y-9700000D02*
X143450000Y-9700000D01*
D61*
X66500000Y-16524999D02*
X68500000Y-17000000D01*
X72775000Y-23000000D02*
X73600000Y-25000000D01*
D65*
X128720000Y-18600000D02*
X128720000Y-11600000D01*
D64*
X120205000Y-9700000D02*
X121450000Y-9700000D01*
D61*
X80500000Y-24675000D02*
X83000000Y-24725000D01*
D64*
X121450000Y-9700000D02*
X121450000Y-4215000D01*
D61*
X67275000Y-95000000D02*
X67300000Y-96600000D01*
X119600000Y-15000000D02*
X119600000Y-20500000D01*
X57000000Y-91225000D02*
X55600000Y-91900000D01*
X64000000Y-14500000D02*
X66500000Y-14500000D01*
X83000000Y-24725000D02*
X84400000Y-26300000D01*
X68300000Y-19000000D02*
X70862500Y-19000000D01*
X112275000Y-39600000D02*
X112275000Y-38550000D01*
X78000000Y-18225000D02*
X81062500Y-19450000D01*
D63*
X152445000Y-41125000D02*
X153200000Y-38600000D01*
D65*
X107750000Y-11275000D02*
X107600000Y-10200000D01*
D61*
X60175000Y-84635000D02*
X58200000Y-85300000D01*
X62000000Y-19562500D02*
X62000000Y-21800000D01*
D63*
X108445000Y-38550000D02*
X114900000Y-38550000D01*
D65*
X136000000Y-18600000D02*
X128720000Y-18600000D01*
D61*
X75575000Y-34800000D02*
X79000000Y-31000000D01*
X153200000Y-41600000D02*
X153200000Y-38600000D01*
X62000000Y-19562500D02*
X59000000Y-16000000D01*
D64*
X143450000Y-9700000D02*
X143450000Y-4215000D01*
D61*
X86000000Y-37000000D02*
X87700000Y-37000000D01*
D63*
X108445000Y-41125000D02*
X108445000Y-38550000D01*
D61*
X121500000Y-12400000D02*
X119600000Y-15000000D01*
%TO.N,hot5*%
X70000000Y-24000000D02*
X70000000Y-22300000D01*
X74025000Y-34800000D02*
X75937500Y-37850000D01*
D62*
X73000000Y-29000000D02*
X74000000Y-33000000D01*
D61*
X63400000Y-92800000D02*
X63137500Y-94050000D01*
X74025000Y-36000000D02*
X82225000Y-36000000D01*
X60175000Y-82095000D02*
X57000000Y-82775000D01*
X85700000Y-39000000D02*
X84905000Y-41125000D01*
X80500000Y-23000000D02*
X81175000Y-22000000D01*
D62*
X74000000Y-33000000D02*
X74025000Y-34800000D01*
D61*
X60175000Y-80600000D02*
X60175000Y-82095000D01*
D62*
X60500000Y-19650000D02*
X57500000Y-19475000D01*
D61*
X70000000Y-22300000D02*
X71225000Y-23000000D01*
X74000000Y-15900000D02*
X73137500Y-18050000D01*
X63137500Y-94050000D02*
X65724999Y-95000000D01*
D62*
X73000000Y-29000000D02*
X70000000Y-29000000D01*
D61*
X74025000Y-34800000D02*
X74025000Y-36000000D01*
D62*
X57500000Y-19475000D02*
X59000000Y-21800000D01*
D61*
X70000000Y-29000000D02*
X70000000Y-24000000D01*
X82225000Y-37500000D02*
X82225000Y-36000000D01*
X82225000Y-36000000D02*
X82225000Y-37500000D01*
%TO.N,ref25*%
X84050000Y-20500000D02*
X84050000Y-16000000D01*
X82825000Y-22000000D02*
X84050000Y-20500000D01*
X75500000Y-24325000D02*
X78000000Y-24325000D01*
X58000000Y-99825000D02*
X56400000Y-99800000D01*
X82825000Y-20500000D02*
X82825000Y-22000000D01*
X75500000Y-27000000D02*
X75500000Y-24325000D01*
X84050000Y-16000000D02*
X81062500Y-17550000D01*
%TO.N,v15_ls*%
X154725000Y-39600000D02*
X154025000Y-35600000D01*
X63500000Y-19650000D02*
X66500000Y-19475000D01*
X106100000Y-39600000D02*
X105905000Y-41125000D01*
X109500000Y-39600000D02*
X110725000Y-39600000D01*
X105905000Y-37000000D02*
X105905000Y-41125000D01*
X154725000Y-40500000D02*
X154725000Y-39600000D01*
X150450000Y-39500000D02*
X149905000Y-41125000D01*
X61225000Y-11500000D02*
X61225000Y-13500000D01*
X66500000Y-19475000D02*
X68500000Y-21500000D01*
X106100000Y-34000000D02*
X105905000Y-37000000D01*
X110025000Y-35600000D02*
X106100000Y-34000000D01*
%TO.N,n_filt*%
D66*
X145500000Y-113500000D02*
X145500000Y-93000000D01*
X96800000Y-113500000D02*
X145500000Y-113500000D01*
X96800000Y-116000000D02*
X96800000Y-113500000D01*
%TO.N,v3v3*%
D62*
X84905000Y-50875000D02*
X84905000Y-53000000D01*
X111325000Y-56500000D02*
X113000000Y-56500000D01*
X167125000Y-69400000D02*
X165850000Y-69400000D01*
X102200000Y-71275000D02*
X102200000Y-72600000D01*
X174500000Y-80825000D02*
X174500000Y-82000000D01*
X164600000Y-64000000D02*
X163200000Y-64000000D01*
X70000000Y-77775000D02*
X70000000Y-79600000D01*
X167125000Y-81400000D02*
X165850000Y-81400000D01*
D61*
X167137500Y-77050000D02*
X167125000Y-75400000D01*
X167137500Y-83050000D02*
X167125000Y-81400000D01*
D62*
X146095000Y-50875000D02*
X146095000Y-53300000D01*
X106737500Y-70500000D02*
X108400000Y-71000000D01*
X167125000Y-75400000D02*
X165850000Y-75400000D01*
X155325000Y-56500000D02*
X157000000Y-56500000D01*
X170525000Y-77350000D02*
X171600000Y-77350000D01*
X95725000Y-56500000D02*
X95725000Y-54600000D01*
X102095000Y-50875000D02*
X102095000Y-53300000D01*
X70825000Y-82095000D02*
X73000000Y-82095000D01*
X139725000Y-56500000D02*
X139725000Y-54600000D01*
D61*
X167137500Y-71050000D02*
X167125000Y-69400000D01*
D62*
X160175000Y-74450000D02*
X159100000Y-74450000D01*
X82225000Y-56500000D02*
X82225000Y-54600000D01*
X108445000Y-50875000D02*
X108445000Y-52900000D01*
X152445000Y-50875000D02*
X152445000Y-52900000D01*
%TO.N,pwm_hb*%
D61*
X99555000Y-50875000D02*
X99555000Y-53000000D01*
%TO.N,pwm_lb*%
X100825000Y-50875000D02*
X100825000Y-54300000D01*
%TO.N,leg_b-dis*%
X102440000Y-58900000D02*
X102437500Y-57000000D01*
X109675000Y-55100000D02*
X109675000Y-56500000D01*
X104635000Y-50875000D02*
X104634999Y-53500000D01*
%TO.N,leg_b.driver-dt*%
X105905000Y-50875000D02*
X105905000Y-52400000D01*
X109675000Y-58000000D02*
X109675000Y-59500000D01*
%TO.N,leg_b-out_l*%
D65*
X107175000Y-41125000D02*
X107175000Y-37550000D01*
X114000000Y-17200000D02*
X110550000Y-14062500D01*
X114000000Y-37550000D02*
X114000000Y-17200000D01*
X107175000Y-37550000D02*
X114000000Y-37550000D01*
%TO.N,sw_b*%
D64*
X116000000Y-9700000D02*
X117255000Y-9700000D01*
D63*
X102095000Y-41125000D02*
X102095000Y-33000000D01*
D61*
X214570000Y-148800000D02*
X214570000Y-145000000D01*
D64*
X103450000Y-4215000D02*
X103450000Y-9700000D01*
X103450000Y-9700000D02*
X102205000Y-9700000D01*
D63*
X96500000Y-36800000D02*
X96500000Y-35500000D01*
D61*
X214570000Y-145000000D02*
X211762500Y-145000000D01*
D64*
X95475000Y-37600000D02*
X97400000Y-38025000D01*
D65*
X89750000Y-11275000D02*
X88300000Y-10600000D01*
D64*
X116000000Y-4215000D02*
X116000000Y-9700000D01*
X95475000Y-39300000D02*
X95475000Y-37600000D01*
D63*
X97400000Y-38025000D02*
X96500000Y-36800000D01*
D61*
X213200000Y-151500000D02*
X214570000Y-148800000D01*
%TO.N,leg_b-out_h*%
D64*
X96000000Y-16500000D02*
X92550000Y-14062500D01*
X100825000Y-30000000D02*
X96000000Y-25000000D01*
X96000000Y-25000000D02*
X96000000Y-16500000D01*
X100825000Y-41125000D02*
X100825000Y-30000000D01*
%TO.N,leg_b-boot*%
X98580000Y-34000000D02*
X99300000Y-36000000D01*
X92525000Y-41700000D02*
X92525000Y-39300000D01*
D63*
X98400000Y-41700000D02*
X97400000Y-41700000D01*
D64*
X97400000Y-41700000D02*
X92525000Y-41700000D01*
D63*
X97400000Y-41700000D02*
X97400000Y-39575000D01*
D64*
X99300000Y-36000000D02*
X99300000Y-40300000D01*
X99300000Y-40300000D02*
X99555000Y-41125000D01*
D63*
X99555000Y-41125000D02*
X98400000Y-41700000D01*
%TO.N,ct_s1*%
D65*
X177000000Y-65500000D02*
X172462500Y-65500000D01*
X174500000Y-65500000D02*
X174500000Y-69025000D01*
X181250000Y-63620000D02*
X177000000Y-63620000D01*
X177000000Y-63620000D02*
X177000000Y-69037500D01*
%TO.N,ct_s2*%
D61*
X174500000Y-79175000D02*
X172500000Y-79170000D01*
D65*
X177000000Y-74200000D02*
X174500000Y-74200000D01*
D61*
X172500000Y-79170000D02*
X172500000Y-84950000D01*
D62*
X177000000Y-77380000D02*
X177500000Y-79175000D01*
D61*
X172500000Y-84950000D02*
X167137500Y-84950000D01*
D65*
X181250000Y-77380000D02*
X177000000Y-77380000D01*
X174500000Y-74200000D02*
X174500000Y-71975000D01*
X177000000Y-77380000D02*
X177000000Y-71962500D01*
D62*
X177500000Y-79175000D02*
X174500000Y-79175000D01*
D61*
X172500000Y-84000000D02*
X174525000Y-84000000D01*
%TO.N,leg_a-boot*%
D63*
X141400000Y-41700000D02*
X141400000Y-39575000D01*
D64*
X131500000Y-40000000D02*
X136525000Y-39300000D01*
D63*
X142400000Y-41700000D02*
X141400000Y-41700000D01*
D64*
X141400000Y-41700000D02*
X136525000Y-41700000D01*
X136525000Y-41700000D02*
X136525000Y-39300000D01*
D63*
X143555000Y-41125000D02*
X142400000Y-41700000D01*
%TO.N,sw_a*%
D64*
X139475000Y-37600000D02*
X141400000Y-38025000D01*
D67*
X198500000Y-76080000D02*
X206550000Y-76080000D01*
D63*
X146095000Y-38500000D02*
X148500000Y-29500000D01*
D64*
X139475000Y-39300000D02*
X139475000Y-37600000D01*
X161450000Y-4215000D02*
X161450000Y-9700000D01*
D67*
X201500000Y-58000000D02*
X198500000Y-60500000D01*
D63*
X146095000Y-41125000D02*
X146095000Y-38500000D01*
D67*
X198500000Y-60500000D02*
X198500000Y-76080000D01*
D63*
X156500000Y-29500000D02*
X156500000Y-17000000D01*
D67*
X201500000Y-56000000D02*
X201500000Y-58000000D01*
D64*
X138000000Y-4215000D02*
X138000000Y-9700000D01*
X138000000Y-9700000D02*
X139255000Y-9700000D01*
X161450000Y-9700000D02*
X160205000Y-9700000D01*
D63*
X148500000Y-29500000D02*
X156500000Y-29500000D01*
%TO.N,leg_b-gate_h*%
D65*
X92550000Y-11137500D02*
X89750000Y-12925000D01*
D64*
X92550000Y-4215000D02*
X92550000Y-11137500D01*
%TO.N,bus_p*%
D62*
X52000000Y-73400000D02*
X52000000Y-74200000D01*
X52000000Y-72000000D02*
X52000000Y-73400000D01*
X60500000Y-66500000D02*
X54500000Y-69500000D01*
X63500000Y-64099999D02*
X60500000Y-66500000D01*
X63500000Y-64099999D02*
X63500000Y-63400000D01*
D64*
X156000000Y-9700000D02*
X157255000Y-9700000D01*
X156000000Y-4215000D02*
X156000000Y-9700000D01*
X98000000Y-4215000D02*
X98000000Y-9700000D01*
D62*
X61000000Y-64950000D02*
X63500000Y-64099999D01*
D64*
X98000000Y-9700000D02*
X99255000Y-9700000D01*
D62*
X54500000Y-69500000D02*
X52000000Y-72000000D01*
X58000000Y-64950000D02*
X61000000Y-64950000D01*
%TO.N,res_a*%
D61*
X228000000Y-138500000D02*
X185700000Y-138500000D01*
X185700000Y-145000000D02*
X188537500Y-145000000D01*
D68*
X217000000Y-88500000D02*
X217000000Y-91000000D01*
X217000000Y-91000000D02*
X221000000Y-91000000D01*
D61*
X185700000Y-138500000D02*
X185700000Y-145000000D01*
%TO.N,ocp_node*%
X75500000Y-22675000D02*
X75500000Y-19825000D01*
X75500000Y-19825000D02*
X78000000Y-19775000D01*
X70862500Y-21700000D02*
X75500000Y-21700000D01*
X75500000Y-21700000D02*
X75500000Y-22675000D01*
X70862500Y-19950000D02*
X70862500Y-21700000D01*
%TO.N,ocp_kelvin_n*%
X127770000Y-16030000D02*
X127770000Y-19800000D01*
X127770000Y-19800000D02*
X128500000Y-19800000D01*
X76800000Y-18000000D02*
X75500000Y-18175000D01*
%TO.N,leg_b-gate_l*%
D64*
X110550000Y-4215000D02*
X110550000Y-11137500D01*
D65*
X110550000Y-11137500D02*
X107750000Y-12925000D01*
%TO.N,permit*%
D61*
X105675000Y-56500000D02*
X106500000Y-58000000D01*
X149675000Y-56500000D02*
X150500000Y-58000000D01*
%TO.N,leg_a-permit_gate*%
X148000000Y-55300000D02*
X148000000Y-59500000D01*
X145200000Y-55300000D02*
X151325000Y-55300000D01*
X151325000Y-55300000D02*
X151325000Y-56500000D01*
X148000000Y-59500000D02*
X149675000Y-59500000D01*
X144562500Y-56050000D02*
X145200000Y-55300000D01*
%TO.N,ct_ref_lo*%
X161825000Y-72950000D02*
X161825000Y-74450000D01*
X164862500Y-72950000D02*
X161825000Y-72950000D01*
%TO.N,ac_l_in*%
D67*
X19150000Y-153000000D02*
X26750000Y-153000000D01*
X10500000Y-148500000D02*
X17500000Y-148500000D01*
D69*
X6700000Y-149555000D02*
X10500000Y-148500000D01*
D67*
X17500000Y-148500000D02*
X19150000Y-153000000D01*
%TO.N,ac_n_in*%
D62*
X75250000Y-127500000D02*
X75250000Y-132000000D01*
X81000000Y-132000000D02*
X82000000Y-131800000D01*
X82000000Y-131800000D02*
X82000000Y-130662500D01*
X75250000Y-132000000D02*
X81000000Y-132000000D01*
%TO.N,pe*%
D70*
X138500000Y-83000000D02*
X145500000Y-83000000D01*
X102675000Y-77000000D02*
X110600000Y-77000000D01*
X110600000Y-79500000D02*
X125840000Y-79500000D01*
X125840000Y-79500000D02*
X135000000Y-79500000D01*
X110600000Y-77000000D02*
X110600000Y-79500000D01*
X135000000Y-79500000D02*
X138500000Y-83000000D01*
X102675000Y-79000000D02*
X102675000Y-77000000D01*
%TO.N,v15_selv*%
D64*
X110500000Y-66000000D02*
X92000000Y-66000000D01*
X112500000Y-64080000D02*
X110500000Y-66000000D01*
X88800000Y-69200000D02*
X88800000Y-71000000D01*
X92000000Y-66000000D02*
X88800000Y-69200000D01*
%TO.N,pwm_ha*%
D61*
X143555000Y-52500000D02*
X143555000Y-50875000D01*
X124500000Y-64080000D02*
X124500000Y-61900000D01*
X142300000Y-52500000D02*
X143555000Y-52500000D01*
X124500000Y-61900000D02*
X142300000Y-61900000D01*
X142300000Y-61900000D02*
X142300000Y-52500000D01*
%TO.N,pwm_la*%
X127500000Y-62700000D02*
X143200000Y-62700000D01*
X127500000Y-64080000D02*
X127500000Y-62700000D01*
X143200000Y-62700000D02*
X143200000Y-63600000D01*
X144825000Y-54400000D02*
X144825000Y-50875000D01*
%TO.N,bus_fault*%
X106737500Y-71450000D02*
X107700000Y-72400000D01*
X107700000Y-72400000D02*
X113200000Y-72400000D01*
X115500000Y-70100000D02*
X115500000Y-67080000D01*
X113200000Y-72400000D02*
X115500000Y-70100000D01*
%TO.N,vbus_p*%
X86000000Y-73500000D02*
X116000000Y-73500000D01*
X116000000Y-73500000D02*
X118500000Y-71000000D01*
X70825000Y-83365000D02*
X78000000Y-83365000D01*
X118500000Y-71000000D02*
X118500000Y-67080000D01*
X78000000Y-83365000D02*
X86000000Y-73500000D01*
%TO.N,vbus_n*%
X121500000Y-71000000D02*
X121500000Y-67080000D01*
X79000000Y-84635000D02*
X87000000Y-74500000D01*
X70825000Y-84635000D02*
X79000000Y-84635000D01*
X87000000Y-74500000D02*
X117000000Y-74500000D01*
X117000000Y-74500000D02*
X121500000Y-71000000D01*
%TO.N,ct_zc*%
X156400000Y-83050000D02*
X156400000Y-73500000D01*
X164862500Y-83050000D02*
X156400000Y-83050000D01*
X156400000Y-73500000D02*
X126000000Y-73500000D01*
%TO.N,ct_mon*%
X155400000Y-85800000D02*
X155400000Y-74500000D01*
X160175000Y-85800000D02*
X155400000Y-85800000D01*
X155400000Y-74500000D02*
X129000000Y-74500000D01*
%TO.N,ct_oc_neg*%
X159000000Y-71500000D02*
X123300000Y-71500000D01*
X108400000Y-69400000D02*
X106737500Y-69550000D01*
X160000000Y-71050000D02*
X159000000Y-71500000D01*
X164862500Y-71050000D02*
X160000000Y-71050000D01*
%TO.N,ct_sense_mon*%
X171000000Y-72950000D02*
X167137500Y-72950000D01*
X164862500Y-84950000D02*
X163900000Y-85800000D01*
X163200000Y-85800000D02*
X161825000Y-85800000D01*
X167400000Y-65500000D02*
X169537500Y-65500000D01*
X165600000Y-65500000D02*
X167400000Y-65500000D01*
X164600000Y-67000000D02*
X165600000Y-65500000D01*
X171000000Y-66900000D02*
X171000000Y-72950000D01*
X171000000Y-72950000D02*
X171000000Y-74000000D01*
X164862500Y-78950000D02*
X164860000Y-80150000D01*
X169537500Y-65500000D02*
X171000000Y-66900000D01*
X167400000Y-64000000D02*
X167400000Y-65500000D01*
X163900000Y-85800000D02*
X163200000Y-85800000D01*
%TO.N,busbleed_mid*%
D62*
X63500000Y-50300000D02*
X63500000Y-51100000D01*
X63500000Y-58900000D02*
X63500000Y-59600000D01*
X63500000Y-51100000D02*
X63500000Y-58900000D01*
%TO.N,hv_ret*%
X63500000Y-46600000D02*
X63500000Y-45900000D01*
X63500000Y-45900000D02*
X61000000Y-44950000D01*
X61000000Y-44950000D02*
X58000000Y-44950000D01*
D70*
X125865000Y-15585000D02*
X124400000Y-18200000D01*
D71*
X83500000Y-29900000D02*
X90000000Y-29900000D01*
D70*
X125865000Y-15585000D02*
X122600000Y-18200000D01*
X125865000Y-15585000D02*
X126200000Y-18600000D01*
%TO.N,bus_fault_hot*%
D61*
X81000000Y-39000000D02*
X83635000Y-39000000D01*
X75937500Y-39750000D02*
X78500000Y-37800000D01*
X83635000Y-39000000D02*
X83635000Y-41125000D01*
%TO.N,bus_fault_iso*%
X83635000Y-50875000D02*
X83000000Y-53200000D01*
X104460000Y-68200000D02*
X104462500Y-69550000D01*
%TO.N,leg_a-dis*%
X148635000Y-50875000D02*
X148635000Y-53500000D01*
X146440000Y-58900000D02*
X146437500Y-57000000D01*
X153675000Y-55100000D02*
X153675000Y-56500000D01*
%TO.N,leg_a.driver-dt*%
X149905000Y-50875000D02*
X149905000Y-52400000D01*
X153675000Y-58000000D02*
X153675000Y-59500000D01*
%TO.N,leg_a-out_l*%
D63*
X134800000Y-17500000D02*
X132550000Y-14062500D01*
X151175000Y-41125000D02*
X151800000Y-38800000D01*
%TO.N,leg_a-out_h*%
D64*
X144825000Y-38500000D02*
X147500000Y-28500000D01*
X155500000Y-17000000D02*
X150550000Y-14062500D01*
X147500000Y-28500000D02*
X155500000Y-28500000D01*
X144825000Y-41125000D02*
X144825000Y-38500000D01*
X155500000Y-28500000D02*
X155500000Y-17000000D01*
%TO.N,l_filt*%
D72*
X76000000Y-112000000D02*
X76000000Y-116000000D01*
D66*
X138500000Y-108000000D02*
X138500000Y-93000000D01*
D72*
X33000000Y-108000000D02*
X74000000Y-108000000D01*
D67*
X30000000Y-34850000D02*
X23500000Y-28500000D01*
X29000000Y-110500000D02*
X29700000Y-105000000D01*
D66*
X74000000Y-108000000D02*
X138500000Y-108000000D01*
D72*
X29000000Y-110500000D02*
X33000000Y-108000000D01*
D67*
X29700000Y-105000000D02*
X29700000Y-36000000D01*
D72*
X74000000Y-108000000D02*
X76000000Y-112000000D01*
D67*
X29700000Y-36000000D02*
X30000000Y-34850000D01*
X23500000Y-9000000D02*
X26300000Y-4600000D01*
D66*
X29700000Y-106450000D02*
X36450000Y-106450000D01*
D67*
X23500000Y-28500000D02*
X23500000Y-9000000D01*
%TO.N,vdiv_3*%
D61*
X52000000Y-87900000D02*
X52000000Y-88300000D01*
X52000000Y-87600000D02*
X52000000Y-87900000D01*
X52000000Y-87200000D02*
X52000000Y-87600000D01*
%TO.N,vsense_in*%
X52000000Y-92700000D02*
X54000000Y-93600000D01*
X57000000Y-88825000D02*
X58400000Y-89600000D01*
X54000000Y-93600000D02*
X57000000Y-92775000D01*
X60175000Y-83365000D02*
X58600000Y-83400000D01*
X52000000Y-91562500D02*
X52000000Y-92700000D01*
X63137500Y-95950000D02*
X63137500Y-96900000D01*
X57000000Y-92775000D02*
X58300000Y-92300000D01*
%TO.N,leg_a-gate_l*%
D65*
X132550000Y-11137500D02*
X129750000Y-12925000D01*
D64*
X132550000Y-4215000D02*
X132550000Y-11137500D01*
%TO.N,vdiv_2*%
D61*
X52000000Y-82500000D02*
X52000000Y-82900000D01*
X52000000Y-82900000D02*
X52000000Y-83200000D01*
X52000000Y-83200000D02*
X52000000Y-83600000D01*
%TO.N,ovp_ok_hot*%
X59500000Y-93000000D02*
X59500000Y-90800000D01*
X72500000Y-38800000D02*
X73662500Y-38800000D01*
X60862500Y-94050000D02*
X59500000Y-93000000D01*
%TO.N,leg_a-gate_h*%
D65*
X150550000Y-11137500D02*
X147750000Y-12925000D01*
D64*
X150550000Y-4215000D02*
X150550000Y-11137500D01*
%TO.N,ct_ref_hi*%
D61*
X167137500Y-78950000D02*
X168875000Y-78950000D01*
X168875000Y-78950000D02*
X168875000Y-77350000D01*
%TO.N,l_f*%
D67*
X46250000Y-153000000D02*
X53850000Y-153000000D01*
X46250000Y-144000000D02*
X31000000Y-139000000D01*
D70*
X46250000Y-144000000D02*
X52750000Y-131000000D01*
D67*
X53850000Y-153000000D02*
X64450999Y-147000000D01*
D62*
X56000000Y-120500000D02*
X82000000Y-120500000D01*
X82000000Y-120500000D02*
X82000000Y-121400000D01*
D70*
X52750000Y-131000000D02*
X52750000Y-127500000D01*
D62*
X82000000Y-121400000D02*
X82000000Y-122100000D01*
D67*
X46250000Y-153000000D02*
X46250000Y-144000000D01*
X31000000Y-139000000D02*
X29000000Y-135500000D01*
D62*
X52750000Y-127500000D02*
X56000000Y-120500000D01*
%TO.N,ocp_ok_hot*%
D61*
X73662500Y-37850000D02*
X72500000Y-36000000D01*
X71000000Y-16000000D02*
X70862500Y-18050000D01*
X68800000Y-25500000D02*
X68800000Y-23500000D01*
%TO.N,ocp_thresh*%
X78000000Y-21300000D02*
X78000000Y-22675000D01*
X78000000Y-22675000D02*
X80500000Y-26325000D01*
X80500000Y-26325000D02*
X83000000Y-26275000D01*
X73137500Y-19950000D02*
X74500000Y-20800000D01*
%TO.N,ct_oc_pos*%
X164862500Y-77050000D02*
X157400000Y-77050000D01*
X157400000Y-72500000D02*
X122300000Y-72500000D01*
X103800000Y-72700000D02*
X104462500Y-71450000D01*
X157400000Y-77050000D02*
X157400000Y-72500000D01*
%TO.N,crbleed_2*%
X198850000Y-145000000D02*
X199500000Y-145000000D01*
X199500000Y-145000000D02*
X201500000Y-145000000D01*
X201500000Y-145000000D02*
X202150000Y-145000000D01*
%TO.N,crbleed_3*%
X206000000Y-145000000D02*
X206500000Y-145000000D01*
X205850000Y-145000000D02*
X206000000Y-145000000D01*
X206500000Y-145000000D02*
X209150000Y-145000000D01*
%TO.N,crbleed_1*%
X194350000Y-145000000D02*
X195150000Y-145000000D01*
X191850000Y-145000000D02*
X194350000Y-145000000D01*
%TO.N,xbleed_mid*%
D62*
X82000000Y-125800000D02*
X82000000Y-126600000D01*
X82000000Y-126600000D02*
X82000000Y-127400000D01*
%TO.N,vdiv_1*%
D61*
X52000000Y-78200000D02*
X52000000Y-78500000D01*
X52000000Y-78500000D02*
X52000000Y-78900000D01*
X52000000Y-77800000D02*
X52000000Y-78200000D01*
%TD*%
%TA.AperFunction,Conductor*%
%TO.N,leg_ret*%
G36*
X130743039Y-3419685D02*
G01*
X130788794Y-3472489D01*
X130800000Y-3524000D01*
X130800000Y-11533619D01*
X130780315Y-11600658D01*
X130742724Y-11638137D01*
X130206409Y-11980518D01*
X130139685Y-12000000D01*
X128524000Y-12000000D01*
X128456961Y-11980315D01*
X128411206Y-11927511D01*
X128400000Y-11876000D01*
X128400000Y-10800000D01*
X126324000Y-10800000D01*
X126256961Y-10780315D01*
X126211206Y-10727511D01*
X126200000Y-10676000D01*
X126200000Y-3524000D01*
X126219685Y-3456961D01*
X126272489Y-3411206D01*
X126324000Y-3400000D01*
X130676000Y-3400000D01*
X130743039Y-3419685D01*
G37*
%TD.AperFunction*%
%TD*%
%TA.AperFunction,Conductor*%
%TO.N,res_a*%
G36*
X237943039Y-86019685D02*
G01*
X237988794Y-86072489D01*
X238000000Y-86124000D01*
X238000000Y-157876000D01*
X237980315Y-157943039D01*
X237927511Y-157988794D01*
X237876000Y-158000000D01*
X219124000Y-158000000D01*
X219056961Y-157980315D01*
X219011206Y-157927511D01*
X219000000Y-157876000D01*
X219000000Y-151481562D01*
X219003088Y-151468649D01*
X219002092Y-151458880D01*
X219013419Y-151425457D01*
X219098556Y-151257669D01*
X219101728Y-151251815D01*
X219142902Y-151180502D01*
X219201779Y-151054237D01*
X219264812Y-150930014D01*
X219290877Y-150865186D01*
X222599500Y-150865186D01*
X222599500Y-151134813D01*
X222629686Y-151402719D01*
X222629688Y-151402731D01*
X222689684Y-151665594D01*
X222689687Y-151665602D01*
X222778734Y-151920082D01*
X222895714Y-152162994D01*
X222895716Y-152162997D01*
X223039162Y-152391289D01*
X223207266Y-152602085D01*
X223397915Y-152792734D01*
X223608711Y-152960838D01*
X223837003Y-153104284D01*
X224079921Y-153221267D01*
X224271049Y-153288145D01*
X224334397Y-153310312D01*
X224334405Y-153310315D01*
X224334408Y-153310315D01*
X224334409Y-153310316D01*
X224597268Y-153370312D01*
X224865187Y-153400499D01*
X224865188Y-153400500D01*
X224865191Y-153400500D01*
X225134812Y-153400500D01*
X225134812Y-153400499D01*
X225402732Y-153370312D01*
X225665591Y-153310316D01*
X225920079Y-153221267D01*
X226162997Y-153104284D01*
X226391289Y-152960838D01*
X226602085Y-152792734D01*
X226792734Y-152602085D01*
X226960838Y-152391289D01*
X227104284Y-152162997D01*
X227221267Y-151920079D01*
X227310316Y-151665591D01*
X227370312Y-151402732D01*
X227400500Y-151134809D01*
X227400500Y-150865191D01*
X227370312Y-150597268D01*
X227310316Y-150334409D01*
X227221267Y-150079921D01*
X227104284Y-149837003D01*
X226960838Y-149608711D01*
X226792734Y-149397915D01*
X226602085Y-149207266D01*
X226391289Y-149039162D01*
X226162997Y-148895716D01*
X226162994Y-148895714D01*
X225920082Y-148778734D01*
X225665602Y-148689687D01*
X225665594Y-148689684D01*
X225445423Y-148639432D01*
X225402732Y-148629688D01*
X225402728Y-148629687D01*
X225402719Y-148629686D01*
X225134813Y-148599500D01*
X225134809Y-148599500D01*
X224865191Y-148599500D01*
X224865186Y-148599500D01*
X224597280Y-148629686D01*
X224597268Y-148629688D01*
X224334405Y-148689684D01*
X224334397Y-148689687D01*
X224079917Y-148778734D01*
X223837005Y-148895714D01*
X223608712Y-149039161D01*
X223397915Y-149207265D01*
X223207265Y-149397915D01*
X223039161Y-149608712D01*
X222895714Y-149837005D01*
X222778734Y-150079917D01*
X222689687Y-150334397D01*
X222689684Y-150334405D01*
X222629688Y-150597268D01*
X222629686Y-150597280D01*
X222599500Y-150865186D01*
X219290877Y-150865186D01*
X219296768Y-150850533D01*
X219332975Y-150772889D01*
X219379922Y-150643901D01*
X219381383Y-150640082D01*
X219432590Y-150512729D01*
X219456524Y-150433966D01*
X219458634Y-150427641D01*
X219486799Y-150350261D01*
X219522323Y-150217678D01*
X219523451Y-150213735D01*
X219563360Y-150082409D01*
X219563885Y-150079921D01*
X219580337Y-150001868D01*
X219580338Y-150001866D01*
X219581031Y-149998577D01*
X219603203Y-149915834D01*
X219627392Y-149778651D01*
X219656129Y-149642329D01*
X219666426Y-149557278D01*
X219681302Y-149472916D01*
X219693443Y-149334135D01*
X219710188Y-149195838D01*
X219713033Y-149110216D01*
X219720500Y-149024876D01*
X219720500Y-148885578D01*
X219725128Y-148746335D01*
X219720680Y-148664127D01*
X219720500Y-148657430D01*
X219720500Y-144775123D01*
X219720499Y-144775122D01*
X219681302Y-144327084D01*
X219603203Y-143884166D01*
X219518500Y-143568052D01*
X219486802Y-143449749D01*
X219486800Y-143449745D01*
X219486799Y-143449739D01*
X219332975Y-143027111D01*
X219142902Y-142619498D01*
X219142898Y-142619491D01*
X219016613Y-142400758D01*
X219000000Y-142338758D01*
X219000000Y-86124000D01*
X219019685Y-86056961D01*
X219072489Y-86011206D01*
X219124000Y-86000000D01*
X237876000Y-86000000D01*
X237943039Y-86019685D01*
G37*
%TD.AperFunction*%
%TD*%
%TA.AperFunction,Conductor*%
%TO.N,sw_a*%
G36*
X146924765Y-33909313D02*
G01*
X146978661Y-33953776D01*
X146999964Y-34020319D01*
X147000000Y-34023322D01*
X147000000Y-38365269D01*
X146994661Y-38401264D01*
X146962335Y-38507826D01*
X146931305Y-38610123D01*
X146928910Y-38618017D01*
X146924075Y-38642319D01*
X146907193Y-38684506D01*
X146826127Y-38812402D01*
X146663758Y-39144534D01*
X146663754Y-39144542D01*
X146538909Y-39492515D01*
X146453095Y-39852134D01*
X146407363Y-40219014D01*
X146405095Y-40284864D01*
X146404500Y-40302143D01*
X146404500Y-41122343D01*
X146404501Y-41376000D01*
X146384817Y-41443039D01*
X146332013Y-41488794D01*
X146280501Y-41500000D01*
X145613464Y-41500000D01*
X145546425Y-41480315D01*
X145500670Y-41427511D01*
X145490726Y-41358353D01*
X145497069Y-41335233D01*
X145496812Y-41335155D01*
X145498576Y-41329335D01*
X145498580Y-41329328D01*
X145525500Y-41193993D01*
X145525500Y-38608369D01*
X145529712Y-38576326D01*
X146756212Y-33991277D01*
X146792552Y-33931603D01*
X146855386Y-33901047D01*
X146924765Y-33909313D01*
G37*
%TD.AperFunction*%
%TA.AperFunction,Conductor*%
G36*
X140092993Y-19966133D02*
G01*
X140092985Y-19966148D01*
X139930592Y-20314401D01*
X139799169Y-20675487D01*
X139699717Y-21046648D01*
X139699715Y-21046659D01*
X139632991Y-21425065D01*
X139632991Y-21425067D01*
X139599500Y-21807868D01*
X139599500Y-22192131D01*
X139632991Y-22574932D01*
X139632991Y-22574934D01*
X139699715Y-22953340D01*
X139699717Y-22953351D01*
X139799169Y-23324512D01*
X139930592Y-23685598D01*
X140092985Y-24033851D01*
X140092990Y-24033860D01*
X140285120Y-24366639D01*
X140285124Y-24366645D01*
X140285131Y-24366656D01*
X140505523Y-24681408D01*
X140684053Y-24894171D01*
X140752520Y-24975767D01*
X141024233Y-25247480D01*
X141146625Y-25350179D01*
X141318591Y-25494476D01*
X141633343Y-25714868D01*
X141633350Y-25714872D01*
X141633361Y-25714880D01*
X141945241Y-25894944D01*
X141966133Y-25907006D01*
X141966148Y-25907014D01*
X142314401Y-26069407D01*
X142675487Y-26200830D01*
X142785752Y-26230375D01*
X143046650Y-26300283D01*
X143425072Y-26367009D01*
X143807868Y-26400499D01*
X143807869Y-26400500D01*
X143807870Y-26400500D01*
X144192131Y-26400500D01*
X144192131Y-26400499D01*
X144574928Y-26367009D01*
X144953350Y-26300283D01*
X145324516Y-26200829D01*
X145685603Y-26069405D01*
X146033860Y-25907010D01*
X146366639Y-25714880D01*
X146681407Y-25494477D01*
X146720294Y-25461847D01*
X146748575Y-25449469D01*
X146775962Y-25435188D01*
X146780307Y-25435582D01*
X146784302Y-25433834D01*
X146814784Y-25438711D01*
X146845545Y-25441503D01*
X146850435Y-25444415D01*
X146853294Y-25444873D01*
X146876193Y-25459007D01*
X146877986Y-25460403D01*
X146918593Y-25494477D01*
X146949712Y-25516267D01*
X146952193Y-25518199D01*
X146970824Y-25544103D01*
X146990748Y-25569029D01*
X146991500Y-25572852D01*
X146992989Y-25574922D01*
X146993380Y-25582400D01*
X147000000Y-25616028D01*
X147000000Y-27957980D01*
X146980315Y-28025019D01*
X146963688Y-28045654D01*
X146955890Y-28053452D01*
X146955879Y-28053466D01*
X146932442Y-28088540D01*
X146927752Y-28095088D01*
X146902101Y-28128546D01*
X146902099Y-28128551D01*
X146895563Y-28141816D01*
X146887440Y-28155893D01*
X146879222Y-28168193D01*
X146863085Y-28207151D01*
X146859762Y-28214491D01*
X146841122Y-28252331D01*
X146837301Y-28266614D01*
X146837300Y-28266613D01*
X146835193Y-28274489D01*
X146826420Y-28295672D01*
X146817406Y-28340982D01*
X146816362Y-28344888D01*
X144162301Y-38266610D01*
X144157077Y-38282012D01*
X144151421Y-38295668D01*
X144151419Y-38295674D01*
X144143191Y-38337032D01*
X144141364Y-38344874D01*
X144130465Y-38385620D01*
X144130462Y-38385640D01*
X144129501Y-38400379D01*
X144129502Y-38400380D01*
X144128971Y-38408522D01*
X144124500Y-38431007D01*
X144124500Y-38477205D01*
X144124238Y-38481230D01*
X144124238Y-38481234D01*
X144121497Y-38523322D01*
X144121497Y-38523325D01*
X144123432Y-38537973D01*
X144124500Y-38554212D01*
X144124500Y-39954067D01*
X144104815Y-40021106D01*
X144052011Y-40066861D01*
X143982853Y-40076805D01*
X143926869Y-40053839D01*
X143917885Y-40047209D01*
X143917880Y-40047206D01*
X143789700Y-40002353D01*
X143759270Y-39999500D01*
X143759266Y-39999500D01*
X143350734Y-39999500D01*
X143350730Y-39999500D01*
X143320300Y-40002353D01*
X143320298Y-40002353D01*
X143192119Y-40047206D01*
X143192117Y-40047207D01*
X143082850Y-40127850D01*
X143002207Y-40237117D01*
X143002206Y-40237119D01*
X142957353Y-40365298D01*
X142957353Y-40365300D01*
X142954500Y-40395730D01*
X142954500Y-40676366D01*
X142934815Y-40743405D01*
X142885762Y-40787371D01*
X142284894Y-41086505D01*
X142272400Y-41089442D01*
X142264567Y-41094477D01*
X142229632Y-41099500D01*
X142124500Y-41099500D01*
X142057461Y-41079815D01*
X142011706Y-41027011D01*
X142000500Y-40975500D01*
X142000500Y-40249188D01*
X142020185Y-40182149D01*
X142025697Y-40174262D01*
X142112363Y-40059976D01*
X142112362Y-40059976D01*
X142112364Y-40059975D01*
X142165359Y-39925590D01*
X142175500Y-39841144D01*
X142175500Y-39308856D01*
X142165359Y-39224410D01*
X142112364Y-39090025D01*
X142112363Y-39090024D01*
X142112363Y-39090023D01*
X142025078Y-38974921D01*
X141909976Y-38887636D01*
X141775588Y-38834640D01*
X141732242Y-38829435D01*
X141691144Y-38824500D01*
X141108856Y-38824500D01*
X141070841Y-38829065D01*
X141024411Y-38834640D01*
X140890023Y-38887636D01*
X140774921Y-38974921D01*
X140687636Y-39090023D01*
X140634640Y-39224411D01*
X140629065Y-39270841D01*
X140624500Y-39308856D01*
X140624500Y-39841144D01*
X140628616Y-39875421D01*
X140634640Y-39925588D01*
X140687636Y-40059976D01*
X140774303Y-40174262D01*
X140799127Y-40239574D01*
X140799500Y-40249188D01*
X140799500Y-40875500D01*
X140779815Y-40942539D01*
X140727011Y-40988294D01*
X140675500Y-40999500D01*
X137349500Y-40999500D01*
X137340814Y-40996949D01*
X137331853Y-40998238D01*
X137307812Y-40987259D01*
X137282461Y-40979815D01*
X137276533Y-40972974D01*
X137268297Y-40969213D01*
X137254007Y-40946978D01*
X137236706Y-40927011D01*
X137234418Y-40916496D01*
X137230523Y-40910435D01*
X137225500Y-40875500D01*
X137225500Y-40857594D01*
X137245185Y-40790555D01*
X137250686Y-40782682D01*
X137334361Y-40672342D01*
X137389877Y-40531564D01*
X137400500Y-40443102D01*
X137400500Y-38156898D01*
X137389877Y-38068436D01*
X137334361Y-37927658D01*
X137334360Y-37927657D01*
X137334360Y-37927656D01*
X137242922Y-37807077D01*
X137122343Y-37715639D01*
X136981561Y-37660122D01*
X136935926Y-37654642D01*
X136893102Y-37649500D01*
X136324000Y-37649500D01*
X136256961Y-37629815D01*
X136211206Y-37577011D01*
X136200000Y-37525500D01*
X136200000Y-22335730D01*
X136219685Y-22268691D01*
X136272489Y-22222936D01*
X136311840Y-22212328D01*
X136532613Y-22190584D01*
X136600624Y-22177055D01*
X136881966Y-22121094D01*
X136881977Y-22121091D01*
X136881977Y-22121090D01*
X136881987Y-22121089D01*
X137222867Y-22017684D01*
X137551970Y-21881365D01*
X137866127Y-21713445D01*
X138162312Y-21515541D01*
X138437673Y-21289558D01*
X138689558Y-21037673D01*
X138915541Y-20762312D01*
X139113445Y-20466127D01*
X139281365Y-20151970D01*
X139417684Y-19822867D01*
X139424621Y-19800000D01*
X140188910Y-19800000D01*
X140092993Y-19966133D01*
G37*
%TD.AperFunction*%
%TD*%
%TA.AperFunction,Conductor*%
%TO.N,coil_feed*%
G36*
X223893106Y-60405023D02*
G01*
X223908104Y-60409427D01*
X223923094Y-60419057D01*
X223940175Y-60424067D01*
X223966855Y-60447172D01*
X223968042Y-60448541D01*
X223995518Y-60503402D01*
X223997163Y-60510960D01*
X224000000Y-60537331D01*
X224000000Y-64500000D01*
X236858171Y-64500000D01*
X236893106Y-64505023D01*
X236908104Y-64509427D01*
X236966855Y-64547172D01*
X236966879Y-64547200D01*
X236966882Y-64547202D01*
X236966883Y-64547204D01*
X236968042Y-64548541D01*
X236995518Y-64603402D01*
X236997163Y-64610960D01*
X237000000Y-64637331D01*
X237000000Y-76358170D01*
X236999999Y-76358176D01*
X237000000Y-76358179D01*
X236994975Y-76393114D01*
X236990570Y-76408112D01*
X236952827Y-76466855D01*
X236952792Y-76466885D01*
X236952791Y-76466887D01*
X236952789Y-76466887D01*
X236951458Y-76468042D01*
X236896597Y-76495518D01*
X236889039Y-76497163D01*
X236862668Y-76500000D01*
X224141830Y-76500000D01*
X224141825Y-76499999D01*
X224141823Y-76500000D01*
X224106889Y-76494975D01*
X224091890Y-76490570D01*
X224033144Y-76452827D01*
X224033115Y-76452793D01*
X224033114Y-76452793D01*
X224033113Y-76452791D01*
X224031957Y-76451458D01*
X224004477Y-76396583D01*
X224002832Y-76389021D01*
X224000000Y-76362668D01*
X224000000Y-70365181D01*
X228599500Y-70365181D01*
X228599500Y-70634817D01*
X228629683Y-70902706D01*
X228629688Y-70902733D01*
X228689681Y-71165586D01*
X228689763Y-71165859D01*
X228690146Y-71166914D01*
X228778731Y-71420075D01*
X228778737Y-71420089D01*
X228895713Y-71662992D01*
X228895917Y-71663350D01*
X228896603Y-71664409D01*
X229039162Y-71891289D01*
X229207266Y-72102085D01*
X229397915Y-72292734D01*
X229608711Y-72460838D01*
X229837003Y-72604284D01*
X230079921Y-72721267D01*
X230271049Y-72788145D01*
X230324540Y-72806862D01*
X230330787Y-72809658D01*
X230331645Y-72809814D01*
X230337109Y-72810933D01*
X230569925Y-72864071D01*
X230597268Y-72870312D01*
X230597272Y-72870312D01*
X230597281Y-72870314D01*
X230726150Y-72884833D01*
X230847790Y-72898538D01*
X230855393Y-72900500D01*
X231134812Y-72900500D01*
X231160310Y-72900500D01*
X231165444Y-72897696D01*
X231177914Y-72895642D01*
X231326388Y-72878913D01*
X231402718Y-72870314D01*
X231402721Y-72870313D01*
X231402732Y-72870312D01*
X231665591Y-72810316D01*
X231920079Y-72721267D01*
X232162997Y-72604284D01*
X232391289Y-72460838D01*
X232602085Y-72292734D01*
X232792734Y-72102085D01*
X232960838Y-71891289D01*
X233104284Y-71662997D01*
X233221267Y-71420079D01*
X233310316Y-71165591D01*
X233370312Y-70902732D01*
X233400500Y-70634809D01*
X233400500Y-70365191D01*
X233370312Y-70097268D01*
X233310316Y-69834409D01*
X233309852Y-69833084D01*
X233288145Y-69771049D01*
X233221267Y-69579921D01*
X233104284Y-69337003D01*
X232960838Y-69108711D01*
X232792734Y-68897915D01*
X232602085Y-68707266D01*
X232391289Y-68539162D01*
X232164409Y-68396603D01*
X232163350Y-68395917D01*
X232162992Y-68395713D01*
X231920089Y-68278737D01*
X231920075Y-68278731D01*
X231673237Y-68192358D01*
X231673231Y-68192356D01*
X231665602Y-68189687D01*
X231665594Y-68189684D01*
X231468446Y-68144687D01*
X231468304Y-68144654D01*
X231468164Y-68144622D01*
X231403981Y-68129973D01*
X231402947Y-68129725D01*
X231402737Y-68129688D01*
X231402719Y-68129686D01*
X231402719Y-68129684D01*
X231402638Y-68129670D01*
X231402528Y-68129664D01*
X231134817Y-68099500D01*
X231134813Y-68099500D01*
X231134809Y-68099500D01*
X230865191Y-68099500D01*
X230865186Y-68099500D01*
X230865181Y-68099500D01*
X230597292Y-68129683D01*
X230597265Y-68129688D01*
X230334412Y-68189681D01*
X230334137Y-68189764D01*
X230333084Y-68190146D01*
X230079923Y-68278731D01*
X230079901Y-68278740D01*
X229837010Y-68395710D01*
X229608709Y-68539162D01*
X229608707Y-68539163D01*
X229397921Y-68707258D01*
X229207258Y-68897921D01*
X229039163Y-69108707D01*
X229039162Y-69108709D01*
X228895710Y-69337010D01*
X228778740Y-69579901D01*
X228778731Y-69579923D01*
X228690146Y-69833084D01*
X228689764Y-69834137D01*
X228689681Y-69834412D01*
X228629688Y-70097265D01*
X228629683Y-70097292D01*
X228599500Y-70365181D01*
X224000000Y-70365181D01*
X224000000Y-69400000D01*
X204141830Y-69400000D01*
X204141825Y-69399999D01*
X204141823Y-69400000D01*
X204106889Y-69394975D01*
X204091890Y-69390570D01*
X204033144Y-69352827D01*
X204033115Y-69352793D01*
X204033114Y-69352793D01*
X204033113Y-69352791D01*
X204031957Y-69351458D01*
X204004477Y-69296583D01*
X204002832Y-69289021D01*
X204000000Y-69262668D01*
X204000000Y-60541829D01*
X204005023Y-60506893D01*
X204009427Y-60491895D01*
X204047172Y-60433144D01*
X204047200Y-60433119D01*
X204047199Y-60433119D01*
X204048541Y-60431956D01*
X204103420Y-60404477D01*
X204110979Y-60402833D01*
X204137332Y-60400000D01*
X223858170Y-60400000D01*
X223893106Y-60405023D01*
G37*
%TD.AperFunction*%
%TD*%
%TA.AperFunction,Conductor*%
%TO.N,sw_a*%
G36*
X139626887Y-605023D02*
G01*
X139639604Y-608757D01*
X139651960Y-616697D01*
X139666249Y-620105D01*
X139680761Y-635206D01*
X139698383Y-646531D01*
X139704485Y-659893D01*
X139714662Y-670483D01*
X139718706Y-691033D01*
X139727408Y-710087D01*
X139725556Y-725837D01*
X139728154Y-739038D01*
X139719967Y-773369D01*
X139716721Y-781570D01*
X139703001Y-807055D01*
X139692926Y-821444D01*
X139692917Y-821457D01*
X139692905Y-821477D01*
X139498597Y-1158026D01*
X139498589Y-1158041D01*
X139498585Y-1158048D01*
X139334367Y-1510217D01*
X139201431Y-1875454D01*
X139100862Y-2250790D01*
X139100849Y-2250842D01*
X139033371Y-2633530D01*
X139032899Y-2638929D01*
X139032899Y-2638931D01*
X138999500Y-3020679D01*
X138999500Y-5409319D01*
X139032899Y-5791067D01*
X139032899Y-5791070D01*
X139033371Y-5796468D01*
X139100849Y-6179156D01*
X139100853Y-6179172D01*
X139100855Y-6179182D01*
X139100862Y-6179208D01*
X139201433Y-6554552D01*
X139251671Y-6692581D01*
X139258182Y-6723699D01*
X139258899Y-6727124D01*
X139260137Y-6746597D01*
X139248063Y-6808356D01*
X139244047Y-6816678D01*
X139229018Y-6840473D01*
X139075060Y-7032005D01*
X139074019Y-7033246D01*
X139073424Y-7034038D01*
X138871919Y-7349293D01*
X138871913Y-7349303D01*
X138871912Y-7349304D01*
X138705670Y-7684500D01*
X138705471Y-7684984D01*
X138705027Y-7686254D01*
X138642727Y-7855833D01*
X138576642Y-8035713D01*
X138543134Y-8170454D01*
X138486380Y-8398666D01*
X138486342Y-8398816D01*
X138452444Y-8647615D01*
X138435831Y-8769542D01*
X138429500Y-8925319D01*
X138429500Y-10474680D01*
X138432339Y-10544542D01*
X138435831Y-10630465D01*
X138486342Y-11001181D01*
X138486343Y-11001186D01*
X138546049Y-11241271D01*
X138576642Y-11364286D01*
X138705033Y-11713762D01*
X138705032Y-11713762D01*
X138705669Y-11715497D01*
X138871912Y-12050694D01*
X138871913Y-12050695D01*
X138871919Y-12050705D01*
X139073421Y-12365956D01*
X139073425Y-12365961D01*
X139295924Y-12642760D01*
X139307836Y-12657579D01*
X139307848Y-12657592D01*
X139572405Y-12922150D01*
X139572420Y-12922164D01*
X139572423Y-12922166D01*
X139863919Y-13156478D01*
X139864035Y-13156571D01*
X139864043Y-13156577D01*
X139892562Y-13174806D01*
X140034667Y-13265637D01*
X140034671Y-13265639D01*
X140179302Y-13358085D01*
X140514503Y-13524329D01*
X140865713Y-13653358D01*
X141228814Y-13743657D01*
X141490794Y-13779351D01*
X141599190Y-13794120D01*
X141599522Y-13794166D01*
X141599532Y-13794166D01*
X141599542Y-13794168D01*
X141599544Y-13794168D01*
X141599551Y-13794169D01*
X141599588Y-13794170D01*
X141600626Y-13794241D01*
X141602023Y-13794269D01*
X141755312Y-13800500D01*
X141755320Y-13800500D01*
X142654680Y-13800500D01*
X142654688Y-13800500D01*
X142810449Y-13794169D01*
X142810456Y-13794168D01*
X142810457Y-13794168D01*
X142853710Y-13788274D01*
X143181186Y-13743657D01*
X143544287Y-13653358D01*
X143895497Y-13524329D01*
X144230698Y-13358085D01*
X144545960Y-13156574D01*
X144570960Y-13136476D01*
X144590744Y-13123473D01*
X144611404Y-13112565D01*
X144633301Y-13103561D01*
X144654526Y-13097123D01*
X144664429Y-13094120D01*
X144664430Y-13094119D01*
X144664435Y-13094118D01*
X144991269Y-12958739D01*
X145303259Y-12791976D01*
X145597402Y-12595436D01*
X145870864Y-12371012D01*
X146121012Y-12120864D01*
X146345436Y-11847402D01*
X146541976Y-11553259D01*
X146708739Y-11241269D01*
X146844118Y-10914435D01*
X146946809Y-10575905D01*
X146946811Y-10575895D01*
X146946814Y-10575884D01*
X146981663Y-10400679D01*
X147015825Y-10228940D01*
X147050500Y-9876881D01*
X147050500Y-7889089D01*
X147055522Y-7854156D01*
X147064541Y-7823438D01*
X147081938Y-7787261D01*
X147207090Y-7608530D01*
X147401403Y-7271970D01*
X147401405Y-7271963D01*
X147401456Y-7271876D01*
X147401852Y-7271046D01*
X147402372Y-7269974D01*
X147402861Y-7268844D01*
X147564924Y-6921297D01*
X147566429Y-6918068D01*
X147566429Y-6918067D01*
X147566436Y-6918053D01*
X147567114Y-6916598D01*
X147568409Y-6912154D01*
X147698561Y-6554566D01*
X147799145Y-6179182D01*
X147866629Y-5796460D01*
X147900500Y-5409313D01*
X147900500Y-3020687D01*
X147866629Y-2633540D01*
X147858511Y-2587503D01*
X147847376Y-2524351D01*
X147799145Y-2250818D01*
X147703806Y-1895008D01*
X147698564Y-1875444D01*
X147698562Y-1875440D01*
X147698561Y-1875434D01*
X147698559Y-1875429D01*
X147698545Y-1875376D01*
X147698308Y-1874739D01*
X147565643Y-1510245D01*
X147565638Y-1510234D01*
X147565637Y-1510231D01*
X147565633Y-1510222D01*
X147401413Y-1158048D01*
X147401409Y-1158041D01*
X147401401Y-1158026D01*
X147358023Y-1082893D01*
X147207057Y-821413D01*
X147207015Y-821347D01*
X147206501Y-820628D01*
X147198866Y-809724D01*
X147197516Y-807055D01*
X147182943Y-778225D01*
X147178709Y-765669D01*
X147175940Y-695854D01*
X147211356Y-635625D01*
X147267454Y-605427D01*
X147276041Y-603380D01*
X147304795Y-600000D01*
X152141953Y-600000D01*
X152176887Y-605023D01*
X152189604Y-608757D01*
X152201960Y-616697D01*
X152216249Y-620105D01*
X152230761Y-635206D01*
X152248383Y-646531D01*
X152254485Y-659893D01*
X152264662Y-670483D01*
X152268706Y-691033D01*
X152277408Y-710087D01*
X152275556Y-725837D01*
X152278154Y-739038D01*
X152269967Y-773369D01*
X152266721Y-781570D01*
X152253001Y-807055D01*
X152242926Y-821444D01*
X152242917Y-821457D01*
X152242905Y-821477D01*
X152048597Y-1158026D01*
X152048589Y-1158041D01*
X152048585Y-1158048D01*
X151884365Y-1510222D01*
X151864005Y-1566158D01*
X151864005Y-1566159D01*
X151847336Y-1597269D01*
X151838069Y-1609855D01*
X151782472Y-1652167D01*
X151771564Y-1656334D01*
X151727312Y-1664500D01*
X149255143Y-1664500D01*
X149255127Y-1664501D01*
X149255113Y-1664502D01*
X149237255Y-1666573D01*
X149230012Y-1667413D01*
X149230011Y-1667413D01*
X149230005Y-1667414D01*
X149229559Y-1667547D01*
X149227303Y-1668609D01*
X149127236Y-1712792D01*
X149047793Y-1792234D01*
X149002414Y-1895005D01*
X149001844Y-1897710D01*
X149001589Y-1902124D01*
X148999500Y-1920127D01*
X148999500Y-6509849D01*
X148999502Y-6509885D01*
X149002414Y-6534993D01*
X149002546Y-6535438D01*
X149003609Y-6537696D01*
X149047791Y-6637760D01*
X149047793Y-6637764D01*
X149047794Y-6637765D01*
X149127235Y-6717206D01*
X149230009Y-6762585D01*
X149255135Y-6765500D01*
X149707674Y-6765499D01*
X149742606Y-6770521D01*
X149757603Y-6774925D01*
X149816355Y-6812670D01*
X149817542Y-6814039D01*
X149845019Y-6868903D01*
X149846664Y-6876462D01*
X149849500Y-6902830D01*
X149849500Y-10160790D01*
X149849499Y-10160796D01*
X149849500Y-10160799D01*
X149844475Y-10195734D01*
X149840070Y-10210732D01*
X149802304Y-10269495D01*
X149802292Y-10269505D01*
X149802291Y-10269507D01*
X149802289Y-10269507D01*
X149792632Y-10277877D01*
X149756914Y-10299524D01*
X149652658Y-10340637D01*
X149652657Y-10340638D01*
X149532076Y-10432076D01*
X149440640Y-10552653D01*
X149385121Y-10693441D01*
X149384297Y-10700307D01*
X149384297Y-10700311D01*
X149384297Y-10700312D01*
X149374500Y-10781898D01*
X149374500Y-10781903D01*
X149374500Y-10781904D01*
X149374500Y-11149034D01*
X149374499Y-11149037D01*
X149374500Y-11149039D01*
X149369476Y-11183973D01*
X149363758Y-11203444D01*
X149332330Y-11256319D01*
X149326730Y-11261902D01*
X149305905Y-11278606D01*
X147869692Y-12195475D01*
X147837727Y-12209986D01*
X147805047Y-12219529D01*
X147770289Y-12224500D01*
X147427130Y-12224500D01*
X147427128Y-12224500D01*
X147426423Y-12224550D01*
X147424979Y-12224731D01*
X147367516Y-12230907D01*
X147232666Y-12281204D01*
X147232665Y-12281205D01*
X147117456Y-12367450D01*
X147117450Y-12367456D01*
X147031205Y-12482665D01*
X147031203Y-12482669D01*
X147031201Y-12482672D01*
X146987441Y-12599998D01*
X146987442Y-12599999D01*
X146980909Y-12617516D01*
X146980908Y-12617517D01*
X146974501Y-12677116D01*
X146974500Y-12677135D01*
X146974500Y-13172876D01*
X146974659Y-13174806D01*
X146974885Y-13176454D01*
X146980907Y-13232482D01*
X147008690Y-13306971D01*
X147031202Y-13367328D01*
X147031203Y-13367330D01*
X147031204Y-13367332D01*
X147031205Y-13367333D01*
X147117450Y-13482542D01*
X147117452Y-13482544D01*
X147117455Y-13482547D01*
X147232664Y-13568793D01*
X147232671Y-13568797D01*
X147277618Y-13585561D01*
X147367517Y-13619091D01*
X147427127Y-13625500D01*
X148072872Y-13625499D01*
X148132483Y-13619091D01*
X148267331Y-13568796D01*
X148382546Y-13482546D01*
X148468796Y-13367331D01*
X148519091Y-13232483D01*
X148522084Y-13204642D01*
X148525499Y-13172884D01*
X148525499Y-13172882D01*
X148525500Y-13172873D01*
X148525499Y-13168815D01*
X148530520Y-13133889D01*
X148536237Y-13114417D01*
X148567666Y-13061537D01*
X148573269Y-13055951D01*
X148594089Y-13039250D01*
X150032684Y-12120864D01*
X150175767Y-12029520D01*
X150207729Y-12015012D01*
X150224070Y-12010241D01*
X150240411Y-12005470D01*
X150275165Y-12000500D01*
X151218097Y-12000500D01*
X151218102Y-12000500D01*
X151306564Y-11989877D01*
X151447342Y-11934361D01*
X151567922Y-11842922D01*
X151659361Y-11722342D01*
X151714877Y-11581564D01*
X151725500Y-11493102D01*
X151725500Y-10781898D01*
X151714877Y-10693436D01*
X151659361Y-10552658D01*
X151659360Y-10552657D01*
X151659360Y-10552656D01*
X151655630Y-10547737D01*
X151655318Y-10547140D01*
X151654240Y-10545904D01*
X151567922Y-10432076D01*
X151447344Y-10340640D01*
X151447342Y-10340639D01*
X151447341Y-10340638D01*
X151447339Y-10340637D01*
X151447314Y-10340627D01*
X151345596Y-10300514D01*
X151314944Y-10283029D01*
X151302606Y-10273430D01*
X151261781Y-10216728D01*
X151261778Y-10216718D01*
X151257530Y-10204645D01*
X151250500Y-10163488D01*
X151250500Y-6907328D01*
X151255523Y-6872392D01*
X151259072Y-6860308D01*
X151259927Y-6857393D01*
X151269557Y-6842403D01*
X151274567Y-6825323D01*
X151297672Y-6798643D01*
X151299041Y-6797456D01*
X151353920Y-6769976D01*
X151361479Y-6768332D01*
X151387832Y-6765499D01*
X151723557Y-6765499D01*
X151758493Y-6770522D01*
X151773491Y-6774926D01*
X151788488Y-6784563D01*
X151805591Y-6789585D01*
X151832265Y-6812697D01*
X151839909Y-6821518D01*
X151862719Y-6860308D01*
X151873344Y-6889496D01*
X151873346Y-6889503D01*
X151884357Y-6919757D01*
X151884363Y-6919772D01*
X152048585Y-7271950D01*
X152048589Y-7271957D01*
X152048591Y-7271960D01*
X152048600Y-7271976D01*
X152093248Y-7349308D01*
X152242905Y-7608521D01*
X152242914Y-7608536D01*
X152366850Y-7785534D01*
X152382772Y-7817030D01*
X152392998Y-7847354D01*
X152399500Y-7886977D01*
X152399500Y-9876877D01*
X152420762Y-10092761D01*
X152434172Y-10228922D01*
X152434177Y-10228956D01*
X152434180Y-10228971D01*
X152502749Y-10573698D01*
X152502752Y-10573711D01*
X152503185Y-10575884D01*
X152503188Y-10575895D01*
X152503190Y-10575904D01*
X152503191Y-10575905D01*
X152507164Y-10589003D01*
X152507187Y-10589082D01*
X152605883Y-10914440D01*
X152738588Y-11234819D01*
X152738589Y-11234819D01*
X152740985Y-11240603D01*
X152741220Y-11241181D01*
X152741266Y-11241281D01*
X152807015Y-11364287D01*
X152908017Y-11553247D01*
X152908028Y-11553265D01*
X153104558Y-11847393D01*
X153104564Y-11847402D01*
X153104575Y-11847416D01*
X153104577Y-11847419D01*
X153328996Y-12120874D01*
X153579123Y-12371001D01*
X153579200Y-12371070D01*
X153579733Y-12371502D01*
X153852598Y-12595436D01*
X153942058Y-12655211D01*
X154146742Y-12791977D01*
X154147405Y-12792345D01*
X154148187Y-12792749D01*
X154453427Y-12955904D01*
X154453430Y-12955906D01*
X154456550Y-12957574D01*
X154457403Y-12958029D01*
X154458723Y-12958735D01*
X154462197Y-12960592D01*
X154467171Y-12962235D01*
X154785565Y-13094118D01*
X154785567Y-13094118D01*
X154785568Y-13094119D01*
X154792748Y-13096296D01*
X154832759Y-13108433D01*
X154854656Y-13117439D01*
X154866077Y-13123469D01*
X154875315Y-13128347D01*
X154895098Y-13141349D01*
X154907096Y-13150993D01*
X154914033Y-13156569D01*
X154914043Y-13156577D01*
X154914048Y-13156580D01*
X154914051Y-13156583D01*
X155084667Y-13265637D01*
X155084671Y-13265639D01*
X155229302Y-13358085D01*
X155564503Y-13524329D01*
X155915713Y-13653358D01*
X156278814Y-13743657D01*
X156540794Y-13779351D01*
X156649190Y-13794120D01*
X156649522Y-13794166D01*
X156649532Y-13794166D01*
X156649542Y-13794168D01*
X156649544Y-13794168D01*
X156649551Y-13794169D01*
X156649588Y-13794170D01*
X156650626Y-13794241D01*
X156652023Y-13794269D01*
X156805312Y-13800500D01*
X156805320Y-13800500D01*
X157704680Y-13800500D01*
X157704688Y-13800500D01*
X157860449Y-13794169D01*
X157860456Y-13794168D01*
X157860457Y-13794168D01*
X157903710Y-13788274D01*
X158231186Y-13743657D01*
X158594287Y-13653358D01*
X158945497Y-13524329D01*
X159280698Y-13358085D01*
X159528803Y-13199500D01*
X159595956Y-13156577D01*
X159595964Y-13156571D01*
X159657617Y-13107013D01*
X159887586Y-12922158D01*
X160152158Y-12657586D01*
X160382119Y-12371502D01*
X160386571Y-12365964D01*
X160386577Y-12365956D01*
X160472898Y-12230907D01*
X160588085Y-12050698D01*
X160754329Y-11715497D01*
X160883358Y-11364287D01*
X160973657Y-11001186D01*
X161024169Y-10630449D01*
X161030500Y-10474688D01*
X161030500Y-8925312D01*
X161024169Y-8769551D01*
X161024166Y-8769532D01*
X161009351Y-8660794D01*
X160973657Y-8398814D01*
X160883358Y-8035713D01*
X160754329Y-7684503D01*
X160716649Y-7608528D01*
X160588088Y-7349307D01*
X160588082Y-7349298D01*
X160386577Y-7034043D01*
X160386571Y-7034035D01*
X160226389Y-6834761D01*
X160226387Y-6834760D01*
X160208416Y-6804384D01*
X160200972Y-6786349D01*
X160192507Y-6723999D01*
X160193627Y-6714833D01*
X160200190Y-6687462D01*
X160248561Y-6554566D01*
X160349145Y-6179182D01*
X160416629Y-5796460D01*
X160450500Y-5409313D01*
X160450500Y-3020687D01*
X160416629Y-2633540D01*
X160408511Y-2587503D01*
X160397376Y-2524351D01*
X160349145Y-2250818D01*
X160253806Y-1895008D01*
X160248564Y-1875444D01*
X160248562Y-1875440D01*
X160248561Y-1875434D01*
X160248559Y-1875429D01*
X160248545Y-1875376D01*
X160248308Y-1874739D01*
X160115643Y-1510245D01*
X160115638Y-1510234D01*
X160115637Y-1510231D01*
X160115633Y-1510222D01*
X159951413Y-1158048D01*
X159951409Y-1158041D01*
X159951401Y-1158026D01*
X159908023Y-1082893D01*
X159757057Y-821413D01*
X159757015Y-821347D01*
X159756501Y-820628D01*
X159748866Y-809724D01*
X159747516Y-807055D01*
X159732943Y-778225D01*
X159728709Y-765669D01*
X159725940Y-695854D01*
X159761356Y-635625D01*
X159817454Y-605427D01*
X159826041Y-603380D01*
X159854795Y-600000D01*
X165358170Y-600000D01*
X165393106Y-605023D01*
X165408104Y-609427D01*
X165423094Y-619057D01*
X165440175Y-624067D01*
X165466855Y-647172D01*
X165468042Y-648541D01*
X165495518Y-703402D01*
X165497163Y-710960D01*
X165500000Y-737331D01*
X165500000Y-14000000D01*
X163000000Y-14000000D01*
X163000000Y-17899435D01*
X162914405Y-17930589D01*
X162566148Y-18092984D01*
X162566136Y-18092990D01*
X162233359Y-18285120D01*
X162233349Y-18285126D01*
X161918584Y-18505527D01*
X161624227Y-18752524D01*
X161352524Y-19024227D01*
X161105527Y-19318584D01*
X160885127Y-19633347D01*
X160870791Y-19658179D01*
X160860502Y-19676000D01*
X160860501Y-19676002D01*
X160860500Y-19676001D01*
X160833621Y-19722557D01*
X160833621Y-19722559D01*
X160811804Y-19750302D01*
X160798187Y-19763286D01*
X160741855Y-19794047D01*
X160731733Y-19796503D01*
X160702494Y-19800000D01*
X156342330Y-19800000D01*
X156307389Y-19794975D01*
X156292390Y-19790570D01*
X156277402Y-19780940D01*
X156260324Y-19775932D01*
X156233644Y-19752827D01*
X156232457Y-19751458D01*
X156204977Y-19696583D01*
X156203332Y-19689021D01*
X156200500Y-19662668D01*
X156200500Y-17058998D01*
X156201764Y-17041338D01*
X156203186Y-17031456D01*
X156200677Y-16984578D01*
X156200500Y-16977952D01*
X156200500Y-16931008D01*
X156200500Y-16931007D01*
X156196819Y-16912501D01*
X156195811Y-16893668D01*
X156183386Y-16844972D01*
X156173580Y-16795672D01*
X156166360Y-16778243D01*
X156161697Y-16759964D01*
X156140008Y-16714623D01*
X156120775Y-16668189D01*
X156120773Y-16668185D01*
X156120771Y-16668181D01*
X156117692Y-16663574D01*
X156113039Y-16656043D01*
X156109357Y-16649578D01*
X156104427Y-16638523D01*
X156075014Y-16599225D01*
X156073065Y-16596548D01*
X156071158Y-16593853D01*
X156069278Y-16591119D01*
X156044112Y-16553455D01*
X156040175Y-16549518D01*
X156034148Y-16543044D01*
X156028356Y-16536359D01*
X156022803Y-16529468D01*
X156019470Y-16525015D01*
X156019468Y-16525013D01*
X156019466Y-16525011D01*
X156019467Y-16525011D01*
X155984538Y-16493631D01*
X155984589Y-16493573D01*
X155979719Y-16489063D01*
X155946545Y-16455888D01*
X155946541Y-16455885D01*
X155938244Y-16450341D01*
X155925155Y-16440178D01*
X155925145Y-16440191D01*
X155925113Y-16440164D01*
X155924910Y-16439987D01*
X155924312Y-16439523D01*
X155922254Y-16437676D01*
X155922252Y-16437673D01*
X155922207Y-16437634D01*
X155916824Y-16432797D01*
X155876452Y-16408839D01*
X155870846Y-16405306D01*
X155831812Y-16379225D01*
X155822582Y-16375402D01*
X155806753Y-16367478D01*
X155461042Y-16162321D01*
X154656202Y-15684701D01*
X151801548Y-13990651D01*
X151774073Y-13968507D01*
X151760976Y-13954438D01*
X151731062Y-13898461D01*
X151728820Y-13888971D01*
X151725500Y-13860469D01*
X151725500Y-13706903D01*
X151725500Y-13706902D01*
X151725500Y-13706898D01*
X151714877Y-13618436D01*
X151659361Y-13477658D01*
X151659360Y-13477657D01*
X151659360Y-13477656D01*
X151655630Y-13472737D01*
X151655318Y-13472140D01*
X151654240Y-13470904D01*
X151567922Y-13357076D01*
X151447345Y-13265640D01*
X151447343Y-13265639D01*
X151363262Y-13232482D01*
X151306559Y-13210121D01*
X151267152Y-13205389D01*
X151260926Y-13204642D01*
X151260925Y-13204641D01*
X151233143Y-13201306D01*
X151218102Y-13199500D01*
X151218098Y-13199500D01*
X149881901Y-13199500D01*
X149881898Y-13199500D01*
X149871560Y-13200741D01*
X149842853Y-13204187D01*
X149842853Y-13204188D01*
X149836920Y-13204900D01*
X149793439Y-13210121D01*
X149652653Y-13265640D01*
X149532076Y-13357076D01*
X149440640Y-13477653D01*
X149438710Y-13482547D01*
X149385122Y-13618438D01*
X149380929Y-13653357D01*
X149374500Y-13706898D01*
X149374500Y-14418102D01*
X149380126Y-14464954D01*
X149385122Y-14506561D01*
X149440639Y-14647343D01*
X149440640Y-14647345D01*
X149532076Y-14767922D01*
X149645904Y-14854240D01*
X149652656Y-14859360D01*
X149652657Y-14859360D01*
X149652876Y-14859526D01*
X149655596Y-14860519D01*
X149793436Y-14914877D01*
X149881898Y-14925500D01*
X150580901Y-14925500D01*
X150613708Y-14929919D01*
X150644774Y-14938442D01*
X150675248Y-14951385D01*
X154723453Y-17353729D01*
X154750931Y-17375877D01*
X154764021Y-17389939D01*
X154793934Y-17445908D01*
X154796176Y-17455396D01*
X154799500Y-17483910D01*
X154799500Y-19658170D01*
X154799499Y-19658176D01*
X154799500Y-19658179D01*
X154794475Y-19693114D01*
X154790070Y-19708112D01*
X154752327Y-19766855D01*
X154752292Y-19766885D01*
X154752291Y-19766887D01*
X154752289Y-19766887D01*
X154750958Y-19768042D01*
X154696097Y-19795518D01*
X154688539Y-19797163D01*
X154662168Y-19800000D01*
X153500510Y-19800000D01*
X153500507Y-19799999D01*
X153500506Y-19800000D01*
X153465572Y-19794976D01*
X153447517Y-19789674D01*
X153392715Y-19756271D01*
X153385526Y-19748732D01*
X153367879Y-19725159D01*
X153331794Y-19662658D01*
X153314880Y-19633361D01*
X153314879Y-19633359D01*
X153314751Y-19633163D01*
X153314267Y-19632485D01*
X153094475Y-19318589D01*
X152950179Y-19146625D01*
X152950177Y-19146622D01*
X152847477Y-19024230D01*
X152575769Y-18752522D01*
X152353695Y-18566179D01*
X152353689Y-18566174D01*
X152353679Y-18566166D01*
X152281408Y-18505523D01*
X151966656Y-18285131D01*
X151966645Y-18285124D01*
X151966639Y-18285120D01*
X151867770Y-18228038D01*
X151867618Y-18227950D01*
X151633862Y-18092990D01*
X151633850Y-18092984D01*
X151285593Y-17930589D01*
X150924505Y-17799166D01*
X150615348Y-17716329D01*
X150553351Y-17699717D01*
X150553348Y-17699716D01*
X150553347Y-17699716D01*
X150553257Y-17699700D01*
X150174935Y-17632991D01*
X149792134Y-17599500D01*
X149792131Y-17599500D01*
X149792130Y-17599500D01*
X149407870Y-17599500D01*
X149407869Y-17599500D01*
X149407865Y-17599500D01*
X149030462Y-17632519D01*
X149030460Y-17632519D01*
X149025064Y-17632991D01*
X148646741Y-17699700D01*
X148646651Y-17699716D01*
X148646648Y-17699717D01*
X148275493Y-17799166D01*
X147914405Y-17930589D01*
X147566148Y-18092984D01*
X147566136Y-18092990D01*
X147233359Y-18285120D01*
X147233349Y-18285126D01*
X146918590Y-18505523D01*
X146918582Y-18505529D01*
X146893361Y-18526693D01*
X146863372Y-18545301D01*
X146849055Y-18551567D01*
X146779747Y-18560412D01*
X146779745Y-18560412D01*
X146779744Y-18560412D01*
X146772914Y-18559319D01*
X146712801Y-18531865D01*
X146681414Y-18505527D01*
X146368193Y-18286207D01*
X146368191Y-18286205D01*
X146366656Y-18285131D01*
X146366645Y-18285124D01*
X146366639Y-18285120D01*
X146267770Y-18228038D01*
X146267618Y-18227950D01*
X146033862Y-18092990D01*
X146033850Y-18092984D01*
X145685593Y-17930589D01*
X145324505Y-17799166D01*
X145015348Y-17716329D01*
X144953351Y-17699717D01*
X144953348Y-17699716D01*
X144953347Y-17699716D01*
X144953257Y-17699700D01*
X144574935Y-17632991D01*
X144192134Y-17599500D01*
X144192131Y-17599500D01*
X144192130Y-17599500D01*
X143807870Y-17599500D01*
X143807869Y-17599500D01*
X143807865Y-17599500D01*
X143430462Y-17632519D01*
X143430460Y-17632519D01*
X143425064Y-17632991D01*
X143046741Y-17699700D01*
X143046651Y-17699716D01*
X143046648Y-17699717D01*
X142675493Y-17799166D01*
X142314405Y-17930589D01*
X141966148Y-18092984D01*
X141966136Y-18092990D01*
X141633359Y-18285120D01*
X141633349Y-18285126D01*
X141318584Y-18505527D01*
X141024227Y-18752524D01*
X140752524Y-19024227D01*
X140505527Y-19318584D01*
X140285126Y-19633349D01*
X140285120Y-19633359D01*
X140224706Y-19738000D01*
X140174139Y-19786216D01*
X140117319Y-19800000D01*
X139591816Y-19800000D01*
X139565979Y-19792413D01*
X139539358Y-19788357D01*
X139532959Y-19782717D01*
X139524777Y-19780315D01*
X139507146Y-19759968D01*
X139486940Y-19742160D01*
X139484605Y-19733954D01*
X139479022Y-19727511D01*
X139475190Y-19700861D01*
X139467820Y-19674957D01*
X139469697Y-19662658D01*
X139469078Y-19658353D01*
X139473137Y-19640066D01*
X139473486Y-19638912D01*
X139521089Y-19481987D01*
X139521091Y-19481977D01*
X139521094Y-19481966D01*
X139556185Y-19305544D01*
X139590584Y-19132613D01*
X139625500Y-18778109D01*
X139625500Y-18421891D01*
X139590584Y-18067387D01*
X139563374Y-17930592D01*
X139521458Y-17719861D01*
X139521224Y-17718585D01*
X139521096Y-17718042D01*
X139521095Y-17718039D01*
X139521094Y-17718033D01*
X139521091Y-17718022D01*
X139521090Y-17718019D01*
X139521089Y-17718013D01*
X139417684Y-17377133D01*
X139281365Y-17048030D01*
X139213576Y-16921206D01*
X139114233Y-16735347D01*
X139113819Y-16734547D01*
X139113446Y-16733874D01*
X138973891Y-16525015D01*
X138915541Y-16437688D01*
X138690047Y-16162922D01*
X138689549Y-16162316D01*
X138437683Y-15910450D01*
X138383645Y-15866102D01*
X138163622Y-15685534D01*
X138162635Y-15684701D01*
X138162318Y-15684463D01*
X138162313Y-15684460D01*
X137866133Y-15486559D01*
X137866132Y-15486558D01*
X137866127Y-15486555D01*
X137866122Y-15486552D01*
X137866115Y-15486548D01*
X137827494Y-15465905D01*
X137802673Y-15448425D01*
X137780686Y-15428497D01*
X137760858Y-15405510D01*
X137717201Y-15340173D01*
X137716392Y-15338896D01*
X137715437Y-15337541D01*
X137714718Y-15336684D01*
X137489548Y-15062315D01*
X137237683Y-14810450D01*
X137234867Y-14808139D01*
X137228493Y-14802908D01*
X137214890Y-14789895D01*
X137202414Y-14775998D01*
X137190941Y-14761079D01*
X137024346Y-14506559D01*
X136655513Y-13943062D01*
X136640583Y-13911080D01*
X136630819Y-13878827D01*
X136625500Y-13842899D01*
X136625500Y-13625316D01*
X136625247Y-13619091D01*
X136625247Y-13619089D01*
X136619169Y-13469551D01*
X136568657Y-13098814D01*
X136478358Y-12735713D01*
X136450355Y-12659492D01*
X136449445Y-12655211D01*
X136443023Y-12624974D01*
X136441137Y-12596635D01*
X136448470Y-12545639D01*
X136471605Y-12482669D01*
X136478357Y-12464289D01*
X136478358Y-12464287D01*
X136568657Y-12101186D01*
X136619169Y-11730449D01*
X136625500Y-11574688D01*
X136625500Y-10700312D01*
X136619169Y-10544551D01*
X136568657Y-10173814D01*
X136478358Y-9810713D01*
X136349329Y-9459503D01*
X136339892Y-9440476D01*
X136219280Y-9197282D01*
X136209641Y-9170483D01*
X136203271Y-9143300D01*
X136200000Y-9115009D01*
X136200000Y-8647615D01*
X136205023Y-8612681D01*
X136212820Y-8586126D01*
X136239337Y-8538434D01*
X136306194Y-8463623D01*
X136514211Y-8170452D01*
X136688094Y-7855833D01*
X136825659Y-7523724D01*
X136925173Y-7178300D01*
X136985387Y-6823907D01*
X137000500Y-6554798D01*
X137000500Y-1875202D01*
X136985387Y-1606093D01*
X136925173Y-1251700D01*
X136825659Y-906276D01*
X136776635Y-787923D01*
X136767907Y-753730D01*
X136767548Y-750399D01*
X136766423Y-739930D01*
X136778826Y-671172D01*
X136826431Y-620035D01*
X136830971Y-617341D01*
X136894218Y-600000D01*
X139591953Y-600000D01*
X139626887Y-605023D01*
G37*
%TD.AperFunction*%
%TD*%
%TA.AperFunction,Conductor*%
%TO.N,sw_a*%
G36*
X169773766Y-14019685D02*
G01*
X169819521Y-14072489D01*
X169828842Y-14102464D01*
X169845040Y-14194327D01*
X169854269Y-14246669D01*
X169854273Y-14246686D01*
X169958241Y-14634704D01*
X169958244Y-14634714D01*
X169958245Y-14634715D01*
X170095643Y-15012212D01*
X170095646Y-15012219D01*
X170095647Y-15012221D01*
X170265414Y-15376289D01*
X170265422Y-15376304D01*
X170466276Y-15724193D01*
X170466285Y-15724208D01*
X170696705Y-16053281D01*
X170954926Y-16361016D01*
X170963681Y-16369771D01*
X170997166Y-16431094D01*
X171000000Y-16457452D01*
X171000000Y-18200000D01*
X203876000Y-18200000D01*
X203943039Y-18219685D01*
X203988794Y-18272489D01*
X204000000Y-18324000D01*
X204000000Y-57876000D01*
X203980315Y-57943039D01*
X203927511Y-57988794D01*
X203876000Y-58000000D01*
X199124000Y-58000000D01*
X199056961Y-57980315D01*
X199011206Y-57927511D01*
X199000000Y-57876000D01*
X199000000Y-52271300D01*
X199007478Y-52228890D01*
X199041755Y-52134715D01*
X199145729Y-51746679D01*
X199215488Y-51351058D01*
X199250500Y-50950862D01*
X199250500Y-50549138D01*
X199215488Y-50148942D01*
X199145729Y-49753321D01*
X199041755Y-49365285D01*
X199007478Y-49271109D01*
X199000000Y-49228699D01*
X199000000Y-23200000D01*
X168995793Y-23200000D01*
X168928754Y-23180315D01*
X168882999Y-23127511D01*
X168873055Y-23058353D01*
X168876016Y-23043913D01*
X168900283Y-22953350D01*
X168967009Y-22574928D01*
X169000500Y-22192130D01*
X169000500Y-21807870D01*
X168967009Y-21425072D01*
X168900283Y-21046650D01*
X168800829Y-20675484D01*
X168781840Y-20623312D01*
X168669407Y-20314401D01*
X168507014Y-19966148D01*
X168507006Y-19966133D01*
X168494944Y-19945241D01*
X168314880Y-19633361D01*
X168314872Y-19633350D01*
X168314868Y-19633343D01*
X168094476Y-19318591D01*
X167847477Y-19024230D01*
X167575769Y-18752522D01*
X167281408Y-18505523D01*
X166966656Y-18285131D01*
X166966645Y-18285124D01*
X166966639Y-18285120D01*
X166819207Y-18200000D01*
X166633866Y-18092993D01*
X166633851Y-18092985D01*
X166285598Y-17930592D01*
X165924512Y-17799169D01*
X165553351Y-17699717D01*
X165553340Y-17699715D01*
X165174933Y-17632991D01*
X164792131Y-17599500D01*
X164792130Y-17599500D01*
X164407870Y-17599500D01*
X164407869Y-17599500D01*
X164025067Y-17632991D01*
X164025065Y-17632991D01*
X163646659Y-17699715D01*
X163646648Y-17699717D01*
X163275487Y-17799169D01*
X163000000Y-17899437D01*
X163000000Y-14000000D01*
X165500000Y-14000000D01*
X169706727Y-14000000D01*
X169773766Y-14019685D01*
G37*
%TD.AperFunction*%
%TD*%
%TA.AperFunction,Conductor*%
%TO.N,rect_p*%
G36*
X19443039Y-1019685D02*
G01*
X19488794Y-1072489D01*
X19500000Y-1124000D01*
X19500000Y-5562999D01*
X19480614Y-5629572D01*
X19175626Y-6108839D01*
X19175625Y-6108838D01*
X19174129Y-6111188D01*
X19109765Y-6203112D01*
X19052336Y-6302580D01*
X19050885Y-6304861D01*
X18990642Y-6399528D01*
X18990633Y-6399544D01*
X18940094Y-6496745D01*
X18938818Y-6499199D01*
X18882706Y-6596389D01*
X18834172Y-6700469D01*
X18832926Y-6702866D01*
X18832918Y-6702884D01*
X18781151Y-6802452D01*
X18781139Y-6802477D01*
X18739278Y-6903679D01*
X18739279Y-6903680D01*
X18738225Y-6906227D01*
X18690788Y-7007959D01*
X18651501Y-7115896D01*
X18650466Y-7118399D01*
X18607583Y-7222077D01*
X18607577Y-7222094D01*
X18574694Y-7326566D01*
X18572937Y-7331746D01*
X18535477Y-7434669D01*
X18535465Y-7434706D01*
X18506419Y-7543096D01*
X18506420Y-7543097D01*
X18505722Y-7545700D01*
X18471241Y-7655257D01*
X18446999Y-7764861D01*
X18446287Y-7767520D01*
X18417939Y-7873320D01*
X18417936Y-7873332D01*
X18417936Y-7873334D01*
X18397984Y-7986486D01*
X18373175Y-8098660D01*
X18358579Y-8209948D01*
X18358101Y-8212664D01*
X18339081Y-8320534D01*
X18339078Y-8320556D01*
X18329296Y-8432361D01*
X18329064Y-8435018D01*
X18314127Y-8548922D01*
X18309286Y-8661064D01*
X18309046Y-8663815D01*
X18299500Y-8772934D01*
X18299500Y-8772941D01*
X18299500Y-8887849D01*
X18294547Y-9002617D01*
X18299500Y-9114767D01*
X18299500Y-22076000D01*
X18279815Y-22143039D01*
X18227011Y-22188794D01*
X18175500Y-22200000D01*
X7624000Y-22200000D01*
X7556961Y-22180315D01*
X7511206Y-22127511D01*
X7500000Y-22076000D01*
X7500000Y-17365186D01*
X10599500Y-17365186D01*
X10599500Y-17634813D01*
X10629686Y-17902719D01*
X10629688Y-17902731D01*
X10689684Y-18165594D01*
X10689687Y-18165602D01*
X10778734Y-18420082D01*
X10895714Y-18662994D01*
X10895716Y-18662997D01*
X11039162Y-18891289D01*
X11207266Y-19102085D01*
X11397915Y-19292734D01*
X11608711Y-19460838D01*
X11837003Y-19604284D01*
X12079921Y-19721267D01*
X12271049Y-19788145D01*
X12334397Y-19810312D01*
X12334405Y-19810315D01*
X12334408Y-19810315D01*
X12334409Y-19810316D01*
X12597268Y-19870312D01*
X12865187Y-19900499D01*
X12865188Y-19900500D01*
X12865191Y-19900500D01*
X13134812Y-19900500D01*
X13134812Y-19900499D01*
X13402732Y-19870312D01*
X13665591Y-19810316D01*
X13920079Y-19721267D01*
X14162997Y-19604284D01*
X14391289Y-19460838D01*
X14602085Y-19292734D01*
X14792734Y-19102085D01*
X14960838Y-18891289D01*
X15104284Y-18662997D01*
X15221267Y-18420079D01*
X15310316Y-18165591D01*
X15370312Y-17902732D01*
X15400500Y-17634809D01*
X15400500Y-17365191D01*
X15370312Y-17097268D01*
X15310316Y-16834409D01*
X15221267Y-16579921D01*
X15104284Y-16337003D01*
X14960838Y-16108711D01*
X14792734Y-15897915D01*
X14602085Y-15707266D01*
X14391289Y-15539162D01*
X14162997Y-15395716D01*
X14162994Y-15395714D01*
X13920082Y-15278734D01*
X13665602Y-15189687D01*
X13665594Y-15189684D01*
X13468446Y-15144687D01*
X13402732Y-15129688D01*
X13402728Y-15129687D01*
X13402719Y-15129686D01*
X13134813Y-15099500D01*
X13134809Y-15099500D01*
X12865191Y-15099500D01*
X12865186Y-15099500D01*
X12597280Y-15129686D01*
X12597268Y-15129688D01*
X12334405Y-15189684D01*
X12334397Y-15189687D01*
X12079917Y-15278734D01*
X11837005Y-15395714D01*
X11608712Y-15539161D01*
X11397915Y-15707265D01*
X11207265Y-15897915D01*
X11039161Y-16108712D01*
X10895714Y-16337005D01*
X10778734Y-16579917D01*
X10689687Y-16834397D01*
X10689684Y-16834405D01*
X10629688Y-17097268D01*
X10629686Y-17097280D01*
X10599500Y-17365186D01*
X7500000Y-17365186D01*
X7500000Y-1124000D01*
X7519685Y-1056961D01*
X7572489Y-1011206D01*
X7624000Y-1000000D01*
X19376000Y-1000000D01*
X19443039Y-1019685D01*
G37*
%TD.AperFunction*%
%TD*%
%TA.AperFunction,Conductor*%
%TO.N,rect_n*%
G36*
X44443039Y-1019685D02*
G01*
X44488794Y-1072489D01*
X44500000Y-1123999D01*
X44500000Y-11000000D01*
X52376000Y-11000000D01*
X52443039Y-11019685D01*
X52488794Y-11072489D01*
X52500000Y-11124000D01*
X52500000Y-22076000D01*
X52480315Y-22143039D01*
X52427511Y-22188794D01*
X52376000Y-22200000D01*
X41124000Y-22200000D01*
X41056961Y-22180315D01*
X41011206Y-22127511D01*
X41000000Y-22076000D01*
X41000000Y-17365186D01*
X44599500Y-17365186D01*
X44599500Y-17634813D01*
X44629686Y-17902719D01*
X44629688Y-17902731D01*
X44689684Y-18165594D01*
X44689687Y-18165602D01*
X44778734Y-18420082D01*
X44895714Y-18662994D01*
X44895716Y-18662997D01*
X45039162Y-18891289D01*
X45207266Y-19102085D01*
X45397915Y-19292734D01*
X45608711Y-19460838D01*
X45837003Y-19604284D01*
X46079921Y-19721267D01*
X46271049Y-19788145D01*
X46334397Y-19810312D01*
X46334405Y-19810315D01*
X46334408Y-19810315D01*
X46334409Y-19810316D01*
X46597268Y-19870312D01*
X46865187Y-19900499D01*
X46865188Y-19900500D01*
X46865191Y-19900500D01*
X47134812Y-19900500D01*
X47134812Y-19900499D01*
X47402732Y-19870312D01*
X47665591Y-19810316D01*
X47920079Y-19721267D01*
X48162997Y-19604284D01*
X48391289Y-19460838D01*
X48602085Y-19292734D01*
X48792734Y-19102085D01*
X48960838Y-18891289D01*
X49104284Y-18662997D01*
X49221267Y-18420079D01*
X49310316Y-18165591D01*
X49370312Y-17902732D01*
X49400500Y-17634809D01*
X49400500Y-17365191D01*
X49370312Y-17097268D01*
X49310316Y-16834409D01*
X49221267Y-16579921D01*
X49104284Y-16337003D01*
X48960838Y-16108711D01*
X48792734Y-15897915D01*
X48602085Y-15707266D01*
X48391289Y-15539162D01*
X48162997Y-15395716D01*
X48162994Y-15395714D01*
X47920082Y-15278734D01*
X47665602Y-15189687D01*
X47665594Y-15189684D01*
X47468446Y-15144687D01*
X47402732Y-15129688D01*
X47402728Y-15129687D01*
X47402719Y-15129686D01*
X47134813Y-15099500D01*
X47134809Y-15099500D01*
X46865191Y-15099500D01*
X46865186Y-15099500D01*
X46597280Y-15129686D01*
X46597268Y-15129688D01*
X46334405Y-15189684D01*
X46334397Y-15189687D01*
X46079917Y-15278734D01*
X45837005Y-15395714D01*
X45608712Y-15539161D01*
X45397915Y-15707265D01*
X45207265Y-15897915D01*
X45039161Y-16108712D01*
X44895714Y-16337005D01*
X44778734Y-16579917D01*
X44689687Y-16834397D01*
X44689684Y-16834405D01*
X44629688Y-17097268D01*
X44629686Y-17097280D01*
X44599500Y-17365186D01*
X41000000Y-17365186D01*
X41000000Y-8000000D01*
X38624000Y-8000000D01*
X38556961Y-7980315D01*
X38511206Y-7927511D01*
X38500000Y-7876000D01*
X38500000Y-6853737D01*
X38511618Y-6801332D01*
X38560487Y-6696532D01*
X38609212Y-6592041D01*
X38764530Y-6165310D01*
X38882064Y-5726666D01*
X38960921Y-5279448D01*
X39000500Y-4827059D01*
X39000500Y-4372941D01*
X38960921Y-3920552D01*
X38882064Y-3473334D01*
X38764530Y-3034690D01*
X38609212Y-2607959D01*
X38511618Y-2398667D01*
X38500000Y-2346262D01*
X38500000Y-1124000D01*
X38519685Y-1056961D01*
X38572489Y-1011206D01*
X38624000Y-1000000D01*
X44376000Y-1000000D01*
X44443039Y-1019685D01*
G37*
%TD.AperFunction*%
%TD*%
M02*
