<svg xmlns="http://www.w3.org/2000/svg" viewBox="0 0 800 600">
<rect x="220.0" y="30.0" width="360.0" height="540.0" fill="#eee" stroke="#333" stroke-width="2"/>
<rect x="220.0" y="426.0" width="360.0" height="144.0" fill="#ffcccc" fill-opacity="0.3" stroke="none"/>
<text x="225.0" y="441.0" font-family="sans-serif" font-size="12" fill="#666">power_zone</text>
<rect x="220.0" y="282.0" width="360.0" height="144.0" fill="#ccffcc" fill-opacity="0.3" stroke="none"/>
<text x="225.0" y="297.0" font-family="sans-serif" font-size="12" fill="#666">driver_zone</text>
<rect x="220.0" y="30.0" width="360.0" height="252.0" fill="#ccccff" fill-opacity="0.3" stroke="none"/>
<text x="225.0" y="45.0" font-family="sans-serif" font-size="12" fill="#666">control_zone</text>
<rect x="220.0" y="501.6" width="54.0" height="68.4" fill="#ffffcc" fill-opacity="0.3" stroke="none"/>
<text x="225.0" y="516.6" font-family="sans-serif" font-size="12" fill="#666">interface_zone</text>
<g transform="rotate(0.0, 256.0, 534.0)"><rect x="249.7" y="491.7" width="12.6" height="84.60000000000001" fill="#6699ff" stroke="#003366" stroke-width="1"/><text x="256.0" y="534.0" font-family="sans-serif" font-size="10" text-anchor="middle" dominant-baseline="middle" fill="white">J_AC_IN</text></g>
<g transform="rotate(0.0, 328.0, 138.0)"><rect x="296.068" y="133.5" width="63.86400000000001" height="9.0" fill="#6699ff" stroke="#003366" stroke-width="1"/><text x="328.0" y="138.0" font-family="sans-serif" font-size="10" text-anchor="middle" dominant-baseline="middle" fill="white">D1</text></g>
<g transform="rotate(0.0, 328.0, 192.0)"><rect x="296.068" y="187.5" width="63.86400000000001" height="9.0" fill="#6699ff" stroke="#003366" stroke-width="1"/><text x="328.0" y="192.0" font-family="sans-serif" font-size="10" text-anchor="middle" dominant-baseline="middle" fill="white">D2</text></g>
<g transform="rotate(0.0, 310.0, 246.0)"><rect x="291.1" y="240.6" width="37.800000000000004" height="10.8" fill="#6699ff" stroke="#003366" stroke-width="1"/><text x="310.0" y="246.0" font-family="sans-serif" font-size="10" text-anchor="middle" dominant-baseline="middle" fill="white">C_BUS1</text></g>
<g transform="rotate(0.0, 382.0, 246.0)"><rect x="363.1" y="240.6" width="37.800000000000004" height="10.8" fill="#6699ff" stroke="#003366" stroke-width="1"/><text x="382.0" y="246.0" font-family="sans-serif" font-size="10" text-anchor="middle" dominant-baseline="middle" fill="white">C_BUS2</text></g>
<g transform="rotate(0.0, 292.0, 84.0)"><rect x="266.08" y="77.7" width="51.84" height="12.6" fill="#6699ff" stroke="#003366" stroke-width="1"/><text x="292.0" y="84.0" font-family="sans-serif" font-size="10" text-anchor="middle" dominant-baseline="middle" fill="white">Q1</text></g>
<g transform="rotate(0.0, 382.0, 84.0)"><rect x="356.08" y="77.7" width="51.84" height="12.6" fill="#6699ff" stroke="#003366" stroke-width="1"/><text x="382.0" y="84.0" font-family="sans-serif" font-size="10" text-anchor="middle" dominant-baseline="middle" fill="white">Q2</text></g>
<g transform="rotate(0.0, 346.0, 156.0)"><rect x="326.2" y="138.918" width="39.6" height="34.164" fill="#6699ff" stroke="#003366" stroke-width="1"/><text x="346.0" y="156.0" font-family="sans-serif" font-size="10" text-anchor="middle" dominant-baseline="middle" fill="white">U_GATE</text></g>
<g transform="rotate(0.0, 371.20000000000005, 138.0)"><rect x="365.80000000000007" y="135.39" width="10.8" height="5.22" fill="#6699ff" stroke="#003366" stroke-width="1"/><text x="371.20000000000005" y="138.0" font-family="sans-serif" font-size="10" text-anchor="middle" dominant-baseline="middle" fill="white">C_BOOT</text></g>
<g transform="rotate(0.0, 328.0, 138.0)"><rect x="322.6" y="135.39" width="10.8" height="5.22" fill="#6699ff" stroke="#003366" stroke-width="1"/><text x="328.0" y="138.0" font-family="sans-serif" font-size="10" text-anchor="middle" dominant-baseline="middle" fill="white">C_VCC</text></g>
<g transform="rotate(0.0, 310.0, 120.0)"><rect x="304.6" y="117.39" width="10.8" height="5.22" fill="#6699ff" stroke="#003366" stroke-width="1"/><text x="310.0" y="120.0" font-family="sans-serif" font-size="10" text-anchor="middle" dominant-baseline="middle" fill="white">R_GATE_H</text></g>
<g transform="rotate(0.0, 382.0, 120.0)"><rect x="376.6" y="117.39" width="10.8" height="5.22" fill="#6699ff" stroke="#003366" stroke-width="1"/><text x="382.0" y="120.0" font-family="sans-serif" font-size="10" text-anchor="middle" dominant-baseline="middle" fill="white">R_GATE_L</text></g>
<g transform="rotate(0.0, 490.0, 138.0)"><rect x="484.24" y="133.5" width="11.520000000000001" height="9.0" fill="#6699ff" stroke="#003366" stroke-width="1"/><text x="490.0" y="138.0" font-family="sans-serif" font-size="10" text-anchor="middle" dominant-baseline="middle" fill="white">U_BUCK</text></g>
<g transform="rotate(0.0, 490.0, 210.0)"><rect x="479.56" y="200.64" width="20.88" height="18.720000000000002" fill="#6699ff" stroke="#003366" stroke-width="1"/><text x="490.0" y="210.0" font-family="sans-serif" font-size="10" text-anchor="middle" dominant-baseline="middle" fill="white">U_LDO_3V3</text></g>
<g transform="rotate(0.0, 490.0, 264.0)"><rect x="479.56" y="254.64" width="20.88" height="18.720000000000002" fill="#6699ff" stroke="#003366" stroke-width="1"/><text x="490.0" y="264.0" font-family="sans-serif" font-size="10" text-anchor="middle" dominant-baseline="middle" fill="white">U_LDO_5V</text></g>
<g transform="rotate(0.0, 508.0, 390.0)"><rect x="494.14" y="377.814" width="27.720000000000002" height="24.372" fill="#6699ff" stroke="#003366" stroke-width="1"/><text x="508.0" y="390.0" font-family="sans-serif" font-size="10" text-anchor="middle" dominant-baseline="middle" fill="white">U_MCU</text></g>
<g transform="rotate(0.0, 482.8, 379.2)"><rect x="479.92" y="378.3" width="5.760000000000001" height="1.8" fill="#6699ff" stroke="#003366" stroke-width="1"/><text x="482.8" y="379.2" font-family="sans-serif" font-size="10" text-anchor="middle" dominant-baseline="middle" fill="white">C_MCU_1</text></g>
<g transform="rotate(0.0, 482.8, 390.0)"><rect x="479.92" y="389.1" width="5.760000000000001" height="1.8" fill="#6699ff" stroke="#003366" stroke-width="1"/><text x="482.8" y="390.0" font-family="sans-serif" font-size="10" text-anchor="middle" dominant-baseline="middle" fill="white">C_MCU_2</text></g>
<g transform="rotate(0.0, 482.8, 400.8)"><rect x="479.92" y="399.90000000000003" width="5.760000000000001" height="1.8" fill="#6699ff" stroke="#003366" stroke-width="1"/><text x="482.8" y="400.8" font-family="sans-serif" font-size="10" text-anchor="middle" dominant-baseline="middle" fill="white">C_MCU_3</text></g>
<g transform="rotate(0.0, 533.2, 390.0)"><rect x="530.32" y="389.1" width="5.760000000000001" height="1.8" fill="#6699ff" stroke="#003366" stroke-width="1"/><text x="533.2" y="390.0" font-family="sans-serif" font-size="10" text-anchor="middle" dominant-baseline="middle" fill="white">C_MCU_4</text></g>
<g transform="rotate(0.0, 400.0, 48.0)"><rect x="391.0" y="46.2" width="18.0" height="3.6" fill="#6699ff" stroke="#003366" stroke-width="1"/><text x="400.0" y="48.0" font-family="sans-serif" font-size="10" text-anchor="middle" dominant-baseline="middle" fill="white">J_USB</text></g>
<g transform="rotate(0.0, 472.0, 66.0)"><rect x="468.94" y="40.08" width="6.12" height="51.839999999999996" fill="#6699ff" stroke="#003366" stroke-width="1"/><text x="472.0" y="66.0" font-family="sans-serif" font-size="10" text-anchor="middle" dominant-baseline="middle" fill="white">J_DEBUG</text></g>
<g transform="rotate(0.0, 328.0, 426.0)"><rect x="315.04" y="414.66" width="25.919999999999998" height="22.68" fill="#6699ff" stroke="#003366" stroke-width="1"/><text x="328.0" y="426.0" font-family="sans-serif" font-size="10" text-anchor="middle" dominant-baseline="middle" fill="white">U_CT</text></g>
<g transform="rotate(0.0, 328.0, 462.0)"><rect x="322.6" y="459.39" width="10.8" height="5.22" fill="#6699ff" stroke="#003366" stroke-width="1"/><text x="328.0" y="462.0" font-family="sans-serif" font-size="10" text-anchor="middle" dominant-baseline="middle" fill="white">R_BURDEN</text></g>
<g transform="rotate(0.0, 328.0, 480.0)"><rect x="323.59" y="478.29" width="8.82" height="3.42" fill="#6699ff" stroke="#003366" stroke-width="1"/><text x="328.0" y="480.0" font-family="sans-serif" font-size="10" text-anchor="middle" dominant-baseline="middle" fill="white">C_CT_FILT</text></g>
<g transform="rotate(0.0, 364.0, 462.0)"><rect x="352.21" y="454.062" width="23.580000000000002" height="15.876000000000001" fill="#6699ff" stroke="#003366" stroke-width="1"/><text x="364.0" y="462.0" font-family="sans-serif" font-size="10" text-anchor="middle" dominant-baseline="middle" fill="white">U_OPAMP_CT</text></g>
<g transform="rotate(0.0, 328.0, 516.0)"><rect x="315.04" y="504.66" width="25.919999999999998" height="22.68" fill="#6699ff" stroke="#003366" stroke-width="1"/><text x="328.0" y="516.0" font-family="sans-serif" font-size="10" text-anchor="middle" dominant-baseline="middle" fill="white">MAX31865</text></g>
<g transform="rotate(0.0, 400.0, 552.0)"><rect x="389.542" y="548.4" width="20.916000000000004" height="7.2" fill="#6699ff" stroke="#003366" stroke-width="1"/><text x="400.0" y="552.0" font-family="sans-serif" font-size="10" text-anchor="middle" dominant-baseline="middle" fill="white">J_COIL</text></g>
<g transform="rotate(0.0, 292.0, 534.0)"><rect x="284.368" y="530.94" width="15.264000000000001" height="6.12" fill="#6699ff" stroke="#003366" stroke-width="1"/><text x="292.0" y="534.0" font-family="sans-serif" font-size="10" text-anchor="middle" dominant-baseline="middle" fill="white">J_NTC</text></g>
<g transform="rotate(0.0, 232.6, 42.6)"><rect x="229.0" y="39.0" width="7.2" height="7.2" fill="#6699ff" stroke="#003366" stroke-width="1"/><text x="232.6" y="42.6" font-family="sans-serif" font-size="10" text-anchor="middle" dominant-baseline="middle" fill="white">MH1</text></g>
<g transform="rotate(0.0, 567.4000000000001, 42.6)"><rect x="563.8000000000001" y="39.0" width="7.2" height="7.2" fill="#6699ff" stroke="#003366" stroke-width="1"/><text x="567.4000000000001" y="42.6" font-family="sans-serif" font-size="10" text-anchor="middle" dominant-baseline="middle" fill="white">MH2</text></g>
<g transform="rotate(0.0, 232.6, 557.4)"><rect x="229.0" y="553.8" width="7.2" height="7.2" fill="#6699ff" stroke="#003366" stroke-width="1"/><text x="232.6" y="557.4" font-family="sans-serif" font-size="10" text-anchor="middle" dominant-baseline="middle" fill="white">MH3</text></g>
<g transform="rotate(0.0, 567.4000000000001, 557.4)"><rect x="563.8000000000001" y="553.8" width="7.2" height="7.2" fill="#6699ff" stroke="#003366" stroke-width="1"/><text x="567.4000000000001" y="557.4" font-family="sans-serif" font-size="10" text-anchor="middle" dominant-baseline="middle" fill="white">MH4</text></g>
</svg>