<svg xmlns="http://www.w3.org/2000/svg" viewBox="0 0 800 600">
<rect x="220.0" y="30.0" width="360.0" height="540.0" fill="#eee" stroke="#333" stroke-width="2"/>
<rect x="220.0" y="426.0" width="360.0" height="144.0" fill="#ffcccc" fill-opacity="0.3" stroke="none"/>
<text x="225.0" y="441.0" font-family="sans-serif" font-size="12" fill="#666">power_zone</text>
<rect x="220.0" y="282.0" width="360.0" height="144.0" fill="#ccffcc" fill-opacity="0.3" stroke="none"/>
<text x="225.0" y="297.0" font-family="sans-serif" font-size="12" fill="#666">driver_zone</text>
<rect x="220.0" y="30.0" width="360.0" height="252.0" fill="#ccccff" fill-opacity="0.3" stroke="none"/>
<text x="225.0" y="45.0" font-family="sans-serif" font-size="12" fill="#666">control_zone</text>
<rect x="220.0" y="501.6" width="54.0" height="68.4" fill="#ffffcc" fill-opacity="0.3" stroke="none"/>
<text x="225.0" y="516.6" font-family="sans-serif" font-size="12" fill="#666">interface_zone</text>
<g transform="rotate(0.0, 256.0, 300.0)">
<rect x="249.7" y="257.7" width="12.6" height="84.60000000000001" fill="#6699ff" stroke="#003366" stroke-width="1"/>
<text x="256.0" y="300.0" font-family="sans-serif" font-size="10" text-anchor="middle" dominant-baseline="middle" fill="white">J_AC_IN</text>
</g>
<g transform="rotate(0.0, 428.8, 498.0)">
<rect x="396.868" y="493.5" width="63.86400000000001" height="9.0" fill="#6699ff" stroke="#003366" stroke-width="1"/>
<text x="428.8" y="498.0" font-family="sans-serif" font-size="10" text-anchor="middle" dominant-baseline="middle" fill="white">D1</text>
</g>
<g transform="rotate(0.0, 428.8, 454.8)">
<rect x="396.868" y="450.3" width="63.86400000000001" height="9.0" fill="#6699ff" stroke="#003366" stroke-width="1"/>
<text x="428.8" y="454.8" font-family="sans-serif" font-size="10" text-anchor="middle" dominant-baseline="middle" fill="white">D2</text>
</g>
<g transform="rotate(0.0, 540.4000000000001, 498.0)">
<rect x="521.5000000000001" y="492.6" width="37.800000000000004" height="10.8" fill="#6699ff" stroke="#003366" stroke-width="1"/>
<text x="540.4000000000001" y="498.0" font-family="sans-serif" font-size="10" text-anchor="middle" dominant-baseline="middle" fill="white">C_BUS1</text>
</g>
<g transform="rotate(0.0, 540.4000000000001, 454.8)">
<rect x="521.5000000000001" y="449.40000000000003" width="37.800000000000004" height="10.8" fill="#6699ff" stroke="#003366" stroke-width="1"/>
<text x="540.4000000000001" y="454.8" font-family="sans-serif" font-size="10" text-anchor="middle" dominant-baseline="middle" fill="white">C_BUS2</text>
</g>
<g transform="rotate(0.0, 490.0, 498.0)">
<rect x="464.08" y="491.7" width="51.84" height="12.6" fill="#6699ff" stroke="#003366" stroke-width="1"/>
<text x="490.0" y="498.0" font-family="sans-serif" font-size="10" text-anchor="middle" dominant-baseline="middle" fill="white">Q1</text>
</g>
<g transform="rotate(0.0, 490.0, 454.8)">
<rect x="464.08" y="448.5" width="51.84" height="12.6" fill="#6699ff" stroke="#003366" stroke-width="1"/>
<text x="490.0" y="454.8" font-family="sans-serif" font-size="10" text-anchor="middle" dominant-baseline="middle" fill="white">Q2</text>
</g>
<g transform="rotate(0.0, 364.0, 476.40000000000003)">
<rect x="344.2" y="459.31800000000004" width="39.6" height="34.164" fill="#6699ff" stroke="#003366" stroke-width="1"/>
<text x="364.0" y="476.40000000000003" font-family="sans-serif" font-size="10" text-anchor="middle" dominant-baseline="middle" fill="white">U_GATE</text>
</g>
<g transform="rotate(0.0, 353.20000000000005, 505.2)">
<rect x="347.80000000000007" y="502.59" width="10.8" height="5.22" fill="#6699ff" stroke="#003366" stroke-width="1"/>
<text x="353.20000000000005" y="505.2" font-family="sans-serif" font-size="10" text-anchor="middle" dominant-baseline="middle" fill="white">C_BOOT</text>
</g>
<g transform="rotate(0.0, 374.8, 505.2)">
<rect x="369.40000000000003" y="502.59" width="10.8" height="5.22" fill="#6699ff" stroke="#003366" stroke-width="1"/>
<text x="374.8" y="505.2" font-family="sans-serif" font-size="10" text-anchor="middle" dominant-baseline="middle" fill="white">C_VCC</text>
</g>
<g transform="rotate(0.0, 436.0, 433.2)">
<rect x="430.6" y="430.59" width="10.8" height="5.22" fill="#6699ff" stroke="#003366" stroke-width="1"/>
<text x="436.0" y="433.2" font-family="sans-serif" font-size="10" text-anchor="middle" dominant-baseline="middle" fill="white">R_GATE_H</text>
</g>
<g transform="rotate(0.0, 457.6, 433.2)">
<rect x="452.20000000000005" y="430.59" width="10.8" height="5.22" fill="#6699ff" stroke="#003366" stroke-width="1"/>
<text x="457.6" y="433.2" font-family="sans-serif" font-size="10" text-anchor="middle" dominant-baseline="middle" fill="white">R_GATE_L</text>
</g>
<g transform="rotate(0.0, 508.0, 264.0)">
<rect x="502.24" y="259.5" width="11.520000000000001" height="9.0" fill="#6699ff" stroke="#003366" stroke-width="1"/>
<text x="508.0" y="264.0" font-family="sans-serif" font-size="10" text-anchor="middle" dominant-baseline="middle" fill="white">U_BUCK</text>
</g>
<g transform="rotate(0.0, 310.0, 228.0)">
<rect x="299.56" y="218.64" width="20.88" height="18.720000000000002" fill="#6699ff" stroke="#003366" stroke-width="1"/>
<text x="310.0" y="228.0" font-family="sans-serif" font-size="10" text-anchor="middle" dominant-baseline="middle" fill="white">U_LDO_3V3</text>
</g>
<g transform="rotate(0.0, 310.0, 264.0)">
<rect x="299.56" y="254.64" width="20.88" height="18.720000000000002" fill="#6699ff" stroke="#003366" stroke-width="1"/>
<text x="310.0" y="264.0" font-family="sans-serif" font-size="10" text-anchor="middle" dominant-baseline="middle" fill="white">U_LDO_5V</text>
</g>
<g transform="rotate(0.0, 400.0, 192.0)">
<rect x="386.14" y="179.814" width="27.720000000000002" height="24.372" fill="#6699ff" stroke="#003366" stroke-width="1"/>
<text x="400.0" y="192.0" font-family="sans-serif" font-size="10" text-anchor="middle" dominant-baseline="middle" fill="white">U_MCU</text>
</g>
<g transform="rotate(0.0, 382.0, 210.0)">
<rect x="379.12" y="209.1" width="5.760000000000001" height="1.8" fill="#6699ff" stroke="#003366" stroke-width="1"/>
<text x="382.0" y="210.0" font-family="sans-serif" font-size="10" text-anchor="middle" dominant-baseline="middle" fill="white">C_MCU_1</text>
</g>
<g transform="rotate(0.0, 418.0, 210.0)">
<rect x="415.12" y="209.1" width="5.760000000000001" height="1.8" fill="#6699ff" stroke="#003366" stroke-width="1"/>
<text x="418.0" y="210.0" font-family="sans-serif" font-size="10" text-anchor="middle" dominant-baseline="middle" fill="white">C_MCU_2</text>
</g>
<g transform="rotate(0.0, 382.0, 174.0)">
<rect x="379.12" y="173.1" width="5.760000000000001" height="1.8" fill="#6699ff" stroke="#003366" stroke-width="1"/>
<text x="382.0" y="174.0" font-family="sans-serif" font-size="10" text-anchor="middle" dominant-baseline="middle" fill="white">C_MCU_3</text>
</g>
<g transform="rotate(0.0, 418.0, 174.0)">
<rect x="415.12" y="173.1" width="5.760000000000001" height="1.8" fill="#6699ff" stroke="#003366" stroke-width="1"/>
<text x="418.0" y="174.0" font-family="sans-serif" font-size="10" text-anchor="middle" dominant-baseline="middle" fill="white">C_MCU_4</text>
</g>
<g transform="rotate(0.0, 400.0, 48.0)">
<rect x="391.0" y="46.2" width="18.0" height="3.6" fill="#6699ff" stroke="#003366" stroke-width="1"/>
<text x="400.0" y="48.0" font-family="sans-serif" font-size="10" text-anchor="middle" dominant-baseline="middle" fill="white">J_USB</text>
</g>
<g transform="rotate(0.0, 472.0, 48.0)">
<rect x="468.94" y="22.080000000000002" width="6.12" height="51.839999999999996" fill="#6699ff" stroke="#003366" stroke-width="1"/>
<text x="472.0" y="48.0" font-family="sans-serif" font-size="10" text-anchor="middle" dominant-baseline="middle" fill="white">J_DEBUG</text>
</g>
<g transform="rotate(0.0, 346.0, 318.0)">
<rect x="333.04" y="306.66" width="25.919999999999998" height="22.68" fill="#6699ff" stroke="#003366" stroke-width="1"/>
<text x="346.0" y="318.0" font-family="sans-serif" font-size="10" text-anchor="middle" dominant-baseline="middle" fill="white">U_CT</text>
</g>
<g transform="rotate(0.0, 320.8, 318.0)">
<rect x="315.40000000000003" y="315.39" width="10.8" height="5.22" fill="#6699ff" stroke="#003366" stroke-width="1"/>
<text x="320.8" y="318.0" font-family="sans-serif" font-size="10" text-anchor="middle" dominant-baseline="middle" fill="white">R_BURDEN</text>
</g>
<g transform="rotate(0.0, 346.0, 339.6)">
<rect x="341.59" y="337.89000000000004" width="8.82" height="3.42" fill="#6699ff" stroke="#003366" stroke-width="1"/>
<text x="346.0" y="339.6" font-family="sans-serif" font-size="10" text-anchor="middle" dominant-baseline="middle" fill="white">C_CT_FILT</text>
</g>
<g transform="rotate(0.0, 320.8, 339.6)">
<rect x="309.01" y="331.66200000000003" width="23.580000000000002" height="15.876000000000001" fill="#6699ff" stroke="#003366" stroke-width="1"/>
<text x="320.8" y="339.6" font-family="sans-serif" font-size="10" text-anchor="middle" dominant-baseline="middle" fill="white">U_OPAMP_CT</text>
</g>
<g transform="rotate(0.0, 274.0, 318.0)">
<rect x="261.04" y="306.66" width="25.919999999999998" height="22.68" fill="#6699ff" stroke="#003366" stroke-width="1"/>
<text x="274.0" y="318.0" font-family="sans-serif" font-size="10" text-anchor="middle" dominant-baseline="middle" fill="white">MAX31865</text>
</g>
<g transform="rotate(0.0, 400.0, 336.0)">
<rect x="389.542" y="332.4" width="20.916000000000004" height="7.2" fill="#6699ff" stroke="#003366" stroke-width="1"/>
<text x="400.0" y="336.0" font-family="sans-serif" font-size="10" text-anchor="middle" dominant-baseline="middle" fill="white">J_COIL</text>
</g>
<g transform="rotate(0.0, 292.0, 300.0)">
<rect x="284.368" y="296.94" width="15.264000000000001" height="6.12" fill="#6699ff" stroke="#003366" stroke-width="1"/>
<text x="292.0" y="300.0" font-family="sans-serif" font-size="10" text-anchor="middle" dominant-baseline="middle" fill="white">J_NTC</text>
</g>
<g transform="rotate(0.0, 232.6, 42.6)">
<rect x="229.0" y="39.0" width="7.2" height="7.2" fill="#6699ff" stroke="#003366" stroke-width="1"/>
<text x="232.6" y="42.6" font-family="sans-serif" font-size="10" text-anchor="middle" dominant-baseline="middle" fill="white">MH1</text>
</g>
<g transform="rotate(0.0, 567.4000000000001, 42.6)">
<rect x="563.8000000000001" y="39.0" width="7.2" height="7.2" fill="#6699ff" stroke="#003366" stroke-width="1"/>
<text x="567.4000000000001" y="42.6" font-family="sans-serif" font-size="10" text-anchor="middle" dominant-baseline="middle" fill="white">MH2</text>
</g>
<g transform="rotate(0.0, 232.6, 557.4)">
<rect x="229.0" y="553.8" width="7.2" height="7.2" fill="#6699ff" stroke="#003366" stroke-width="1"/>
<text x="232.6" y="557.4" font-family="sans-serif" font-size="10" text-anchor="middle" dominant-baseline="middle" fill="white">MH3</text>
</g>
<g transform="rotate(0.0, 567.4000000000001, 557.4)">
<rect x="563.8000000000001" y="553.8" width="7.2" height="7.2" fill="#6699ff" stroke="#003366" stroke-width="1"/>
<text x="567.4000000000001" y="557.4" font-family="sans-serif" font-size="10" text-anchor="middle" dominant-baseline="middle" fill="white">MH4</text>
</g>
</svg>