<svg xmlns="http://www.w3.org/2000/svg" viewBox="0 0 800 600">
<rect x="220.0" y="30.0" width="360.0" height="540.0" fill="#eee" stroke="#333" stroke-width="2"/>
<rect x="220.0" y="426.0" width="360.0" height="144.0" fill="#ffcccc" fill-opacity="0.3" stroke="none"/>
<text x="225.0" y="441.0" font-family="sans-serif" font-size="12" fill="#666">power_zone</text>
<rect x="220.0" y="282.0" width="360.0" height="144.0" fill="#ccffcc" fill-opacity="0.3" stroke="none"/>
<text x="225.0" y="297.0" font-family="sans-serif" font-size="12" fill="#666">driver_zone</text>
<rect x="220.0" y="30.0" width="360.0" height="252.0" fill="#ccccff" fill-opacity="0.3" stroke="none"/>
<text x="225.0" y="45.0" font-family="sans-serif" font-size="12" fill="#666">control_zone</text>
<rect x="220.0" y="501.6" width="54.0" height="68.4" fill="#ffffcc" fill-opacity="0.3" stroke="none"/>
<text x="225.0" y="516.6" font-family="sans-serif" font-size="12" fill="#666">interface_zone</text>
<g transform="rotate(0.0, 256.0, 525.9000244140625)"><rect x="249.6999969482422" y="483.60003662109375" width="12.6" height="84.60000000000001" fill="#6699ff" stroke="#003366" stroke-width="1"/><text x="256.0" y="525.9000244140625" font-family="sans-serif" font-size="10" text-anchor="middle" dominant-baseline="middle" fill="white">J_AC_IN</text></g>
<g transform="rotate(0.0, 324.0435791015625, 441.8658752441406)"><rect x="292.111572265625" y="437.3658752441406" width="63.86400000000001" height="9.0" fill="#6699ff" stroke="#003366" stroke-width="1"/><text x="324.0435791015625" y="441.8658752441406" font-family="sans-serif" font-size="10" text-anchor="middle" dominant-baseline="middle" fill="white">D1</text></g>
<g transform="rotate(0.0, 324.0435791015625, 431.0658264160156)"><rect x="292.111572265625" y="426.5658264160156" width="63.86400000000001" height="9.0" fill="#6699ff" stroke="#003366" stroke-width="1"/><text x="324.0435791015625" y="431.0658264160156" font-family="sans-serif" font-size="10" text-anchor="middle" dominant-baseline="middle" fill="white">D2</text></g>
<g transform="rotate(0.0, 355.70428466796875, 463.63348388671875)"><rect x="336.8042907714844" y="458.2334899902344" width="37.800000000000004" height="10.8" fill="#6699ff" stroke="#003366" stroke-width="1"/><text x="355.70428466796875" y="463.63348388671875" font-family="sans-serif" font-size="10" text-anchor="middle" dominant-baseline="middle" fill="white">C_BUS1</text></g>
<g transform="rotate(0.0, 419.99664306640625, 464.5121154785156)"><rect x="401.0966491699219" y="459.11212158203125" width="37.800000000000004" height="10.8" fill="#6699ff" stroke="#003366" stroke-width="1"/><text x="419.99664306640625" y="464.5121154785156" font-family="sans-serif" font-size="10" text-anchor="middle" dominant-baseline="middle" fill="white">C_BUS2</text></g>
<g transform="rotate(0.0, 292.0, 467.06585693359375)"><rect x="266.0799865722656" y="460.765869140625" width="51.84" height="12.6" fill="#6699ff" stroke="#003366" stroke-width="1"/><text x="292.0" y="467.06585693359375" font-family="sans-serif" font-size="10" text-anchor="middle" dominant-baseline="middle" fill="white">Q1</text></g>
<g transform="rotate(0.0, 389.91278076171875, 444.8999938964844)"><rect x="363.9927673339844" y="438.6000061035156" width="51.84" height="12.6" fill="#6699ff" stroke="#003366" stroke-width="1"/><text x="389.91278076171875" y="444.8999938964844" font-family="sans-serif" font-size="10" text-anchor="middle" dominant-baseline="middle" fill="white">Q2</text></g>
<g transform="rotate(0.0, 344.36285400390625, 306.1019592285156)"><rect x="324.5628662109375" y="289.01995849609375" width="39.6" height="34.164" fill="#6699ff" stroke="#003366" stroke-width="1"/><text x="344.36285400390625" y="306.1019592285156" font-family="sans-serif" font-size="10" text-anchor="middle" dominant-baseline="middle" fill="white">U_GATE</text></g>
<g transform="rotate(0.0, 374.0972900390625, 286.3359069824219)"><rect x="368.6972961425781" y="283.7259216308594" width="10.8" height="5.22" fill="#6699ff" stroke="#003366" stroke-width="1"/><text x="374.0972900390625" y="286.3359069824219" font-family="sans-serif" font-size="10" text-anchor="middle" dominant-baseline="middle" fill="white">C_BOOT</text></g>
<g transform="rotate(0.0, 313.57940673828125, 295.38250732421875)"><rect x="308.1794128417969" y="292.77252197265625" width="10.8" height="5.22" fill="#6699ff" stroke="#003366" stroke-width="1"/><text x="313.57940673828125" y="295.38250732421875" font-family="sans-serif" font-size="10" text-anchor="middle" dominant-baseline="middle" fill="white">C_VCC</text></g>
<g transform="rotate(0.0, 310.0, 284.6099853515625)"><rect x="304.6000061035156" y="282.0" width="10.8" height="5.22" fill="#6699ff" stroke="#003366" stroke-width="1"/><text x="310.0" y="284.6099853515625" font-family="sans-serif" font-size="10" text-anchor="middle" dominant-baseline="middle" fill="white">R_GATE_H</text></g>
<g transform="rotate(0.0, 387.0584411621094, 286.3359069824219)"><rect x="381.658447265625" y="283.7259216308594" width="10.8" height="5.22" fill="#6699ff" stroke="#003366" stroke-width="1"/><text x="387.0584411621094" y="286.3359069824219" font-family="sans-serif" font-size="10" text-anchor="middle" dominant-baseline="middle" fill="white">R_GATE_L</text></g>
<g transform="rotate(0.0, 490.0, 138.0)"><rect x="484.239990234375" y="133.5" width="11.520000000000001" height="9.0" fill="#6699ff" stroke="#003366" stroke-width="1"/><text x="490.0" y="138.0" font-family="sans-serif" font-size="10" text-anchor="middle" dominant-baseline="middle" fill="white">U_BUCK</text></g>
<g transform="rotate(0.0, 490.0, 210.0)"><rect x="479.55999755859375" y="200.63999938964844" width="20.88" height="18.720000000000002" fill="#6699ff" stroke="#003366" stroke-width="1"/><text x="490.0" y="210.0" font-family="sans-serif" font-size="10" text-anchor="middle" dominant-baseline="middle" fill="white">U_LDO_3V3</text></g>
<g transform="rotate(0.0, 490.0, 261.8399963378906)"><rect x="479.55999755859375" y="252.47999572753906" width="20.88" height="18.720000000000002" fill="#6699ff" stroke="#003366" stroke-width="1"/><text x="490.0" y="261.8399963378906" font-family="sans-serif" font-size="10" text-anchor="middle" dominant-baseline="middle" fill="white">U_LDO_5V</text></g>
<g transform="rotate(0.0, 400.0, 156.0)"><rect x="386.1400146484375" y="143.81399536132812" width="27.720000000000002" height="24.372" fill="#6699ff" stroke="#003366" stroke-width="1"/><text x="400.0" y="156.0" font-family="sans-serif" font-size="10" text-anchor="middle" dominant-baseline="middle" fill="white">U_MCU</text></g>
<g transform="rotate(0.0, 482.79998779296875, 281.0999755859375)"><rect x="479.91998291015625" y="280.1999816894531" width="5.760000000000001" height="1.8" fill="#6699ff" stroke="#003366" stroke-width="1"/><text x="482.79998779296875" y="281.0999755859375" font-family="sans-serif" font-size="10" text-anchor="middle" dominant-baseline="middle" fill="white">C_MCU_1</text></g>
<g transform="rotate(0.0, 474.419189453125, 281.0999755859375)"><rect x="471.5391845703125" y="280.1999816894531" width="5.760000000000001" height="1.8" fill="#6699ff" stroke="#003366" stroke-width="1"/><text x="474.419189453125" y="281.0999755859375" font-family="sans-serif" font-size="10" text-anchor="middle" dominant-baseline="middle" fill="white">C_MCU_2</text></g>
<g transform="rotate(0.0, 485.95928955078125, 275.62591552734375)"><rect x="483.07928466796875" y="274.7259216308594" width="5.760000000000001" height="1.8" fill="#6699ff" stroke="#003366" stroke-width="1"/><text x="485.95928955078125" y="275.62591552734375" font-family="sans-serif" font-size="10" text-anchor="middle" dominant-baseline="middle" fill="white">C_MCU_3</text></g>
<g transform="rotate(0.0, 533.199951171875, 281.0999755859375)"><rect x="530.3199462890625" y="280.1999816894531" width="5.760000000000001" height="1.8" fill="#6699ff" stroke="#003366" stroke-width="1"/><text x="533.199951171875" y="281.0999755859375" font-family="sans-serif" font-size="10" text-anchor="middle" dominant-baseline="middle" fill="white">C_MCU_4</text></g>
<g transform="rotate(0.0, 400.0, 48.0)"><rect x="391.0" y="46.20000076293945" width="18.0" height="3.6" fill="#6699ff" stroke="#003366" stroke-width="1"/><text x="400.0" y="48.0" font-family="sans-serif" font-size="10" text-anchor="middle" dominant-baseline="middle" fill="white">J_USB</text></g>
<g transform="rotate(90.0, 328.0, 156.0)"><rect x="324.94000244140625" y="130.0800018310547" width="6.12" height="51.839999999999996" fill="#6699ff" stroke="#003366" stroke-width="1"/><text x="328.0" y="156.0" font-family="sans-serif" font-size="10" text-anchor="middle" dominant-baseline="middle" fill="white">J_DEBUG</text></g>
<g transform="rotate(0.0, 328.0, 401.18585205078125)"><rect x="315.0400085449219" y="389.8458557128906" width="25.919999999999998" height="22.68" fill="#6699ff" stroke="#003366" stroke-width="1"/><text x="328.0" y="401.18585205078125" font-family="sans-serif" font-size="10" text-anchor="middle" dominant-baseline="middle" fill="white">U_CT</text></g>
<g transform="rotate(0.0, 331.1593017578125, 418.6617736816406)"><rect x="325.7593078613281" y="416.0517883300781" width="10.8" height="5.22" fill="#6699ff" stroke="#003366" stroke-width="1"/><text x="331.1593017578125" y="418.6617736816406" font-family="sans-serif" font-size="10" text-anchor="middle" dominant-baseline="middle" fill="white">R_BURDEN</text></g>
<g transform="rotate(0.0, 304.40130615234375, 414.2160949707031)"><rect x="299.9913024902344" y="412.506103515625" width="8.82" height="3.42" fill="#6699ff" stroke="#003366" stroke-width="1"/><text x="304.40130615234375" y="414.2160949707031" font-family="sans-serif" font-size="10" text-anchor="middle" dominant-baseline="middle" fill="white">C_CT_FILT</text></g>
<g transform="rotate(0.0, 364.0, 413.0220031738281)"><rect x="352.2099914550781" y="405.0840148925781" width="23.580000000000002" height="15.876000000000001" fill="#6699ff" stroke="#003366" stroke-width="1"/><text x="364.0" y="413.0220031738281" font-family="sans-serif" font-size="10" text-anchor="middle" dominant-baseline="middle" fill="white">U_OPAMP_CT</text></g>
<g transform="rotate(0.0, 304.40130615234375, 367.86614990234375)"><rect x="291.4413146972656" y="356.5261535644531" width="25.919999999999998" height="22.68" fill="#6699ff" stroke="#003366" stroke-width="1"/><text x="304.40130615234375" y="367.86614990234375" font-family="sans-serif" font-size="10" text-anchor="middle" dominant-baseline="middle" fill="white">MAX31865</text></g>
<g transform="rotate(0.0, 400.0, 552.0)"><rect x="389.5419921875" y="548.4000244140625" width="20.916000000000004" height="7.2" fill="#6699ff" stroke="#003366" stroke-width="1"/><text x="400.0" y="552.0" font-family="sans-serif" font-size="10" text-anchor="middle" dominant-baseline="middle" fill="white">J_COIL</text></g>
<g transform="rotate(0.0, 292.0, 534.0)"><rect x="284.3680114746094" y="530.9400024414062" width="15.264000000000001" height="6.12" fill="#6699ff" stroke="#003366" stroke-width="1"/><text x="292.0" y="534.0" font-family="sans-serif" font-size="10" text-anchor="middle" dominant-baseline="middle" fill="white">J_NTC</text></g>
<g transform="rotate(0.0, 232.60000610351562, 42.599998474121094)"><rect x="229.0" y="39.0" width="7.2" height="7.2" fill="#6699ff" stroke="#003366" stroke-width="1"/><text x="232.60000610351562" y="42.599998474121094" font-family="sans-serif" font-size="10" text-anchor="middle" dominant-baseline="middle" fill="white">MH1</text></g>
<g transform="rotate(0.0, 567.4000244140625, 42.599998474121094)"><rect x="563.800048828125" y="39.0" width="7.2" height="7.2" fill="#6699ff" stroke="#003366" stroke-width="1"/><text x="567.4000244140625" y="42.599998474121094" font-family="sans-serif" font-size="10" text-anchor="middle" dominant-baseline="middle" fill="white">MH2</text></g>
<g transform="rotate(0.0, 232.60000610351562, 557.3999633789062)"><rect x="229.0" y="553.7999877929688" width="7.2" height="7.2" fill="#6699ff" stroke="#003366" stroke-width="1"/><text x="232.60000610351562" y="557.3999633789062" font-family="sans-serif" font-size="10" text-anchor="middle" dominant-baseline="middle" fill="white">MH3</text></g>
<g transform="rotate(0.0, 567.4000244140625, 557.3999633789062)"><rect x="563.800048828125" y="553.7999877929688" width="7.2" height="7.2" fill="#6699ff" stroke="#003366" stroke-width="1"/><text x="567.4000244140625" y="557.3999633789062" font-family="sans-serif" font-size="10" text-anchor="middle" dominant-baseline="middle" fill="white">MH4</text></g>
</svg>