<svg xmlns="http://www.w3.org/2000/svg" viewBox="0 0 800 600">
<rect x="220.0" y="30.0" width="360.0" height="540.0" fill="#eee" stroke="#333" stroke-width="2"/>
<rect x="220.0" y="30.0" width="126.0" height="540.0" fill="#ffcccc" fill-opacity="0.3" stroke="none"/>
<text x="225.0" y="45.0" font-family="sans-serif" font-size="12" fill="#666">HV</text>
<rect x="346.0" y="30.0" width="72.00000000000003" height="540.0" fill="#ccffcc" fill-opacity="0.3" stroke="none"/>
<text x="351.0" y="45.0" font-family="sans-serif" font-size="12" fill="#666">Power</text>
<rect x="418.0" y="30.0" width="71.99999999999997" height="540.0" fill="#ccccff" fill-opacity="0.3" stroke="none"/>
<text x="423.0" y="45.0" font-family="sans-serif" font-size="12" fill="#666">Signal</text>
<rect x="490.0" y="30.0" width="90.0" height="540.0" fill="#ffffcc" fill-opacity="0.3" stroke="none"/>
<text x="495.0" y="45.0" font-family="sans-serif" font-size="12" fill="#666">MCU</text>
<g transform="rotate(0.0, 274.0, 102.0)"><rect x="267.7" y="59.699999999999996" width="12.6" height="84.60000000000001" fill="#6699ff" stroke="#003366" stroke-width="1"/><text x="274.0" y="102.0" font-family="sans-serif" font-size="10" text-anchor="middle" dominant-baseline="middle" fill="white">J_AC_IN</text></g>
<g transform="rotate(0.0, 488.632, 494.40000000000003)"><rect x="456.7" y="489.90000000000003" width="63.86400000000001" height="9.0" fill="#6699ff" stroke="#003366" stroke-width="1"/><text x="488.632" y="494.40000000000003" font-family="sans-serif" font-size="10" text-anchor="middle" dominant-baseline="middle" fill="white">D1</text></g>
<g transform="rotate(0.0, 488.632, 458.40000000000003)"><rect x="456.7" y="453.90000000000003" width="63.86400000000001" height="9.0" fill="#6699ff" stroke="#003366" stroke-width="1"/><text x="488.632" y="458.40000000000003" font-family="sans-serif" font-size="10" text-anchor="middle" dominant-baseline="middle" fill="white">D2</text></g>
<g transform="rotate(0.0, 256.0, 246.0)"><rect x="237.1" y="240.6" width="37.800000000000004" height="10.8" fill="#6699ff" stroke="#003366" stroke-width="1"/><text x="256.0" y="246.0" font-family="sans-serif" font-size="10" text-anchor="middle" dominant-baseline="middle" fill="white">C_BUS1</text></g>
<g transform="rotate(0.0, 256.0, 354.0)"><rect x="237.1" y="348.6" width="37.800000000000004" height="10.8" fill="#6699ff" stroke="#003366" stroke-width="1"/><text x="256.0" y="354.0" font-family="sans-serif" font-size="10" text-anchor="middle" dominant-baseline="middle" fill="white">C_BUS2</text></g>
<g transform="rotate(0.0, 509.62, 480.0)"><rect x="483.7" y="473.7" width="51.84" height="12.6" fill="#6699ff" stroke="#003366" stroke-width="1"/><text x="509.62" y="480.0" font-family="sans-serif" font-size="10" text-anchor="middle" dominant-baseline="middle" fill="white">Q1</text></g>
<g transform="rotate(0.0, 509.62, 444.0)"><rect x="483.7" y="437.7" width="51.84" height="12.6" fill="#6699ff" stroke="#003366" stroke-width="1"/><text x="509.62" y="444.0" font-family="sans-serif" font-size="10" text-anchor="middle" dominant-baseline="middle" fill="white">Q2</text></g>
<g transform="rotate(0.0, 346.0, 138.0)"><rect x="326.2" y="120.918" width="39.6" height="34.164" fill="#6699ff" stroke="#003366" stroke-width="1"/><text x="346.0" y="138.0" font-family="sans-serif" font-size="10" text-anchor="middle" dominant-baseline="middle" fill="white">U_GATE</text></g>
<g transform="rotate(0.0, 414.12476501464846, 369.8206695556641)"><rect x="408.7247650146485" y="367.2106695556641" width="10.8" height="5.22" fill="#6699ff" stroke="#003366" stroke-width="1"/><text x="414.12476501464846" y="369.8206695556641" font-family="sans-serif" font-size="10" text-anchor="middle" dominant-baseline="middle" fill="white">C_BOOT</text></g>
<g transform="rotate(0.0, 432.08013305664065, 362.3442810058594)"><rect x="426.68013305664067" y="359.7342810058594" width="10.8" height="5.22" fill="#6699ff" stroke="#003366" stroke-width="1"/><text x="432.08013305664065" y="362.3442810058594" font-family="sans-serif" font-size="10" text-anchor="middle" dominant-baseline="middle" fill="white">C_VCC</text></g>
<g transform="rotate(0.0, 445.97397918701176, 366.2174560546875)"><rect x="440.5739791870118" y="363.6074560546875" width="10.8" height="5.22" fill="#6699ff" stroke="#003366" stroke-width="1"/><text x="445.97397918701176" y="366.2174560546875" font-family="sans-serif" font-size="10" text-anchor="middle" dominant-baseline="middle" fill="white">R_GATE_H</text></g>
<g transform="rotate(0.0, 427.20541687011723, 375.9191802978516)"><rect x="421.80541687011726" y="373.3091802978516" width="10.8" height="5.22" fill="#6699ff" stroke="#003366" stroke-width="1"/><text x="427.20541687011723" y="375.9191802978516" font-family="sans-serif" font-size="10" text-anchor="middle" dominant-baseline="middle" fill="white">R_GATE_L</text></g>
<g transform="rotate(0.0, 456.44736938476564, 227.58680419921876)"><rect x="450.68736938476565" y="223.08680419921876" width="11.520000000000001" height="9.0" fill="#6699ff" stroke="#003366" stroke-width="1"/><text x="456.44736938476564" y="227.58680419921876" font-family="sans-serif" font-size="10" text-anchor="middle" dominant-baseline="middle" fill="white">U_BUCK</text></g>
<g transform="rotate(0.0, 460.0215240478516, 197.73724731445313)"><rect x="449.5815240478516" y="188.37724731445311" width="20.88" height="18.720000000000002" fill="#6699ff" stroke="#003366" stroke-width="1"/><text x="460.0215240478516" y="197.73724731445313" font-family="sans-serif" font-size="10" text-anchor="middle" dominant-baseline="middle" fill="white">U_LDO_3V3</text></g>
<g transform="rotate(0.0, 432.57402343750005, 216.72490447998047)"><rect x="422.13402343750005" y="207.36490447998045" width="20.88" height="18.720000000000002" fill="#6699ff" stroke="#003366" stroke-width="1"/><text x="432.57402343750005" y="216.72490447998047" font-family="sans-serif" font-size="10" text-anchor="middle" dominant-baseline="middle" fill="white">U_LDO_5V</text></g>
<g transform="rotate(0.0, 385.3511047363281, 182.43467376708983)"><rect x="371.4911047363281" y="170.24867376708983" width="27.720000000000002" height="24.372" fill="#6699ff" stroke="#003366" stroke-width="1"/><text x="385.3511047363281" y="182.43467376708983" font-family="sans-serif" font-size="10" text-anchor="middle" dominant-baseline="middle" fill="white">U_MCU</text></g>
<g transform="rotate(0.0, 431.65772247314453, 166.06751403808593)"><rect x="428.77772247314454" y="165.16751403808593" width="5.760000000000001" height="1.8" fill="#6699ff" stroke="#003366" stroke-width="1"/><text x="431.65772247314453" y="166.06751403808593" font-family="sans-serif" font-size="10" text-anchor="middle" dominant-baseline="middle" fill="white">C_MCU_1</text></g>
<g transform="rotate(0.0, 429.91726837158205, 183.10077209472658)"><rect x="427.03726837158206" y="182.20077209472657" width="5.760000000000001" height="1.8" fill="#6699ff" stroke="#003366" stroke-width="1"/><text x="429.91726837158205" y="183.10077209472658" font-family="sans-serif" font-size="10" text-anchor="middle" dominant-baseline="middle" fill="white">C_MCU_2</text></g>
<g transform="rotate(0.0, 430.5222854614258, 174.749267578125)"><rect x="427.6422854614258" y="173.849267578125" width="5.760000000000001" height="1.8" fill="#6699ff" stroke="#003366" stroke-width="1"/><text x="430.5222854614258" y="174.749267578125" font-family="sans-serif" font-size="10" text-anchor="middle" dominant-baseline="middle" fill="white">C_MCU_3</text></g>
<g transform="rotate(0.0, 407.1673980712891, 174.1508972167969)"><rect x="404.2873980712891" y="173.2508972167969" width="5.760000000000001" height="1.8" fill="#6699ff" stroke="#003366" stroke-width="1"/><text x="407.1673980712891" y="174.1508972167969" font-family="sans-serif" font-size="10" text-anchor="middle" dominant-baseline="middle" fill="white">C_MCU_4</text></g>
<g transform="rotate(0.0, 400.0, 48.0)"><rect x="391.0" y="46.2" width="18.0" height="3.6" fill="#6699ff" stroke="#003366" stroke-width="1"/><text x="400.0" y="48.0" font-family="sans-serif" font-size="10" text-anchor="middle" dominant-baseline="middle" fill="white">J_USB</text></g>
<g transform="rotate(0.0, 472.0, 85.97999931335448)"><rect x="468.94" y="60.05999931335448" width="6.12" height="51.839999999999996" fill="#6699ff" stroke="#003366" stroke-width="1"/><text x="472.0" y="85.97999931335448" font-family="sans-serif" font-size="10" text-anchor="middle" dominant-baseline="middle" fill="white">J_DEBUG</text></g>
<g transform="rotate(0.0, 434.0851928710938, 270.3750640869141)"><rect x="421.1251928710938" y="259.03506408691413" width="25.919999999999998" height="22.68" fill="#6699ff" stroke="#003366" stroke-width="1"/><text x="434.0851928710938" y="270.3750640869141" font-family="sans-serif" font-size="10" text-anchor="middle" dominant-baseline="middle" fill="white">U_CT</text></g>
<g transform="rotate(0.0, 446.61742095947267, 247.73092346191407)"><rect x="441.2174209594727" y="245.12092346191406" width="10.8" height="5.22" fill="#6699ff" stroke="#003366" stroke-width="1"/><text x="446.61742095947267" y="247.73092346191407" font-family="sans-serif" font-size="10" text-anchor="middle" dominant-baseline="middle" fill="white">R_BURDEN</text></g>
<g transform="rotate(0.0, 466.5480072021485, 247.75664520263672)"><rect x="462.13800720214846" y="246.0466452026367" width="8.82" height="3.42" fill="#6699ff" stroke="#003366" stroke-width="1"/><text x="466.5480072021485" y="247.75664520263672" font-family="sans-serif" font-size="10" text-anchor="middle" dominant-baseline="middle" fill="white">C_CT_FILT</text></g>
<g transform="rotate(0.0, 468.4141723632813, 269.02239990234375)"><rect x="456.6241723632813" y="261.08439990234376" width="23.580000000000002" height="15.876000000000001" fill="#6699ff" stroke="#003366" stroke-width="1"/><text x="468.4141723632813" y="269.02239990234375" font-family="sans-serif" font-size="10" text-anchor="middle" dominant-baseline="middle" fill="white">U_OPAMP_CT</text></g>
<g transform="rotate(0.0, 449.5448654174805, 303.9707061767578)"><rect x="436.5848654174805" y="292.6307061767578" width="25.919999999999998" height="22.68" fill="#6699ff" stroke="#003366" stroke-width="1"/><text x="449.5448654174805" y="303.9707061767578" font-family="sans-serif" font-size="10" text-anchor="middle" dominant-baseline="middle" fill="white">MAX31865</text></g>
<g transform="rotate(0.0, 406.858, 300.0)"><rect x="396.4" y="296.4" width="20.916000000000004" height="7.2" fill="#6699ff" stroke="#003366" stroke-width="1"/><text x="406.858" y="300.0" font-family="sans-serif" font-size="10" text-anchor="middle" dominant-baseline="middle" fill="white">J_COIL</text></g>
<g transform="rotate(0.0, 296.572, 300.0)"><rect x="288.94" y="296.94" width="15.264000000000001" height="6.12" fill="#6699ff" stroke="#003366" stroke-width="1"/><text x="296.572" y="300.0" font-family="sans-serif" font-size="10" text-anchor="middle" dominant-baseline="middle" fill="white">J_NTC</text></g>
<g transform="rotate(0.0, 232.6, 42.6)"><rect x="229.0" y="39.0" width="7.2" height="7.2" fill="#6699ff" stroke="#003366" stroke-width="1"/><text x="232.6" y="42.6" font-family="sans-serif" font-size="10" text-anchor="middle" dominant-baseline="middle" fill="white">MH1</text></g>
<g transform="rotate(0.0, 567.4000000000001, 42.6)"><rect x="563.8000000000001" y="39.0" width="7.2" height="7.2" fill="#6699ff" stroke="#003366" stroke-width="1"/><text x="567.4000000000001" y="42.6" font-family="sans-serif" font-size="10" text-anchor="middle" dominant-baseline="middle" fill="white">MH2</text></g>
<g transform="rotate(0.0, 232.6, 557.4)"><rect x="229.0" y="553.8" width="7.2" height="7.2" fill="#6699ff" stroke="#003366" stroke-width="1"/><text x="232.6" y="557.4" font-family="sans-serif" font-size="10" text-anchor="middle" dominant-baseline="middle" fill="white">MH3</text></g>
<g transform="rotate(0.0, 567.4000000000001, 557.4)"><rect x="563.8000000000001" y="553.8" width="7.2" height="7.2" fill="#6699ff" stroke="#003366" stroke-width="1"/><text x="567.4000000000001" y="557.4" font-family="sans-serif" font-size="10" text-anchor="middle" dominant-baseline="middle" fill="white">MH4</text></g>
</svg>