<svg xmlns="http://www.w3.org/2000/svg" viewBox="0 0 800 600">
<rect x="220.0" y="30.0" width="360.0" height="540.0" fill="#eee" stroke="#333" stroke-width="2"/>
<rect x="220.0" y="30.0" width="126.0" height="540.0" fill="#ffcccc" fill-opacity="0.3" stroke="none"/>
<text x="225.0" y="45.0" font-family="sans-serif" font-size="12" fill="#666">HV</text>
<rect x="346.0" y="30.0" width="72.00000000000003" height="540.0" fill="#ccffcc" fill-opacity="0.3" stroke="none"/>
<text x="351.0" y="45.0" font-family="sans-serif" font-size="12" fill="#666">Power</text>
<rect x="418.0" y="30.0" width="71.99999999999997" height="540.0" fill="#ccccff" fill-opacity="0.3" stroke="none"/>
<text x="423.0" y="45.0" font-family="sans-serif" font-size="12" fill="#666">Signal</text>
<rect x="490.0" y="30.0" width="90.0" height="540.0" fill="#ffffcc" fill-opacity="0.3" stroke="none"/>
<text x="495.0" y="45.0" font-family="sans-serif" font-size="12" fill="#666">MCU</text>
<g transform="rotate(0.0, 274.0, 102.0)"><rect x="267.70001220703125" y="59.70000076293945" width="12.6" height="84.60000000000001" fill="#6699ff" stroke="#003366" stroke-width="1"/><text x="274.0" y="102.0" font-family="sans-serif" font-size="10" text-anchor="middle" dominant-baseline="middle" fill="white">J_AC_IN</text></g>
<g transform="rotate(0.0, 488.6319885253906, 494.3999938964844)"><rect x="456.6999816894531" y="489.8999938964844" width="63.86400000000001" height="9.0" fill="#6699ff" stroke="#003366" stroke-width="1"/><text x="488.6319885253906" y="494.3999938964844" font-family="sans-serif" font-size="10" text-anchor="middle" dominant-baseline="middle" fill="white">D1</text></g>
<g transform="rotate(0.0, 488.6319885253906, 458.3999938964844)"><rect x="456.6999816894531" y="453.8999938964844" width="63.86400000000001" height="9.0" fill="#6699ff" stroke="#003366" stroke-width="1"/><text x="488.6319885253906" y="458.3999938964844" font-family="sans-serif" font-size="10" text-anchor="middle" dominant-baseline="middle" fill="white">D2</text></g>
<g transform="rotate(0.0, 256.0, 246.0)"><rect x="237.10000610351562" y="240.60000610351562" width="37.800000000000004" height="10.8" fill="#6699ff" stroke="#003366" stroke-width="1"/><text x="256.0" y="246.0" font-family="sans-serif" font-size="10" text-anchor="middle" dominant-baseline="middle" fill="white">C_BUS1</text></g>
<g transform="rotate(0.0, 256.0, 354.0)"><rect x="237.10000610351562" y="348.6000061035156" width="37.800000000000004" height="10.8" fill="#6699ff" stroke="#003366" stroke-width="1"/><text x="256.0" y="354.0" font-family="sans-serif" font-size="10" text-anchor="middle" dominant-baseline="middle" fill="white">C_BUS2</text></g>
<g transform="rotate(0.0, 509.6199951171875, 480.0)"><rect x="483.6999816894531" y="473.70001220703125" width="51.84" height="12.6" fill="#6699ff" stroke="#003366" stroke-width="1"/><text x="509.6199951171875" y="480.0" font-family="sans-serif" font-size="10" text-anchor="middle" dominant-baseline="middle" fill="white">Q1</text></g>
<g transform="rotate(0.0, 509.6199951171875, 444.0)"><rect x="483.6999816894531" y="437.70001220703125" width="51.84" height="12.6" fill="#6699ff" stroke="#003366" stroke-width="1"/><text x="509.6199951171875" y="444.0" font-family="sans-serif" font-size="10" text-anchor="middle" dominant-baseline="middle" fill="white">Q2</text></g>
<g transform="rotate(0.0, 346.0, 138.0)"><rect x="326.20001220703125" y="120.91799926757812" width="39.6" height="34.164" fill="#6699ff" stroke="#003366" stroke-width="1"/><text x="346.0" y="138.0" font-family="sans-serif" font-size="10" text-anchor="middle" dominant-baseline="middle" fill="white">U_GATE</text></g>
<g transform="rotate(0.0, 414.124755859375, 369.8206481933594)"><rect x="408.7247619628906" y="367.2106628417969" width="10.8" height="5.22" fill="#6699ff" stroke="#003366" stroke-width="1"/><text x="414.124755859375" y="369.8206481933594" font-family="sans-serif" font-size="10" text-anchor="middle" dominant-baseline="middle" fill="white">C_BOOT</text></g>
<g transform="rotate(0.0, 432.08013916015625, 362.3442687988281)"><rect x="426.6801452636719" y="359.7342834472656" width="10.8" height="5.22" fill="#6699ff" stroke="#003366" stroke-width="1"/><text x="432.08013916015625" y="362.3442687988281" font-family="sans-serif" font-size="10" text-anchor="middle" dominant-baseline="middle" fill="white">C_VCC</text></g>
<g transform="rotate(0.0, 445.9739685058594, 366.2174377441406)"><rect x="440.573974609375" y="363.6074523925781" width="10.8" height="5.22" fill="#6699ff" stroke="#003366" stroke-width="1"/><text x="445.9739685058594" y="366.2174377441406" font-family="sans-serif" font-size="10" text-anchor="middle" dominant-baseline="middle" fill="white">R_GATE_H</text></g>
<g transform="rotate(0.0, 427.2054138183594, 375.9191589355469)"><rect x="421.805419921875" y="373.3091735839844" width="10.8" height="5.22" fill="#6699ff" stroke="#003366" stroke-width="1"/><text x="427.2054138183594" y="375.9191589355469" font-family="sans-serif" font-size="10" text-anchor="middle" dominant-baseline="middle" fill="white">R_GATE_L</text></g>
<g transform="rotate(0.0, 456.4473571777344, 227.5867919921875)"><rect x="450.6873474121094" y="223.0867919921875" width="11.520000000000001" height="9.0" fill="#6699ff" stroke="#003366" stroke-width="1"/><text x="456.4473571777344" y="227.5867919921875" font-family="sans-serif" font-size="10" text-anchor="middle" dominant-baseline="middle" fill="white">U_BUCK</text></g>
<g transform="rotate(0.0, 460.0215148925781, 197.73724365234375)"><rect x="449.5815124511719" y="188.3772430419922" width="20.88" height="18.720000000000002" fill="#6699ff" stroke="#003366" stroke-width="1"/><text x="460.0215148925781" y="197.73724365234375" font-family="sans-serif" font-size="10" text-anchor="middle" dominant-baseline="middle" fill="white">U_LDO_3V3</text></g>
<g transform="rotate(0.0, 432.57403564453125, 216.7248992919922)"><rect x="422.134033203125" y="207.36489868164062" width="20.88" height="18.720000000000002" fill="#6699ff" stroke="#003366" stroke-width="1"/><text x="432.57403564453125" y="216.7248992919922" font-family="sans-serif" font-size="10" text-anchor="middle" dominant-baseline="middle" fill="white">U_LDO_5V</text></g>
<g transform="rotate(0.0, 535.0, 300.0)"><rect x="521.1400146484375" y="287.8139953613281" width="27.720000000000002" height="24.372" fill="#6699ff" stroke="#003366" stroke-width="1"/><text x="535.0" y="300.0" font-family="sans-serif" font-size="10" text-anchor="middle" dominant-baseline="middle" fill="white">U_MCU</text></g>
<g transform="rotate(0.0, 431.65771484375, 166.0675048828125)"><rect x="428.7777099609375" y="165.16751098632812" width="5.760000000000001" height="1.8" fill="#6699ff" stroke="#003366" stroke-width="1"/><text x="431.65771484375" y="166.0675048828125" font-family="sans-serif" font-size="10" text-anchor="middle" dominant-baseline="middle" fill="white">C_MCU_1</text></g>
<g transform="rotate(0.0, 429.9172668457031, 183.10076904296875)"><rect x="427.0372619628906" y="182.20077514648438" width="5.760000000000001" height="1.8" fill="#6699ff" stroke="#003366" stroke-width="1"/><text x="429.9172668457031" y="183.10076904296875" font-family="sans-serif" font-size="10" text-anchor="middle" dominant-baseline="middle" fill="white">C_MCU_2</text></g>
<g transform="rotate(0.0, 430.52227783203125, 174.749267578125)"><rect x="427.64227294921875" y="173.84927368164062" width="5.760000000000001" height="1.8" fill="#6699ff" stroke="#003366" stroke-width="1"/><text x="430.52227783203125" y="174.749267578125" font-family="sans-serif" font-size="10" text-anchor="middle" dominant-baseline="middle" fill="white">C_MCU_3</text></g>
<g transform="rotate(0.0, 407.1673889160156, 174.15089416503906)"><rect x="404.2873840332031" y="173.2509002685547" width="5.760000000000001" height="1.8" fill="#6699ff" stroke="#003366" stroke-width="1"/><text x="407.1673889160156" y="174.15089416503906" font-family="sans-serif" font-size="10" text-anchor="middle" dominant-baseline="middle" fill="white">C_MCU_4</text></g>
<g transform="rotate(0.0, 400.0, 48.0)"><rect x="391.0" y="46.20000076293945" width="18.0" height="3.6" fill="#6699ff" stroke="#003366" stroke-width="1"/><text x="400.0" y="48.0" font-family="sans-serif" font-size="10" text-anchor="middle" dominant-baseline="middle" fill="white">J_USB</text></g>
<g transform="rotate(90.0, 466.055419921875, 303.2762756347656)"><rect x="462.99542236328125" y="277.35626220703125" width="6.12" height="51.839999999999996" fill="#6699ff" stroke="#003366" stroke-width="1"/><text x="466.055419921875" y="303.2762756347656" font-family="sans-serif" font-size="10" text-anchor="middle" dominant-baseline="middle" fill="white">J_DEBUG</text></g>
<g transform="rotate(0.0, 434.085205078125, 270.37506103515625)"><rect x="421.1252136230469" y="259.0350646972656" width="25.919999999999998" height="22.68" fill="#6699ff" stroke="#003366" stroke-width="1"/><text x="434.085205078125" y="270.37506103515625" font-family="sans-serif" font-size="10" text-anchor="middle" dominant-baseline="middle" fill="white">U_CT</text></g>
<g transform="rotate(0.0, 446.617431640625, 247.7309112548828)"><rect x="441.2174377441406" y="245.12091064453125" width="10.8" height="5.22" fill="#6699ff" stroke="#003366" stroke-width="1"/><text x="446.617431640625" y="247.7309112548828" font-family="sans-serif" font-size="10" text-anchor="middle" dominant-baseline="middle" fill="white">R_BURDEN</text></g>
<g transform="rotate(0.0, 466.5480041503906, 247.7566375732422)"><rect x="462.13800048828125" y="246.046630859375" width="8.82" height="3.42" fill="#6699ff" stroke="#003366" stroke-width="1"/><text x="466.5480041503906" y="247.7566375732422" font-family="sans-serif" font-size="10" text-anchor="middle" dominant-baseline="middle" fill="white">C_CT_FILT</text></g>
<g transform="rotate(0.0, 468.4141845703125, 265.74609375)"><rect x="456.6241760253906" y="257.80810546875" width="23.580000000000002" height="15.876000000000001" fill="#6699ff" stroke="#003366" stroke-width="1"/><text x="468.4141845703125" y="265.74609375" font-family="sans-serif" font-size="10" text-anchor="middle" dominant-baseline="middle" fill="white">U_OPAMP_CT</text></g>
<g transform="rotate(0.0, 446.48944091796875, 303.970703125)"><rect x="433.5294494628906" y="292.6307067871094" width="25.919999999999998" height="22.68" fill="#6699ff" stroke="#003366" stroke-width="1"/><text x="446.48944091796875" y="303.970703125" font-family="sans-serif" font-size="10" text-anchor="middle" dominant-baseline="middle" fill="white">MAX31865</text></g>
<g transform="rotate(0.0, 406.85797119140625, 300.0)"><rect x="396.39996337890625" y="296.3999938964844" width="20.916000000000004" height="7.2" fill="#6699ff" stroke="#003366" stroke-width="1"/><text x="406.85797119140625" y="300.0" font-family="sans-serif" font-size="10" text-anchor="middle" dominant-baseline="middle" fill="white">J_COIL</text></g>
<g transform="rotate(0.0, 296.5719909667969, 300.0)"><rect x="288.94000244140625" y="296.94000244140625" width="15.264000000000001" height="6.12" fill="#6699ff" stroke="#003366" stroke-width="1"/><text x="296.5719909667969" y="300.0" font-family="sans-serif" font-size="10" text-anchor="middle" dominant-baseline="middle" fill="white">J_NTC</text></g>
<g transform="rotate(0.0, 232.60000610351562, 42.599998474121094)"><rect x="229.0" y="39.0" width="7.2" height="7.2" fill="#6699ff" stroke="#003366" stroke-width="1"/><text x="232.60000610351562" y="42.599998474121094" font-family="sans-serif" font-size="10" text-anchor="middle" dominant-baseline="middle" fill="white">MH1</text></g>
<g transform="rotate(0.0, 567.4000244140625, 42.599998474121094)"><rect x="563.800048828125" y="39.0" width="7.2" height="7.2" fill="#6699ff" stroke="#003366" stroke-width="1"/><text x="567.4000244140625" y="42.599998474121094" font-family="sans-serif" font-size="10" text-anchor="middle" dominant-baseline="middle" fill="white">MH2</text></g>
<g transform="rotate(0.0, 232.60000610351562, 557.3999633789062)"><rect x="229.0" y="553.7999877929688" width="7.2" height="7.2" fill="#6699ff" stroke="#003366" stroke-width="1"/><text x="232.60000610351562" y="557.3999633789062" font-family="sans-serif" font-size="10" text-anchor="middle" dominant-baseline="middle" fill="white">MH3</text></g>
<g transform="rotate(0.0, 567.4000244140625, 557.3999633789062)"><rect x="563.800048828125" y="553.7999877929688" width="7.2" height="7.2" fill="#6699ff" stroke="#003366" stroke-width="1"/><text x="567.4000244140625" y="557.3999633789062" font-family="sans-serif" font-size="10" text-anchor="middle" dominant-baseline="middle" fill="white">MH4</text></g>
</svg>