ISO-10303-21;
HEADER;
FILE_DESCRIPTION(('Open CASCADE Model'),'2;1');
FILE_NAME('Open CASCADE Shape Model','2026-10-04T22:15:22',('Author'),(
    'Open CASCADE'),'Open CASCADE STEP processor 7.8','Open CASCADE 7.8'
  ,'Unknown');
FILE_SCHEMA(('AUTOMOTIVE_DESIGN { 1 0 10303 214 1 1 1 1 }'));
ENDSEC;
DATA;
#1 = APPLICATION_PROTOCOL_DEFINITION('international standard',
  'automotive_design',2000,#2);
#2 = APPLICATION_CONTEXT(
  'core data for automotive mechanical design processes');
#3 = SHAPE_DEFINITION_REPRESENTATION(#4,#10);
#4 = PRODUCT_DEFINITION_SHAPE('','',#5);
#5 = PRODUCT_DEFINITION('design','',#6,#9);
#6 = PRODUCT_DEFINITION_FORMATION('','',#7);
#7 = PRODUCT('Open CASCADE STEP translator 7.8 3',
  'Open CASCADE STEP translator 7.8 3','',(#8));
#8 = PRODUCT_CONTEXT('',#2,'mechanical');
#9 = PRODUCT_DEFINITION_CONTEXT('part definition',#2,'design');
#10 = ADVANCED_BREP_SHAPE_REPRESENTATION('',(#11,#15),#1249);
#11 = AXIS2_PLACEMENT_3D('',#12,#13,#14);
#12 = CARTESIAN_POINT('',(0.,0.,0.));
#13 = DIRECTION('',(0.,0.,1.));
#14 = DIRECTION('',(1.,0.,-0.));
#15 = MANIFOLD_SOLID_BREP('',#16);
#16 = CLOSED_SHELL('',(#17,#487,#846,#850,#885,#940,#998,#1084,#1139,
    #1143,#1147,#1151,#1186,#1190,#1245));
#17 = ADVANCED_FACE('',(#18,#316),#32,.T.);
#18 = FACE_BOUND('',#19,.T.);
#19 = EDGE_LOOP('',(#20,#50,#77,#78,#175,#198,#225,#226));
#20 = ORIENTED_EDGE('',*,*,#21,.T.);
#21 = EDGE_CURVE('',#22,#24,#26,.T.);
#22 = VERTEX_POINT('',#23);
#23 = CARTESIAN_POINT('',(6.,-6.429395695524E-16,-5.25));
#24 = VERTEX_POINT('',#25);
#25 = CARTESIAN_POINT('',(6.,-1.469576158977E-15,-2.));
#26 = SEAM_CURVE('',#27,(#31,#43),.PCURVE_S1.);
#27 = LINE('',#28,#29);
#28 = CARTESIAN_POINT('',(6.,-1.469576158977E-15,-9.953052393994));
#29 = VECTOR('',#30,1.);
#30 = DIRECTION('',(0.,0.,1.));
#31 = PCURVE('',#32,#37);
#32 = CYLINDRICAL_SURFACE('',#33,6.);
#33 = AXIS2_PLACEMENT_3D('',#34,#35,#36);
#34 = CARTESIAN_POINT('',(0.,0.,-9.953052393994));
#35 = DIRECTION('',(0.,0.,1.));
#36 = DIRECTION('',(1.,0.,-0.));
#37 = DEFINITIONAL_REPRESENTATION('',(#38),#42);
#38 = LINE('',#39,#40);
#39 = CARTESIAN_POINT('',(6.28318530718,-0.));
#40 = VECTOR('',#41,1.);
#41 = DIRECTION('',(0.,1.));
#42 = ( GEOMETRIC_REPRESENTATION_CONTEXT(2)
PARAMETRIC_REPRESENTATION_CONTEXT() REPRESENTATION_CONTEXT('2D SPACE',''
  ) );
#43 = PCURVE('',#32,#44);
#44 = DEFINITIONAL_REPRESENTATION('',(#45),#49);
#45 = LINE('',#46,#47);
#46 = CARTESIAN_POINT('',(0.,-0.));
#47 = VECTOR('',#48,1.);
#48 = DIRECTION('',(0.,1.));
#49 = ( GEOMETRIC_REPRESENTATION_CONTEXT(2)
PARAMETRIC_REPRESENTATION_CONTEXT() REPRESENTATION_CONTEXT('2D SPACE',''
  ) );
#50 = ORIENTED_EDGE('',*,*,#51,.F.);
#51 = EDGE_CURVE('',#24,#24,#52,.T.);
#52 = SURFACE_CURVE('',#53,(#58,#65),.PCURVE_S1.);
#53 = CIRCLE('',#54,6.);
#54 = AXIS2_PLACEMENT_3D('',#55,#56,#57);
#55 = CARTESIAN_POINT('',(0.,0.,-2.));
#56 = DIRECTION('',(0.,0.,1.));
#57 = DIRECTION('',(1.,0.,-0.));
#58 = PCURVE('',#32,#59);
#59 = DEFINITIONAL_REPRESENTATION('',(#60),#64);
#60 = LINE('',#61,#62);
#61 = CARTESIAN_POINT('',(0.,7.953052393994));
#62 = VECTOR('',#63,1.);
#63 = DIRECTION('',(1.,0.));
#64 = ( GEOMETRIC_REPRESENTATION_CONTEXT(2)
PARAMETRIC_REPRESENTATION_CONTEXT() REPRESENTATION_CONTEXT('2D SPACE',''
  ) );
#65 = PCURVE('',#66,#71);
#66 = PLANE('',#67);
#67 = AXIS2_PLACEMENT_3D('',#68,#69,#70);
#68 = CARTESIAN_POINT('',(0.,0.,-2.));
#69 = DIRECTION('',(0.,0.,1.));
#70 = DIRECTION('',(1.,0.,-0.));
#71 = DEFINITIONAL_REPRESENTATION('',(#72),#76);
#72 = CIRCLE('',#73,6.);
#73 = AXIS2_PLACEMENT_2D('',#74,#75);
#74 = CARTESIAN_POINT('',(0.,0.));
#75 = DIRECTION('',(1.,0.));
#76 = ( GEOMETRIC_REPRESENTATION_CONTEXT(2)
PARAMETRIC_REPRESENTATION_CONTEXT() REPRESENTATION_CONTEXT('2D SPACE',''
  ) );
#77 = ORIENTED_EDGE('',*,*,#21,.F.);
#78 = ORIENTED_EDGE('',*,*,#79,.F.);
#79 = EDGE_CURVE('',#80,#22,#82,.T.);
#80 = VERTEX_POINT('',#81);
#81 = CARTESIAN_POINT('',(6.,-1.469576158977E-15,-6.75));
#82 = SURFACE_CURVE('',#83,(#110,#140),.PCURVE_S1.);
#83 = B_SPLINE_CURVE_WITH_KNOTS('',7,(#84,#85,#86,#87,#88,#89,#90,#91,
    #92,#93,#94,#95,#96,#97,#98,#99,#100,#101,#102,#103,#104,#105,#106,
    #107,#108,#109),.UNSPECIFIED.,.F.,.F.,(8,6,6,6,8),(0.,0.197891719464
    ,0.500003979565,0.802116239666,1.),.UNSPECIFIED.);
#84 = CARTESIAN_POINT('',(6.,4.536761061133E-16,-6.75));
#85 = CARTESIAN_POINT('',(6.,7.250108663199E-02,-6.75));
#86 = CARTESIAN_POINT('',(5.998978065401,0.144697067258,-6.741823218336)
  );
#87 = CARTESIAN_POINT('',(5.996948909923,0.215323332139,-6.725594382012)
  );
#88 = CARTESIAN_POINT('',(5.994035466253,0.283157902481,-6.701728442655)
  );
#89 = CARTESIAN_POINT('',(5.99045497092,0.347080558791,-6.670921345115)
  );
#90 = CARTESIAN_POINT('',(5.98647868546,0.406147322412,-6.634140685591)
  );
#91 = CARTESIAN_POINT('',(5.976085465532,0.541406629998,-6.529222812018)
  );
#92 = CARTESIAN_POINT('',(5.969461670743,0.610557565221,-6.454523206075)
  );
#93 = CARTESIAN_POINT('',(5.963278906612,0.666290972051,-6.37137431191)
  );
#94 = CARTESIAN_POINT('',(5.958206917575,0.708199646575,-6.28221102228)
  );
#95 = CARTESIAN_POINT('',(5.954691385951,0.736102140359,-6.189245205432)
  );
#96 = CARTESIAN_POINT('',(5.952940449895,0.75,-6.094521524768));
#97 = CARTESIAN_POINT('',(5.952940449895,0.75,-5.905478475232));
#98 = CARTESIAN_POINT('',(5.954691385951,0.736102140359,-5.810754794568)
  );
#99 = CARTESIAN_POINT('',(5.958206917575,0.708199646575,-5.71778897772)
  );
#100 = CARTESIAN_POINT('',(5.963278906612,0.666290972051,-5.628625688089
    ));
#101 = CARTESIAN_POINT('',(5.969461670743,0.610557565221,-5.545476793925
    ));
#102 = CARTESIAN_POINT('',(5.976085465532,0.541406629998,-5.470777187982
    ));
#103 = CARTESIAN_POINT('',(5.986478520019,0.406149475488,-5.365860984505
    ));
#104 = CARTESIAN_POINT('',(5.990454894077,0.347082140171,-5.329079152212
    ));
#105 = CARTESIAN_POINT('',(5.994035579572,0.283156978475,-5.298270508088
    ));
#106 = CARTESIAN_POINT('',(5.996949116794,0.215319432544,-5.274403958773
    ));
#107 = CARTESIAN_POINT('',(5.998978199626,0.144691379678,-5.258175705696
    ));
#108 = CARTESIAN_POINT('',(6.,7.249631077011E-02,-5.25));
#109 = CARTESIAN_POINT('',(6.,4.249154173236E-16,-5.25));
#110 = PCURVE('',#32,#111);
#111 = DEFINITIONAL_REPRESENTATION('',(#112),#139);
#112 = B_SPLINE_CURVE_WITH_KNOTS('',7,(#113,#114,#115,#116,#117,#118,
    #119,#120,#121,#122,#123,#124,#125,#126,#127,#128,#129,#130,#131,
    #132,#133,#134,#135,#136,#137,#138),.UNSPECIFIED.,.F.,.F.,(8,6,6,6,8
    ),(0.,0.197891719464,0.500003979565,0.802116239666,1.),
  .UNSPECIFIED.);
#113 = CARTESIAN_POINT('',(0.,3.203052393994));
#114 = CARTESIAN_POINT('',(1.208351443867E-02,3.203052393994));
#115 = CARTESIAN_POINT('',(2.411618335617E-02,3.211229175659));
#116 = CARTESIAN_POINT('',(3.589008759512E-02,3.227458011982));
#117 = CARTESIAN_POINT('',(4.720442538911E-02,3.251323951339));
#118 = CARTESIAN_POINT('',(5.787376244981E-02,3.282131048879));
#119 = CARTESIAN_POINT('',(6.774006686573E-02,3.318911708403));
#120 = CARTESIAN_POINT('',(9.034973743005E-02,3.423829581976));
#121 = CARTESIAN_POINT('',(0.101925594012,3.498529187919));
#122 = CARTESIAN_POINT('',(0.111270327529,3.581678082084));
#123 = CARTESIAN_POINT('',(0.118306046082,3.670841371714));
#124 = CARTESIAN_POINT('',(0.122993206921,3.763807188563));
#125 = CARTESIAN_POINT('',(0.125327831168,3.858530869226));
#126 = CARTESIAN_POINT('',(0.125327831168,4.047573918763));
#127 = CARTESIAN_POINT('',(0.122993206921,4.142297599426));
#128 = CARTESIAN_POINT('',(0.118306046082,4.235263416274));
#129 = CARTESIAN_POINT('',(0.111270327529,4.324426705905));
#130 = CARTESIAN_POINT('',(0.101925594012,4.40757560007));
#131 = CARTESIAN_POINT('',(9.034973743008E-02,4.482275206012));
#132 = CARTESIAN_POINT('',(6.774042676944E-02,4.587191409489));
#133 = CARTESIAN_POINT('',(5.787402619474E-02,4.623973241782));
#134 = CARTESIAN_POINT('',(4.720427059463E-02,4.654781885907));
#135 = CARTESIAN_POINT('',(3.588943700255E-02,4.678648435221));
#136 = CARTESIAN_POINT('',(2.411523547739E-02,4.694876688298));
#137 = CARTESIAN_POINT('',(1.208271846168E-02,4.703052393994));
#138 = CARTESIAN_POINT('',(0.,4.703052393994));
#139 = ( GEOMETRIC_REPRESENTATION_CONTEXT(2)
PARAMETRIC_REPRESENTATION_CONTEXT() REPRESENTATION_CONTEXT('2D SPACE',''
  ) );
#140 = PCURVE('',#141,#146);
#141 = CYLINDRICAL_SURFACE('',#142,0.75);
#142 = AXIS2_PLACEMENT_3D('',#143,#144,#145);
#143 = CARTESIAN_POINT('',(-25.,0.,-6.));
#144 = DIRECTION('',(1.,0.,0.));
#145 = DIRECTION('',(-0.,0.,1.));
#146 = DEFINITIONAL_REPRESENTATION('',(#147),#174);
#147 = B_SPLINE_CURVE_WITH_KNOTS('',7,(#148,#149,#150,#151,#152,#153,
    #154,#155,#156,#157,#158,#159,#160,#161,#162,#163,#164,#165,#166,
    #167,#168,#169,#170,#171,#172,#173),.UNSPECIFIED.,.F.,.F.,(8,6,6,6,8
    ),(0.,0.197891719464,0.500003979565,0.802116239666,1.),
  .UNSPECIFIED.);
#148 = CARTESIAN_POINT('',(3.14159265359,31.));
#149 = CARTESIAN_POINT('',(3.238260769099,31.));
#150 = CARTESIAN_POINT('',(3.334521718744,30.998978065401));
#151 = CARTESIAN_POINT('',(3.430166839897,30.996948909923));
#152 = CARTESIAN_POINT('',(3.524981274539,30.994035466253));
#153 = CARTESIAN_POINT('',(3.618707538686,30.99045497092));
#154 = CARTESIAN_POINT('',(3.710993835324,30.98647868546));
#155 = CARTESIAN_POINT('',(3.939234801492,30.976085465532));
#156 = CARTESIAN_POINT('',(4.073133577628,30.969461670743));
#157 = CARTESIAN_POINT('',(4.204083235889,30.963278906612));
#158 = CARTESIAN_POINT('',(4.332837516139,30.958206917575));
#159 = CARTESIAN_POINT('',(4.460062196626,30.954691385951));
#160 = CARTESIAN_POINT('',(4.586360280694,30.952940449895));
#161 = CARTESIAN_POINT('',(4.838417680076,30.952940449895));
#162 = CARTESIAN_POINT('',(4.964715764143,30.954691385951));
#163 = CARTESIAN_POINT('',(5.09194044463,30.958206917575));
#164 = CARTESIAN_POINT('',(5.220694724881,30.963278906612));
#165 = CARTESIAN_POINT('',(5.351644383141,30.969461670743));
#166 = CARTESIAN_POINT('',(5.485543159277,30.976085465532));
#167 = CARTESIAN_POINT('',(5.713780492276,30.986478520019));
#168 = CARTESIAN_POINT('',(5.806068347239,30.990454894077));
#169 = CARTESIAN_POINT('',(5.899798376799,30.994035579572));
#170 = CARTESIAN_POINT('',(5.994616607186,30.996949116794));
#171 = CARTESIAN_POINT('',(6.090263827084,30.998978199626));
#172 = CARTESIAN_POINT('',(6.186523559486,31.));
#173 = CARTESIAN_POINT('',(6.28318530718,31.));
#174 = ( GEOMETRIC_REPRESENTATION_CONTEXT(2)
PARAMETRIC_REPRESENTATION_CONTEXT() REPRESENTATION_CONTEXT('2D SPACE',''
  ) );
#175 = ORIENTED_EDGE('',*,*,#176,.F.);
#176 = EDGE_CURVE('',#177,#80,#179,.T.);
#177 = VERTEX_POINT('',#178);
#178 = CARTESIAN_POINT('',(6.,-1.469576158977E-15,-9.953052393994));
#179 = SEAM_CURVE('',#180,(#184,#191),.PCURVE_S1.);
#180 = LINE('',#181,#182);
#181 = CARTESIAN_POINT('',(6.,-1.469576158977E-15,-9.953052393994));
#182 = VECTOR('',#183,1.);
#183 = DIRECTION('',(0.,0.,1.));
#184 = PCURVE('',#32,#185);
#185 = DEFINITIONAL_REPRESENTATION('',(#186),#190);
#186 = LINE('',#187,#188);
#187 = CARTESIAN_POINT('',(6.28318530718,-0.));
#188 = VECTOR('',#189,1.);
#189 = DIRECTION('',(0.,1.));
#190 = ( GEOMETRIC_REPRESENTATION_CONTEXT(2)
PARAMETRIC_REPRESENTATION_CONTEXT() REPRESENTATION_CONTEXT('2D SPACE',''
  ) );
#191 = PCURVE('',#32,#192);
#192 = DEFINITIONAL_REPRESENTATION('',(#193),#197);
#193 = LINE('',#194,#195);
#194 = CARTESIAN_POINT('',(0.,-0.));
#195 = VECTOR('',#196,1.);
#196 = DIRECTION('',(0.,1.));
#197 = ( GEOMETRIC_REPRESENTATION_CONTEXT(2)
PARAMETRIC_REPRESENTATION_CONTEXT() REPRESENTATION_CONTEXT('2D SPACE',''
  ) );
#198 = ORIENTED_EDGE('',*,*,#199,.T.);
#199 = EDGE_CURVE('',#177,#177,#200,.T.);
#200 = SURFACE_CURVE('',#201,(#206,#213),.PCURVE_S1.);
#201 = CIRCLE('',#202,6.);
#202 = AXIS2_PLACEMENT_3D('',#203,#204,#205);
#203 = CARTESIAN_POINT('',(0.,0.,-9.953052393994));
#204 = DIRECTION('',(0.,0.,1.));
#205 = DIRECTION('',(1.,0.,-0.));
#206 = PCURVE('',#32,#207);
#207 = DEFINITIONAL_REPRESENTATION('',(#208),#212);
#208 = LINE('',#209,#210);
#209 = CARTESIAN_POINT('',(0.,0.));
#210 = VECTOR('',#211,1.);
#211 = DIRECTION('',(1.,0.));
#212 = ( GEOMETRIC_REPRESENTATION_CONTEXT(2)
PARAMETRIC_REPRESENTATION_CONTEXT() REPRESENTATION_CONTEXT('2D SPACE',''
  ) );
#213 = PCURVE('',#214,#219);
#214 = PLANE('',#215);
#215 = AXIS2_PLACEMENT_3D('',#216,#217,#218);
#216 = CARTESIAN_POINT('',(0.,0.,-9.953052393994));
#217 = DIRECTION('',(0.,0.,1.));
#218 = DIRECTION('',(1.,0.,-0.));
#219 = DEFINITIONAL_REPRESENTATION('',(#220),#224);
#220 = CIRCLE('',#221,6.);
#221 = AXIS2_PLACEMENT_2D('',#222,#223);
#222 = CARTESIAN_POINT('',(0.,0.));
#223 = DIRECTION('',(1.,0.));
#224 = ( GEOMETRIC_REPRESENTATION_CONTEXT(2)
PARAMETRIC_REPRESENTATION_CONTEXT() REPRESENTATION_CONTEXT('2D SPACE',''
  ) );
#225 = ORIENTED_EDGE('',*,*,#176,.T.);
#226 = ORIENTED_EDGE('',*,*,#227,.F.);
#227 = EDGE_CURVE('',#22,#80,#228,.T.);
#228 = SURFACE_CURVE('',#229,(#256,#286),.PCURVE_S1.);
#229 = B_SPLINE_CURVE_WITH_KNOTS('',7,(#230,#231,#232,#233,#234,#235,
    #236,#237,#238,#239,#240,#241,#242,#243,#244,#245,#246,#247,#248,
    #249,#250,#251,#252,#253,#254,#255),.UNSPECIFIED.,.F.,.F.,(8,6,6,6,8
    ),(0.,0.197898477844,0.500050420143,0.80214153513,1.),
  .UNSPECIFIED.);
#230 = CARTESIAN_POINT('',(6.,-3.330669073875E-16,-5.25));
#231 = CARTESIAN_POINT('',(6.,-7.2501086632E-02,-5.25));
#232 = CARTESIAN_POINT('',(5.998978065401,-0.144697067258,
    -5.258176781664));
#233 = CARTESIAN_POINT('',(5.996948909923,-0.215323332139,
    -5.274405617988));
#234 = CARTESIAN_POINT('',(5.994035466253,-0.283157902481,
    -5.298271557345));
#235 = CARTESIAN_POINT('',(5.99045497092,-0.347080558791,-5.329078654885
    ));
#236 = CARTESIAN_POINT('',(5.98647868546,-0.406147322412,-5.365859314409
    ));
#237 = CARTESIAN_POINT('',(5.976084855175,-0.541414573304,
    -5.470783349441));
#238 = CARTESIAN_POINT('',(5.969461026428,-0.610562617218,
    -5.545484801987));
#239 = CARTESIAN_POINT('',(5.963278979357,-0.666289166052,
    -5.628628161855));
#240 = CARTESIAN_POINT('',(5.958207732052,-0.708193104488,-5.71778060354
    ));
#241 = CARTESIAN_POINT('',(5.954692094665,-0.736096550248,
    -5.810736180731));
#242 = CARTESIAN_POINT('',(5.952940449895,-0.75,-5.905459442927));
#243 = CARTESIAN_POINT('',(5.952940449895,-0.75,-6.094521524768));
#244 = CARTESIAN_POINT('',(5.954691385951,-0.736102140359,
    -6.189245205432));
#245 = CARTESIAN_POINT('',(5.958206917575,-0.708199646575,-6.28221102228
    ));
#246 = CARTESIAN_POINT('',(5.963278906612,-0.666290972051,-6.37137431191
    ));
#247 = CARTESIAN_POINT('',(5.969461670743,-0.610557565221,
    -6.454523206075));
#248 = CARTESIAN_POINT('',(5.976085465532,-0.541406629998,
    -6.529222812018));
#249 = CARTESIAN_POINT('',(5.986478282095,-0.406152571874,
    -6.634136613692));
#250 = CARTESIAN_POINT('',(5.990454712464,-0.347085256918,
    -6.670919476401));
#251 = CARTESIAN_POINT('',(5.994035640522,-0.283157510988,-6.70173008096
    ));
#252 = CARTESIAN_POINT('',(5.996949335333,-0.21531611373,-6.725597781748
    ));
#253 = CARTESIAN_POINT('',(5.998978359969,-0.144685066495,
    -6.741825642639));
#254 = CARTESIAN_POINT('',(6.,-7.249037400614E-02,-6.75));
#255 = CARTESIAN_POINT('',(6.,-3.330669073875E-16,-6.75));
#256 = PCURVE('',#32,#257);
#257 = DEFINITIONAL_REPRESENTATION('',(#258),#285);
#258 = B_SPLINE_CURVE_WITH_KNOTS('',7,(#259,#260,#261,#262,#263,#264,
    #265,#266,#267,#268,#269,#270,#271,#272,#273,#274,#275,#276,#277,
    #278,#279,#280,#281,#282,#283,#284),.UNSPECIFIED.,.F.,.F.,(8,6,6,6,8
    ),(0.,0.197898477844,0.500050420143,0.80214153513,1.),
  .UNSPECIFIED.);
#259 = CARTESIAN_POINT('',(6.28318530718,4.703052393994));
#260 = CARTESIAN_POINT('',(6.271101792741,4.703052393994));
#261 = CARTESIAN_POINT('',(6.259069123823,4.69487561233));
#262 = CARTESIAN_POINT('',(6.247295219584,4.678646776006));
#263 = CARTESIAN_POINT('',(6.23598088179,4.654780836649));
#264 = CARTESIAN_POINT('',(6.22531154473,4.623973739109));
#265 = CARTESIAN_POINT('',(6.215445240314,4.587193079585));
#266 = CARTESIAN_POINT('',(6.192834241963,4.482269044553));
#267 = CARTESIAN_POINT('',(6.181258865632,4.407567592007));
#268 = CARTESIAN_POINT('',(6.171915278796,4.324424232139));
#269 = CARTESIAN_POINT('',(6.164880360835,4.235271790454));
#270 = CARTESIAN_POINT('',(6.160193038918,4.142316213263));
#271 = CARTESIAN_POINT('',(6.157857476012,4.047592951067));
#272 = CARTESIAN_POINT('',(6.157857476012,3.858530869226));
#273 = CARTESIAN_POINT('',(6.160192100259,3.763807188563));
#274 = CARTESIAN_POINT('',(6.164879261098,3.670841371714));
#275 = CARTESIAN_POINT('',(6.171914979651,3.581678082084));
#276 = CARTESIAN_POINT('',(6.181259713168,3.498529187919));
#277 = CARTESIAN_POINT('',(6.19283556975,3.423829581976));
#278 = CARTESIAN_POINT('',(6.215444362825,3.318915780303));
#279 = CARTESIAN_POINT('',(6.225310761,3.282132917594));
#280 = CARTESIAN_POINT('',(6.235980948313,3.251322313034));
#281 = CARTESIAN_POINT('',(6.247296423969,3.227454612246));
#282 = CARTESIAN_POINT('',(6.259071124172,3.211226751355));
#283 = CARTESIAN_POINT('',(6.271103578179,3.203052393994));
#284 = CARTESIAN_POINT('',(6.28318530718,3.203052393994));
#285 = ( GEOMETRIC_REPRESENTATION_CONTEXT(2)
PARAMETRIC_REPRESENTATION_CONTEXT() REPRESENTATION_CONTEXT('2D SPACE',''
  ) );
#286 = PCURVE('',#141,#287);
#287 = DEFINITIONAL_REPRESENTATION('',(#288),#315);
#288 = B_SPLINE_CURVE_WITH_KNOTS('',7,(#289,#290,#291,#292,#293,#294,
    #295,#296,#297,#298,#299,#300,#301,#302,#303,#304,#305,#306,#307,
    #308,#309,#310,#311,#312,#313,#314),.UNSPECIFIED.,.F.,.F.,(8,6,6,6,8
    ),(0.,0.197898477844,0.500050420143,0.80214153513,1.),
  .UNSPECIFIED.);
#289 = CARTESIAN_POINT('',(-8.881784197001E-16,31.));
#290 = CARTESIAN_POINT('',(9.666811550933E-02,31.));
#291 = CARTESIAN_POINT('',(0.192929065154,30.998978065401));
#292 = CARTESIAN_POINT('',(0.288574186307,30.996948909923));
#293 = CARTESIAN_POINT('',(0.383388620949,30.994035466253));
#294 = CARTESIAN_POINT('',(0.477114885097,30.99045497092));
#295 = CARTESIAN_POINT('',(0.569401181734,30.98647868546));
#296 = CARTESIAN_POINT('',(0.797655551696,30.976084855175));
#297 = CARTESIAN_POINT('',(0.931552799687,30.969461026428));
#298 = CARTESIAN_POINT('',(1.0624919219,30.963278979357));
#299 = CARTESIAN_POINT('',(1.191231777662,30.958207732052));
#300 = CARTESIAN_POINT('',(1.318444699824,30.954692094665));
#301 = CARTESIAN_POINT('',(1.444742250697,30.952940449895));
#302 = CARTESIAN_POINT('',(1.696825026486,30.952940449895));
#303 = CARTESIAN_POINT('',(1.823123110553,30.954691385951));
#304 = CARTESIAN_POINT('',(1.950347791041,30.958206917575));
#305 = CARTESIAN_POINT('',(2.07910207129,30.963278906612));
#306 = CARTESIAN_POINT('',(2.210051729551,30.969461670743));
#307 = CARTESIAN_POINT('',(2.343950505688,30.976085465532));
#308 = CARTESIAN_POINT('',(2.572182613744,30.986478282095));
#309 = CARTESIAN_POINT('',(2.664471274312,30.990454712464));
#310 = CARTESIAN_POINT('',(2.758205453376,30.994035640522));
#311 = CARTESIAN_POINT('',(2.853028746467,30.996949335333));
#312 = CARTESIAN_POINT('',(2.948679572207,30.998978359969));
#313 = CARTESIAN_POINT('',(3.044938821582,31.));
#314 = CARTESIAN_POINT('',(3.14159265359,31.));
#315 = ( GEOMETRIC_REPRESENTATION_CONTEXT(2)
PARAMETRIC_REPRESENTATION_CONTEXT() REPRESENTATION_CONTEXT('2D SPACE',''
  ) );
#316 = FACE_BOUND('',#317,.T.);
#317 = EDGE_LOOP('',(#318));
#318 = ORIENTED_EDGE('',*,*,#319,.T.);
#319 = EDGE_CURVE('',#320,#320,#322,.T.);
#320 = VERTEX_POINT('',#321);
#321 = CARTESIAN_POINT('',(-6.,1.836970198721E-16,-5.25));
#322 = SURFACE_CURVE('',#323,(#374,#428),.PCURVE_S1.);
#323 = B_SPLINE_CURVE_WITH_KNOTS('',7,(#324,#325,#326,#327,#328,#329,
    #330,#331,#332,#333,#334,#335,#336,#337,#338,#339,#340,#341,#342,
    #343,#344,#345,#346,#347,#348,#349,#350,#351,#352,#353,#354,#355,
    #356,#357,#358,#359,#360,#361,#362,#363,#364,#365,#366,#367,#368,
    #369,#370,#371,#372,#373),.UNSPECIFIED.,.T.,.F.,(8,6,6,6,6,6,6,6,8),
  (0.,9.895024273493E-02,0.250027746509,0.401074836318,0.500005072363,
    0.598949928316,0.750004525943,0.901059123571,1.),.UNSPECIFIED.);
#324 = CARTESIAN_POINT('',(-6.,7.771561172376E-16,-5.25));
#325 = CARTESIAN_POINT('',(-6.,-7.250108663199E-02,-5.25));
#326 = CARTESIAN_POINT('',(-5.998978065401,-0.144697067258,
    -5.258176781664));
#327 = CARTESIAN_POINT('',(-5.996948909923,-0.215323332139,
    -5.274405617988));
#328 = CARTESIAN_POINT('',(-5.994035466253,-0.283157902481,
    -5.298271557345));
#329 = CARTESIAN_POINT('',(-5.99045497092,-0.347080558791,
    -5.329078654885));
#330 = CARTESIAN_POINT('',(-5.98647868546,-0.406147322412,
    -5.365859314409));
#331 = CARTESIAN_POINT('',(-5.976084855175,-0.541414573304,
    -5.470783349441));
#332 = CARTESIAN_POINT('',(-5.969461026428,-0.610562617218,
    -5.545484801987));
#333 = CARTESIAN_POINT('',(-5.963278979357,-0.666289166053,
    -5.628628161855));
#334 = CARTESIAN_POINT('',(-5.958207732052,-0.708193104488,
    -5.71778060354));
#335 = CARTESIAN_POINT('',(-5.954692094665,-0.736096550248,
    -5.810736180731));
#336 = CARTESIAN_POINT('',(-5.952940449895,-0.75,-5.905459442927));
#337 = CARTESIAN_POINT('',(-5.952940449895,-0.75,-6.094521524768));
#338 = CARTESIAN_POINT('',(-5.954691385951,-0.736102140359,
    -6.189245205432));
#339 = CARTESIAN_POINT('',(-5.958206917575,-0.708199646575,
    -6.28221102228));
#340 = CARTESIAN_POINT('',(-5.963278906612,-0.666290972051,
    -6.371374311911));
#341 = CARTESIAN_POINT('',(-5.969461670743,-0.610557565221,
    -6.454523206075));
#342 = CARTESIAN_POINT('',(-5.976085465532,-0.541406629998,
    -6.529222812018));
#343 = CARTESIAN_POINT('',(-5.986478282095,-0.406152571873,
    -6.634136613692));
#344 = CARTESIAN_POINT('',(-5.990454712464,-0.347085256918,
    -6.670919476401));
#345 = CARTESIAN_POINT('',(-5.994035640522,-0.283157510988,
    -6.70173008096));
#346 = CARTESIAN_POINT('',(-5.996949335333,-0.21531611373,
    -6.725597781748));
#347 = CARTESIAN_POINT('',(-5.998978359969,-0.144685066495,
    -6.741825642639));
#348 = CARTESIAN_POINT('',(-6.,-7.249037400614E-02,-6.75));
#349 = CARTESIAN_POINT('',(-6.,7.250108663201E-02,-6.75));
#350 = CARTESIAN_POINT('',(-5.998978065401,0.144697067258,
    -6.741823218336));
#351 = CARTESIAN_POINT('',(-5.996948909923,0.215323332139,
    -6.725594382012));
#352 = CARTESIAN_POINT('',(-5.994035466253,0.283157902481,
    -6.701728442655));
#353 = CARTESIAN_POINT('',(-5.99045497092,0.347080558791,-6.670921345115
    ));
#354 = CARTESIAN_POINT('',(-5.98647868546,0.406147322412,-6.634140685591
    ));
#355 = CARTESIAN_POINT('',(-5.976085465532,0.541406629998,
    -6.529222812018));
#356 = CARTESIAN_POINT('',(-5.969461670743,0.610557565221,
    -6.454523206075));
#357 = CARTESIAN_POINT('',(-5.963278906612,0.666290972051,-6.37137431191
    ));
#358 = CARTESIAN_POINT('',(-5.958206917575,0.708199646575,-6.28221102228
    ));
#359 = CARTESIAN_POINT('',(-5.954691385951,0.736102140359,
    -6.189245205432));
#360 = CARTESIAN_POINT('',(-5.952940449895,0.75,-6.094521524768));
#361 = CARTESIAN_POINT('',(-5.952940449895,0.75,-5.905478475231));
#362 = CARTESIAN_POINT('',(-5.954691385951,0.736102140359,
    -5.810754794568));
#363 = CARTESIAN_POINT('',(-5.958206917575,0.708199646575,-5.71778897772
    ));
#364 = CARTESIAN_POINT('',(-5.963278906612,0.666290972052,-5.62862568809
    ));
#365 = CARTESIAN_POINT('',(-5.969461670743,0.61055756522,-5.545476793924
    ));
#366 = CARTESIAN_POINT('',(-5.976085465532,0.541406629998,
    -5.470777187982));
#367 = CARTESIAN_POINT('',(-5.986478520019,0.406149475488,
    -5.365860984505));
#368 = CARTESIAN_POINT('',(-5.990454894077,0.347082140171,
    -5.329079152212));
#369 = CARTESIAN_POINT('',(-5.994035579572,0.283156978475,
    -5.298270508088));
#370 = CARTESIAN_POINT('',(-5.996949116794,0.215319432544,
    -5.274403958773));
#371 = CARTESIAN_POINT('',(-5.998978199626,0.144691379678,
    -5.258175705696));
#372 = CARTESIAN_POINT('',(-6.,7.249631077009E-02,-5.25));
#373 = CARTESIAN_POINT('',(-6.,7.771561172376E-16,-5.25));
#374 = PCURVE('',#32,#375);
#375 = DEFINITIONAL_REPRESENTATION('',(#376),#427);
#376 = B_SPLINE_CURVE_WITH_KNOTS('',7,(#377,#378,#379,#380,#381,#382,
    #383,#384,#385,#386,#387,#388,#389,#390,#391,#392,#393,#394,#395,
    #396,#397,#398,#399,#400,#401,#402,#403,#404,#405,#406,#407,#408,
    #409,#410,#411,#412,#413,#414,#415,#416,#417,#418,#419,#420,#421,
    #422,#423,#424,#425,#426),.UNSPECIFIED.,.T.,.F.,(8,6,6,6,6,6,6,6,8),
  (0.,9.895024273493E-02,0.250027746509,0.401074836318,0.500005072363,
    0.598949928316,0.750004525943,0.901059123571,1.),.UNSPECIFIED.);
#377 = CARTESIAN_POINT('',(3.14159265359,4.703052393994));
#378 = CARTESIAN_POINT('',(3.153676168028,4.703052393994));
#379 = CARTESIAN_POINT('',(3.165708836946,4.69487561233));
#380 = CARTESIAN_POINT('',(3.177482741185,4.678646776006));
#381 = CARTESIAN_POINT('',(3.188797078979,4.654780836649));
#382 = CARTESIAN_POINT('',(3.19946641604,4.623973739109));
#383 = CARTESIAN_POINT('',(3.209332720456,4.587193079585));
#384 = CARTESIAN_POINT('',(3.231943718807,4.482269044553));
#385 = CARTESIAN_POINT('',(3.243519095137,4.407567592007));
#386 = CARTESIAN_POINT('',(3.252862681973,4.324424232139));
#387 = CARTESIAN_POINT('',(3.259897599934,4.235271790454));
#388 = CARTESIAN_POINT('',(3.264584921852,4.142316213263));
#389 = CARTESIAN_POINT('',(3.266920484758,4.047592951068));
#390 = CARTESIAN_POINT('',(3.266920484758,3.858530869226));
#391 = CARTESIAN_POINT('',(3.264585860511,3.763807188562));
#392 = CARTESIAN_POINT('',(3.259898699671,3.670841371714));
#393 = CARTESIAN_POINT('',(3.252862981119,3.581678082084));
#394 = CARTESIAN_POINT('',(3.243518247602,3.498529187919));
#395 = CARTESIAN_POINT('',(3.23194239102,3.423829581976));
#396 = CARTESIAN_POINT('',(3.209333597945,3.318915780302));
#397 = CARTESIAN_POINT('',(3.199467199769,3.282132917594));
#398 = CARTESIAN_POINT('',(3.188797012456,3.251322313034));
#399 = CARTESIAN_POINT('',(3.177481536801,3.227454612246));
#400 = CARTESIAN_POINT('',(3.165706836598,3.211226751355));
#401 = CARTESIAN_POINT('',(3.153674382591,3.203052393994));
#402 = CARTESIAN_POINT('',(3.129509139151,3.203052393994));
#403 = CARTESIAN_POINT('',(3.117476470234,3.211229175659));
#404 = CARTESIAN_POINT('',(3.105702565995,3.227458011982));
#405 = CARTESIAN_POINT('',(3.094388228201,3.251323951339));
#406 = CARTESIAN_POINT('',(3.08371889114,3.282131048879));
#407 = CARTESIAN_POINT('',(3.073852586724,3.318911708403));
#408 = CARTESIAN_POINT('',(3.05124291616,3.423829581976));
#409 = CARTESIAN_POINT('',(3.039667059578,3.498529187919));
#410 = CARTESIAN_POINT('',(3.030322326061,3.581678082084));
#411 = CARTESIAN_POINT('',(3.023286607508,3.670841371714));
#412 = CARTESIAN_POINT('',(3.018599446669,3.763807188563));
#413 = CARTESIAN_POINT('',(3.016264822422,3.858530869226));
#414 = CARTESIAN_POINT('',(3.016264822422,4.047573918763));
#415 = CARTESIAN_POINT('',(3.018599446669,4.142297599426));
#416 = CARTESIAN_POINT('',(3.023286607508,4.235263416274));
#417 = CARTESIAN_POINT('',(3.030322326061,4.324426705905));
#418 = CARTESIAN_POINT('',(3.039667059578,4.40757560007));
#419 = CARTESIAN_POINT('',(3.05124291616,4.482275206012));
#420 = CARTESIAN_POINT('',(3.07385222682,4.587191409489));
#421 = CARTESIAN_POINT('',(3.083718627395,4.623973241782));
#422 = CARTESIAN_POINT('',(3.094388382995,4.654781885907));
#423 = CARTESIAN_POINT('',(3.105703216587,4.678648435221));
#424 = CARTESIAN_POINT('',(3.117477418112,4.694876688298));
#425 = CARTESIAN_POINT('',(3.129509935128,4.703052393994));
#426 = CARTESIAN_POINT('',(3.14159265359,4.703052393994));
#427 = ( GEOMETRIC_REPRESENTATION_CONTEXT(2)
PARAMETRIC_REPRESENTATION_CONTEXT() REPRESENTATION_CONTEXT('2D SPACE',''
  ) );
#428 = PCURVE('',#429,#434);
#429 = CYLINDRICAL_SURFACE('',#430,0.75);
#430 = AXIS2_PLACEMENT_3D('',#431,#432,#433);
#431 = CARTESIAN_POINT('',(-25.,0.,-6.));
#432 = DIRECTION('',(1.,0.,0.));
#433 = DIRECTION('',(-0.,0.,1.));
#434 = DEFINITIONAL_REPRESENTATION('',(#435),#486);
#435 = B_SPLINE_CURVE_WITH_KNOTS('',7,(#436,#437,#438,#439,#440,#441,
    #442,#443,#444,#445,#446,#447,#448,#449,#450,#451,#452,#453,#454,
    #455,#456,#457,#458,#459,#460,#461,#462,#463,#464,#465,#466,#467,
    #468,#469,#470,#471,#472,#473,#474,#475,#476,#477,#478,#479,#480,
    #481,#482,#483,#484,#485),.UNSPECIFIED.,.F.,.F.,(8,6,6,6,6,6,6,6,8),
  (0.,9.895024273493E-02,0.250027746509,0.401074836318,0.500005072363,
    0.598949928316,0.750004525943,0.901059123571,1.),.UNSPECIFIED.);
#436 = CARTESIAN_POINT('',(-8.881784197001E-16,19.));
#437 = CARTESIAN_POINT('',(9.666811550932E-02,19.));
#438 = CARTESIAN_POINT('',(0.192929065154,19.001021934599));
#439 = CARTESIAN_POINT('',(0.288574186307,19.003051090077));
#440 = CARTESIAN_POINT('',(0.383388620949,19.005964533747));
#441 = CARTESIAN_POINT('',(0.477114885097,19.00954502908));
#442 = CARTESIAN_POINT('',(0.569401181734,19.01352131454));
#443 = CARTESIAN_POINT('',(0.797655551696,19.023915144825));
#444 = CARTESIAN_POINT('',(0.931552799687,19.030538973572));
#445 = CARTESIAN_POINT('',(1.0624919219,19.036721020643));
#446 = CARTESIAN_POINT('',(1.191231777661,19.041792267948));
#447 = CARTESIAN_POINT('',(1.318444699824,19.045307905335));
#448 = CARTESIAN_POINT('',(1.444742250697,19.047059550105));
#449 = CARTESIAN_POINT('',(1.696825026486,19.047059550105));
#450 = CARTESIAN_POINT('',(1.823123110554,19.045308614049));
#451 = CARTESIAN_POINT('',(1.95034779104,19.041793082425));
#452 = CARTESIAN_POINT('',(2.079102071291,19.036721093388));
#453 = CARTESIAN_POINT('',(2.210051729551,19.030538329257));
#454 = CARTESIAN_POINT('',(2.343950505688,19.023914534468));
#455 = CARTESIAN_POINT('',(2.572182613744,19.013521717905));
#456 = CARTESIAN_POINT('',(2.664471274312,19.009545287536));
#457 = CARTESIAN_POINT('',(2.758205453376,19.005964359478));
#458 = CARTESIAN_POINT('',(2.853028746467,19.003050664667));
#459 = CARTESIAN_POINT('',(2.948679572207,19.001021640031));
#460 = CARTESIAN_POINT('',(3.044938821582,19.));
#461 = CARTESIAN_POINT('',(3.238260769099,19.));
#462 = CARTESIAN_POINT('',(3.334521718744,19.001021934599));
#463 = CARTESIAN_POINT('',(3.430166839897,19.003051090077));
#464 = CARTESIAN_POINT('',(3.524981274539,19.005964533747));
#465 = CARTESIAN_POINT('',(3.618707538686,19.00954502908));
#466 = CARTESIAN_POINT('',(3.710993835324,19.01352131454));
#467 = CARTESIAN_POINT('',(3.939234801492,19.023914534468));
#468 = CARTESIAN_POINT('',(4.073133577629,19.030538329257));
#469 = CARTESIAN_POINT('',(4.204083235888,19.036721093388));
#470 = CARTESIAN_POINT('',(4.332837516139,19.041793082425));
#471 = CARTESIAN_POINT('',(4.460062196626,19.045308614049));
#472 = CARTESIAN_POINT('',(4.586360280694,19.047059550105));
#473 = CARTESIAN_POINT('',(4.838417680076,19.047059550105));
#474 = CARTESIAN_POINT('',(4.964715764143,19.045308614049));
#475 = CARTESIAN_POINT('',(5.09194044463,19.041793082425));
#476 = CARTESIAN_POINT('',(5.22069472488,19.036721093388));
#477 = CARTESIAN_POINT('',(5.351644383142,19.030538329257));
#478 = CARTESIAN_POINT('',(5.485543159277,19.023914534468));
#479 = CARTESIAN_POINT('',(5.713780492276,19.013521479981));
#480 = CARTESIAN_POINT('',(5.806068347239,19.009545105923));
#481 = CARTESIAN_POINT('',(5.899798376799,19.005964420428));
#482 = CARTESIAN_POINT('',(5.994616607186,19.003050883206));
#483 = CARTESIAN_POINT('',(6.090263827084,19.001021800374));
#484 = CARTESIAN_POINT('',(6.186523559486,19.));
#485 = CARTESIAN_POINT('',(6.28318530718,19.));
#486 = ( GEOMETRIC_REPRESENTATION_CONTEXT(2)
PARAMETRIC_REPRESENTATION_CONTEXT() REPRESENTATION_CONTEXT('2D SPACE',''
  ) );
#487 = ADVANCED_FACE('',(#488),#141,.T.);
#488 = FACE_BOUND('',#489,.T.);
#489 = EDGE_LOOP('',(#490,#491,#492,#515,#554,#588,#611,#778,#779,#813,
    #845));
#490 = ORIENTED_EDGE('',*,*,#227,.T.);
#491 = ORIENTED_EDGE('',*,*,#79,.T.);
#492 = ORIENTED_EDGE('',*,*,#493,.T.);
#493 = EDGE_CURVE('',#22,#494,#496,.T.);
#494 = VERTEX_POINT('',#495);
#495 = CARTESIAN_POINT('',(19.25,1.836970198721E-16,-5.25));
#496 = SEAM_CURVE('',#497,(#501,#508),.PCURVE_S1.);
#497 = LINE('',#498,#499);
#498 = CARTESIAN_POINT('',(-25.,1.836970198721E-16,-5.25));
#499 = VECTOR('',#500,1.);
#500 = DIRECTION('',(1.,0.,0.));
#501 = PCURVE('',#141,#502);
#502 = DEFINITIONAL_REPRESENTATION('',(#503),#507);
#503 = LINE('',#504,#505);
#504 = CARTESIAN_POINT('',(0.,-0.));
#505 = VECTOR('',#506,1.);
#506 = DIRECTION('',(0.,1.));
#507 = ( GEOMETRIC_REPRESENTATION_CONTEXT(2)
PARAMETRIC_REPRESENTATION_CONTEXT() REPRESENTATION_CONTEXT('2D SPACE',''
  ) );
#508 = PCURVE('',#141,#509);
#509 = DEFINITIONAL_REPRESENTATION('',(#510),#514);
#510 = LINE('',#511,#512);
#511 = CARTESIAN_POINT('',(6.28318530718,-0.));
#512 = VECTOR('',#513,1.);
#513 = DIRECTION('',(0.,1.));
#514 = ( GEOMETRIC_REPRESENTATION_CONTEXT(2)
PARAMETRIC_REPRESENTATION_CONTEXT() REPRESENTATION_CONTEXT('2D SPACE',''
  ) );
#515 = ORIENTED_EDGE('',*,*,#516,.F.);
#516 = EDGE_CURVE('',#517,#494,#519,.T.);
#517 = VERTEX_POINT('',#518);
#518 = CARTESIAN_POINT('',(20.,0.75,-6.));
#519 = SURFACE_CURVE('',#520,(#525,#537),.PCURVE_S1.);
#520 = ELLIPSE('',#521,1.06066017178,0.75);
#521 = AXIS2_PLACEMENT_3D('',#522,#523,#524);
#522 = CARTESIAN_POINT('',(20.,0.,-6.));
#523 = DIRECTION('',(0.707106781187,0.,0.707106781187));
#524 = DIRECTION('',(0.707106781187,0.,-0.707106781187));
#525 = PCURVE('',#141,#526);
#526 = DEFINITIONAL_REPRESENTATION('',(#527),#536);
#527 = B_SPLINE_CURVE_WITH_KNOTS('',7,(#528,#529,#530,#531,#532,#533,
    #534,#535),.UNSPECIFIED.,.F.,.F.,(8,8),(1.570795521561,3.14159265359
    ),.PIECEWISE_BEZIER_KNOTS.);
#528 = CARTESIAN_POINT('',(4.712388175151,45.000000603925));
#529 = CARTESIAN_POINT('',(4.936787765441,44.831700911208));
#530 = CARTESIAN_POINT('',(5.161187355731,44.663401866406));
#531 = CARTESIAN_POINT('',(5.38558694602,44.508940140621));
#532 = CARTESIAN_POINT('',(5.609986536312,44.382178257027));
#533 = CARTESIAN_POINT('',(5.834386126599,44.294061549636));
#534 = CARTESIAN_POINT('',(6.05878571689,44.25));
#535 = CARTESIAN_POINT('',(6.28318530718,44.25));
#536 = ( GEOMETRIC_REPRESENTATION_CONTEXT(2)
PARAMETRIC_REPRESENTATION_CONTEXT() REPRESENTATION_CONTEXT('2D SPACE',''
  ) );
#537 = PCURVE('',#538,#543);
#538 = CYLINDRICAL_SURFACE('',#539,0.75);
#539 = AXIS2_PLACEMENT_3D('',#540,#541,#542);
#540 = CARTESIAN_POINT('',(20.,0.,-6.));
#541 = DIRECTION('',(0.,0.,1.));
#542 = DIRECTION('',(1.,0.,-0.));
#543 = DEFINITIONAL_REPRESENTATION('',(#544),#553);
#544 = B_SPLINE_CURVE_WITH_KNOTS('',7,(#545,#546,#547,#548,#549,#550,
    #551,#552),.UNSPECIFIED.,.F.,.F.,(8,8),(1.570795521561,3.14159265359
    ),.PIECEWISE_BEZIER_KNOTS.);
#545 = CARTESIAN_POINT('',(1.570795521561,-6.039252475887E-07));
#546 = CARTESIAN_POINT('',(1.795195111851,0.168299088792));
#547 = CARTESIAN_POINT('',(2.019594702141,0.336598133591));
#548 = CARTESIAN_POINT('',(2.243994292429,0.491059859392));
#549 = CARTESIAN_POINT('',(2.468393882722,0.617821742964));
#550 = CARTESIAN_POINT('',(2.69279347301,0.705938450366));
#551 = CARTESIAN_POINT('',(2.9171930633,0.75));
#552 = CARTESIAN_POINT('',(3.14159265359,0.75));
#553 = ( GEOMETRIC_REPRESENTATION_CONTEXT(2)
PARAMETRIC_REPRESENTATION_CONTEXT() REPRESENTATION_CONTEXT('2D SPACE',''
  ) );
#554 = ORIENTED_EDGE('',*,*,#555,.T.);
#555 = EDGE_CURVE('',#517,#556,#558,.T.);
#556 = VERTEX_POINT('',#557);
#557 = CARTESIAN_POINT('',(20.75,9.860761315263E-32,-5.25));
#558 = SURFACE_CURVE('',#559,(#564,#576),.PCURVE_S1.);
#559 = ELLIPSE('',#560,1.06066017178,0.75);
#560 = AXIS2_PLACEMENT_3D('',#561,#562,#563);
#561 = CARTESIAN_POINT('',(20.,0.,-6.));
#562 = DIRECTION('',(0.707106781187,0.,-0.707106781187));
#563 = DIRECTION('',(0.707106781187,0.,0.707106781187));
#564 = PCURVE('',#141,#565);
#565 = DEFINITIONAL_REPRESENTATION('',(#566),#575);
#566 = B_SPLINE_CURVE_WITH_KNOTS('',7,(#567,#568,#569,#570,#571,#572,
    #573,#574),.UNSPECIFIED.,.F.,.F.,(8,8),(4.712388985618,6.28318530718
    ),.PIECEWISE_BEZIER_KNOTS.);
#567 = CARTESIAN_POINT('',(4.712388985618,45.000000003925));
#568 = CARTESIAN_POINT('',(4.936788460127,45.168299609807));
#569 = CARTESIAN_POINT('',(5.161187934637,45.336598532064));
#570 = CARTESIAN_POINT('',(5.385587409142,45.491060121027));
#571 = CARTESIAN_POINT('',(5.609986883656,45.617821879351));
#572 = CARTESIAN_POINT('',(5.834386358161,45.705938495837));
#573 = CARTESIAN_POINT('',(6.058785832671,45.75));
#574 = CARTESIAN_POINT('',(6.28318530718,45.75));
#575 = ( GEOMETRIC_REPRESENTATION_CONTEXT(2)
PARAMETRIC_REPRESENTATION_CONTEXT() REPRESENTATION_CONTEXT('2D SPACE',''
  ) );
#576 = PCURVE('',#538,#577);
#577 = DEFINITIONAL_REPRESENTATION('',(#578),#587);
#578 = B_SPLINE_CURVE_WITH_KNOTS('',7,(#579,#580,#581,#582,#583,#584,
    #585,#586),.UNSPECIFIED.,.F.,.F.,(8,8),(4.712388985618,6.28318530718
    ),.PIECEWISE_BEZIER_KNOTS.);
#579 = CARTESIAN_POINT('',(1.570796321561,3.925247682446E-09));
#580 = CARTESIAN_POINT('',(1.346396847052,0.168299609807));
#581 = CARTESIAN_POINT('',(1.121997372544,0.336598532063));
#582 = CARTESIAN_POINT('',(0.897597898035,0.49106012102));
#583 = CARTESIAN_POINT('',(0.673198423526,0.61782187935));
#584 = CARTESIAN_POINT('',(0.448798949018,0.705938495836));
#585 = CARTESIAN_POINT('',(0.224399474509,0.75));
#586 = CARTESIAN_POINT('',(2.449293598295E-16,0.75));
#587 = ( GEOMETRIC_REPRESENTATION_CONTEXT(2)
PARAMETRIC_REPRESENTATION_CONTEXT() REPRESENTATION_CONTEXT('2D SPACE',''
  ) );
#588 = ORIENTED_EDGE('',*,*,#589,.T.);
#589 = EDGE_CURVE('',#556,#590,#592,.T.);
#590 = VERTEX_POINT('',#591);
#591 = CARTESIAN_POINT('',(110.,1.836970198721E-16,-5.25));
#592 = SEAM_CURVE('',#593,(#597,#604),.PCURVE_S1.);
#593 = LINE('',#594,#595);
#594 = CARTESIAN_POINT('',(-25.,1.836970198721E-16,-5.25));
#595 = VECTOR('',#596,1.);
#596 = DIRECTION('',(1.,0.,0.));
#597 = PCURVE('',#141,#598);
#598 = DEFINITIONAL_REPRESENTATION('',(#599),#603);
#599 = LINE('',#600,#601);
#600 = CARTESIAN_POINT('',(0.,-0.));
#601 = VECTOR('',#602,1.);
#602 = DIRECTION('',(0.,1.));
#603 = ( GEOMETRIC_REPRESENTATION_CONTEXT(2)
PARAMETRIC_REPRESENTATION_CONTEXT() REPRESENTATION_CONTEXT('2D SPACE',''
  ) );
#604 = PCURVE('',#141,#605);
#605 = DEFINITIONAL_REPRESENTATION('',(#606),#610);
#606 = LINE('',#607,#608);
#607 = CARTESIAN_POINT('',(6.28318530718,-0.));
#608 = VECTOR('',#609,1.);
#609 = DIRECTION('',(0.,1.));
#610 = ( GEOMETRIC_REPRESENTATION_CONTEXT(2)
PARAMETRIC_REPRESENTATION_CONTEXT() REPRESENTATION_CONTEXT('2D SPACE',''
  ) );
#611 = ORIENTED_EDGE('',*,*,#612,.F.);
#612 = EDGE_CURVE('',#590,#590,#613,.T.);
#613 = SURFACE_CURVE('',#614,(#665,#719),.PCURVE_S1.);
#614 = B_SPLINE_CURVE_WITH_KNOTS('',7,(#615,#616,#617,#618,#619,#620,
    #621,#622,#623,#624,#625,#626,#627,#628,#629,#630,#631,#632,#633,
    #634,#635,#636,#637,#638,#639,#640,#641,#642,#643,#644,#645,#646,
    #647,#648,#649,#650,#651,#652,#653,#654,#655,#656,#657,#658,#659,
    #660,#661,#662,#663,#664),.UNSPECIFIED.,.T.,.F.,(8,6,6,6,6,6,6,6,8),
  (0.,0.103740697246,0.250027615696,0.396287022218,0.500011209043,
    0.603745177728,0.750013793693,0.89627428014,1.),.UNSPECIFIED.);
#615 = CARTESIAN_POINT('',(110.,1.33226762955E-15,-5.25));
#616 = CARTESIAN_POINT('',(110.,-7.614621786684E-02,-5.25));
#617 = CARTESIAN_POINT('',(110.00067632303,-0.151921595917,
    -5.259019699799));
#618 = CARTESIAN_POINT('',(110.00201785348,-0.225874151573,
    -5.276899785571));
#619 = CARTESIAN_POINT('',(110.00393407539,-0.29660886034,
    -5.303137836583));
#620 = CARTESIAN_POINT('',(110.00626765383,-0.36286029436,-5.33690121334
    ));
#621 = CARTESIAN_POINT('',(110.00882630958,-0.423584196831,
    -5.377042152407));
#622 = CARTESIAN_POINT('',(110.01511112741,-0.554896727396,
    -5.485673325098));
#623 = CARTESIAN_POINT('',(110.01890345585,-0.619694000646,
    -5.559350322554));
#624 = CARTESIAN_POINT('',(110.02239132994,-0.671812532649,
    -5.640567133787));
#625 = CARTESIAN_POINT('',(110.02522816479,-0.710957805847,
    -5.727140007687));
#626 = CARTESIAN_POINT('',(110.02718792755,-0.737013357704,
    -5.81709827365));
#627 = CARTESIAN_POINT('',(110.02816466241,-0.75,-5.908629603313));
#628 = CARTESIAN_POINT('',(110.02816466241,-0.75,-6.091353212814));
#629 = CARTESIAN_POINT('',(110.0271882969,-0.737018237286,
    -6.182884806219));
#630 = CARTESIAN_POINT('',(110.02522859287,-0.710963567526,
    -6.272852211414));
#631 = CARTESIAN_POINT('',(110.02239138107,-0.671814192648,
    -6.359434917219));
#632 = CARTESIAN_POINT('',(110.01890312082,-0.619689645717,
    -6.440656930401));
#633 = CARTESIAN_POINT('',(110.01511079259,-0.554889731676,
    -6.514332462264));
#634 = CARTESIAN_POINT('',(110.00882647161,-0.423587582226,
    -6.62295504695));
#635 = CARTESIAN_POINT('',(110.00626777121,-0.362863596481,
    -6.663097316978));
#636 = CARTESIAN_POINT('',(110.00393401923,-0.296609008402,
    -6.696863113789));
#637 = CARTESIAN_POINT('',(110.00201768342,-0.225869764058,
    -6.723102505917));
#638 = CARTESIAN_POINT('',(110.00067619656,-0.151913816811,
    -6.740981999259));
#639 = CARTESIAN_POINT('',(110.,-7.61390374645E-02,-6.75));
#640 = CARTESIAN_POINT('',(110.,7.614621786684E-02,-6.75));
#641 = CARTESIAN_POINT('',(110.00067632303,0.151921595917,
    -6.740980300201));
#642 = CARTESIAN_POINT('',(110.00201785348,0.225874151573,
    -6.723100214429));
#643 = CARTESIAN_POINT('',(110.00393407539,0.29660886034,-6.696862163417
    ));
#644 = CARTESIAN_POINT('',(110.00626765383,0.36286029436,-6.66309878666)
  );
#645 = CARTESIAN_POINT('',(110.00882630958,0.423584196831,
    -6.622957847593));
#646 = CARTESIAN_POINT('',(110.01511090584,0.554892097842,
    -6.514330504802));
#647 = CARTESIAN_POINT('',(110.01890321726,0.619690769766,-6.44065476547
    ));
#648 = CARTESIAN_POINT('',(110.02239133646,0.671813290248,
    -6.359434834965));
#649 = CARTESIAN_POINT('',(110.02522844799,0.710961639356,
    -6.272855255919));
#650 = CARTESIAN_POINT('',(110.0271881884,0.737016795325,-6.182890248056
    ));
#651 = CARTESIAN_POINT('',(110.02816466241,0.75,-6.091358290449));
#652 = CARTESIAN_POINT('',(110.02816466241,0.75,-5.908646787186));
#653 = CARTESIAN_POINT('',(110.0271882969,0.737018237286,-5.817115193781
    ));
#654 = CARTESIAN_POINT('',(110.02522859287,0.710963567526,
    -5.727147788586));
#655 = CARTESIAN_POINT('',(110.02239138107,0.671814192648,
    -5.640565082781));
#656 = CARTESIAN_POINT('',(110.01890312082,0.619689645717,
    -5.559343069599));
#657 = CARTESIAN_POINT('',(110.01511079259,0.554889731676,
    -5.485667537735));
#658 = CARTESIAN_POINT('',(110.00882645232,0.423587179277,
    -5.377044619701));
#659 = CARTESIAN_POINT('',(110.00626772958,0.362862646289,-5.3369020496)
  );
#660 = CARTESIAN_POINT('',(110.00393398605,0.29660786296,-5.303136432251
    ));
#661 = CARTESIAN_POINT('',(110.00201767839,0.225869033994,
    -5.276897443828));
#662 = CARTESIAN_POINT('',(110.00067620827,0.151913907327,
    -5.259018151277));
#663 = CARTESIAN_POINT('',(110.,7.613967974397E-02,-5.25));
#664 = CARTESIAN_POINT('',(110.,1.33226762955E-15,-5.25));
#665 = PCURVE('',#141,#666);
#666 = DEFINITIONAL_REPRESENTATION('',(#667),#718);
#667 = B_SPLINE_CURVE_WITH_KNOTS('',7,(#668,#669,#670,#671,#672,#673,
    #674,#675,#676,#677,#678,#679,#680,#681,#682,#683,#684,#685,#686,
    #687,#688,#689,#690,#691,#692,#693,#694,#695,#696,#697,#698,#699,
    #700,#701,#702,#703,#704,#705,#706,#707,#708,#709,#710,#711,#712,
    #713,#714,#715,#716,#717),.UNSPECIFIED.,.F.,.F.,(8,6,6,6,6,6,6,6,8),
  (0.,0.103740697246,0.250027615696,0.396287022218,0.500011209043,
    0.603745177728,0.750013793693,0.89627428014,1.),.UNSPECIFIED.);
#668 = CARTESIAN_POINT('',(-1.7763568394E-15,135.));
#669 = CARTESIAN_POINT('',(0.101528290489,135.));
#670 = CARTESIAN_POINT('',(0.202561682212,135.00067632303));
#671 = CARTESIAN_POINT('',(0.302876112944,135.00201785348));
#672 = CARTESIAN_POINT('',(0.402239526178,135.00393407539));
#673 = CARTESIAN_POINT('',(0.500369015191,135.00626765383));
#674 = CARTESIAN_POINT('',(0.596868992365,135.00882630958));
#675 = CARTESIAN_POINT('',(0.824098538032,135.01511112741));
#676 = CARTESIAN_POINT('',(0.953286284717,135.01890345585));
#677 = CARTESIAN_POINT('',(1.079693173776,135.02239132994));
#678 = CARTESIAN_POINT('',(1.204029282864,135.02522816479));
#679 = CARTESIAN_POINT('',(1.326927464527,135.02718792755));
#680 = CARTESIAN_POINT('',(1.448969131212,135.02816466241));
#681 = CARTESIAN_POINT('',(1.692600610547,135.02816466241));
#682 = CARTESIAN_POINT('',(1.81464261006,135.0271882969));
#683 = CARTESIAN_POINT('',(1.937551371779,135.02522859287));
#684 = CARTESIAN_POINT('',(2.061900542667,135.02239138107));
#685 = CARTESIAN_POINT('',(2.188317014212,135.01890312082));
#686 = CARTESIAN_POINT('',(2.317506221289,135.01511079259));
#687 = CARTESIAN_POINT('',(2.544717802974,135.00882647161));
#688 = CARTESIAN_POINT('',(2.6412189889,135.00626777121));
#689 = CARTESIAN_POINT('',(2.739353537446,135.00393401923));
#690 = CARTESIAN_POINT('',(2.838722873824,135.00201768342));
#691 = CARTESIAN_POINT('',(2.939041337825,135.00067619656));
#692 = CARTESIAN_POINT('',(3.04007393697,135.));
#693 = CARTESIAN_POINT('',(3.243120944079,135.));
#694 = CARTESIAN_POINT('',(3.344154335802,135.00067632303));
#695 = CARTESIAN_POINT('',(3.444468766534,135.00201785348));
#696 = CARTESIAN_POINT('',(3.543832179768,135.00393407539));
#697 = CARTESIAN_POINT('',(3.641961668781,135.00626765383));
#698 = CARTESIAN_POINT('',(3.738461645955,135.00882630958));
#699 = CARTESIAN_POINT('',(3.965683180417,135.01511090584));
#700 = CARTESIAN_POINT('',(4.094871287932,135.01890321726));
#701 = CARTESIAN_POINT('',(4.221284259895,135.02239133646));
#702 = CARTESIAN_POINT('',(4.345629386715,135.02522844799));
#703 = CARTESIAN_POINT('',(4.468535440346,135.0271881884));
#704 = CARTESIAN_POINT('',(4.590577926452,135.02816466241));
#705 = CARTESIAN_POINT('',(4.834193264137,135.02816466241));
#706 = CARTESIAN_POINT('',(4.95623526365,135.0271882969));
#707 = CARTESIAN_POINT('',(5.079144025369,135.02522859287));
#708 = CARTESIAN_POINT('',(5.203493196257,135.02239138107));
#709 = CARTESIAN_POINT('',(5.329909667801,135.01890312082));
#710 = CARTESIAN_POINT('',(5.459098874879,135.01511079259));
#711 = CARTESIAN_POINT('',(5.686311153846,135.00882645232));
#712 = CARTESIAN_POINT('',(5.782813159592,135.00626772958));
#713 = CARTESIAN_POINT('',(5.880947784384,135.00393398605));
#714 = CARTESIAN_POINT('',(5.980316451671,135.00201767839));
#715 = CARTESIAN_POINT('',(6.080633875481,135.00067620827));
#716 = CARTESIAN_POINT('',(6.181665734188,135.));
#717 = CARTESIAN_POINT('',(6.28318530718,135.));
#718 = ( GEOMETRIC_REPRESENTATION_CONTEXT(2)
PARAMETRIC_REPRESENTATION_CONTEXT() REPRESENTATION_CONTEXT('2D SPACE',''
  ) );
#719 = PCURVE('',#720,#725);
#720 = CYLINDRICAL_SURFACE('',#721,10.);
#721 = AXIS2_PLACEMENT_3D('',#722,#723,#724);
#722 = CARTESIAN_POINT('',(120.,0.,-21.91549430919));
#723 = DIRECTION('',(0.,0.,1.));
#724 = DIRECTION('',(1.,0.,-0.));
#725 = DEFINITIONAL_REPRESENTATION('',(#726),#777);
#726 = B_SPLINE_CURVE_WITH_KNOTS('',7,(#727,#728,#729,#730,#731,#732,
    #733,#734,#735,#736,#737,#738,#739,#740,#741,#742,#743,#744,#745,
    #746,#747,#748,#749,#750,#751,#752,#753,#754,#755,#756,#757,#758,
    #759,#760,#761,#762,#763,#764,#765,#766,#767,#768,#769,#770,#771,
    #772,#773,#774,#775,#776),.UNSPECIFIED.,.T.,.F.,(8,6,6,6,6,6,6,6,8),
  (0.,0.103740697246,0.250027615696,0.396287022218,0.500011209043,
    0.603745177728,0.750013793693,0.89627428014,1.),.UNSPECIFIED.);
#727 = CARTESIAN_POINT('',(3.14159265359,16.66549430919));
#728 = CARTESIAN_POINT('',(3.149207275376,16.66549430919));
#729 = CARTESIAN_POINT('',(3.15678481453,16.656474609391));
#730 = CARTESIAN_POINT('',(3.164180785697,16.638594523619));
#731 = CARTESIAN_POINT('',(3.171256399372,16.612356472606));
#732 = CARTESIAN_POINT('',(3.177885385081,16.578593095849));
#733 = CARTESIAN_POINT('',(3.183963065553,16.538452156782));
#734 = CARTESIAN_POINT('',(3.197109350055,16.429820984091));
#735 = CARTESIAN_POINT('',(3.203599797685,16.356143986636));
#736 = CARTESIAN_POINT('',(3.208823113169,16.274927175403));
#737 = CARTESIAN_POINT('',(3.212747900117,16.188354301503));
#738 = CARTESIAN_POINT('',(3.215360812023,16.09839603554));
#739 = CARTESIAN_POINT('',(3.216663144667,16.006864705876));
#740 = CARTESIAN_POINT('',(3.216663144667,15.824141096376));
#741 = CARTESIAN_POINT('',(3.215361301301,15.732609502971));
#742 = CARTESIAN_POINT('',(3.21274847803,15.642642097776));
#743 = CARTESIAN_POINT('',(3.208823278917,15.556059391971));
#744 = CARTESIAN_POINT('',(3.203599361121,15.474837378788));
#745 = CARTESIAN_POINT('',(3.197108649682,15.401161846925));
#746 = CARTESIAN_POINT('',(3.18396340448,15.292539262239));
#747 = CARTESIAN_POINT('',(3.177885715449,15.252396992212));
#748 = CARTESIAN_POINT('',(3.171256413981,15.2186311954));
#749 = CARTESIAN_POINT('',(3.164180346727,15.192391803272));
#750 = CARTESIAN_POINT('',(3.15678403661,15.174512309931));
#751 = CARTESIAN_POINT('',(3.149206557336,15.16549430919));
#752 = CARTESIAN_POINT('',(3.133978031803,15.16549430919));
#753 = CARTESIAN_POINT('',(3.126400492649,15.174514008988));
#754 = CARTESIAN_POINT('',(3.119004521483,15.19239409476));
#755 = CARTESIAN_POINT('',(3.111928907807,15.218632145773));
#756 = CARTESIAN_POINT('',(3.105299922099,15.25239552253));
#757 = CARTESIAN_POINT('',(3.099222241626,15.292536461597));
#758 = CARTESIAN_POINT('',(3.08607642061,15.401163804387));
#759 = CARTESIAN_POINT('',(3.079585833319,15.474839543719));
#760 = CARTESIAN_POINT('',(3.074362118552,15.556059474225));
#761 = CARTESIAN_POINT('',(3.070437022523,15.642639053271));
#762 = CARTESIAN_POINT('',(3.067824150479,15.732604061134));
#763 = CARTESIAN_POINT('',(3.066522162513,15.82413601874));
#764 = CARTESIAN_POINT('',(3.066522162513,16.006847522003));
#765 = CARTESIAN_POINT('',(3.067824005879,16.098379115409));
#766 = CARTESIAN_POINT('',(3.07043682915,16.188346520603));
#767 = CARTESIAN_POINT('',(3.074362028262,16.274929226408));
#768 = CARTESIAN_POINT('',(3.079585946058,16.35615123959));
#769 = CARTESIAN_POINT('',(3.086076657498,16.429826771454));
#770 = CARTESIAN_POINT('',(3.09922194304,16.538449689488));
#771 = CARTESIAN_POINT('',(3.105299686827,16.578592259589));
#772 = CARTESIAN_POINT('',(3.111929007786,16.612357876938));
#773 = CARTESIAN_POINT('',(3.119005033455,16.638596865362));
#774 = CARTESIAN_POINT('',(3.126401261499,16.656476157913));
#775 = CARTESIAN_POINT('',(3.133978685615,16.66549430919));
#776 = CARTESIAN_POINT('',(3.14159265359,16.66549430919));
#777 = ( GEOMETRIC_REPRESENTATION_CONTEXT(2)
PARAMETRIC_REPRESENTATION_CONTEXT() REPRESENTATION_CONTEXT('2D SPACE',''
  ) );
#778 = ORIENTED_EDGE('',*,*,#589,.F.);
#779 = ORIENTED_EDGE('',*,*,#780,.T.);
#780 = EDGE_CURVE('',#556,#781,#783,.T.);
#781 = VERTEX_POINT('',#782);
#782 = CARTESIAN_POINT('',(20.,-0.75,-6.));
#783 = SURFACE_CURVE('',#784,(#789,#801),.PCURVE_S1.);
#784 = ELLIPSE('',#785,1.06066017178,0.75);
#785 = AXIS2_PLACEMENT_3D('',#786,#787,#788);
#786 = CARTESIAN_POINT('',(20.,0.,-6.));
#787 = DIRECTION('',(0.707106781187,0.,-0.707106781187));
#788 = DIRECTION('',(0.707106781187,0.,0.707106781187));
#789 = PCURVE('',#141,#790);
#790 = DEFINITIONAL_REPRESENTATION('',(#791),#800);
#791 = B_SPLINE_CURVE_WITH_KNOTS('',7,(#792,#793,#794,#795,#796,#797,
    #798,#799),.UNSPECIFIED.,.F.,.F.,(8,8),(0.,1.570797132029),
  .PIECEWISE_BEZIER_KNOTS.);
#792 = CARTESIAN_POINT('',(0.,45.75));
#793 = CARTESIAN_POINT('',(0.22439959029,45.75));
#794 = CARTESIAN_POINT('',(0.44879918058,45.705938450366));
#795 = CARTESIAN_POINT('',(0.673198770869,45.61782174297));
#796 = CARTESIAN_POINT('',(0.897598361159,45.491059859406));
#797 = CARTESIAN_POINT('',(1.121997951449,45.336598133589));
#798 = CARTESIAN_POINT('',(1.346397541739,45.168299088792));
#799 = CARTESIAN_POINT('',(1.570797132029,44.999999396075));
#800 = ( GEOMETRIC_REPRESENTATION_CONTEXT(2)
PARAMETRIC_REPRESENTATION_CONTEXT() REPRESENTATION_CONTEXT('2D SPACE',''
  ) );
#801 = PCURVE('',#538,#802);
#802 = DEFINITIONAL_REPRESENTATION('',(#803),#812);
#803 = B_SPLINE_CURVE_WITH_KNOTS('',7,(#804,#805,#806,#807,#808,#809,
    #810,#811),.UNSPECIFIED.,.F.,.F.,(8,8),(0.,1.570797132029),
  .PIECEWISE_BEZIER_KNOTS.);
#804 = CARTESIAN_POINT('',(6.28318530718,0.75));
#805 = CARTESIAN_POINT('',(6.05878571689,0.75));
#806 = CARTESIAN_POINT('',(5.8343861266,0.705938450366));
#807 = CARTESIAN_POINT('',(5.60998653631,0.617821742964));
#808 = CARTESIAN_POINT('',(5.38558694602,0.491059859392));
#809 = CARTESIAN_POINT('',(5.161187355731,0.336598133591));
#810 = CARTESIAN_POINT('',(4.936787765441,0.168299088792));
#811 = CARTESIAN_POINT('',(4.712388175151,-6.039252475887E-07));
#812 = ( GEOMETRIC_REPRESENTATION_CONTEXT(2)
PARAMETRIC_REPRESENTATION_CONTEXT() REPRESENTATION_CONTEXT('2D SPACE',''
  ) );
#813 = ORIENTED_EDGE('',*,*,#814,.F.);
#814 = EDGE_CURVE('',#494,#781,#815,.T.);
#815 = SURFACE_CURVE('',#816,(#821,#833),.PCURVE_S1.);
#816 = ELLIPSE('',#817,1.06066017178,0.75);
#817 = AXIS2_PLACEMENT_3D('',#818,#819,#820);
#818 = CARTESIAN_POINT('',(20.,0.,-6.));
#819 = DIRECTION('',(0.707106781187,0.,0.707106781187));
#820 = DIRECTION('',(0.707106781187,0.,-0.707106781187));
#821 = PCURVE('',#141,#822);
#822 = DEFINITIONAL_REPRESENTATION('',(#823),#832);
#823 = B_SPLINE_CURVE_WITH_KNOTS('',7,(#824,#825,#826,#827,#828,#829,
    #830,#831),.UNSPECIFIED.,.F.,.F.,(8,8),(3.14159265359,4.712388975151
    ),.PIECEWISE_BEZIER_KNOTS.);
#824 = CARTESIAN_POINT('',(-8.881784197001E-16,44.25));
#825 = CARTESIAN_POINT('',(0.224399474509,44.25));
#826 = CARTESIAN_POINT('',(0.448798949017,44.294061504165));
#827 = CARTESIAN_POINT('',(0.673198423526,44.382178120647));
#828 = CARTESIAN_POINT('',(0.897597898035,44.50893987899));
#829 = CARTESIAN_POINT('',(1.121997372544,44.663401467935));
#830 = CARTESIAN_POINT('',(1.346396847052,44.831700390193));
#831 = CARTESIAN_POINT('',(1.570796321561,44.999999996075));
#832 = ( GEOMETRIC_REPRESENTATION_CONTEXT(2)
PARAMETRIC_REPRESENTATION_CONTEXT() REPRESENTATION_CONTEXT('2D SPACE',''
  ) );
#833 = PCURVE('',#538,#834);
#834 = DEFINITIONAL_REPRESENTATION('',(#835),#844);
#835 = B_SPLINE_CURVE_WITH_KNOTS('',7,(#836,#837,#838,#839,#840,#841,
    #842,#843),.UNSPECIFIED.,.F.,.F.,(8,8),(3.14159265359,4.712388975151
    ),.PIECEWISE_BEZIER_KNOTS.);
#836 = CARTESIAN_POINT('',(3.14159265359,0.75));
#837 = CARTESIAN_POINT('',(3.365992128099,0.75));
#838 = CARTESIAN_POINT('',(3.590391602607,0.705938495836));
#839 = CARTESIAN_POINT('',(3.814791077116,0.61782187935));
#840 = CARTESIAN_POINT('',(4.039190551625,0.49106012102));
#841 = CARTESIAN_POINT('',(4.263590026133,0.336598532062));
#842 = CARTESIAN_POINT('',(4.487989500642,0.168299609807));
#843 = CARTESIAN_POINT('',(4.712388975151,3.925247682446E-09));
#844 = ( GEOMETRIC_REPRESENTATION_CONTEXT(2)
PARAMETRIC_REPRESENTATION_CONTEXT() REPRESENTATION_CONTEXT('2D SPACE',''
  ) );
#845 = ORIENTED_EDGE('',*,*,#493,.F.);
#846 = ADVANCED_FACE('',(#847),#214,.F.);
#847 = FACE_BOUND('',#848,.T.);
#848 = EDGE_LOOP('',(#849));
#849 = ORIENTED_EDGE('',*,*,#199,.F.);
#850 = ADVANCED_FACE('',(#851,#854),#66,.T.);
#851 = FACE_BOUND('',#852,.T.);
#852 = EDGE_LOOP('',(#853));
#853 = ORIENTED_EDGE('',*,*,#51,.T.);
#854 = FACE_BOUND('',#855,.T.);
#855 = EDGE_LOOP('',(#856));
#856 = ORIENTED_EDGE('',*,*,#857,.F.);
#857 = EDGE_CURVE('',#858,#858,#860,.T.);
#858 = VERTEX_POINT('',#859);
#859 = CARTESIAN_POINT('',(4.,-9.797174393179E-16,-2.));
#860 = SURFACE_CURVE('',#861,(#866,#873),.PCURVE_S1.);
#861 = CIRCLE('',#862,4.);
#862 = AXIS2_PLACEMENT_3D('',#863,#864,#865);
#863 = CARTESIAN_POINT('',(0.,0.,-2.));
#864 = DIRECTION('',(0.,0.,1.));
#865 = DIRECTION('',(1.,0.,-0.));
#866 = PCURVE('',#66,#867);
#867 = DEFINITIONAL_REPRESENTATION('',(#868),#872);
#868 = CIRCLE('',#869,4.);
#869 = AXIS2_PLACEMENT_2D('',#870,#871);
#870 = CARTESIAN_POINT('',(0.,0.));
#871 = DIRECTION('',(1.,0.));
#872 = ( GEOMETRIC_REPRESENTATION_CONTEXT(2)
PARAMETRIC_REPRESENTATION_CONTEXT() REPRESENTATION_CONTEXT('2D SPACE',''
  ) );
#873 = PCURVE('',#874,#879);
#874 = CYLINDRICAL_SURFACE('',#875,4.);
#875 = AXIS2_PLACEMENT_3D('',#876,#877,#878);
#876 = CARTESIAN_POINT('',(0.,0.,-2.001));
#877 = DIRECTION('',(0.,0.,1.));
#878 = DIRECTION('',(1.,0.,-0.));
#879 = DEFINITIONAL_REPRESENTATION('',(#880),#884);
#880 = LINE('',#881,#882);
#881 = CARTESIAN_POINT('',(0.,1.000000000001E-03));
#882 = VECTOR('',#883,1.);
#883 = DIRECTION('',(1.,0.));
#884 = ( GEOMETRIC_REPRESENTATION_CONTEXT(2)
PARAMETRIC_REPRESENTATION_CONTEXT() REPRESENTATION_CONTEXT('2D SPACE',''
  ) );
#885 = ADVANCED_FACE('',(#886),#429,.T.);
#886 = FACE_BOUND('',#887,.T.);
#887 = EDGE_LOOP('',(#888,#889,#912,#939));
#888 = ORIENTED_EDGE('',*,*,#319,.F.);
#889 = ORIENTED_EDGE('',*,*,#890,.F.);
#890 = EDGE_CURVE('',#891,#320,#893,.T.);
#891 = VERTEX_POINT('',#892);
#892 = CARTESIAN_POINT('',(-25.,1.836970198721E-16,-5.25));
#893 = SEAM_CURVE('',#894,(#898,#905),.PCURVE_S1.);
#894 = LINE('',#895,#896);
#895 = CARTESIAN_POINT('',(-25.,1.836970198721E-16,-5.25));
#896 = VECTOR('',#897,1.);
#897 = DIRECTION('',(1.,0.,0.));
#898 = PCURVE('',#429,#899);
#899 = DEFINITIONAL_REPRESENTATION('',(#900),#904);
#900 = LINE('',#901,#902);
#901 = CARTESIAN_POINT('',(6.28318530718,-0.));
#902 = VECTOR('',#903,1.);
#903 = DIRECTION('',(0.,1.));
#904 = ( GEOMETRIC_REPRESENTATION_CONTEXT(2)
PARAMETRIC_REPRESENTATION_CONTEXT() REPRESENTATION_CONTEXT('2D SPACE',''
  ) );
#905 = PCURVE('',#429,#906);
#906 = DEFINITIONAL_REPRESENTATION('',(#907),#911);
#907 = LINE('',#908,#909);
#908 = CARTESIAN_POINT('',(0.,-0.));
#909 = VECTOR('',#910,1.);
#910 = DIRECTION('',(0.,1.));
#911 = ( GEOMETRIC_REPRESENTATION_CONTEXT(2)
PARAMETRIC_REPRESENTATION_CONTEXT() REPRESENTATION_CONTEXT('2D SPACE',''
  ) );
#912 = ORIENTED_EDGE('',*,*,#913,.T.);
#913 = EDGE_CURVE('',#891,#891,#914,.T.);
#914 = SURFACE_CURVE('',#915,(#920,#927),.PCURVE_S1.);
#915 = CIRCLE('',#916,0.75);
#916 = AXIS2_PLACEMENT_3D('',#917,#918,#919);
#917 = CARTESIAN_POINT('',(-25.,0.,-6.));
#918 = DIRECTION('',(1.,0.,0.));
#919 = DIRECTION('',(-0.,0.,1.));
#920 = PCURVE('',#429,#921);
#921 = DEFINITIONAL_REPRESENTATION('',(#922),#926);
#922 = LINE('',#923,#924);
#923 = CARTESIAN_POINT('',(0.,0.));
#924 = VECTOR('',#925,1.);
#925 = DIRECTION('',(1.,0.));
#926 = ( GEOMETRIC_REPRESENTATION_CONTEXT(2)
PARAMETRIC_REPRESENTATION_CONTEXT() REPRESENTATION_CONTEXT('2D SPACE',''
  ) );
#927 = PCURVE('',#928,#933);
#928 = PLANE('',#929);
#929 = AXIS2_PLACEMENT_3D('',#930,#931,#932);
#930 = CARTESIAN_POINT('',(-25.,0.,-6.));
#931 = DIRECTION('',(1.,0.,0.));
#932 = DIRECTION('',(-0.,0.,1.));
#933 = DEFINITIONAL_REPRESENTATION('',(#934),#938);
#934 = CIRCLE('',#935,0.75);
#935 = AXIS2_PLACEMENT_2D('',#936,#937);
#936 = CARTESIAN_POINT('',(0.,0.));
#937 = DIRECTION('',(1.,0.));
#938 = ( GEOMETRIC_REPRESENTATION_CONTEXT(2)
PARAMETRIC_REPRESENTATION_CONTEXT() REPRESENTATION_CONTEXT('2D SPACE',''
  ) );
#939 = ORIENTED_EDGE('',*,*,#890,.T.);
#940 = ADVANCED_FACE('',(#941),#538,.T.);
#941 = FACE_BOUND('',#942,.T.);
#942 = EDGE_LOOP('',(#943,#966,#993,#994,#995,#996,#997));
#943 = ORIENTED_EDGE('',*,*,#944,.T.);
#944 = EDGE_CURVE('',#556,#945,#947,.T.);
#945 = VERTEX_POINT('',#946);
#946 = CARTESIAN_POINT('',(20.75,-1.836970198721E-16,20.));
#947 = SEAM_CURVE('',#948,(#952,#959),.PCURVE_S1.);
#948 = LINE('',#949,#950);
#949 = CARTESIAN_POINT('',(20.75,-1.836970198721E-16,-6.));
#950 = VECTOR('',#951,1.);
#951 = DIRECTION('',(0.,0.,1.));
#952 = PCURVE('',#538,#953);
#953 = DEFINITIONAL_REPRESENTATION('',(#954),#958);
#954 = LINE('',#955,#956);
#955 = CARTESIAN_POINT('',(6.28318530718,-0.));
#956 = VECTOR('',#957,1.);
#957 = DIRECTION('',(0.,1.));
#958 = ( GEOMETRIC_REPRESENTATION_CONTEXT(2)
PARAMETRIC_REPRESENTATION_CONTEXT() REPRESENTATION_CONTEXT('2D SPACE',''
  ) );
#959 = PCURVE('',#538,#960);
#960 = DEFINITIONAL_REPRESENTATION('',(#961),#965);
#961 = LINE('',#962,#963);
#962 = CARTESIAN_POINT('',(0.,-0.));
#963 = VECTOR('',#964,1.);
#964 = DIRECTION('',(0.,1.));
#965 = ( GEOMETRIC_REPRESENTATION_CONTEXT(2)
PARAMETRIC_REPRESENTATION_CONTEXT() REPRESENTATION_CONTEXT('2D SPACE',''
  ) );
#966 = ORIENTED_EDGE('',*,*,#967,.F.);
#967 = EDGE_CURVE('',#945,#945,#968,.T.);
#968 = SURFACE_CURVE('',#969,(#974,#981),.PCURVE_S1.);
#969 = CIRCLE('',#970,0.75);
#970 = AXIS2_PLACEMENT_3D('',#971,#972,#973);
#971 = CARTESIAN_POINT('',(20.,0.,20.));
#972 = DIRECTION('',(0.,0.,1.));
#973 = DIRECTION('',(1.,0.,-0.));
#974 = PCURVE('',#538,#975);
#975 = DEFINITIONAL_REPRESENTATION('',(#976),#980);
#976 = LINE('',#977,#978);
#977 = CARTESIAN_POINT('',(0.,26.));
#978 = VECTOR('',#979,1.);
#979 = DIRECTION('',(1.,0.));
#980 = ( GEOMETRIC_REPRESENTATION_CONTEXT(2)
PARAMETRIC_REPRESENTATION_CONTEXT() REPRESENTATION_CONTEXT('2D SPACE',''
  ) );
#981 = PCURVE('',#982,#987);
#982 = PLANE('',#983);
#983 = AXIS2_PLACEMENT_3D('',#984,#985,#986);
#984 = CARTESIAN_POINT('',(20.,0.,20.));
#985 = DIRECTION('',(0.,0.,1.));
#986 = DIRECTION('',(1.,0.,-0.));
#987 = DEFINITIONAL_REPRESENTATION('',(#988),#992);
#988 = CIRCLE('',#989,0.75);
#989 = AXIS2_PLACEMENT_2D('',#990,#991);
#990 = CARTESIAN_POINT('',(0.,0.));
#991 = DIRECTION('',(1.,0.));
#992 = ( GEOMETRIC_REPRESENTATION_CONTEXT(2)
PARAMETRIC_REPRESENTATION_CONTEXT() REPRESENTATION_CONTEXT('2D SPACE',''
  ) );
#993 = ORIENTED_EDGE('',*,*,#944,.F.);
#994 = ORIENTED_EDGE('',*,*,#555,.F.);
#995 = ORIENTED_EDGE('',*,*,#516,.T.);
#996 = ORIENTED_EDGE('',*,*,#814,.T.);
#997 = ORIENTED_EDGE('',*,*,#780,.F.);
#998 = ADVANCED_FACE('',(#999,#1081),#720,.T.);
#999 = FACE_BOUND('',#1000,.T.);
#1000 = EDGE_LOOP('',(#1001,#1026,#1053,#1054));
#1001 = ORIENTED_EDGE('',*,*,#1002,.T.);
#1002 = EDGE_CURVE('',#1003,#1005,#1007,.T.);
#1003 = VERTEX_POINT('',#1004);
#1004 = CARTESIAN_POINT('',(130.,-2.449293598295E-15,-21.91549430919));
#1005 = VERTEX_POINT('',#1006);
#1006 = CARTESIAN_POINT('',(130.,-2.449293598295E-15,9.91549430919));
#1007 = SEAM_CURVE('',#1008,(#1012,#1019),.PCURVE_S1.);
#1008 = LINE('',#1009,#1010);
#1009 = CARTESIAN_POINT('',(130.,-2.449293598295E-15,-21.91549430919));
#1010 = VECTOR('',#1011,1.);
#1011 = DIRECTION('',(0.,0.,1.));
#1012 = PCURVE('',#720,#1013);
#1013 = DEFINITIONAL_REPRESENTATION('',(#1014),#1018);
#1014 = LINE('',#1015,#1016);
#1015 = CARTESIAN_POINT('',(6.28318530718,-0.));
#1016 = VECTOR('',#1017,1.);
#1017 = DIRECTION('',(0.,1.));
#1018 = ( GEOMETRIC_REPRESENTATION_CONTEXT(2)
PARAMETRIC_REPRESENTATION_CONTEXT() REPRESENTATION_CONTEXT('2D SPACE',''
  ) );
#1019 = PCURVE('',#720,#1020);
#1020 = DEFINITIONAL_REPRESENTATION('',(#1021),#1025);
#1021 = LINE('',#1022,#1023);
#1022 = CARTESIAN_POINT('',(0.,-0.));
#1023 = VECTOR('',#1024,1.);
#1024 = DIRECTION('',(0.,1.));
#1025 = ( GEOMETRIC_REPRESENTATION_CONTEXT(2)
PARAMETRIC_REPRESENTATION_CONTEXT() REPRESENTATION_CONTEXT('2D SPACE',''
  ) );
#1026 = ORIENTED_EDGE('',*,*,#1027,.F.);
#1027 = EDGE_CURVE('',#1005,#1005,#1028,.T.);
#1028 = SURFACE_CURVE('',#1029,(#1034,#1041),.PCURVE_S1.);
#1029 = CIRCLE('',#1030,10.);
#1030 = AXIS2_PLACEMENT_3D('',#1031,#1032,#1033);
#1031 = CARTESIAN_POINT('',(120.,0.,9.91549430919));
#1032 = DIRECTION('',(0.,0.,1.));
#1033 = DIRECTION('',(1.,0.,-0.));
#1034 = PCURVE('',#720,#1035);
#1035 = DEFINITIONAL_REPRESENTATION('',(#1036),#1040);
#1036 = LINE('',#1037,#1038);
#1037 = CARTESIAN_POINT('',(0.,31.830988618379));
#1038 = VECTOR('',#1039,1.);
#1039 = DIRECTION('',(1.,0.));
#1040 = ( GEOMETRIC_REPRESENTATION_CONTEXT(2)
PARAMETRIC_REPRESENTATION_CONTEXT() REPRESENTATION_CONTEXT('2D SPACE',''
  ) );
#1041 = PCURVE('',#1042,#1047);
#1042 = PLANE('',#1043);
#1043 = AXIS2_PLACEMENT_3D('',#1044,#1045,#1046);
#1044 = CARTESIAN_POINT('',(120.,0.,9.91549430919));
#1045 = DIRECTION('',(0.,0.,1.));
#1046 = DIRECTION('',(1.,0.,-0.));
#1047 = DEFINITIONAL_REPRESENTATION('',(#1048),#1052);
#1048 = CIRCLE('',#1049,10.);
#1049 = AXIS2_PLACEMENT_2D('',#1050,#1051);
#1050 = CARTESIAN_POINT('',(0.,0.));
#1051 = DIRECTION('',(1.,0.));
#1052 = ( GEOMETRIC_REPRESENTATION_CONTEXT(2)
PARAMETRIC_REPRESENTATION_CONTEXT() REPRESENTATION_CONTEXT('2D SPACE',''
  ) );
#1053 = ORIENTED_EDGE('',*,*,#1002,.F.);
#1054 = ORIENTED_EDGE('',*,*,#1055,.T.);
#1055 = EDGE_CURVE('',#1003,#1003,#1056,.T.);
#1056 = SURFACE_CURVE('',#1057,(#1062,#1069),.PCURVE_S1.);
#1057 = CIRCLE('',#1058,10.);
#1058 = AXIS2_PLACEMENT_3D('',#1059,#1060,#1061);
#1059 = CARTESIAN_POINT('',(120.,0.,-21.91549430919));
#1060 = DIRECTION('',(0.,0.,1.));
#1061 = DIRECTION('',(1.,0.,-0.));
#1062 = PCURVE('',#720,#1063);
#1063 = DEFINITIONAL_REPRESENTATION('',(#1064),#1068);
#1064 = LINE('',#1065,#1066);
#1065 = CARTESIAN_POINT('',(0.,0.));
#1066 = VECTOR('',#1067,1.);
#1067 = DIRECTION('',(1.,0.));
#1068 = ( GEOMETRIC_REPRESENTATION_CONTEXT(2)
PARAMETRIC_REPRESENTATION_CONTEXT() REPRESENTATION_CONTEXT('2D SPACE',''
  ) );
#1069 = PCURVE('',#1070,#1075);
#1070 = PLANE('',#1071);
#1071 = AXIS2_PLACEMENT_3D('',#1072,#1073,#1074);
#1072 = CARTESIAN_POINT('',(120.,0.,-21.91549430919));
#1073 = DIRECTION('',(0.,0.,1.));
#1074 = DIRECTION('',(1.,0.,-0.));
#1075 = DEFINITIONAL_REPRESENTATION('',(#1076),#1080);
#1076 = CIRCLE('',#1077,10.);
#1077 = AXIS2_PLACEMENT_2D('',#1078,#1079);
#1078 = CARTESIAN_POINT('',(0.,0.));
#1079 = DIRECTION('',(1.,0.));
#1080 = ( GEOMETRIC_REPRESENTATION_CONTEXT(2)
PARAMETRIC_REPRESENTATION_CONTEXT() REPRESENTATION_CONTEXT('2D SPACE',''
  ) );
#1081 = FACE_BOUND('',#1082,.T.);
#1082 = EDGE_LOOP('',(#1083));
#1083 = ORIENTED_EDGE('',*,*,#612,.T.);
#1084 = ADVANCED_FACE('',(#1085),#874,.T.);
#1085 = FACE_BOUND('',#1086,.T.);
#1086 = EDGE_LOOP('',(#1087,#1110,#1137,#1138));
#1087 = ORIENTED_EDGE('',*,*,#1088,.T.);
#1088 = EDGE_CURVE('',#858,#1089,#1091,.T.);
#1089 = VERTEX_POINT('',#1090);
#1090 = CARTESIAN_POINT('',(4.,-9.797174393179E-16,0.));
#1091 = SEAM_CURVE('',#1092,(#1096,#1103),.PCURVE_S1.);
#1092 = LINE('',#1093,#1094);
#1093 = CARTESIAN_POINT('',(4.,-9.797174393179E-16,-2.001));
#1094 = VECTOR('',#1095,1.);
#1095 = DIRECTION('',(0.,0.,1.));
#1096 = PCURVE('',#874,#1097);
#1097 = DEFINITIONAL_REPRESENTATION('',(#1098),#1102);
#1098 = LINE('',#1099,#1100);
#1099 = CARTESIAN_POINT('',(6.28318530718,-0.));
#1100 = VECTOR('',#1101,1.);
#1101 = DIRECTION('',(0.,1.));
#1102 = ( GEOMETRIC_REPRESENTATION_CONTEXT(2)
PARAMETRIC_REPRESENTATION_CONTEXT() REPRESENTATION_CONTEXT('2D SPACE',''
  ) );
#1103 = PCURVE('',#874,#1104);
#1104 = DEFINITIONAL_REPRESENTATION('',(#1105),#1109);
#1105 = LINE('',#1106,#1107);
#1106 = CARTESIAN_POINT('',(0.,-0.));
#1107 = VECTOR('',#1108,1.);
#1108 = DIRECTION('',(0.,1.));
#1109 = ( GEOMETRIC_REPRESENTATION_CONTEXT(2)
PARAMETRIC_REPRESENTATION_CONTEXT() REPRESENTATION_CONTEXT('2D SPACE',''
  ) );
#1110 = ORIENTED_EDGE('',*,*,#1111,.F.);
#1111 = EDGE_CURVE('',#1089,#1089,#1112,.T.);
#1112 = SURFACE_CURVE('',#1113,(#1118,#1125),.PCURVE_S1.);
#1113 = CIRCLE('',#1114,4.);
#1114 = AXIS2_PLACEMENT_3D('',#1115,#1116,#1117);
#1115 = CARTESIAN_POINT('',(0.,0.,0.));
#1116 = DIRECTION('',(0.,0.,1.));
#1117 = DIRECTION('',(1.,0.,-0.));
#1118 = PCURVE('',#874,#1119);
#1119 = DEFINITIONAL_REPRESENTATION('',(#1120),#1124);
#1120 = LINE('',#1121,#1122);
#1121 = CARTESIAN_POINT('',(0.,2.001));
#1122 = VECTOR('',#1123,1.);
#1123 = DIRECTION('',(1.,0.));
#1124 = ( GEOMETRIC_REPRESENTATION_CONTEXT(2)
PARAMETRIC_REPRESENTATION_CONTEXT() REPRESENTATION_CONTEXT('2D SPACE',''
  ) );
#1125 = PCURVE('',#1126,#1131);
#1126 = PLANE('',#1127);
#1127 = AXIS2_PLACEMENT_3D('',#1128,#1129,#1130);
#1128 = CARTESIAN_POINT('',(0.,0.,0.));
#1129 = DIRECTION('',(0.,0.,1.));
#1130 = DIRECTION('',(1.,0.,-0.));
#1131 = DEFINITIONAL_REPRESENTATION('',(#1132),#1136);
#1132 = CIRCLE('',#1133,4.);
#1133 = AXIS2_PLACEMENT_2D('',#1134,#1135);
#1134 = CARTESIAN_POINT('',(0.,0.));
#1135 = DIRECTION('',(1.,0.));
#1136 = ( GEOMETRIC_REPRESENTATION_CONTEXT(2)
PARAMETRIC_REPRESENTATION_CONTEXT() REPRESENTATION_CONTEXT('2D SPACE',''
  ) );
#1137 = ORIENTED_EDGE('',*,*,#1088,.F.);
#1138 = ORIENTED_EDGE('',*,*,#857,.T.);
#1139 = ADVANCED_FACE('',(#1140),#928,.F.);
#1140 = FACE_BOUND('',#1141,.T.);
#1141 = EDGE_LOOP('',(#1142));
#1142 = ORIENTED_EDGE('',*,*,#913,.F.);
#1143 = ADVANCED_FACE('',(#1144),#982,.T.);
#1144 = FACE_BOUND('',#1145,.T.);
#1145 = EDGE_LOOP('',(#1146));
#1146 = ORIENTED_EDGE('',*,*,#967,.T.);
#1147 = ADVANCED_FACE('',(#1148),#1070,.F.);
#1148 = FACE_BOUND('',#1149,.T.);
#1149 = EDGE_LOOP('',(#1150));
#1150 = ORIENTED_EDGE('',*,*,#1055,.F.);
#1151 = ADVANCED_FACE('',(#1152,#1155),#1042,.T.);
#1152 = FACE_BOUND('',#1153,.T.);
#1153 = EDGE_LOOP('',(#1154));
#1154 = ORIENTED_EDGE('',*,*,#1027,.T.);
#1155 = FACE_BOUND('',#1156,.T.);
#1156 = EDGE_LOOP('',(#1157));
#1157 = ORIENTED_EDGE('',*,*,#1158,.F.);
#1158 = EDGE_CURVE('',#1159,#1159,#1161,.T.);
#1159 = VERTEX_POINT('',#1160);
#1160 = CARTESIAN_POINT('',(121.,-2.449293598295E-16,9.91549430919));
#1161 = SURFACE_CURVE('',#1162,(#1167,#1174),.PCURVE_S1.);
#1162 = CIRCLE('',#1163,1.);
#1163 = AXIS2_PLACEMENT_3D('',#1164,#1165,#1166);
#1164 = CARTESIAN_POINT('',(120.,0.,9.91549430919));
#1165 = DIRECTION('',(0.,0.,1.));
#1166 = DIRECTION('',(1.,0.,-0.));
#1167 = PCURVE('',#1042,#1168);
#1168 = DEFINITIONAL_REPRESENTATION('',(#1169),#1173);
#1169 = CIRCLE('',#1170,1.);
#1170 = AXIS2_PLACEMENT_2D('',#1171,#1172);
#1171 = CARTESIAN_POINT('',(0.,0.));
#1172 = DIRECTION('',(1.,0.));
#1173 = ( GEOMETRIC_REPRESENTATION_CONTEXT(2)
PARAMETRIC_REPRESENTATION_CONTEXT() REPRESENTATION_CONTEXT('2D SPACE',''
  ) );
#1174 = PCURVE('',#1175,#1180);
#1175 = CYLINDRICAL_SURFACE('',#1176,1.);
#1176 = AXIS2_PLACEMENT_3D('',#1177,#1178,#1179);
#1177 = CARTESIAN_POINT('',(120.,0.,9.90549430919));
#1178 = DIRECTION('',(0.,0.,1.));
#1179 = DIRECTION('',(1.,0.,-0.));
#1180 = DEFINITIONAL_REPRESENTATION('',(#1181),#1185);
#1181 = LINE('',#1182,#1183);
#1182 = CARTESIAN_POINT('',(0.,1.E-02));
#1183 = VECTOR('',#1184,1.);
#1184 = DIRECTION('',(1.,0.));
#1185 = ( GEOMETRIC_REPRESENTATION_CONTEXT(2)
PARAMETRIC_REPRESENTATION_CONTEXT() REPRESENTATION_CONTEXT('2D SPACE',''
  ) );
#1186 = ADVANCED_FACE('',(#1187),#1126,.T.);
#1187 = FACE_BOUND('',#1188,.T.);
#1188 = EDGE_LOOP('',(#1189));
#1189 = ORIENTED_EDGE('',*,*,#1111,.T.);
#1190 = ADVANCED_FACE('',(#1191),#1175,.T.);
#1191 = FACE_BOUND('',#1192,.T.);
#1192 = EDGE_LOOP('',(#1193,#1216,#1243,#1244));
#1193 = ORIENTED_EDGE('',*,*,#1194,.T.);
#1194 = EDGE_CURVE('',#1159,#1195,#1197,.T.);
#1195 = VERTEX_POINT('',#1196);
#1196 = CARTESIAN_POINT('',(121.,-2.449293598295E-16,20.));
#1197 = SEAM_CURVE('',#1198,(#1202,#1209),.PCURVE_S1.);
#1198 = LINE('',#1199,#1200);
#1199 = CARTESIAN_POINT('',(121.,-2.449293598295E-16,9.90549430919));
#1200 = VECTOR('',#1201,1.);
#1201 = DIRECTION('',(0.,0.,1.));
#1202 = PCURVE('',#1175,#1203);
#1203 = DEFINITIONAL_REPRESENTATION('',(#1204),#1208);
#1204 = LINE('',#1205,#1206);
#1205 = CARTESIAN_POINT('',(6.28318530718,-0.));
#1206 = VECTOR('',#1207,1.);
#1207 = DIRECTION('',(0.,1.));
#1208 = ( GEOMETRIC_REPRESENTATION_CONTEXT(2)
PARAMETRIC_REPRESENTATION_CONTEXT() REPRESENTATION_CONTEXT('2D SPACE',''
  ) );
#1209 = PCURVE('',#1175,#1210);
#1210 = DEFINITIONAL_REPRESENTATION('',(#1211),#1215);
#1211 = LINE('',#1212,#1213);
#1212 = CARTESIAN_POINT('',(0.,-0.));
#1213 = VECTOR('',#1214,1.);
#1214 = DIRECTION('',(0.,1.));
#1215 = ( GEOMETRIC_REPRESENTATION_CONTEXT(2)
PARAMETRIC_REPRESENTATION_CONTEXT() REPRESENTATION_CONTEXT('2D SPACE',''
  ) );
#1216 = ORIENTED_EDGE('',*,*,#1217,.F.);
#1217 = EDGE_CURVE('',#1195,#1195,#1218,.T.);
#1218 = SURFACE_CURVE('',#1219,(#1224,#1231),.PCURVE_S1.);
#1219 = CIRCLE('',#1220,1.);
#1220 = AXIS2_PLACEMENT_3D('',#1221,#1222,#1223);
#1221 = CARTESIAN_POINT('',(120.,0.,20.));
#1222 = DIRECTION('',(0.,0.,1.));
#1223 = DIRECTION('',(1.,0.,-0.));
#1224 = PCURVE('',#1175,#1225);
#1225 = DEFINITIONAL_REPRESENTATION('',(#1226),#1230);
#1226 = LINE('',#1227,#1228);
#1227 = CARTESIAN_POINT('',(0.,10.09450569081));
#1228 = VECTOR('',#1229,1.);
#1229 = DIRECTION('',(1.,0.));
#1230 = ( GEOMETRIC_REPRESENTATION_CONTEXT(2)
PARAMETRIC_REPRESENTATION_CONTEXT() REPRESENTATION_CONTEXT('2D SPACE',''
  ) );
#1231 = PCURVE('',#1232,#1237);
#1232 = PLANE('',#1233);
#1233 = AXIS2_PLACEMENT_3D('',#1234,#1235,#1236);
#1234 = CARTESIAN_POINT('',(120.,0.,20.));
#1235 = DIRECTION('',(0.,0.,1.));
#1236 = DIRECTION('',(1.,0.,-0.));
#1237 = DEFINITIONAL_REPRESENTATION('',(#1238),#1242);
#1238 = CIRCLE('',#1239,1.);
#1239 = AXIS2_PLACEMENT_2D('',#1240,#1241);
#1240 = CARTESIAN_POINT('',(0.,0.));
#1241 = DIRECTION('',(1.,0.));
#1242 = ( GEOMETRIC_REPRESENTATION_CONTEXT(2)
PARAMETRIC_REPRESENTATION_CONTEXT() REPRESENTATION_CONTEXT('2D SPACE',''
  ) );
#1243 = ORIENTED_EDGE('',*,*,#1194,.F.);
#1244 = ORIENTED_EDGE('',*,*,#1158,.T.);
#1245 = ADVANCED_FACE('',(#1246),#1232,.T.);
#1246 = FACE_BOUND('',#1247,.T.);
#1247 = EDGE_LOOP('',(#1248));
#1248 = ORIENTED_EDGE('',*,*,#1217,.T.);
#1249 = ( GEOMETRIC_REPRESENTATION_CONTEXT(3)
GLOBAL_UNCERTAINTY_ASSIGNED_CONTEXT((#1253))
GLOBAL_UNIT_ASSIGNED_CONTEXT((#1250,#1251,#1252)) REPRESENTATION_CONTEXT
('Context #1','3D Context with UNIT and UNCERTAINTY') );
#1250 = ( LENGTH_UNIT() NAMED_UNIT(*) SI_UNIT(.MILLI.,.METRE.) );
#1251 = ( NAMED_UNIT(*) PLANE_ANGLE_UNIT() SI_UNIT($,.RADIAN.) );
#1252 = ( NAMED_UNIT(*) SI_UNIT($,.STERADIAN.) SOLID_ANGLE_UNIT() );
#1253 = UNCERTAINTY_MEASURE_WITH_UNIT(LENGTH_MEASURE(1.E-07),#1250,
  'distance_accuracy_value','confusion accuracy');
#1254 = PRODUCT_RELATED_PRODUCT_CATEGORY('part',$,(#7));
ENDSEC;
END-ISO-10303-21;
