M48
; DRILL file KiCad 10.0.4 date 2026-09-24T00:18:08
; FORMAT={-:-/ absolute / metric / decimal}
; #@! TF.CreationDate,2026-09-24T00:18:08-06:00
; #@! TF.GenerationSoftware,Kicad,Pcbnew,10.0.4
; #@! TF.FileFunction,MixedPlating,1,2
FMAT,2
METRIC
; #@! TA.AperFunction,Plated,PTH,ViaDrill
T1C0.300
; #@! TA.AperFunction,Plated,PTH,ComponentDrill
T2C0.950
%
G90
G05
T1
X16.0Y-57.0
X19.8Y-17.8
X19.8Y-20.3
X19.8Y-25.7
X19.8Y-31.5
X19.8Y-33.7
X19.8Y-37.7
X19.8Y-41.7
X21.0Y-17.8
X21.0Y-21.19
X21.0Y-29.5
X22.0Y-20.3
X22.0Y-23.73
X22.0Y-27.0
X23.0Y-24.5
X23.0Y-25.7
X23.0Y-26.27
X24.0Y-14.5
X24.0Y-39.19
X24.0Y-41.7
X25.5Y-50.175
X26.0Y-30.0
X27.0Y-28.81
X27.0Y-46.81
X29.8Y-21.19
X29.8Y-22.46
X29.8Y-23.73
X29.8Y-25.0
X29.8Y-26.27
X29.8Y-27.54
X29.8Y-39.19
X29.8Y-40.46
X29.8Y-43.0
X29.8Y-48.8
X35.0Y-23.73
X35.0Y-26.27
X35.0Y-28.81
X35.0Y-41.2
X35.0Y-44.27
X35.0Y-45.54
X35.725Y-20.5
X35.725Y-35.2
X36.0Y-23.1
X36.0Y-25.6
X36.0Y-28.15
X36.9Y-23.73
X36.9Y-30.7
X37.275Y-18.5
X37.275Y-38.7
X38.4Y-21.82
X38.4Y-28.15
X38.4Y-31.5
X39.0Y-19.5
X39.0Y-25.6
X39.0Y-33.7
X40.0Y-17.0
X40.0Y-23.1
X40.0Y-37.7
X40.0Y-50.175
X40.0Y-53.0
X41.0Y-22.46
X41.0Y-23.05
X41.6Y-23.7
X41.6Y-25.0
X42.2Y-24.35
X42.2Y-27.54
X42.8Y-25.0
X42.8Y-28.81
X43.0Y-53.8
X43.4Y-25.65
X43.4Y-26.27
X44.3Y-50.9
X44.8Y-26.3
X44.8Y-30.7
X45.0Y-45.54
X46.0Y-42.05
X46.0Y-44.27
X46.0Y-46.8
X47.6Y-23.05
X47.6Y-24.35
X47.6Y-25.65
X47.6Y-28.5
X48.4Y-23.7
X48.4Y-25.0
X48.4Y-26.3
X49.7Y-24.35
X50.5Y-25.0
X51.0Y-46.0
X52.225Y-41.1
X53.5Y-30.0
X54.225Y-21.5
X54.8Y-44.9
X56.0Y-25.0
X56.0Y-40.46
X56.8Y-23.05
X57.0Y-24.35
X57.0Y-46.0
X58.0Y-8.0
X58.0Y-12.0
X59.0Y-18.5
X59.0Y-42.05
X59.0Y-55.0
X61.0Y-48.8
X61.5Y-18.5
X62.0Y-43.0
X63.2Y-16.0
X63.2Y-43.25
X63.3Y-44.5
X68.5Y-17.8
X68.7Y-45.0
X70.0Y-10.5
X70.0Y-38.5
X72.0Y-14.0
X72.0Y-40.0
X76.0Y-40.0
X76.0Y-45.0
X78.0Y-12.0
X78.0Y-17.8
X78.0Y-37.0
X80.0Y-39.5
X80.0Y-50.175
X81.0Y-42.0
X81.0Y-53.8
X83.0Y-43.25
X83.0Y-47.0
X84.0Y-49.5
X84.0Y-55.0
X85.0Y-10.5
X85.0Y-20.5
X85.0Y-21.5
X85.0Y-35.2
X85.0Y-38.5
X85.0Y-41.1
X85.0Y-53.0
X85.0Y-57.0
T2
X8.0Y-14.5
X8.0Y-17.0
X8.0Y-19.5
X8.0Y-22.0
X8.0Y-24.5
X8.0Y-27.0
X8.0Y-29.5
X8.0Y-32.0
X92.0Y-32.0
X92.0Y-34.5
X92.0Y-37.0
X92.0Y-39.5
X92.0Y-42.0
X92.0Y-44.5
X92.0Y-47.0
X92.0Y-49.5
M30
