M48
; DRILL file {KiCad 9.0.6} date 2025-12-29T18:34:50-0600
; FORMAT={-:-/ absolute / metric / decimal}
; #@! TF.CreationDate,2025-12-29T18:34:50-06:00
; #@! TF.GenerationSoftware,Kicad,Pcbnew,9.0.6
; #@! TF.FileFunction,MixedPlating,1,4
FMAT,2
METRIC
; #@! TA.AperFunction,Plated,PTH,ViaDrill
T1C0.400
; #@! TA.AperFunction,Plated,PTH,ComponentDrill
T2C1.000
; #@! TA.AperFunction,Plated,PTH,ComponentDrill
T3C1.200
; #@! TA.AperFunction,Plated,PTH,ComponentDrill
T4C1.500
; #@! TA.AperFunction,Plated,PTH,ComponentDrill
T5C1.600
; #@! TA.AperFunction,Plated,PTH,ComponentDrill
T6C2.500
%
G90
G05
T1
X10.25Y-75.75
X10.75Y-85.75
X42.75Y-41.25
X42.75Y-76.25
X44.25Y-38.75
X44.25Y-38.75
X44.25Y-39.75
X44.25Y-39.75
X44.25Y-64.75
X44.25Y-74.25
X45.25Y-39.75
X45.25Y-39.75
X50.25Y-75.25
X52.75Y-81.75
X52.75Y-89.75
X56.75Y-64.25
X56.75Y-65.25
X56.75Y-96.25
X58.75Y-96.25
X61.25Y-73.25
X61.25Y-74.75
X62.25Y-120.25
X64.25Y-120.25
X64.75Y-120.25
X67.25Y-129.25
X74.75Y-114.75
X74.75Y-114.75
X74.75Y-114.75
X74.75Y-124.75
X74.75Y-124.75
X74.75Y-124.75
X75.75Y-121.75
X75.75Y-121.75
X80.25Y-124.75
X80.25Y-124.75
X80.75Y-124.75
X80.75Y-124.75
X81.25Y-124.75
X82.25Y-119.25
X86.25Y-115.25
T2
X20.0Y-75.0
X22.54Y-75.0
X70.0Y-9.2
X70.0Y-11.74
X70.0Y-14.28
X70.0Y-16.82
X70.0Y-19.36
X70.0Y-21.9
T3
X50.0Y-75.0
X53.81Y-75.0
X67.0Y-119.0
X67.0Y-129.0
X82.24Y-119.0
X82.24Y-129.0
T4
X83.0Y-119.25
X83.0Y-129.25
X90.5Y-119.25
X90.5Y-129.25
T5
X75.0Y-115.0
X75.0Y-125.0
X80.45Y-115.0
X80.45Y-125.0
X85.9Y-115.0
X85.9Y-125.0
T6
X10.0Y-75.0
X10.0Y-85.0
X10.0Y-95.0
M30
