%TF.GenerationSoftware,KiCad,Pcbnew,9.0.6*%
%TF.CreationDate,2025-12-29T18:34:50-06:00*%
%TF.ProjectId,routed_v3_final,726f7574-6564-45f7-9633-5f66696e616c,rev?*%
%TF.SameCoordinates,Original*%
%TF.FileFunction,Soldermask,Top*%
%TF.FilePolarity,Negative*%
%FSLAX46Y46*%
G04 Gerber Fmt 4.6, Leading zero omitted, Abs format (unit mm)*
G04 Created by KiCad (PCBNEW 9.0.6) date 2025-12-29 18:34:50*
%MOMM*%
%LPD*%
G01*
G04 APERTURE LIST*
G04 Aperture macros list*
%AMRoundRect*
0 Rectangle with rounded corners*
0 $1 Rounding radius*
0 $2 $3 $4 $5 $6 $7 $8 $9 X,Y pos of 4 corners*
0 Add a 4 corners polygon primitive as box body*
4,1,4,$2,$3,$4,$5,$6,$7,$8,$9,$2,$3,0*
0 Add four circle primitives for the rounded corners*
1,1,$1+$1,$2,$3*
1,1,$1+$1,$4,$5*
1,1,$1+$1,$6,$7*
1,1,$1+$1,$8,$9*
0 Add four rect primitives between the rounded corners*
20,1,$1+$1,$2,$3,$4,$5,0*
20,1,$1+$1,$4,$5,$6,$7,0*
20,1,$1+$1,$6,$7,$8,$9,0*
20,1,$1+$1,$8,$9,$2,$3,0*%
G04 Aperture macros list end*
%ADD10C,3.700000*%
%ADD11C,2.700000*%
%ADD12C,3.200000*%
%ADD13RoundRect,0.200000X-0.900000X-0.200000X0.900000X-0.200000X0.900000X0.200000X-0.900000X0.200000X0*%
%ADD14RoundRect,0.300000X-0.300000X-0.525000X0.300000X-0.525000X0.300000X0.525000X-0.300000X0.525000X0*%
%ADD15RoundRect,0.200000X-0.400000X-0.200000X0.400000X-0.200000X0.400000X0.200000X-0.400000X0.200000X0*%
%ADD16RoundRect,0.350000X-0.350000X-0.750000X0.350000X-0.750000X0.350000X0.750000X-0.350000X0.750000X0*%
%ADD17RoundRect,0.550000X-1.200000X-0.550000X1.200000X-0.550000X1.200000X0.550000X-1.200000X0.550000X0*%
%ADD18RoundRect,0.110000X-0.390000X-0.110000X0.390000X-0.110000X0.390000X0.110000X-0.390000X0.110000X0*%
%ADD19RoundRect,0.110000X-0.110000X-0.390000X0.110000X-0.390000X0.110000X0.390000X-0.110000X0.390000X0*%
%ADD20RoundRect,0.000000X-2.900000X-2.900000X2.900000X-2.900000X2.900000X2.900000X-2.900000X2.900000X0*%
%ADD21RoundRect,0.175000X-0.225000X-0.175000X0.225000X-0.175000X0.225000X0.175000X-0.225000X0.175000X0*%
%ADD22RoundRect,0.125000X-0.125000X-0.475000X0.125000X-0.475000X0.125000X0.475000X-0.125000X0.475000X0*%
%ADD23C,1.900000*%
%ADD24RoundRect,0.162500X-0.637500X-0.162500X0.637500X-0.162500X0.637500X0.162500X-0.637500X0.162500X0*%
%ADD25RoundRect,0.250000X-0.250000X-0.325000X0.250000X-0.325000X0.250000X0.325000X-0.250000X0.325000X0*%
%ADD26RoundRect,0.200000X-0.700000X-0.200000X0.700000X-0.200000X0.700000X0.200000X-0.700000X0.200000X0*%
%ADD27C,2.200000*%
G04 APERTURE END LIST*
D10*
%TO.C,J_AC_IN*%
X10000000Y-75000000D03*
X10000000Y-85000000D03*
X10000000Y-95000000D03*
%TD*%
D11*
%TO.C,D1*%
X67000000Y-129000000D03*
X82240000Y-129000000D03*
%TD*%
%TO.C,D2*%
X67000000Y-119000000D03*
X82240000Y-119000000D03*
%TD*%
D12*
%TO.C,C_BUS1*%
X83000000Y-129250000D03*
X90500000Y-129250000D03*
%TD*%
%TO.C,C_BUS2*%
X83000000Y-119250000D03*
X90500000Y-119250000D03*
%TD*%
D10*
%TO.C,Q1*%
X75000000Y-125000000D03*
X80450000Y-125000000D03*
X85900000Y-125000000D03*
%TD*%
%TO.C,Q2*%
X75000000Y-115000000D03*
X80450000Y-115000000D03*
X85900000Y-115000000D03*
%TD*%
D13*
%TO.C,U_GATE*%
X43312347Y-81715110D03*
X43312347Y-82985110D03*
X43312347Y-84255110D03*
X43312347Y-85525110D03*
X43312347Y-86795110D03*
X43312347Y-88065110D03*
X43312347Y-89335110D03*
X43312347Y-90605110D03*
X52312347Y-90605110D03*
X52312347Y-89335110D03*
X52312347Y-88065110D03*
X52312347Y-86795110D03*
X52312347Y-85525110D03*
X52312347Y-84255110D03*
X52312347Y-82985110D03*
X52312347Y-81715110D03*
%TD*%
D14*
%TO.C,C_BOOT*%
X52923546Y-94394630D03*
X54923546Y-94394630D03*
%TD*%
%TO.C,C_VCC*%
X57911148Y-92317856D03*
X59911148Y-92317856D03*
%TD*%
%TO.C,R_GATE_H*%
X61770550Y-93393738D03*
X63770550Y-93393738D03*
%TD*%
%TO.C,R_GATE_L*%
X56557060Y-96088661D03*
X58557060Y-96088661D03*
%TD*%
D15*
%TO.C,U_BUCK*%
X64579825Y-55835223D03*
X64579825Y-54885223D03*
X64579825Y-53935223D03*
X66779825Y-53935223D03*
X66779825Y-54885223D03*
X66779825Y-55835223D03*
%TD*%
D16*
%TO.C,U_LDO_3V3*%
X64372646Y-48193680D03*
X66672646Y-48193680D03*
X68972646Y-48193680D03*
D17*
X66672646Y-44993680D03*
%TD*%
D16*
%TO.C,U_LDO_5V*%
X56748340Y-53468029D03*
X59048340Y-53468029D03*
X61348340Y-53468029D03*
D17*
X59048340Y-50268029D03*
%TD*%
D18*
%TO.C,U_MCU*%
X42480862Y-45467965D03*
X42480862Y-45067965D03*
X42480862Y-41067965D03*
X42480862Y-40667965D03*
X42480862Y-40267965D03*
D19*
X43530862Y-39217965D03*
X43930862Y-39217965D03*
X44330862Y-39217965D03*
X44730862Y-39217965D03*
D18*
X49380862Y-42667965D03*
X49380862Y-43067965D03*
D20*
X45930862Y-42667965D03*
%TD*%
D21*
%TO.C,C_MCU_1*%
X58293812Y-37796532D03*
X59293812Y-37796532D03*
%TD*%
%TO.C,C_MCU_2*%
X57810352Y-42527992D03*
X58810352Y-42527992D03*
%TD*%
%TO.C,C_MCU_3*%
X57978413Y-40208130D03*
X58978413Y-40208130D03*
%TD*%
%TO.C,C_MCU_4*%
X51490944Y-40041916D03*
X52490944Y-40041916D03*
%TD*%
D22*
%TO.C,J_USB*%
X50000000Y-5000000D03*
X50400000Y-5000000D03*
X47650000Y-5000000D03*
X52350000Y-5000000D03*
%TD*%
D23*
%TO.C,J_DEBUG*%
X70000000Y-9200000D03*
X70000000Y-11740000D03*
X70000000Y-14280000D03*
X70000000Y-16820000D03*
X70000000Y-19360000D03*
X70000000Y-21900000D03*
%TD*%
D24*
%TO.C,U_CT*%
X56568109Y-63845851D03*
X56568109Y-64495851D03*
X56568109Y-65145851D03*
X56568109Y-65795851D03*
X56568109Y-69695851D03*
X62368109Y-63845851D03*
%TD*%
D14*
%TO.C,R_BURDEN*%
X61949284Y-60480812D03*
X63949284Y-60480812D03*
%TD*%
D25*
%TO.C,C_CT_FILT*%
X67660558Y-60487957D03*
X69310558Y-60487957D03*
%TD*%
D26*
%TO.C,U_OPAMP_CT*%
X66528937Y-64490111D03*
X66528937Y-65760111D03*
X66528937Y-67030111D03*
X66528937Y-68300111D03*
X71478937Y-68300111D03*
X71478937Y-67030111D03*
X71478937Y-65760111D03*
X71478937Y-64490111D03*
%TD*%
D24*
%TO.C,MAX31865*%
X60862463Y-73177974D03*
X60862463Y-73827974D03*
X60862463Y-74477974D03*
X60862463Y-75127974D03*
X60862463Y-79027974D03*
X66662463Y-73177974D03*
%TD*%
D27*
%TO.C,J_COIL*%
X50000000Y-75000000D03*
X53810000Y-75000000D03*
%TD*%
D23*
%TO.C,J_NTC*%
X20000000Y-75000000D03*
X22540000Y-75000000D03*
%TD*%
M02*
