%TF.GenerationSoftware,KiCad,Pcbnew,9.0.6*%
%TF.CreationDate,2025-12-29T18:34:50-06:00*%
%TF.ProjectId,routed_v3_final,726f7574-6564-45f7-9633-5f66696e616c,rev?*%
%TF.SameCoordinates,Original*%
%TF.FileFunction,Copper,L2,Inr*%
%TF.FilePolarity,Positive*%
%FSLAX46Y46*%
G04 Gerber Fmt 4.6, Leading zero omitted, Abs format (unit mm)*
G04 Created by KiCad (PCBNEW 9.0.6) date 2025-12-29 18:34:50*
%MOMM*%
%LPD*%
G01*
G04 APERTURE LIST*
%TA.AperFunction,ComponentPad*%
%ADD10C,3.500000*%
%TD*%
%TA.AperFunction,ComponentPad*%
%ADD11C,2.500000*%
%TD*%
%TA.AperFunction,ComponentPad*%
%ADD12C,3.000000*%
%TD*%
%TA.AperFunction,ComponentPad*%
%ADD13C,1.700000*%
%TD*%
%TA.AperFunction,ComponentPad*%
%ADD14C,2.000000*%
%TD*%
%TA.AperFunction,ViaPad*%
%ADD15C,0.800000*%
%TD*%
%TA.AperFunction,Conductor*%
%ADD16C,0.250000*%
%TD*%
G04 APERTURE END LIST*
D10*
%TO.N,AC_L*%
%TO.C,J_AC_IN*%
X10000000Y-75000000D03*
%TO.N,AC_N*%
X10000000Y-85000000D03*
%TO.N,GND*%
X10000000Y-95000000D03*
%TD*%
D11*
%TO.N,AC_L*%
%TO.C,D1*%
X67000000Y-129000000D03*
%TO.N,DC_BUS+*%
X82240000Y-129000000D03*
%TD*%
%TO.N,DC_BUS-*%
%TO.C,D2*%
X67000000Y-119000000D03*
%TO.N,AC_N*%
X82240000Y-119000000D03*
%TD*%
D12*
%TO.N,DC_BUS+*%
%TO.C,C_BUS1*%
X83000000Y-129250000D03*
%TO.N,PGND*%
X90500000Y-129250000D03*
%TD*%
%TO.N,DC_BUS+*%
%TO.C,C_BUS2*%
X83000000Y-119250000D03*
%TO.N,PGND*%
X90500000Y-119250000D03*
%TD*%
D10*
%TO.N,GATE_H*%
%TO.C,Q1*%
X75000000Y-125000000D03*
%TO.N,SW_NODE*%
X80450000Y-125000000D03*
%TO.N,DC_BUS+*%
X85900000Y-125000000D03*
%TD*%
%TO.N,GATE_L*%
%TO.C,Q2*%
X75000000Y-115000000D03*
%TO.N,PGND*%
X80450000Y-115000000D03*
%TO.N,SW_NODE*%
X85900000Y-115000000D03*
%TD*%
D13*
%TO.N,GND*%
%TO.C,J_DEBUG*%
X70000000Y-9200000D03*
%TO.N,+3V3*%
X70000000Y-11740000D03*
%TO.N,N/C*%
X70000000Y-14280000D03*
X70000000Y-16820000D03*
X70000000Y-19360000D03*
X70000000Y-21900000D03*
%TD*%
D14*
%TO.N,SW_NODE*%
%TO.C,J_COIL*%
X50000000Y-75000000D03*
%TO.N,GND*%
X53810000Y-75000000D03*
%TD*%
D13*
%TO.N,TEMP_SENSE*%
%TO.C,J_NTC*%
X20000000Y-75000000D03*
%TO.N,GND*%
X22540000Y-75000000D03*
%TD*%
D15*
%TO.N,AC_N*%
X10750000Y-85750000D03*
X82250000Y-119250000D03*
%TO.N,AC_L*%
X10250000Y-75750000D03*
X67250000Y-129250000D03*
%TO.N,GATE_L*%
X74750000Y-114750000D03*
X52750000Y-89750000D03*
X74750000Y-114750000D03*
X56750000Y-96250000D03*
X74750000Y-114750000D03*
X58750000Y-96250000D03*
%TO.N,GATE_H*%
X74750000Y-124750000D03*
X64750000Y-120250000D03*
X74750000Y-124750000D03*
X62250000Y-120250000D03*
X74750000Y-124750000D03*
X64250000Y-120250000D03*
%TO.N,SW_NODE*%
X81250000Y-124750000D03*
X86250000Y-115250000D03*
X80250000Y-124750000D03*
X75750000Y-121750000D03*
X80750000Y-124750000D03*
X52750000Y-81750000D03*
X80250000Y-124750000D03*
X75750000Y-121750000D03*
X80750000Y-124750000D03*
X50250000Y-75250000D03*
%TO.N,PWM_H*%
X42750000Y-76250000D03*
X42750000Y-41250000D03*
%TO.N,SPI_CLK*%
X44250000Y-38750000D03*
X56750000Y-64250000D03*
X44250000Y-38750000D03*
X61250000Y-73250000D03*
%TO.N,SPI_MOSI*%
X44250000Y-39750000D03*
X44250000Y-64750000D03*
X44250000Y-39750000D03*
X44250000Y-74250000D03*
%TO.N,SPI_MISO*%
X45250000Y-39750000D03*
X56750000Y-65250000D03*
X45250000Y-39750000D03*
X61250000Y-74750000D03*
%TD*%
D16*
%TO.N,AC_N*%
X10750000Y-85750000D02*
X10750000Y-119250000D01*
X10750000Y-119250000D02*
X82250000Y-119250000D01*
%TO.N,AC_L*%
X10250000Y-75750000D02*
X10250000Y-84750000D01*
X10250000Y-84750000D02*
X9750000Y-84750000D01*
X9750000Y-84750000D02*
X9750000Y-129250000D01*
X9750000Y-129250000D02*
X67250000Y-129250000D01*
%TO.N,GATE_L*%
X74750000Y-114750000D02*
X74750000Y-89750000D01*
X74750000Y-89750000D02*
X52750000Y-89750000D01*
X74750000Y-114750000D02*
X74750000Y-96250000D01*
X74750000Y-96250000D02*
X56750000Y-96250000D01*
X74750000Y-114750000D02*
X74750000Y-96250000D01*
X74750000Y-96250000D02*
X58750000Y-96250000D01*
%TO.N,GATE_H*%
X74750000Y-124750000D02*
X74750000Y-120250000D01*
X74750000Y-120250000D02*
X64750000Y-120250000D01*
X74750000Y-124750000D02*
X74750000Y-120250000D01*
X74750000Y-120250000D02*
X62250000Y-120250000D01*
X74750000Y-124750000D02*
X74750000Y-120250000D01*
X74750000Y-120250000D02*
X64250000Y-120250000D01*
%TO.N,SW_NODE*%
X81250000Y-124750000D02*
X81250000Y-120250000D01*
X81250000Y-120250000D02*
X83250000Y-120250000D01*
X83250000Y-120250000D02*
X83250000Y-115250000D01*
X83250000Y-115250000D02*
X86250000Y-115250000D01*
X80250000Y-124750000D02*
X80250000Y-121750000D01*
X80250000Y-121750000D02*
X75750000Y-121750000D01*
X80750000Y-124750000D02*
X80750000Y-120250000D01*
X80750000Y-120250000D02*
X83250000Y-120250000D01*
X83250000Y-120250000D02*
X83250000Y-81750000D01*
X83250000Y-81750000D02*
X52750000Y-81750000D01*
X80250000Y-124750000D02*
X80250000Y-121750000D01*
X80250000Y-121750000D02*
X75750000Y-121750000D01*
X80750000Y-124750000D02*
X80750000Y-120250000D01*
X80750000Y-120250000D02*
X83250000Y-120250000D01*
X83250000Y-120250000D02*
X83250000Y-75250000D01*
X83250000Y-75250000D02*
X50250000Y-75250000D01*
%TD*%
M02*
