<svg xmlns="http://www.w3.org/2000/svg" viewBox="0 0 800 600">
<rect x="220.0" y="30.0" width="360.0" height="540.0" fill="#eee" stroke="#333" stroke-width="2"/>
<rect x="220.0" y="30.0" width="108.0" height="540.0" fill="#ffcccc" fill-opacity="0.3" stroke="none"/>
<text x="225.0" y="45.0" font-family="sans-serif" font-size="12" fill="#666">HV</text>
<rect x="328.0" y="30.0" width="108.0" height="540.0" fill="#ccffcc" fill-opacity="0.3" stroke="none"/>
<text x="333.0" y="45.0" font-family="sans-serif" font-size="12" fill="#666">Power</text>
<rect x="436.0" y="30.0" width="108.0" height="540.0" fill="#ccccff" fill-opacity="0.3" stroke="none"/>
<text x="441.0" y="45.0" font-family="sans-serif" font-size="12" fill="#666">Signal</text>
<rect x="544.0" y="30.0" width="36.0" height="540.0" fill="#ffffcc" fill-opacity="0.3" stroke="none"/>
<text x="549.0" y="45.0" font-family="sans-serif" font-size="12" fill="#666">MCU</text>
<g transform="rotate(0.0, 256.0, 336.0)"><rect x="249.7" y="293.7" width="12.6" height="84.60000000000001" fill="#6699ff" stroke="#003366" stroke-width="1"/><text x="256.0" y="336.0" font-family="sans-serif" font-size="10" text-anchor="middle" dominant-baseline="middle" fill="white">J_AC_IN</text></g>
<g transform="rotate(0.0, 355.432, 138.0)"><rect x="323.5" y="133.5" width="63.86400000000001" height="9.0" fill="#6699ff" stroke="#003366" stroke-width="1"/><text x="355.432" y="138.0" font-family="sans-serif" font-size="10" text-anchor="middle" dominant-baseline="middle" fill="white">D1</text></g>
<g transform="rotate(0.0, 355.432, 192.0)"><rect x="323.5" y="187.5" width="63.86400000000001" height="9.0" fill="#6699ff" stroke="#003366" stroke-width="1"/><text x="355.432" y="192.0" font-family="sans-serif" font-size="10" text-anchor="middle" dominant-baseline="middle" fill="white">D2</text></g>
<g transform="rotate(0.0, 323.5, 246.0)"><rect x="304.6" y="240.6" width="37.800000000000004" height="10.8" fill="#6699ff" stroke="#003366" stroke-width="1"/><text x="323.5" y="246.0" font-family="sans-serif" font-size="10" text-anchor="middle" dominant-baseline="middle" fill="white">C_BUS1</text></g>
<g transform="rotate(0.0, 395.5, 246.0)"><rect x="376.6" y="240.6" width="37.800000000000004" height="10.8" fill="#6699ff" stroke="#003366" stroke-width="1"/><text x="395.5" y="246.0" font-family="sans-serif" font-size="10" text-anchor="middle" dominant-baseline="middle" fill="white">C_BUS2</text></g>
<g transform="rotate(0.0, 311.62, 84.0)"><rect x="285.7" y="77.7" width="51.84" height="12.6" fill="#6699ff" stroke="#003366" stroke-width="1"/><text x="311.62" y="84.0" font-family="sans-serif" font-size="10" text-anchor="middle" dominant-baseline="middle" fill="white">Q1</text></g>
<g transform="rotate(0.0, 401.62, 84.0)"><rect x="375.7" y="77.7" width="51.84" height="12.6" fill="#6699ff" stroke="#003366" stroke-width="1"/><text x="401.62" y="84.0" font-family="sans-serif" font-size="10" text-anchor="middle" dominant-baseline="middle" fill="white">Q2</text></g>
<g transform="rotate(0.0, 346.0, 156.0)"><rect x="326.2" y="138.918" width="39.6" height="34.164" fill="#6699ff" stroke="#003366" stroke-width="1"/><text x="346.0" y="156.0" font-family="sans-serif" font-size="10" text-anchor="middle" dominant-baseline="middle" fill="white">U_GATE</text></g>
<g transform="rotate(0.0, 371.20000000000005, 138.0)"><rect x="365.80000000000007" y="135.39" width="10.8" height="5.22" fill="#6699ff" stroke="#003366" stroke-width="1"/><text x="371.20000000000005" y="138.0" font-family="sans-serif" font-size="10" text-anchor="middle" dominant-baseline="middle" fill="white">C_BOOT</text></g>
<g transform="rotate(0.0, 328.0, 138.0)"><rect x="322.6" y="135.39" width="10.8" height="5.22" fill="#6699ff" stroke="#003366" stroke-width="1"/><text x="328.0" y="138.0" font-family="sans-serif" font-size="10" text-anchor="middle" dominant-baseline="middle" fill="white">C_VCC</text></g>
<g transform="rotate(0.0, 310.0, 120.0)"><rect x="304.6" y="117.39" width="10.8" height="5.22" fill="#6699ff" stroke="#003366" stroke-width="1"/><text x="310.0" y="120.0" font-family="sans-serif" font-size="10" text-anchor="middle" dominant-baseline="middle" fill="white">R_GATE_H</text></g>
<g transform="rotate(0.0, 382.0, 120.0)"><rect x="376.6" y="117.39" width="10.8" height="5.22" fill="#6699ff" stroke="#003366" stroke-width="1"/><text x="382.0" y="120.0" font-family="sans-serif" font-size="10" text-anchor="middle" dominant-baseline="middle" fill="white">R_GATE_L</text></g>
<g transform="rotate(0.0, 490.0, 138.0)"><rect x="484.24" y="133.5" width="11.520000000000001" height="9.0" fill="#6699ff" stroke="#003366" stroke-width="1"/><text x="490.0" y="138.0" font-family="sans-serif" font-size="10" text-anchor="middle" dominant-baseline="middle" fill="white">U_BUCK</text></g>
<g transform="rotate(0.0, 490.0, 204.24)"><rect x="479.56" y="194.88" width="20.88" height="18.720000000000002" fill="#6699ff" stroke="#003366" stroke-width="1"/><text x="490.0" y="204.24" font-family="sans-serif" font-size="10" text-anchor="middle" dominant-baseline="middle" fill="white">U_LDO_3V3</text></g>
<g transform="rotate(0.0, 490.0, 258.24)"><rect x="479.56" y="248.88" width="20.88" height="18.720000000000002" fill="#6699ff" stroke="#003366" stroke-width="1"/><text x="490.0" y="258.24" font-family="sans-serif" font-size="10" text-anchor="middle" dominant-baseline="middle" fill="white">U_LDO_5V</text></g>
<g transform="rotate(0.0, 508.0, 388.83)"><rect x="494.14" y="376.644" width="27.720000000000002" height="24.372" fill="#6699ff" stroke="#003366" stroke-width="1"/><text x="508.0" y="388.83" font-family="sans-serif" font-size="10" text-anchor="middle" dominant-baseline="middle" fill="white">U_MCU</text></g>
<g transform="rotate(0.0, 482.8, 379.2)"><rect x="479.92" y="378.3" width="5.760000000000001" height="1.8" fill="#6699ff" stroke="#003366" stroke-width="1"/><text x="482.8" y="379.2" font-family="sans-serif" font-size="10" text-anchor="middle" dominant-baseline="middle" fill="white">C_MCU_1</text></g>
<g transform="rotate(0.0, 482.8, 390.0)"><rect x="479.92" y="389.1" width="5.760000000000001" height="1.8" fill="#6699ff" stroke="#003366" stroke-width="1"/><text x="482.8" y="390.0" font-family="sans-serif" font-size="10" text-anchor="middle" dominant-baseline="middle" fill="white">C_MCU_2</text></g>
<g transform="rotate(0.0, 482.8, 400.8)"><rect x="479.92" y="399.90000000000003" width="5.760000000000001" height="1.8" fill="#6699ff" stroke="#003366" stroke-width="1"/><text x="482.8" y="400.8" font-family="sans-serif" font-size="10" text-anchor="middle" dominant-baseline="middle" fill="white">C_MCU_3</text></g>
<g transform="rotate(0.0, 533.2, 390.0)"><rect x="530.32" y="389.1" width="5.760000000000001" height="1.8" fill="#6699ff" stroke="#003366" stroke-width="1"/><text x="533.2" y="390.0" font-family="sans-serif" font-size="10" text-anchor="middle" dominant-baseline="middle" fill="white">C_MCU_4</text></g>
<g transform="rotate(0.0, 562.0, 498.0)"><rect x="553.0" y="496.2" width="18.0" height="3.6" fill="#6699ff" stroke="#003366" stroke-width="1"/><text x="562.0" y="498.0" font-family="sans-serif" font-size="10" text-anchor="middle" dominant-baseline="middle" fill="white">J_USB</text></g>
<g transform="rotate(0.0, 562.0, 466.86)"><rect x="558.94" y="440.94" width="6.12" height="51.839999999999996" fill="#6699ff" stroke="#003366" stroke-width="1"/><text x="562.0" y="466.86" font-family="sans-serif" font-size="10" text-anchor="middle" dominant-baseline="middle" fill="white">J_DEBUG</text></g>
<g transform="rotate(0.0, 328.0, 426.0)"><rect x="315.04" y="414.66" width="25.919999999999998" height="22.68" fill="#6699ff" stroke="#003366" stroke-width="1"/><text x="328.0" y="426.0" font-family="sans-serif" font-size="10" text-anchor="middle" dominant-baseline="middle" fill="white">U_CT</text></g>
<g transform="rotate(0.0, 328.0, 462.0)"><rect x="322.6" y="459.39" width="10.8" height="5.22" fill="#6699ff" stroke="#003366" stroke-width="1"/><text x="328.0" y="462.0" font-family="sans-serif" font-size="10" text-anchor="middle" dominant-baseline="middle" fill="white">R_BURDEN</text></g>
<g transform="rotate(0.0, 328.0, 480.0)"><rect x="323.59" y="478.29" width="8.82" height="3.42" fill="#6699ff" stroke="#003366" stroke-width="1"/><text x="328.0" y="480.0" font-family="sans-serif" font-size="10" text-anchor="middle" dominant-baseline="middle" fill="white">C_CT_FILT</text></g>
<g transform="rotate(0.0, 364.0, 462.0)"><rect x="352.21" y="454.062" width="23.580000000000002" height="15.876000000000001" fill="#6699ff" stroke="#003366" stroke-width="1"/><text x="364.0" y="462.0" font-family="sans-serif" font-size="10" text-anchor="middle" dominant-baseline="middle" fill="white">U_OPAMP_CT</text></g>
<g transform="rotate(0.0, 328.0, 516.0)"><rect x="315.04" y="504.66" width="25.919999999999998" height="22.68" fill="#6699ff" stroke="#003366" stroke-width="1"/><text x="328.0" y="516.0" font-family="sans-serif" font-size="10" text-anchor="middle" dominant-baseline="middle" fill="white">MAX31865</text></g>
<g transform="rotate(0.0, 262.858, 462.0)"><rect x="252.4" y="458.4" width="20.916000000000004" height="7.2" fill="#6699ff" stroke="#003366" stroke-width="1"/><text x="262.858" y="462.0" font-family="sans-serif" font-size="10" text-anchor="middle" dominant-baseline="middle" fill="white">J_COIL</text></g>
<g transform="rotate(0.0, 260.572, 516.0)"><rect x="252.94" y="512.94" width="15.264000000000001" height="6.12" fill="#6699ff" stroke="#003366" stroke-width="1"/><text x="260.572" y="516.0" font-family="sans-serif" font-size="10" text-anchor="middle" dominant-baseline="middle" fill="white">J_NTC</text></g>
<g transform="rotate(0.0, 238.0, 48.0)"><rect x="234.4" y="44.4" width="7.2" height="7.2" fill="#6699ff" stroke="#003366" stroke-width="1"/><text x="238.0" y="48.0" font-family="sans-serif" font-size="10" text-anchor="middle" dominant-baseline="middle" fill="white">MH1</text></g>
<g transform="rotate(0.0, 562.0, 48.0)"><rect x="558.4" y="44.4" width="7.2" height="7.2" fill="#6699ff" stroke="#003366" stroke-width="1"/><text x="562.0" y="48.0" font-family="sans-serif" font-size="10" text-anchor="middle" dominant-baseline="middle" fill="white">MH2</text></g>
<g transform="rotate(0.0, 238.0, 552.0)"><rect x="234.4" y="548.4" width="7.2" height="7.2" fill="#6699ff" stroke="#003366" stroke-width="1"/><text x="238.0" y="552.0" font-family="sans-serif" font-size="10" text-anchor="middle" dominant-baseline="middle" fill="white">MH3</text></g>
<g transform="rotate(0.0, 562.0, 552.0)"><rect x="558.4" y="548.4" width="7.2" height="7.2" fill="#6699ff" stroke="#003366" stroke-width="1"/><text x="562.0" y="552.0" font-family="sans-serif" font-size="10" text-anchor="middle" dominant-baseline="middle" fill="white">MH4</text></g>
</svg>