$MeshFormat
2.2 0 8
$EndMeshFormat
$Nodes
472
1 0.07829999999999999 0.12935 7.000000000000001e-05
2 0.07829999999999999 0.12935 0
3 0.07829999999999999 0.13465 7.000000000000001e-05
4 0.07829999999999999 0.13465 0
5 0.0818 0.12935 0
6 0.0818 0.12935 7.000000000000001e-05
7 0.0818 0.13465 7.000000000000001e-05
8 0.0818 0.134 7.000000000000001e-05
9 0.08070000000000001 0.134 7.000000000000001e-05
10 0.08070000000000001 0.13 7.000000000000001e-05
11 0.0818 0.13 7.000000000000001e-05
12 0.0818 0.13465 0
13 0.0818 0.134 0
14 0.08070000000000001 0.134 0
15 0.08070000000000001 0.13 0
16 0.0818 0.13 0
17 0.08179999999999997 0.1336703293088491 7.000000000000001e-05
18 0.08179999999999997 0.1336703293088491 0
19 0.08179999999999996 0.130329670691151 7.000000000000001e-05
20 0.08179999999999996 0.130329670691151 0
21 0.0742 0.12935 7.000000000000001e-05
22 0.0742 0.12935 0
23 0.0742 0.13465 7.000000000000001e-05
24 0.0742 0.13465 0
25 0.0747 0.12935 0
26 0.0747 0.12935 7.000000000000001e-05
27 0.0747 0.13465 7.000000000000001e-05
28 0.0747 0.13465 0
29 0.07610623611104245 0.12935 0
30 0.07610623611104245 0.12935 7.000000000000001e-05
31 0.0761062361110425 0.13465 0
32 0.07770000000000001 0.132 0
33 0.07770000000000001 0.132 7.000000000000001e-05
34 0.0761062361110425 0.13465 7.000000000000001e-05
35 0.07770000000000001 0.12935 0
36 0.07770000000000001 0.12935 7.000000000000001e-05
37 0.07770000000000001 0.13465 7.000000000000001e-05
38 0.07770000000000001 0.13465 0
39 0.0839 0.13 0
40 0.0839 0.13 7.000000000000001e-05
41 0.0839 0.134 0
42 0.08270000000000001 0.132 0
43 0.0839 0.134 7.000000000000001e-05
44 0.08270000000000001 0.132 7.000000000000001e-05
45 0.0711 0.129 7.000000000000001e-05
46 0.0711 0.129 0
47 0.0711 0.135 7.000000000000001e-05
48 0.0711 0.135 0
49 0.0747 0.129 0
50 0.0747 0.129 7.000000000000001e-05
51 0.0747 0.135 7.000000000000001e-05
52 0.0747 0.135 0
53 0.07829999999999999 0.1301071428571428 7.000000000000001e-05
54 0.07829999999999999 0.1308642857142857 7.000000000000001e-05
55 0.07829999999999999 0.1316214285714286 7.000000000000001e-05
56 0.07829999999999999 0.1323785714285714 7.000000000000001e-05
57 0.07829999999999999 0.1331357142857143 7.000000000000001e-05
58 0.07829999999999999 0.1338928571428571 7.000000000000001e-05
59 0.07829999999999999 0.1301071428571428 0
60 0.07829999999999999 0.1308642857142857 0
61 0.07829999999999999 0.1316214285714286 0
62 0.07829999999999999 0.1323785714285714 0
63 0.07829999999999999 0.1331357142857143 0
64 0.07829999999999999 0.1338928571428571 0
65 0.079 0.12935 0
66 0.07969999999999999 0.12935 0
67 0.0804 0.12935 0
68 0.08109999999999999 0.12935 0
69 0.079 0.12935 7.000000000000001e-05
70 0.07969999999999999 0.12935 7.000000000000001e-05
71 0.0804 0.12935 7.000000000000001e-05
72 0.08109999999999999 0.12935 7.000000000000001e-05
73 0.079 0.13465 7.000000000000001e-05
74 0.07969999999999999 0.13465 7.000000000000001e-05
75 0.0804 0.13465 7.000000000000001e-05
76 0.08109999999999999 0.13465 7.000000000000001e-05
77 0.08125 0.134 7.000000000000001e-05
78 0.07993463313526983 0.1338477590650226 7.000000000000001e-05
79 0.07928578643762692 0.1334142135623731 7.000000000000001e-05
80 0.07885224093497743 0.1327653668647302 7.000000000000001e-05
81 0.07870000000000001 0.132 7.000000000000001e-05
82 0.07885224093497743 0.1312346331352698 7.000000000000001e-05
83 0.0792857864376269 0.1305857864376269 7.000000000000001e-05
84 0.07993463313526983 0.1301522409349774 7.000000000000001e-05
85 0.08125 0.13 7.000000000000001e-05
86 0.079 0.13465 0
87 0.07969999999999999 0.13465 0
88 0.0804 0.13465 0
89 0.08109999999999999 0.13465 0
90 0.08125 0.134 0
91 0.07993463313526983 0.1338477590650226 0
92 0.07928578643762692 0.1334142135623731 0
93 0.07885224093497743 0.1327653668647302 0
94 0.07870000000000001 0.132 0
95 0.07885224093497743 0.1312346331352698 0
96 0.0792857864376269 0.1305857864376269 0
97 0.07993463313526983 0.1301522409349774 0
98 0.08125 0.13 0
99 0.08127416956654891 0.1339158103530488 7.000000000000001e-05
100 0.08127416956654891 0.1339158103530488 0
101 0.08070000000000001 0.1308 7.000000000000001e-05
102 0.08070000000000001 0.1316 7.000000000000001e-05
103 0.08070000000000001 0.1324 7.000000000000001e-05
104 0.08070000000000001 0.1332 7.000000000000001e-05
105 0.08070000000000001 0.1308 0
106 0.08070000000000001 0.1316 0
107 0.08070000000000001 0.1324 0
108 0.08070000000000001 0.1332 0
109 0.08127416956654891 0.1300841896469512 7.000000000000001e-05
110 0.08127416956654891 0.1300841896469512 0
111 0.0818 0.1309978024146906 7.000000000000001e-05
112 0.0818 0.1316659341382302 7.000000000000001e-05
113 0.0818 0.1323340658617698 7.000000000000001e-05
114 0.0818 0.1330021975853094 7.000000000000001e-05
115 0.0818 0.1309978024146906 0
116 0.0818 0.1316659341382302 0
117 0.0818 0.1323340658617698 0
118 0.0818 0.1330021975853094 0
119 0.0742 0.1301071428571428 7.000000000000001e-05
120 0.0742 0.1308642857142857 7.000000000000001e-05
121 0.0742 0.1316214285714286 7.000000000000001e-05
122 0.0742 0.1323785714285714 7.000000000000001e-05
123 0.0742 0.1331357142857143 7.000000000000001e-05
124 0.0742 0.1338928571428571 7.000000000000001e-05
125 0.0742 0.1301071428571428 0
126 0.0742 0.1308642857142857 0
127 0.0742 0.1316214285714286 0
128 0.0742 0.1323785714285714 0
129 0.0742 0.1331357142857143 0
130 0.0742 0.1338928571428571 0
131 0.0747 0.1301071428571428 7.000000000000001e-05
132 0.0747 0.1308642857142857 7.000000000000001e-05
133 0.0747 0.1316214285714286 7.000000000000001e-05
134 0.0747 0.1323785714285714 7.000000000000001e-05
135 0.0747 0.1331357142857143 7.000000000000001e-05
136 0.0747 0.1338928571428571 7.000000000000001e-05
137 0.0747 0.1301071428571428 0
138 0.0747 0.1308642857142857 0
139 0.0747 0.1316214285714286 0
140 0.0747 0.1323785714285714 0
141 0.0747 0.1331357142857143 0
142 0.0747 0.1338928571428571 0
143 0.07540311805552122 0.12935 0
144 0.07540311805552122 0.12935 7.000000000000001e-05
145 0.07540311805552126 0.13465 0
146 0.07762991085130781 0.1326446878340629 0
147 0.07742291839774085 0.1332592519204847 0
148 0.07708869458920324 0.1338149760768427 0
149 0.07664285640050369 0.1342858934811189 0
150 0.07664285640050365 0.1297141065188811 0
151 0.0770886945892032 0.1301850239231573 0
152 0.07742291839774083 0.1307407480795152 0
153 0.07762991085130781 0.1313553121659371 0
154 0.07664285640050365 0.1297141065188811 7.000000000000001e-05
155 0.0770886945892032 0.1301850239231573 7.000000000000001e-05
156 0.07742291839774083 0.1307407480795152 7.000000000000001e-05
157 0.07762991085130781 0.1313553121659371 7.000000000000001e-05
158 0.07540311805552126 0.13465 7.000000000000001e-05
159 0.07762991085130781 0.1326446878340629 7.000000000000001e-05
160 0.07742291839774085 0.1332592519204847 7.000000000000001e-05
161 0.07708869458920324 0.1338149760768427 7.000000000000001e-05
162 0.07664285640050369 0.1342858934811189 7.000000000000001e-05
163 0.07690311805552123 0.12935 0
164 0.07690311805552123 0.12935 7.000000000000001e-05
165 0.07770000000000001 0.1300125 0
166 0.07770000000000001 0.130675 0
167 0.07770000000000001 0.1313375 0
168 0.07770000000000001 0.1300125 7.000000000000001e-05
169 0.07770000000000001 0.130675 7.000000000000001e-05
170 0.07770000000000001 0.1313375 7.000000000000001e-05
171 0.07690311805552125 0.13465 7.000000000000001e-05
172 0.07770000000000001 0.1326625 7.000000000000001e-05
173 0.07770000000000001 0.133325 7.000000000000001e-05
174 0.07770000000000001 0.1339875 7.000000000000001e-05
175 0.07690311805552125 0.13465 0
176 0.07770000000000001 0.1326625 0
177 0.07770000000000001 0.133325 0
178 0.07770000000000001 0.1339875 0
179 0.0825 0.13 0
180 0.0832 0.13 0
181 0.0825 0.13 7.000000000000001e-05
182 0.0832 0.13 7.000000000000001e-05
183 0.0825 0.134 0
184 0.0832 0.134 0
185 0.0839 0.1308 0
186 0.0839 0.1316 0
187 0.0839 0.1324 0
188 0.0839 0.1332 0
189 0.08228126534988661 0.1307754184823998 0
190 0.08259242314239883 0.1313529029051886 0
191 0.08259242314239883 0.1326470970948114 0
192 0.08228126534988661 0.1332245815176002 0
193 0.0839 0.1308 7.000000000000001e-05
194 0.0839 0.1316 7.000000000000001e-05
195 0.0839 0.1324 7.000000000000001e-05
196 0.0839 0.1332 7.000000000000001e-05
197 0.0825 0.134 7.000000000000001e-05
198 0.0832 0.134 7.000000000000001e-05
199 0.08228126534988661 0.1307754184823998 7.000000000000001e-05
200 0.08259242314239883 0.1313529029051886 7.000000000000001e-05
201 0.08259242314239883 0.1326470970948114 7.000000000000001e-05
202 0.08228126534988661 0.1332245815176002 7.000000000000001e-05
203 0.0711 0.12975 7.000000000000001e-05
204 0.0711 0.1305 7.000000000000001e-05
205 0.0711 0.13125 7.000000000000001e-05
206 0.0711 0.132 7.000000000000001e-05
207 0.0711 0.13275 7.000000000000001e-05
208 0.0711 0.1335 7.000000000000001e-05
209 0.0711 0.13425 7.000000000000001e-05
210 0.0711 0.12975 0
211 0.0711 0.1305 0
212 0.0711 0.13125 0
213 0.0711 0.132 0
214 0.0711 0.13275 0
215 0.0711 0.1335 0
216 0.0711 0.13425 0
217 0.07181999999999999 0.129 0
218 0.07253999999999999 0.129 0
219 0.07326000000000001 0.129 0
220 0.07398 0.129 0
221 0.07181999999999999 0.129 7.000000000000001e-05
222 0.07253999999999999 0.129 7.000000000000001e-05
223 0.07326000000000001 0.129 7.000000000000001e-05
224 0.07398 0.129 7.000000000000001e-05
225 0.07181999999999999 0.135 7.000000000000001e-05
226 0.07253999999999999 0.135 7.000000000000001e-05
227 0.07326000000000001 0.135 7.000000000000001e-05
228 0.07398 0.135 7.000000000000001e-05
229 0.07392354286469244 0.1348977774788672 7.000000000000001e-05
230 0.0732 0.1345980762113533 7.000000000000001e-05
231 0.07257867965644037 0.1341213203435596 7.000000000000001e-05
232 0.07210192378864669 0.1335 7.000000000000001e-05
233 0.0718022225211328 0.1327764571353076 7.000000000000001e-05
234 0.0717 0.132 7.000000000000001e-05
235 0.07180222252113279 0.1312235428646925 7.000000000000001e-05
236 0.07210192378864667 0.1305 7.000000000000001e-05
237 0.07257867965644035 0.1298786796564404 7.000000000000001e-05
238 0.0732 0.1294019237886467 7.000000000000001e-05
239 0.07392354286469244 0.1291022225211328 7.000000000000001e-05
240 0.07181999999999999 0.135 0
241 0.07253999999999999 0.135 0
242 0.07326000000000001 0.135 0
243 0.07398 0.135 0
244 0.07392354286469244 0.1348977774788672 0
245 0.0732 0.1345980762113533 0
246 0.07257867965644037 0.1341213203435596 0
247 0.07210192378864669 0.1335 0
248 0.0718022225211328 0.1327764571353076 0
249 0.0717 0.132 0
250 0.07180222252113279 0.1312235428646925 0
251 0.07210192378864667 0.1305 0
252 0.07257867965644035 0.1298786796564404 0
253 0.0732 0.1294019237886467 0
254 0.07392354286469244 0.1291022225211328 0
255 0.07542456883730947 0.1349111853256019 0
256 0.07542456883730947 0.1349111853256019 7.000000000000001e-05
257 0.07542456883730943 0.1290888146743981 7.000000000000001e-05
258 0.07542456883730943 0.1290888146743981 0
259 0.07934999999999999 0.1298877975512015 7.000000000000001e-05
260 0.07934999999999999 0.1341122024487985 7.000000000000001e-05
261 0.07874843175869231 0.1335303343001156 7.000000000000001e-05
262 0.07874843175869231 0.1304696656998844 7.000000000000001e-05
263 0.07877628458391904 0.1298531356772455 7.000000000000001e-05
264 0.07877628458391905 0.1341468643227544 7.000000000000001e-05
265 0.08150586734693878 0.134325 7.000000000000001e-05
266 0.08150586734693878 0.129675 7.000000000000001e-05
267 0.07934999999999999 0.1298877975512015 0
268 0.07934999999999999 0.1341122024487985 0
269 0.07874843175869231 0.1335303343001156 0
270 0.07874843175869231 0.1304696656998844 0
271 0.07877628458391904 0.1298531356772455 0
272 0.07877628458391904 0.1341468643227544 0
273 0.08150586734693878 0.134325 0
274 0.08150586734693878 0.129675 0
275 0.08000717967697246 0.132 7.000000000000001e-05
276 0.07962427063822294 0.1326935445133557 7.000000000000001e-05
277 0.07962427063822294 0.1313437875709881 7.000000000000001e-05
278 0.07935358983848624 0.1321119962530314 7.000000000000001e-05
279 0.07994810826654297 0.1308442612457976 7.000000000000001e-05
280 0.07994810826654297 0.1331632051710711 7.000000000000001e-05
281 0.0801958732042309 0.1326717482270974 7.000000000000001e-05
282 0.0801958668949064 0.131333795345673 7.000000000000001e-05
283 0.08000717967697246 0.132 0
284 0.07962427063822294 0.1326935445133557 0
285 0.07962427063822294 0.1313437875709881 0
286 0.07935358983848624 0.1321119962530314 0
287 0.07994810826654297 0.1308442612457976 0
288 0.07994810826654297 0.1331632051710711 0
289 0.0801958732042309 0.1326717482270974 0
290 0.0801958668949064 0.131333795345673 0
291 0.08136844349320356 0.1307087062058506 7.000000000000001e-05
292 0.08136844349320356 0.1332912937941494 7.000000000000001e-05
293 0.08125601596648965 0.132 7.000000000000001e-05
294 0.08127074324328221 0.1327045928735381 7.000000000000001e-05
295 0.08127074324328221 0.1312954071264619 7.000000000000001e-05
296 0.08136844349320356 0.1307087062058506 0
297 0.08136844349320356 0.1332912937941494 0
298 0.08125601596648965 0.132 0
299 0.08127074324328221 0.1312954071264619 0
300 0.08127074324328221 0.1327045928735381 0
301 0.07445 0.1304857142857143 7.000000000000001e-05
302 0.07445 0.132 7.000000000000001e-05
303 0.07445 0.1297285714285714 7.000000000000001e-05
304 0.07445 0.1342714285714286 7.000000000000001e-05
305 0.07445 0.1312428571428571 7.000000000000001e-05
306 0.07445 0.1327571428571429 7.000000000000001e-05
307 0.07445 0.1335142857142857 7.000000000000001e-05
308 0.07445 0.1304857142857143 0
309 0.07445 0.132 0
310 0.07445 0.1335142857142857 0
311 0.07445 0.1297285714285714 0
312 0.07445 0.1342714285714286 0
313 0.07445 0.1312428571428571 0
314 0.07445 0.1327571428571429 0
315 0.07710663938384467 0.1322616449337344 0
316 0.07676178244615327 0.1307554452312323 0
317 0.07645794905966603 0.1336643275815897 0
318 0.07535097320951127 0.1320098819128564 0
319 0.07575467708328183 0.1299352619910467 0
320 0.07537813519503164 0.1335260256074372 0
321 0.07534961245007354 0.1327551432909333 0
322 0.07596353667081228 0.1323809376446608 0
323 0.07599242881048082 0.1316536818009668 0
324 0.07600696419560486 0.1331101116061786 0
325 0.07535756293795878 0.1312741213191188 0
326 0.07603086942744129 0.1309531573189085 0
327 0.07659413724224903 0.1326363024548074 0
328 0.07543694118378651 0.1304694442923701 0
329 0.0758429985778359 0.1340713426152934 0
330 0.07628597018839496 0.1303354065459327 0
331 0.07651937892578194 0.1320081460247563 0
332 0.07709347432519872 0.1316744872702342 0
333 0.0765838942228395 0.1313611201426179 0
334 0.07678176533388981 0.1332130097089866 0
335 0.07711524401557003 0.1327966931170772 0
336 0.07520363202038928 0.1341449871148967 0
337 0.07519894726451791 0.1298423698281119 0
338 0.07710040614960029 0.1311615313298221 0
339 0.07593183196848861 0.1335965060914175 0
340 0.07710663938384467 0.1322616449337344 7.000000000000001e-05
341 0.07676178244615327 0.1307554452312323 7.000000000000001e-05
342 0.07645794905966603 0.1336643275815897 7.000000000000001e-05
343 0.07535097320951127 0.1320098819128564 7.000000000000001e-05
344 0.07575467708328183 0.1299352619910467 7.000000000000001e-05
345 0.07537813519503164 0.1335260256074372 7.000000000000001e-05
346 0.07534961245007354 0.1327551432909333 7.000000000000001e-05
347 0.07596353667081228 0.1323809376446608 7.000000000000001e-05
348 0.07599242881048082 0.1316536818009668 7.000000000000001e-05
349 0.07600696419560486 0.1331101116061786 7.000000000000001e-05
350 0.07535756293795878 0.1312741213191188 7.000000000000001e-05
351 0.07603086942744129 0.1309531573189085 7.000000000000001e-05
352 0.07659413724224903 0.1326363024548074 7.000000000000001e-05
353 0.07543694118378651 0.1304694442923701 7.000000000000001e-05
354 0.0758429985778359 0.1340713426152934 7.000000000000001e-05
355 0.07628597018839496 0.1303354065459327 7.000000000000001e-05
356 0.07651937892578194 0.1320081460247563 7.000000000000001e-05
357 0.07709347432519872 0.1316744872702342 7.000000000000001e-05
358 0.0765838942228395 0.1313611201426179 7.000000000000001e-05
359 0.07678176533388981 0.1332130097089866 7.000000000000001e-05
360 0.07711524401557003 0.1327966931170772 7.000000000000001e-05
361 0.07520363202038928 0.1341449871148967 7.000000000000001e-05
362 0.07519894726451791 0.1298423698281119 7.000000000000001e-05
363 0.07710040614960029 0.1311615313298221 7.000000000000001e-05
364 0.07593183196848861 0.1335965060914175 7.000000000000001e-05
365 0.07747505701220699 0.13034375 0
366 0.07728286291209165 0.1297037384483147 0
367 0.07747505701220699 0.13034375 7.000000000000001e-05
368 0.07728286291209165 0.1297037384483147 7.000000000000001e-05
369 0.07747505701220697 0.13365625 7.000000000000001e-05
370 0.07728286291209165 0.1342962615516853 7.000000000000001e-05
371 0.07747505701220697 0.13365625 0
372 0.07728286291209165 0.1342962615516853 0
373 0.08285643720233123 0.1332950185118775 0
374 0.08285643720233123 0.1307049814881225 0
375 0.08320661409402122 0.1324167128389477 0
376 0.08320661409402122 0.1315832871610524 0
377 0.08224754051044357 0.1336379858676654 0
378 0.08224754051044357 0.1303620141323346 0
379 0.08342004406866171 0.133486288560079 0
380 0.08342004406866171 0.130513711439921 0
381 0.08345661907300284 0.1329596039821808 0
382 0.08345661907300284 0.1310403960178192 0
383 0.08350160191145935 0.132 0
384 0.08285643720233123 0.1332950185118775 7.000000000000001e-05
385 0.08285643720233123 0.1307049814881225 7.000000000000001e-05
386 0.08320661409402122 0.1324167128389477 7.000000000000001e-05
387 0.08320661409402122 0.1315832871610524 7.000000000000001e-05
388 0.08224754051044357 0.1336379858676654 7.000000000000001e-05
389 0.08224754051044357 0.1303620141323346 7.000000000000001e-05
390 0.08342004406866171 0.133486288560079 7.000000000000001e-05
391 0.08342004406866171 0.130513711439921 7.000000000000001e-05
392 0.08345661907300284 0.1329596039821808 7.000000000000001e-05
393 0.08345661907300284 0.1310403960178192 7.000000000000001e-05
394 0.08350160191145935 0.132 7.000000000000001e-05
395 0.08226506470023137 0.132 7.000000000000001e-05
396 0.08214775063850335 0.1326415884118982 7.000000000000001e-05
397 0.08214775063850335 0.1313584115881018 7.000000000000001e-05
398 0.08226506470023137 0.132 0
399 0.08214775063850335 0.1326415884118982 0
400 0.08214775063850335 0.1313584115881018 0
401 0.07180103698722064 0.1299192530783147 7.000000000000001e-05
402 0.0717339805017384 0.1339816849592638 7.000000000000001e-05
403 0.07139999999999999 0.132375 7.000000000000001e-05
404 0.07140000000000001 0.131625 7.000000000000001e-05
405 0.07274768035519893 0.1346353570210134 7.000000000000001e-05
406 0.07218339345757147 0.1345836760298095 7.000000000000001e-05
407 0.07274768035519892 0.1293646429789866 7.000000000000001e-05
408 0.07226857047776809 0.1294255648855046 7.000000000000001e-05
409 0.07160096189432334 0.1332836636136823 7.000000000000001e-05
410 0.07160096189432333 0.1307163363863177 7.000000000000001e-05
411 0.07149318273424145 0.1346088796849788 7.000000000000001e-05
412 0.0717339805017384 0.1339816849592638 0
413 0.07173398050173839 0.1300183150407362 0
414 0.07140000000000001 0.131625 0
415 0.07139999999999999 0.132375 0
416 0.07274768035519893 0.1346353570210134 0
417 0.07218339345757148 0.1345836760298095 0
418 0.07274768035519892 0.1293646429789866 0
419 0.07218339345757145 0.1294163239701905 0
420 0.07160096189432333 0.1307163363863177 0
421 0.07160096189432334 0.1332836636136823 0
422 0.07149318273424145 0.1293911203150212 0
423 0.07149318273424145 0.1346088796849788 0
424 0.07356183656479617 0.1319674863697665 7.000000000000001e-05
425 0.07287838092395424 0.1333977774788672 7.000000000000001e-05
426 0.07287838092395424 0.1306022225211328 7.000000000000001e-05
427 0.07241146984532762 0.1322860662430182 7.000000000000001e-05
428 0.07380821451573731 0.1296516296636234 7.000000000000001e-05
429 0.07380821451573732 0.1343483703363766 7.000000000000001e-05
430 0.07354000910273459 0.1311622851498728 7.000000000000001e-05
431 0.07288230741366293 0.1316214285714286 7.000000000000001e-05
432 0.07354429505142036 0.1327571428571429 7.000000000000001e-05
433 0.07348646917126664 0.1302383099073064 7.000000000000001e-05
434 0.07350960378096004 0.1337153854758297 7.000000000000001e-05
435 0.07238248010724382 0.1311296994188744 7.000000000000001e-05
436 0.07287955844437424 0.1327404726268691 7.000000000000001e-05
437 0.07224150981160359 0.1316762236894062 7.000000000000001e-05
438 0.07237596494336603 0.1329602988232823 7.000000000000001e-05
439 0.07300012187227339 0.1321834896471703 7.000000000000001e-05
440 0.07356183656479617 0.1319674863697665 0
441 0.07287838092395424 0.1333977774788672 0
442 0.07287838092395424 0.1306022225211328 0
443 0.07241146984532762 0.1322860662430182 0
444 0.07380821451573731 0.1343483703363766 0
445 0.07380821451573732 0.1296516296636234 0
446 0.07354000910273459 0.1311622851498728 0
447 0.07288230741366293 0.1316214285714286 0
448 0.07354429505142036 0.1327571428571429 0
449 0.07348646917126664 0.1302383099073064 0
450 0.07350960378096004 0.1337153854758297 0
451 0.07238248010724382 0.1311296994188744 0
452 0.07287955844437424 0.1327404726268691 0
453 0.07224150981160359 0.1316762236894062 0
454 0.07237596494336603 0.1329602988232823 0
455 0.07300012187227339 0.1321834896471703 0
456 0.07505692172320769 0.1348027963314005 0
457 0.07505692172320769 0.1348027963314005 7.000000000000001e-05
458 0.07505692172320766 0.1291972036685995 7.000000000000001e-05
459 0.07505692172320766 0.1291972036685995 0
460 0.07863355756455657 0.1308561948498133 3.5e-05
461 0.07925409933694243 0.1310547357146283 3.5e-05
462 0.08030101552395963 0.1316445984485576 3.5e-05
463 0.08161867198882987 0.132 3.5e-05
464 0.08148087101991749 0.1303741888479843 3.5e-05
465 0.0808913898555163 0.1302947298823171 3.5e-05
466 0.0761973636964607 0.1343357453654708 3.5e-05
467 0.07747885007838416 0.1323021109225991 3.5e-05
468 0.07575467708328182 0.1295450873303489 3.5e-05
469 0.08251916261421009 0.1317843009683962 3.500000000000001e-05
470 0.07346118095489748 0.1348319512300735 3.500000000000001e-05
471 0.07183503606803425 0.13081329308367 3.5e-05
472 0.07396986792698669 0.1335813189681337 3.500000000000001e-05
$EndNodes
$Elements
1264
1 2 2 13 47 40 39 185
2 2 2 13 47 185 193 40
3 2 2 13 47 188 41 43
4 2 2 13 47 188 43 196
5 2 2 13 47 186 194 185
6 2 2 13 47 194 193 185
7 2 2 13 47 187 195 186
8 2 2 13 47 195 194 186
9 2 2 13 47 196 187 188
10 2 2 13 47 196 195 187
11 2 2 13 54 203 46 45
12 2 2 13 54 46 203 210
13 2 2 13 54 216 47 48
14 2 2 13 54 47 216 209
15 2 2 13 54 203 204 211
16 2 2 13 54 203 211 210
17 2 2 13 54 204 205 212
18 2 2 13 54 204 212 211
19 2 2 13 54 213 205 206
20 2 2 13 54 212 205 213
21 2 2 13 54 207 213 206
22 2 2 13 54 208 214 207
23 2 2 13 54 214 213 207
24 2 2 13 54 216 208 209
25 2 2 13 54 215 214 208
26 2 2 13 54 216 215 208
27 4 2 1 1 82 270 262 460
28 4 2 1 1 82 95 270 460
29 4 2 1 1 77 273 89 265
30 4 2 1 1 85 68 10 98
31 4 2 1 1 9 90 89 77
32 4 2 1 1 10 67 97 15
33 4 2 1 1 9 88 14 78
34 4 2 1 1 74 87 88 78
35 4 2 1 1 66 71 84 70
36 4 2 1 1 11 5 266 274
37 4 2 1 1 58 64 3 264
38 4 2 1 1 2 271 59 53
39 4 2 1 1 85 10 68 72
40 4 2 1 1 56 63 80 62
41 4 2 1 1 63 56 80 57
42 4 2 1 1 76 77 9 89
43 4 2 1 1 5 6 266 72
44 4 2 1 1 75 74 88 78
45 4 2 1 1 268 272 269 260
46 4 2 1 1 271 262 267 270
47 4 2 1 1 9 88 78 75
48 4 2 1 1 54 262 60 460
49 4 2 1 1 68 15 10 98
50 4 2 1 1 90 9 89 14
51 4 2 1 1 72 67 10 68
52 4 2 1 1 268 79 269 92
53 4 2 1 1 9 89 88 76
54 4 2 1 1 63 80 62 93
55 4 2 1 1 91 88 87 78
56 4 2 1 1 265 76 7 89
57 4 2 1 1 85 68 98 274
58 4 2 1 1 273 77 89 90
59 4 2 1 1 88 91 14 78
60 4 2 1 1 15 10 67 68
61 4 2 1 1 89 9 88 14
62 4 2 1 1 79 269 92 80
63 4 2 1 1 79 268 269 260
64 4 2 1 1 260 269 79 261
65 4 2 1 1 80 62 94 56
66 4 2 1 1 270 60 262 460
67 4 2 1 1 92 269 93 80
68 4 2 1 1 80 94 81 56
69 4 2 1 1 267 96 270 83
70 4 2 1 1 262 267 270 83
71 4 2 1 1 83 262 267 259
72 4 2 1 1 79 269 80 261
73 4 2 1 1 62 80 94 93
74 4 2 1 1 8 12 13 273
75 4 2 1 1 5 11 16 274
76 4 2 1 1 5 6 11 266
77 4 2 1 1 74 86 260 73
78 4 2 1 1 55 62 56 94
79 4 2 1 1 55 62 94 61
80 4 2 1 1 64 261 58 57
81 4 2 1 1 55 61 95 54
82 4 2 1 1 60 95 61 54
83 4 2 1 1 262 54 60 53
84 4 2 1 1 77 76 265 89
85 4 2 1 1 269 63 93 80
86 4 2 1 1 67 72 10 71
87 4 2 1 1 81 56 94 55
88 4 2 1 1 76 88 9 75
89 4 2 1 1 74 260 87 78
90 4 2 1 1 70 66 259 84
91 4 2 1 1 260 268 87 78
92 4 2 1 1 66 267 259 84
93 4 2 1 1 91 268 92 79
94 4 2 1 1 94 61 95 55
95 4 2 1 1 81 94 95 55
96 4 2 1 1 86 74 260 87
97 4 2 1 1 66 259 69 70
98 4 2 1 1 87 260 86 268
99 4 2 1 1 260 79 268 78
100 4 2 1 1 95 83 270 96
101 4 2 1 1 270 82 262 83
102 4 2 1 1 97 96 267 83
103 4 2 1 1 267 83 259 84
104 4 2 1 1 11 85 274 266
105 4 2 1 1 8 77 265 273
106 4 2 1 1 60 95 54 460
107 4 2 1 1 267 66 97 84
108 4 2 1 1 91 87 268 78
109 4 2 1 1 54 95 55 82
110 4 2 1 1 79 91 268 78
111 4 2 1 1 53 271 262 263
112 4 2 1 1 95 83 82 270
113 4 2 1 1 83 267 97 84
114 4 2 1 1 86 260 272 268
115 4 2 1 1 55 95 81 82
116 4 2 1 1 58 261 64 264
117 4 2 1 1 13 77 273 90
118 4 2 1 1 98 11 85 274
119 4 2 1 1 98 11 274 16
120 4 2 1 1 13 77 8 273
121 4 2 1 1 54 95 82 460
122 4 2 1 1 82 262 54 460
123 4 2 1 1 60 270 95 460
124 4 2 1 1 8 273 7 12
125 4 2 1 1 8 7 273 265
126 4 2 1 1 89 7 273 12
127 4 2 1 1 89 273 7 265
128 4 2 1 1 85 274 72 68
129 4 2 1 1 85 72 274 266
130 4 2 1 1 5 72 274 68
131 4 2 1 1 5 274 72 266
132 4 2 1 1 260 264 269 261
133 4 2 1 1 260 269 264 272
134 4 2 1 1 64 269 264 261
135 4 2 1 1 64 264 269 272
136 4 2 1 1 1 65 263 69
137 4 2 1 1 272 4 73 86
138 4 2 1 1 73 260 272 86
139 4 2 1 1 272 260 73 264
140 4 2 1 1 2 53 263 271
141 4 2 1 1 263 53 2 1
142 4 2 1 1 263 65 2 271
143 4 2 1 1 2 65 263 1
144 4 2 1 1 64 3 272 4
145 4 2 1 1 64 272 3 264
146 4 2 1 1 73 272 3 4
147 4 2 1 1 73 3 272 264
148 4 2 1 1 10 67 84 97
149 4 2 1 1 10 84 67 71
150 4 2 1 1 66 84 67 97
151 4 2 1 1 66 67 84 71
152 4 2 1 1 65 263 267 271
153 4 2 1 1 262 263 267 259
154 4 2 1 1 262 267 263 271
155 4 2 1 1 80 57 269 63
156 4 2 1 1 80 269 57 261
157 4 2 1 1 64 269 57 63
158 4 2 1 1 64 57 269 261
159 4 2 1 1 69 263 267 65
160 4 2 1 1 267 263 69 259
161 4 2 1 1 267 66 69 65
162 4 2 1 1 69 66 267 259
163 4 2 1 1 53 271 270 262
164 4 2 1 1 270 271 53 59
165 4 2 1 1 270 60 53 262
166 4 2 1 1 53 60 270 59
167 4 2 1 2 13 17 99 18
168 4 2 1 2 17 13 99 8
169 4 2 1 2 90 9 14 100
170 4 2 1 2 13 77 99 8
171 4 2 1 2 13 18 99 100
172 4 2 1 2 13 77 100 99
173 4 2 1 2 13 100 77 90
174 4 2 1 2 9 100 77 99
175 4 2 1 2 9 77 100 90
176 4 2 1 3 290 275 282 462
177 4 2 1 3 290 283 275 462
178 4 2 1 3 95 83 96 461
179 4 2 1 3 101 287 97 279
180 4 2 1 3 108 9 14 78
181 4 2 1 3 10 97 101 15
182 4 2 1 3 79 92 284 80
183 4 2 1 3 276 79 284 80
184 4 2 1 3 93 284 92 80
185 4 2 1 3 83 95 82 461
186 4 2 1 3 91 108 14 78
187 4 2 1 3 10 97 84 101
188 4 2 1 3 78 108 9 104
189 4 2 1 3 105 97 15 101
190 4 2 1 3 287 101 97 105
191 4 2 1 3 97 84 101 279
192 4 2 1 3 108 78 280 104
193 4 2 1 3 79 284 288 280
194 4 2 1 3 284 288 92 79
195 4 2 1 3 280 79 284 276
196 4 2 1 3 94 80 286 93
197 4 2 1 3 284 80 286 276
198 4 2 1 3 106 290 101 282
199 4 2 1 3 80 284 286 93
200 4 2 1 3 287 83 97 279
201 4 2 1 3 283 278 285 275
202 4 2 1 3 288 91 92 79
203 4 2 1 3 283 285 290 275
204 4 2 1 3 277 285 278 275
205 4 2 1 3 104 281 107 103
206 4 2 1 3 282 101 106 102
207 4 2 1 3 83 287 97 96
208 4 2 1 3 284 286 283 276
209 4 2 1 3 276 278 283 275
210 4 2 1 3 286 278 276 80
211 4 2 1 3 278 283 285 286
212 4 2 1 3 84 97 83 279
213 4 2 1 3 106 290 105 101
214 4 2 1 3 290 287 105 101
215 4 2 1 3 278 283 286 276
216 4 2 1 3 106 290 282 462
217 4 2 1 3 106 282 102 462
218 4 2 1 3 106 283 290 462
219 4 2 1 3 275 102 282 462
220 4 2 1 3 82 277 83 461
221 4 2 1 3 95 96 285 461
222 4 2 1 3 461 285 83 96
223 4 2 1 3 461 83 285 277
224 4 2 1 3 287 83 285 96
225 4 2 1 3 102 107 275 103
226 4 2 1 3 281 275 107 103
227 4 2 1 3 108 288 78 91
228 4 2 1 3 108 78 288 280
229 4 2 1 3 79 78 288 91
230 4 2 1 3 79 288 78 280
231 4 2 1 3 83 285 279 287
232 4 2 1 3 83 279 285 277
233 4 2 1 3 285 95 278 286
234 4 2 1 3 81 95 278 82
235 4 2 1 3 461 95 277 285
236 4 2 1 3 461 277 95 82
237 4 2 1 3 278 277 95 285
238 4 2 1 3 278 95 277 82
239 4 2 1 3 95 94 278 286
240 4 2 1 3 95 278 94 81
241 4 2 1 3 80 278 94 286
242 4 2 1 3 80 94 278 81
243 4 2 1 3 279 282 285 277
244 4 2 1 3 275 285 282 277
245 4 2 1 3 275 282 285 290
246 4 2 1 3 289 284 280 288
247 4 2 1 3 280 108 289 288
248 4 2 1 3 282 285 287 279
249 4 2 1 3 287 285 282 290
250 4 2 1 3 287 101 282 279
251 4 2 1 3 282 101 287 290
252 4 2 1 3 280 104 289 108
253 4 2 1 3 280 289 104 281
254 4 2 1 3 107 289 104 108
255 4 2 1 3 107 104 289 281
256 4 2 1 3 283 276 289 284
257 4 2 1 3 280 289 276 284
258 4 2 1 3 280 276 289 281
259 4 2 1 3 289 276 275 281
260 4 2 1 3 275 276 289 283
261 4 2 1 3 275 107 289 281
262 4 2 1 3 289 107 275 283
263 4 2 1 3 107 102 283 106
264 4 2 1 3 107 283 102 275
265 4 2 1 3 462 283 102 106
266 4 2 1 3 462 102 283 275
267 4 2 1 4 19 16 110 20
268 4 2 1 4 110 85 10 98
269 4 2 1 4 16 19 110 11
270 4 2 1 4 110 10 15 98
271 4 2 1 4 98 11 110 85
272 4 2 1 4 11 98 110 16
273 4 2 1 4 19 110 11 109
274 4 2 1 4 85 110 10 109
275 4 2 1 4 85 109 11 110
276 4 2 1 5 109 105 110 465
277 4 2 1 5 112 117 116 463
278 4 2 1 5 117 112 113 463
279 4 2 1 5 101 105 109 465
280 4 2 1 5 106 107 293 298
281 4 2 1 5 107 103 102 293
282 4 2 1 5 106 107 102 293
283 4 2 1 5 114 117 300 118
284 4 2 1 5 111 295 112 115
285 4 2 1 5 110 19 20 464
286 4 2 1 5 298 293 106 299
287 4 2 1 5 20 19 291 464
288 4 2 1 5 108 14 9 100
289 4 2 1 5 20 291 296 464
290 4 2 1 5 295 106 293 299
291 4 2 1 5 295 105 106 299
292 4 2 1 5 111 20 19 291
293 4 2 1 5 17 18 114 292
294 4 2 1 5 293 107 103 294
295 4 2 1 5 293 102 106 295
296 4 2 1 5 108 104 292 99
297 4 2 1 5 291 101 105 109
298 4 2 1 5 107 104 103 294
299 4 2 1 5 292 300 108 297
300 4 2 1 5 291 105 295 296
301 4 2 1 5 101 10 15 465
302 4 2 1 5 102 101 106 295
303 4 2 1 5 99 108 9 100
304 4 2 1 5 104 108 9 99
305 4 2 1 5 296 105 295 299
306 4 2 1 5 19 110 109 464
307 4 2 1 5 105 295 106 101
308 4 2 1 5 15 105 101 465
309 4 2 1 5 292 17 18 99
310 4 2 1 5 295 115 296 299
311 4 2 1 5 292 114 294 300
312 4 2 1 5 10 110 15 465
313 4 2 1 5 105 291 295 101
314 4 2 1 5 110 10 109 465
315 4 2 1 5 117 298 116 463
316 4 2 1 5 105 15 110 465
317 4 2 1 5 101 109 10 465
318 4 2 1 5 293 113 112 463
319 4 2 1 5 291 19 109 464
320 4 2 1 5 296 110 20 464
321 4 2 1 5 464 291 110 109
322 4 2 1 5 464 110 291 296
323 4 2 1 5 105 110 291 109
324 4 2 1 5 105 291 110 296
325 4 2 1 5 18 297 99 100
326 4 2 1 5 18 99 297 292
327 4 2 1 5 108 99 297 100
328 4 2 1 5 108 297 99 292
329 4 2 1 5 115 112 299 295
330 4 2 1 5 115 299 112 116
331 4 2 1 5 293 299 112 295
332 4 2 1 5 293 463 117 113
333 4 2 1 5 117 463 293 298
334 4 2 1 5 299 298 112 116
335 4 2 1 5 299 112 298 293
336 4 2 1 5 463 112 298 116
337 4 2 1 5 463 298 112 293
338 4 2 1 5 107 293 300 294
339 4 2 1 5 107 300 293 298
340 4 2 1 5 117 293 300 298
341 4 2 1 5 292 300 104 108
342 4 2 1 5 292 104 300 294
343 4 2 1 5 107 104 300 108
344 4 2 1 5 107 300 104 294
345 4 2 1 5 300 114 297 292
346 4 2 1 5 300 297 114 118
347 4 2 1 5 18 297 114 292
348 4 2 1 5 18 114 297 118
349 4 2 1 5 295 111 296 115
350 4 2 1 5 295 296 111 291
351 4 2 1 5 20 296 111 115
352 4 2 1 5 20 111 296 291
353 4 2 1 5 293 300 113 117
354 4 2 1 5 293 113 300 294
355 4 2 1 5 114 113 300 117
356 4 2 1 5 114 300 113 294
357 4 2 2 6 304 130 23 312
358 4 2 2 6 25 303 131 311
359 4 2 2 6 139 305 313 138
360 4 2 2 6 306 128 129 314
361 4 2 2 6 22 303 119 21
362 4 2 2 6 23 312 130 24
363 4 2 2 6 130 304 23 124
364 4 2 2 6 139 134 302 133
365 4 2 2 6 142 27 304 136
366 4 2 2 6 140 135 306 134
367 4 2 2 6 135 307 136 142
368 4 2 2 6 128 121 302 122
369 4 2 2 6 25 303 26 131
370 4 2 2 6 139 133 305 138
371 4 2 2 6 137 25 131 311
372 4 2 2 6 130 124 123 307
373 4 2 2 6 122 129 306 128
374 4 2 2 6 132 305 133 138
375 4 2 2 6 137 132 138 308
376 4 2 2 6 127 120 305 121
377 4 2 2 6 129 122 306 123
378 4 2 2 6 125 120 308 126
379 4 2 2 6 314 306 128 140
380 4 2 2 6 22 303 25 311
381 4 2 2 6 312 304 130 142
382 4 2 2 6 142 307 130 310
383 4 2 2 6 313 127 305 139
384 4 2 2 6 308 132 120 301
385 4 2 2 6 303 21 25 26
386 4 2 2 6 23 24 28 312
387 4 2 2 6 303 22 25 21
388 4 2 2 6 128 134 306 122
389 4 2 2 6 134 128 306 140
390 4 2 2 6 134 122 128 302
391 4 2 2 6 307 130 124 136
392 4 2 2 6 136 130 124 304
393 4 2 2 6 304 136 130 142
394 4 2 2 6 307 142 130 136
395 4 2 2 6 305 121 133 139
396 4 2 2 6 302 139 133 121
397 4 2 2 6 127 121 305 139
398 4 2 2 6 131 311 125 137
399 4 2 2 6 129 306 135 123
400 4 2 2 6 120 305 132 138
401 4 2 2 6 132 308 120 138
402 4 2 2 6 308 120 138 126
403 4 2 2 6 128 309 134 302
404 4 2 2 6 128 134 309 140
405 4 2 2 6 139 134 309 302
406 4 2 2 6 139 309 134 140
407 4 2 2 6 131 311 119 125
408 4 2 2 6 131 119 311 303
409 4 2 2 6 22 119 311 125
410 4 2 2 6 22 311 119 303
411 4 2 2 6 23 312 27 304
412 4 2 2 6 23 27 312 28
413 4 2 2 6 142 27 312 304
414 4 2 2 6 142 312 27 28
415 4 2 2 6 140 314 135 141
416 4 2 2 6 140 135 314 306
417 4 2 2 6 129 135 314 141
418 4 2 2 6 129 314 135 306
419 4 2 2 6 129 310 135 141
420 4 2 2 6 142 135 310 141
421 4 2 2 6 142 310 135 307
422 4 2 2 6 139 309 121 302
423 4 2 2 6 139 121 309 127
424 4 2 2 6 128 121 309 302
425 4 2 2 6 128 309 121 127
426 4 2 2 6 135 310 123 307
427 4 2 2 6 135 123 310 129
428 4 2 2 6 130 123 310 307
429 4 2 2 6 130 310 123 129
430 4 2 2 6 131 301 125 119
431 4 2 2 6 120 125 301 119
432 4 2 2 6 120 301 125 308
433 4 2 2 6 138 313 120 305
434 4 2 2 6 138 120 313 126
435 4 2 2 6 127 120 313 305
436 4 2 2 6 127 313 120 126
437 4 2 2 6 132 137 301 308
438 4 2 2 6 132 301 137 131
439 4 2 2 6 125 301 137 308
440 4 2 2 6 125 137 301 131
441 4 2 2 7 354 162 149 466
442 4 2 2 7 354 149 329 466
443 4 2 2 7 159 340 315 467
444 4 2 2 7 159 315 146 467
445 4 2 2 7 340 32 315 467
446 4 2 2 7 33 159 146 467
447 4 2 2 7 33 32 340 467
448 4 2 2 7 146 32 33 467
449 4 2 2 7 144 29 143 468
450 4 2 2 7 29 144 30 468
451 4 2 2 7 31 162 34 466
452 4 2 2 7 162 31 149 466
453 4 2 2 7 344 144 143 468
454 4 2 2 7 135 142 320 141
455 4 2 2 7 320 135 346 345
456 4 2 2 7 135 140 346 134
457 4 2 2 7 140 346 318 321
458 4 2 2 7 320 346 321 324
459 4 2 2 7 159 360 147 335
460 4 2 2 7 324 347 346 322
461 4 2 2 7 159 335 315 360
462 4 2 2 7 340 32 357 315
463 4 2 2 7 132 137 328 131
464 4 2 2 7 322 352 324 347
465 4 2 2 7 32 357 157 33
466 4 2 2 7 137 132 328 138
467 4 2 2 7 353 132 350 328
468 4 2 2 7 321 322 346 318
469 4 2 2 7 322 346 324 321
470 4 2 2 7 133 325 138 139
471 4 2 2 7 352 322 324 327
472 4 2 2 7 354 317 149 342
473 4 2 2 7 348 325 323 326
474 4 2 2 7 349 347 346 324
475 4 2 2 7 353 131 132 328
476 4 2 2 7 357 315 356 340
477 4 2 2 7 315 32 357 332
478 4 2 2 7 357 33 32 340
479 4 2 2 7 343 350 133 325
480 4 2 2 7 352 347 349 324
481 4 2 2 7 148 160 359 147
482 4 2 2 7 332 356 315 331
483 4 2 2 7 347 356 348 323
484 4 2 2 7 348 350 343 325
485 4 2 2 7 352 324 359 327
486 4 2 2 7 356 331 332 333
487 4 2 2 7 351 316 358 341
488 4 2 2 7 160 148 359 161
489 4 2 2 7 356 332 315 357
490 4 2 2 7 356 331 333 323
491 4 2 2 7 332 358 356 333
492 4 2 2 7 358 332 356 357
493 4 2 2 7 356 315 352 340
494 4 2 2 7 335 147 159 146
495 4 2 2 7 324 352 359 349
496 4 2 2 7 359 327 324 334
497 4 2 2 7 30 319 29 468
498 4 2 2 7 143 319 344 468
499 4 2 2 7 159 360 160 147
500 4 2 2 7 356 358 348 333
501 4 2 2 7 323 333 348 326
502 4 2 2 7 360 159 340 315
503 4 2 2 7 335 159 315 146
504 4 2 2 7 354 162 342 149
505 4 2 2 7 317 354 149 329
506 4 2 2 7 355 353 351 330
507 4 2 2 7 356 315 331 352
508 4 2 2 7 319 30 29 150
509 4 2 2 7 359 349 342 317
510 4 2 2 7 143 25 362 337
511 4 2 2 7 142 27 136 361
512 4 2 2 7 26 143 362 144
513 4 2 2 7 333 348 356 323
514 4 2 2 7 142 336 361 320
515 4 2 2 7 317 359 349 324
516 4 2 2 7 324 317 359 334
517 4 2 2 7 331 322 352 327
518 4 2 2 7 359 148 147 334
519 4 2 2 7 156 151 316 152
520 4 2 2 7 155 341 316 330
521 4 2 2 7 25 131 26 362
522 4 2 2 7 352 331 327 315
523 4 2 2 7 154 330 319 355
524 4 2 2 7 143 26 362 25
525 4 2 2 7 363 316 358 338
526 4 2 2 7 30 344 319 468
527 4 2 2 7 364 354 342 317
528 4 2 2 7 319 154 30 150
529 4 2 2 7 30 344 154 319
530 4 2 2 7 352 360 340 315
531 4 2 2 7 155 316 151 330
532 4 2 2 7 355 154 344 319
533 4 2 2 7 330 154 319 150
534 4 2 2 7 353 362 131 328
535 4 2 2 7 316 341 351 330
536 4 2 2 7 360 147 359 160
537 4 2 2 7 326 316 351 330
538 4 2 2 7 349 364 342 317
539 4 2 2 7 341 156 155 316
540 4 2 2 7 341 155 355 330
541 4 2 2 7 155 150 330 151
542 4 2 2 7 361 354 345 320
543 4 2 2 7 151 156 316 155
544 4 2 2 7 316 156 363 341
545 4 2 2 7 316 333 358 338
546 4 2 2 7 319 353 355 330
547 4 2 2 7 353 319 328 330
548 4 2 2 7 341 355 351 330
549 4 2 2 7 154 355 155 330
550 4 2 2 7 333 332 358 338
551 4 2 2 7 359 317 148 334
552 4 2 2 7 161 149 342 162
553 4 2 2 7 355 344 353 319
554 4 2 2 7 364 345 354 320
555 4 2 2 7 155 150 154 330
556 4 2 2 7 316 363 358 341
557 4 2 2 7 319 362 337 143
558 4 2 2 7 362 344 144 143
559 4 2 2 7 362 328 319 337
560 4 2 2 7 319 362 143 344
561 4 2 2 7 353 319 362 328
562 4 2 2 7 319 353 362 344
563 4 2 2 7 34 162 354 466
564 4 2 2 7 146 315 32 467
565 4 2 2 7 340 159 33 467
566 4 2 2 7 344 30 144 468
567 4 2 2 7 319 143 29 468
568 4 2 2 7 149 31 329 466
569 4 2 2 7 325 343 139 133
570 4 2 2 7 325 139 343 318
571 4 2 2 7 134 139 343 133
572 4 2 2 7 140 139 343 134
573 4 2 2 7 343 139 140 318
574 4 2 2 7 343 346 140 134
575 4 2 2 7 140 346 343 318
576 4 2 2 7 136 135 320 345
577 4 2 2 7 320 135 136 142
578 4 2 2 7 320 361 136 345
579 4 2 2 7 136 361 320 142
580 4 2 2 7 140 321 135 346
581 4 2 2 7 140 135 321 141
582 4 2 2 7 320 135 321 346
583 4 2 2 7 320 321 135 141
584 4 2 2 7 347 323 318 322
585 4 2 2 7 318 346 347 322
586 4 2 2 7 347 346 318 343
587 4 2 2 7 32 357 153 157
588 4 2 2 7 32 153 357 332
589 4 2 2 7 348 347 318 343
590 4 2 2 7 318 347 348 323
591 4 2 2 7 318 325 348 343
592 4 2 2 7 348 325 318 323
593 4 2 2 7 325 328 132 138
594 4 2 2 7 132 328 325 350
595 4 2 2 7 132 133 325 138
596 4 2 2 7 325 133 132 350
597 4 2 2 7 346 349 320 345
598 4 2 2 7 346 320 349 324
599 4 2 2 7 364 320 349 345
600 4 2 2 7 323 331 347 356
601 4 2 2 7 323 347 331 322
602 4 2 2 7 352 347 331 356
603 4 2 2 7 352 331 347 322
604 4 2 2 7 348 326 350 325
605 4 2 2 7 348 350 326 351
606 4 2 2 7 328 350 326 325
607 4 2 2 7 316 333 351 358
608 4 2 2 7 316 351 333 326
609 4 2 2 7 348 351 333 358
610 4 2 2 7 348 333 351 326
611 4 2 2 7 330 326 353 351
612 4 2 2 7 330 353 326 328
613 4 2 2 7 350 353 326 351
614 4 2 2 7 350 326 353 328
615 4 2 2 7 339 320 354 329
616 4 2 2 7 354 320 339 364
617 4 2 2 7 354 317 339 329
618 4 2 2 7 339 317 354 364
619 4 2 2 7 317 339 349 364
620 4 2 2 7 317 349 339 324
621 4 2 2 7 320 349 339 364
622 4 2 2 7 320 339 349 324
623 4 2 2 7 145 336 27 28
624 4 2 2 7 142 27 336 28
625 4 2 2 7 142 336 27 361
626 4 2 2 7 358 338 357 363
627 4 2 2 7 358 357 338 332
628 4 2 2 7 153 338 357 332
629 4 2 2 7 25 337 131 362
630 4 2 2 7 25 131 337 137
631 4 2 2 7 328 131 337 362
632 4 2 2 7 328 337 131 137
633 4 2 2 7 327 359 335 334
634 4 2 2 7 147 359 335 360
635 4 2 2 7 147 335 359 334
636 4 2 2 7 27 158 336 145
637 4 2 2 7 27 336 158 361
638 4 2 2 7 359 161 317 342
639 4 2 2 7 359 317 161 148
640 4 2 2 7 149 317 161 342
641 4 2 2 7 149 161 317 148
642 4 2 2 7 336 320 354 361
643 4 2 2 7 354 320 336 329
644 4 2 2 7 354 158 336 361
645 4 2 2 7 336 354 145 158
646 4 2 2 7 336 145 354 329
647 4 2 2 7 34 145 354 158
648 4 2 2 7 352 315 335 360
649 4 2 2 7 335 315 352 327
650 4 2 2 7 335 359 352 360
651 4 2 2 7 352 359 335 327
652 4 2 2 7 466 31 354 34
653 4 2 2 7 466 354 31 329
654 4 2 2 7 145 354 31 34
655 4 2 2 7 145 31 354 329
656 4 2 2 7 357 338 157 363
657 4 2 2 7 357 157 338 153
658 4 2 2 7 152 338 157 153
659 4 2 2 7 156 316 338 152
660 4 2 2 7 338 316 156 363
661 4 2 2 7 338 157 156 152
662 4 2 2 7 156 157 338 363
663 4 2 2 8 168 367 169 166
664 4 2 2 8 163 36 35 366
665 4 2 2 8 170 166 152 167
666 4 2 2 8 153 170 32 157
667 4 2 2 8 152 157 170 153
668 4 2 2 8 170 153 32 167
669 4 2 2 8 170 153 167 152
670 4 2 2 8 157 152 170 156
671 4 2 2 8 170 32 157 33
672 4 2 2 8 168 36 368 366
673 4 2 2 8 156 367 155 151
674 4 2 2 8 35 168 165 366
675 4 2 2 8 150 30 29 163
676 4 2 2 8 367 151 168 155
677 4 2 2 8 155 366 168 368
678 4 2 2 8 151 165 168 366
679 4 2 2 8 35 36 168 366
680 4 2 2 8 368 150 155 366
681 4 2 2 8 155 366 151 168
682 4 2 2 8 150 155 366 151
683 4 2 2 8 150 368 155 154
684 4 2 2 8 365 151 168 367
685 4 2 2 8 168 151 365 165
686 4 2 2 8 168 166 365 367
687 4 2 2 8 365 166 168 165
688 4 2 2 8 163 150 368 366
689 4 2 2 8 163 36 368 164
690 4 2 2 8 368 36 163 366
691 4 2 2 8 156 367 166 169
692 4 2 2 8 166 170 156 169
693 4 2 2 8 156 170 166 152
694 4 2 2 8 368 163 154 150
695 4 2 2 8 368 154 163 164
696 4 2 2 8 30 154 163 150
697 4 2 2 8 30 163 154 164
698 4 2 2 8 151 365 156 367
699 4 2 2 8 151 156 365 152
700 4 2 2 8 166 156 365 367
701 4 2 2 8 166 365 156 152
702 4 2 2 9 174 369 371 177
703 4 2 2 9 161 160 371 369
704 4 2 2 9 371 174 161 369
705 4 2 2 9 174 371 178 177
706 4 2 2 9 369 174 173 177
707 4 2 2 9 148 160 147 371
708 4 2 2 9 148 160 371 161
709 4 2 2 9 174 371 161 178
710 4 2 2 9 371 148 161 178
711 4 2 2 9 175 37 372 38
712 4 2 2 9 160 177 172 147
713 4 2 2 9 177 160 172 173
714 4 2 2 9 172 177 176 147
715 4 2 2 9 159 172 33 146
716 4 2 2 9 146 172 147 159
717 4 2 2 9 32 172 176 146
718 4 2 2 9 172 159 160 147
719 4 2 2 9 370 174 161 372
720 4 2 2 9 172 146 147 176
721 4 2 2 9 149 161 148 372
722 4 2 2 9 32 172 146 33
723 4 2 2 9 178 161 174 372
724 4 2 2 9 174 370 37 372
725 4 2 2 9 178 148 161 372
726 4 2 2 9 162 31 34 175
727 4 2 2 9 171 162 34 175
728 4 2 2 9 38 174 372 178
729 4 2 2 9 162 31 175 149
730 4 2 2 9 174 38 372 37
731 4 2 2 9 371 369 160 177
732 4 2 2 9 147 371 160 177
733 4 2 2 9 369 173 160 177
734 4 2 2 9 162 370 175 171
735 4 2 2 9 37 175 370 171
736 4 2 2 9 37 370 175 372
737 4 2 2 9 370 175 149 162
738 4 2 2 9 149 175 370 372
739 4 2 2 9 149 161 370 162
740 4 2 2 9 370 161 149 372
741 4 2 3 10 392 375 373 381
742 4 2 3 10 385 387 190 200
743 4 2 3 10 391 185 40 380
744 4 2 3 10 382 194 393 185
745 4 2 3 10 381 188 392 187
746 4 2 3 10 375 392 373 386
747 4 2 3 10 384 386 373 392
748 4 2 3 10 384 197 198 184
749 4 2 3 10 179 182 180 374
750 4 2 3 10 179 182 374 181
751 4 2 3 10 184 384 197 183
752 4 2 3 10 191 386 375 373
753 4 2 3 10 185 391 40 193
754 4 2 3 10 185 40 380 39
755 4 2 3 10 196 390 43 188
756 4 2 3 10 193 393 194 185
757 4 2 3 10 196 392 188 187
758 4 2 3 10 392 196 195 187
759 4 2 3 10 382 186 194 185
760 4 2 3 10 184 384 183 373
761 4 2 3 10 181 182 374 385
762 4 2 3 10 183 384 388 377
763 4 2 3 10 378 181 374 389
764 4 2 3 10 191 192 202 373
765 4 2 3 10 190 385 199 189
766 4 2 3 10 184 390 384 379
767 4 2 3 10 383 187 195 186
768 4 2 3 10 184 43 198 390
769 4 2 3 10 40 180 380 39
770 4 2 3 10 202 18 377 192
771 4 2 3 10 19 199 389 189
772 4 2 3 10 189 19 20 378
773 4 2 3 10 388 197 384 183
774 4 2 3 10 181 378 374 179
775 4 2 3 10 200 385 199 190
776 4 2 3 10 392 375 381 187
777 4 2 3 10 198 390 384 184
778 4 2 3 10 189 389 19 378
779 4 2 3 10 183 388 13 377
780 4 2 3 10 181 11 389 378
781 4 2 3 10 11 16 378 179
782 4 2 3 10 8 183 388 13
783 4 2 3 10 44 386 394 42
784 4 2 3 10 42 383 394 376
785 4 2 3 10 44 394 387 42
786 4 2 3 10 195 375 392 187
787 4 2 3 10 376 186 194 382
788 4 2 3 10 386 191 44 201
789 4 2 3 10 42 387 200 190
790 4 2 3 10 192 377 202 373
791 4 2 3 10 385 389 199 189
792 4 2 3 10 378 181 11 179
793 4 2 3 10 8 183 197 388
794 4 2 3 10 377 183 384 373
795 4 2 3 10 389 181 374 385
796 4 2 3 10 384 202 388 377
797 4 2 3 10 189 374 389 378
798 4 2 3 10 384 184 379 373
799 4 2 3 10 385 391 182 374
800 4 2 3 10 392 384 390 379
801 4 2 3 10 42 386 191 44
802 4 2 3 10 44 387 200 42
803 4 2 3 10 373 392 381 379
804 4 2 3 10 42 394 387 376
805 4 2 3 10 385 190 374 189
806 4 2 3 10 375 195 392 386
807 4 2 3 10 386 42 191 375
808 4 2 3 10 190 42 387 376
809 4 2 3 10 377 384 202 373
810 4 2 3 10 389 385 374 189
811 4 2 3 10 373 392 379 384
812 4 2 3 10 385 393 391 374
813 4 2 3 10 16 20 19 378
814 4 2 3 10 390 188 392 379
815 4 2 3 10 195 375 187 383
816 4 2 3 10 188 392 379 381
817 4 2 3 10 11 19 389 378
818 4 2 3 10 19 11 16 378
819 4 2 3 10 8 17 13 388
820 4 2 3 10 393 193 391 185
821 4 2 3 10 188 390 392 196
822 4 2 3 10 387 394 194 376
823 4 2 3 10 385 387 374 190
824 4 2 3 10 385 374 387 393
825 4 2 3 10 376 374 387 190
826 4 2 3 10 194 382 387 376
827 4 2 3 10 194 387 382 393
828 4 2 3 10 374 387 382 376
829 4 2 3 10 374 382 387 393
830 4 2 3 10 202 201 373 384
831 4 2 3 10 202 373 201 191
832 4 2 3 10 386 373 201 384
833 4 2 3 10 386 201 373 191
834 4 2 3 10 184 379 43 390
835 4 2 3 10 184 43 379 41
836 4 2 3 10 188 43 379 390
837 4 2 3 10 188 379 43 41
838 4 2 3 10 374 380 182 180
839 4 2 3 10 374 182 380 391
840 4 2 3 10 40 182 380 180
841 4 2 3 10 40 380 182 391
842 4 2 3 10 376 394 186 383
843 4 2 3 10 376 186 394 194
844 4 2 3 10 195 186 394 383
845 4 2 3 10 195 394 186 194
846 4 2 3 10 202 18 388 377
847 4 2 3 10 202 388 18 17
848 4 2 3 10 13 388 18 377
849 4 2 3 10 13 18 388 17
850 4 2 3 10 394 42 375 383
851 4 2 3 10 375 42 394 386
852 4 2 3 10 375 195 394 383
853 4 2 3 10 394 195 375 386
854 4 2 3 10 185 380 393 382
855 4 2 3 10 185 393 380 391
856 4 2 3 10 374 393 380 382
857 4 2 3 10 374 380 393 391
858 4 2 3 11 395 190 398 469
859 4 2 3 11 190 395 200 469
860 4 2 3 11 202 114 18 192
861 4 2 3 11 111 199 19 189
862 4 2 3 11 192 114 18 118
863 4 2 3 11 111 19 20 189
864 4 2 3 11 114 18 17 202
865 4 2 3 11 189 20 111 115
866 4 2 3 11 190 397 395 400
867 4 2 3 11 397 190 395 200
868 4 2 3 11 190 400 395 398
869 4 2 3 11 112 117 113 395
870 4 2 3 11 397 112 400 115
871 4 2 3 11 112 116 400 115
872 4 2 3 11 396 114 117 113
873 4 2 3 11 397 189 400 190
874 4 2 3 11 112 397 111 115
875 4 2 3 11 397 189 190 199
876 4 2 3 11 200 42 190 469
877 4 2 3 11 112 395 397 400
878 4 2 3 11 113 396 395 117
879 4 2 3 11 200 199 397 190
880 4 2 3 11 201 396 202 191
881 4 2 3 11 200 44 42 469
882 4 2 3 11 189 115 397 400
883 4 2 3 11 111 189 397 199
884 4 2 3 11 189 111 397 115
885 4 2 3 11 190 42 398 469
886 4 2 3 11 200 395 44 469
887 4 2 3 11 395 44 191 201
888 4 2 3 11 191 396 395 201
889 4 2 3 11 117 112 398 395
890 4 2 3 11 117 398 112 116
891 4 2 3 11 400 398 112 395
892 4 2 3 11 400 112 398 116
893 4 2 3 11 192 399 114 118
894 4 2 3 11 117 114 399 118
895 4 2 3 11 117 399 114 396
896 4 2 3 11 191 399 202 192
897 4 2 3 11 191 202 399 396
898 4 2 3 11 114 202 399 192
899 4 2 3 11 114 399 202 396
900 4 2 3 11 191 399 395 396
901 4 2 3 11 191 395 399 398
902 4 2 3 11 117 395 399 396
903 4 2 3 11 117 399 395 398
904 4 2 3 11 469 42 395 44
905 4 2 3 11 469 395 42 398
906 4 2 3 11 191 395 42 44
907 4 2 3 11 191 42 395 398
908 4 2 3 12 204 413 410 401
909 4 2 3 12 422 419 413 401
910 4 2 3 12 401 204 413 203
911 4 2 3 12 419 252 413 401
912 4 2 3 12 250 236 235 471
913 4 2 3 12 236 250 251 471
914 4 2 3 12 229 51 243 228
915 4 2 3 12 220 50 239 224
916 4 2 3 12 214 213 415 403
917 4 2 3 12 418 252 419 408
918 4 2 3 12 52 229 51 243
919 4 2 3 12 220 50 49 239
920 4 2 3 12 229 52 244 243
921 4 2 3 12 239 254 49 220
922 4 2 3 12 251 413 252 401
923 4 2 3 12 209 412 208 216
924 4 2 3 12 207 213 403 206
925 4 2 3 12 213 207 403 214
926 4 2 3 12 212 414 213 205
927 4 2 3 12 418 419 218 408
928 4 2 3 12 216 412 208 215
929 4 2 3 12 250 249 414 235
930 4 2 3 12 248 234 415 249
931 4 2 3 12 405 241 227 416
932 4 2 3 12 417 423 412 406
933 4 2 3 12 412 209 208 402
934 4 2 3 12 409 214 208 421
935 4 2 3 12 235 414 205 404
936 4 2 3 12 214 409 208 207
937 4 2 3 12 231 417 412 406
938 4 2 3 12 220 239 223 224
939 4 2 3 12 243 227 229 228
940 4 2 3 12 220 254 219 223
941 4 2 3 12 416 242 241 227
942 4 2 3 12 405 241 226 227
943 4 2 3 12 218 223 407 222
944 4 2 3 12 214 208 421 215
945 4 2 3 12 214 248 421 409
946 4 2 3 12 232 421 248 409
947 4 2 3 12 214 233 409 207
948 4 2 3 12 212 420 250 205
949 4 2 3 12 208 412 421 215
950 4 2 3 12 423 47 48 216
951 4 2 3 12 233 214 409 248
952 4 2 3 12 239 220 223 254
953 4 2 3 12 420 250 205 235
954 4 2 3 12 248 232 409 233
955 4 2 3 12 421 232 248 247
956 4 2 3 12 205 212 420 204
957 4 2 3 12 47 423 240 411
958 4 2 3 12 402 231 412 406
959 4 2 3 12 219 238 223 254
960 4 2 3 12 235 205 420 410
961 4 2 3 12 210 413 211 203
962 4 2 3 12 225 47 240 411
963 4 2 3 12 211 420 212 204
964 4 2 3 12 226 225 241 406
965 4 2 3 12 225 240 241 406
966 4 2 3 12 217 46 45 422
967 4 2 3 12 423 47 240 48
968 4 2 3 12 237 251 401 236
969 4 2 3 12 410 205 420 204
970 4 2 3 12 214 233 207 403
971 4 2 3 12 204 420 413 211
972 4 2 3 12 414 212 250 205
973 4 2 3 12 417 241 240 406
974 4 2 3 12 223 239 254 238
975 4 2 3 12 420 204 413 410
976 4 2 3 12 411 423 240 406
977 4 2 3 12 414 235 205 250
978 4 2 3 12 411 240 225 406
979 4 2 3 12 231 247 412 246
980 4 2 3 12 417 412 246 231
981 4 2 3 12 417 240 423 406
982 4 2 3 12 204 211 413 203
983 4 2 3 12 401 419 252 408
984 4 2 3 12 219 238 254 253
985 4 2 3 12 418 238 253 252
986 4 2 3 12 251 237 401 252
987 4 2 3 12 46 203 422 210
988 4 2 3 12 46 203 45 422
989 4 2 3 12 251 420 410 471
990 4 2 3 12 213 403 234 415
991 4 2 3 12 251 420 413 410
992 4 2 3 12 246 245 416 230
993 4 2 3 12 236 251 410 471
994 4 2 3 12 420 250 235 471
995 4 2 3 12 45 217 422 221
996 4 2 3 12 419 217 218 221
997 4 2 3 12 237 401 252 408
998 4 2 3 12 420 235 410 471
999 4 2 3 12 417 241 405 416
1000 4 2 3 12 419 422 217 221
1001 4 2 3 12 230 227 416 405
1002 4 2 3 12 403 213 234 206
1003 4 2 3 12 241 406 405 226
1004 4 2 3 12 249 415 213 234
1005 4 2 3 12 406 241 405 417
1006 4 2 3 12 406 231 417 405
1007 4 2 3 12 416 245 242 227
1008 4 2 3 12 408 218 418 407
1009 4 2 3 12 418 238 219 253
1010 4 2 3 12 408 222 218 407
1011 4 2 3 12 416 245 227 230
1012 4 2 3 12 245 242 227 470
1013 4 2 3 12 245 227 230 470
1014 4 2 3 12 420 251 250 471
1015 4 2 3 12 230 244 245 470
1016 4 2 3 12 203 45 422 221
1017 4 2 3 12 422 401 203 221
1018 4 2 3 12 235 236 410 471
1019 4 2 3 12 244 230 229 470
1020 4 2 3 12 245 244 242 470
1021 4 2 3 12 230 227 229 470
1022 4 2 3 12 401 419 221 422
1023 4 2 3 12 401 221 419 408
1024 4 2 3 12 401 410 251 413
1025 4 2 3 12 401 251 410 236
1026 4 2 3 12 205 404 213 206
1027 4 2 3 12 205 213 404 414
1028 4 2 3 12 234 213 404 206
1029 4 2 3 12 214 403 248 233
1030 4 2 3 12 214 248 403 415
1031 4 2 3 12 234 248 403 233
1032 4 2 3 12 234 403 248 415
1033 4 2 3 12 213 404 249 234
1034 4 2 3 12 213 249 404 414
1035 4 2 3 12 235 249 404 234
1036 4 2 3 12 235 404 249 414
1037 4 2 3 12 406 411 412 402
1038 4 2 3 12 406 412 411 423
1039 4 2 3 12 209 412 411 402
1040 4 2 3 12 218 418 223 219
1041 4 2 3 12 218 223 418 407
1042 4 2 3 12 238 223 418 219
1043 4 2 3 12 238 418 223 407
1044 4 2 3 12 412 411 216 209
1045 4 2 3 12 412 216 411 423
1046 4 2 3 12 47 216 411 209
1047 4 2 3 12 47 411 216 423
1048 4 2 3 12 227 243 244 242
1049 4 2 3 12 244 243 227 229
1050 4 2 3 12 244 470 227 242
1051 4 2 3 12 227 470 244 229
1052 4 2 3 12 238 407 252 418
1053 4 2 3 12 238 252 407 237
1054 4 2 3 12 408 252 407 418
1055 4 2 3 12 408 407 252 237
1056 4 2 3 12 421 412 232 247
1057 4 2 3 12 231 412 232 402
1058 4 2 3 12 231 232 412 247
1059 4 2 3 12 232 412 409 402
1060 4 2 3 12 232 409 412 421
1061 4 2 3 12 208 409 412 402
1062 4 2 3 12 208 412 409 421
1063 4 2 3 12 417 405 246 416
1064 4 2 3 12 417 246 405 231
1065 4 2 3 12 230 246 405 416
1066 4 2 3 12 230 405 246 231
1067 4 2 3 12 221 408 218 419
1068 4 2 3 12 221 218 408 222
1069 4 2 3 12 413 422 203 210
1070 4 2 3 12 203 422 413 401
1071 4 2 3 13 129 434 123 472
1072 4 2 3 13 129 450 434 472
1073 4 2 3 13 124 130 123 472
1074 4 2 3 13 425 452 448 436
1075 4 2 3 13 130 129 123 472
1076 4 2 3 13 248 234 427 233
1077 4 2 3 13 437 249 453 235
1078 4 2 3 13 120 125 119 449
1079 4 2 3 13 444 230 450 429
1080 4 2 3 13 252 449 238 253
1081 4 2 3 13 121 128 440 122
1082 4 2 3 13 248 438 427 454
1083 4 2 3 13 246 230 450 245
1084 4 2 3 13 121 128 127 440
1085 4 2 3 13 121 122 440 424
1086 4 2 3 13 247 248 454 438
1087 4 2 3 13 122 440 432 128
1088 4 2 3 13 449 237 238 433
1089 4 2 3 13 237 449 238 252
1090 4 2 3 13 432 129 434 123
1091 4 2 3 13 440 430 121 424
1092 4 2 3 13 442 447 451 431
1093 4 2 3 13 120 446 449 430
1094 4 2 3 13 250 435 236 451
1095 4 2 3 13 250 453 249 235
1096 4 2 3 13 437 234 249 235
1097 4 2 3 13 230 246 450 231
1098 4 2 3 13 230 231 450 434
1099 4 2 3 13 446 120 449 126
1100 4 2 3 13 440 122 432 424
1101 4 2 3 13 441 452 448 425
1102 4 2 3 13 129 432 434 448
1103 4 2 3 13 445 119 428 22
1104 4 2 3 13 433 120 449 430
1105 4 2 3 13 120 126 125 449
1106 4 2 3 13 438 248 427 233
1107 4 2 3 13 426 430 442 431
1108 4 2 3 13 124 450 130 472
1109 4 2 3 13 454 425 247 438
1110 4 2 3 13 436 448 425 432
1111 4 2 3 13 449 119 120 433
1112 4 2 3 13 448 434 425 432
1113 4 2 3 13 435 250 236 235
1114 4 2 3 13 250 236 251 451
1115 4 2 3 13 448 129 450 434
1116 4 2 3 13 232 248 438 233
1117 4 2 3 13 248 454 427 443
1118 4 2 3 13 438 247 248 232
1119 4 2 3 13 436 448 455 452
1120 4 2 3 13 230 444 450 245
1121 4 2 3 13 238 449 445 253
1122 4 2 3 13 239 22 21 49
1123 4 2 3 13 454 443 452 436
1124 4 2 3 13 122 129 128 432
1125 4 2 3 13 239 50 49 21
1126 4 2 3 13 229 23 52 51
1127 4 2 3 13 427 436 454 438
1128 4 2 3 13 239 22 49 254
1129 4 2 3 13 428 22 119 21
1130 4 2 3 13 247 425 231 232
1131 4 2 3 13 445 119 22 125
1132 4 2 3 13 431 430 440 424
1133 4 2 3 13 441 450 246 231
1134 4 2 3 13 442 451 251 236
1135 4 2 3 13 429 230 450 434
1136 4 2 3 13 229 230 444 429
1137 4 2 3 13 128 448 440 432
1138 4 2 3 13 23 130 444 24
1139 4 2 3 13 438 425 247 232
1140 4 2 3 13 449 446 442 430
1141 4 2 3 13 251 237 442 236
1142 4 2 3 13 432 436 455 439
1143 4 2 3 13 252 449 442 237
1144 4 2 3 13 425 454 452 436
1145 4 2 3 13 244 230 444 229
1146 4 2 3 13 122 129 432 123
1147 4 2 3 13 436 425 454 438
1148 4 2 3 13 425 247 231 441
1149 4 2 3 13 254 445 253 238
1150 4 2 3 13 435 437 453 235
1151 4 2 3 13 454 443 436 427
1152 4 2 3 13 453 437 435 431
1153 4 2 3 13 449 119 445 125
1154 4 2 3 13 448 128 129 432
1155 4 2 3 13 425 454 247 441
1156 4 2 3 13 450 124 434 472
1157 4 2 3 13 448 455 440 432
1158 4 2 3 13 446 120 126 127
1159 4 2 3 13 247 441 246 231
1160 4 2 3 13 251 237 252 442
1161 4 2 3 13 443 455 452 436
1162 4 2 3 13 250 451 453 435
1163 4 2 3 13 451 431 453 435
1164 4 2 3 13 448 436 455 432
1165 4 2 3 13 237 442 236 426
1166 4 2 3 13 244 230 245 444
1167 4 2 3 13 435 453 250 235
1168 4 2 3 13 443 455 436 439
1169 4 2 3 13 439 436 443 427
1170 4 2 3 13 454 452 441 425
1171 4 2 3 13 429 450 124 434
1172 4 2 3 13 431 451 453 447
1173 4 2 3 13 50 25 21 26
1174 4 2 3 13 52 23 24 28
1175 4 2 3 13 23 28 51 27
1176 4 2 3 13 25 21 22 49
1177 4 2 3 13 25 50 21 49
1178 4 2 3 13 52 23 28 51
1179 4 2 3 13 229 444 23 429
1180 4 2 3 13 239 22 428 21
1181 4 2 3 13 123 434 124 472
1182 4 2 3 13 450 129 130 472
1183 4 2 3 13 435 431 442 451
1184 4 2 3 13 442 431 435 426
1185 4 2 3 13 442 236 435 451
1186 4 2 3 13 435 236 442 426
1187 4 2 3 13 119 428 449 445
1188 4 2 3 13 119 449 428 433
1189 4 2 3 13 238 449 428 445
1190 4 2 3 13 238 428 449 433
1191 4 2 3 13 440 446 431 447
1192 4 2 3 13 440 431 446 430
1193 4 2 3 13 442 431 446 447
1194 4 2 3 13 442 446 431 430
1195 4 2 3 13 120 127 430 121
1196 4 2 3 13 120 430 127 446
1197 4 2 3 13 440 430 127 121
1198 4 2 3 13 440 127 430 446
1199 4 2 3 13 231 425 450 434
1200 4 2 3 13 231 450 425 441
1201 4 2 3 13 448 450 425 434
1202 4 2 3 13 448 425 450 441
1203 4 2 3 13 428 238 254 239
1204 4 2 3 13 254 238 428 445
1205 4 2 3 13 254 22 428 239
1206 4 2 3 13 428 22 254 445
1207 4 2 3 13 444 24 229 23
1208 4 2 3 13 444 229 24 244
1209 4 2 3 13 52 229 24 23
1210 4 2 3 13 52 24 229 244
1211 4 2 3 13 429 450 130 124
1212 4 2 3 13 130 450 429 444
1213 4 2 3 13 130 23 429 124
1214 4 2 3 13 429 23 130 444
1215 4 2 3 13 453 443 431 447
1216 4 2 3 13 439 443 431 427
1217 4 2 3 13 237 449 426 433
1218 4 2 3 13 237 426 449 442
1219 4 2 3 13 430 426 449 433
1220 4 2 3 13 430 449 426 442
1221 4 2 3 13 443 455 431 447
1222 4 2 3 13 443 431 455 439
1223 4 2 3 13 440 431 455 447
1224 4 2 3 13 432 424 455 440
1225 4 2 3 13 432 455 424 439
1226 4 2 3 13 431 455 424 440
1227 4 2 3 13 431 424 455 439
1228 4 2 3 13 437 431 443 427
1229 4 2 3 13 443 431 437 453
1230 4 2 3 13 437 249 443 453
1231 4 2 3 13 437 234 443 249
1232 4 2 3 13 437 443 234 427
1233 4 2 3 13 248 443 234 249
1234 4 2 3 13 248 234 443 427
1235 4 2 3 14 28 457 145 456
1236 4 2 3 14 256 52 457 51
1237 4 2 3 14 158 27 457 145
1238 4 2 3 14 28 457 27 145
1239 4 2 3 14 145 34 256 158
1240 4 2 3 14 256 31 145 255
1241 4 2 3 14 34 145 256 31
1242 4 2 3 14 457 28 52 456
1243 4 2 3 14 51 28 457 27
1244 4 2 3 14 28 51 457 52
1245 4 2 3 14 457 256 158 145
1246 4 2 3 14 145 456 256 255
1247 4 2 3 14 145 256 456 457
1248 4 2 3 14 52 256 456 255
1249 4 2 3 14 52 456 256 457
1250 4 2 3 15 143 458 25 459
1251 4 2 3 15 49 257 258 459
1252 4 2 3 15 144 26 143 458
1253 4 2 3 15 26 143 458 25
1254 4 2 3 15 257 144 29 143
1255 4 2 3 15 258 257 29 143
1256 4 2 3 15 144 29 30 257
1257 4 2 3 15 458 143 257 459
1258 4 2 3 15 26 50 25 458
1259 4 2 3 15 143 458 257 144
1260 4 2 3 15 143 258 257 459
1261 4 2 3 15 458 25 49 50
1262 4 2 3 15 49 25 458 459
1263 4 2 3 15 49 257 458 50
1264 4 2 3 15 458 257 49 459
$EndElements
