<?xml version="1.0" standalone="no"?>
 <!DOCTYPE svg PUBLIC "-//W3C//DTD SVG 1.1//EN" 
 "http://www.w3.org/Graphics/SVG/1.1/DTD/svg11.dtd"> 
<svg
  xmlns:svg="http://www.w3.org/2000/svg"
  xmlns="http://www.w3.org/2000/svg"
  xmlns:xlink="http://www.w3.org/1999/xlink"
  version="1.1"
  width="113.9444mm" height="150.1394mm" viewBox="0.0000 0.0000 113.9444 150.1394">
<title>SVG Image created as temper_router_v6_output_top.svg date 2026/01/13 17:05:44 </title>
  <desc>Image generated by PCBNEW </desc>
<g style="fill:#000000; fill-opacity:1.0000;stroke:#000000; stroke-opacity:1.0000;
stroke-linecap:round; stroke-linejoin:round;"
 transform="translate(0 0) scale(1 1)">
</g>
<g style="fill:#C83434; fill-opacity:1.0000; stroke:none;">
<circle cx="16.9816" cy="85.0750" r="1.7500" /> 
</g>
<g style="fill:#C83434; fill-opacity:1.0000; stroke:none;">
<circle cx="16.9816" cy="95.0750" r="1.7500" /> 
</g>
<g style="fill:#C83434; fill-opacity:1.0000; stroke:none;">
<circle cx="16.9816" cy="105.0750" r="1.7500" /> 
</g>
<g style="fill:#C83434; fill-opacity:1.0000; stroke:none;">
<circle cx="49.0383" cy="29.9097" r="1.2500" /> 
</g>
<g style="fill:#C83434; fill-opacity:1.0000; stroke:none;">
<circle cx="64.2783" cy="29.9097" r="1.2500" /> 
</g>
<g style="fill:#C83434; fill-opacity:1.0000; stroke:none;">
<circle cx="44.6016" cy="45.0750" r="1.2500" /> 
</g>
<g style="fill:#C83434; fill-opacity:1.0000; stroke:none;">
<circle cx="59.8416" cy="45.0750" r="1.2500" /> 
</g>
<g style="fill:#C83434; fill-opacity:1.0000; stroke:none;">
<circle cx="35.7316" cy="60.0750" r="1.5000" /> 
</g>
<g style="fill:#C83434; fill-opacity:1.0000; stroke:none;">
<circle cx="43.2316" cy="60.0750" r="1.5000" /> 
</g>
<g style="fill:#C83434; fill-opacity:1.0000; stroke:none;">
<circle cx="55.7316" cy="60.0750" r="1.5000" /> 
</g>
<g style="fill:#C83434; fill-opacity:1.0000; stroke:none;">
<circle cx="63.2316" cy="60.0750" r="1.5000" /> 
</g>
<g style="fill:#C83434; fill-opacity:1.0000; stroke:none;">
<circle cx="32.4316" cy="15.0750" r="1.7500" /> 
</g>
<g style="fill:#C83434; fill-opacity:1.0000; stroke:none;">
<circle cx="37.8816" cy="15.0750" r="1.7500" /> 
</g>
<g style="fill:#C83434; fill-opacity:1.0000; stroke:none;">
<circle cx="43.3316" cy="15.0750" r="1.7500" /> 
</g>
<g style="fill:#C83434; fill-opacity:1.0000; stroke:none;">
<circle cx="57.4316" cy="15.0750" r="1.7500" /> 
</g>
<g style="fill:#C83434; fill-opacity:1.0000; stroke:none;">
<circle cx="62.8816" cy="15.0750" r="1.7500" /> 
</g>
<g style="fill:#C83434; fill-opacity:1.0000; stroke:none;">
<circle cx="68.3316" cy="15.0750" r="1.7500" /> 
<path style="fill:#C83434; fill-opacity:1.0000; stroke:none;fill-rule:evenodd;"
d="M 30.3192,26.0090
30.3306,25.9516
30.3631,25.9029
30.4117,25.8704
30.4692,25.8590
32.1692,25.8590
32.2266,25.8704
32.2752,25.9029
32.3077,25.9516
32.3192,26.0090
32.3192,26.3090
32.3077,26.3664
32.2752,26.4150
32.2266,26.4476
32.1692,26.4590
30.4692,26.4590
30.4117,26.4476
30.3631,26.4150
30.3306,26.3664
30.3192,26.3090
Z" /> 
<path style="fill:#C83434; fill-opacity:1.0000; stroke:none;fill-rule:evenodd;"
d="M 30.3192,27.2790
30.3306,27.2216
30.3631,27.1729
30.4117,27.1404
30.4692,27.1290
32.1692,27.1290
32.2266,27.1404
32.2752,27.1729
32.3077,27.2216
32.3192,27.2790
32.3192,27.5790
32.3077,27.6364
32.2752,27.6850
32.2266,27.7176
32.1692,27.7290
30.4692,27.7290
30.4117,27.7176
30.3631,27.6850
30.3306,27.6364
30.3192,27.5790
Z" /> 
<path style="fill:#C83434; fill-opacity:1.0000; stroke:none;fill-rule:evenodd;"
d="M 30.3192,28.5490
30.3306,28.4916
30.3631,28.4429
30.4117,28.4104
30.4692,28.3990
32.1692,28.3990
32.2266,28.4104
32.2752,28.4429
32.3077,28.4916
32.3192,28.5490
32.3192,28.8490
32.3077,28.9064
32.2752,28.9550
32.2266,28.9876
32.1692,28.9990
30.4692,28.9990
30.4117,28.9876
30.3631,28.9550
30.3306,28.9064
30.3192,28.8490
Z" /> 
<path style="fill:#C83434; fill-opacity:1.0000; stroke:none;fill-rule:evenodd;"
d="M 30.3192,29.8190
30.3306,29.7616
30.3631,29.7129
30.4117,29.6804
30.4692,29.6690
32.1692,29.6690
32.2266,29.6804
32.2752,29.7129
32.3077,29.7616
32.3192,29.8190
32.3192,30.1190
32.3077,30.1764
32.2752,30.2250
32.2266,30.2576
32.1692,30.2690
30.4692,30.2690
30.4117,30.2576
30.3631,30.2250
30.3306,30.1764
30.3192,30.1190
Z" /> 
<path style="fill:#C83434; fill-opacity:1.0000; stroke:none;fill-rule:evenodd;"
d="M 30.3192,31.0890
30.3306,31.0316
30.3631,30.9829
30.4117,30.9504
30.4692,30.9390
32.1692,30.9390
32.2266,30.9504
32.2752,30.9829
32.3077,31.0316
32.3192,31.0890
32.3192,31.3890
32.3077,31.4464
32.2752,31.4950
32.2266,31.5276
32.1692,31.5390
30.4692,31.5390
30.4117,31.5276
30.3631,31.4950
30.3306,31.4464
30.3192,31.3890
Z" /> 
<path style="fill:#C83434; fill-opacity:1.0000; stroke:none;fill-rule:evenodd;"
d="M 30.3192,32.3590
30.3306,32.3016
30.3631,32.2529
30.4117,32.2204
30.4692,32.2090
32.1692,32.2090
32.2266,32.2204
32.2752,32.2529
32.3077,32.3016
32.3192,32.3590
32.3192,32.6590
32.3077,32.7164
32.2752,32.7650
32.2266,32.7976
32.1692,32.8090
30.4692,32.8090
30.4117,32.7976
30.3631,32.7650
30.3306,32.7164
30.3192,32.6590
Z" /> 
<path style="fill:#C83434; fill-opacity:1.0000; stroke:none;fill-rule:evenodd;"
d="M 30.3192,33.6290
30.3306,33.5716
30.3631,33.5229
30.4117,33.4904
30.4692,33.4790
32.1692,33.4790
32.2266,33.4904
32.2752,33.5229
32.3077,33.5716
32.3192,33.6290
32.3192,33.9290
32.3077,33.9864
32.2752,34.0350
32.2266,34.0676
32.1692,34.0790
30.4692,34.0790
30.4117,34.0676
30.3631,34.0350
30.3306,33.9864
30.3192,33.9290
Z" /> 
<path style="fill:#C83434; fill-opacity:1.0000; stroke:none;fill-rule:evenodd;"
d="M 30.3192,34.8990
30.3306,34.8416
30.3631,34.7929
30.4117,34.7604
30.4692,34.7490
32.1692,34.7490
32.2266,34.7604
32.2752,34.7929
32.3077,34.8416
32.3192,34.8990
32.3192,35.1990
32.3077,35.2564
32.2752,35.3050
32.2266,35.3376
32.1692,35.3490
30.4692,35.3490
30.4117,35.3376
30.3631,35.3050
30.3306,35.2564
30.3192,35.1990
Z" /> 
<path style="fill:#C83434; fill-opacity:1.0000; stroke:none;fill-rule:evenodd;"
d="M 39.3192,34.8990
39.3306,34.8416
39.3631,34.7929
39.4117,34.7604
39.4692,34.7490
41.1692,34.7490
41.2266,34.7604
41.2752,34.7929
41.3077,34.8416
41.3192,34.8990
41.3192,35.1990
41.3077,35.2564
41.2752,35.3050
41.2266,35.3376
41.1692,35.3490
39.4692,35.3490
39.4117,35.3376
39.3631,35.3050
39.3306,35.2564
39.3192,35.1990
Z" /> 
<path style="fill:#C83434; fill-opacity:1.0000; stroke:none;fill-rule:evenodd;"
d="M 39.3192,33.6290
39.3306,33.5716
39.3631,33.5229
39.4117,33.4904
39.4692,33.4790
41.1692,33.4790
41.2266,33.4904
41.2752,33.5229
41.3077,33.5716
41.3192,33.6290
41.3192,33.9290
41.3077,33.9864
41.2752,34.0350
41.2266,34.0676
41.1692,34.0790
39.4692,34.0790
39.4117,34.0676
39.3631,34.0350
39.3306,33.9864
39.3192,33.9290
Z" /> 
<path style="fill:#C83434; fill-opacity:1.0000; stroke:none;fill-rule:evenodd;"
d="M 39.3192,32.3590
39.3306,32.3016
39.3631,32.2529
39.4117,32.2204
39.4692,32.2090
41.1692,32.2090
41.2266,32.2204
41.2752,32.2529
41.3077,32.3016
41.3192,32.3590
41.3192,32.6590
41.3077,32.7164
41.2752,32.7650
41.2266,32.7976
41.1692,32.8090
39.4692,32.8090
39.4117,32.7976
39.3631,32.7650
39.3306,32.7164
39.3192,32.6590
Z" /> 
<path style="fill:#C83434; fill-opacity:1.0000; stroke:none;fill-rule:evenodd;"
d="M 39.3192,31.0890
39.3306,31.0316
39.3631,30.9829
39.4117,30.9504
39.4692,30.9390
41.1692,30.9390
41.2266,30.9504
41.2752,30.9829
41.3077,31.0316
41.3192,31.0890
41.3192,31.3890
41.3077,31.4464
41.2752,31.4950
41.2266,31.5276
41.1692,31.5390
39.4692,31.5390
39.4117,31.5276
39.3631,31.4950
39.3306,31.4464
39.3192,31.3890
Z" /> 
<path style="fill:#C83434; fill-opacity:1.0000; stroke:none;fill-rule:evenodd;"
d="M 39.3192,29.8190
39.3306,29.7616
39.3631,29.7129
39.4117,29.6804
39.4692,29.6690
41.1692,29.6690
41.2266,29.6804
41.2752,29.7129
41.3077,29.7616
41.3192,29.8190
41.3192,30.1190
41.3077,30.1764
41.2752,30.2250
41.2266,30.2576
41.1692,30.2690
39.4692,30.2690
39.4117,30.2576
39.3631,30.2250
39.3306,30.1764
39.3192,30.1190
Z" /> 
<path style="fill:#C83434; fill-opacity:1.0000; stroke:none;fill-rule:evenodd;"
d="M 39.3192,28.5490
39.3306,28.4916
39.3631,28.4429
39.4117,28.4104
39.4692,28.3990
41.1692,28.3990
41.2266,28.4104
41.2752,28.4429
41.3077,28.4916
41.3192,28.5490
41.3192,28.8490
41.3077,28.9064
41.2752,28.9550
41.2266,28.9876
41.1692,28.9990
39.4692,28.9990
39.4117,28.9876
39.3631,28.9550
39.3306,28.9064
39.3192,28.8490
Z" /> 
<path style="fill:#C83434; fill-opacity:1.0000; stroke:none;fill-rule:evenodd;"
d="M 39.3192,27.2790
39.3306,27.2216
39.3631,27.1729
39.4117,27.1404
39.4692,27.1290
41.1692,27.1290
41.2266,27.1404
41.2752,27.1729
41.3077,27.2216
41.3192,27.2790
41.3192,27.5790
41.3077,27.6364
41.2752,27.6850
41.2266,27.7176
41.1692,27.7290
39.4692,27.7290
39.4117,27.7176
39.3631,27.6850
39.3306,27.6364
39.3192,27.5790
Z" /> 
<path style="fill:#C83434; fill-opacity:1.0000; stroke:none;fill-rule:evenodd;"
d="M 39.3192,26.0090
39.3306,25.9516
39.3631,25.9029
39.4117,25.8704
39.4692,25.8590
41.1692,25.8590
41.2266,25.8704
41.2752,25.9029
41.3077,25.9516
41.3192,26.0090
41.3192,26.3090
41.3077,26.3664
41.2752,26.4150
41.2266,26.4476
41.1692,26.4590
39.4692,26.4590
39.4117,26.4476
39.3631,26.4150
39.3306,26.3664
39.3192,26.3090
Z" /> 
<path style="fill:#C83434; fill-opacity:1.0000; stroke:none;fill-rule:evenodd;"
d="M 57.1096,29.6215
57.1286,29.5259
57.1828,29.4448
57.2639,29.3906
57.3596,29.3715
57.8596,29.3715
57.9552,29.3906
58.0363,29.4448
58.0905,29.5259
58.1096,29.6215
58.1096,30.5715
58.0905,30.6672
58.0363,30.7483
57.9552,30.8025
57.8596,30.8215
57.3596,30.8215
57.2639,30.8025
57.1828,30.7483
57.1286,30.6672
57.1096,30.5715
Z" /> 
<path style="fill:#C83434; fill-opacity:1.0000; stroke:none;fill-rule:evenodd;"
d="M 59.1096,29.6215
59.1286,29.5259
59.1828,29.4448
59.2639,29.3906
59.3596,29.3715
59.8596,29.3715
59.9552,29.3906
60.0363,29.4448
60.0905,29.5259
60.1096,29.6215
60.1096,30.5715
60.0905,30.6672
60.0363,30.7483
59.9552,30.8025
59.8596,30.8215
59.3596,30.8215
59.2639,30.8025
59.1828,30.7483
59.1286,30.6672
59.1096,30.5715
Z" /> 
<path style="fill:#C83434; fill-opacity:1.0000; stroke:none;fill-rule:evenodd;"
d="M 27.8281,29.4303
27.8472,29.3346
27.9014,29.2535
27.9825,29.1993
28.0781,29.1803
28.5781,29.1803
28.6738,29.1993
28.7549,29.2535
28.8091,29.3346
28.8281,29.4303
28.8281,30.3803
28.8091,30.4759
28.7549,30.5570
28.6738,30.6112
28.5781,30.6303
28.0781,30.6303
27.9825,30.6112
27.9014,30.5570
27.8472,30.4759
27.8281,30.3803
Z" /> 
<path style="fill:#C83434; fill-opacity:1.0000; stroke:none;fill-rule:evenodd;"
d="M 29.8281,29.4303
29.8472,29.3346
29.9014,29.2535
29.9825,29.1993
30.0781,29.1803
30.5781,29.1803
30.6738,29.1993
30.7549,29.2535
30.8091,29.3346
30.8281,29.4303
30.8281,30.3803
30.8091,30.4759
30.7549,30.5570
30.6738,30.6112
30.5781,30.6303
30.0781,30.6303
29.9825,30.6112
29.9014,30.5570
29.8472,30.4759
29.8281,30.3803
Z" /> 
<path style="fill:#C83434; fill-opacity:1.0000; stroke:none;fill-rule:evenodd;"
d="M 30.2327,24.3845
30.2518,24.2888
30.3060,24.2077
30.3871,24.1535
30.4827,24.1345
30.9827,24.1345
31.0784,24.1535
31.1595,24.2077
31.2137,24.2888
31.2327,24.3845
31.2327,25.3345
31.2137,25.4301
31.1595,25.5112
31.0784,25.5654
30.9827,25.5845
30.4827,25.5845
30.3871,25.5654
30.3060,25.5112
30.2518,25.4301
30.2327,25.3345
Z" /> 
<path style="fill:#C83434; fill-opacity:1.0000; stroke:none;fill-rule:evenodd;"
d="M 32.2327,24.3845
32.2518,24.2888
32.3060,24.2077
32.3871,24.1535
32.4827,24.1345
32.9827,24.1345
33.0784,24.1535
33.1595,24.2077
33.2137,24.2888
33.2327,24.3845
33.2327,25.3345
33.2137,25.4301
33.1595,25.5112
33.0784,25.5654
32.9827,25.5845
32.4827,25.5845
32.3871,25.5654
32.3060,25.5112
32.2518,25.4301
32.2327,25.3345
Z" /> 
<path style="fill:#C83434; fill-opacity:1.0000; stroke:none;fill-rule:evenodd;"
d="M 50.4816,24.6000
50.5006,24.5043
50.5548,24.4232
50.6359,24.3690
50.7316,24.3500
51.2316,24.3500
51.3272,24.3690
51.4083,24.4232
51.4625,24.5043
51.4816,24.6000
51.4816,25.5500
51.4625,25.6457
51.4083,25.7268
51.3272,25.7810
51.2316,25.8000
50.7316,25.8000
50.6359,25.7810
50.5548,25.7268
50.5006,25.6457
50.4816,25.5500
Z" /> 
<path style="fill:#C83434; fill-opacity:1.0000; stroke:none;fill-rule:evenodd;"
d="M 52.4816,24.6000
52.5006,24.5043
52.5548,24.4232
52.6359,24.3690
52.7316,24.3500
53.2316,24.3500
53.3272,24.3690
53.4083,24.4232
53.4625,24.5043
53.4816,24.6000
53.4816,25.5500
53.4625,25.6457
53.4083,25.7268
53.3272,25.7810
53.2316,25.8000
52.7316,25.8000
52.6359,25.7810
52.5548,25.7268
52.5006,25.6457
52.4816,25.5500
Z" /> 
<path style="fill:#C83434; fill-opacity:1.0000; stroke:none;fill-rule:evenodd;"
d="M 80.3816,30.8750
80.3930,30.8176
80.4255,30.7689
80.4742,30.7364
80.5316,30.7250
81.2316,30.7250
81.2890,30.7364
81.3376,30.7689
81.3702,30.8176
81.3816,30.8750
81.3816,31.1750
81.3702,31.2324
81.3376,31.2811
81.2890,31.3136
81.2316,31.3250
80.5316,31.3250
80.4742,31.3136
80.4255,31.2811
80.3930,31.2324
80.3816,31.1750
Z" /> 
<path style="fill:#C83434; fill-opacity:1.0000; stroke:none;fill-rule:evenodd;"
d="M 80.3816,29.9250
80.3930,29.8676
80.4255,29.8189
80.4742,29.7864
80.5316,29.7750
81.2316,29.7750
81.2890,29.7864
81.3376,29.8189
81.3702,29.8676
81.3816,29.9250
81.3816,30.2250
81.3702,30.2824
81.3376,30.3311
81.2890,30.3636
81.2316,30.3750
80.5316,30.3750
80.4742,30.3636
80.4255,30.3311
80.3930,30.2824
80.3816,30.2250
Z" /> 
<path style="fill:#C83434; fill-opacity:1.0000; stroke:none;fill-rule:evenodd;"
d="M 80.3816,28.9750
80.3930,28.9176
80.4255,28.8689
80.4742,28.8364
80.5316,28.8250
81.2316,28.8250
81.2890,28.8364
81.3376,28.8689
81.3702,28.9176
81.3816,28.9750
81.3816,29.2750
81.3702,29.3324
81.3376,29.3811
81.2890,29.4136
81.2316,29.4250
80.5316,29.4250
80.4742,29.4136
80.4255,29.3811
80.3930,29.3324
80.3816,29.2750
Z" /> 
<path style="fill:#C83434; fill-opacity:1.0000; stroke:none;fill-rule:evenodd;"
d="M 82.5816,28.9750
82.5930,28.9176
82.6255,28.8689
82.6742,28.8364
82.7316,28.8250
83.4316,28.8250
83.4890,28.8364
83.5376,28.8689
83.5702,28.9176
83.5816,28.9750
83.5816,29.2750
83.5702,29.3324
83.5376,29.3811
83.4890,29.4136
83.4316,29.4250
82.7316,29.4250
82.6742,29.4136
82.6255,29.3811
82.5930,29.3324
82.5816,29.2750
Z" /> 
<path style="fill:#C83434; fill-opacity:1.0000; stroke:none;fill-rule:evenodd;"
d="M 82.5816,29.9250
82.5930,29.8676
82.6255,29.8189
82.6742,29.7864
82.7316,29.7750
83.4316,29.7750
83.4890,29.7864
83.5376,29.8189
83.5702,29.8676
83.5816,29.9250
83.5816,30.2250
83.5702,30.2824
83.5376,30.3311
83.4890,30.3636
83.4316,30.3750
82.7316,30.3750
82.6742,30.3636
82.6255,30.3311
82.5930,30.2824
82.5816,30.2250
Z" /> 
<path style="fill:#C83434; fill-opacity:1.0000; stroke:none;fill-rule:evenodd;"
d="M 82.5816,30.8750
82.5930,30.8176
82.6255,30.7689
82.6742,30.7364
82.7316,30.7250
83.4316,30.7250
83.4890,30.7364
83.5376,30.7689
83.5702,30.8176
83.5816,30.8750
83.5816,31.1750
83.5702,31.2324
83.5376,31.2811
83.4890,31.3136
83.4316,31.3250
82.7316,31.3250
82.6742,31.3136
82.6255,31.2811
82.5930,31.2324
82.5816,31.1750
Z" /> 
<path style="fill:#C83434; fill-opacity:1.0000; stroke:none;fill-rule:evenodd;"
d="M 79.0816,47.7750
79.0895,47.7063
79.1341,47.6055
79.2120,47.5275
79.3129,47.4830
79.3816,47.4750
79.9816,47.4750
80.0503,47.4830
80.1511,47.5275
80.2291,47.6055
80.2736,47.7063
80.2816,47.7750
80.2816,49.1750
80.2736,49.2437
80.2291,49.3445
80.1511,49.4225
80.0503,49.4670
79.9816,49.4750
79.3816,49.4750
79.3129,49.4670
79.2120,49.4225
79.1341,49.3445
79.0895,49.2437
79.0816,49.1750
Z" /> 
<path style="fill:#C83434; fill-opacity:1.0000; stroke:none;fill-rule:evenodd;"
d="M 81.3816,47.7750
81.3895,47.7063
81.4341,47.6055
81.5120,47.5275
81.6129,47.4830
81.6816,47.4750
82.2816,47.4750
82.3503,47.4830
82.4511,47.5275
82.5291,47.6055
82.5736,47.7063
82.5816,47.7750
82.5816,49.1750
82.5736,49.2437
82.5291,49.3445
82.4511,49.4225
82.3503,49.4670
82.2816,49.4750
81.6816,49.4750
81.6129,49.4670
81.5120,49.4225
81.4341,49.3445
81.3895,49.2437
81.3816,49.1750
Z" /> 
<path style="fill:#C83434; fill-opacity:1.0000; stroke:none;fill-rule:evenodd;"
d="M 83.6816,47.7750
83.6895,47.7063
83.7341,47.6055
83.8120,47.5275
83.9129,47.4830
83.9816,47.4750
84.5816,47.4750
84.6503,47.4830
84.7511,47.5275
84.8291,47.6055
84.8736,47.7063
84.8816,47.7750
84.8816,49.1750
84.8736,49.2437
84.8291,49.3445
84.7511,49.4225
84.6503,49.4670
84.5816,49.4750
83.9816,49.4750
83.9129,49.4670
83.8120,49.4225
83.7341,49.3445
83.6895,49.2437
83.6816,49.1750
Z" /> 
<path style="fill:#C83434; fill-opacity:1.0000; stroke:none;fill-rule:evenodd;"
d="M 80.3316,44.7750
80.3430,44.6687
80.3927,44.5354
80.4780,44.4214
80.5919,44.3362
80.7253,44.2864
80.8316,44.2750
83.1316,44.2750
83.2379,44.2864
83.3712,44.3362
83.4851,44.4214
83.5704,44.5354
83.6201,44.6687
83.6316,44.7750
83.6316,45.7750
83.6201,45.8813
83.5704,46.0146
83.4851,46.1286
83.3712,46.2138
83.2379,46.2636
83.1316,46.2750
80.8316,46.2750
80.7253,46.2636
80.5919,46.2138
80.4780,46.1286
80.3927,46.0146
80.3430,45.8813
80.3316,45.7750
Z" /> 
<path style="fill:#C83434; fill-opacity:1.0000; stroke:none;fill-rule:evenodd;"
d="M 79.0816,62.7750
79.0895,62.7063
79.1341,62.6055
79.2120,62.5275
79.3129,62.4830
79.3816,62.4750
79.9816,62.4750
80.0503,62.4830
80.1511,62.5275
80.2291,62.6055
80.2736,62.7063
80.2816,62.7750
80.2816,64.1750
80.2736,64.2437
80.2291,64.3445
80.1511,64.4225
80.0503,64.4670
79.9816,64.4750
79.3816,64.4750
79.3129,64.4670
79.2120,64.4225
79.1341,64.3445
79.0895,64.2437
79.0816,64.1750
Z" /> 
<path style="fill:#C83434; fill-opacity:1.0000; stroke:none;fill-rule:evenodd;"
d="M 81.3816,62.7750
81.3895,62.7063
81.4341,62.6055
81.5120,62.5275
81.6129,62.4830
81.6816,62.4750
82.2816,62.4750
82.3503,62.4830
82.4511,62.5275
82.5291,62.6055
82.5736,62.7063
82.5816,62.7750
82.5816,64.1750
82.5736,64.2437
82.5291,64.3445
82.4511,64.4225
82.3503,64.4670
82.2816,64.4750
81.6816,64.4750
81.6129,64.4670
81.5120,64.4225
81.4341,64.3445
81.3895,64.2437
81.3816,64.1750
Z" /> 
<path style="fill:#C83434; fill-opacity:1.0000; stroke:none;fill-rule:evenodd;"
d="M 83.6816,62.7750
83.6895,62.7063
83.7341,62.6055
83.8120,62.5275
83.9129,62.4830
83.9816,62.4750
84.5816,62.4750
84.6503,62.4830
84.7511,62.5275
84.8291,62.6055
84.8736,62.7063
84.8816,62.7750
84.8816,64.1750
84.8736,64.2437
84.8291,64.3445
84.7511,64.4225
84.6503,64.4670
84.5816,64.4750
83.9816,64.4750
83.9129,64.4670
83.8120,64.4225
83.7341,64.3445
83.6895,64.2437
83.6816,64.1750
Z" /> 
<path style="fill:#C83434; fill-opacity:1.0000; stroke:none;fill-rule:evenodd;"
d="M 80.3316,59.7750
80.3430,59.6687
80.3927,59.5354
80.4780,59.4214
80.5919,59.3362
80.7253,59.2864
80.8316,59.2750
83.1316,59.2750
83.2379,59.2864
83.3712,59.3362
83.4851,59.4214
83.5704,59.5354
83.6201,59.6687
83.6316,59.7750
83.6316,60.7750
83.6201,60.8813
83.5704,61.0146
83.4851,61.1286
83.3712,61.2138
83.2379,61.2636
83.1316,61.2750
80.8316,61.2750
80.7253,61.2636
80.5919,61.2138
80.4780,61.1286
80.3927,61.0146
80.3430,60.8813
80.3316,60.7750
Z" /> 
<path style="fill:#C83434; fill-opacity:1.0000; stroke:none;fill-rule:evenodd;"
d="M 83.1316,102.4900
83.1361,102.4670
83.1491,102.4476
83.1686,102.4346
83.1916,102.4300
83.8716,102.4300
83.8945,102.4346
83.9140,102.4476
83.9270,102.4670
83.9316,102.4900
83.9316,102.6100
83.9270,102.6330
83.9140,102.6524
83.8945,102.6654
83.8716,102.6700
83.1916,102.6700
83.1686,102.6654
83.1491,102.6524
83.1361,102.6330
83.1316,102.6100
Z" /> 
<path style="fill:#C83434; fill-opacity:1.0000; stroke:none;fill-rule:evenodd;"
d="M 83.1316,102.0900
83.1361,102.0670
83.1491,102.0476
83.1686,102.0346
83.1916,102.0300
83.8716,102.0300
83.8945,102.0346
83.9140,102.0476
83.9270,102.0670
83.9316,102.0900
83.9316,102.2100
83.9270,102.2330
83.9140,102.2524
83.8945,102.2654
83.8716,102.2700
83.1916,102.2700
83.1686,102.2654
83.1491,102.2524
83.1361,102.2330
83.1316,102.2100
Z" /> 
<path style="fill:#C83434; fill-opacity:1.0000; stroke:none;fill-rule:evenodd;"
d="M 83.1316,98.0900
83.1361,98.0670
83.1491,98.0476
83.1686,98.0346
83.1916,98.0300
83.8716,98.0300
83.8945,98.0346
83.9140,98.0476
83.9270,98.0670
83.9316,98.0900
83.9316,98.2100
83.9270,98.2330
83.9140,98.2524
83.8945,98.2654
83.8716,98.2700
83.1916,98.2700
83.1686,98.2654
83.1491,98.2524
83.1361,98.2330
83.1316,98.2100
Z" /> 
<path style="fill:#C83434; fill-opacity:1.0000; stroke:none;fill-rule:evenodd;"
d="M 83.1316,97.6900
83.1361,97.6670
83.1491,97.6476
83.1686,97.6346
83.1916,97.6300
83.8716,97.6300
83.8945,97.6346
83.9140,97.6476
83.9270,97.6670
83.9316,97.6900
83.9316,97.8100
83.9270,97.8330
83.9140,97.8524
83.8945,97.8654
83.8716,97.8700
83.1916,97.8700
83.1686,97.8654
83.1491,97.8524
83.1361,97.8330
83.1316,97.8100
Z" /> 
<path style="fill:#C83434; fill-opacity:1.0000; stroke:none;fill-rule:evenodd;"
d="M 83.1316,97.2900
83.1361,97.2670
83.1491,97.2476
83.1686,97.2346
83.1916,97.2300
83.8716,97.2300
83.8945,97.2346
83.9140,97.2476
83.9270,97.2670
83.9316,97.2900
83.9316,97.4100
83.9270,97.4330
83.9140,97.4524
83.8945,97.4654
83.8716,97.4700
83.1916,97.4700
83.1686,97.4654
83.1491,97.4524
83.1361,97.4330
83.1316,97.4100
Z" /> 
<path style="fill:#C83434; fill-opacity:1.0000; stroke:none;fill-rule:evenodd;"
d="M 84.4616,95.9600
84.4661,95.9370
84.4791,95.9176
84.4986,95.9046
84.5216,95.9000
84.6416,95.9000
84.6645,95.9046
84.6840,95.9176
84.6970,95.9370
84.7016,95.9600
84.7016,96.6400
84.6970,96.6630
84.6840,96.6824
84.6645,96.6954
84.6416,96.7000
84.5216,96.7000
84.4986,96.6954
84.4791,96.6824
84.4661,96.6630
84.4616,96.6400
Z" /> 
<path style="fill:#C83434; fill-opacity:1.0000; stroke:none;fill-rule:evenodd;"
d="M 84.8616,95.9600
84.8661,95.9370
84.8791,95.9176
84.8986,95.9046
84.9216,95.9000
85.0416,95.9000
85.0645,95.9046
85.0840,95.9176
85.0970,95.9370
85.1016,95.9600
85.1016,96.6400
85.0970,96.6630
85.0840,96.6824
85.0645,96.6954
85.0416,96.7000
84.9216,96.7000
84.8986,96.6954
84.8791,96.6824
84.8661,96.6630
84.8616,96.6400
Z" /> 
<path style="fill:#C83434; fill-opacity:1.0000; stroke:none;fill-rule:evenodd;"
d="M 85.2616,95.9600
85.2661,95.9370
85.2791,95.9176
85.2986,95.9046
85.3216,95.9000
85.4416,95.9000
85.4645,95.9046
85.4840,95.9176
85.4970,95.9370
85.5016,95.9600
85.5016,96.6400
85.4970,96.6630
85.4840,96.6824
85.4645,96.6954
85.4416,96.7000
85.3216,96.7000
85.2986,96.6954
85.2791,96.6824
85.2661,96.6630
85.2616,96.6400
Z" /> 
<path style="fill:#C83434; fill-opacity:1.0000; stroke:none;fill-rule:evenodd;"
d="M 85.6616,95.9600
85.6661,95.9370
85.6791,95.9176
85.6986,95.9046
85.7216,95.9000
85.8416,95.9000
85.8645,95.9046
85.8840,95.9176
85.8970,95.9370
85.9016,95.9600
85.9016,96.6400
85.8970,96.6630
85.8840,96.6824
85.8645,96.6954
85.8416,96.7000
85.7216,96.7000
85.6986,96.6954
85.6791,96.6824
85.6661,96.6630
85.6616,96.6400
Z" /> 
<path style="fill:#C83434; fill-opacity:1.0000; stroke:none;fill-rule:evenodd;"
d="M 90.0316,99.6900
90.0361,99.6670
90.0491,99.6476
90.0686,99.6346
90.0916,99.6300
90.7716,99.6300
90.7945,99.6346
90.8140,99.6476
90.8270,99.6670
90.8316,99.6900
90.8316,99.8100
90.8270,99.8330
90.8140,99.8524
90.7945,99.8654
90.7716,99.8700
90.0916,99.8700
90.0686,99.8654
90.0491,99.8524
90.0361,99.8330
90.0316,99.8100
Z" /> 
<path style="fill:#C83434; fill-opacity:1.0000; stroke:none;fill-rule:evenodd;"
d="M 90.0316,100.0900
90.0361,100.0670
90.0491,100.0476
90.0686,100.0346
90.0916,100.0300
90.7716,100.0300
90.7945,100.0346
90.8140,100.0476
90.8270,100.0670
90.8316,100.0900
90.8316,100.2100
90.8270,100.2330
90.8140,100.2524
90.7945,100.2654
90.7716,100.2700
90.0916,100.2700
90.0686,100.2654
90.0491,100.2524
90.0361,100.2330
90.0316,100.2100
Z" /> 
<path style="fill:#C83434; fill-opacity:1.0000; stroke:none;fill-rule:evenodd;"
d="M 84.1816,96.9500
89.7816,96.9500
89.7816,102.5500
84.1816,102.5500
Z" /> 
<path style="fill:#C83434; fill-opacity:1.0000; stroke:none;fill-rule:evenodd;"
d="M 79.1816,96.9500
79.1911,96.9022
79.2182,96.8616
79.2587,96.8345
79.3066,96.8250
79.6566,96.8250
79.7044,96.8345
79.7450,96.8616
79.7721,96.9022
79.7816,96.9500
79.7816,97.2000
79.7721,97.2478
79.7450,97.2884
79.7044,97.3155
79.6566,97.3250
79.3066,97.3250
79.2587,97.3155
79.2182,97.2884
79.1911,97.2478
79.1816,97.2000
Z" /> 
<path style="fill:#C83434; fill-opacity:1.0000; stroke:none;fill-rule:evenodd;"
d="M 80.1816,96.9500
80.1911,96.9022
80.2182,96.8616
80.2587,96.8345
80.3066,96.8250
80.6566,96.8250
80.7044,96.8345
80.7450,96.8616
80.7721,96.9022
80.7816,96.9500
80.7816,97.2000
80.7721,97.2478
80.7450,97.2884
80.7044,97.3155
80.6566,97.3250
80.3066,97.3250
80.2587,97.3155
80.2182,97.2884
80.1911,97.2478
80.1816,97.2000
Z" /> 
<path style="fill:#C83434; fill-opacity:1.0000; stroke:none;fill-rule:evenodd;"
d="M 79.1816,99.9500
79.1911,99.9022
79.2182,99.8616
79.2587,99.8345
79.3066,99.8250
79.6566,99.8250
79.7044,99.8345
79.7450,99.8616
79.7721,99.9022
79.7816,99.9500
79.7816,100.2000
79.7721,100.2478
79.7450,100.2884
79.7044,100.3155
79.6566,100.3250
79.3066,100.3250
79.2587,100.3155
79.2182,100.2884
79.1911,100.2478
79.1816,100.2000
Z" /> 
<path style="fill:#C83434; fill-opacity:1.0000; stroke:none;fill-rule:evenodd;"
d="M 80.1816,99.9500
80.1911,99.9022
80.2182,99.8616
80.2587,99.8345
80.3066,99.8250
80.6566,99.8250
80.7044,99.8345
80.7450,99.8616
80.7721,99.9022
80.7816,99.9500
80.7816,100.2000
80.7721,100.2478
80.7450,100.2884
80.7044,100.3155
80.6566,100.3250
80.3066,100.3250
80.2587,100.3155
80.2182,100.2884
80.1911,100.2478
80.1816,100.2000
Z" /> 
<path style="fill:#C83434; fill-opacity:1.0000; stroke:none;fill-rule:evenodd;"
d="M 79.1816,102.9500
79.1911,102.9022
79.2182,102.8616
79.2587,102.8345
79.3066,102.8250
79.6566,102.8250
79.7044,102.8345
79.7450,102.8616
79.7721,102.9022
79.7816,102.9500
79.7816,103.2000
79.7721,103.2478
79.7450,103.2884
79.7044,103.3155
79.6566,103.3250
79.3066,103.3250
79.2587,103.3155
79.2182,103.2884
79.1911,103.2478
79.1816,103.2000
Z" /> 
<path style="fill:#C83434; fill-opacity:1.0000; stroke:none;fill-rule:evenodd;"
d="M 80.1816,102.9500
80.1911,102.9022
80.2182,102.8616
80.2587,102.8345
80.3066,102.8250
80.6566,102.8250
80.7044,102.8345
80.7450,102.8616
80.7721,102.9022
80.7816,102.9500
80.7816,103.2000
80.7721,103.2478
80.7450,103.2884
80.7044,103.3155
80.6566,103.3250
80.3066,103.3250
80.2587,103.3155
80.2182,103.2884
80.1911,103.2478
80.1816,103.2000
Z" /> 
<path style="fill:#C83434; fill-opacity:1.0000; stroke:none;fill-rule:evenodd;"
d="M 93.1816,99.9500
93.1911,99.9022
93.2182,99.8616
93.2587,99.8345
93.3066,99.8250
93.6566,99.8250
93.7044,99.8345
93.7450,99.8616
93.7721,99.9022
93.7816,99.9500
93.7816,100.2000
93.7721,100.2478
93.7450,100.2884
93.7044,100.3155
93.6566,100.3250
93.3066,100.3250
93.2587,100.3155
93.2182,100.2884
93.1911,100.2478
93.1816,100.2000
Z" /> 
<path style="fill:#C83434; fill-opacity:1.0000; stroke:none;fill-rule:evenodd;"
d="M 94.1816,99.9500
94.1911,99.9022
94.2182,99.8616
94.2587,99.8345
94.3066,99.8250
94.6566,99.8250
94.7044,99.8345
94.7450,99.8616
94.7721,99.9022
94.7816,99.9500
94.7816,100.2000
94.7721,100.2478
94.7450,100.2884
94.7044,100.3155
94.6566,100.3250
94.3066,100.3250
94.2587,100.3155
94.2182,100.2884
94.1911,100.2478
94.1816,100.2000
Z" /> 
<path style="fill:#C83434; fill-opacity:1.0000; stroke:none;fill-rule:evenodd;"
d="M 101.8316,129.6500
101.8373,129.6213
101.8535,129.5970
101.8779,129.5807
101.9066,129.5750
102.0566,129.5750
102.0853,129.5807
102.1096,129.5970
102.1259,129.6213
102.1316,129.6500
102.1316,130.5000
102.1259,130.5287
102.1096,130.5530
102.0853,130.5693
102.0566,130.5750
101.9066,130.5750
101.8779,130.5693
101.8535,130.5530
101.8373,130.5287
101.8316,130.5000
Z" /> 
<path style="fill:#C83434; fill-opacity:1.0000; stroke:none;fill-rule:evenodd;"
d="M 102.2316,129.6500
102.2373,129.6213
102.2535,129.5970
102.2779,129.5807
102.3066,129.5750
102.4566,129.5750
102.4853,129.5807
102.5096,129.5970
102.5259,129.6213
102.5316,129.6500
102.5316,130.5000
102.5259,130.5287
102.5096,130.5530
102.4853,130.5693
102.4566,130.5750
102.3066,130.5750
102.2779,130.5693
102.2535,130.5530
102.2373,130.5287
102.2316,130.5000
Z" /> 
<path style="fill:#C83434; fill-opacity:1.0000; stroke:none;fill-rule:evenodd;"
d="M 99.4816,129.6500
99.4873,129.6213
99.5035,129.5970
99.5279,129.5807
99.5566,129.5750
99.7066,129.5750
99.7353,129.5807
99.7596,129.5970
99.7759,129.6213
99.7816,129.6500
99.7816,130.5000
99.7759,130.5287
99.7596,130.5530
99.7353,130.5693
99.7066,130.5750
99.5566,130.5750
99.5279,130.5693
99.5035,130.5530
99.4873,130.5287
99.4816,130.5000
Z" /> 
<path style="fill:#C83434; fill-opacity:1.0000; stroke:none;fill-rule:evenodd;"
d="M 104.1816,129.6500
104.1873,129.6213
104.2035,129.5970
104.2279,129.5807
104.2566,129.5750
104.4066,129.5750
104.4353,129.5807
104.4596,129.5970
104.4759,129.6213
104.4816,129.6500
104.4816,130.5000
104.4759,130.5287
104.4596,130.5530
104.4353,130.5693
104.4066,130.5750
104.2566,130.5750
104.2279,130.5693
104.2035,130.5530
104.1873,130.5287
104.1816,130.5000
Z" /> 
</g>
<g style="fill:#C83434; fill-opacity:1.0000; stroke:none;">
<circle cx="101.9816" cy="121.4250" r="0.8500" /> 
</g>
<g style="fill:#C83434; fill-opacity:1.0000; stroke:none;">
<circle cx="101.9816" cy="123.9650" r="0.8500" /> 
</g>
<g style="fill:#C83434; fill-opacity:1.0000; stroke:none;">
<circle cx="101.9816" cy="126.5050" r="0.8500" /> 
</g>
<g style="fill:#C83434; fill-opacity:1.0000; stroke:none;">
<circle cx="101.9816" cy="129.0450" r="0.8500" /> 
</g>
<g style="fill:#C83434; fill-opacity:1.0000; stroke:none;">
<circle cx="101.9816" cy="131.5850" r="0.8500" /> 
</g>
<g style="fill:#C83434; fill-opacity:1.0000; stroke:none;">
<circle cx="101.9816" cy="134.1250" r="0.8500" /> 
<path style="fill:#C83434; fill-opacity:1.0000; stroke:none;fill-rule:evenodd;"
d="M 33.3816,107.0375
33.3901,106.9944
33.4145,106.9579
33.4510,106.9336
33.4941,106.9250
34.6691,106.9250
34.7121,106.9336
34.7486,106.9579
34.7730,106.9944
34.7816,107.0375
34.7816,107.2625
34.7730,107.3056
34.7486,107.3421
34.7121,107.3664
34.6691,107.3750
33.4941,107.3750
33.4510,107.3664
33.4145,107.3421
33.3901,107.3056
33.3816,107.2625
Z" /> 
<path style="fill:#C83434; fill-opacity:1.0000; stroke:none;fill-rule:evenodd;"
d="M 33.3816,107.6875
33.3901,107.6444
33.4145,107.6079
33.4510,107.5836
33.4941,107.5750
34.6691,107.5750
34.7121,107.5836
34.7486,107.6079
34.7730,107.6444
34.7816,107.6875
34.7816,107.9125
34.7730,107.9556
34.7486,107.9920
34.7121,108.0164
34.6691,108.0250
33.4941,108.0250
33.4510,108.0164
33.4145,107.9920
33.3901,107.9556
33.3816,107.9125
Z" /> 
<path style="fill:#C83434; fill-opacity:1.0000; stroke:none;fill-rule:evenodd;"
d="M 33.3816,108.3375
33.3901,108.2944
33.4145,108.2579
33.4510,108.2336
33.4941,108.2250
34.6691,108.2250
34.7121,108.2336
34.7486,108.2579
34.7730,108.2944
34.7816,108.3375
34.7816,108.5625
34.7730,108.6056
34.7486,108.6420
34.7121,108.6664
34.6691,108.6750
33.4941,108.6750
33.4510,108.6664
33.4145,108.6420
33.3901,108.6056
33.3816,108.5625
Z" /> 
<path style="fill:#C83434; fill-opacity:1.0000; stroke:none;fill-rule:evenodd;"
d="M 33.3816,108.9875
33.3901,108.9444
33.4145,108.9079
33.4510,108.8836
33.4941,108.8750
34.6691,108.8750
34.7121,108.8836
34.7486,108.9079
34.7730,108.9444
34.7816,108.9875
34.7816,109.2125
34.7730,109.2556
34.7486,109.2920
34.7121,109.3164
34.6691,109.3250
33.4941,109.3250
33.4510,109.3164
33.4145,109.2920
33.3901,109.2556
33.3816,109.2125
Z" /> 
<path style="fill:#C83434; fill-opacity:1.0000; stroke:none;fill-rule:evenodd;"
d="M 33.3816,112.8875
33.3901,112.8444
33.4145,112.8079
33.4510,112.7836
33.4941,112.7750
34.6691,112.7750
34.7121,112.7836
34.7486,112.8079
34.7730,112.8444
34.7816,112.8875
34.7816,113.1125
34.7730,113.1556
34.7486,113.1920
34.7121,113.2164
34.6691,113.2250
33.4941,113.2250
33.4510,113.2164
33.4145,113.1920
33.3901,113.1556
33.3816,113.1125
Z" /> 
<path style="fill:#C83434; fill-opacity:1.0000; stroke:none;fill-rule:evenodd;"
d="M 39.1816,107.0375
39.1901,106.9944
39.2145,106.9579
39.2510,106.9336
39.2941,106.9250
40.4691,106.9250
40.5121,106.9336
40.5486,106.9579
40.5730,106.9944
40.5816,107.0375
40.5816,107.2625
40.5730,107.3056
40.5486,107.3421
40.5121,107.3664
40.4691,107.3750
39.2941,107.3750
39.2510,107.3664
39.2145,107.3421
39.1901,107.3056
39.1816,107.2625
Z" /> 
<path style="fill:#C83434; fill-opacity:1.0000; stroke:none;fill-rule:evenodd;"
d="M 35.4816,119.6000
35.5006,119.5043
35.5548,119.4232
35.6359,119.3690
35.7316,119.3500
36.2316,119.3500
36.3272,119.3690
36.4083,119.4232
36.4625,119.5043
36.4816,119.6000
36.4816,120.5500
36.4625,120.6457
36.4083,120.7268
36.3272,120.7810
36.2316,120.8000
35.7316,120.8000
35.6359,120.7810
35.5548,120.7268
35.5006,120.6457
35.4816,120.5500
Z" /> 
<path style="fill:#C83434; fill-opacity:1.0000; stroke:none;fill-rule:evenodd;"
d="M 37.4816,119.6000
37.5006,119.5043
37.5548,119.4232
37.6359,119.3690
37.7316,119.3500
38.2316,119.3500
38.3272,119.3690
38.4083,119.4232
38.4625,119.5043
38.4816,119.6000
38.4816,120.5500
38.4625,120.6457
38.4083,120.7268
38.3272,120.7810
38.2316,120.8000
37.7316,120.8000
37.6359,120.7810
37.5548,120.7268
37.5006,120.6457
37.4816,120.5500
Z" /> 
<path style="fill:#C83434; fill-opacity:1.0000; stroke:none;fill-rule:evenodd;"
d="M 35.7566,124.8000
35.7718,124.7235
35.8152,124.6586
35.8800,124.6152
35.9566,124.6000
36.3566,124.6000
36.4331,124.6152
36.4980,124.6586
36.5413,124.7235
36.5566,124.8000
36.5566,125.3500
36.5413,125.4265
36.4980,125.4914
36.4331,125.5348
36.3566,125.5500
35.9566,125.5500
35.8800,125.5348
35.8152,125.4914
35.7718,125.4265
35.7566,125.3500
Z" /> 
<path style="fill:#C83434; fill-opacity:1.0000; stroke:none;fill-rule:evenodd;"
d="M 37.4066,124.8000
37.4218,124.7235
37.4652,124.6586
37.5300,124.6152
37.6066,124.6000
38.0066,124.6000
38.0831,124.6152
38.1480,124.6586
38.1913,124.7235
38.2066,124.8000
38.2066,125.3500
38.1913,125.4265
38.1480,125.4914
38.0831,125.5348
38.0066,125.5500
37.6066,125.5500
37.5300,125.5348
37.4652,125.4914
37.4218,125.4265
37.4066,125.3500
Z" /> 
<path style="fill:#C83434; fill-opacity:1.0000; stroke:none;fill-rule:evenodd;"
d="M 43.7066,118.0200
43.7180,117.9626
43.7505,117.9139
43.7992,117.8814
43.8566,117.8700
45.1566,117.8700
45.2140,117.8814
45.2626,117.9139
45.2952,117.9626
45.3066,118.0200
45.3066,118.3200
45.2952,118.3774
45.2626,118.4261
45.2140,118.4586
45.1566,118.4700
43.8566,118.4700
43.7992,118.4586
43.7505,118.4261
43.7180,118.3774
43.7066,118.3200
Z" /> 
<path style="fill:#C83434; fill-opacity:1.0000; stroke:none;fill-rule:evenodd;"
d="M 43.7066,119.2900
43.7180,119.2326
43.7505,119.1839
43.7992,119.1514
43.8566,119.1400
45.1566,119.1400
45.2140,119.1514
45.2626,119.1839
45.2952,119.2326
45.3066,119.2900
45.3066,119.5900
45.2952,119.6474
45.2626,119.6961
45.2140,119.7286
45.1566,119.7400
43.8566,119.7400
43.7992,119.7286
43.7505,119.6961
43.7180,119.6474
43.7066,119.5900
Z" /> 
<path style="fill:#C83434; fill-opacity:1.0000; stroke:none;fill-rule:evenodd;"
d="M 43.7066,120.5600
43.7180,120.5026
43.7505,120.4539
43.7992,120.4214
43.8566,120.4100
45.1566,120.4100
45.2140,120.4214
45.2626,120.4539
45.2952,120.5026
45.3066,120.5600
45.3066,120.8600
45.2952,120.9174
45.2626,120.9661
45.2140,120.9986
45.1566,121.0100
43.8566,121.0100
43.7992,120.9986
43.7505,120.9661
43.7180,120.9174
43.7066,120.8600
Z" /> 
<path style="fill:#C83434; fill-opacity:1.0000; stroke:none;fill-rule:evenodd;"
d="M 43.7066,121.8300
43.7180,121.7726
43.7505,121.7239
43.7992,121.6914
43.8566,121.6800
45.1566,121.6800
45.2140,121.6914
45.2626,121.7239
45.2952,121.7726
45.3066,121.8300
45.3066,122.1300
45.2952,122.1874
45.2626,122.2361
45.2140,122.2686
45.1566,122.2800
43.8566,122.2800
43.7992,122.2686
43.7505,122.2361
43.7180,122.1874
43.7066,122.1300
Z" /> 
<path style="fill:#C83434; fill-opacity:1.0000; stroke:none;fill-rule:evenodd;"
d="M 48.6566,121.8300
48.6680,121.7726
48.7005,121.7239
48.7492,121.6914
48.8066,121.6800
50.1066,121.6800
50.1640,121.6914
50.2126,121.7239
50.2452,121.7726
50.2566,121.8300
50.2566,122.1300
50.2452,122.1874
50.2126,122.2361
50.1640,122.2686
50.1066,122.2800
48.8066,122.2800
48.7492,122.2686
48.7005,122.2361
48.6680,122.1874
48.6566,122.1300
Z" /> 
<path style="fill:#C83434; fill-opacity:1.0000; stroke:none;fill-rule:evenodd;"
d="M 48.6566,120.5600
48.6680,120.5026
48.7005,120.4539
48.7492,120.4214
48.8066,120.4100
50.1066,120.4100
50.1640,120.4214
50.2126,120.4539
50.2452,120.5026
50.2566,120.5600
50.2566,120.8600
50.2452,120.9174
50.2126,120.9661
50.1640,120.9986
50.1066,121.0100
48.8066,121.0100
48.7492,120.9986
48.7005,120.9661
48.6680,120.9174
48.6566,120.8600
Z" /> 
<path style="fill:#C83434; fill-opacity:1.0000; stroke:none;fill-rule:evenodd;"
d="M 48.6566,119.2900
48.6680,119.2326
48.7005,119.1839
48.7492,119.1514
48.8066,119.1400
50.1066,119.1400
50.1640,119.1514
50.2126,119.1839
50.2452,119.2326
50.2566,119.2900
50.2566,119.5900
50.2452,119.6474
50.2126,119.6961
50.1640,119.7286
50.1066,119.7400
48.8066,119.7400
48.7492,119.7286
48.7005,119.6961
48.6680,119.6474
48.6566,119.5900
Z" /> 
<path style="fill:#C83434; fill-opacity:1.0000; stroke:none;fill-rule:evenodd;"
d="M 48.6566,118.0200
48.6680,117.9626
48.7005,117.9139
48.7492,117.8814
48.8066,117.8700
50.1066,117.8700
50.1640,117.8814
50.2126,117.9139
50.2452,117.9626
50.2566,118.0200
50.2566,118.3200
50.2452,118.3774
50.2126,118.4261
50.1640,118.4586
50.1066,118.4700
48.8066,118.4700
48.7492,118.4586
48.7005,118.4261
48.6680,118.3774
48.6566,118.3200
Z" /> 
<path style="fill:#C83434; fill-opacity:1.0000; stroke:none;fill-rule:evenodd;"
d="M 33.3816,132.0375
33.3901,131.9944
33.4145,131.9579
33.4510,131.9336
33.4941,131.9250
34.6691,131.9250
34.7121,131.9336
34.7486,131.9579
34.7730,131.9944
34.7816,132.0375
34.7816,132.2625
34.7730,132.3056
34.7486,132.3421
34.7121,132.3664
34.6691,132.3750
33.4941,132.3750
33.4510,132.3664
33.4145,132.3421
33.3901,132.3056
33.3816,132.2625
Z" /> 
<path style="fill:#C83434; fill-opacity:1.0000; stroke:none;fill-rule:evenodd;"
d="M 33.3816,132.6875
33.3901,132.6444
33.4145,132.6079
33.4510,132.5836
33.4941,132.5750
34.6691,132.5750
34.7121,132.5836
34.7486,132.6079
34.7730,132.6444
34.7816,132.6875
34.7816,132.9125
34.7730,132.9556
34.7486,132.9921
34.7121,133.0164
34.6691,133.0250
33.4941,133.0250
33.4510,133.0164
33.4145,132.9921
33.3901,132.9556
33.3816,132.9125
Z" /> 
<path style="fill:#C83434; fill-opacity:1.0000; stroke:none;fill-rule:evenodd;"
d="M 33.3816,133.3375
33.3901,133.2944
33.4145,133.2579
33.4510,133.2336
33.4941,133.2250
34.6691,133.2250
34.7121,133.2336
34.7486,133.2579
34.7730,133.2944
34.7816,133.3375
34.7816,133.5625
34.7730,133.6056
34.7486,133.6420
34.7121,133.6664
34.6691,133.6750
33.4941,133.6750
33.4510,133.6664
33.4145,133.6420
33.3901,133.6056
33.3816,133.5625
Z" /> 
<path style="fill:#C83434; fill-opacity:1.0000; stroke:none;fill-rule:evenodd;"
d="M 33.3816,133.9875
33.3901,133.9444
33.4145,133.9079
33.4510,133.8836
33.4941,133.8750
34.6691,133.8750
34.7121,133.8836
34.7486,133.9079
34.7730,133.9444
34.7816,133.9875
34.7816,134.2125
34.7730,134.2556
34.7486,134.2920
34.7121,134.3164
34.6691,134.3250
33.4941,134.3250
33.4510,134.3164
33.4145,134.2920
33.3901,134.2556
33.3816,134.2125
Z" /> 
<path style="fill:#C83434; fill-opacity:1.0000; stroke:none;fill-rule:evenodd;"
d="M 33.3816,137.8875
33.3901,137.8444
33.4145,137.8080
33.4510,137.7836
33.4941,137.7750
34.6691,137.7750
34.7121,137.7836
34.7486,137.8080
34.7730,137.8444
34.7816,137.8875
34.7816,138.1125
34.7730,138.1556
34.7486,138.1920
34.7121,138.2164
34.6691,138.2250
33.4941,138.2250
33.4510,138.2164
33.4145,138.1920
33.3901,138.1556
33.3816,138.1125
Z" /> 
<path style="fill:#C83434; fill-opacity:1.0000; stroke:none;fill-rule:evenodd;"
d="M 39.1816,132.0375
39.1901,131.9944
39.2145,131.9579
39.2510,131.9336
39.2941,131.9250
40.4691,131.9250
40.5121,131.9336
40.5486,131.9579
40.5730,131.9944
40.5816,132.0375
40.5816,132.2625
40.5730,132.3056
40.5486,132.3421
40.5121,132.3664
40.4691,132.3750
39.2941,132.3750
39.2510,132.3664
39.2145,132.3421
39.1901,132.3056
39.1816,132.2625
Z" /> 
</g>
<g style="fill:#C83434; fill-opacity:1.0000; stroke:none;">
<circle cx="18.8866" cy="120.0750" r="1.0000" /> 
</g>
<g style="fill:#C83434; fill-opacity:1.0000; stroke:none;">
<circle cx="22.6966" cy="120.0750" r="1.0000" /> 
</g>
<g style="fill:#C83434; fill-opacity:1.0000; stroke:none;">
<circle cx="18.2516" cy="135.0750" r="0.8500" /> 
</g>
<g style="fill:#C83434; fill-opacity:1.0000; stroke:none;">
<circle cx="20.7916" cy="135.0750" r="0.8500" /> 
</g>
<g style="fill:none; 
stroke:#C83434; stroke-width:0.6350; stroke-opacity:1; 
stroke-linecap:round; stroke-linejoin:round;">
<path d="M41.4316 29.9250
L41.4183 29.9097
" />
<path d="M16.9816 85.0750
L17.0316 84.9250
" />
</g>
<g style="fill:none; 
stroke:#C83434; stroke-width:0.5080; stroke-opacity:1; 
stroke-linecap:round; stroke-linejoin:round;">
<path d="M56.6583 29.9097
L32.4316 15.1250
" />
</g>
<g style="fill:none; 
stroke:#C83434; stroke-width:0.6350; stroke-opacity:1; 
stroke-linecap:round; stroke-linejoin:round;">
<path d="M17.0316 84.9250
L17.1316 84.8250
" />
<path d="M17.1316 84.8250
L17.2316 84.7250
" />
<path d="M17.2316 84.7250
L17.3316 84.6250
" />
<path d="M17.3316 84.6250
L17.4316 84.5250
" />
<path d="M52.2316 45.0250
L52.2216 45.0750
" />
<path d="M16.9816 75.0750
L41.4316 29.9250
" />
<path d="M17.4316 84.5250
L52.2316 45.0250
" />
<path style="fill:none; 
stroke:#D0D2CD; stroke-width:0.1500; stroke-opacity:1; 
stroke-linecap:round; stroke-linejoin:round;fill:none"
d="M 6.9816,0.0750
106.9816,0.0750
106.9816,150.0750
6.9816,150.0750
Z" /> 
</g>
<g style="fill:#FFFFFF; fill-opacity:1.0000; stroke:none;">
<circle cx="16.9816" cy="85.0750" r="1.2500" /> 
</g>
<g style="fill:#FFFFFF; fill-opacity:1.0000; stroke:none;">
<circle cx="16.9816" cy="95.0750" r="1.2500" /> 
</g>
<g style="fill:#FFFFFF; fill-opacity:1.0000; stroke:none;">
<circle cx="16.9816" cy="105.0750" r="1.2500" /> 
</g>
<g style="fill:#FFFFFF; fill-opacity:1.0000; stroke:none;">
<circle cx="49.0383" cy="29.9097" r="0.6000" /> 
</g>
<g style="fill:#FFFFFF; fill-opacity:1.0000; stroke:none;">
<circle cx="64.2783" cy="29.9097" r="0.6000" /> 
</g>
<g style="fill:#FFFFFF; fill-opacity:1.0000; stroke:none;">
<circle cx="44.6016" cy="45.0750" r="0.6000" /> 
</g>
<g style="fill:#FFFFFF; fill-opacity:1.0000; stroke:none;">
<circle cx="59.8416" cy="45.0750" r="0.6000" /> 
</g>
<g style="fill:#FFFFFF; fill-opacity:1.0000; stroke:none;">
<circle cx="35.7316" cy="60.0750" r="0.7500" /> 
</g>
<g style="fill:#FFFFFF; fill-opacity:1.0000; stroke:none;">
<circle cx="43.2316" cy="60.0750" r="0.7500" /> 
</g>
<g style="fill:#FFFFFF; fill-opacity:1.0000; stroke:none;">
<circle cx="55.7316" cy="60.0750" r="0.7500" /> 
</g>
<g style="fill:#FFFFFF; fill-opacity:1.0000; stroke:none;">
<circle cx="63.2316" cy="60.0750" r="0.7500" /> 
</g>
<g style="fill:#FFFFFF; fill-opacity:1.0000; stroke:none;">
<circle cx="32.4316" cy="15.0750" r="0.8000" /> 
</g>
<g style="fill:#FFFFFF; fill-opacity:1.0000; stroke:none;">
<circle cx="37.8816" cy="15.0750" r="0.8000" /> 
</g>
<g style="fill:#FFFFFF; fill-opacity:1.0000; stroke:none;">
<circle cx="43.3316" cy="15.0750" r="0.8000" /> 
</g>
<g style="fill:#FFFFFF; fill-opacity:1.0000; stroke:none;">
<circle cx="57.4316" cy="15.0750" r="0.8000" /> 
</g>
<g style="fill:#FFFFFF; fill-opacity:1.0000; stroke:none;">
<circle cx="62.8816" cy="15.0750" r="0.8000" /> 
</g>
<g style="fill:#FFFFFF; fill-opacity:1.0000; stroke:none;">
<circle cx="68.3316" cy="15.0750" r="0.8000" /> 
</g>
<g style="fill:#FFFFFF; fill-opacity:1.0000; stroke:none;">
<circle cx="101.9816" cy="121.4250" r="0.5000" /> 
</g>
<g style="fill:#FFFFFF; fill-opacity:1.0000; stroke:none;">
<circle cx="101.9816" cy="123.9650" r="0.5000" /> 
</g>
<g style="fill:#FFFFFF; fill-opacity:1.0000; stroke:none;">
<circle cx="101.9816" cy="126.5050" r="0.5000" /> 
</g>
<g style="fill:#FFFFFF; fill-opacity:1.0000; stroke:none;">
<circle cx="101.9816" cy="129.0450" r="0.5000" /> 
</g>
<g style="fill:#FFFFFF; fill-opacity:1.0000; stroke:none;">
<circle cx="101.9816" cy="131.5850" r="0.5000" /> 
</g>
<g style="fill:#FFFFFF; fill-opacity:1.0000; stroke:none;">
<circle cx="101.9816" cy="134.1250" r="0.5000" /> 
</g>
<g style="fill:#FFFFFF; fill-opacity:1.0000; stroke:none;">
<circle cx="18.8866" cy="120.0750" r="0.6000" /> 
</g>
<g style="fill:#FFFFFF; fill-opacity:1.0000; stroke:none;">
<circle cx="22.6966" cy="120.0750" r="0.6000" /> 
</g>
<g style="fill:#FFFFFF; fill-opacity:1.0000; stroke:none;">
<circle cx="18.2516" cy="135.0750" r="0.5000" /> 
</g>
<g style="fill:#FFFFFF; fill-opacity:1.0000; stroke:none;">
<circle cx="20.7916" cy="135.0750" r="0.5000" /> 
</g> 
</svg>
