#VRML V2.0 utf8
# Dimensioned assembly envelope; see README.md.
Transform { translation 1.96850394 0.00000000 3.74015748  children [
  Shape { appearance Appearance { material Material { diffuseColor 0.37 0.54 0.75 } }
          geometry Cylinder { radius 1.77165354 height 1.57480315 } }
] }
Transform { translation 0.00000000 0.00000000 1.37795276 rotation 1 0 0 1.57079633 children [
  Shape { appearance Appearance { material Material { diffuseColor 0.70 0.70 0.72 } }
          geometry Cylinder { radius 0.11811024 height 2.75590551 } }
] }
Transform { translation 3.93700787 0.00000000 1.37795276 rotation 1 0 0 1.57079633 children [
  Shape { appearance Appearance { material Material { diffuseColor 0.70 0.70 0.72 } }
          geometry Cylinder { radius 0.11811024 height 2.75590551 } }
] }
