#VRML V2.0 utf8
# Dimensioned assembly envelope; see README.md.
Transform { translation 2.95275591 0.00000000 3.54330709 children [
  Shape { appearance Appearance { material Material { diffuseColor 0.17 0.25 0.43 } }
          geometry Box { size 7.08661417 3.54330709 6.69291339 } }
] }
Transform { translation 0.00000000 0.00000000 0.13779528 rotation 1 0 0 1.57079633 children [
  Shape { appearance Appearance { material Material { diffuseColor 0.72 0.72 0.73 } }
          geometry Cylinder { radius 0.15748031 height 0.27559055 } }
] }
Transform { translation 5.90551181 0.00000000 0.13779528 rotation 1 0 0 1.57079633 children [
  Shape { appearance Appearance { material Material { diffuseColor 0.72 0.72 0.73 } }
          geometry Cylinder { radius 0.15748031 height 0.27559055 } }
] }
